<svg width="29" height="28" viewBox="0 0 29 28" fill="none" xmlns="http://www.w3.org/2000/svg">
<path d="M23.3312 16.8751C23.3312 19.4217 21.7745 19.4817 19.8551 19.4817C17.9357 19.4817 16.3789 19.4217 16.3789 16.8751C16.3789 14.3285 17.9349 4.87891 19.8551 4.87891C21.7752 4.87891 23.3312 14.3285 23.3312 16.8751Z" fill="#00362E"/>
<path d="M19.8604 9.05273L19.6086 14.7445L18.5296 13.1235L19.5008 15.2854L19.4284 18.2759L17.6309 17.1587L19.3568 19.1046L18.9609 27.1388H20.3633L20.1477 17.087L21.6941 15.2136L20.1839 16.4381L20.0761 12.2948L20.7592 11.5024L20.0399 11.8265L19.8604 9.05273Z" fill="#293339"/>
<path opacity="0.45" d="M19.8604 9.05273L19.6086 14.7445L18.5296 13.1235L19.5008 15.2854L19.4284 18.2759L17.6309 17.1587L19.3568 19.1046L18.9609 27.1388H20.3633L20.1477 17.087L21.6941 15.2136L20.1839 16.4381L20.0761 12.2948L20.7592 11.5024L20.0399 11.8265L19.8604 9.05273Z" fill="white"/>
<path d="M18.6836 14.6264C18.6836 17.7339 16.7857 17.8042 14.4453 17.8042C12.105 17.8042 10.207 17.7302 10.207 14.6264C10.207 11.5227 12.1035 0 14.4446 0C16.7857 0 18.6836 11.522 18.6836 14.6264Z" fill="#187A6A"/>
<path d="M14.4509 5.08984L14.1444 12.0298L12.8291 10.0529L14.0129 12.689L13.9251 16.3344L11.7324 14.973L13.8372 17.345L13.3549 27.1409H15.0653L14.8017 14.885L16.6871 12.601L14.846 14.094L14.7145 9.04296L15.5476 8.07669L14.6702 8.47178L14.4509 5.08984Z" fill="#293339"/>
<path opacity="0.45" d="M14.4509 5.08984L14.1444 12.0298L12.8291 10.0529L14.0129 12.689L13.9251 16.3344L11.7324 14.973L13.8372 17.345L13.3549 27.1409H15.0653L14.8017 14.885L16.6871 12.601L14.846 14.094L14.7145 9.04296L15.5476 8.07669L14.6702 8.47178L14.4509 5.08984Z" fill="white"/>
<path d="M29.0004 14.6455C29.0004 17.7456 27.1062 17.8188 24.7688 17.8188C22.4314 17.8188 20.5371 17.7448 20.5371 14.6455C20.5371 11.5462 22.4314 0.0390625 24.7688 0.0390625C27.1062 0.0390625 29.0004 11.5455 29.0004 14.6455Z" fill="#187A6A"/>
<path d="M24.7753 5.12305L24.4688 12.0526L23.155 10.0794L24.3374 12.7111L24.2495 16.3513L22.0605 14.9914L24.1623 17.3597L23.6808 27.1408H25.3883L25.1254 14.9034L27.0078 12.6231L25.1689 14.1139L25.0375 9.07024L25.8698 8.10545L24.9939 8.50054L24.7753 5.12305Z" fill="#293339"/>
<path opacity="0.45" d="M24.7753 5.12305L24.4688 12.0526L23.155 10.0794L24.3374 12.7111L24.2495 16.3513L22.0605 14.9914L24.1623 17.3597L23.6808 27.1408H25.3883L25.1254 14.9034L27.0078 12.6231L25.1689 14.1139L25.0375 9.07024L25.8698 8.10545L24.9939 8.50054L24.7753 5.12305Z" fill="white"/>
<path d="M12.9348 14.6455C12.9348 17.7456 11.0397 17.8188 8.70236 17.8188C6.36498 17.8188 4.4707 17.7448 4.4707 14.6455C4.4707 11.5462 6.36572 0.0390625 8.70236 0.0390625C11.039 0.0390625 12.9348 11.5455 12.9348 14.6455Z" fill="#00362E"/>
<path d="M8.70816 5.12305L8.40168 12.0526L7.08861 10.0794L8.27023 12.7111L8.18308 16.3513L5.99414 14.9914L8.0952 17.3597L7.61369 27.1408H9.32113L9.05822 14.9034L10.9407 12.6231L9.10253 14.1139L8.97107 9.07024L9.80264 8.10545L8.92676 8.50054L8.70816 5.12305Z" fill="#293339"/>
<path opacity="0.45" d="M8.70816 5.12305L8.40168 12.0526L7.08861 10.0794L8.27023 12.7111L8.18308 16.3513L5.99414 14.9914L8.0952 17.3597L7.61369 27.1408H9.32113L9.05822 14.9034L10.9407 12.6231L9.10253 14.1139L8.97107 9.07024L9.80264 8.10545L8.92676 8.50054L8.70816 5.12305Z" fill="white"/>
<path d="M7.22336 16.4758C7.22336 19.1216 5.60603 19.1845 3.61131 19.1845C1.6166 19.1845 0 19.1216 0 16.4758C0 13.83 1.61586 4.00977 3.61131 4.00977C5.60677 4.00977 7.22336 13.8293 7.22336 16.4758Z" fill="#187A6A"/>
<path d="M3.61749 8.34375L3.35605 14.259L2.235 12.5743L3.2438 14.8213L3.16921 17.9287L1.30078 16.7679L3.09462 18.7892L2.68327 27.1386H4.14035L3.91658 16.6932L5.52358 14.7458L3.95351 16.0191L3.84199 11.7131L4.5517 10.8896L3.80433 11.227L3.61749 8.34375Z" fill="#293339"/>
<path opacity="0.45" d="M3.61749 8.34375L3.35605 14.259L2.235 12.5743L3.2438 14.8213L3.16921 17.9287L1.30078 16.7679L3.09462 18.7892L2.68327 27.1386H4.14035L3.91658 16.6932L5.52358 14.7458L3.95351 16.0191L3.84199 11.7131L4.5517 10.8896L3.80433 11.227L3.61749 8.34375Z" fill="white"/>
</svg>
