<svg width="62" height="56" viewBox="0 0 62 56" fill="none" xmlns="http://www.w3.org/2000/svg">
<path d="M31 0L57.8468 14V42L31 56L4.15321 42V14L31 0Z" fill="#AECECC"/>
<path d="M39.6358 32.39C39.6358 34.937 38.0759 34.997 36.1526 34.997C34.2294 34.997 32.6694 34.937 32.6694 32.39C32.6694 29.8429 34.2286 20.3916 36.1526 20.3916C38.0766 20.3916 39.6358 29.8429 39.6358 32.39Z" fill="#314658"/>
<path d="M36.1589 24.5654L35.9065 30.2583L34.8254 28.6369L35.7985 30.7992L35.726 33.7903L33.9248 32.6729L35.6542 34.6191L35.2575 42.6547H36.6628L36.4467 32.6011L37.9963 30.7274L36.483 31.9521L36.3749 27.8081L37.0594 27.0156L36.3387 27.3397L36.1589 24.5654Z" fill="#263238"/>
<path opacity="0.45" d="M36.1589 24.5654L35.9065 30.2583L34.8254 28.6369L35.7985 30.7992L35.726 33.7903L33.9248 32.6729L35.6542 34.6191L35.2575 42.6547H36.6628L36.4467 32.6011L37.9963 30.7274L36.483 31.9521L36.3749 27.8081L37.0594 27.0156L36.3387 27.3397L36.1589 24.5654Z" fill="white"/>
<path d="M34.98 30.1398C34.98 33.2478 33.0782 33.3181 30.7332 33.3181C28.3881 33.3181 26.4863 33.2441 26.4863 30.1398C26.4863 27.0355 28.3866 15.5107 30.7324 15.5107C33.0782 15.5107 34.98 27.0348 34.98 30.1398Z" fill="#5D8D7E"/>
<path d="M30.7391 20.5996L30.432 27.5408L29.114 25.5635L30.3003 28.2001L30.2122 31.8461L28.0151 30.4845L30.1241 32.857L29.6409 42.6546H31.3548L31.0906 30.3965L32.9798 28.1121L31.135 29.6054L31.0033 24.5534L31.838 23.587L30.9589 23.9821L30.7391 20.5996Z" fill="#263238"/>
<path opacity="0.45" d="M30.7391 20.5996L30.432 27.5408L29.114 25.5635L30.3003 28.2001L30.2122 31.8461L28.0151 30.4845L30.1241 32.857L29.6409 42.6546H31.3548L31.0906 30.3965L32.9798 28.1121L31.135 29.6054L31.0033 24.5534L31.838 23.587L30.9589 23.9821L30.7391 20.5996Z" fill="white"/>
<path d="M45.3163 30.1589C45.3163 33.2595 43.4182 33.3327 41.0761 33.3327C38.734 33.3327 36.8359 33.2587 36.8359 30.1589C36.8359 27.059 38.734 15.5498 41.0761 15.5498C43.4182 15.5498 45.3163 27.0583 45.3163 30.1589Z" fill="#3F7E7A"/>
<path d="M41.0835 20.6328L40.7764 27.5637L39.46 25.5901L40.6447 28.2223L40.5566 31.8631L38.3633 30.5029L40.4693 32.8717L39.9868 42.6545H41.6977L41.4343 30.4149L43.3205 28.1342L41.4779 29.6253L41.3462 24.5807L42.1802 23.6158L41.3026 24.0109L41.0835 20.6328Z" fill="#263238"/>
<path opacity="0.45" d="M41.0835 20.6328L40.7764 27.5637L39.46 25.5901L40.6447 28.2223L40.5566 31.8631L38.3633 30.5029L40.4693 32.8717L39.9868 42.6545H41.6977L41.4343 30.4149L43.3205 28.1342L41.4779 29.6253L41.3462 24.5807L42.1802 23.6158L41.3026 24.0109L41.0835 20.6328Z" fill="white"/>
<path d="M29.218 30.1589C29.218 33.2595 27.3191 33.3327 24.977 33.3327C22.6349 33.3327 20.7368 33.2587 20.7368 30.1589C20.7368 27.059 22.6357 15.5498 24.977 15.5498C27.3184 15.5498 29.218 27.0583 29.218 30.1589Z" fill="#314658"/>
<path d="M24.9846 20.6328L24.6775 27.5637L23.3618 25.5901L24.5458 28.2223L24.4585 31.8631L22.2651 30.5029L24.3704 32.8717L23.888 42.6545H25.5988L25.3354 30.4149L27.2217 28.1342L25.3798 29.6253L25.2481 24.5807L26.0813 23.6158L25.2037 24.0109L24.9846 20.6328Z" fill="#263238"/>
<path opacity="0.45" d="M24.9846 20.6328L24.6775 27.5637L23.3618 25.5901L24.5458 28.2223L24.4585 31.8631L22.2651 30.5029L24.3704 32.8717L23.888 42.6545H25.5988L25.3354 30.4149L27.2217 28.1342L25.3798 29.6253L25.2481 24.5807L26.0813 23.6158L25.2037 24.0109L24.9846 20.6328Z" fill="white"/>
<path d="M23.4958 31.9883C23.4958 34.6345 21.8752 34.6974 19.8764 34.6974C17.8777 34.6974 16.2578 34.6345 16.2578 31.9883C16.2578 29.342 17.8769 19.52 19.8764 19.52C21.8759 19.52 23.4958 29.3413 23.4958 31.9883Z" fill="#3F7E7A"/>
<path d="M19.8824 23.8564L19.6205 29.7727L18.4971 28.0878L19.508 30.3351L19.4332 33.4431L17.561 32.2821L19.3585 34.3038L18.9463 42.6547H20.4063L20.1821 32.2073L21.7924 30.2597L20.2191 31.5332L20.1074 27.2264L20.8185 26.4028L20.0696 26.7402L19.8824 23.8564Z" fill="#263238"/>
<path opacity="0.45" d="M19.8824 23.8564L19.6205 29.7727L18.4971 28.0878L19.508 30.3351L19.4332 33.4431L17.561 32.2821L19.3585 34.3038L18.9463 42.6547H20.4063L20.1821 32.2073L21.7924 30.2597L20.2191 31.5332L20.1074 27.2264L20.8185 26.4028L20.0696 26.7402L19.8824 23.8564Z" fill="white"/>
</svg>
