<svg width="31" height="31" viewBox="0 0 31 31" fill="none" xmlns="http://www.w3.org/2000/svg">
<path d="M30.997 4.89218L14.0627 4.66797L13.916 18.1204C13.916 19.3382 14.7122 20.5663 16.3569 21.5089C19.6411 23.4045 25.0048 23.4606 28.3361 21.6363C30.0123 20.7191 30.8504 19.4962 30.8504 18.2681L30.997 4.89218Z" fill="#556875"/>
<path d="M16.5821 1.33021C13.256 3.15444 13.2193 6.16593 16.5088 8.05641C19.7982 9.94688 25.1567 10.008 28.4828 8.1838C31.8089 6.35957 31.8456 3.34807 28.5561 1.4576C25.2667 -0.432867 19.9082 -0.494014 16.5821 1.33021Z" fill="#556875"/>
<path d="M30.266 4.83612C30.2611 5.05666 30.2204 5.27506 30.1455 5.48325C29.7586 6.39708 29.036 7.13815 28.1184 7.56225C26.3652 8.39693 24.4356 8.82103 22.4838 8.80068C20.532 8.78033 18.6121 8.3161 16.8777 7.44506C15.9852 7.00703 15.2871 6.26805 14.9135 5.36605C14.8324 5.14358 14.7916 4.9091 14.793 4.67305C14.793 3.65393 15.5682 2.70105 16.9406 1.95709C18.695 1.12668 20.6241 0.70497 22.5751 0.725312C24.5261 0.745654 26.4455 1.2075 28.1812 2.07429C29.5274 2.85392 30.2764 3.83228 30.266 4.83612Z" fill="#293339"/>
<path d="M30.1461 5.48396C29.7592 6.39778 29.0366 7.13886 28.119 7.56296C26.3658 8.39763 24.4361 8.82174 22.4843 8.80139C20.5326 8.78104 18.6127 8.31681 16.8783 7.44577C15.9858 7.00773 15.2876 6.26876 14.9141 5.36675C15.3016 4.45457 16.0242 3.7153 16.9412 3.29284C18.6934 2.45503 20.6235 2.02917 22.5758 2.04952C24.5282 2.06988 26.4484 2.5359 28.1818 3.41004C29.0725 3.84796 29.7702 4.58462 30.1461 5.48396Z" fill="#187A6A"/>
<path opacity="0.6" d="M30.1461 5.48396C29.7592 6.39778 29.0366 7.13886 28.119 7.56296C26.3658 8.39763 24.4361 8.82174 22.4843 8.80139C20.5326 8.78104 18.6127 8.31681 16.8783 7.44577C15.9858 7.00773 15.2876 6.26876 14.9141 5.36675C15.3016 4.45457 16.0242 3.7153 16.9412 3.29284C18.6934 2.45503 20.6235 2.02917 22.5758 2.04952C24.5282 2.06988 26.4484 2.5359 28.1818 3.41004C29.0725 3.84796 29.7702 4.58462 30.1461 5.48396Z" fill="#D9E0E3"/>
<path opacity="0.35" d="M28.119 7.56173C28.3874 7.40929 28.6446 7.23903 28.889 7.05217C25.7986 8.66238 20.5082 7.92351 18.8216 6.71585C16.7264 5.23303 16.9464 3.28652 19.6387 2.31836C18.6953 2.50462 17.786 2.82753 16.9412 3.27632C16.0242 3.69879 15.3016 4.43805 14.9141 5.35024C15.2876 6.25224 15.9858 6.99121 16.8783 7.42925C18.6127 8.30029 20.5326 8.76452 22.4844 8.78487C24.4361 8.80522 26.3658 8.38111 28.119 7.54644V7.56173Z" fill="#187A6A"/>
<path d="M26.1419 9.93217C26.5086 9.72834 26.8072 9.8965 26.8019 10.3143C26.7872 10.5395 26.7178 10.758 26.5994 10.952C26.4811 11.146 26.3171 11.3099 26.121 11.4303C25.7491 11.6341 25.4558 11.4659 25.461 11.0532C25.4745 10.8271 25.5433 10.6074 25.6618 10.4124C25.7802 10.2174 25.9449 10.0527 26.1419 9.93217Z" fill="#293339"/>
<path d="M14.0315 7.03189C13.1044 8.81535 11.2501 13.0651 13.6544 14.7925C13.7591 14.8638 13.8482 14.9301 13.9529 14.9912V15.8524C13.712 15.7097 13.4658 15.5466 13.2249 15.3785C9.63161 12.7848 13.6858 6.13506 13.8586 5.85989C13.9035 5.78486 13.9769 5.72998 14.0629 5.70703L14.0315 7.03189Z" fill="#D9E0E3"/>
<path d="M26.4549 10.8502C26.3501 11.0591 23.7364 15.9458 19.4308 16.9038C18.9454 17.0174 18.4477 17.0739 17.9485 17.0719C16.5201 17.0449 15.1296 16.6205 13.9414 15.849V14.9878C15.7171 16.1904 17.5032 16.6031 19.2579 16.2057C23.2283 15.3038 25.7687 10.5597 25.7897 10.5139C25.8122 10.4689 25.844 10.429 25.8832 10.3967C25.9223 10.3643 25.9679 10.3402 26.0172 10.3258C26.0664 10.3114 26.1181 10.3072 26.1691 10.3132C26.2201 10.3193 26.2693 10.3356 26.3135 10.361C26.3566 10.3833 26.3946 10.4139 26.4252 10.4509C26.4558 10.4879 26.4784 10.5305 26.4916 10.5762C26.5048 10.6219 26.5084 10.6698 26.5021 10.7169C26.4958 10.764 26.4797 10.8093 26.4549 10.8502Z" fill="#D9E0E3"/>
<path d="M12.5677 22.0711L20.2308 17.801C20.3142 17.7449 20.3806 17.668 20.423 17.5783C20.4654 17.4887 20.4822 17.3896 20.4718 17.2914C20.4565 17.0143 20.3747 16.7446 20.2327 16.5038C20.0908 16.2631 19.8928 16.0581 19.6546 15.9054C19.5719 15.846 19.4742 15.8094 19.3718 15.7996C19.2695 15.7897 19.1663 15.8069 19.0732 15.8494L11.4258 20.1144L12.5677 22.0711Z" fill="#4A5B66"/>
<path d="M13.3829 19.0078L15.7033 20.3174L12.5658 22.0703L11.4082 20.1136L13.3829 19.0078Z" fill="#4A5B66"/>
<path d="M4.67578 22.572L6.24717 21.6956L4.67578 20.8191L7.87618 19.0204C8.41794 18.7515 9.01748 18.6113 9.62567 18.6113C10.2339 18.6113 10.8334 18.7515 11.3751 19.0204L14.1094 20.5491C14.2968 20.6347 14.4601 20.7634 14.5851 20.9241C14.7101 21.0847 14.7931 21.2726 14.827 21.4714C14.827 21.507 14.827 23 14.827 23.3414C14.7966 23.5421 14.715 23.7321 14.5896 23.8941C14.4643 24.0561 14.2991 24.1849 14.1094 24.2688L10.8985 26.0778L4.67578 22.572Z" fill="#4A5B66"/>
<path d="M14.1172 20.5588L11.3829 19.0301C10.8412 18.7613 10.2417 18.6211 9.63347 18.6211C9.02529 18.6211 8.42575 18.7613 7.88399 19.0301L4.68359 20.8289L10.9011 24.3245L14.1015 22.5257C15.0914 21.9856 15.0914 21.104 14.1172 20.5588Z" fill="#4A5B66"/>
<path d="M10.9094 24.3222L4.68141 20.8164L0.00390625 23.4355L6.23185 26.9464L10.9094 24.3222Z" fill="#D9E0E3"/>
<path d="M10.9113 24.3223L6.23375 26.9465L6.22852 28.6943L10.906 26.0752L10.9113 24.3223Z" fill="#D9E0E3"/>
<path d="M12.2983 23.5441L6.07031 20.0383L6.70935 19.6816L12.9687 23.167L12.2983 23.5441Z" fill="#187A6A"/>
<path d="M12.2988 23.545V25.2979L12.9641 24.9209L12.9693 23.168L12.2988 23.545Z" fill="#187A6A"/>
<path opacity="0.1" d="M12.2988 23.545V25.2979L12.9641 24.9209L12.9693 23.168L12.2988 23.545Z" fill="#293339"/>
<path d="M7.65715 27.8958C7.65715 27.8958 8.51094 26.8308 8.05524 25.9238L6.23242 26.9429V28.6907L7.65715 27.8958Z" fill="#187A6A"/>
<path opacity="0.1" d="M7.65715 27.8958C7.65715 27.8958 8.51094 26.8308 8.05524 25.9238L6.23242 26.9429V28.6907L7.65715 27.8958Z" fill="#293339"/>
<path d="M8.05467 25.9221C8.00103 25.5629 7.85604 25.2223 7.63286 24.9313C7.40968 24.6404 7.11536 24.4082 6.7766 24.2559C5.92805 23.8992 4.12619 24.6279 3.37716 23.4406C2.85336 22.6049 3.42954 21.5195 3.42954 21.5195L0.00390625 23.4355L6.23185 26.9718L8.05467 25.9221Z" fill="#187A6A"/>
<path d="M0.00523509 23.4375L0 25.1904L6.22794 28.6962L6.23318 26.9484L0.00523509 23.4375Z" fill="#187A6A"/>
<path opacity="0.15" d="M0.00523509 23.4375L0 25.1904L6.22794 28.6962L6.23318 26.9484L0.00523509 23.4375Z" fill="#293339"/>
<path d="M30.375 16.9671C30.3866 17.0796 30.3667 17.193 30.3176 17.2955C30.2684 17.398 30.1917 17.4856 30.0956 17.5492L25.0869 20.3163C24.9381 20.4007 24.7736 20.4555 24.6028 20.4775C24.4321 20.4996 24.2586 20.4886 24.0923 20.445C23.926 20.4014 23.7703 20.3261 23.6341 20.2236C23.4979 20.121 23.3839 19.9932 23.2989 19.8475C23.2138 19.7018 23.1593 19.5412 23.1385 19.3749C23.1176 19.2086 23.1309 19.0399 23.1776 18.8786C23.2242 18.7173 23.3033 18.5667 23.4102 18.4353C23.5171 18.304 23.6498 18.1945 23.8004 18.1134L28.7933 15.3489C28.8984 15.2995 29.0155 15.2791 29.1317 15.2899C29.2479 15.3008 29.3588 15.3425 29.4523 15.4104C29.7217 15.5804 29.9458 15.8101 30.1062 16.0807C30.2666 16.3513 30.3587 16.6551 30.375 16.9671Z" fill="#187A6A"/>
<path opacity="0.15" d="M30.3744 16.9676C30.3491 16.4809 30.143 16.0198 29.7945 15.6699C30.1661 16.1828 30.2189 16.6957 29.0985 17.3189C27.9781 17.9421 25.4896 19.3372 25.0072 19.6013C24.5248 19.8654 23.6048 20.1527 23.125 19.3192C23.1334 19.51 23.1876 19.6961 23.2832 19.8629C23.371 20.0091 23.4878 20.137 23.6268 20.2391C23.7657 20.3412 23.9241 20.4155 24.0927 20.4577C24.2614 20.4999 24.4369 20.5092 24.6093 20.485C24.7816 20.4608 24.9473 20.4036 25.0968 20.3168L30.1055 17.5497C30.1997 17.4849 30.2743 17.3967 30.3216 17.2943C30.3689 17.1919 30.3871 17.0791 30.3744 16.9676Z" fill="#293339"/>
<path d="M23.5546 19.2129C23.6839 19.296 23.7911 19.4075 23.8676 19.5386C23.9441 19.6696 23.9877 19.8163 23.9949 19.9669C24.0006 20.0209 23.9911 20.0755 23.9674 20.1247C23.9437 20.174 23.9068 20.216 23.8604 20.2464L23.4835 20.4515L22.8613 19.395L23.2357 19.1924C23.2856 19.1668 23.3418 19.1552 23.3981 19.1589C23.4544 19.1625 23.5086 19.1812 23.5546 19.2129Z" fill="#B9C5CC"/>
<path d="M23.6169 20.1658C23.6169 20.4402 23.4165 20.553 23.1714 20.4222C23.0421 20.339 22.9347 20.2274 22.8578 20.0965C22.7808 19.9655 22.7366 19.8188 22.7285 19.6682C22.7285 19.3938 22.9315 19.281 23.1767 19.4118C23.306 19.4947 23.4134 19.6062 23.4899 19.7373C23.5664 19.8684 23.61 20.0152 23.6169 20.1658Z" fill="#B9C5CC"/>
<path d="M23.4659 20.0829C23.4611 19.9866 23.4331 19.8928 23.3841 19.809C23.3351 19.7253 23.2665 19.6539 23.1838 19.6008C23.1535 19.5783 23.117 19.5651 23.079 19.5629C23.041 19.5606 23.0032 19.5693 22.9703 19.588L22.0529 20.1009C21.6418 20.3324 21.3003 20.6647 21.0625 21.0648C20.8248 21.4649 20.699 21.9186 20.6979 22.3807V23.1501C20.6971 23.5747 20.5818 23.9917 20.3635 24.3593C20.1451 24.727 19.8314 25.0325 19.4536 25.2453L18.7129 25.6633L19.1162 26.3429L19.857 25.9274C20.3574 25.6452 20.7729 25.2401 21.062 24.7528C21.3511 24.2654 21.5037 23.7128 21.5046 23.1501V22.3807C21.5057 22.0564 21.5941 21.7379 21.7611 21.4572C21.9281 21.1764 22.1677 20.9431 22.4562 20.7805L23.3815 20.2676C23.412 20.2476 23.4361 20.2197 23.451 20.1871C23.466 20.1544 23.4711 20.1183 23.4659 20.0829Z" fill="#B9C5CC"/>
<path opacity="0.15" d="M23.6763 27.4564L16.3241 23.3275C16.1343 23.2226 15.911 23.1908 15.6982 23.2383C15.4854 23.2858 15.2986 23.4091 15.1748 23.584L10.6011 30.2517C10.5322 30.3392 10.491 30.4444 10.4824 30.5543C10.4824 30.5953 10.4824 30.7517 10.4824 30.7902C10.4824 30.9595 10.6459 31.0467 10.9385 30.9749L23.592 28.2437C23.8266 28.1949 23.9452 28.0975 23.9452 27.9872C23.9452 27.9462 23.9452 27.7846 23.9452 27.7436C23.9399 27.6641 23.8529 27.5564 23.6763 27.4564Z" fill="#293339"/>
<path d="M16.3243 23.3284L23.6765 27.4572C24.0614 27.6752 24.0218 27.9265 23.5869 28.0214L10.9334 30.7526C10.4984 30.8475 10.3455 30.6295 10.5933 30.2679L15.167 23.6002C15.2887 23.4208 15.4758 23.2929 15.6906 23.2425C15.9054 23.192 16.1319 23.2227 16.3243 23.3284Z" fill="#B9C5CC"/>
</svg>
