<svg width="62" height="56" viewBox="0 0 62 56" fill="none" xmlns="http://www.w3.org/2000/svg">
<path d="M31 0L57.8468 14V42L31 56L4.15321 42V14L31 0Z" fill="#A882DE"/>
<path d="M45.997 17.0288L29.0627 16.7983L28.916 30.6265C28.916 31.8784 29.7122 33.1407 31.3569 34.1098C34.6411 36.0583 40.0048 36.1159 43.3361 34.2407C45.0122 33.2979 45.8503 32.0408 45.8503 30.7784L45.997 17.0288Z" fill="#37474F"/>
<path d="M31.5816 13.3674C28.2555 15.2426 28.2189 18.3382 31.5083 20.2815C34.7977 22.2247 40.1562 22.2876 43.4823 20.4124C46.8084 18.5372 46.845 15.4416 43.5556 13.4983C40.2662 11.555 34.9077 11.4922 31.5816 13.3674Z" fill="#455A64"/>
<path d="M45.2669 16.971C45.262 17.1977 45.2214 17.4222 45.1464 17.6362C44.7595 18.5756 44.0369 19.3373 43.1193 19.7733C41.3661 20.6313 39.4365 21.0672 37.4847 21.0463C35.5329 21.0254 33.6131 20.5482 31.8787 19.6528C30.9862 19.2025 30.288 18.4429 29.9145 17.5157C29.8333 17.287 29.7926 17.046 29.794 16.8034C29.794 15.7558 30.5692 14.7763 31.9415 14.0115C33.696 13.1579 35.6251 12.7244 37.5761 12.7454C39.5271 12.7663 41.4464 13.241 43.1822 14.132C44.5283 14.9334 45.2774 15.9391 45.2669 16.971Z" fill="#263238"/>
<path d="M45.147 17.6366C44.7601 18.5759 44.0375 19.3377 43.1199 19.7736C41.3667 20.6316 39.4371 21.0676 37.4853 21.0467C35.5335 21.0257 33.6137 20.5485 31.8793 19.6532C30.9868 19.2029 30.2886 18.4433 29.915 17.5161C30.3026 16.5784 31.0252 15.8185 31.9421 15.3842C33.6944 14.523 35.6244 14.0853 37.5768 14.1062C39.5292 14.1271 41.4493 14.6061 43.1828 15.5047C44.0734 15.9549 44.7711 16.7121 45.147 17.6366Z" fill="#BA68C8"/>
<path opacity="0.6" d="M45.147 17.6366C44.7601 18.5759 44.0375 19.3377 43.1199 19.7736C41.3667 20.6316 39.4371 21.0676 37.4853 21.0467C35.5335 21.0257 33.6137 20.5485 31.8793 19.6532C30.9868 19.2029 30.2886 18.4433 29.915 17.5161C30.3026 16.5784 31.0252 15.8185 31.9421 15.3842C33.6944 14.523 35.6244 14.0853 37.5768 14.1062C39.5292 14.1271 41.4493 14.6061 43.1828 15.5047C44.0734 15.9549 44.7711 16.7121 45.147 17.6366Z" fill="white"/>
<path opacity="0.35" d="M43.1199 19.7731C43.3883 19.6164 43.6456 19.4414 43.8899 19.2493C40.7995 20.9045 35.5092 20.145 33.8226 18.9036C31.7274 17.3794 31.9474 15.3785 34.6397 14.3833C33.6963 14.5748 32.787 14.9067 31.9421 15.368C31.0252 15.8023 30.3026 16.5622 29.915 17.4999C30.2886 18.4271 30.9868 19.1867 31.8793 19.637C33.6137 20.5323 35.5335 21.0095 37.4853 21.0305C39.4371 21.0514 41.3667 20.6154 43.1199 19.7574V19.7731Z" fill="#BA68C8"/>
<path d="M41.141 22.2095C41.5076 22 41.8062 22.1728 41.8009 22.6023C41.7862 22.8338 41.7168 23.0584 41.5984 23.2578C41.4801 23.4572 41.3161 23.6257 41.12 23.7494C40.7481 23.9589 40.4548 23.7861 40.46 23.3618C40.4735 23.1294 40.5424 22.9036 40.6608 22.7031C40.7793 22.5027 40.9439 22.3334 41.141 22.2095Z" fill="#263238"/>
<path d="M29.0315 19.2291C28.1044 21.0623 26.2501 25.4308 28.6544 27.2064C28.7591 27.2798 28.8482 27.3479 28.9529 27.4107V28.296C28.712 28.1493 28.4658 27.9817 28.2249 27.8088C24.6316 25.1427 28.6858 18.3072 28.8586 18.0243C28.9035 17.9472 28.9769 17.8908 29.0629 17.8672L29.0315 19.2291Z" fill="#E0E0E0"/>
<path d="M41.4544 23.1519C41.3496 23.3666 38.7359 28.3898 34.4303 29.3746C33.9449 29.4914 33.4472 29.5494 32.948 29.5474C31.5196 29.5196 30.1291 29.0834 28.9409 28.2903V27.4051C30.7166 28.6413 32.5027 29.0655 34.2574 28.657C38.2278 27.7299 40.7682 22.8533 40.7892 22.8062C40.8117 22.76 40.8435 22.719 40.8827 22.6857C40.9218 22.6524 40.9674 22.6276 41.0166 22.6128C41.0658 22.5981 41.1176 22.5937 41.1686 22.5999C41.2196 22.6061 41.2688 22.6229 41.313 22.6491C41.3561 22.672 41.3941 22.7034 41.4247 22.7414C41.4553 22.7794 41.4779 22.8233 41.4911 22.8703C41.5043 22.9172 41.5079 22.9664 41.5016 23.0148C41.4953 23.0632 41.4792 23.1099 41.4544 23.1519Z" fill="#E0E0E0"/>
<path d="M27.5672 34.6873L35.2303 30.2979C35.3137 30.2402 35.3801 30.1612 35.4225 30.069C35.4649 29.9768 35.4817 29.875 35.4712 29.7741C35.456 29.4893 35.3742 29.212 35.2322 28.9645C35.0903 28.7171 34.8923 28.5064 34.6541 28.3494C34.5714 28.2883 34.4737 28.2507 34.3713 28.2406C34.269 28.2304 34.1658 28.2481 34.0727 28.2918L26.4253 32.6759L27.5672 34.6873Z" fill="#455A64"/>
<path d="M28.3834 31.5396L30.7038 32.8857L27.5663 34.6876L26.4087 32.6762L28.3834 31.5396Z" fill="#37474F"/>
<path d="M19.6768 35.2007L21.2481 34.2998L19.6768 33.3989L22.8771 31.5499C23.4189 31.2735 24.0184 31.1294 24.6266 31.1294C25.2348 31.1294 25.8343 31.2735 26.3761 31.5499L29.1103 33.1212C29.2978 33.2093 29.4611 33.3416 29.5861 33.5067C29.7111 33.6719 29.7941 33.865 29.8279 34.0693C29.8279 34.106 29.8279 35.6407 29.8279 35.9916C29.7975 36.1979 29.7159 36.3932 29.5906 36.5597C29.4652 36.7263 29.3001 36.8587 29.1103 36.9449L25.8994 38.8044L19.6768 35.2007Z" fill="#37474F"/>
<path d="M29.1167 33.132L26.3824 31.5606C25.8407 31.2842 25.2412 31.1401 24.633 31.1401C24.0248 31.1401 23.4253 31.2842 22.8835 31.5606L19.6831 33.4096L25.9006 37.0028L29.1009 35.1538C30.0909 34.5986 30.0909 33.6925 29.1167 33.132Z" fill="#455A64"/>
<path d="M25.9098 37.0021L19.6819 33.3984L15.0044 36.0907L21.2323 39.6997L25.9098 37.0021Z" fill="#F0F0F0"/>
<path d="M25.9117 37.002L21.2342 39.6995L21.229 41.4961L25.9065 38.8038L25.9117 37.002Z" fill="#EBEBEB"/>
<path d="M27.2982 36.2008L21.0703 32.5971L21.7093 32.2305L27.9687 35.8132L27.2982 36.2008Z" fill="#BA68C8"/>
<path d="M27.2993 36.2006V38.0024L27.9645 37.6148L27.9698 35.813L27.2993 36.2006Z" fill="#BA68C8"/>
<path opacity="0.1" d="M27.2993 36.2006V38.0024L27.9645 37.6148L27.9698 35.813L27.2993 36.2006Z" fill="black"/>
<path d="M22.6576 40.6741C22.6576 40.6741 23.5114 39.5793 23.0557 38.647L21.2329 39.6946V41.4912L22.6576 40.6741Z" fill="#BA68C8"/>
<path opacity="0.1" d="M22.6576 40.6741C22.6576 40.6741 23.5114 39.5793 23.0557 38.647L21.2329 39.6946V41.4912L22.6576 40.6741Z" fill="black"/>
<path d="M23.0551 38.6472C23.0015 38.2779 22.8565 37.9278 22.6333 37.6287C22.4101 37.3296 22.1158 37.0909 21.7771 36.9344C20.9285 36.5677 19.1267 37.3167 18.3776 36.0963C17.8538 35.2373 18.43 34.1216 18.43 34.1216L15.0044 36.0911L21.2323 39.7262L23.0551 38.6472Z" fill="#BA68C8"/>
<path d="M15.0052 36.0913L15 37.8932L21.2279 41.4969L21.2332 39.7003L15.0052 36.0913Z" fill="#BA68C8"/>
<path opacity="0.15" d="M15.0052 36.0913L15 37.8932L21.2279 41.4969L21.2332 39.7003L15.0052 36.0913Z" fill="black"/>
<path d="M45.375 29.4412C45.3866 29.5569 45.3667 29.6735 45.3175 29.7788C45.2684 29.8842 45.1917 29.9743 45.0955 30.0396L40.0869 32.884C39.9381 32.9707 39.7736 33.0271 39.6028 33.0498C39.4321 33.0725 39.2586 33.0611 39.0923 33.0163C38.926 32.9715 38.7703 32.8941 38.6341 32.7887C38.4979 32.6833 38.3839 32.5519 38.2989 32.4022C38.2138 32.2524 38.1593 32.0873 38.1385 31.9163C38.1176 31.7454 38.1309 31.572 38.1776 31.4062C38.2242 31.2404 38.3033 31.0855 38.4102 30.9505C38.5171 30.8155 38.6498 30.703 38.8004 30.6196L43.7933 27.7778C43.8984 27.7271 44.0155 27.7061 44.1317 27.7173C44.2479 27.7284 44.3588 27.7713 44.4523 27.8411C44.7217 28.0158 44.9458 28.252 45.1062 28.5301C45.2666 28.8083 45.3587 29.1205 45.375 29.4412Z" fill="#BA68C8"/>
<path opacity="0.15" d="M45.3744 29.4408C45.3491 28.9406 45.143 28.4666 44.7944 28.1069C45.1661 28.6342 45.2188 29.1614 44.0985 29.802C42.9781 30.4426 40.4896 31.8766 40.0072 32.1481C39.5248 32.4197 38.6048 32.7149 38.125 31.8582C38.1334 32.0542 38.1876 32.2456 38.2832 32.417C38.371 32.5674 38.4878 32.6988 38.6268 32.8037C38.7657 32.9087 38.9241 32.985 39.0927 33.0284C39.2614 33.0718 39.4369 33.0813 39.6093 33.0565C39.7816 33.0316 39.9473 32.9729 40.0968 32.8836L45.1055 30.0392C45.1997 29.9726 45.2743 29.8819 45.3216 29.7767C45.3689 29.6715 45.3871 29.5555 45.3744 29.4408Z" fill="black"/>
<path d="M38.5551 31.7501C38.6844 31.8354 38.7916 31.9501 38.8681 32.0848C38.9446 32.2195 38.9882 32.3704 38.9954 32.5251C39.0011 32.5807 38.9916 32.6368 38.9679 32.6874C38.9442 32.738 38.9072 32.7812 38.8609 32.8124L38.4839 33.0233L37.8618 31.9372L38.2362 31.729C38.2861 31.7027 38.3423 31.6908 38.3986 31.6945C38.4549 31.6982 38.5091 31.7175 38.5551 31.7501Z" fill="#F0F0F0"/>
<path d="M38.6169 32.7279C38.6169 33.0099 38.4165 33.1259 38.1714 32.9915C38.0421 32.9059 37.9347 32.7913 37.8578 32.6567C37.7808 32.5221 37.7366 32.3713 37.7285 32.2165C37.7285 31.9344 37.9315 31.8184 38.1767 31.9529C38.306 32.0381 38.4134 32.1528 38.4899 32.2875C38.5664 32.4222 38.61 32.5731 38.6169 32.7279Z" fill="#E0E0E0"/>
<path d="M38.4658 32.6434C38.4611 32.5444 38.4331 32.4479 38.3841 32.3618C38.3351 32.2757 38.2665 32.2024 38.1838 32.1478C38.1535 32.1247 38.117 32.1111 38.079 32.1088C38.041 32.1064 38.0032 32.1154 37.9703 32.1346L37.0529 32.6618C36.6418 32.8998 36.3003 33.2414 36.0625 33.6527C35.8247 34.0639 35.699 34.5303 35.6979 35.0053V35.7962C35.6971 36.2327 35.5818 36.6613 35.3635 37.0392C35.1451 37.4172 34.8314 37.7312 34.4536 37.9499L33.7129 38.3796L34.1162 39.0782L34.857 38.6511C35.3574 38.361 35.7729 37.9446 36.062 37.4436C36.3511 36.9427 36.5037 36.3746 36.5046 35.7962V35.0053C36.5057 34.6719 36.5941 34.3446 36.7611 34.056C36.9281 33.7674 37.1677 33.5276 37.4562 33.3604L38.3815 32.8332C38.412 32.8127 38.4361 32.784 38.451 32.7504C38.466 32.7168 38.4711 32.6797 38.4658 32.6434Z" fill="#E6E6E6"/>
<path opacity="0.15" d="M38.6773 40.2223L31.3251 35.9781C31.1353 35.8703 30.9119 35.8375 30.6991 35.8863C30.4864 35.9351 30.2996 36.0619 30.1757 36.2417L25.602 43.0956C25.5332 43.1857 25.492 43.2937 25.4834 43.4067C25.4834 43.4489 25.4834 43.6097 25.4834 43.6492C25.4834 43.8232 25.6468 43.9128 25.9395 43.839L38.5929 41.0316C38.8275 40.9815 38.9462 40.8813 38.9462 40.7679C38.9462 40.7258 38.9462 40.5597 38.9462 40.5175C38.9409 40.4358 38.8539 40.3251 38.6773 40.2223Z" fill="black"/>
<path d="M31.3248 35.9784L38.677 40.2226C39.0618 40.4467 39.0223 40.705 38.5873 40.8025L25.9339 43.61C25.4989 43.7076 25.346 43.4835 25.5938 43.1118L30.1675 36.2578C30.2892 36.0734 30.4763 35.942 30.6911 35.8901C30.9059 35.8382 31.1323 35.8698 31.3248 35.9784Z" fill="#F0F0F0"/>
</svg>
