<svg width="31" height="32" viewBox="0 0 31 32" fill="none" xmlns="http://www.w3.org/2000/svg">
<path d="M30.997 5.02881L14.0627 4.79834L13.916 18.6265C13.916 19.8784 14.7122 21.1407 16.3569 22.1098C19.6411 24.0583 25.0048 24.1159 28.3361 22.2407C30.0122 21.2979 30.8503 20.0408 30.8503 18.7784L30.997 5.02881Z" fill="#37474F"/>
<path d="M16.5816 1.36737C13.2555 3.24256 13.2189 6.33818 16.5083 8.28146C19.7977 10.2247 25.1562 10.2876 28.4823 8.41241C31.8084 6.53722 31.845 3.4416 28.5556 1.49832C25.2662 -0.444959 19.9077 -0.507814 16.5816 1.36737Z" fill="#455A64"/>
<path d="M30.2669 4.97099C30.262 5.19769 30.2214 5.42219 30.1464 5.63621C29.7595 6.57556 29.0369 7.33734 28.1193 7.77328C26.3661 8.63127 24.4365 9.06723 22.4847 9.04631C20.5329 9.02539 18.6131 8.54819 16.8787 7.65282C15.9862 7.20255 15.288 6.44293 14.9145 5.51573C14.8333 5.28704 14.7926 5.04601 14.794 4.80337C14.794 3.75578 15.5692 2.77628 16.9415 2.01154C18.696 1.15793 20.6251 0.724441 22.5761 0.745351C24.5271 0.766261 26.4464 1.24101 28.1822 2.13201C29.5283 2.93342 30.2774 3.93912 30.2669 4.97099Z" fill="#263238"/>
<path d="M30.147 5.63656C29.7601 6.57591 29.0375 7.33769 28.1199 7.77364C26.3667 8.63163 24.4371 9.06758 22.4853 9.04666C20.5335 9.02575 18.6137 8.54854 16.8793 7.65318C15.9868 7.2029 15.2886 6.44328 14.915 5.51608C15.3026 4.57842 16.0252 3.8185 16.9421 3.38423C18.6944 2.52302 20.6244 2.08526 22.5768 2.10619C24.5292 2.12711 26.4493 2.60614 28.1828 3.50471C29.0734 3.95486 29.7711 4.7121 30.147 5.63656Z" fill="#BA68C8"/>
<path opacity="0.6" d="M30.147 5.63656C29.7601 6.57591 29.0375 7.33769 28.1199 7.77364C26.3667 8.63163 24.4371 9.06758 22.4853 9.04666C20.5335 9.02575 18.6137 8.54854 16.8793 7.65318C15.9868 7.2029 15.2886 6.44328 14.915 5.51608C15.3026 4.57842 16.0252 3.8185 16.9421 3.38423C18.6944 2.52302 20.6244 2.08526 22.5768 2.10619C24.5292 2.12711 26.4493 2.60614 28.1828 3.50471C29.0734 3.95486 29.7711 4.7121 30.147 5.63656Z" fill="white"/>
<path opacity="0.35" d="M28.1199 7.77314C28.3883 7.61645 28.6456 7.44143 28.8899 7.24935C25.7995 8.90454 20.5092 8.14503 18.8226 6.90364C16.7274 5.3794 16.9474 3.37851 19.6397 2.3833C18.6963 2.57476 17.787 2.90669 16.9421 3.36802C16.0252 3.80229 15.3026 4.56221 14.915 5.49987C15.2886 6.42707 15.9868 7.18669 16.8793 7.63697C18.6137 8.53233 20.5335 9.00954 22.4853 9.03046C24.4371 9.05137 26.3667 8.61542 28.1199 7.75743V7.77314Z" fill="#BA68C8"/>
<path d="M26.141 10.2095C26.5076 9.99997 26.8062 10.1728 26.8009 10.6023C26.7862 10.8338 26.7168 11.0584 26.5984 11.2578C26.4801 11.4572 26.3161 11.6257 26.12 11.7494C25.7481 11.9589 25.4548 11.7861 25.46 11.3618C25.4735 11.1294 25.5424 10.9036 25.6608 10.7031C25.7793 10.5027 25.9439 10.3334 26.141 10.2095Z" fill="#263238"/>
<path d="M14.0315 7.22906C13.1044 9.06234 11.2501 13.4308 13.6544 15.2064C13.7591 15.2798 13.8482 15.3479 13.9529 15.4107V16.296C13.712 16.1493 13.4658 15.9817 13.2249 15.8088C9.63161 13.1427 13.6858 6.30717 13.8586 6.02432C13.9035 5.9472 13.9769 5.89078 14.0629 5.86719L14.0315 7.22906Z" fill="#E0E0E0"/>
<path d="M26.4544 11.1519C26.3496 11.3666 23.7359 16.3898 19.4303 17.3746C18.9449 17.4914 18.4472 17.5494 17.948 17.5474C16.5196 17.5196 15.1291 17.0834 13.9409 16.2903V15.4051C15.7166 16.6413 17.5027 17.0655 19.2574 16.657C23.2278 15.7299 25.7682 10.8533 25.7892 10.8062C25.8117 10.76 25.8435 10.719 25.8827 10.6857C25.9218 10.6524 25.9674 10.6276 26.0166 10.6128C26.0658 10.5981 26.1176 10.5937 26.1686 10.5999C26.2196 10.6061 26.2688 10.6229 26.313 10.6491C26.3561 10.672 26.3941 10.7034 26.4247 10.7414C26.4553 10.7794 26.4779 10.8233 26.4911 10.8703C26.5043 10.9172 26.5079 10.9664 26.5016 11.0148C26.4953 11.0632 26.4792 11.1099 26.4544 11.1519Z" fill="#E0E0E0"/>
<path d="M12.5672 22.6873L20.2303 18.2979C20.3137 18.2402 20.3801 18.1612 20.4225 18.069C20.4649 17.9768 20.4817 17.875 20.4712 17.7741C20.456 17.4893 20.3742 17.212 20.2322 16.9645C20.0903 16.7171 19.8923 16.5064 19.6541 16.3494C19.5714 16.2883 19.4737 16.2507 19.3713 16.2406C19.269 16.2304 19.1658 16.2481 19.0727 16.2918L11.4253 20.6759L12.5672 22.6873Z" fill="#455A64"/>
<path d="M13.3834 19.5396L15.7038 20.8857L12.5663 22.6876L11.4087 20.6762L13.3834 19.5396Z" fill="#37474F"/>
<path d="M4.67676 23.2007L6.24814 22.2998L4.67676 21.3989L7.87715 19.5499C8.41891 19.2735 9.01845 19.1294 9.62663 19.1294C10.2348 19.1294 10.8343 19.2735 11.3761 19.5499L14.1103 21.1212C14.2978 21.2093 14.4611 21.3416 14.5861 21.5067C14.7111 21.6719 14.7941 21.865 14.8279 22.0693C14.8279 22.106 14.8279 23.6407 14.8279 23.9916C14.7975 24.1979 14.7159 24.3932 14.5906 24.5597C14.4652 24.7263 14.3001 24.8587 14.1103 24.9449L10.8994 26.8044L4.67676 23.2007Z" fill="#37474F"/>
<path d="M14.1167 21.132L11.3824 19.5606C10.8407 19.2842 10.2412 19.1401 9.63297 19.1401C9.02479 19.1401 8.42526 19.2842 7.8835 19.5606L4.68311 21.4096L10.9006 25.0028L14.1009 23.1538C15.0909 22.5986 15.0909 21.6925 14.1167 21.132Z" fill="#455A64"/>
<path d="M10.9098 25.0021L4.68189 21.3984L0.00439453 24.0907L6.23232 27.6997L10.9098 25.0021Z" fill="#F0F0F0"/>
<path d="M10.9117 25.002L6.23424 27.6995L6.229 29.4961L10.9065 26.8038L10.9117 25.002Z" fill="#EBEBEB"/>
<path d="M12.2982 24.2008L6.07031 20.5971L6.70934 20.2305L12.9687 23.8132L12.2982 24.2008Z" fill="#BA68C8"/>
<path d="M12.2993 24.2006V26.0024L12.9645 25.6148L12.9698 23.813L12.2993 24.2006Z" fill="#BA68C8"/>
<path opacity="0.1" d="M12.2993 24.2006V26.0024L12.9645 25.6148L12.9698 23.813L12.2993 24.2006Z" fill="black"/>
<path d="M7.65763 28.6741C7.65763 28.6741 8.51143 27.5793 8.05572 26.647L6.23291 27.6946V29.4912L7.65763 28.6741Z" fill="#BA68C8"/>
<path opacity="0.1" d="M7.65763 28.6741C7.65763 28.6741 8.51143 27.5793 8.05572 26.647L6.23291 27.6946V29.4912L7.65763 28.6741Z" fill="black"/>
<path d="M8.05513 26.6472C8.0015 26.2779 7.85651 25.9278 7.63333 25.6287C7.41015 25.3296 7.11583 25.0909 6.77707 24.9344C5.92852 24.5677 4.12666 25.3167 3.37764 24.0963C2.85384 23.2373 3.43002 22.1216 3.43002 22.1216L0.00439453 24.0911L6.23232 27.7262L8.05513 26.6472Z" fill="#BA68C8"/>
<path d="M0.00523508 24.0913L0 25.8932L6.22793 29.4969L6.23316 27.7003L0.00523508 24.0913Z" fill="#BA68C8"/>
<path opacity="0.15" d="M0.00523508 24.0913L0 25.8932L6.22793 29.4969L6.23316 27.7003L0.00523508 24.0913Z" fill="black"/>
<path d="M30.375 17.4412C30.3866 17.5569 30.3667 17.6735 30.3175 17.7788C30.2684 17.8842 30.1917 17.9743 30.0955 18.0396L25.0869 20.884C24.9381 20.9707 24.7736 21.0271 24.6028 21.0498C24.4321 21.0725 24.2586 21.0611 24.0923 21.0163C23.926 20.9715 23.7703 20.8941 23.6341 20.7887C23.4979 20.6833 23.3839 20.5519 23.2989 20.4022C23.2138 20.2524 23.1593 20.0873 23.1385 19.9163C23.1176 19.7454 23.1309 19.572 23.1776 19.4062C23.2242 19.2404 23.3033 19.0855 23.4102 18.9505C23.5171 18.8155 23.6498 18.703 23.8004 18.6196L28.7933 15.7778C28.8984 15.7271 29.0155 15.7061 29.1317 15.7173C29.2479 15.7284 29.3588 15.7713 29.4523 15.8411C29.7217 16.0158 29.9458 16.252 30.1062 16.5301C30.2666 16.8083 30.3587 17.1205 30.375 17.4412Z" fill="#BA68C8"/>
<path opacity="0.15" d="M30.3744 17.4408C30.3491 16.9406 30.143 16.4666 29.7944 16.1069C30.1661 16.6342 30.2188 17.1614 29.0985 17.802C27.9781 18.4426 25.4896 19.8766 25.0072 20.1481C24.5248 20.4197 23.6048 20.7149 23.125 19.8582C23.1334 20.0542 23.1876 20.2456 23.2832 20.417C23.371 20.5674 23.4878 20.6988 23.6268 20.8037C23.7657 20.9087 23.9241 20.985 24.0927 21.0284C24.2614 21.0718 24.4369 21.0813 24.6093 21.0565C24.7816 21.0316 24.9473 20.9729 25.0968 20.8836L30.1055 18.0392C30.1997 17.9726 30.2743 17.8819 30.3216 17.7767C30.3689 17.6715 30.3871 17.5555 30.3744 17.4408Z" fill="black"/>
<path d="M23.5551 19.7501C23.6844 19.8354 23.7916 19.9501 23.8681 20.0848C23.9446 20.2195 23.9882 20.3704 23.9954 20.5251C24.0011 20.5807 23.9916 20.6368 23.9679 20.6874C23.9442 20.738 23.9072 20.7812 23.8609 20.8124L23.4839 21.0233L22.8618 19.9372L23.2362 19.729C23.2861 19.7027 23.3423 19.6908 23.3986 19.6945C23.4549 19.6982 23.5091 19.7175 23.5551 19.7501Z" fill="#F0F0F0"/>
<path d="M23.6169 20.7279C23.6169 21.0099 23.4165 21.1259 23.1714 20.9915C23.0421 20.9059 22.9347 20.7913 22.8578 20.6567C22.7808 20.5221 22.7366 20.3713 22.7285 20.2165C22.7285 19.9344 22.9315 19.8184 23.1767 19.9529C23.306 20.0381 23.4134 20.1528 23.4899 20.2875C23.5664 20.4222 23.61 20.5731 23.6169 20.7279Z" fill="#E0E0E0"/>
<path d="M23.4658 20.6434C23.4611 20.5444 23.4331 20.4479 23.3841 20.3618C23.3351 20.2757 23.2665 20.2024 23.1838 20.1478C23.1535 20.1247 23.117 20.1111 23.079 20.1088C23.041 20.1064 23.0032 20.1154 22.9703 20.1346L22.0529 20.6618C21.6418 20.8998 21.3003 21.2414 21.0625 21.6527C20.8247 22.0639 20.699 22.5303 20.6979 23.0053V23.7962C20.6971 24.2327 20.5818 24.6613 20.3635 25.0392C20.1451 25.4172 19.8314 25.7312 19.4536 25.9499L18.7129 26.3796L19.1162 27.0782L19.857 26.6511C20.3574 26.361 20.7729 25.9446 21.062 25.4436C21.3511 24.9427 21.5037 24.3746 21.5046 23.7962V23.0053C21.5057 22.6719 21.5941 22.3446 21.7611 22.056C21.9281 21.7674 22.1677 21.5276 22.4562 21.3604L23.3815 20.8332C23.412 20.8127 23.4361 20.784 23.451 20.7504C23.466 20.7168 23.4711 20.6797 23.4658 20.6434Z" fill="#E6E6E6"/>
<path opacity="0.15" d="M23.6773 28.2223L16.3251 23.9781C16.1353 23.8703 15.9119 23.8375 15.6991 23.8863C15.4864 23.9351 15.2996 24.0619 15.1757 24.2417L10.602 31.0956C10.5332 31.1857 10.492 31.2937 10.4834 31.4067C10.4834 31.4489 10.4834 31.6097 10.4834 31.6492C10.4834 31.8232 10.6468 31.9128 10.9395 31.839L23.5929 29.0316C23.8275 28.9815 23.9462 28.8813 23.9462 28.7679C23.9462 28.7258 23.9462 28.5597 23.9462 28.5175C23.9409 28.4358 23.8539 28.3251 23.6773 28.2223Z" fill="black"/>
<path d="M16.3248 23.9784L23.677 28.2226C24.0618 28.4467 24.0223 28.705 23.5873 28.8025L10.9339 31.61C10.4989 31.7076 10.346 31.4835 10.5938 31.1118L15.1675 24.2578C15.2892 24.0734 15.4763 23.942 15.6911 23.8901C15.9059 23.8382 16.1323 23.8698 16.3248 23.9784Z" fill="#F0F0F0"/>
</svg>
