<svg width="30" height="28" viewBox="0 0 30 28" fill="none" xmlns="http://www.w3.org/2000/svg">
<path d="M23.6358 17.39C23.6358 19.937 22.0759 19.997 20.1526 19.997C18.2294 19.997 16.6694 19.937 16.6694 17.39C16.6694 14.8429 18.2286 5.3916 20.1526 5.3916C22.0766 5.3916 23.6358 14.8429 23.6358 17.39Z" fill="#314658"/>
<path d="M20.1589 9.56543L19.9065 15.2583L18.8254 13.6369L19.7985 15.7992L19.726 18.7903L17.9248 17.6729L19.6542 19.6191L19.2575 27.6547H20.6628L20.4467 17.6011L21.9963 15.7274L20.483 16.9521L20.3749 12.8081L21.0594 12.0156L20.3387 12.3397L20.1589 9.56543Z" fill="#263238"/>
<path opacity="0.45" d="M20.1589 9.56543L19.9065 15.2583L18.8254 13.6369L19.7985 15.7992L19.726 18.7903L17.9248 17.6729L19.6542 19.6191L19.2575 27.6547H20.6628L20.4467 17.6011L21.9963 15.7274L20.483 16.9521L20.3749 12.8081L21.0594 12.0156L20.3387 12.3397L20.1589 9.56543Z" fill="white"/>
<path d="M18.98 15.1398C18.98 18.2478 17.0782 18.3181 14.7332 18.3181C12.3881 18.3181 10.4863 18.2441 10.4863 15.1398C10.4863 12.0355 12.3866 0.510742 14.7324 0.510742C17.0782 0.510742 18.98 12.0348 18.98 15.1398Z" fill="#5D8D7E"/>
<path d="M14.7391 5.59961L14.432 12.5408L13.114 10.5635L14.3003 13.2001L14.2122 16.8461L12.0151 15.4845L14.1241 17.857L13.6409 27.6546H15.3548L15.0906 15.3965L16.9798 13.1121L15.135 14.6054L15.0033 9.55343L15.838 8.58699L14.9589 8.98215L14.7391 5.59961Z" fill="#263238"/>
<path opacity="0.45" d="M14.7391 5.59961L14.432 12.5408L13.114 10.5635L14.3003 13.2001L14.2122 16.8461L12.0151 15.4845L14.1241 17.857L13.6409 27.6546H15.3548L15.0906 15.3965L16.9798 13.1121L15.135 14.6054L15.0033 9.55343L15.838 8.58699L14.9589 8.98215L14.7391 5.59961Z" fill="white"/>
<path d="M29.3163 15.1589C29.3163 18.2595 27.4182 18.3327 25.0761 18.3327C22.734 18.3327 20.8359 18.2587 20.8359 15.1589C20.8359 12.059 22.734 0.549805 25.0761 0.549805C27.4182 0.549805 29.3163 12.0583 29.3163 15.1589Z" fill="#3F7E7A"/>
<path d="M25.0835 5.63281L24.7764 12.5637L23.46 10.5901L24.6447 13.2223L24.5566 16.8631L22.3633 15.5029L24.4693 17.8717L23.9868 27.6545H25.6977L25.4343 15.4149L27.3205 13.1342L25.4779 14.6253L25.3462 9.58071L26.1802 8.61575L25.3026 9.01091L25.0835 5.63281Z" fill="#263238"/>
<path opacity="0.45" d="M25.0835 5.63281L24.7764 12.5637L23.46 10.5901L24.6447 13.2223L24.5566 16.8631L22.3633 15.5029L24.4693 17.8717L23.9868 27.6545H25.6977L25.4343 15.4149L27.3205 13.1342L25.4779 14.6253L25.3462 9.58071L26.1802 8.61575L25.3026 9.01091L25.0835 5.63281Z" fill="white"/>
<path d="M13.218 15.1589C13.218 18.2595 11.3191 18.3327 8.97702 18.3327C6.63492 18.3327 4.73682 18.2587 4.73682 15.1589C4.73682 12.059 6.63566 0.549805 8.97702 0.549805C11.3184 0.549805 13.218 12.0583 13.218 15.1589Z" fill="#314658"/>
<path d="M8.98464 5.63281L8.67754 12.5637L7.36182 10.5901L8.54582 13.2223L8.4585 16.8631L6.26514 15.5029L8.37044 17.8717L7.88796 27.6545H9.59884L9.3354 15.4149L11.2217 13.1342L9.3798 14.6253L9.24808 9.58071L10.0813 8.61575L9.20368 9.01091L8.98464 5.63281Z" fill="#263238"/>
<path opacity="0.45" d="M8.98464 5.63281L8.67754 12.5637L7.36182 10.5901L8.54582 13.2223L8.4585 16.8631L6.26514 15.5029L8.37044 17.8717L7.88796 27.6545H9.59884L9.3354 15.4149L11.2217 13.1342L9.3798 14.6253L9.24808 9.58071L10.0813 8.61575L9.20368 9.01091L8.98464 5.63281Z" fill="white"/>
<path d="M7.49575 16.9883C7.49575 19.6345 5.87515 19.6974 3.87641 19.6974C1.87767 19.6974 0.257812 19.6345 0.257812 16.9883C0.257812 14.342 1.87693 4.52002 3.87641 4.52002C5.87589 4.52002 7.49575 14.3413 7.49575 16.9883Z" fill="#3F7E7A"/>
<path d="M3.88242 8.85645L3.62046 14.7727L2.49713 13.0878L3.50797 15.3351L3.43324 18.4431L1.56104 17.2821L3.3585 19.3038L2.94632 27.6547H4.40633L4.18212 17.2073L5.79236 15.2597L4.21912 16.5332L4.10737 12.2264L4.81852 11.4028L4.06964 11.7402L3.88242 8.85645Z" fill="#263238"/>
<path opacity="0.45" d="M3.88242 8.85645L3.62046 14.7727L2.49713 13.0878L3.50797 15.3351L3.43324 18.4431L1.56104 17.2821L3.3585 19.3038L2.94632 27.6547H4.40633L4.18212 17.2073L5.79236 15.2597L4.21912 16.5332L4.10737 12.2264L4.81852 11.4028L4.06964 11.7402L3.88242 8.85645Z" fill="white"/>
</svg>
