<svg width="37" height="37" viewBox="0 0 37 37" fill="none" xmlns="http://www.w3.org/2000/svg">
<path d="M24.6358 22.39C24.6358 24.937 23.0759 24.997 21.1526 24.997C19.2294 24.997 17.6694 24.937 17.6694 22.39C17.6694 19.8429 19.2286 10.3916 21.1526 10.3916C23.0766 10.3916 24.6358 19.8429 24.6358 22.39Z" fill="#314658"/>
<path d="M21.1589 14.5654L20.9065 20.2583L19.8254 18.6369L20.7985 20.7992L20.726 23.7903L18.9248 22.6729L20.6542 24.6191L20.2575 32.6547H21.6628L21.4467 22.6011L22.9963 20.7274L21.483 21.9521L21.3749 17.8081L22.0594 17.0156L21.3387 17.3397L21.1589 14.5654Z" fill="#263238"/>
<path opacity="0.45" d="M21.1589 14.5654L20.9065 20.2583L19.8254 18.6369L20.7985 20.7992L20.726 23.7903L18.9248 22.6729L20.6542 24.6191L20.2575 32.6547H21.6628L21.4467 22.6011L22.9963 20.7274L21.483 21.9521L21.3749 17.8081L22.0594 17.0156L21.3387 17.3397L21.1589 14.5654Z" fill="white"/>
<path d="M19.98 20.1398C19.98 23.2478 18.0782 23.3181 15.7332 23.3181C13.3881 23.3181 11.4863 23.2441 11.4863 20.1398C11.4863 17.0355 13.3866 5.51074 15.7324 5.51074C18.0782 5.51074 19.98 17.0348 19.98 20.1398Z" fill="#5D8D7E"/>
<path d="M15.7391 10.5996L15.432 17.5408L14.114 15.5635L15.3003 18.2001L15.2122 21.8461L13.0151 20.4845L15.1241 22.857L14.6409 32.6546H16.3548L16.0906 20.3965L17.9798 18.1121L16.135 19.6054L16.0033 14.5534L16.838 13.587L15.9589 13.9821L15.7391 10.5996Z" fill="#263238"/>
<path opacity="0.45" d="M15.7391 10.5996L15.432 17.5408L14.114 15.5635L15.3003 18.2001L15.2122 21.8461L13.0151 20.4845L15.1241 22.857L14.6409 32.6546H16.3548L16.0906 20.3965L17.9798 18.1121L16.135 19.6054L16.0033 14.5534L16.838 13.587L15.9589 13.9821L15.7391 10.5996Z" fill="white"/>
<path d="M30.3163 20.1589C30.3163 23.2595 28.4182 23.3327 26.0761 23.3327C23.734 23.3327 21.8359 23.2587 21.8359 20.1589C21.8359 17.059 23.734 5.5498 26.0761 5.5498C28.4182 5.5498 30.3163 17.0583 30.3163 20.1589Z" fill="#3F7E7A"/>
<path d="M26.0835 10.6328L25.7764 17.5637L24.46 15.5901L25.6447 18.2223L25.5566 21.8631L23.3633 20.5029L25.4693 22.8717L24.9868 32.6545H26.6977L26.4343 20.4149L28.3205 18.1342L26.4779 19.6253L26.3462 14.5807L27.1802 13.6158L26.3026 14.0109L26.0835 10.6328Z" fill="#263238"/>
<path opacity="0.45" d="M26.0835 10.6328L25.7764 17.5637L24.46 15.5901L25.6447 18.2223L25.5566 21.8631L23.3633 20.5029L25.4693 22.8717L24.9868 32.6545H26.6977L26.4343 20.4149L28.3205 18.1342L26.4779 19.6253L26.3462 14.5807L27.1802 13.6158L26.3026 14.0109L26.0835 10.6328Z" fill="white"/>
<path d="M14.218 20.1589C14.218 23.2595 12.3191 23.3327 9.97702 23.3327C7.63492 23.3327 5.73682 23.2587 5.73682 20.1589C5.73682 17.059 7.63566 5.5498 9.97702 5.5498C12.3184 5.5498 14.218 17.0583 14.218 20.1589Z" fill="#314658"/>
<path d="M9.98464 10.6328L9.67754 17.5637L8.36182 15.5901L9.54582 18.2223L9.4585 21.8631L7.26514 20.5029L9.37044 22.8717L8.88796 32.6545H10.5988L10.3354 20.4149L12.2217 18.1342L10.3798 19.6253L10.2481 14.5807L11.0813 13.6158L10.2037 14.0109L9.98464 10.6328Z" fill="#263238"/>
<path opacity="0.45" d="M9.98464 10.6328L9.67754 17.5637L8.36182 15.5901L9.54582 18.2223L9.4585 21.8631L7.26514 20.5029L9.37044 22.8717L8.88796 32.6545H10.5988L10.3354 20.4149L12.2217 18.1342L10.3798 19.6253L10.2481 14.5807L11.0813 13.6158L10.2037 14.0109L9.98464 10.6328Z" fill="white"/>
<path d="M8.49575 21.9883C8.49575 24.6345 6.87515 24.6974 4.87641 24.6974C2.87767 24.6974 1.25781 24.6345 1.25781 21.9883C1.25781 19.342 2.87693 9.52002 4.87641 9.52002C6.87589 9.52002 8.49575 19.3413 8.49575 21.9883Z" fill="#3F7E7A"/>
<path d="M4.88242 13.8564L4.62046 19.7727L3.49713 18.0878L4.50797 20.3351L4.43324 23.4431L2.56104 22.2821L4.3585 24.3038L3.94632 32.6547H5.40633L5.18212 22.2073L6.79236 20.2597L5.21912 21.5332L5.10737 17.2264L5.81852 16.4028L5.06964 16.7402L4.88242 13.8564Z" fill="#263238"/>
<path opacity="0.45" d="M4.88242 13.8564L4.62046 19.7727L3.49713 18.0878L4.50797 20.3351L4.43324 23.4431L2.56104 22.2821L4.3585 24.3038L3.94632 32.6547H5.40633L5.18212 22.2073L6.79236 20.2597L5.21912 21.5332L5.10737 17.2264L5.81852 16.4028L5.06964 16.7402L4.88242 13.8564Z" fill="white"/>
</svg>
