<svg width="30" height="30" viewBox="0 0 30 30" fill="none" xmlns="http://www.w3.org/2000/svg">
<g clip-path="url(#clip0_1703_539)">
<path d="M19.2856 13.2199C18.3978 12.7563 17.3178 12.5215 16.0751 12.5215C12.7737 12.5215 9.38794 14.1523 9.24591 14.2216C9.11935 14.2835 9.02748 14.3979 8.99513 14.5348C8.96279 14.6712 8.99279 14.8151 9.0781 14.9266C9.22294 15.1174 12.665 19.6151 15.7915 20.7668C16.1515 20.899 16.5219 20.9665 16.8936 20.9665C19.1839 20.9665 20.7992 18.4577 20.8672 18.3513C20.8948 18.3077 20.915 18.2604 20.9272 18.2102C20.9623 18.0598 21.7817 14.5245 19.2856 13.2199Z" fill="#62CA76"/>
<path d="M29.2301 14.6024C29.1879 14.5865 28.1852 14.2129 26.9983 14.2129C25.7388 14.2129 24.716 14.6413 24.0401 15.4523C22.6755 17.0859 23.5797 19.1629 23.6186 19.2505C23.6683 19.3616 23.7597 19.4498 23.8732 19.4948C23.9046 19.5074 24.6583 19.8032 25.564 19.8032C26.5465 19.8032 27.3569 19.4535 27.9091 18.7916C29.2352 17.2012 29.5174 15.1884 29.5286 15.104C29.5577 14.8874 29.4335 14.6793 29.2301 14.6024Z" fill="#62CA76"/>
<path d="M27.1874 8.90644C27.1171 8.90644 27.0454 8.8905 26.9783 8.85722C26.7468 8.74144 26.653 8.45972 26.7688 8.22816L28.3044 5.15644H26.2504C26.0877 5.15644 25.9372 5.07207 25.8514 4.93378C25.7657 4.7955 25.7582 4.623 25.8308 4.47769L27.7058 0.72769C27.8221 0.496128 28.1038 0.402846 28.3349 0.518159C28.5664 0.63394 28.6602 0.915659 28.5444 1.14722L27.0088 4.21894H29.0629C29.2255 4.21894 29.376 4.30332 29.4618 4.4416C29.5475 4.57988 29.555 4.75238 29.4824 4.89769L27.6074 8.64769C27.5249 8.81175 27.3594 8.90644 27.1874 8.90644Z" fill="#EEAA38"/>
<path d="M25.732 17.603C25.6158 17.3714 25.3345 17.2786 25.103 17.3934C24.3314 17.7792 23.0095 19.1006 22.1995 20.2837C21.8606 19.3167 21.3145 18.4683 20.648 17.9414C19.4672 17.0105 18.1097 16.358 16.6134 16.0022C16.3627 15.9436 16.1095 16.0978 16.0491 16.3495C15.9891 16.6017 16.1447 16.8544 16.3964 16.9139C17.7595 17.2378 18.9947 17.8313 20.0672 18.6769C20.7375 19.207 21.4753 20.4192 21.6122 21.9323C21.705 22.9603 21.5484 24.4898 20.2922 25.9205C18.2892 27.9441 16.5478 28.5938 13.125 28.5938C6.66328 28.5938 1.40625 23.3367 1.40625 16.875C1.40625 10.4133 6.66328 5.15625 13.125 5.15625C13.3842 5.15625 13.5938 4.94672 13.5938 4.6875C13.5938 4.42828 13.3842 4.21875 13.125 4.21875C6.14625 4.21875 0.46875 9.89625 0.46875 16.875C0.46875 23.8537 6.14625 29.5312 13.125 29.5312C16.7981 29.5312 18.7748 28.7864 20.977 26.5594C22.4719 24.8587 22.6552 23.0588 22.5459 21.8475C22.5389 21.7706 22.5239 21.6952 22.5145 21.6187C22.9453 20.5683 24.7219 18.6319 25.5225 18.2316C25.7536 18.1158 25.8478 17.8345 25.732 17.603Z" fill="#3BB050"/>
<path d="M22.9688 3.28125H20.1562C19.897 3.28125 19.6875 3.07172 19.6875 2.8125C19.6875 2.55328 19.897 2.34375 20.1562 2.34375H22.9688C23.228 2.34375 23.4375 2.55328 23.4375 2.8125C23.4375 3.07172 23.228 3.28125 22.9688 3.28125Z" fill="#91A3B0"/>
<path d="M22.9688 7.03125H20.1562C19.897 7.03125 19.6875 6.82172 19.6875 6.5625C19.6875 6.30328 19.897 6.09375 20.1562 6.09375H22.9688C23.228 6.09375 23.4375 6.30328 23.4375 6.5625C23.4375 6.82172 23.228 7.03125 22.9688 7.03125Z" fill="#91A3B0"/>
<path d="M20.1562 0.46875H16.875C14.5486 0.46875 12.6562 2.36109 12.6562 4.6875C12.6562 7.01391 14.5486 8.90625 16.875 8.90625H20.1562C20.4155 8.90625 20.625 8.69672 20.625 8.4375V0.9375C20.625 0.678281 20.4155 0.46875 20.1562 0.46875Z" fill="#EEAA38"/>
</g>
<defs>
<clipPath id="clip0_1703_539">
<rect width="30" height="30" fill="white"/>
</clipPath>
</defs>
</svg>
