<svg width="62" height="56" viewBox="0 0 62 56" fill="none" xmlns="http://www.w3.org/2000/svg">
<path d="M31 0L57.8468 14V42L31 56L4.15321 42V14L31 0Z" fill="#E3E8C2"/>
<g clip-path="url(#clip0_1385_206)">
<path d="M35.2846 27.2209C34.3968 26.7573 33.3168 26.5225 32.0742 26.5225C28.7727 26.5225 25.387 28.1532 25.2449 28.2226C25.1184 28.2845 25.0265 28.3989 24.9942 28.5357C24.9618 28.6721 24.9918 28.8161 25.0771 28.9276C25.222 29.1184 28.664 33.6161 31.7906 34.7678C32.1506 34.9 32.5209 34.9675 32.8926 34.9675C35.1829 34.9675 36.7982 32.4587 36.8662 32.3523C36.8938 32.3087 36.914 32.2614 36.9262 32.2112C36.9613 32.0607 37.7807 28.5254 35.2846 27.2209Z" fill="#66BB6A"/>
<path d="M45.2281 28.6029C45.1859 28.587 44.1833 28.2134 42.9964 28.2134C41.7368 28.2134 40.714 28.6418 40.0381 29.4528C38.6736 31.0863 39.5778 33.1634 39.6167 33.251C39.6664 33.3621 39.7578 33.4503 39.8712 33.4953C39.9026 33.5079 40.6564 33.8037 41.562 33.8037C42.5445 33.8037 43.355 33.454 43.9072 32.7921C45.2333 31.2017 45.5154 29.1888 45.5267 29.1045C45.5558 28.8879 45.4315 28.6798 45.2281 28.6029Z" fill="#66BB6A"/>
<path d="M43.1869 22.9064C43.1166 22.9064 43.0449 22.8905 42.9778 22.8572C42.7463 22.7414 42.6525 22.4597 42.7683 22.2282L44.3039 19.1564H42.2499C42.0872 19.1564 41.9367 19.0721 41.851 18.9338C41.7652 18.7955 41.7577 18.623 41.8303 18.4777L43.7053 14.7277C43.8216 14.4961 44.1033 14.4028 44.3344 14.5182C44.566 14.6339 44.6597 14.9157 44.5439 15.1472L43.0083 18.2189H45.0624C45.225 18.2189 45.3755 18.3033 45.4613 18.4416C45.5471 18.5799 45.5546 18.7524 45.4819 18.8977L43.6069 22.6477C43.5244 22.8118 43.3589 22.9064 43.1869 22.9064Z" fill="#FFCA28"/>
<path d="M41.732 31.603C41.6158 31.3714 41.3345 31.2786 41.103 31.3934C40.3314 31.7792 39.0095 33.1006 38.1995 34.2837C37.8606 33.3167 37.3145 32.4683 36.648 31.9414C35.4672 31.0105 34.1097 30.358 32.6134 30.0022C32.3627 29.9436 32.1095 30.0978 32.0491 30.3495C31.9891 30.6017 32.1447 30.8544 32.3964 30.9139C33.7595 31.2378 34.9947 31.8313 36.0672 32.6769C36.7375 33.207 37.4753 34.4192 37.6122 35.9323C37.705 36.9603 37.5484 38.4898 36.2922 39.9205C34.2892 41.9441 32.5478 42.5938 29.125 42.5938C22.6633 42.5938 17.4062 37.3367 17.4062 30.875C17.4062 24.4133 22.6633 19.1562 29.125 19.1562C29.3842 19.1562 29.5938 18.9467 29.5938 18.6875C29.5938 18.4283 29.3842 18.2188 29.125 18.2188C22.1463 18.2188 16.4688 23.8963 16.4688 30.875C16.4688 37.8537 22.1463 43.5312 29.125 43.5312C32.7981 43.5312 34.7748 42.7864 36.977 40.5594C38.4719 38.8587 38.6552 37.0588 38.5459 35.8475C38.5389 35.7706 38.5239 35.6952 38.5145 35.6187C38.9453 34.5683 40.7219 32.6319 41.5225 32.2316C41.7536 32.1158 41.8478 31.8345 41.732 31.603Z" fill="#43A047"/>
<path d="M38.9688 17.2812H36.1562C35.897 17.2812 35.6875 17.0717 35.6875 16.8125C35.6875 16.5533 35.897 16.3438 36.1562 16.3438H38.9688C39.228 16.3438 39.4375 16.5533 39.4375 16.8125C39.4375 17.0717 39.228 17.2812 38.9688 17.2812Z" fill="#78909C"/>
<path d="M38.9688 21.0312H36.1562C35.897 21.0312 35.6875 20.8217 35.6875 20.5625C35.6875 20.3033 35.897 20.0938 36.1562 20.0938H38.9688C39.228 20.0938 39.4375 20.3033 39.4375 20.5625C39.4375 20.8217 39.228 21.0312 38.9688 21.0312Z" fill="#78909C"/>
<path d="M36.1562 14.4688H32.875C30.5486 14.4688 28.6562 16.3611 28.6562 18.6875C28.6562 21.0139 30.5486 22.9062 32.875 22.9062H36.1562C36.4155 22.9062 36.625 22.6967 36.625 22.4375V14.9375C36.625 14.6783 36.4155 14.4688 36.1562 14.4688Z" fill="#FFCA28"/>
</g>
<defs>
<clipPath id="clip0_1385_206">
<rect width="30" height="30" fill="white" transform="translate(16 14)"/>
</clipPath>
</defs>
</svg>
