<svg width="30" height="30" viewBox="0 0 30 30" fill="none" xmlns="http://www.w3.org/2000/svg">
<g clip-path="url(#clip0_1332_42)">
<path d="M19.2846 13.2209C18.3968 12.7573 17.3168 12.5225 16.0742 12.5225C12.7727 12.5225 9.38697 14.1532 9.24494 14.2226C9.11837 14.2845 9.0265 14.3989 8.99416 14.5357C8.96181 14.6721 8.99181 14.8161 9.07712 14.9276C9.22197 15.1184 12.664 19.6161 15.7906 20.7678C16.1506 20.9 16.5209 20.9675 16.8926 20.9675C19.1829 20.9675 20.7982 18.4587 20.8662 18.3523C20.8938 18.3087 20.914 18.2614 20.9262 18.2112C20.9613 18.0607 21.7807 14.5254 19.2846 13.2209Z" fill="#66BB6A"/>
<path d="M29.2281 14.6029C29.1859 14.587 28.1833 14.2134 26.9964 14.2134C25.7368 14.2134 24.714 14.6418 24.0381 15.4528C22.6736 17.0863 23.5778 19.1634 23.6167 19.251C23.6664 19.3621 23.7578 19.4503 23.8712 19.4953C23.9026 19.5079 24.6564 19.8037 25.562 19.8037C26.5445 19.8037 27.355 19.454 27.9072 18.7921C29.2333 17.2017 29.5154 15.1888 29.5267 15.1045C29.5558 14.8879 29.4315 14.6798 29.2281 14.6029Z" fill="#66BB6A"/>
<path d="M27.1869 8.90644C27.1166 8.90644 27.0449 8.8905 26.9778 8.85722C26.7463 8.74144 26.6525 8.45972 26.7683 8.22816L28.3039 5.15644H26.2499C26.0872 5.15644 25.9367 5.07207 25.851 4.93378C25.7652 4.7955 25.7577 4.623 25.8303 4.47769L27.7053 0.72769C27.8216 0.496128 28.1033 0.402846 28.3344 0.518159C28.566 0.63394 28.6597 0.915659 28.5439 1.14722L27.0083 4.21894H29.0624C29.225 4.21894 29.3755 4.30332 29.4613 4.4416C29.5471 4.57988 29.5546 4.75238 29.4819 4.89769L27.6069 8.64769C27.5244 8.81175 27.3589 8.90644 27.1869 8.90644Z" fill="#FFCA28"/>
<path d="M25.732 17.603C25.6158 17.3714 25.3345 17.2786 25.103 17.3934C24.3314 17.7792 23.0095 19.1006 22.1995 20.2837C21.8606 19.3167 21.3145 18.4683 20.648 17.9414C19.4672 17.0105 18.1097 16.358 16.6134 16.0022C16.3627 15.9436 16.1095 16.0978 16.0491 16.3495C15.9891 16.6017 16.1447 16.8544 16.3964 16.9139C17.7595 17.2378 18.9947 17.8313 20.0672 18.6769C20.7375 19.207 21.4753 20.4192 21.6122 21.9323C21.705 22.9603 21.5484 24.4898 20.2922 25.9205C18.2892 27.9441 16.5478 28.5938 13.125 28.5938C6.66328 28.5938 1.40625 23.3367 1.40625 16.875C1.40625 10.4133 6.66328 5.15625 13.125 5.15625C13.3842 5.15625 13.5938 4.94672 13.5938 4.6875C13.5938 4.42828 13.3842 4.21875 13.125 4.21875C6.14625 4.21875 0.46875 9.89625 0.46875 16.875C0.46875 23.8537 6.14625 29.5312 13.125 29.5312C16.7981 29.5312 18.7748 28.7864 20.977 26.5594C22.4719 24.8587 22.6552 23.0588 22.5459 21.8475C22.5389 21.7706 22.5239 21.6952 22.5145 21.6187C22.9453 20.5683 24.7219 18.6319 25.5225 18.2316C25.7536 18.1158 25.8478 17.8345 25.732 17.603Z" fill="#43A047"/>
<path d="M22.9688 3.28125H20.1562C19.897 3.28125 19.6875 3.07172 19.6875 2.8125C19.6875 2.55328 19.897 2.34375 20.1562 2.34375H22.9688C23.228 2.34375 23.4375 2.55328 23.4375 2.8125C23.4375 3.07172 23.228 3.28125 22.9688 3.28125Z" fill="#78909C"/>
<path d="M22.9688 7.03125H20.1562C19.897 7.03125 19.6875 6.82172 19.6875 6.5625C19.6875 6.30328 19.897 6.09375 20.1562 6.09375H22.9688C23.228 6.09375 23.4375 6.30328 23.4375 6.5625C23.4375 6.82172 23.228 7.03125 22.9688 7.03125Z" fill="#78909C"/>
<path d="M20.1562 0.46875H16.875C14.5486 0.46875 12.6562 2.36109 12.6562 4.6875C12.6562 7.01391 14.5486 8.90625 16.875 8.90625H20.1562C20.4155 8.90625 20.625 8.69672 20.625 8.4375V0.9375C20.625 0.678281 20.4155 0.46875 20.1562 0.46875Z" fill="#FFCA28"/>
</g>
<defs>
<clipPath id="clip0_1332_42">
<rect width="30" height="30" fill="white"/>
</clipPath>
</defs>
</svg>
