<svg width="25" height="25" viewBox="0 0 25 25" fill="none" xmlns="http://www.w3.org/2000/svg">
<g clip-path="url(#clip0_1703_571)">
<path d="M12.5 5.20898C16.8146 5.20898 20.3125 8.7069 20.3125 13.0215V21.8757H4.6875V13.0215C4.6875 8.7069 8.18542 5.20898 12.5 5.20898Z" fill="url(#paint0_linear_1703_571)"/>
<path opacity="0.5" d="M8.51079 10.1936C8.39256 10.1936 8.27433 10.1535 8.17642 10.0717C7.95611 9.88685 7.92694 9.5582 8.11236 9.33789C8.64569 8.70143 9.32642 8.17904 10.079 7.82799C10.8327 7.47695 11.6702 7.29102 12.5004 7.29102C12.7884 7.29102 13.0212 7.52435 13.0212 7.81185C13.0212 8.09935 12.7884 8.33268 12.5004 8.33268C11.8207 8.33268 11.1358 8.48477 10.5191 8.77174C9.90298 9.05924 9.34621 9.48633 8.90923 10.0072C8.80663 10.1301 8.65923 10.1931 8.50975 10.1931L8.51079 10.1936Z" fill="url(#paint1_linear_1703_571)"/>
<path opacity="0.5" d="M7.37105 12.6376C7.34188 12.6376 7.31271 12.6355 7.28302 12.6303C6.99969 12.5818 6.80907 12.3131 6.85698 12.0297C6.87157 11.9454 6.88823 11.862 6.90698 11.7787C6.92417 11.7001 6.94396 11.6183 6.96636 11.537C7.04136 11.2589 7.32625 11.0959 7.60542 11.1704C7.88302 11.2459 8.04709 11.5318 7.97157 11.8094C7.95438 11.8745 7.93875 11.9402 7.92365 12.0058C7.90855 12.074 7.895 12.1386 7.88459 12.2042C7.84136 12.4584 7.62052 12.6381 7.37157 12.6381L7.37105 12.6376Z" fill="url(#paint2_linear_1703_571)"/>
<path d="M21.8757 20.834H3.12565C2.55035 20.834 2.08398 21.3004 2.08398 21.8757V23.4382C2.08398 24.0134 2.55035 24.4798 3.12565 24.4798H21.8757C22.4509 24.4798 22.9173 24.0134 22.9173 23.4382V21.8757C22.9173 21.3004 22.4509 20.834 21.8757 20.834Z" fill="url(#paint3_linear_1703_571)"/>
<path d="M2.60417 12.5H0.520833C0.233185 12.5 0 12.7332 0 13.0208C0 13.3085 0.233185 13.5417 0.520833 13.5417H2.60417C2.89181 13.5417 3.125 13.3085 3.125 13.0208C3.125 12.7332 2.89181 12.5 2.60417 12.5Z" fill="url(#paint4_linear_1703_571)"/>
<path d="M24.4792 12.5H22.3958C22.1082 12.5 21.875 12.7332 21.875 13.0208C21.875 13.3085 22.1082 13.5417 22.3958 13.5417H24.4792C24.7668 13.5417 25 13.3085 25 13.0208C25 12.7332 24.7668 12.5 24.4792 12.5Z" fill="url(#paint5_linear_1703_571)"/>
<path d="M13.0202 1.04232C13.0202 0.754669 12.787 0.521484 12.4993 0.521484C12.2117 0.521484 11.9785 0.754669 11.9785 1.04232V3.12565C11.9785 3.4133 12.2117 3.64648 12.4993 3.64648C12.787 3.64648 13.0202 3.4133 13.0202 3.12565V1.04232Z" fill="url(#paint6_linear_1703_571)"/>
<path d="M20.5992 4.18397L19.1261 5.65711C18.9227 5.8605 18.9227 6.19028 19.1261 6.39368C19.3295 6.59707 19.6593 6.59707 19.8627 6.39368L21.3358 4.92054C21.5392 4.71714 21.5392 4.38736 21.3358 4.18397C21.1324 3.98057 20.8026 3.98057 20.5992 4.18397Z" fill="url(#paint7_linear_1703_571)"/>
<path d="M4.39782 4.1825C4.19442 3.9791 3.86465 3.9791 3.66125 4.1825C3.45786 4.38589 3.45786 4.71567 3.66125 4.91907L5.13439 6.39221C5.33779 6.5956 5.66756 6.5956 5.87096 6.39221C6.07436 6.18881 6.07436 5.85903 5.87096 5.65564L4.39782 4.1825Z" fill="url(#paint8_linear_1703_571)"/>
</g>
<defs>
<linearGradient id="paint0_linear_1703_571" x1="4.6875" y1="13.5423" x2="20.3125" y2="13.5423" gradientUnits="userSpaceOnUse">
<stop stop-color="#E85155"/>
<stop offset="1" stop-color="#C21D2C"/>
</linearGradient>
<linearGradient id="paint1_linear_1703_571" x1="11.7785" y1="6.81862" x2="6.41496" y2="14.9306" gradientUnits="userSpaceOnUse">
<stop stop-color="#FF9E9E"/>
<stop offset="1" stop-color="#DB585B"/>
</linearGradient>
<linearGradient id="paint2_linear_1703_571" x1="11.0804" y1="6.35839" x2="5.71688" y2="14.4698" gradientUnits="userSpaceOnUse">
<stop stop-color="#FF9E9E"/>
<stop offset="1" stop-color="#DB585B"/>
</linearGradient>
<linearGradient id="paint3_linear_1703_571" x1="12.5007" y1="20.834" x2="12.5007" y2="24.4798" gradientUnits="userSpaceOnUse">
<stop stop-color="#F6F7F9"/>
<stop offset="1" stop-color="#B9C5CC"/>
</linearGradient>
<linearGradient id="paint4_linear_1703_571" x1="0" y1="13.0208" x2="3.125" y2="13.0208" gradientUnits="userSpaceOnUse">
<stop stop-color="#FF9E9E"/>
<stop offset="1" stop-color="#DB585B"/>
</linearGradient>
<linearGradient id="paint5_linear_1703_571" x1="25" y1="13.0208" x2="21.875" y2="13.0208" gradientUnits="userSpaceOnUse">
<stop stop-color="#FF9E9E"/>
<stop offset="1" stop-color="#DB585B"/>
</linearGradient>
<linearGradient id="paint6_linear_1703_571" x1="12.4993" y1="0.720964" x2="12.4993" y2="3.51367" gradientUnits="userSpaceOnUse">
<stop stop-color="#FF9E9E"/>
<stop offset="1" stop-color="#DB585B"/>
</linearGradient>
<linearGradient id="paint7_linear_1703_571" x1="21.3329" y1="4.18323" x2="19.1275" y2="6.38863" gradientUnits="userSpaceOnUse">
<stop stop-color="#FF9E9E"/>
<stop offset="1" stop-color="#DB585B"/>
</linearGradient>
<linearGradient id="paint8_linear_1703_571" x1="3.67302" y1="4.19426" x2="5.89195" y2="6.4132" gradientUnits="userSpaceOnUse">
<stop stop-color="#FF9E9E"/>
<stop offset="1" stop-color="#DB585B"/>
</linearGradient>
<clipPath id="clip0_1703_571">
<rect width="25" height="25" fill="white"/>
</clipPath>
</defs>
</svg>
