<svg width="25" height="25" viewBox="0 0 25 25" fill="none" xmlns="http://www.w3.org/2000/svg">
<g clip-path="url(#clip0_1703_499)">
<path d="M21.5619 3.59375H18.6973V8.59375H21.5619V3.59375Z" fill="#415A6B"/>
<path d="M22.6556 1.04102H17.6035V3.74937H22.6556V1.04102Z" fill="#415A6B"/>
<path d="M2.1875 13.4896V25H22.6042V13.4896C18.5937 9.4792 16.3541 7.2396 12.3958 3.28125C8.4375 7.29165 6.1979 9.53125 2.1875 13.4896Z" fill="#EEAA38"/>
<path d="M10.5735 24.9993H4.42773V18.9577C4.42773 17.2389 5.83398 15.8848 7.50064 15.8848C9.21939 15.8848 10.5735 17.291 10.5735 18.9577V24.9993Z" fill="#415A6B"/>
<path d="M20.4173 15.8848H12.3965V22.916H20.4173V15.8848Z" fill="#556875"/>
<path d="M15.9889 16.7188H13.2285V22.0833H15.9889V16.7188Z" fill="#D9E0E3"/>
<path d="M19.5827 16.7188H16.8223V22.0833H19.5827V16.7188Z" fill="#D9E0E3"/>
<path d="M24.5312 11.3542L13.6459 0.46875C13.0209 -0.15625 11.9271 -0.15625 11.3021 0.46875L0.46875 11.3542C-0.15625 11.9792 -0.15625 13.0729 0.46875 13.6979C1.09375 14.3229 2.1875 14.3229 2.8125 13.6979L12.5 4.0104L22.1875 13.6979C22.8125 14.3229 23.9062 14.3229 24.5312 13.6979C25.1562 13.0208 25.1562 11.9792 24.5312 11.3542Z" fill="#415A6B"/>
</g>
<defs>
<clipPath id="clip0_1703_499">
<rect width="25" height="25" fill="white"/>
</clipPath>
</defs>
</svg>
