<svg width="62" height="56" viewBox="0 0 62 56" fill="none" xmlns="http://www.w3.org/2000/svg">
<path d="M31 0L57.8468 14V42L31 56L4.15321 42V14L31 0Z" fill="#E87291"/>
<g clip-path="url(#clip0_1385_208)">
<path d="M40.5624 17.5938H37.6978V22.5938H40.5624V17.5938Z" fill="#415A6B"/>
<path d="M41.6561 15.0415H36.604V17.7499H41.6561V15.0415Z" fill="#415A6B"/>
<path d="M21.1875 27.4896V39H41.6042V27.4896C37.5937 23.4792 35.3541 21.2396 31.3958 17.2812C27.4375 21.2917 25.1979 23.5312 21.1875 27.4896Z" fill="#FFB9AF"/>
<path d="M29.573 38.9998H23.4272V32.9582C23.4272 31.2394 24.8335 29.8853 26.5001 29.8853C28.2189 29.8853 29.573 31.2915 29.573 32.9582V38.9998Z" fill="#415A6B"/>
<path d="M39.4168 29.8853H31.396V36.9165H39.4168V29.8853Z" fill="#344A5E"/>
<path d="M34.9894 30.7188H32.229V36.0833H34.9894V30.7188Z" fill="#8AD7F8"/>
<path d="M38.5832 30.7188H35.8228V36.0833H38.5832V30.7188Z" fill="#8AD7F8"/>
<path d="M43.5312 25.3542L32.6459 14.4688C32.0209 13.8438 30.9271 13.8438 30.3021 14.4688L19.4688 25.3542C18.8438 25.9792 18.8438 27.0729 19.4688 27.6979C20.0938 28.3229 21.1875 28.3229 21.8125 27.6979L31.5 18.0104L41.1875 27.6979C41.8125 28.3229 42.9062 28.3229 43.5312 27.6979C44.1562 27.0208 44.1562 25.9792 43.5312 25.3542Z" fill="#415A6B"/>
</g>
<defs>
<clipPath id="clip0_1385_208">
<rect width="25" height="25" fill="white" transform="translate(19 14)"/>
</clipPath>
</defs>
</svg>
