<svg width="25" height="25" viewBox="0 0 25 25" fill="none" xmlns="http://www.w3.org/2000/svg">
<g clip-path="url(#clip0_1332_104)">
<path d="M21.5624 3.59375H18.6978V8.59375H21.5624V3.59375Z" fill="#415A6B"/>
<path d="M22.6561 1.0415H17.604V3.74985H22.6561V1.0415Z" fill="#415A6B"/>
<path d="M2.1875 13.4896V25H22.6042V13.4896C18.5937 9.4792 16.3541 7.2396 12.3958 3.28125C8.4375 7.29165 6.1979 9.53125 2.1875 13.4896Z" fill="#FFB9AF"/>
<path d="M10.573 24.9998H4.42725V18.9582C4.42725 17.2394 5.8335 15.8853 7.50015 15.8853C9.2189 15.8853 10.573 17.2915 10.573 18.9582V24.9998Z" fill="#415A6B"/>
<path d="M20.4168 15.8853H12.396V22.9165H20.4168V15.8853Z" fill="#344A5E"/>
<path d="M15.9894 16.7188H13.229V22.0833H15.9894V16.7188Z" fill="#8AD7F8"/>
<path d="M19.5832 16.7188H16.8228V22.0833H19.5832V16.7188Z" fill="#8AD7F8"/>
<path d="M24.5312 11.3542L13.6459 0.46875C13.0209 -0.15625 11.9271 -0.15625 11.3021 0.46875L0.46875 11.3542C-0.15625 11.9792 -0.15625 13.0729 0.46875 13.6979C1.09375 14.3229 2.1875 14.3229 2.8125 13.6979L12.5 4.0104L22.1875 13.6979C22.8125 14.3229 23.9062 14.3229 24.5312 13.6979C25.1562 13.0208 25.1562 11.9792 24.5312 11.3542Z" fill="#415A6B"/>
</g>
<defs>
<clipPath id="clip0_1332_104">
<rect width="25" height="25" fill="white"/>
</clipPath>
</defs>
</svg>
