<svg width="33" height="33" viewBox="0 0 33 33" fill="none" xmlns="http://www.w3.org/2000/svg">
<path d="M25.9635 15.2637H7.03744C6.74685 15.2637 6.51172 15.4991 6.51172 15.7894V19.5524C6.51172 22.7486 10.8993 25.2524 16.5005 25.2524C22.1017 25.2524 26.4893 22.7485 26.4893 19.5524V15.7894C26.4893 15.4991 26.2541 15.2637 25.9635 15.2637Z" fill="#404D57"/>
<path d="M16.5169 15.2637H7.03744C6.74685 15.2637 6.51172 15.4991 6.51172 15.7894V19.5524C6.51172 22.7486 10.8993 25.2524 16.5005 25.2524C16.506 25.2524 16.5114 25.252 16.5169 25.252V15.2637Z" fill="#5F7381"/>
<path d="M31.7257 9.65085L18.3613 3.92276C17.1784 3.41602 15.82 3.41629 14.6361 3.92407L1.27482 9.65033C0.488267 9.98738 0 10.7282 0 11.5835C0 12.4386 0.488267 13.1787 1.27429 13.5155L14.6381 19.2435C15.2291 19.4966 15.8636 19.6231 16.4987 19.6231C17.1348 19.6231 17.7709 19.4963 18.3634 19.2422L31.7247 13.5159C32.5112 13.1791 32.9999 12.4383 32.9999 11.583C33 10.7279 32.5117 9.98765 31.7257 9.65085Z" fill="#4A5B66"/>
<path d="M3.3558 22.6235C3.06521 22.6235 2.83008 22.3881 2.83008 22.0977V14.1284C2.83008 13.6155 3.19664 13.1799 3.70186 13.0923L14.3062 11.248C14.5922 11.1987 14.8642 11.3899 14.9141 11.6759C14.9639 11.9619 14.7724 12.2342 14.4859 12.284L3.88153 14.1284V22.0977C3.88153 22.3881 3.6464 22.6235 3.3558 22.6235Z" fill="#5F7381"/>
<path d="M3.35614 23.6752C3.93684 23.6752 4.40759 23.2044 4.40759 22.6237C4.40759 22.043 3.93684 21.5723 3.35614 21.5723C2.77544 21.5723 2.30469 22.043 2.30469 22.6237C2.30469 23.2044 2.77544 23.6752 3.35614 23.6752Z" fill="#C48B2A"/>
<path d="M14.3965 11.0566V12.1081C14.3965 12.6888 15.338 13.1595 16.4994 13.1595C17.6608 13.1595 18.6023 12.6888 18.6023 12.1081V11.0566H14.3965Z" fill="#C48B2A"/>
<path d="M16.4994 12.1088C17.6608 12.1088 18.6023 11.638 18.6023 11.0573C18.6023 10.4766 17.6608 10.0059 16.4994 10.0059C15.338 10.0059 14.3965 10.4766 14.3965 11.0573C14.3965 11.638 15.338 12.1088 16.4994 12.1088Z" fill="#EEAA38"/>
<path d="M2.27708 24.7229L1.89869 28.8855C1.87069 29.1933 2.11312 29.4588 2.42224 29.4588H4.42519C4.73431 29.4588 4.97674 29.1933 4.94874 28.8855L4.57035 24.7229C4.51647 24.1299 4.0192 23.6758 3.42375 23.6758C2.8283 23.6758 2.33103 24.1299 2.27708 24.7229Z" fill="#EEAA38"/>
</svg>
