<svg width="62" height="56" viewBox="0 0 62 56" fill="none" xmlns="http://www.w3.org/2000/svg">
<path d="M31 0L57.8468 14V42L31 56L4.15321 42V14L31 0Z" fill="#9CCEF6"/>
<path d="M41.9626 27.2627H23.0365C22.7459 27.2627 22.5107 27.4981 22.5107 27.7884V31.5514C22.5107 34.7476 26.8983 37.2515 32.4995 37.2515C38.1007 37.2515 42.4883 34.7476 42.4883 31.5514V27.7884C42.4883 27.4981 42.2531 27.2627 41.9626 27.2627Z" fill="#5D647F"/>
<path d="M32.5159 27.2627H23.0365C22.7459 27.2627 22.5107 27.4981 22.5107 27.7884V31.5514C22.5107 34.7476 26.8983 37.2515 32.4995 37.2515C32.505 37.2515 32.5104 37.251 32.5159 37.251V27.2627Z" fill="#5C546A"/>
<path d="M47.7257 21.6504L34.3613 15.9223C33.1784 15.4155 31.82 15.4158 30.6361 15.9236L17.2748 21.6498C16.4883 21.9869 16 22.7277 16 23.5831C16 24.4382 16.4883 25.1782 17.2743 25.515L30.6381 31.243C31.2291 31.4961 31.8636 31.6226 32.4987 31.6226C33.1348 31.6226 33.7709 31.4958 34.3634 31.2417L47.7247 25.5154C48.5112 25.1786 48.9999 24.4378 48.9999 23.5825C49 22.7274 48.5117 21.9872 47.7257 21.6504Z" fill="#527992"/>
<path d="M19.3568 34.623C19.0662 34.623 18.8311 34.3876 18.8311 34.0973V26.1279C18.8311 25.615 19.1976 25.1794 19.7028 25.0919L30.3072 23.2475C30.5932 23.1982 30.8652 23.3894 30.915 23.6754C30.9648 23.9614 30.7734 24.2337 30.4868 24.2836L19.8825 26.1279V34.0972C19.8825 34.3876 19.6474 34.623 19.3568 34.623Z" fill="#5C546A"/>
<path d="M19.3566 35.6747C19.9373 35.6747 20.4081 35.2039 20.4081 34.6232C20.4081 34.0425 19.9373 33.5718 19.3566 33.5718C18.7759 33.5718 18.3052 34.0425 18.3052 34.6232C18.3052 35.2039 18.7759 35.6747 19.3566 35.6747Z" fill="#915018"/>
<path d="M30.397 23.0571V24.1086C30.397 24.6892 31.3385 25.16 32.4999 25.16C33.6613 25.16 34.6028 24.6892 34.6028 24.1086V23.0571H30.397Z" fill="#915018"/>
<path d="M32.4999 24.1088C33.6613 24.1088 34.6028 23.638 34.6028 23.0573C34.6028 22.4766 33.6613 22.0059 32.4999 22.0059C31.3385 22.0059 30.397 22.4766 30.397 23.0573C30.397 23.638 31.3385 24.1088 32.4999 24.1088Z" fill="#EDC863"/>
<path d="M18.2761 36.7214L17.8977 40.884C17.8697 41.1919 18.1121 41.4573 18.4213 41.4573H20.4242C20.7333 41.4573 20.9758 41.1919 20.9478 40.884L20.5694 36.7214C20.5155 36.1284 20.0182 35.6743 19.4228 35.6743C18.8273 35.6744 18.3301 36.1284 18.2761 36.7214Z" fill="#EDC863"/>
</svg>
