<svg width="33" height="33" viewBox="0 0 33 33" fill="none" xmlns="http://www.w3.org/2000/svg">
<path d="M25.9626 15.2627H7.03647C6.74587 15.2627 6.51074 15.4981 6.51074 15.7884V19.5514C6.51074 22.7476 10.8983 25.2515 16.4995 25.2515C22.1007 25.2515 26.4883 22.7476 26.4883 19.5514V15.7884C26.4883 15.4981 26.2531 15.2627 25.9626 15.2627Z" fill="#5D647F"/>
<path d="M16.5159 15.2627H7.03647C6.74587 15.2627 6.51074 15.4981 6.51074 15.7884V19.5514C6.51074 22.7476 10.8983 25.2515 16.4995 25.2515C16.505 25.2515 16.5104 25.251 16.5159 25.251V15.2627Z" fill="#5C546A"/>
<path d="M31.7257 9.65037L18.3613 3.92227C17.1784 3.41553 15.82 3.4158 14.6361 3.92358L1.27482 9.64984C0.488267 9.9869 0 10.7277 0 11.5831C0 12.4382 0.488267 13.1782 1.27429 13.515L14.6381 19.243C15.2291 19.4961 15.8636 19.6226 16.4987 19.6226C17.1348 19.6226 17.7709 19.4958 18.3634 19.2417L31.7247 13.5154C32.5112 13.1786 32.9999 12.4378 32.9999 11.5825C33 10.7274 32.5117 9.98716 31.7257 9.65037Z" fill="#527992"/>
<path d="M3.35678 22.623C3.06619 22.623 2.83105 22.3876 2.83105 22.0973V14.1279C2.83105 13.615 3.19762 13.1794 3.70284 13.0919L14.3072 11.2475C14.5932 11.1982 14.8652 11.3894 14.915 11.6754C14.9648 11.9614 14.7734 12.2337 14.4868 12.2836L3.8825 14.1279V22.0972C3.8825 22.3876 3.64737 22.623 3.35678 22.623Z" fill="#5C546A"/>
<path d="M3.35663 23.6747C3.93732 23.6747 4.40807 23.2039 4.40807 22.6232C4.40807 22.0425 3.93732 21.5718 3.35663 21.5718C2.77593 21.5718 2.30518 22.0425 2.30518 22.6232C2.30518 23.2039 2.77593 23.6747 3.35663 23.6747Z" fill="#915018"/>
<path d="M14.397 11.0571V12.1086C14.397 12.6892 15.3385 13.16 16.4999 13.16C17.6613 13.16 18.6028 12.6892 18.6028 12.1086V11.0571H14.397Z" fill="#915018"/>
<path d="M16.4999 12.1088C17.6613 12.1088 18.6028 11.638 18.6028 11.0573C18.6028 10.4766 17.6613 10.0059 16.4999 10.0059C15.3385 10.0059 14.397 10.4766 14.397 11.0573C14.397 11.638 15.3385 12.1088 16.4999 12.1088Z" fill="#EDC863"/>
<path d="M2.2761 24.7214L1.89771 28.884C1.86972 29.1919 2.11214 29.4573 2.42127 29.4573H4.42421C4.73334 29.4573 4.97576 29.1919 4.94777 28.884L4.56938 24.7214C4.51549 24.1284 4.01822 23.6743 3.42277 23.6743C2.82732 23.6744 2.33005 24.1284 2.2761 24.7214Z" fill="#EDC863"/>
</svg>
