<svg width="31" height="31" viewBox="0 0 31 31" fill="none" xmlns="http://www.w3.org/2000/svg">
<g clip-path="url(#clip0_1703_678)">
<path d="M30.835 26.6837H12.293L17.4332 18.3325L18.1412 19.0404C18.1899 19.0891 18.2685 19.0891 18.3171 19.0404L19.7448 17.6133L21.6285 19.4963C21.6772 19.545 21.7558 19.545 21.805 19.4963L23.0999 18.2014L25.2325 20.334C25.2812 20.3827 25.3598 20.3827 25.4084 20.334L26.3484 19.394L30.835 26.6837Z" fill="#556875"/>
<path d="M25.9318 18.7168L24.7734 19.8751L28.9643 26.6845H30.8355L25.9318 18.7168Z" fill="#293339"/>
<path d="M23.1008 18.4045L25.2333 20.5369C25.282 20.5857 25.361 20.5857 25.4097 20.5369L26.4263 19.5204L21.9179 12.1952C21.7562 11.9323 21.374 11.9323 21.2123 12.1952L17.3574 18.4586L18.1421 19.2433C18.1909 19.292 18.2698 19.292 18.3185 19.2433L19.7459 17.8159L21.6295 19.6995C21.6782 19.7482 21.7572 19.7482 21.8059 19.6995L23.1008 18.4045Z" fill="#F6F7F9"/>
<path d="M25.0957 20.3998L25.2328 20.5369C25.2815 20.5856 25.3605 20.5856 25.4092 20.5369L26.4257 19.5204L21.9173 12.1952C21.7556 11.9323 21.3735 11.9323 21.2117 12.1952L20.6289 13.1421L25.0957 20.3998Z" fill="#B9C5CC"/>
<path d="M6.66016 17.1074H9.65414V24.8858H6.66016V17.1074Z" fill="#EEAA38"/>
<path d="M14.9156 18.1985L12.3124 17.6486C12.2587 17.6372 12.2064 17.6728 12.1972 17.7269L11.9089 19.4168C11.8971 19.4862 11.8175 19.5201 11.7593 19.4804L9.5458 17.9727C9.50621 17.9457 9.45281 17.9519 9.42035 17.9871L8.22685 19.2838C8.18859 19.3254 8.12295 19.3254 8.08469 19.2838L6.89119 17.9871C6.85873 17.9519 6.80533 17.9457 6.76573 17.9727L4.55275 19.4804C4.49462 19.52 4.41494 19.4862 4.40314 19.4168L4.11493 17.7269C4.10573 17.6728 4.05342 17.6372 3.99977 17.6486L1.39601 18.1985C1.30653 18.2173 1.24368 18.1131 1.30174 18.0425C4.05772 14.691 6.20925 11.1486 8.06398 5.41241C8.09274 5.32347 8.21892 5.32347 8.24768 5.41241C10.1024 11.1486 12.2546 14.691 15.01 18.0425C15.0679 18.1131 15.005 18.2173 14.9156 18.1985Z" fill="#00362E"/>
<path d="M15.0105 18.0425C12.2551 14.691 10.1029 11.1486 8.24818 5.41241C8.21942 5.32347 8.09324 5.32347 8.06448 5.41241C7.79015 6.26091 7.50909 7.06031 7.2207 7.81933C8.83046 12.0563 10.6739 15.0005 12.9232 17.7775L14.9161 18.1985C15.0056 18.2173 15.0685 18.1131 15.0105 18.0425Z" fill="#021A16"/>
<path d="M13.7449 13.7124L11.6371 13.2672C11.5835 13.2559 11.5312 13.2914 11.522 13.3455L11.2888 14.7124C11.277 14.7817 11.1974 14.8156 11.1392 14.776L9.32707 13.5417C9.28747 13.5147 9.23407 13.5208 9.20162 13.5561L8.22845 14.6134C8.19018 14.655 8.12455 14.655 8.08628 14.6134L7.11311 13.5561C7.08066 13.5208 7.02726 13.5147 6.98766 13.5417L5.17591 14.7759C5.11779 14.8155 5.03811 14.7817 5.0263 14.7123L4.7932 13.3455C4.78399 13.2914 4.73168 13.2559 4.67804 13.2672L2.56986 13.7125C2.48043 13.7314 2.41752 13.6272 2.47552 13.5565C4.75033 10.7836 6.53017 7.84705 8.06557 3.11549C8.09446 3.02661 8.22033 3.02661 8.24921 3.11549C9.78462 7.84705 11.5649 10.7836 13.8393 13.5565C13.8971 13.6272 13.8343 13.7313 13.7449 13.7124Z" fill="#187A6A"/>
<path d="M13.8382 13.5565C11.5639 10.7837 9.78359 7.84709 8.24812 3.11554C8.21924 3.02659 8.09337 3.02659 8.06448 3.11554C7.79148 3.95683 7.51054 4.74043 7.2207 5.47741C8.50938 8.7536 9.97861 11.0905 11.7517 13.2917L13.7439 13.7125C13.8333 13.7313 13.8962 13.6272 13.8382 13.5565Z" fill="#0E5D50"/>
<path d="M12.129 9.36957L10.6778 9.06302C10.6297 9.05285 10.5828 9.08475 10.5745 9.13319L10.4143 10.0727C10.4037 10.1349 10.3323 10.1652 10.2801 10.1297L9.01068 9.26506C8.97514 9.24084 8.92731 9.24635 8.89818 9.27802L8.22066 10.0141C8.18633 10.0514 8.12754 10.0514 8.09321 10.0141L7.41569 9.27802C7.38657 9.24641 7.33868 9.2409 7.3032 9.26512L6.03407 10.1297C5.98194 10.1653 5.9105 10.1349 5.8999 10.0727L5.73963 9.13319C5.73134 9.08469 5.68448 9.05285 5.63634 9.06302L4.18479 9.36957C4.10463 9.38652 4.0482 9.29316 4.10009 9.2297C5.7139 7.25569 6.9806 5.15926 8.07456 1.80581C8.10054 1.72619 8.21316 1.72619 8.23913 1.80581C9.33309 5.1592 10.6002 7.25563 12.2137 9.2297C12.2656 9.29316 12.2092 9.38652 12.129 9.36957Z" fill="#98DCA4"/>
<path d="M12.2134 9.22964C10.5999 7.25563 9.33289 5.1592 8.23893 1.80581C8.21296 1.72619 8.10034 1.72619 8.07437 1.80581C7.85337 2.48327 7.62517 3.10866 7.38867 3.69281C8.26848 6.13769 9.25448 8.41862 10.4049 10.0984C10.409 10.0906 10.4124 10.0821 10.414 10.0727L10.5743 9.13319C10.5826 9.08469 10.6294 9.05284 10.6776 9.06302L12.1288 9.36957C12.2089 9.38646 12.2653 9.29309 12.2134 9.22964Z" fill="#63B972"/>
<path d="M0 28.3303V22.8393C0 22.1517 0.524275 21.5778 1.20912 21.5162C4.99633 21.1752 16.5536 20.7886 19.5255 28.3303H0Z" fill="#005D31"/>
<path d="M3.57812 21.3812C8.55266 21.5096 15.4555 22.7478 17.6553 28.3301H19.5265C17.0333 22.0035 8.49938 21.2564 3.57812 21.3812Z" fill="#113217"/>
<path d="M0.623754 31.0011H30.3762C30.7208 31.0011 31 30.7218 31 30.3773V25.02C31 24.8763 30.8787 24.7629 30.7352 24.7707C28.4133 24.8965 28.3252 26.6739 25.8331 26.6739C23.2497 26.6739 23.2497 24.7637 20.6662 24.7637C18.0829 24.7637 18.0829 26.6739 15.4996 26.6739C12.9163 26.6739 12.9163 24.7637 10.3331 24.7637C7.74976 24.7637 7.74976 26.6739 5.16646 26.6739C2.6746 26.6739 2.58644 24.8965 0.264711 24.7707C0.121336 24.7629 0 24.8763 0 25.02V30.3773C0 30.7218 0.279242 31.0011 0.623754 31.0011Z" fill="#00AEC3"/>
<path d="M23.9617 26.6739C24.3179 26.6739 24.6236 26.6366 24.8951 26.5741C23.2002 26.1815 22.8919 24.7637 20.666 24.7637C20.3094 24.7637 20.0022 24.8002 19.7305 24.863C21.4273 25.2548 21.7349 26.6739 23.9617 26.6739Z" fill="#0693A4"/>
<path d="M13.6293 26.6739C13.986 26.6739 14.2932 26.6373 14.565 26.5746C12.8683 26.1827 12.5607 24.7637 10.3341 24.7637C9.97745 24.7637 9.67023 24.8002 9.39844 24.863C11.0951 25.2548 11.4027 26.6739 13.6293 26.6739Z" fill="#0693A4"/>
<path d="M31.0008 25.0192C31.0008 24.8755 30.8795 24.7621 30.736 24.7699C30.0421 24.8075 29.5483 24.9931 29.1296 25.2342V30.3766C29.1296 30.7211 28.8504 31.0003 28.5059 31.0003H30.3771C30.7216 31.0003 31.0008 30.7211 31.0008 30.3766V25.0192Z" fill="#0693A4"/>
<path d="M3.29526 26.6731C3.65291 26.6731 3.96086 26.6364 4.23313 26.5733C2.60503 26.1979 2.25464 24.8777 0.264711 24.7699C0.121336 24.7622 0 24.8756 0 25.0192V25.2343C0.982131 25.7999 1.54824 26.6731 3.29526 26.6731Z" fill="#0693A4"/>
</g>
<defs>
<clipPath id="clip0_1703_678">
<rect width="31" height="31" fill="white"/>
</clipPath>
</defs>
</svg>
