<svg width="62" height="56" viewBox="0 0 62 56" fill="none" xmlns="http://www.w3.org/2000/svg">
<path d="M31 0L57.8468 14V42L31 56L4.15321 42V14L31 0Z" fill="#F9A375"/>
<g clip-path="url(#clip0_1385_210)">
<path d="M46.8301 37.5442H27.6899L32.996 28.9235L33.7268 29.6543C33.7771 29.7046 33.8582 29.7046 33.9084 29.6543L35.3822 28.1812L37.3266 30.125C37.3769 30.1752 37.458 30.1752 37.5088 30.125L38.8455 28.7883L41.0469 30.9897C41.0971 31.0399 41.1783 31.0399 41.2284 30.9897L42.1988 30.0193L46.8301 37.5442Z" fill="#455A64"/>
<path d="M41.768 29.3198L40.5723 30.5155L44.8983 37.5445H46.8299L41.768 29.3198Z" fill="#1A282F"/>
<path d="M38.8452 28.9964L41.0464 31.1976C41.0968 31.248 41.1783 31.248 41.2286 31.1976L42.2779 30.1483L37.6241 22.5868C37.4571 22.3155 37.0627 22.3155 36.8957 22.5868L32.9165 29.0523L33.7265 29.8623C33.7768 29.9126 33.8583 29.9126 33.9086 29.8623L35.3821 28.3888L37.3264 30.3331C37.3767 30.3835 37.4582 30.3835 37.5085 30.3331L38.8452 28.9964Z" fill="#F2FBFF"/>
<path d="M40.9048 31.0561L41.0463 31.1976C41.0966 31.2479 41.1781 31.2479 41.2284 31.1976L42.2777 30.1483L37.6239 22.5868C37.4569 22.3155 37.0625 22.3155 36.8955 22.5868L36.2939 23.5642L40.9048 31.0561Z" fill="#DFF6FD"/>
<path d="M21.874 27.6577H24.9646V35.687H21.874V27.6577Z" fill="#B3536A"/>
<path d="M30.3975 28.7854L27.7103 28.2178C27.6549 28.2061 27.6009 28.2428 27.5914 28.2986L27.2938 30.0431C27.2816 30.1147 27.1994 30.1497 27.1394 30.1087L24.8545 28.5524C24.8136 28.5246 24.7585 28.5309 24.725 28.5673L23.493 29.9058C23.4535 29.9487 23.3857 29.9487 23.3462 29.9058L22.1142 28.5673C22.0807 28.5309 22.0256 28.5246 21.9847 28.5524L19.7003 30.1087C19.6403 30.1496 19.5581 30.1147 19.5459 30.0431L19.2484 28.2986C19.2389 28.2428 19.1849 28.2061 19.1295 28.2178L16.4418 28.7854C16.3494 28.8049 16.2845 28.6973 16.3445 28.6244C19.1893 25.1649 21.4103 21.5081 23.3248 15.5869C23.3545 15.4951 23.4848 15.4951 23.5145 15.5869C25.429 21.5081 27.6506 25.1649 30.4949 28.6244C30.5547 28.6974 30.4898 28.8049 30.3975 28.7854Z" fill="#3F7E7A"/>
<path d="M30.4947 28.6244C27.6504 25.1649 25.4288 21.5081 23.5142 15.5869C23.4846 15.4951 23.3543 15.4951 23.3246 15.5869C23.0414 16.4628 22.7513 17.288 22.4536 18.0715C24.1153 22.4452 26.0182 25.4843 28.3401 28.3509L30.3973 28.7854C30.4897 28.8049 30.5546 28.6974 30.4947 28.6244Z" fill="#2B5E5B"/>
<path d="M29.1872 24.1531L27.0115 23.6935C26.9561 23.6818 26.9021 23.7185 26.8926 23.7743L26.652 25.1853C26.6398 25.2569 26.5576 25.2919 26.4976 25.2509L24.6269 23.9768C24.5861 23.9489 24.5309 23.9553 24.4974 23.9917L23.4929 25.0831C23.4534 25.1261 23.3856 25.1261 23.3461 25.0831L22.3416 23.9917C22.3081 23.9553 22.2529 23.9489 22.2121 23.9768L20.3419 25.2509C20.2819 25.2918 20.1996 25.2568 20.1874 25.1853L19.9468 23.7743C19.9373 23.7185 19.8833 23.6818 19.8279 23.6935L17.6517 24.1531C17.5594 24.1726 17.4945 24.0651 17.5544 23.9921C19.9026 21.1298 21.7398 18.0985 23.3247 13.2143C23.3546 13.1226 23.4845 13.1226 23.5143 13.2143C25.0992 18.0985 26.9369 21.1298 29.2847 23.9921C29.3444 24.0651 29.2796 24.1726 29.1872 24.1531Z" fill="#4A9F9A"/>
<path d="M29.2846 23.9922C26.9369 21.1299 25.0992 18.0986 23.5142 13.2144C23.4844 13.1226 23.3544 13.1226 23.3246 13.2144C23.0428 14.0828 22.7528 14.8917 22.4536 15.6524C23.7839 19.0343 25.3005 21.4466 27.1308 23.7188L29.1872 24.1532C29.2796 24.1726 29.3444 24.0651 29.2846 23.9922Z" fill="#2D817C"/>
<path d="M27.5195 19.6711L26.0215 19.3547C25.9718 19.3442 25.9235 19.3771 25.9149 19.4271L25.7495 20.397C25.7385 20.4611 25.6648 20.4925 25.611 20.4558L24.3006 19.5633C24.2639 19.5383 24.2145 19.544 24.1845 19.5766L23.4851 20.3365C23.4497 20.375 23.389 20.375 23.3535 20.3365L22.6542 19.5766C22.6241 19.544 22.5747 19.5383 22.538 19.5633L21.228 20.4558C21.1742 20.4925 21.1004 20.4611 21.0895 20.397L20.924 19.4271C20.9155 19.3771 20.8671 19.3442 20.8174 19.3547L19.319 19.6711C19.2363 19.6886 19.178 19.5923 19.2316 19.5268C20.8975 17.4891 22.205 15.325 23.3343 11.8634C23.3611 11.7812 23.4773 11.7812 23.5042 11.8634C24.6334 15.325 25.9413 17.489 27.6069 19.5268C27.6605 19.5923 27.6023 19.6886 27.5195 19.6711Z" fill="#8EBFB0"/>
<path d="M27.6068 19.5267C25.9413 17.489 24.6334 15.325 23.5042 11.8634C23.4773 11.7812 23.3611 11.7812 23.3343 11.8634C23.1062 12.5627 22.8706 13.2083 22.6265 13.8113C23.5347 16.335 24.5525 18.6895 25.74 20.4235C25.7442 20.4154 25.7477 20.4067 25.7494 20.397L25.9148 19.4271C25.9234 19.3771 25.9718 19.3442 26.0215 19.3547L27.5195 19.6711C27.6022 19.6886 27.6604 19.5922 27.6068 19.5267Z" fill="#72A394"/>
<path d="M15 39.2438V33.5757C15 32.8659 15.5412 32.2735 16.2481 32.2099C20.1575 31.8579 32.0876 31.4588 35.1554 39.2438H15Z" fill="#B88591"/>
<path d="M18.6924 32.0705C23.8274 32.2031 30.9529 33.4813 33.2236 39.2436H35.1553C32.5816 32.7129 23.7724 31.9418 18.6924 32.0705Z" fill="#825F6D"/>
<path d="M15.6439 41.9997H46.3561C46.7117 41.9997 47 41.7114 47 41.3558V35.8256C47 35.6773 46.8748 35.5602 46.7267 35.5683C44.3299 35.6982 44.2389 37.5328 41.6664 37.5328C38.9997 37.5328 38.9997 35.561 36.3329 35.561C33.6662 35.561 33.6662 37.5328 30.9996 37.5328C28.333 37.5328 28.333 35.561 25.6664 35.561C22.9998 35.561 22.9998 37.5328 20.3331 37.5328C17.7609 37.5328 17.6699 35.6981 15.2733 35.5683C15.1253 35.5602 15 35.6773 15 35.8256V41.3558C15 41.7114 15.2882 41.9997 15.6439 41.9997Z" fill="#84BBF8"/>
<path d="M39.7349 37.5328C40.1026 37.5328 40.4182 37.4944 40.6984 37.4298C38.9488 37.0246 38.6306 35.561 36.3329 35.561C35.9648 35.561 35.6477 35.5988 35.3672 35.6635C37.1188 36.068 37.4363 37.5328 39.7349 37.5328Z" fill="#4A98CA"/>
<path d="M29.0681 37.5328C29.4362 37.5328 29.7534 37.4951 30.0339 37.4303C28.2824 37.0258 27.9649 35.561 25.6665 35.561C25.2984 35.561 24.9812 35.5988 24.7007 35.6635C26.4521 36.068 26.7696 37.5328 29.0681 37.5328Z" fill="#4A98CA"/>
<path d="M47.0002 35.8256C47.0002 35.6773 46.875 35.5602 46.7269 35.5683C46.0106 35.6071 45.5009 35.7986 45.0687 36.0475V41.3558C45.0687 41.7114 44.7804 41.9996 44.4248 41.9996H46.3564C46.712 41.9996 47.0002 41.7114 47.0002 41.3558V35.8256Z" fill="#4A98CA"/>
<path d="M18.4016 37.5329C18.7707 37.5329 19.0886 37.4949 19.3697 37.4298C17.6891 37.0423 17.3274 35.6796 15.2733 35.5683C15.1253 35.5603 15 35.6773 15 35.8256V36.0476C16.0138 36.6315 16.5982 37.5329 18.4016 37.5329Z" fill="#4A98CA"/>
</g>
<defs>
<clipPath id="clip0_1385_210">
<rect width="32" height="32" fill="white" transform="translate(15 10)"/>
</clipPath>
</defs>
</svg>
