<svg width="32" height="32" viewBox="0 0 32 32" fill="none" xmlns="http://www.w3.org/2000/svg">
<g clip-path="url(#clip0_1332_419)">
<path d="M31.8301 27.5442H12.6899L17.996 18.9235L18.7268 19.6543C18.7771 19.7046 18.8582 19.7046 18.9084 19.6543L20.3822 18.1812L22.3266 20.125C22.3769 20.1752 22.458 20.1752 22.5088 20.125L23.8455 18.7883L26.0469 20.9897C26.0971 21.0399 26.1783 21.0399 26.2284 20.9897L27.1988 20.0193L31.8301 27.5442Z" fill="#455A64"/>
<path d="M26.768 19.3198L25.5723 20.5155L29.8983 27.5445H31.8299L26.768 19.3198Z" fill="#1A282F"/>
<path d="M23.8452 18.9964L26.0464 21.1976C26.0968 21.248 26.1783 21.248 26.2286 21.1976L27.2779 20.1483L22.6241 12.5868C22.4571 12.3155 22.0627 12.3155 21.8957 12.5868L17.9165 19.0523L18.7265 19.8623C18.7768 19.9126 18.8583 19.9126 18.9086 19.8623L20.3821 18.3888L22.3264 20.3331C22.3767 20.3835 22.4582 20.3835 22.5085 20.3331L23.8452 18.9964Z" fill="#F2FBFF"/>
<path d="M25.9048 21.0561L26.0463 21.1976C26.0966 21.2479 26.1781 21.2479 26.2284 21.1976L27.2777 20.1483L22.6239 12.5868C22.4569 12.3155 22.0625 12.3155 21.8955 12.5868L21.2939 13.5642L25.9048 21.0561Z" fill="#DFF6FD"/>
<path d="M6.87402 17.6577H9.96459V25.687H6.87402V17.6577Z" fill="#B3536A"/>
<path d="M15.3975 18.7854L12.7103 18.2178C12.6549 18.2061 12.6009 18.2428 12.5914 18.2986L12.2938 20.0431C12.2816 20.1147 12.1994 20.1497 12.1394 20.1087L9.85446 18.5524C9.81358 18.5246 9.75846 18.5309 9.72496 18.5673L8.49296 19.9058C8.45346 19.9487 8.38571 19.9487 8.34621 19.9058L7.11421 18.5673C7.08071 18.5309 7.02558 18.5246 6.98471 18.5524L4.70033 20.1087C4.64033 20.1496 4.55808 20.1147 4.5459 20.0431L4.2484 18.2986C4.2389 18.2428 4.1849 18.2061 4.12952 18.2178L1.44177 18.7854C1.3494 18.8049 1.28452 18.6973 1.34446 18.6244C4.18933 15.1649 6.41027 11.5081 8.32483 5.58693C8.35452 5.49511 8.48477 5.49511 8.51446 5.58693C10.429 11.5081 12.6506 15.1649 15.4949 18.6244C15.5547 18.6974 15.4898 18.8049 15.3975 18.7854Z" fill="#3F7E7A"/>
<path d="M15.4947 18.6244C12.6504 15.1649 10.4288 11.5081 8.51424 5.58693C8.48455 5.49511 8.3543 5.49511 8.32461 5.58693C8.04143 6.4628 7.7513 7.28799 7.45361 8.07149C9.1153 12.4452 11.0182 15.4843 13.3401 18.3509L15.3973 18.7854C15.4897 18.8049 15.5546 18.6974 15.4947 18.6244Z" fill="#2B5E5B"/>
<path d="M14.1872 14.1531L12.0115 13.6935C11.9561 13.6818 11.9021 13.7185 11.8926 13.7743L11.652 15.1853C11.6398 15.2569 11.5576 15.2919 11.4976 15.2509L9.62693 13.9768C9.58606 13.9489 9.53093 13.9553 9.49743 13.9917L8.49287 15.0831C8.45337 15.1261 8.38562 15.1261 8.34612 15.0831L7.34156 13.9917C7.30806 13.9553 7.25293 13.9489 7.21206 13.9768L5.34187 15.2509C5.28187 15.2918 5.19962 15.2568 5.18743 15.1853L4.94681 13.7743C4.93731 13.7185 4.88331 13.6818 4.82793 13.6935L2.65175 14.1531C2.55943 14.1726 2.4945 14.0651 2.55437 13.9921C4.90256 11.1298 6.73981 8.09851 8.32475 3.21432C8.35456 3.12257 8.4845 3.12257 8.51431 3.21432C10.0992 8.09851 11.9369 11.1298 14.2847 13.9921C14.3444 14.0651 14.2796 14.1726 14.1872 14.1531Z" fill="#4A9F9A"/>
<path d="M14.2846 13.9922C11.9369 11.1299 10.0992 8.09855 8.51418 3.21437C8.48436 3.12255 8.35443 3.12255 8.32461 3.21437C8.0428 4.0828 7.7528 4.89168 7.45361 5.65243C8.78386 9.0343 10.3005 11.4466 12.1308 13.7188L14.1872 14.1532C14.2796 14.1726 14.3444 14.0651 14.2846 13.9922Z" fill="#2D817C"/>
<path d="M12.5195 9.67115L11.0215 9.35471C10.9718 9.34421 10.9235 9.37715 10.9149 9.42715L10.7495 10.397C10.7385 10.4611 10.6648 10.4925 10.611 10.4558L9.30059 9.56327C9.2639 9.53827 9.21453 9.54396 9.18446 9.57665L8.48509 10.3365C8.44965 10.375 8.38897 10.375 8.35353 10.3365L7.65415 9.57665C7.62409 9.54402 7.57465 9.53834 7.53803 9.56334L6.22797 10.4558C6.17415 10.4925 6.1004 10.4611 6.08946 10.397L5.92403 9.42715C5.91547 9.37709 5.86709 9.34421 5.8174 9.35471L4.31903 9.67115C4.23628 9.68865 4.17803 9.59227 4.23159 9.52677C5.89746 7.48909 7.20503 5.32502 8.33428 1.8634C8.36109 1.78121 8.47734 1.78121 8.50415 1.8634C9.6334 5.32496 10.9413 7.48902 12.6069 9.52677C12.6605 9.59227 12.6023 9.68865 12.5195 9.67115Z" fill="#8EBFB0"/>
<path d="M12.6068 9.52671C10.9413 7.48902 9.6334 5.32496 8.50415 1.8634C8.47734 1.78121 8.36109 1.78121 8.33428 1.8634C8.10615 2.56271 7.87059 3.20827 7.62646 3.81127C8.53465 6.33502 9.55246 8.68952 10.74 10.4235C10.7442 10.4154 10.7477 10.4067 10.7494 10.397L10.9148 9.42715C10.9234 9.37709 10.9718 9.34421 11.0215 9.35471L12.5195 9.67115C12.6022 9.68859 12.6604 9.59221 12.6068 9.52671Z" fill="#72A394"/>
<path d="M0 29.2438V23.5757C0 22.8659 0.541187 22.2735 1.24812 22.2099C5.1575 21.8579 17.0876 21.4588 20.1554 29.2438H0Z" fill="#B88591"/>
<path d="M3.69238 22.0705C8.82738 22.2031 15.9529 23.4813 18.2236 29.2436H20.1553C17.5816 22.7129 8.77238 21.9418 3.69238 22.0705Z" fill="#825F6D"/>
<path d="M0.643875 31.9997H31.3561C31.7117 31.9997 32 31.7114 32 31.3558V25.8256C32 25.6773 31.8748 25.5602 31.7267 25.5683C29.3299 25.6982 29.2389 27.5328 26.6664 27.5328C23.9997 27.5328 23.9997 25.561 21.3329 25.561C18.6662 25.561 18.6662 27.5328 15.9996 27.5328C13.333 27.5328 13.333 25.561 10.6664 25.561C7.99975 25.561 7.99975 27.5328 5.33313 27.5328C2.76088 27.5328 2.66988 25.6981 0.27325 25.5683C0.12525 25.5602 0 25.6773 0 25.8256V31.3558C0 31.7114 0.28825 31.9997 0.643875 31.9997Z" fill="#84BBF8"/>
<path d="M24.7349 27.5328C25.1026 27.5328 25.4182 27.4944 25.6984 27.4298C23.9488 27.0246 23.6306 25.561 21.3329 25.561C20.9648 25.561 20.6477 25.5988 20.3672 25.6635C22.1188 26.068 22.4363 27.5328 24.7349 27.5328Z" fill="#4A98CA"/>
<path d="M14.0681 27.5328C14.4362 27.5328 14.7534 27.4951 15.0339 27.4303C13.2824 27.0258 12.9649 25.561 10.6665 25.561C10.2984 25.561 9.98125 25.5988 9.70068 25.6635C11.4521 26.068 11.7696 27.5328 14.0681 27.5328Z" fill="#4A98CA"/>
<path d="M32.0002 25.8256C32.0002 25.6773 31.875 25.5602 31.7269 25.5683C31.0106 25.6071 30.5009 25.7986 30.0687 26.0475V31.3558C30.0687 31.7114 29.7804 31.9996 29.4248 31.9996H31.3564C31.712 31.9996 32.0002 31.7114 32.0002 31.3558V25.8256Z" fill="#4A98CA"/>
<path d="M3.40156 27.5329C3.77075 27.5329 4.08863 27.4949 4.36969 27.4298C2.68906 27.0423 2.32738 25.6796 0.27325 25.5683C0.12525 25.5603 0 25.6773 0 25.8256V26.0476C1.01381 26.6315 1.59819 27.5329 3.40156 27.5329Z" fill="#4A98CA"/>
</g>
<defs>
<clipPath id="clip0_1332_419">
<rect width="32" height="32" fill="white"/>
</clipPath>
</defs>
</svg>
