<svg width="38" height="32" viewBox="0 0 38 32" fill="none" xmlns="http://www.w3.org/2000/svg">
<path d="M28.9797 23.8697C33.7363 23.8697 37.5923 20.0137 37.5923 15.2571C37.5923 10.5005 33.7363 6.64453 28.9797 6.64453C24.2232 6.64453 20.3672 10.5005 20.3672 15.2571C20.3672 20.0137 24.2232 23.8697 28.9797 23.8697Z" fill="white"/>
<mask id="mask0_1703_512" style="mask-type:luminance" maskUnits="userSpaceOnUse" x="20" y="6" width="18" height="19">
<path d="M28.9779 24.0807C27.2331 24.0807 25.5275 23.5633 24.0768 22.594C22.6261 21.6247 21.4954 20.2469 20.8278 18.635C20.1601 17.023 19.9854 15.2493 20.3258 13.5381C20.6661 11.8269 21.5063 10.255 22.74 9.02129C23.9738 7.78757 25.5456 6.94739 27.2568 6.60701C28.9681 6.26662 30.7418 6.44132 32.3537 7.10901C33.9657 7.7767 35.3434 8.90738 36.3127 10.3581C37.2821 11.8088 37.7995 13.5144 37.7995 15.2591C37.7961 17.5977 36.8657 19.8396 35.212 21.4933C33.5584 23.1469 31.3165 24.0774 28.9779 24.0807ZM28.9779 6.85558C27.3158 6.85558 25.6911 7.34844 24.3091 8.27183C22.9272 9.19522 21.8501 10.5077 21.214 12.0432C20.578 13.5788 20.4116 15.2684 20.7358 16.8985C21.0601 18.5287 21.8604 20.026 23.0357 21.2013C24.2109 22.3765 25.7083 23.1769 27.3384 23.5011C28.9685 23.8254 30.6582 23.659 32.1937 23.0229C33.7293 22.3869 35.0417 21.3098 35.9651 19.9278C36.8885 18.5459 37.3814 16.9212 37.3814 15.2591C37.3792 13.031 36.4931 10.8948 34.9176 9.31936C33.3421 7.74388 31.2059 6.8578 28.9779 6.85558Z" fill="white"/>
</mask>
<g mask="url(#mask0_1703_512)">
</g>
<path d="M30.3012 10.9954L30.0545 14.846L26.0367 15.9204L24.1344 12.8559L26.5342 9.75369L30.3012 10.9954ZM36.0164 15.7825L32.91 17.1454C32.91 17.1454 32.124 20.0469 31.961 20.7493C32.7887 21.0674 33.6499 21.2904 34.528 21.4141C34.528 21.4141 36.2254 19.633 36.6394 18.4331C36.6394 18.4499 36.3509 16.418 36.0164 15.7825ZM28.5661 21.991C28.5661 21.991 25.9949 20.0888 25.3761 19.4825C25.3761 19.4825 23.1812 19.8546 22.6 19.8546C22.869 20.7381 23.2938 21.5664 23.8543 22.3004C24.912 23.0265 26.1386 23.4685 27.4164 23.5839L28.5661 21.991ZM26.1203 7.70506C26.9649 7.24284 27.8618 6.88352 28.7919 6.63477C27.223 6.66499 25.6927 7.1264 24.3685 7.96846C24.9402 7.81515 25.5285 7.73232 26.1203 7.72179V7.70506ZM35.9328 12.304L36.794 11.6225C36.0388 9.99982 34.7986 8.6515 33.2445 7.7636L32.5379 7.66326C32.5379 7.66326 33.2863 9.3356 33.1609 9.85821C34.1806 10.5644 35.1113 11.3913 35.9328 12.3207V12.304ZM20.5305 16.9322C20.6555 16.9479 20.7824 16.9365 20.9026 16.8988C20.892 15.7067 21.118 14.5244 21.5674 13.4203C21.4142 12.7589 21.3136 12.0865 21.2664 11.4093C20.6709 12.5995 20.3617 13.9123 20.3633 15.2431C20.3625 15.8159 20.4186 16.3873 20.5305 16.9489V16.9322Z" fill="#263238"/>
<path d="M27.5084 23.7963H27.3955C26.0763 23.6808 24.8099 23.224 23.7206 22.471L23.6829 22.4376C23.1062 21.6863 22.6713 20.8363 22.3994 19.9291L22.3242 19.6615H22.6001C23.1562 19.6615 25.3177 19.2977 25.3427 19.2936L25.4473 19.2727L25.5225 19.3521C26.1246 19.9541 28.6623 21.8397 28.6874 21.8606L28.8547 21.986L27.5084 23.7963ZM23.9881 22.1449C24.9771 22.8163 26.1154 23.2354 27.3036 23.3657L28.2735 22.0529C27.7133 21.6348 25.9322 20.2928 25.3051 19.7075C24.9205 19.7702 23.5826 19.9876 22.8844 20.0503C23.1351 20.8042 23.508 21.5119 23.9881 22.1449ZM34.6117 21.6432H34.5155C33.6161 21.5177 32.7339 21.2905 31.8858 20.9659L31.7144 20.899L31.7562 20.7234C31.9192 20.021 32.676 17.2324 32.7094 17.1112L32.7345 17.015L36.1126 15.5308L36.2004 15.7022C36.5474 16.3502 36.8317 18.3361 36.8443 18.4198V18.4699V18.5201C36.4262 19.7493 34.7538 21.5011 34.687 21.5763L34.6117 21.6432ZM32.2077 20.6314C32.9295 20.9029 33.6778 21.0977 34.4403 21.2126C34.7497 20.8781 36.0499 19.4357 36.4262 18.424C36.3168 17.6271 36.1449 16.84 35.9119 16.0701L33.0857 17.3244C32.9603 17.7843 32.4084 19.8245 32.2077 20.6314ZM20.6435 17.1613H20.5055H20.355L20.3257 17.015C20.2124 16.445 20.155 15.8653 20.1543 15.2841C20.1526 13.9214 20.4689 12.5772 21.0783 11.3583L21.4044 10.6977L21.4713 11.4336C21.5227 12.0962 21.6219 12.7543 21.7681 13.4027V13.4738L21.7388 13.5449C21.3033 14.6204 21.0832 15.771 21.0908 16.9314V17.0819L20.9487 17.1362C20.8484 17.1578 20.7459 17.1662 20.6435 17.1613ZM21.141 12.2237C20.7634 13.1911 20.5706 14.2206 20.5724 15.259C20.5738 15.7214 20.613 16.1828 20.6895 16.6387C20.7162 15.5366 20.9384 14.448 21.3458 13.4236C21.2523 13.0284 21.1839 12.6276 21.141 12.2237ZM25.9406 16.1621L23.8794 12.8551L26.459 9.51037L30.5228 10.8482L30.2552 15.0291L25.9406 16.1621ZM24.3895 12.8551L26.1329 15.6604L29.8539 14.6654L30.0838 11.1242L26.6095 9.97862L24.3895 12.8551ZM35.8994 12.5958L35.7698 12.4328C34.9584 11.5259 34.0419 10.7189 33.0397 10.0288L32.9268 9.94936L32.9561 9.81139C33.0355 9.46856 32.6258 8.36481 32.3499 7.75023L32.1952 7.40322L33.3491 7.57882C34.9435 8.48533 36.214 9.86841 36.9822 11.5339L37.0533 11.6844L35.8994 12.5958ZM33.3909 9.75704C34.3312 10.4124 35.1975 11.168 35.9747 12.0105L36.5433 11.5632C35.8117 10.057 34.647 8.80353 33.1986 7.96345L32.8975 7.92164C33.1615 8.50759 33.3254 9.13364 33.3825 9.77376L33.3909 9.75704ZM23.1311 8.50278L24.2641 7.78367C25.6211 6.92162 27.1888 6.44872 28.7961 6.41654L30.5479 6.37891L28.8756 6.82626C27.9633 7.07293 27.0834 7.42657 26.2542 7.87984L26.2082 7.90492H26.1496C25.5755 7.91937 25.0053 8.00503 24.4522 8.15995L23.1311 8.50278ZM26.8269 7.11474C26.4344 7.21679 26.0501 7.34816 25.6772 7.50774C25.8152 7.50774 25.949 7.50774 26.0953 7.48684C26.2416 7.46593 26.4381 7.31124 26.8186 7.13982L26.8269 7.11474Z" fill="#263238"/>
<path d="M26.3276 7.67808L25.918 7.76172L26.332 9.78941L26.7416 9.70577L26.3276 7.67808Z" fill="#263238"/>
<path d="M33.0808 9.68747L30.2227 10.8047L30.3749 11.1941L33.233 10.0769L33.0808 9.68747Z" fill="#263238"/>
<path d="M36.2241 15.8113L35.806 15.782C35.8772 14.6363 35.8506 13.4866 35.7266 12.3454L36.1446 12.291C36.2749 13.4598 36.3015 14.6378 36.2241 15.8113Z" fill="#263238"/>
<path d="M30.1892 14.6754L29.9258 15L32.7826 17.3184L33.046 16.9937L30.1892 14.6754Z" fill="#263238"/>
<path d="M25.831 15.8836L25.1699 19.4434L25.581 19.5197L26.242 15.9599L25.831 15.8836Z" fill="#263238"/>
<path d="M28.6207 22.2078L28.5078 21.7897C29.6534 21.4636 31.4846 20.87 31.8274 20.5898L32.095 20.9118C31.5766 21.3549 28.9217 22.1242 28.6207 22.2078Z" fill="#263238"/>
<path d="M24.0924 12.6511L21.5234 13.2324L21.6157 13.6402L24.1847 13.0589L24.0924 12.6511Z" fill="#263238"/>
<path d="M22.4463 19.9956C21.683 19.1085 21.093 18.086 20.707 16.9812L21.1251 16.8516C21.5026 17.9005 22.0694 18.8712 22.7975 19.7155L22.4463 19.9956Z" fill="#263238"/>
<path d="M31.9563 26.4702L33.5159 24.597C33.5159 24.597 27.5771 20.6966 25.1887 18.6246C22.8003 16.5526 20.6415 12.0306 20.0115 10.8714C19.3815 9.71216 18.0095 2.11296 10.6315 0.354563C4.37909 -1.13784 1.71629 2.56376 1.71629 2.56376C-2.29611 8.44376 1.61549 12.9238 4.41829 15.2198C7.22109 17.5158 10.8275 17.8602 13.7871 17.9638C17.2787 18.087 22.0191 19.2238 23.5143 19.9406C24.6147 20.467 31.9563 26.4702 31.9563 26.4702ZM18.0067 14.3322C18.0067 14.3322 14.0867 20.1142 5.51869 14.6766C2.20349 12.5766 1.18709 10.0174 0.957493 8.01536C0.797913 6.51186 1.16824 4.99982 2.00456 3.74024C2.84087 2.48065 4.0907 1.55256 5.53829 1.11616C7.72789 0.441364 10.6315 0.354564 14.6971 3.39536C14.6971 3.39536 20.9215 8.76016 18.0067 14.3322ZM17.1303 17.6922C16.8503 17.6082 15.8787 17.4822 17.3235 16.3314C19.0035 14.9874 19.1211 13.9066 19.3283 13.2514C19.3804 13.0611 19.4699 12.8831 19.5915 12.7278C19.6191 12.6945 19.6532 12.6674 19.6918 12.648C19.7303 12.6286 19.7725 12.6173 19.8156 12.6149C19.8587 12.6126 19.9018 12.6191 19.9423 12.6342C19.9827 12.6493 20.0196 12.6726 20.0507 12.7026C20.9943 13.6042 23.8279 18.1262 23.4527 18.6666C23.0383 19.2658 17.5615 17.8154 17.1303 17.6866V17.6922Z" fill="#009E3D"/>
<path d="M18.7799 11.0025L18.6875 11.1173C18.3851 10.8653 18.0669 10.603 17.7327 10.3305L18.5279 9.31689C18.5279 9.28609 18.5083 9.25809 18.5027 9.23009L17.5619 8.46009L18.0127 7.88609L17.9959 7.8525C17.8559 8.0317 17.6991 8.22489 17.5311 8.43769L16.5707 7.64809L17.3575 6.64009L17.2623 6.4805L16.4055 5.77769L16.6043 5.52009V5.5005C16.5399 5.5789 16.4699 5.66569 16.3971 5.76089L15.4255 4.96289L15.7867 4.49809L15.4171 4.96009L14.7927 4.44769L14.4455 4.16769L14.8991 3.5825L14.4371 4.16209L13.4403 3.33609L13.8575 2.79849L13.4347 3.32769L12.4631 2.5325L12.7739 2.1349H12.7571L12.4295 2.49609L11.4579 1.71209L11.5923 1.54129H11.5671L11.4355 1.70649L10.9231 1.28369L10.7775 1.2333L11.4019 1.73729L10.6039 2.7425L9.64355 1.9557L10.3267 1.07929H10.2959L9.60995 1.93609L8.64955 1.14929L8.92955 0.793693H8.88475C8.80075 0.902893 8.71115 1.01489 8.61875 1.12969L8.14835 0.746094H8.07275L8.60195 1.15769C8.35555 1.46569 8.08955 1.80449 7.80115 2.16849L6.83235 1.37609L7.32515 0.748892H7.26355L6.79595 1.33969L6.26395 0.908494H6.21355C6.38995 1.05409 6.57755 1.2053 6.77355 1.3649L5.96995 2.37849L5.20275 1.7541C5.40155 1.4993 5.59195 1.25569 5.77955 1.02049L5.69555 1.04289L5.16075 1.72049L4.76035 1.39289L4.72395 1.40969L5.13555 1.75129L4.33195 2.77049L3.52835 2.11529C3.51784 2.12117 3.50838 2.12874 3.50035 2.13769L4.30675 2.80129C4.04635 3.13449 3.77755 3.4733 3.50035 3.8233L2.53155 3.05609L2.51195 3.08129L3.46955 3.89609L2.67995 4.89849L2.66595 4.9153L1.75035 4.17049L1.73355 4.19849L2.64075 4.9489L1.83715 5.96809L1.20155 5.45009C1.20033 5.46219 1.20033 5.47439 1.20155 5.48649L1.82315 6.00169L1.01955 7.02089L0.938347 6.95649V7.00689L0.994348 7.05449L0.935547 7.13009C0.935547 7.16089 0.935547 7.1917 0.935547 7.2225L1.03915 7.09089L1.80355 7.71809C1.54875 8.03729 1.30515 8.3509 1.06715 8.6505C1.06715 8.6729 1.06715 8.6981 1.08115 8.7205L1.84555 7.75169L2.79195 8.53289L1.99395 9.54649L1.09795 8.81289C1.09795 8.83809 1.11195 8.86329 1.11755 8.88849L1.95755 9.5857L1.50955 10.1597C1.51584 10.177 1.52332 10.1938 1.53195 10.2101L1.99955 9.61929L2.94875 10.4005L2.15355 11.4113L2.24875 11.5597L3.12235 12.2765L2.95155 12.4949L2.98235 12.5313L3.15875 12.3073L4.11355 13.0913L3.84195 13.3993L3.87555 13.4329L4.13875 13.0997L5.09075 13.8809L4.83875 14.2057L4.87515 14.2337L5.12995 13.9117L5.93635 14.5753L6.08195 14.6957L5.91115 14.9141L5.95315 14.9393C6.00915 14.8693 6.06235 14.7965 6.12115 14.7265L7.07315 15.5077L7.04235 15.5497L7.08715 15.5721L7.11235 15.5385L7.25515 15.6561L7.48195 15.7681L7.14875 15.4881L7.94395 14.4829L8.88195 15.2669L8.22395 16.1069L8.27155 16.1265L8.92395 15.3005C9.24688 15.5656 9.56328 15.825 9.87315 16.0789L9.49515 16.5633L9.54835 16.5773L9.91515 16.1153L10.8419 16.8797L10.9455 16.8965L11.7435 15.8857L12.6899 16.6613L12.4099 17.0169H12.4799L12.7319 16.6977L13.0791 16.9777H13.1463C13.0203 16.8741 12.8915 16.7705 12.7627 16.6613L13.5607 15.6505L14.5099 16.4233L14.2299 16.7901L14.3223 16.7677C14.4007 16.6641 14.4819 16.5633 14.5631 16.4597L14.7703 16.6305L14.8207 16.6137L14.5911 16.4261C14.7647 16.2021 14.9439 15.9781 15.1231 15.7485L15.4031 15.4097L16.1367 16.0089L16.1731 15.9865L15.4311 15.3733C15.7037 15.0261 15.9706 14.6873 16.2319 14.3569C16.5931 14.6509 16.9319 14.9309 17.2511 15.1969L17.2819 15.1717L16.2599 14.3317C16.5343 13.9826 16.8013 13.6438 17.0607 13.3153L18.1135 14.1749L18.1303 14.1385L17.0887 13.2789L17.8867 12.2625L18.6063 12.8477C18.6063 12.8337 18.6063 12.8197 18.6063 12.8029L17.9035 12.2261L18.6959 11.1761L18.7855 11.2517V11.1901L18.7239 11.1397L18.7827 11.0669C18.7807 11.0455 18.7797 11.024 18.7799 11.0025ZM18.4999 9.29169L17.6991 10.3025L16.7443 9.5157L17.5367 8.50489L18.4999 9.29169ZM5.47155 7.25609L6.41515 8.03449L6.36195 8.09609L5.61435 9.0425L4.68195 8.2753L5.45475 7.2953L5.47155 7.25609ZM7.48755 8.84089L8.27995 7.83289L9.22635 8.60849L8.43395 9.61649L7.48755 8.84089ZM8.39755 9.66129C8.36395 9.70049 8.33315 9.74249 8.30235 9.78169L7.60515 10.6665L6.65595 9.89089L7.38115 8.9753L7.45115 8.8857L8.39755 9.66129ZM11.2535 8.4657L11.1219 8.37609L11.9115 7.37089L12.0935 7.51649L12.8635 8.14929L12.0683 9.15449L11.2535 8.4657ZM12.0375 9.1853L11.2451 10.1905L10.3715 9.49609L10.2987 9.43449L11.0911 8.42929L11.2171 8.53289C11.4943 8.74569 11.7687 8.9697 12.0375 9.1937V9.1853ZM11.0827 8.3257L10.1363 7.5473L10.9287 6.53929L11.8779 7.3205L11.0827 8.3257ZM11.0463 8.3705L10.2539 9.3841L9.30755 8.60849L10.0999 7.6005L11.0463 8.3705ZM9.26275 8.5637L8.32195 7.79649C8.60195 7.45209 8.85675 7.11329 9.11435 6.78849L10.0635 7.56689L9.26275 8.5637ZM8.27155 7.75169L7.32515 6.97609L8.11755 5.96809L9.06675 6.74649L8.27155 7.75169ZM8.23515 7.79649L7.44275 8.80169L6.49635 8.02609L7.28875 7.01809L8.23515 7.79649ZM9.27115 8.63649L10.2175 9.41489L9.42515 10.4201L8.47875 9.64449L9.27115 8.63649ZM10.2623 9.45129L10.3351 9.51009L11.2087 10.2269L10.4135 11.2349C10.1111 10.9829 9.80315 10.7309 9.49235 10.4761L9.46995 10.4565L10.2623 9.45129ZM11.2535 10.2633L12.1999 11.0417L11.4019 12.0637L10.4583 11.2881L11.2535 10.2633ZM11.2899 10.2185L12.0823 9.2105L13.0287 9.9889L12.2419 11.0109L11.2899 10.2185ZM13.0735 10.0225C13.3965 10.2894 13.7129 10.5489 14.0227 10.8009L13.2247 11.8089L12.2783 11.0305L13.0735 10.0225ZM13.1071 9.97769C13.3871 9.63049 13.6475 9.29449 13.8995 8.96969L14.8515 9.75089L14.0563 10.7589L13.1071 9.97769ZM13.0651 9.9441L12.1187 9.1657L12.9083 8.15769L13.8603 8.9389L13.0651 9.9441ZM12.9447 8.11289C13.2247 7.75729 13.4879 7.42129 13.7371 7.10489L14.6919 7.88609L13.8967 8.89129L12.9447 8.11289ZM12.9055 8.07929L12.1355 7.44649L11.9535 7.29809L12.7459 6.29009L12.9783 6.48329L13.7007 7.0741L12.9055 8.07929ZM11.9143 7.26449L10.9623 6.48609L11.7547 5.47809L12.7095 6.25929L11.9143 7.26449ZM10.9231 6.4525L9.97115 5.67129L10.7635 4.66329L11.7183 5.4473L10.9231 6.4525ZM10.8867 6.4973L10.0915 7.5025L9.14515 6.72689C9.42515 6.37689 9.68275 6.04089 9.93755 5.71609L10.8867 6.4973ZM9.10035 6.6905L8.15395 5.9121L8.94635 4.9041L9.89555 5.6853L9.10035 6.6905ZM8.10915 5.87849L7.15995 5.10009L7.95515 4.08929L8.90715 4.8705C8.64955 5.2093 8.38355 5.5481 8.10915 5.8953V5.87849ZM8.07555 5.9205L7.28035 6.92849L6.33115 6.15289C6.61115 5.80849 6.86875 5.4697 7.12915 5.1421L8.07555 5.9205ZM6.28915 6.11649L5.33995 5.34089C5.61995 4.99369 5.88035 4.6577 6.13795 4.3273L7.08435 5.1057L6.28915 6.11649ZM6.25555 6.15849L5.45755 7.16929L4.51115 6.41609L5.30915 5.4025L6.25555 6.15849ZM6.30035 6.19489L7.24395 6.97329L6.44875 7.98129L5.50235 7.2057L6.30035 6.19489ZM6.41235 8.12129L6.45995 8.0625L7.40635 8.83809L7.33355 8.9305L6.61115 9.84609L5.66475 9.0705L6.41235 8.12129ZM6.57755 9.89089L5.78515 10.8989L4.83595 10.1233L5.63115 9.1153L6.57755 9.89089ZM6.62235 9.9273L7.56875 10.7057C7.28875 11.0473 7.03395 11.3861 6.77635 11.7109L5.82715 10.9353L6.62235 9.9273ZM7.61355 10.7421L8.55995 11.5177C8.27995 11.8621 8.02235 12.1981 7.76755 12.5257L7.72835 12.4949L6.81835 11.7473L7.61355 10.7421ZM7.64995 10.6973C7.87675 10.4173 8.10915 10.1093 8.34715 9.80969L8.44235 9.68929L9.38875 10.4649L9.26835 10.6189L8.60195 11.4897L7.64995 10.6973ZM9.31315 10.6553L9.43355 10.5041L9.45315 10.5209L10.3799 11.2797L10.2343 11.4617C10.0159 11.7417 9.79755 12.0217 9.58475 12.2849L8.63835 11.5093C8.86235 11.2461 9.08635 10.9605 9.31315 10.6721V10.6553ZM10.2791 11.4953L10.4247 11.3133L11.3711 12.0889L11.2003 12.3045L10.5759 13.0969L9.62955 12.3213L10.2791 11.4953ZM11.2479 12.3353L11.4159 12.1197L12.3623 12.8953L12.1691 13.1417L11.5671 13.9061L10.6207 13.1277C10.8419 12.8925 11.0351 12.6265 11.2479 12.3605V12.3353ZM11.4495 12.0749L12.2419 11.0949L13.1883 11.8705L12.3931 12.8785L11.4495 12.0749ZM13.2359 11.8817L14.1823 12.6573L13.3871 13.6961L12.4407 12.9177L13.2359 11.8817ZM13.2695 11.8369L14.0647 10.8289L15.0139 11.6045L14.2159 12.6153L13.2695 11.8369ZM14.1095 10.7841L14.9019 9.77609L15.8539 10.5545L15.0419 11.5877L14.1095 10.7841ZM14.9495 9.73129L15.7419 8.7205L16.6967 9.50449L15.8819 10.5377L14.9495 9.73129ZM14.9103 9.69769L13.9359 8.93609L14.7283 7.92809L15.6831 8.7121L14.9103 9.69769ZM14.7619 7.8889L15.5543 6.87809L16.5147 7.66769L15.7167 8.67289L14.7619 7.8889ZM14.7283 7.85809L13.7735 7.0741L14.5631 6.06609L15.5235 6.85289L14.7283 7.85809ZM13.7371 7.04609L13.0175 6.4553L12.7823 6.2621L13.5719 5.25129L13.8519 5.48929L14.5239 6.04929C14.2869 6.34796 14.0246 6.68023 13.7371 7.04609ZM12.7459 6.23129L11.7911 5.4473C12.0711 5.0861 12.3511 4.74729 12.5807 4.43929L13.5411 5.22609L12.7459 6.23129ZM11.7547 5.41929L10.7999 4.6353L11.5895 3.61609L12.5499 4.4057C12.3063 4.7361 12.0403 5.05529 11.7547 5.41929ZM10.7635 4.60449L9.80875 3.8233C10.0887 3.4593 10.3687 3.1205 10.6011 2.8125L11.5587 3.59929L10.7635 4.60449ZM10.7271 4.64929L9.93195 5.6573L8.97995 4.87609L9.77515 3.86529L10.7271 4.64929ZM8.94075 4.8425L7.98875 4.0641L8.78395 3.05609L9.73595 3.84009L8.94075 4.8425ZM7.94955 4.03049L6.99755 3.25209L7.79275 2.23849L8.74755 3.0225L7.94955 4.03049ZM7.91595 4.0725L7.11795 5.08329L6.16875 4.30489L6.96675 3.29129L7.91595 4.0725ZM6.12675 4.27129L5.17755 3.49289C5.45755 3.14289 5.72075 2.80409 5.97555 2.47649L6.92195 3.25769L6.12675 4.27129ZM6.09595 4.30769C5.83648 4.63809 5.56955 4.97596 5.29515 5.32129L4.34875 4.5457L5.14955 3.52929C5.44915 3.77569 5.76555 4.03889 6.09595 4.30769ZM5.25595 5.3605L4.45795 6.3741L3.51155 5.59849L4.31235 4.5821L5.25595 5.3605ZM4.41595 6.41329L3.62075 7.4241L2.67155 6.64849L3.47515 5.6321L4.41595 6.41329ZM4.46075 6.4525L5.40715 7.23089L5.38195 7.26169L4.60915 8.24169L3.66275 7.46609L4.46075 6.4525ZM4.57555 8.28089L3.78035 9.29169L2.83395 8.51329C3.09155 8.18569 3.35755 7.8469 3.63195 7.5025L4.57555 8.28089ZM4.62035 8.3173L5.56675 9.09289C5.28675 9.44009 5.03195 9.7761 4.77155 10.1037L3.84195 9.3253L4.62035 8.3173ZM4.73795 10.1457C4.45795 10.4957 4.20035 10.8317 3.94555 11.1565L3.00195 10.3781L3.79995 9.3673L4.73795 10.1457ZM4.78275 10.1821L5.72915 10.9605L4.96195 11.9685L4.00995 11.1901L4.78275 10.1821ZM5.80195 10.9969L6.75115 11.7753L5.95875 12.7833L4.99835 12.0161L5.80195 10.9969ZM6.79315 11.8117L7.70315 12.5565L7.74235 12.5873L6.94995 13.5953L6.85755 13.5197L6.00075 12.8169L6.79315 11.8117ZM7.78435 12.6237L8.72235 13.4161C8.44235 13.7605 8.18475 14.0993 7.92995 14.4241L6.98075 13.6429L7.78435 12.6237ZM7.82075 12.5789L8.61595 11.5709C8.93515 11.8341 9.24875 12.0945 9.56235 12.3493L8.76715 13.3545L7.82075 12.5789ZM9.60715 12.3857L10.5535 13.1613L9.75835 14.1693L8.81195 13.3909L9.60715 12.3857ZM10.5983 13.1977L11.5335 13.9761C11.2629 14.3214 10.9978 14.6584 10.7383 14.9869L9.79195 14.2085L10.5983 13.1977ZM11.5895 14.0097C11.9115 14.2757 12.2279 14.5361 12.5359 14.7853L11.7407 15.7989L10.7943 15.0205C11.0445 14.6976 11.3058 14.3606 11.5783 14.0097H11.5895ZM11.6231 13.9677L12.2251 13.2033L12.4183 12.9597L13.3619 13.7353L13.1435 14.0153C12.9475 14.2617 12.7543 14.5053 12.5667 14.7489L11.6231 13.9677ZM13.1911 14.0489L13.4095 13.7689L14.3447 14.5361L14.1011 14.8441L13.5411 15.5469L12.5975 14.7713L13.1911 14.0489ZM13.4431 13.7297L14.2383 12.7189L15.1875 13.4945L14.3867 14.5081L13.4431 13.7297ZM14.2831 12.6769L15.0783 11.6661L16.0275 12.4417L15.2295 13.4553L14.2831 12.6769ZM15.1231 11.6241L15.8819 10.6161L16.8339 11.3945L16.0331 12.4053L15.1231 11.6241ZM15.9631 10.5713L16.7219 9.55769C17.0505 9.82836 17.3697 10.0897 17.6795 10.3417L16.8787 11.3525L15.9631 10.5713ZM17.5535 8.47969L16.7219 9.49609L15.7671 8.70929L16.5595 7.69849L17.5535 8.47969ZM17.3967 6.61769L16.5987 7.62289L15.6019 6.83329C15.9071 6.44129 16.1619 6.1025 16.3887 5.8225L17.3967 6.61769ZM16.4055 5.8057L15.6075 6.80809L14.6471 6.02129C14.9523 5.62929 15.2071 5.2905 15.4339 5.0105L16.4055 5.8057ZM14.7899 4.48129L15.4143 4.99089L14.6163 5.99609L13.9443 5.43609L13.6643 5.19809L14.4539 4.1873L14.7899 4.48129ZM14.3755 4.17609L13.5775 5.17849L12.6171 4.39169L13.4067 3.38089L14.3755 4.17609ZM13.3843 3.36129L12.5863 4.36649L11.6259 3.57689L12.4155 2.56609L13.3843 3.36129ZM11.4243 1.7541L12.3931 2.54929L11.5951 3.55169L10.6347 2.77609L11.4243 1.7541ZM10.5619 2.77609L9.76395 3.7841L8.80635 3.00289L9.60155 1.98929L10.5619 2.77609ZM8.60195 1.17449L9.55955 1.9641L8.75875 2.97209L7.80395 2.19089C8.10915 1.83529 8.37515 1.49369 8.62155 1.18289L8.60195 1.17449ZM6.78475 1.4125L7.76195 2.21609L6.96115 3.22689L6.00915 2.44849C6.28355 2.08449 6.55235 1.74569 6.80435 1.42089L6.78475 1.4125ZM5.15235 1.80449L5.91675 2.43449L5.11315 3.45089C4.83315 3.23249 4.59235 3.02249 4.34875 2.82649L5.15235 1.80449ZM4.31235 2.85729L5.07395 3.48449L4.27315 4.50089L3.53955 3.89609L4.31235 2.85729ZM2.72195 4.92089L3.50875 3.91849L4.27035 4.5457L3.47515 5.57609L2.72195 4.9405V4.92089ZM2.67995 4.97129L3.44155 5.59849C3.16715 5.94382 2.90021 6.28262 2.64075 6.61489L1.88195 5.9905L2.67995 4.97129ZM1.04195 7.04329L1.84555 6.0241L2.60435 6.65129L1.80635 7.66769L1.04195 7.04329ZM1.84835 7.7041L2.66035 6.69609L3.60675 7.47449C3.32675 7.81889 3.06635 8.15769 2.80875 8.48809L1.84835 7.7041ZM2.01075 9.56609L2.80875 8.5525L3.75795 9.3337L2.97395 10.3361L2.01075 9.56609ZM2.17035 11.4281L2.96835 10.4201C3.27821 10.6721 3.59461 10.9325 3.91755 11.2013L3.12515 12.2093L2.17035 11.4281ZM3.16435 12.2401L3.95955 11.2349L4.91995 12.0161L4.12195 13.0241L3.16435 12.2401ZM4.15555 13.0549L4.95075 12.0469L5.89995 12.8281L5.10755 13.8361L4.15555 13.0549ZM5.96435 14.5361L5.15795 13.8725L5.95315 12.8561L6.80995 13.5589L6.90235 13.6345L6.10995 14.6425L5.96435 14.5361ZM7.10115 15.4685L6.14915 14.6845L6.94435 13.6793L7.89355 14.4605L7.10115 15.4685ZM7.96915 14.4493C8.22675 14.1245 8.49181 13.7885 8.76435 13.4413L9.72195 14.2141L8.92675 15.2221L7.96915 14.4493ZM8.96035 15.2613C9.21795 14.9393 9.48395 14.6005 9.75555 14.2561L10.7047 15.0317L9.90955 16.0425L8.96035 15.2613ZM10.9007 16.8573L9.95155 16.0761C10.2091 15.7513 10.4742 15.4153 10.7467 15.0681L11.6959 15.8437C11.4215 16.1881 11.1555 16.5241 10.9007 16.8517V16.8573ZM12.7179 16.6165L11.7715 15.8381L12.5695 14.8301L13.5159 15.6029C13.2453 15.9464 12.9793 16.2824 12.7179 16.6109V16.6165ZM15.0671 15.7065L14.5379 16.3813C14.2355 16.1321 13.9219 15.8717 13.5915 15.6029L14.1515 14.8973L14.3923 14.5893L15.3415 15.3649L15.0671 15.7065ZM15.3667 15.3285C15.0643 15.0793 14.7507 14.8189 14.4203 14.5501L15.2183 13.5365L16.1619 14.3065L15.3667 15.3285ZM16.2067 14.2757C15.9043 14.0265 15.5907 13.7661 15.2603 13.4973L16.0583 12.4837L17.0019 13.2537C16.7387 13.5841 16.4699 13.9229 16.1955 14.2701L16.2067 14.2757ZM17.0467 13.2229L16.0975 12.4445L16.8955 11.4309L17.8475 12.2093L17.0467 13.2229ZM17.8867 12.1729C17.5843 11.9237 17.2679 11.6605 16.9375 11.3917L17.7327 10.3753L18.6903 11.1593L17.8867 12.1729Z" fill="#263238"/>
<path d="M28.0664 23.3365L29.4132 21.8105L33.5152 24.5965L31.9556 26.4697L28.0664 23.3365Z" fill="#455A64"/>
<path d="M17.641 31.6375C22.1242 31.6375 25.7586 28.0031 25.7586 23.5199C25.7586 19.0367 22.1242 15.4023 17.641 15.4023C13.1578 15.4023 9.52344 19.0367 9.52344 23.5199C9.52344 28.0031 13.1578 31.6375 17.641 31.6375Z" fill="#EEAA38"/>
<path opacity="0.15" d="M24.7389 19.5817C24.6763 19.4689 24.6053 19.3604 24.5343 19.2518C23.2984 19.1302 22.0542 19.3788 20.9599 19.9659C19.3815 20.7718 17.9659 22.1915 17.5358 23.3816C16.3655 23.4874 15.1888 23.2662 14.1368 22.7427C14.6755 20.9304 16.7007 18.7716 19.1226 17.4521C19.9151 17.0199 20.7561 16.6835 21.628 16.4499C21.5028 16.3789 21.3691 16.3121 21.2397 16.2495C20.4579 16.4831 19.7023 16.7965 18.9848 17.1848C16.5169 18.5294 14.4458 20.7384 13.8654 22.6133C13.5948 22.478 13.3314 22.3288 13.0762 22.1665C12.5241 21.8128 12.0262 21.381 11.598 20.8845C12.1283 19.3353 13.8111 17.2015 16.2414 15.5312C15.9866 15.5772 15.7403 15.6315 15.4939 15.6983C13.406 17.2725 11.9445 19.1516 11.3808 20.6047C11.093 20.2219 10.861 19.8001 10.6918 19.352C10.6292 19.4606 10.5582 19.565 10.4998 19.6736C11.0123 20.8107 11.8527 21.7689 12.9133 22.4254C14.122 23.2166 15.5207 23.6694 16.9638 23.7365C17.1708 23.7377 17.3776 23.7209 17.5818 23.6864C18.26 24.6423 18.6564 25.7693 18.7259 26.9393C16.8886 27.3819 14.0032 26.7096 11.6522 25.269C10.882 24.7993 10.1712 24.2385 9.53516 23.5987C9.53516 23.7449 9.53516 23.891 9.55604 24.0372C10.1484 24.5975 10.7978 25.0943 11.4936 25.5196C13.2997 26.6495 15.3695 27.2885 17.4982 27.3736C17.9198 27.3735 18.34 27.3259 18.751 27.2316C18.7677 27.5362 18.7677 27.8415 18.751 28.1461C18.7198 28.8009 18.5946 29.4477 18.3793 30.0669C16.7717 30.3843 14.0783 29.9917 11.4101 28.7181C11.5687 28.9061 11.7358 29.0898 11.9111 29.2652C13.5828 30.0064 15.3824 30.4162 17.2101 30.4719C17.5582 30.4729 17.9059 30.4463 18.2499 30.3926C18.0607 30.8367 17.809 31.2516 17.5024 31.6244H17.636H17.8866C18.6086 30.6143 19.0141 29.4123 19.0516 28.1711C19.1435 26.4006 18.634 24.4631 17.7989 23.4985C18.2895 22.4326 19.0675 21.5245 20.0454 20.8762C21.3483 22.2458 22.2043 25.0811 22.1333 27.8413C22.1117 28.74 21.9828 29.633 21.7491 30.5012C21.8744 30.426 21.9997 30.355 22.1166 30.2757C22.3081 29.4791 22.4144 28.6645 22.4339 27.8454C22.5049 25.0393 21.628 22.1414 20.296 20.7008C20.5468 20.5321 20.8075 20.3787 21.0768 20.2415C21.6592 19.94 22.2823 19.7247 22.9267 19.6026C23.9998 20.8344 25.0145 23.3607 25.24 26.2837C25.3277 26.0415 25.4029 25.7993 25.4655 25.553C25.1481 22.9598 24.2504 20.7467 23.2774 19.5358C23.7643 19.4805 24.2565 19.496 24.7389 19.5817Z" fill="black"/>
</svg>
