<svg width="62" height="56" viewBox="0 0 62 56" fill="none" xmlns="http://www.w3.org/2000/svg">
<path d="M31 0L57.8468 14V42L31 56L4.15321 42V14L31 0Z" fill="#63A3E9"/>
<path d="M40.9797 37.8721C45.7363 37.8721 49.5923 34.0161 49.5923 29.2595C49.5923 24.5029 45.7363 20.647 40.9797 20.647C36.2232 20.647 32.3672 24.5029 32.3672 29.2595C32.3672 34.0161 36.2232 37.8721 40.9797 37.8721Z" fill="white"/>
<mask id="mask0_1385_211" style="mask-type:luminance" maskUnits="userSpaceOnUse" x="32" y="20" width="18" height="19">
<path d="M40.9783 38.0822C39.2336 38.0822 37.528 37.5648 36.0773 36.5955C34.6266 35.6261 33.4959 34.2484 32.8282 32.6364C32.1606 31.0245 31.9859 29.2508 32.3262 27.5396C32.6666 25.8283 33.5068 24.2565 34.7405 23.0228C35.9743 21.789 37.5461 20.9489 39.2573 20.6085C40.9686 20.2681 42.7423 20.4428 44.3542 21.1105C45.9662 21.7782 47.3439 22.9088 48.3132 24.3595C49.2826 25.8103 49.7999 27.5158 49.7999 29.2606C49.7966 31.5992 48.8661 33.8411 47.2125 35.4947C45.5588 37.1484 43.317 38.0789 40.9783 38.0822ZM40.9783 20.857C39.3163 20.857 37.6916 21.3499 36.3096 22.2733C34.9277 23.1967 33.8505 24.5091 33.2145 26.0447C32.5785 27.5802 32.412 29.2699 32.7363 30.9C33.0606 32.5301 33.8609 34.0275 35.0362 35.2027C36.2114 36.378 37.7088 37.1784 39.3389 37.5026C40.969 37.8269 42.6587 37.6604 44.1942 37.0244C45.7298 36.3884 47.0422 35.3113 47.9656 33.9293C48.889 32.5474 49.3819 30.9226 49.3819 29.2606C49.3796 27.0325 48.4936 24.8963 46.9181 23.3208C45.3426 21.7453 43.2064 20.8593 40.9783 20.857Z" fill="white"/>
</mask>
<g mask="url(#mask0_1385_211)">
</g>
<path d="M42.3007 24.9959L42.054 28.8465L38.0362 29.9209L36.1339 26.8564L38.5337 23.7542L42.3007 24.9959ZM48.0159 29.783L44.9095 31.1459C44.9095 31.1459 44.1235 34.0474 43.9605 34.7498C44.7882 35.0679 45.6494 35.2909 46.5275 35.4146C46.5275 35.4146 48.225 33.6335 48.6389 32.4336C48.6389 32.4503 48.3504 30.4185 48.0159 29.783ZM40.5656 35.9915C40.5656 35.9915 37.9944 34.0892 37.3756 33.483C37.3756 33.483 35.1807 33.8551 34.5996 33.8551C34.8685 34.7386 35.2933 35.5669 35.8538 36.3009C36.9115 37.027 38.1381 37.469 39.4159 37.5844L40.5656 35.9915ZM38.1198 21.7056C38.9644 21.2433 39.8613 20.884 40.7914 20.6353C39.2225 20.6655 37.6922 21.1269 36.3681 21.9689C36.9397 21.8156 37.528 21.7328 38.1198 21.7223V21.7056ZM47.9323 26.3045L48.7936 25.623C48.0383 24.0003 46.7981 22.652 45.244 21.7641L44.5374 21.6637C44.5374 21.6637 45.2858 23.3361 45.1604 23.8587C46.1801 24.5649 47.1109 25.3918 47.9323 26.3212V26.3045ZM32.53 30.9327C32.655 30.9484 32.7819 30.937 32.9021 30.8993C32.8915 29.7072 33.1175 28.5249 33.5669 27.4208C33.4137 26.7594 33.3131 26.087 33.2659 25.4098C32.6704 26.6 32.3612 27.9128 32.3628 29.2436C32.362 29.8164 32.4181 30.3877 32.53 30.9494V30.9327Z" fill="#263238"/>
<path d="M39.5084 37.7973H39.3955C38.0763 37.6818 36.8099 37.225 35.7206 36.472L35.6829 36.4385C35.1062 35.6873 34.6713 34.8372 34.3994 33.93L34.3242 33.6625H34.6001C35.1562 33.6625 37.3177 33.2987 37.3427 33.2945L37.4473 33.2736L37.5225 33.3531C38.1246 33.9551 40.6623 35.8407 40.6874 35.8616L40.8547 35.987L39.5084 37.7973ZM35.9881 36.1459C36.9771 36.8172 38.1154 37.2364 39.3036 37.3667L40.2735 36.0539C39.7133 35.6358 37.9322 34.2938 37.3051 33.7084C36.9205 33.7712 35.5826 33.9886 34.8844 34.0513C35.1351 34.8052 35.508 35.5128 35.9881 36.1459ZM46.6117 35.6442H46.5155C45.6161 35.5187 44.7339 35.2915 43.8858 34.9669L43.7144 34.9L43.7562 34.7244C43.9192 34.022 44.676 31.2334 44.7094 31.1121L44.7345 31.016L48.1126 29.5318L48.2004 29.7032C48.5474 30.3512 48.8317 32.3371 48.8443 32.4207V32.4709V32.5211C48.4262 33.7503 46.7538 35.502 46.687 35.5773L46.6117 35.6442ZM44.2077 34.6324C44.9295 34.9038 45.6778 35.0986 46.4403 35.2136C46.7497 34.8791 48.0499 33.4367 48.4262 32.4249C48.3168 31.628 48.1449 30.841 47.9119 30.0711L45.0857 31.3254C44.9603 31.7853 44.4084 33.8255 44.2077 34.6324ZM32.6435 31.1623H32.5055H32.355L32.3257 31.016C32.2124 30.446 32.155 29.8663 32.1543 29.2851C32.1526 27.9224 32.4689 26.5781 33.0783 25.3593L33.4044 24.6987L33.4713 25.4345C33.5227 26.0972 33.6219 26.7553 33.7681 27.4037V27.4748L33.7388 27.5459C33.3033 28.6214 33.0832 29.772 33.0908 30.9324V31.0829L32.9487 31.1372C32.8484 31.1588 32.7459 31.1672 32.6435 31.1623ZM33.141 26.2247C32.7634 27.1921 32.5706 28.2216 32.5724 29.26C32.5738 29.7223 32.613 30.1838 32.6895 30.6397C32.7162 29.5376 32.9384 28.449 33.3458 27.4246C33.2523 27.0294 33.1839 26.6286 33.141 26.2247ZM37.9406 30.1631L35.8794 26.856L38.459 23.5113L42.5228 24.8492L42.2552 29.0301L37.9406 30.1631ZM36.3895 26.856L38.1329 29.6614L41.8539 28.6663L42.0838 25.1252L38.6095 23.9796L36.3895 26.856ZM47.8994 26.5968L47.7698 26.4338C46.9584 25.5269 46.0419 24.7199 45.0397 24.0298L44.9268 23.9503L44.9561 23.8124C45.0355 23.4695 44.6258 22.3658 44.3499 21.7512L44.1952 21.4042L45.3491 21.5798C46.9435 22.4863 48.214 23.8694 48.9822 25.5349L49.0533 25.6854L47.8994 26.5968ZM45.3909 23.758C46.3312 24.4134 47.1975 25.169 47.9747 26.0115L48.5433 25.5641C47.8117 24.058 46.647 22.8045 45.1986 21.9644L44.8975 21.9226C45.1615 22.5086 45.3254 23.1346 45.3825 23.7747L45.3909 23.758ZM35.1311 22.5038L36.2641 21.7846C37.6211 20.9226 39.1888 20.4497 40.7961 20.4175L42.5479 20.3799L40.8756 20.8272C39.9633 21.0739 39.0834 21.4275 38.2542 21.8808L38.2082 21.9059H38.1496C37.5755 21.9203 37.0053 22.006 36.4522 22.1609L35.1311 22.5038ZM38.8269 21.1157C38.4344 21.2178 38.0501 21.3491 37.6772 21.5087C37.8152 21.5087 37.949 21.5087 38.0953 21.4878C38.2416 21.4669 38.4381 21.3122 38.8186 21.1408L38.8269 21.1157Z" fill="#263238"/>
<path d="M38.3271 21.6781L37.9175 21.7617L38.3315 23.7894L38.7411 23.7058L38.3271 21.6781Z" fill="#263238"/>
<path d="M45.0803 23.6894L42.2222 24.8066L42.3744 25.196L45.2325 24.0788L45.0803 23.6894Z" fill="#263238"/>
<path d="M48.2251 29.8123L47.807 29.783C47.8781 28.6373 47.8516 27.4876 47.7275 26.3463L48.1456 26.292C48.2758 27.4608 48.3024 28.6388 48.2251 29.8123Z" fill="#263238"/>
<path d="M42.1883 28.6768L41.9248 29.0015L44.7816 31.3198L45.0451 30.9952L42.1883 28.6768Z" fill="#263238"/>
<path d="M37.8305 29.8846L37.1694 33.4443L37.5805 33.5207L38.2415 29.9609L37.8305 29.8846Z" fill="#263238"/>
<path d="M40.6207 36.2088L40.5078 35.7907C41.6534 35.4646 43.4846 34.8709 43.8274 34.5908L44.095 34.9127C43.5766 35.3559 40.9217 36.1252 40.6207 36.2088Z" fill="#263238"/>
<path d="M36.0929 26.6526L33.5239 27.2339L33.6162 27.6417L36.1852 27.0604L36.0929 26.6526Z" fill="#263238"/>
<path d="M34.4453 33.997C33.682 33.11 33.092 32.0874 32.7061 30.9826L33.1241 30.853C33.5016 31.902 34.0684 32.8727 34.7965 33.7169L34.4453 33.997Z" fill="#263238"/>
<path d="M43.9563 40.4702L45.5159 38.597C45.5159 38.597 39.5771 34.6966 37.1887 32.6246C34.8003 30.5526 32.6415 26.0306 32.0115 24.8714C31.3815 23.7122 30.0095 16.113 22.6315 14.3546C16.3791 12.8622 13.7163 16.5638 13.7163 16.5638C9.70389 22.4438 13.6155 26.9238 16.4183 29.2198C19.2211 31.5158 22.8275 31.8602 25.7871 31.9638C29.2787 32.087 34.0191 33.2238 35.5143 33.9406C36.6147 34.467 43.9563 40.4702 43.9563 40.4702ZM30.0067 28.3322C30.0067 28.3322 26.0867 34.1142 17.5187 28.6766C14.2035 26.5766 13.1871 24.0174 12.9575 22.0154C12.7979 20.5119 13.1682 18.9998 14.0046 17.7402C14.8409 16.4807 16.0907 15.5526 17.5383 15.1162C19.7279 14.4414 22.6315 14.3546 26.6971 17.3954C26.6971 17.3954 32.9215 22.7602 30.0067 28.3322ZM29.1303 31.6922C28.8503 31.6082 27.8787 31.4822 29.3235 30.3314C31.0035 28.9874 31.1211 27.9066 31.3283 27.2514C31.3804 27.0611 31.4699 26.8831 31.5915 26.7278C31.6191 26.6945 31.6532 26.6674 31.6918 26.648C31.7303 26.6286 31.7725 26.6173 31.8156 26.6149C31.8587 26.6126 31.9018 26.6191 31.9423 26.6342C31.9827 26.6493 32.0196 26.6726 32.0507 26.7026C32.9943 27.6042 35.8279 32.1262 35.4527 32.6666C35.0383 33.2658 29.5615 31.8154 29.1303 31.6866V31.6922Z" fill="#FF725E"/>
<path d="M30.7799 25.003L30.6875 25.1178C30.3851 24.8658 30.0669 24.6035 29.7327 24.331L30.5279 23.3174C30.5279 23.2866 30.5083 23.2586 30.5027 23.2306L29.5619 22.4606L30.0127 21.8866L29.9959 21.853C29.8559 22.0322 29.6991 22.2254 29.5311 22.4382L28.5707 21.6486L29.3575 20.6406L29.2623 20.481L28.4055 19.7782L28.6043 19.5206V19.501C28.5399 19.5794 28.4699 19.6662 28.3971 19.7614L27.4255 18.9634L27.7867 18.4986L27.4171 18.9606L26.7927 18.4482L26.4455 18.1682L26.8991 17.583L26.4371 18.1626L25.4403 17.3366L25.8575 16.799L25.4347 17.3282L24.4631 16.533L24.7739 16.1354H24.7571L24.4295 16.4966L23.4579 15.7126L23.5923 15.5418H23.5671L23.4355 15.707L22.9231 15.2842L22.7775 15.2338L23.4019 15.7378L22.6039 16.743L21.6435 15.9562L22.3267 15.0798H22.2959L21.6099 15.9366L20.6495 15.1498L20.9295 14.7942H20.8847C20.8007 14.9034 20.7111 15.0154 20.6187 15.1302L20.1483 14.7466H20.0727L20.6019 15.1582C20.3555 15.4662 20.0895 15.805 19.8011 16.169L18.8323 15.3766L19.3251 14.7494H19.2635L18.7959 15.3402L18.2639 14.909H18.2135C18.3899 15.0546 18.5775 15.2058 18.7735 15.3654L17.9699 16.379L17.2027 15.7546C17.4015 15.4998 17.5919 15.2562 17.7795 15.021L17.6955 15.0434L17.1607 15.721L16.7603 15.3934L16.7239 15.4102L17.1355 15.7518L16.3319 16.771L15.5283 16.1158C15.5178 16.1217 15.5084 16.1292 15.5003 16.1382L16.3067 16.8018C16.0463 17.135 15.7775 17.4738 15.5003 17.8238L14.5315 17.0566L14.5119 17.0818L15.4695 17.8966L14.6799 18.899L14.6659 18.9158L13.7503 18.171L13.7335 18.199L14.6407 18.9494L13.8371 19.9686L13.2015 19.4506C13.2003 19.4627 13.2003 19.4749 13.2015 19.487L13.8231 20.0022L13.0195 21.0214L12.9383 20.957V21.0074L12.9943 21.055L12.9355 21.1306C12.9355 21.1614 12.9355 21.1922 12.9355 21.223L13.0391 21.0914L13.8035 21.7186C13.5487 22.0378 13.3051 22.3514 13.0671 22.651C13.0671 22.6734 13.0671 22.6986 13.0811 22.721L13.8455 21.7522L14.7919 22.5334L13.9939 23.547L13.0979 22.8134C13.0979 22.8386 13.1119 22.8638 13.1175 22.889L13.9575 23.5862L13.5095 24.1602C13.5158 24.1775 13.5233 24.1943 13.5319 24.2106L13.9995 23.6198L14.9487 24.401L14.1535 25.4118L14.2487 25.5602L15.1223 26.277L14.9515 26.4954L14.9823 26.5318L15.1587 26.3078L16.1135 27.0918L15.8419 27.3998L15.8755 27.4334L16.1387 27.1002L17.0907 27.8814L16.8387 28.2062L16.8751 28.2342L17.1299 27.9122L17.9363 28.5758L18.0819 28.6962L17.9111 28.9146L17.9531 28.9398C18.0091 28.8698 18.0623 28.797 18.1211 28.727L19.0731 29.5082L19.0423 29.5502L19.0871 29.5726L19.1123 29.539L19.2551 29.6566L19.4819 29.7686L19.1487 29.4886L19.9439 28.4834L20.8819 29.2674L20.2239 30.1074L20.2715 30.127L20.9239 29.301C21.2469 29.5661 21.5633 29.8255 21.8731 30.0794L21.4951 30.5638L21.5483 30.5778L21.9151 30.1158L22.8419 30.8802L22.9455 30.897L23.7435 29.8862L24.6899 30.6618L24.4099 31.0174H24.4799L24.7319 30.6982L25.0791 30.9782H25.1463C25.0203 30.8746 24.8915 30.771 24.7627 30.6618L25.5607 29.651L26.5099 30.4238L26.2299 30.7906L26.3223 30.7682C26.4007 30.6646 26.4819 30.5638 26.5631 30.4602L26.7703 30.631L26.8207 30.6142L26.5911 30.4266C26.7647 30.2026 26.9439 29.9786 27.1231 29.749L27.4031 29.4102L28.1367 30.0094L28.1731 29.987L27.4311 29.3738C27.7037 29.0266 27.9706 28.6878 28.2319 28.3574C28.5931 28.6514 28.9319 28.9314 29.2511 29.1974L29.2819 29.1722L28.2599 28.3322C28.5343 27.9831 28.8013 27.6443 29.0607 27.3158L30.1135 28.1754L30.1303 28.139L29.0887 27.2794L29.8867 26.263L30.6063 26.8482C30.6063 26.8342 30.6063 26.8202 30.6063 26.8034L29.9035 26.2266L30.6959 25.1766L30.7855 25.2522V25.1906L30.7239 25.1402L30.7827 25.0674C30.7807 25.046 30.7797 25.0245 30.7799 25.003ZM30.4999 23.2922L29.6991 24.303L28.7443 23.5162L29.5367 22.5054L30.4999 23.2922ZM17.4715 21.2566L18.4151 22.035L18.3619 22.0966L17.6143 23.043L16.6819 22.2758L17.4547 21.2958L17.4715 21.2566ZM19.4875 22.8414L20.2799 21.8334L21.2263 22.609L20.4339 23.617L19.4875 22.8414ZM20.3975 23.6618C20.3639 23.701 20.3331 23.743 20.3023 23.7822L19.6051 24.667L18.6559 23.8914L19.3811 22.9758L19.4511 22.8862L20.3975 23.6618ZM23.2535 22.4662L23.1219 22.3766L23.9115 21.3714L24.0935 21.517L24.8635 22.1498L24.0683 23.155L23.2535 22.4662ZM24.0375 23.1858L23.2451 24.191L22.3715 23.4966L22.2987 23.435L23.0911 22.4298L23.2171 22.5334C23.4943 22.7462 23.7687 22.9702 24.0375 23.1942V23.1858ZM23.0827 22.3262L22.1363 21.5478L22.9287 20.5398L23.8779 21.321L23.0827 22.3262ZM23.0463 22.371L22.2539 23.3846L21.3075 22.609L22.0999 21.601L23.0463 22.371ZM21.2627 22.5642L20.3219 21.797C20.6019 21.4526 20.8567 21.1138 21.1143 20.789L22.0635 21.5674L21.2627 22.5642ZM20.2715 21.7522L19.3251 20.9766L20.1175 19.9686L21.0667 20.747L20.2715 21.7522ZM20.2351 21.797L19.4427 22.8022L18.4963 22.0266L19.2887 21.0186L20.2351 21.797ZM21.2711 22.637L22.2175 23.4154L21.4251 24.4206L20.4787 23.645L21.2711 22.637ZM22.2623 23.4518L22.3351 23.5106L23.2087 24.2274L22.4135 25.2354C22.1111 24.9834 21.8031 24.7314 21.4923 24.4766L21.4699 24.457L22.2623 23.4518ZM23.2535 24.2638L24.1999 25.0422L23.4019 26.0642L22.4583 25.2886L23.2535 24.2638ZM23.2899 24.219L24.0823 23.211L25.0287 23.9894L24.2419 25.0114L23.2899 24.219ZM25.0735 24.023C25.3965 24.2899 25.7129 24.5494 26.0227 24.8014L25.2247 25.8094L24.2783 25.031L25.0735 24.023ZM25.1071 23.9782C25.3871 23.631 25.6475 23.295 25.8995 22.9702L26.8515 23.7514L26.0563 24.7594L25.1071 23.9782ZM25.0651 23.9446L24.1187 23.1662L24.9083 22.1582L25.8603 22.9394L25.0651 23.9446ZM24.9447 22.1134C25.2247 21.7578 25.4879 21.4218 25.7371 21.1054L26.6919 21.8866L25.8967 22.8918L24.9447 22.1134ZM24.9055 22.0798L24.1355 21.447L23.9535 21.2986L24.7459 20.2906L24.9783 20.4838L25.7007 21.0746L24.9055 22.0798ZM23.9143 21.265L22.9623 20.4866L23.7547 19.4786L24.7095 20.2598L23.9143 21.265ZM22.9231 20.453L21.9711 19.6718L22.7635 18.6638L23.7183 19.4478L22.9231 20.453ZM22.8867 20.4978L22.0915 21.503L21.1451 20.7274C21.4251 20.3774 21.6827 20.0414 21.9375 19.7166L22.8867 20.4978ZM21.1003 20.691L20.1539 19.9126L20.9463 18.9046L21.8955 19.6858L21.1003 20.691ZM20.1091 19.879L19.1599 19.1006L19.9551 18.0898L20.9071 18.871C20.6495 19.2098 20.3835 19.5486 20.1091 19.8958V19.879ZM20.0755 19.921L19.2803 20.929L18.3311 20.1534C18.6111 19.809 18.8687 19.4702 19.1291 19.1426L20.0755 19.921ZM18.2891 20.117L17.3399 19.3414C17.6199 18.9942 17.8803 18.6582 18.1379 18.3278L19.0843 19.1062L18.2891 20.117ZM18.2555 20.159L17.4575 21.1698L16.5111 20.4166L17.3091 19.403L18.2555 20.159ZM18.3003 20.1954L19.2439 20.9738L18.4487 21.9818L17.5023 21.2062L18.3003 20.1954ZM18.4123 22.1218L18.4599 22.063L19.4063 22.8386L19.3335 22.931L18.6111 23.8466L17.6647 23.071L18.4123 22.1218ZM18.5775 23.8914L17.7851 24.8994L16.8359 24.1238L17.6311 23.1158L18.5775 23.8914ZM18.6223 23.9278L19.5687 24.7062C19.2887 25.0478 19.0339 25.3866 18.7763 25.7114L17.8271 24.9358L18.6223 23.9278ZM19.6135 24.7426L20.5599 25.5182C20.2799 25.8626 20.0223 26.1986 19.7675 26.5262L19.7283 26.4954L18.8183 25.7478L19.6135 24.7426ZM19.6499 24.6978C19.8767 24.4178 20.1091 24.1098 20.3471 23.8102L20.4423 23.6898L21.3887 24.4654L21.2683 24.6194L20.6019 25.4902L19.6499 24.6978ZM21.3131 24.6558L21.4335 24.5046L21.4531 24.5214L22.3799 25.2802L22.2343 25.4622C22.0159 25.7422 21.7975 26.0222 21.5847 26.2854L20.6383 25.5098C20.8623 25.2466 21.0863 24.961 21.3131 24.6726V24.6558ZM22.2791 25.4958L22.4247 25.3138L23.3711 26.0894L23.2003 26.305L22.5759 27.0974L21.6295 26.3218L22.2791 25.4958ZM23.2479 26.3358L23.4159 26.1202L24.3623 26.8958L24.1691 27.1422L23.5671 27.9066L22.6207 27.1282C22.8419 26.893 23.0351 26.627 23.2479 26.361V26.3358ZM23.4495 26.0754L24.2419 25.0954L25.1883 25.871L24.3931 26.879L23.4495 26.0754ZM25.2359 25.8822L26.1823 26.6578L25.3871 27.6966L24.4407 26.9182L25.2359 25.8822ZM25.2695 25.8374L26.0647 24.8294L27.0139 25.605L26.2159 26.6158L25.2695 25.8374ZM26.1095 24.7846L26.9019 23.7766L27.8539 24.555L27.0419 25.5882L26.1095 24.7846ZM26.9495 23.7318L27.7419 22.721L28.6967 23.505L27.8819 24.5382L26.9495 23.7318ZM26.9103 23.6982L25.9359 22.9366L26.7283 21.9286L27.6831 22.7126L26.9103 23.6982ZM26.7619 21.8894L27.5543 20.8786L28.5147 21.6682L27.7167 22.6734L26.7619 21.8894ZM26.7283 21.8586L25.7735 21.0746L26.5631 20.0666L27.5235 20.8534L26.7283 21.8586ZM25.7371 21.0466L25.0175 20.4558L24.7823 20.2626L25.5719 19.2518L25.8519 19.4898L26.5239 20.0498C26.2869 20.3484 26.0246 20.6807 25.7371 21.0466ZM24.7459 20.2318L23.7911 19.4478C24.0711 19.0866 24.3511 18.7478 24.5807 18.4398L25.5411 19.2266L24.7459 20.2318ZM23.7547 19.4198L22.7999 18.6358L23.5895 17.6166L24.5499 18.4062C24.3063 18.7366 24.0403 19.0558 23.7547 19.4198ZM22.7635 18.605L21.8087 17.8238C22.0887 17.4598 22.3687 17.121 22.6011 16.813L23.5587 17.5998L22.7635 18.605ZM22.7271 18.6498L21.9319 19.6578L20.9799 18.8766L21.7751 17.8658L22.7271 18.6498ZM20.9407 18.843L19.9887 18.0646L20.7839 17.0566L21.7359 17.8406L20.9407 18.843ZM19.9495 18.031L18.9975 17.2526L19.7927 16.239L20.7475 17.023L19.9495 18.031ZM19.9159 18.073L19.1179 19.0838L18.1687 18.3054L18.9667 17.2918L19.9159 18.073ZM18.1267 18.2718L17.1775 17.4934C17.4575 17.1434 17.7207 16.8046 17.9755 16.477L18.9219 17.2582L18.1267 18.2718ZM18.0959 18.3082C17.8365 18.6386 17.5695 18.9764 17.2951 19.3218L16.3487 18.5462L17.1495 17.5298C17.4491 17.7762 17.7655 18.0394 18.0959 18.3082ZM17.2559 19.361L16.4579 20.3746L15.5115 19.599L16.3123 18.5826L17.2559 19.361ZM16.4159 20.4138L15.6207 21.4246L14.6715 20.649L15.4751 19.6326L16.4159 20.4138ZM16.4607 20.453L17.4071 21.2314L17.3819 21.2622L16.6091 22.2422L15.6627 21.4666L16.4607 20.453ZM16.5755 22.2814L15.7803 23.2922L14.8339 22.5138C15.0915 22.1862 15.3575 21.8474 15.6319 21.503L16.5755 22.2814ZM16.6203 22.3178L17.5667 23.0934C17.2867 23.4406 17.0319 23.7766 16.7715 24.1042L15.8419 23.3258L16.6203 22.3178ZM16.7379 24.1462C16.4579 24.4962 16.2003 24.8322 15.9455 25.157L15.0019 24.3786L15.7999 23.3678L16.7379 24.1462ZM16.7827 24.1826L17.7291 24.961L16.9619 25.969L16.0099 25.1906L16.7827 24.1826ZM17.8019 24.9974L18.7511 25.7758L17.9587 26.7838L16.9983 26.0166L17.8019 24.9974ZM18.7931 25.8122L19.7031 26.557L19.7423 26.5878L18.9499 27.5958L18.8575 27.5202L18.0007 26.8174L18.7931 25.8122ZM19.7843 26.6242L20.7223 27.4166C20.4423 27.761 20.1847 28.0998 19.9299 28.4246L18.9807 27.6434L19.7843 26.6242ZM19.8207 26.5794L20.6159 25.5714C20.9351 25.8346 21.2487 26.095 21.5623 26.3498L20.7671 27.355L19.8207 26.5794ZM21.6071 26.3862L22.5535 27.1618L21.7583 28.1698L20.8119 27.3914L21.6071 26.3862ZM22.5983 27.1982L23.5335 27.9766C23.2629 28.3219 22.9978 28.6588 22.7383 28.9874L21.7919 28.209L22.5983 27.1982ZM23.5895 28.0102C23.9115 28.2762 24.2279 28.5366 24.5359 28.7858L23.7407 29.7994L22.7943 29.021C23.0445 28.6981 23.3058 28.3611 23.5783 28.0102H23.5895ZM23.6231 27.9682L24.2251 27.2038L24.4183 26.9602L25.3619 27.7358L25.1435 28.0158C24.9475 28.2622 24.7543 28.5058 24.5667 28.7494L23.6231 27.9682ZM25.1911 28.0494L25.4095 27.7694L26.3447 28.5366L26.1011 28.8446L25.5411 29.5474L24.5975 28.7718L25.1911 28.0494ZM25.4431 27.7302L26.2383 26.7194L27.1875 27.495L26.3867 28.5086L25.4431 27.7302ZM26.2831 26.6774L27.0783 25.6666L28.0275 26.4422L27.2295 27.4558L26.2831 26.6774ZM27.1231 25.6246L27.8819 24.6166L28.8339 25.395L28.0331 26.4058L27.1231 25.6246ZM27.9631 24.5718L28.7219 23.5582C29.0505 23.8288 29.3697 24.0902 29.6795 24.3422L28.8787 25.353L27.9631 24.5718ZM29.5535 22.4802L28.7219 23.4966L27.7671 22.7098L28.5595 21.699L29.5535 22.4802ZM29.3967 20.6182L28.5987 21.6234L27.6019 20.8338C27.9071 20.4418 28.1619 20.103 28.3887 19.823L29.3967 20.6182ZM28.4055 19.8062L27.6075 20.8086L26.6471 20.0218C26.9523 19.6298 27.2071 19.291 27.4339 19.011L28.4055 19.8062ZM26.7899 18.4818L27.4143 18.9914L26.6163 19.9966L25.9443 19.4366L25.6643 19.1986L26.4539 18.1878L26.7899 18.4818ZM26.3755 18.1766L25.5775 19.179L24.6171 18.3922L25.4067 17.3814L26.3755 18.1766ZM25.3843 17.3618L24.5863 18.367L23.6259 17.5774L24.4155 16.5666L25.3843 17.3618ZM23.4243 15.7546L24.3931 16.5498L23.5951 17.5522L22.6347 16.7766L23.4243 15.7546ZM22.5619 16.7766L21.7639 17.7846L20.8063 17.0034L21.6015 15.9898L22.5619 16.7766ZM20.6019 15.175L21.5595 15.9646L20.7587 16.9726L19.8039 16.1914C20.1091 15.8358 20.3751 15.4942 20.6215 15.1834L20.6019 15.175ZM18.7847 15.413L19.7619 16.2166L18.9611 17.2274L18.0091 16.449C18.2835 16.085 18.5523 15.7462 18.8043 15.4214L18.7847 15.413ZM17.1523 15.805L17.9167 16.435L17.1131 17.4514C16.8331 17.233 16.5923 17.023 16.3487 16.827L17.1523 15.805ZM16.3123 16.8578L17.0739 17.485L16.2731 18.5014L15.5395 17.8966L16.3123 16.8578ZM14.7219 18.9214L15.5087 17.919L16.2703 18.5462L15.4751 19.5766L14.7219 18.941V18.9214ZM14.6799 18.9718L15.4415 19.599C15.1671 19.9443 14.9002 20.2831 14.6407 20.6154L13.8819 19.991L14.6799 18.9718ZM13.0419 21.0438L13.8455 20.0246L14.6043 20.6518L13.8063 21.6682L13.0419 21.0438ZM13.8483 21.7046L14.6603 20.6966L15.6067 21.475C15.3267 21.8194 15.0663 22.1582 14.8087 22.4886L13.8483 21.7046ZM14.0107 23.5666L14.8087 22.553L15.7579 23.3342L14.9739 24.3366L14.0107 23.5666ZM14.1703 25.4286L14.9683 24.4206C15.2782 24.6726 15.5946 24.933 15.9175 25.2018L15.1251 26.2098L14.1703 25.4286ZM15.1643 26.2406L15.9595 25.2354L16.9199 26.0166L16.1219 27.0246L15.1643 26.2406ZM16.1555 27.0554L16.9507 26.0474L17.8999 26.8286L17.1075 27.8366L16.1555 27.0554ZM17.9643 28.5366L17.1579 27.873L17.9531 26.8566L18.8099 27.5594L18.9023 27.635L18.1099 28.643L17.9643 28.5366ZM19.1011 29.469L18.1491 28.685L18.9443 27.6798L19.8935 28.461L19.1011 29.469ZM19.9691 28.4498C20.2267 28.125 20.4918 27.789 20.7643 27.4418L21.7219 28.2146L20.9267 29.2226L19.9691 28.4498ZM20.9603 29.2618C21.2179 28.9398 21.4839 28.601 21.7555 28.2566L22.7047 29.0322L21.9095 30.043L20.9603 29.2618ZM22.9007 30.8578L21.9515 30.0766C22.2091 29.7518 22.4742 29.4158 22.7467 29.0686L23.6959 29.8442C23.4215 30.1886 23.1555 30.5246 22.9007 30.8522V30.8578ZM24.7179 30.617L23.7715 29.8386L24.5695 28.8306L25.5159 29.6034C25.2453 29.9468 24.9793 30.2828 24.7179 30.6114V30.617ZM27.0671 29.707L26.5379 30.3818C26.2355 30.1326 25.9219 29.8722 25.5915 29.6034L26.1515 28.8978L26.3923 28.5898L27.3415 29.3654L27.0671 29.707ZM27.3667 29.329C27.0643 29.0798 26.7507 28.8194 26.4203 28.5506L27.2183 27.537L28.1619 28.307L27.3667 29.329ZM28.2067 28.2762C27.9043 28.027 27.5907 27.7666 27.2603 27.4978L28.0583 26.4842L29.0019 27.2542C28.7387 27.5846 28.4699 27.9234 28.1955 28.2706L28.2067 28.2762ZM29.0467 27.2234L28.0975 26.445L28.8955 25.4314L29.8475 26.2098L29.0467 27.2234ZM29.8867 26.1734C29.5843 25.9242 29.2679 25.661 28.9375 25.3922L29.7327 24.3758L30.6903 25.1598L29.8867 26.1734Z" fill="#263238"/>
<path d="M40.0669 37.337L41.4137 35.811L45.5157 38.597L43.9561 40.4702L40.0669 37.337Z" fill="#455A64"/>
<path d="M29.64 45.6375C34.1233 45.6375 37.7576 42.0031 37.7576 37.5199C37.7576 33.0367 34.1233 29.4023 29.64 29.4023C25.1568 29.4023 21.5225 33.0367 21.5225 37.5199C21.5225 42.0031 25.1568 45.6375 29.64 45.6375Z" fill="#F6C43E"/>
<path opacity="0.15" d="M36.7379 33.5812C36.6753 33.4685 36.6043 33.3599 36.5333 33.2513C35.2974 33.1297 34.0533 33.3783 32.9589 33.9654C31.3805 34.7713 29.9649 36.191 29.5348 37.3811C28.3645 37.4869 27.1878 37.2657 26.1358 36.7422C26.6745 34.93 28.6997 32.7711 31.1216 31.4516C31.9141 31.0194 32.7551 30.683 33.627 30.4494C33.5018 30.3784 33.3681 30.3116 33.2387 30.249C32.457 30.4826 31.7014 30.796 30.9838 31.1843C28.516 32.5289 26.4448 34.7379 25.8644 36.6128C25.5938 36.4775 25.3304 36.3284 25.0752 36.166C24.5231 35.8123 24.0252 35.3805 23.597 34.884C24.1273 33.3348 25.8101 31.201 28.2404 29.5308C27.9857 29.5767 27.7393 29.631 27.4929 29.6978C25.4051 31.272 23.9436 33.1511 23.3799 34.6043C23.092 34.2214 22.86 33.7996 22.6909 33.3515C22.6282 33.4601 22.5572 33.5645 22.4988 33.6731C23.0114 34.8102 23.8518 35.7684 24.9123 36.4249C26.121 37.2162 27.5197 37.6689 28.9628 37.736C29.1698 37.7372 29.3766 37.7204 29.5808 37.6859C30.259 38.6418 30.6554 39.7688 30.7249 40.9388C28.8876 41.3814 26.0022 40.7091 23.6513 39.2685C22.881 38.7988 22.1702 38.238 21.5342 37.5982C21.5342 37.7444 21.5342 37.8905 21.5551 38.0367C22.1474 38.597 22.7968 39.0939 23.4926 39.5191C25.2987 40.649 27.3685 41.288 29.4973 41.3731C29.9188 41.373 30.3391 41.3254 30.75 41.2311C30.7667 41.5357 30.7667 41.841 30.75 42.1456C30.7188 42.8004 30.5936 43.4473 30.3783 44.0664C28.7707 44.3838 26.0774 43.9913 23.4091 42.7177C23.5678 42.9056 23.7348 43.0893 23.9102 43.2647C25.5818 44.0059 27.3814 44.4157 29.2091 44.4715C29.5573 44.4724 29.9049 44.4459 30.2489 44.3921C30.0597 44.8363 29.808 45.2511 29.5014 45.624H29.6351H29.8856C30.6077 44.6138 31.0132 43.4118 31.0506 42.1706C31.1425 40.4001 30.6331 38.4626 29.7979 37.498C30.2885 36.4321 31.0665 35.5241 32.0445 34.8757C33.3473 36.2453 34.2033 39.0806 34.1323 41.8408C34.1108 42.7396 33.9818 43.6325 33.7481 44.5007C33.8734 44.4255 33.9987 44.3545 34.1156 44.2752C34.3071 43.4786 34.4135 42.664 34.433 41.8449C34.5039 39.0389 33.627 36.1409 32.295 34.7003C32.5458 34.5316 32.8066 34.3782 33.0758 34.241C33.6582 33.9395 34.2814 33.7242 34.9257 33.6021C35.9988 34.8339 37.0135 37.3602 37.239 40.2832C37.3267 40.041 37.4019 39.7988 37.4645 39.5525C37.1472 36.9594 36.2494 34.7462 35.2764 33.5353C35.7633 33.48 36.2555 33.4955 36.7379 33.5812Z" fill="black"/>
</svg>
