<svg width="31" height="31" viewBox="0 0 31 31" fill="none" xmlns="http://www.w3.org/2000/svg">
<g clip-path="url(#clip0_164_395)">
<path d="M24.8823 12.0372V23.8844C24.5039 23.4128 24.0495 23.037 23.5444 22.7875V11.9148C23.7701 11.6638 23.9651 11.3709 24.1216 11.0461C24.3296 11.4264 24.587 11.7611 24.8823 12.0372Z" fill="#C7865B"/>
<path d="M23.2755 27.0159L18.1455 26.0478C17.77 23.6474 19.6286 21.4618 22.073 21.4618C23.4902 21.4618 24.7576 22.2082 25.466 23.3652C25.9704 22.7623 26.7286 22.3789 27.5761 22.3789C29.4823 22.3789 30.8029 24.2721 30.1706 26.0477C28.7354 26.0478 24.7081 27.0159 23.2755 27.0159Z" fill="#94DF35"/>
<path d="M22.9902 25.2398V24.2134C22.9902 24.0445 22.8534 23.9077 22.6845 23.9077C22.5156 23.9077 22.3788 24.0445 22.3788 24.2134V24.5388C22.3359 24.4889 22.2058 24.3404 21.3859 23.4005C21.2748 23.2735 21.0817 23.2606 20.9545 23.3718C20.8274 23.483 20.8146 23.6761 20.9258 23.8033L21.2835 24.2134H21.1559C20.987 24.2134 20.8502 24.3502 20.8502 24.5191C20.8502 24.6879 20.987 24.8248 21.1559 24.8248H21.8169L23.5015 26.7561C23.612 26.8824 23.805 26.8967 23.933 26.7848C24.0601 26.6737 24.0729 26.4805 23.9617 26.3534L22.9902 25.2398Z" fill="#6FC366"/>
<path d="M28.1874 24.5191H28.0583L28.4175 24.1089C28.5287 23.9818 28.5158 23.7887 28.3887 23.6775C28.2617 23.5664 28.0686 23.5792 27.9573 23.7063L26.9645 24.8401V24.5191C26.9645 24.3502 26.8277 24.2134 26.6588 24.2134C26.4899 24.2134 26.353 24.3502 26.353 24.5191V25.5385L25.7026 26.2813C25.5914 26.4084 25.6043 26.6016 25.7313 26.7127C25.8584 26.824 26.0515 26.8111 26.1627 26.684C26.1747 26.6703 27.2926 25.3935 27.5229 25.1306H28.1874C28.3563 25.1306 28.4932 24.9937 28.4932 24.8248C28.4932 24.6559 28.3563 24.5191 28.1874 24.5191Z" fill="#6FC366"/>
<path d="M0.366211 26.0478V30.9395H30.9394V26.0478C23.3978 26.0478 6.93355 26.0478 0.366211 26.0478Z" fill="#495F66"/>
<path d="M19.1832 8.88822C17.0456 8.00817 16.9488 4.99766 19.0536 3.99652C18.9313 3.71219 18.8628 3.3991 18.8628 3.07015C18.8628 1.08918 21.1556 0.0351777 22.663 1.24067C23.1437 0.528937 23.9582 0.0605469 24.8821 0.0605469C26.3364 0.0605469 27.5566 1.22196 27.5566 2.75464C29.5053 2.58777 30.9013 4.06609 30.9013 5.74529C30.9013 6.82696 30.3303 7.77476 29.473 8.30552C31.2426 10.4583 29.731 13.7708 26.8883 13.7708C25.743 13.7708 24.7253 13.1932 24.1214 12.3051C23.596 13.1815 22.636 13.7708 21.538 13.7708C19.0596 13.7708 17.5918 10.8909 19.1832 8.88822Z" fill="#94DF35"/>
<path d="M21.4401 28.0613C21.3207 27.9419 21.3207 27.7483 21.4401 27.6289C21.9179 27.151 22.6916 27.1509 23.1695 27.6289C23.2889 27.7483 23.2889 27.9419 23.1695 28.0612C23.0503 28.1806 22.8565 28.1806 22.7372 28.0612C22.4983 27.8224 22.1115 27.8222 21.8725 28.0612C21.8128 28.1209 21.5597 28.1806 21.4401 28.0613Z" fill="#3B4A51"/>
<path d="M24.5717 29.627C24.3331 29.3887 23.9452 29.3886 23.7069 29.627C23.5876 29.7464 23.3939 29.7464 23.2746 29.627C23.1552 29.5076 23.1552 29.314 23.2746 29.1947C23.7514 28.7179 24.5271 28.7179 25.004 29.1946C25.1234 29.314 25.1234 29.5076 25.0041 29.627C24.8847 29.7464 24.6912 29.7464 24.5717 29.627Z" fill="#3B4A51"/>
<path d="M19.9643 29.627C19.7258 29.3886 19.338 29.3886 19.0995 29.627C18.9802 29.7464 18.7865 29.7464 18.6672 29.627C18.5478 29.5077 18.5478 29.314 18.6672 29.1947C19.1451 28.7168 19.9186 28.7167 20.3966 29.1947C20.516 29.314 20.516 29.5077 20.3966 29.627C20.2773 29.7464 20.0836 29.7464 19.9643 29.627Z" fill="#3B4A51"/>
<path d="M27.0917 28.4041C26.8532 28.1657 26.4654 28.1657 26.2269 28.4041C26.1077 28.5235 25.9139 28.5235 25.7946 28.4041C25.6752 28.2847 25.6752 28.0911 25.7946 27.9718C26.2725 27.4939 27.0461 27.4938 27.524 27.9718C27.6434 28.0911 27.6434 28.2847 27.524 28.4041C27.4048 28.5235 27.2111 28.5235 27.0917 28.4041Z" fill="#3B4A51"/>
<path d="M24.4234 7.15695C24.2545 7.15695 24.1177 7.02012 24.1177 6.85125C24.1177 6.68239 24.2545 6.54549 24.4234 6.54549C24.7605 6.54549 25.0348 6.27115 25.0348 5.93403C25.0348 5.76516 25.1717 5.62827 25.3405 5.62827C25.5094 5.62827 25.6462 5.7651 25.6462 5.93403C25.6463 6.60834 25.0977 7.15695 24.4234 7.15695Z" fill="#6FC366"/>
<path d="M27.0987 7.61554C26.9298 7.61554 26.793 7.4787 26.793 7.30984C26.793 7.14097 26.9298 7.00408 27.0987 7.00408C27.4358 7.00408 27.7101 6.72974 27.7101 6.39261C27.7101 6.22375 27.847 6.08685 28.0158 6.08685C28.1847 6.08685 28.3215 6.22369 28.3215 6.39261C28.3216 7.06693 27.773 7.61554 27.0987 7.61554Z" fill="#6FC366"/>
<path d="M20.5347 6.02496C20.3658 6.02496 20.229 5.88813 20.229 5.7192C20.229 5.55028 20.3658 5.41344 20.5347 5.41344C20.8718 5.41344 21.1462 5.1391 21.1462 4.80198C21.1462 4.63311 21.283 4.49622 21.4519 4.49622C21.6207 4.49622 21.7576 4.63305 21.7576 4.80198C21.7576 5.47635 21.2091 6.02496 20.5347 6.02496Z" fill="#6FC366"/>
<path d="M24.5967 10.7408C24.4279 10.7408 24.291 10.604 24.291 10.4351C24.291 10.2663 24.4279 10.1294 24.5967 10.1294C24.9338 10.1294 25.2082 9.85505 25.2082 9.51792C25.2082 9.34905 25.345 9.21216 25.5139 9.21216C25.6829 9.21216 25.8196 9.34899 25.8196 9.51792C25.8197 10.1923 25.2711 10.7408 24.5967 10.7408Z" fill="#6FC366"/>
<path d="M6.81489 26.9282L7.36569 27.7588C7.41886 27.839 7.44724 27.9333 7.44727 28.0296C7.44727 28.1591 7.39613 28.2832 7.30511 28.3747C7.21409 28.4662 7.09064 28.5176 6.96192 28.5176C6.71476 28.5176 6.47003 28.4687 6.24168 28.3736C6.01333 28.2786 5.80585 28.1392 5.63107 27.9635L4.60156 26.9282C4.60156 26.6753 4.7015 26.4328 4.87939 26.2539C5.05728 26.0751 5.29855 25.9746 5.55013 25.9746H5.86632" fill="#4C4C4C"/>
<path d="M12.2036 24.3701L12.7702 25.5094C12.8134 25.5963 12.836 25.6922 12.8359 25.7894C12.8359 25.9188 12.7848 26.0429 12.6938 26.1344C12.6028 26.2259 12.4793 26.2773 12.3506 26.2773C12.1034 26.2774 11.8587 26.2285 11.6304 26.1334C11.402 26.0383 11.1945 25.899 11.0197 25.7233L9.99023 24.688C9.99023 24.4351 10.0902 24.1925 10.2681 24.0137C10.446 23.8348 10.6872 23.7344 10.9388 23.7344H11.255" fill="#4C4C4C"/>
<path d="M13.1515 15.3462L13.7959 15.0231C13.9972 14.9219 14.1606 14.7579 14.2614 14.5558C14.3104 14.4575 14.3857 14.3748 14.4789 14.317C14.572 14.2592 14.6794 14.2285 14.789 14.2285C14.9454 14.2285 15.0955 14.2909 15.2061 14.4019C15.3168 14.513 15.3789 14.6636 15.3789 14.8206C15.3789 15.0202 15.3163 15.2147 15.2001 15.3766C15.0838 15.5385 14.9197 15.6596 14.7311 15.7227C14.527 15.7908 14.3303 15.8791 14.1437 15.9862L12.7754 16.7715" fill="#F2B9A1"/>
<path d="M10.2862 15.5512L9.65386 14.2844L11.551 13.0176L12.4996 13.651L12.7032 13.9569C12.9827 14.377 13.1319 14.8706 13.1319 15.3755C13.132 15.7009 13.07 16.0234 12.9492 16.3256L12.4996 17.4515V18.4016L14.7129 19.6684L13.1319 21.252L12.6185 20.9948C12.1243 20.7474 11.5795 20.6186 11.0271 20.6185C10.4952 20.6185 9.98503 20.4069 9.60891 20.0302C9.23279 19.6534 9.02148 19.1425 9.02148 18.6097C9.02147 18.27 9.13689 17.9404 9.34874 17.6751L9.64185 17.308L10.2862 15.5512Z" fill="#E73844"/>
<path d="M12.494 18.3759V17.4224L12.9448 16.292C13.099 15.9055 13.1572 15.4871 13.1142 15.073C13.0713 14.6589 12.9285 14.2615 12.6982 13.9151L12.494 13.608L11.7016 13.0781L10.7506 13.7139C10.5691 13.836 10.429 14.0107 10.3487 14.2146C10.2685 14.4185 10.252 14.6421 10.3015 14.8556L10.6609 15.5788L10.4812 15.759C10.4715 15.8161 10.4572 15.8723 10.4384 15.9271L11.0778 16.7285C11.3783 17.1062 11.5424 17.5749 11.5431 18.0581C11.5431 18.311 11.4429 18.5535 11.2646 18.7324C11.0862 18.9112 10.8443 19.0117 10.5921 19.0117C10.3399 19.0117 10.0981 18.9112 9.91972 18.7324C9.74139 18.5535 9.6412 18.311 9.6412 18.0581C9.63883 17.9585 9.61413 17.8607 9.56893 17.772C9.41081 18.0136 9.32581 18.2958 9.32422 18.5848C9.32422 19.1195 9.53605 19.6323 9.91311 20.0104C10.2902 20.3886 10.8016 20.601 11.3348 20.601C11.8886 20.601 12.4348 20.7303 12.9302 20.9786L13.2335 21.1309L14.7129 19.6474L12.494 18.3759Z" fill="#FF4D55"/>
<path d="M13.1167 10.4636C13.2831 10.4636 13.4427 10.3963 13.5604 10.2766C13.678 10.1568 13.7441 9.99445 13.7441 9.82511V9.50586H11.8617C11.4456 9.50586 11.0466 9.67403 10.7524 9.97339C10.4582 10.2727 10.293 10.6787 10.293 11.1021C10.2931 11.4858 10.3982 11.862 10.5965 12.1884C10.7948 12.5148 11.0785 12.7786 11.4159 12.9502L11.5479 13.0176L13.1167 10.4636Z" fill="#785349"/>
<path d="M10.8984 11.0902C10.8991 11.4048 10.9722 11.715 11.1118 11.9968C11.2515 12.2785 11.454 12.5242 11.7038 12.7148L13.1118 10.4565C13.2795 10.4565 13.4403 10.3897 13.5589 10.2709C13.6775 10.152 13.7441 9.99081 13.7441 9.82273V9.50586H12.4794C12.0601 9.50586 11.658 9.67278 11.3615 9.96991C11.065 10.267 10.8984 10.67 10.8984 11.0902Z" fill="#916658"/>
<path d="M12.81 12.9934C12.9752 12.9934 13.1336 12.927 13.2504 12.8089C13.3671 12.6908 13.4328 12.5307 13.4328 12.3637L13.7441 12.0488L13.4328 11.4191V11.2346C13.4327 10.9496 13.3207 10.6762 13.1214 10.4746L12.1872 10.7895C12.0221 10.7895 11.8636 10.8558 11.7469 10.9739C11.6301 11.092 11.5645 11.2521 11.5645 11.4191C11.5645 11.5861 11.6301 11.7463 11.7469 11.8644C11.8636 11.9825 12.0221 12.0488 12.1872 12.0488L11.5645 12.9934C11.5645 13.1604 11.6301 13.3205 11.7469 13.4386C11.8636 13.5567 12.0221 13.623 12.1872 13.623H12.4986L12.81 12.9934Z" fill="#F2B9A1"/>
<path d="M8.34266 22.2812L7.97789 22.8299C7.83652 23.043 7.65453 23.2261 7.44239 23.3684C7.04173 23.6363 6.75501 24.0443 6.63819 24.5128C6.5498 24.867 6.40137 25.2033 6.19939 25.5071L5.87305 25.9958C5.87305 26.2471 5.97261 26.4881 6.14983 26.6658C6.32706 26.8435 6.56742 26.9434 6.81805 26.9434L7.44522 25.8426C7.86141 25.1124 8.44141 24.4894 9.1393 24.0229C9.59003 23.7217 9.94771 23.3 10.1719 22.8056L8.34266 22.2812Z" fill="#F2B9A1"/>
<path d="M13.156 21.2131L11.8369 23.0773C11.6642 23.3215 11.4719 23.5508 11.2617 23.7629C11.2617 23.932 11.3282 24.0941 11.4467 24.2137C11.5651 24.3332 11.7257 24.4004 11.8931 24.4004H12.2088C13.0468 23.3431 14.0252 22.4076 15.1165 21.6204L15.3489 21.4531C15.452 21.3786 15.5359 21.2804 15.5938 21.1666C15.6517 21.0528 15.6818 20.9266 15.6816 20.7987C15.6816 20.6383 15.634 20.4816 15.5449 20.3489C15.4558 20.2161 15.3294 20.1133 15.1819 20.0538L14.5542 19.7988L13.156 21.2131Z" fill="#F2B9A1"/>
<path d="M11.3828 20.6054L10.2787 22.8262L8.05273 22.1864L8.68873 20.5871C8.68832 20.0581 8.8195 19.5373 9.07033 19.0723" fill="#43B6E5"/>
<path d="M11.0911 14.6523L10.1719 15.2586L10.315 15.5415L10.4912 15.8027L11.4434 15.1748L11.0911 14.6523Z" fill="#E73844"/>
<path d="M10.293 15.5086L9.97005 15.8287L10.8584 16.929C11.1194 17.2526 11.2617 17.6546 11.2617 18.0689C11.2617 18.2387 11.1937 18.4015 11.0726 18.5215C10.9514 18.6415 10.7872 18.709 10.6159 18.709C10.4446 18.709 10.2803 18.6415 10.1592 18.5215C10.0381 18.4015 9.97005 18.2387 9.97005 18.0689C9.97002 17.8608 9.90443 17.6578 9.78244 17.4884L8.48464 15.6866C8.40097 15.571 8.35582 15.4323 8.35547 15.2901C8.35547 15.1634 8.39106 15.0393 8.45825 14.9315C8.52543 14.8238 8.62156 14.7367 8.73586 14.6801L9.64714 14.2285L10.293 15.5086Z" fill="#F2B9A1"/>
<path d="M12.49 18.4062L9.08203 19.1895C9.20644 19.6027 9.46129 19.9649 9.80879 20.2225C10.1563 20.4802 10.5779 20.6194 11.0112 20.6196C11.566 20.6196 12.1132 20.7482 12.6094 20.9952L13.1251 21.252L14.7129 19.671L12.49 18.4062Z" fill="#43B6E5"/>
<path d="M12.4913 18.4062L11.3328 18.6709C11.2009 18.8424 11.0126 18.9627 10.8006 19.0113C10.5885 19.0598 10.366 19.0333 10.1715 18.9366L9.38477 19.1164C9.49702 19.543 9.7489 19.9207 10.101 20.1904C10.4531 20.4601 10.8855 20.6065 11.3306 20.6068C11.8851 20.6068 12.432 20.7347 12.928 20.9803L13.2317 21.1309L14.7129 19.6637L12.4913 18.4062Z" fill="#8ADEF9"/>
<path d="M6.81119 26.9347L5.8571 25.9746H5.53907C5.36437 25.9752 5.19327 26.0246 5.04485 26.1173L5.04198 26.1215C4.97611 26.2409 4.95143 26.3789 4.9718 26.514C4.99217 26.649 5.05644 26.7735 5.15457 26.8678L5.93852 27.657C6.11431 27.8339 6.323 27.9742 6.55268 28.0699C6.78236 28.1656 7.02852 28.2149 7.27711 28.2148C7.32662 28.214 7.37572 28.2057 7.42277 28.1902C7.44594 28.1206 7.4528 28.0465 7.44281 27.9738C7.43283 27.9011 7.40627 27.8316 7.3652 27.771L6.81119 26.9347Z" fill="#636363"/>
<path d="M11.2337 23.7344H10.9179C10.7555 23.7346 10.5959 23.7777 10.4546 23.8595C10.3133 23.9413 10.1951 24.0591 10.1113 24.2013L10.9987 25.109C11.1733 25.2875 11.3805 25.4291 11.6086 25.5256C11.8367 25.6222 12.0811 25.6719 12.328 25.6719C12.4032 25.6717 12.4774 25.6536 12.5446 25.6189C12.6118 25.5842 12.6701 25.5339 12.7148 25.472L12.1811 24.3802L11.2337 23.7344Z" fill="#636363"/>
</g>
<defs>
<clipPath id="clip0_164_395">
<rect width="31" height="31" fill="white"/>
</clipPath>
</defs>
</svg>
