<svg width="38" height="32" viewBox="0 0 38 32" fill="none" xmlns="http://www.w3.org/2000/svg">
<path d="M28.9797 23.8721C33.7363 23.8721 37.5923 20.0161 37.5923 15.2595C37.5923 10.5029 33.7363 6.64697 28.9797 6.64697C24.2232 6.64697 20.3672 10.5029 20.3672 15.2595C20.3672 20.0161 24.2232 23.8721 28.9797 23.8721Z" fill="white"/>
<mask id="mask0_1334_451" style="mask-type:luminance" maskUnits="userSpaceOnUse" x="20" y="6" width="18" height="19">
<path d="M28.9783 24.0822C27.2336 24.0822 25.528 23.5648 24.0773 22.5955C22.6266 21.6261 21.4959 20.2484 20.8282 18.6364C20.1606 17.0245 19.9859 15.2508 20.3262 13.5396C20.6666 11.8283 21.5068 10.2565 22.7405 9.02275C23.9743 7.78903 25.5461 6.94886 27.2573 6.60847C28.9686 6.26809 30.7423 6.44279 32.3542 7.11047C33.9662 7.77816 35.3439 8.90884 36.3132 10.3595C37.2826 11.8103 37.7999 13.5158 37.7999 15.2606C37.7966 17.5992 36.8661 19.8411 35.2125 21.4947C33.5588 23.1484 31.317 24.0789 28.9783 24.0822ZM28.9783 6.85705C27.3163 6.85705 25.6916 7.34991 24.3096 8.2733C22.9277 9.19669 21.8505 10.5091 21.2145 12.0447C20.5785 13.5802 20.412 15.2699 20.7363 16.9C21.0606 18.5301 21.8609 20.0275 23.0362 21.2027C24.2114 22.378 25.7088 23.1784 27.3389 23.5026C28.969 23.8269 30.6587 23.6604 32.1942 23.0244C33.7298 22.3884 35.0422 21.3113 35.9656 19.9293C36.889 18.5474 37.3819 16.9226 37.3819 15.2606C37.3796 13.0325 36.4936 10.8963 34.9181 9.32083C33.3426 7.74534 31.2064 6.85926 28.9783 6.85705Z" fill="white"/>
</mask>
<g mask="url(#mask0_1334_451)">
</g>
<path d="M30.3007 10.9959L30.054 14.8464L26.0362 15.9209L24.1339 12.8564L26.5337 9.75417L30.3007 10.9959ZM36.0159 15.783L32.9095 17.1459C32.9095 17.1459 32.1235 20.0474 31.9605 20.7498C32.7882 21.0679 33.6494 21.2909 34.5275 21.4146C34.5275 21.4146 36.225 19.6335 36.6389 18.4336C36.6389 18.4503 36.3504 16.4185 36.0159 15.783ZM28.5656 21.9915C28.5656 21.9915 25.9944 20.0892 25.3756 19.483C25.3756 19.483 23.1807 19.8551 22.5996 19.8551C22.8685 20.7386 23.2933 21.5669 23.8538 22.3009C24.9115 23.027 26.1381 23.469 27.4159 23.5844L28.5656 21.9915ZM26.1198 7.70555C26.9644 7.24333 27.8613 6.88401 28.7914 6.63525C27.2225 6.66548 25.6922 7.12689 24.3681 7.96895C24.9397 7.81564 25.528 7.73281 26.1198 7.72228V7.70555ZM35.9323 12.3045L36.7936 11.623C36.0383 10.0003 34.7981 8.65199 33.244 7.76409L32.5374 7.66375C32.5374 7.66375 33.2858 9.33609 33.1604 9.85869C34.1801 10.5649 35.1109 11.3918 35.9323 12.3212V12.3045ZM20.53 16.9327C20.655 16.9484 20.7819 16.937 20.9021 16.8993C20.8915 15.7072 21.1175 14.5249 21.5669 13.4208C21.4137 12.7594 21.3131 12.087 21.2659 11.4098C20.6704 12.6 20.3612 13.9128 20.3628 15.2436C20.362 15.8164 20.4181 16.3877 20.53 16.9494V16.9327Z" fill="#263238"/>
<path d="M27.5084 23.7973H27.3955C26.0763 23.6818 24.8099 23.225 23.7206 22.472L23.6829 22.4385C23.1062 21.6873 22.6713 20.8372 22.3994 19.93L22.3242 19.6625H22.6001C23.1562 19.6625 25.3177 19.2987 25.3427 19.2945L25.4473 19.2736L25.5225 19.3531C26.1246 19.9551 28.6623 21.8407 28.6874 21.8616L28.8547 21.987L27.5084 23.7973ZM23.9881 22.1459C24.9771 22.8172 26.1154 23.2364 27.3036 23.3667L28.2735 22.0539C27.7133 21.6358 25.9322 20.2938 25.3051 19.7084C24.9205 19.7712 23.5826 19.9886 22.8844 20.0513C23.1351 20.8052 23.508 21.5128 23.9881 22.1459ZM34.6117 21.6442H34.5155C33.6161 21.5187 32.7339 21.2915 31.8858 20.9669L31.7144 20.9L31.7562 20.7244C31.9192 20.022 32.676 17.2334 32.7094 17.1121L32.7345 17.016L36.1126 15.5318L36.2004 15.7032C36.5474 16.3512 36.8317 18.3371 36.8443 18.4207V18.4709V18.5211C36.4262 19.7503 34.7538 21.502 34.687 21.5773L34.6117 21.6442ZM32.2077 20.6324C32.9295 20.9038 33.6778 21.0986 34.4403 21.2136C34.7497 20.8791 36.0499 19.4367 36.4262 18.4249C36.3168 17.628 36.1449 16.841 35.9119 16.0711L33.0857 17.3254C32.9603 17.7853 32.4084 19.8255 32.2077 20.6324ZM20.6435 17.1623H20.5055H20.355L20.3257 17.016C20.2124 16.446 20.155 15.8663 20.1543 15.2851C20.1526 13.9224 20.4689 12.5781 21.0783 11.3593L21.4044 10.6987L21.4713 11.4345C21.5227 12.0972 21.6219 12.7553 21.7681 13.4037V13.4748L21.7388 13.5459C21.3033 14.6214 21.0832 15.772 21.0908 16.9324V17.0829L20.9487 17.1372C20.8484 17.1588 20.7459 17.1672 20.6435 17.1623ZM21.141 12.2247C20.7634 13.1921 20.5706 14.2216 20.5724 15.26C20.5738 15.7223 20.613 16.1838 20.6895 16.6397C20.7162 15.5376 20.9384 14.449 21.3458 13.4246C21.2523 13.0294 21.1839 12.6286 21.141 12.2247ZM25.9406 16.1631L23.8794 12.856L26.459 9.51134L30.5228 10.8492L30.2552 15.0301L25.9406 16.1631ZM24.3895 12.856L26.1329 15.6614L29.8539 14.6663L30.0838 11.1252L26.6095 9.9796L24.3895 12.856ZM35.8994 12.5968L35.7698 12.4338C34.9584 11.5269 34.0419 10.7199 33.0397 10.0298L32.9268 9.95034L32.9561 9.81237C33.0355 9.46954 32.6258 8.36579 32.3499 7.7512L32.1952 7.4042L33.3491 7.57979C34.9435 8.4863 36.214 9.86939 36.9822 11.5349L37.0533 11.6854L35.8994 12.5968ZM33.3909 9.75801C34.3312 10.4134 35.1975 11.169 35.9747 12.0115L36.5433 11.5641C35.8117 10.058 34.647 8.8045 33.1986 7.96443L32.8975 7.92262C33.1615 8.50857 33.3254 9.13461 33.3825 9.77474L33.3909 9.75801ZM23.1311 8.50376L24.2641 7.78465C25.6211 6.9226 27.1888 6.4497 28.7961 6.41752L30.5479 6.37988L28.8756 6.82724C27.9633 7.0739 27.0834 7.42755 26.2542 7.88081L26.2082 7.9059H26.1496C25.5755 7.92034 25.0053 8.00601 24.4522 8.16093L23.1311 8.50376ZM26.8269 7.11572C26.4344 7.21777 26.0501 7.34914 25.6772 7.50872C25.8152 7.50872 25.949 7.50872 26.0953 7.48781C26.2416 7.46691 26.4381 7.31222 26.8186 7.1408L26.8269 7.11572Z" fill="#263238"/>
<path d="M26.3271 7.67808L25.9175 7.76172L26.3315 9.78941L26.7411 9.70577L26.3271 7.67808Z" fill="#263238"/>
<path d="M33.0803 9.68942L30.2222 10.8066L30.3744 11.196L33.2325 10.0788L33.0803 9.68942Z" fill="#263238"/>
<path d="M36.2251 15.8123L35.807 15.783C35.8781 14.6373 35.8516 13.4876 35.7275 12.3463L36.1456 12.292C36.2758 13.4608 36.3024 14.6388 36.2251 15.8123Z" fill="#263238"/>
<path d="M30.1883 14.6768L29.9248 15.0015L32.7816 17.3198L33.0451 16.9952L30.1883 14.6768Z" fill="#263238"/>
<path d="M25.8305 15.8846L25.1694 19.4443L25.5805 19.5207L26.2415 15.9609L25.8305 15.8846Z" fill="#263238"/>
<path d="M28.6207 22.2088L28.5078 21.7907C29.6534 21.4646 31.4846 20.8709 31.8274 20.5908L32.095 20.9127C31.5766 21.3559 28.9217 22.1252 28.6207 22.2088Z" fill="#263238"/>
<path d="M24.0929 12.6526L21.5239 13.2339L21.6162 13.6417L24.1852 13.0604L24.0929 12.6526Z" fill="#263238"/>
<path d="M22.4453 19.997C21.682 19.11 21.092 18.0874 20.7061 16.9826L21.1241 16.853C21.5016 17.902 22.0684 18.8727 22.7965 19.7169L22.4453 19.997Z" fill="#263238"/>
<path d="M31.9563 26.4702L33.5159 24.597C33.5159 24.597 27.5771 20.6966 25.1887 18.6246C22.8003 16.5526 20.6415 12.0306 20.0115 10.8714C19.3815 9.71216 18.0095 2.11296 10.6315 0.354564C4.37909 -1.13784 1.71629 2.56376 1.71629 2.56376C-2.29611 8.44376 1.61549 12.9238 4.41829 15.2198C7.22109 17.5158 10.8275 17.8602 13.7871 17.9638C17.2787 18.087 22.0191 19.2238 23.5143 19.9406C24.6147 20.467 31.9563 26.4702 31.9563 26.4702ZM18.0067 14.3322C18.0067 14.3322 14.0867 20.1142 5.51869 14.6766C2.20349 12.5766 1.18709 10.0174 0.957493 8.01536C0.797913 6.51186 1.16824 4.99982 2.00456 3.74024C2.84087 2.48065 4.0907 1.55256 5.53829 1.11616C7.72789 0.441364 10.6315 0.354564 14.6971 3.39536C14.6971 3.39536 20.9215 8.76016 18.0067 14.3322ZM17.1303 17.6922C16.8503 17.6082 15.8787 17.4822 17.3235 16.3314C19.0035 14.9874 19.1211 13.9066 19.3283 13.2514C19.3804 13.0611 19.4699 12.8831 19.5915 12.7278C19.6191 12.6945 19.6532 12.6674 19.6918 12.648C19.7303 12.6286 19.7725 12.6173 19.8156 12.6149C19.8587 12.6126 19.9018 12.6191 19.9423 12.6342C19.9827 12.6493 20.0196 12.6726 20.0507 12.7026C20.9943 13.6042 23.8279 18.1262 23.4527 18.6666C23.0383 19.2658 17.5615 17.8154 17.1303 17.6866V17.6922Z" fill="#FF725E"/>
<path d="M18.7799 11.003L18.6875 11.1178C18.3851 10.8658 18.0669 10.6035 17.7327 10.331L18.5279 9.31738C18.5279 9.28658 18.5083 9.25858 18.5027 9.23058L17.5619 8.46058L18.0127 7.88658L17.9959 7.85298C17.8559 8.03218 17.6991 8.22538 17.5311 8.43818L16.5707 7.64858L17.3575 6.64058L17.2623 6.48099L16.4055 5.77818L16.6043 5.52058V5.50099C16.5399 5.57939 16.4699 5.66618 16.3971 5.76138L15.4255 4.96338L15.7867 4.49858L15.4171 4.96058L14.7927 4.44818L14.4455 4.16818L14.8991 3.58298L14.4371 4.16258L13.4403 3.33658L13.8575 2.79898L13.4347 3.32818L12.4631 2.53298L12.7739 2.13538H12.7571L12.4295 2.49658L11.4579 1.71258L11.5923 1.54178H11.5671L11.4355 1.70698L10.9231 1.28418L10.7775 1.23378L11.4019 1.73778L10.6039 2.74298L9.64355 1.95618L10.3267 1.07978H10.2959L9.60995 1.93658L8.64955 1.14978L8.92955 0.794182H8.88475C8.80075 0.903382 8.71115 1.01538 8.61875 1.13018L8.14835 0.746582H8.07275L8.60195 1.15818C8.35555 1.46618 8.08955 1.80498 7.80115 2.16898L6.83235 1.37658L7.32515 0.74938H7.26355L6.79595 1.34018L6.26395 0.908983H6.21355C6.38995 1.05458 6.57755 1.20578 6.77355 1.36538L5.96995 2.37898L5.20275 1.75458C5.40155 1.49978 5.59195 1.25618 5.77955 1.02098L5.69555 1.04338L5.16075 1.72098L4.76035 1.39338L4.72395 1.41018L5.13555 1.75178L4.33195 2.77098L3.52835 2.11578C3.51784 2.12165 3.50838 2.12922 3.50035 2.13818L4.30675 2.80178C4.04635 3.13498 3.77755 3.47378 3.50035 3.82378L2.53155 3.05658L2.51195 3.08178L3.46955 3.89658L2.67995 4.89898L2.66595 4.91579L1.75035 4.17098L1.73355 4.19898L2.64075 4.94938L1.83715 5.96858L1.20155 5.45058C1.20033 5.46268 1.20033 5.47488 1.20155 5.48698L1.82315 6.00218L1.01955 7.02138L0.938347 6.95698V7.00738L0.994348 7.05498L0.935547 7.13058C0.935547 7.16138 0.935547 7.19218 0.935547 7.22298L1.03915 7.09138L1.80355 7.71858C1.54875 8.03778 1.30515 8.35139 1.06715 8.65099C1.06715 8.67339 1.06715 8.69859 1.08115 8.72098L1.84555 7.75218L2.79195 8.53338L1.99395 9.54698L1.09795 8.81338C1.09795 8.83858 1.11195 8.86378 1.11755 8.88898L1.95755 9.58618L1.50955 10.1602C1.51584 10.1775 1.52332 10.1943 1.53195 10.2106L1.99955 9.61978L2.94875 10.401L2.15355 11.4118L2.24875 11.5602L3.12235 12.277L2.95155 12.4954L2.98235 12.5318L3.15875 12.3078L4.11355 13.0918L3.84195 13.3998L3.87555 13.4334L4.13875 13.1002L5.09075 13.8814L4.83875 14.2062L4.87515 14.2342L5.12995 13.9122L5.93635 14.5758L6.08195 14.6962L5.91115 14.9146L5.95315 14.9398C6.00915 14.8698 6.06235 14.797 6.12115 14.727L7.07315 15.5082L7.04235 15.5502L7.08715 15.5726L7.11235 15.539L7.25515 15.6566L7.48195 15.7686L7.14875 15.4886L7.94395 14.4834L8.88195 15.2674L8.22395 16.1074L8.27155 16.127L8.92395 15.301C9.24688 15.5661 9.56328 15.8255 9.87315 16.0794L9.49515 16.5638L9.54835 16.5778L9.91515 16.1158L10.8419 16.8802L10.9455 16.897L11.7435 15.8862L12.6899 16.6618L12.4099 17.0174H12.4799L12.7319 16.6982L13.0791 16.9782H13.1463C13.0203 16.8746 12.8915 16.771 12.7627 16.6618L13.5607 15.651L14.5099 16.4238L14.2299 16.7906L14.3223 16.7682C14.4007 16.6646 14.4819 16.5638 14.5631 16.4602L14.7703 16.631L14.8207 16.6142L14.5911 16.4266C14.7647 16.2026 14.9439 15.9786 15.1231 15.749L15.4031 15.4102L16.1367 16.0094L16.1731 15.987L15.4311 15.3738C15.7037 15.0266 15.9706 14.6878 16.2319 14.3574C16.5931 14.6514 16.9319 14.9314 17.2511 15.1974L17.2819 15.1722L16.2599 14.3322C16.5343 13.9831 16.8013 13.6443 17.0607 13.3158L18.1135 14.1754L18.1303 14.139L17.0887 13.2794L17.8867 12.263L18.6063 12.8482C18.6063 12.8342 18.6063 12.8202 18.6063 12.8034L17.9035 12.2266L18.6959 11.1766L18.7855 11.2522V11.1906L18.7239 11.1402L18.7827 11.0674C18.7807 11.046 18.7797 11.0245 18.7799 11.003ZM18.4999 9.29218L17.6991 10.303L16.7443 9.51618L17.5367 8.50538L18.4999 9.29218ZM5.47155 7.25658L6.41515 8.03498L6.36195 8.09658L5.61435 9.04298L4.68195 8.27579L5.45475 7.29579L5.47155 7.25658ZM7.48755 8.84138L8.27995 7.83338L9.22635 8.60898L8.43395 9.61698L7.48755 8.84138ZM8.39755 9.66178C8.36395 9.70098 8.33315 9.74298 8.30235 9.78218L7.60515 10.667L6.65595 9.89138L7.38115 8.97579L7.45115 8.88618L8.39755 9.66178ZM11.2535 8.46618L11.1219 8.37658L11.9115 7.37138L12.0935 7.51698L12.8635 8.14978L12.0683 9.15498L11.2535 8.46618ZM12.0375 9.18579L11.2451 10.191L10.3715 9.49658L10.2987 9.43498L11.0911 8.42978L11.2171 8.53338C11.4943 8.74618 11.7687 8.97019 12.0375 9.19419V9.18579ZM11.0827 8.32618L10.1363 7.54778L10.9287 6.53978L11.8779 7.32099L11.0827 8.32618ZM11.0463 8.37099L10.2539 9.38458L9.30755 8.60898L10.0999 7.60099L11.0463 8.37099ZM9.26275 8.56419L8.32195 7.79698C8.60195 7.45258 8.85675 7.11378 9.11435 6.78898L10.0635 7.56738L9.26275 8.56419ZM8.27155 7.75218L7.32515 6.97658L8.11755 5.96858L9.06675 6.74698L8.27155 7.75218ZM8.23515 7.79698L7.44275 8.80218L6.49635 8.02658L7.28875 7.01858L8.23515 7.79698ZM9.27115 8.63698L10.2175 9.41538L9.42515 10.4206L8.47875 9.64498L9.27115 8.63698ZM10.2623 9.45178L10.3351 9.51058L11.2087 10.2274L10.4135 11.2354C10.1111 10.9834 9.80315 10.7314 9.49235 10.4766L9.46995 10.457L10.2623 9.45178ZM11.2535 10.2638L12.1999 11.0422L11.4019 12.0642L10.4583 11.2886L11.2535 10.2638ZM11.2899 10.219L12.0823 9.21099L13.0287 9.98938L12.2419 11.0114L11.2899 10.219ZM13.0735 10.023C13.3965 10.2899 13.7129 10.5494 14.0227 10.8014L13.2247 11.8094L12.2783 11.031L13.0735 10.023ZM13.1071 9.97818C13.3871 9.63098 13.6475 9.29498 13.8995 8.97018L14.8515 9.75138L14.0563 10.7594L13.1071 9.97818ZM13.0651 9.94458L12.1187 9.16618L12.9083 8.15818L13.8603 8.93938L13.0651 9.94458ZM12.9447 8.11338C13.2247 7.75778 13.4879 7.42178 13.7371 7.10538L14.6919 7.88658L13.8967 8.89178L12.9447 8.11338ZM12.9055 8.07978L12.1355 7.44698L11.9535 7.29858L12.7459 6.29058L12.9783 6.48378L13.7007 7.07458L12.9055 8.07978ZM11.9143 7.26498L10.9623 6.48658L11.7547 5.47858L12.7095 6.25978L11.9143 7.26498ZM10.9231 6.45298L9.97115 5.67178L10.7635 4.66378L11.7183 5.44778L10.9231 6.45298ZM10.8867 6.49778L10.0915 7.50298L9.14515 6.72738C9.42515 6.37738 9.68275 6.04138 9.93755 5.71658L10.8867 6.49778ZM9.10035 6.69099L8.15395 5.91259L8.94635 4.90458L9.89555 5.68579L9.10035 6.69099ZM8.10915 5.87898L7.15995 5.10058L7.95515 4.08978L8.90715 4.87099C8.64955 5.20978 8.38355 5.54859 8.10915 5.89579V5.87898ZM8.07555 5.92099L7.28035 6.92898L6.33115 6.15338C6.61115 5.80898 6.86875 5.47019 7.12915 5.14259L8.07555 5.92099ZM6.28915 6.11698L5.33995 5.34138C5.61995 4.99418 5.88035 4.65818 6.13795 4.32778L7.08435 5.10618L6.28915 6.11698ZM6.25555 6.15898L5.45755 7.16978L4.51115 6.41658L5.30915 5.40298L6.25555 6.15898ZM6.30035 6.19538L7.24395 6.97378L6.44875 7.98178L5.50235 7.20618L6.30035 6.19538ZM6.41235 8.12178L6.45995 8.06298L7.40635 8.83858L7.33355 8.93099L6.61115 9.84658L5.66475 9.07098L6.41235 8.12178ZM6.57755 9.89138L5.78515 10.8994L4.83595 10.1238L5.63115 9.11579L6.57755 9.89138ZM6.62235 9.92778L7.56875 10.7062C7.28875 11.0478 7.03395 11.3866 6.77635 11.7114L5.82715 10.9358L6.62235 9.92778ZM7.61355 10.7426L8.55995 11.5182C8.27995 11.8626 8.02235 12.1986 7.76755 12.5262L7.72835 12.4954L6.81835 11.7478L7.61355 10.7426ZM7.64995 10.6978C7.87675 10.4178 8.10915 10.1098 8.34715 9.81018L8.44235 9.68978L9.38875 10.4654L9.26835 10.6194L8.60195 11.4902L7.64995 10.6978ZM9.31315 10.6558L9.43355 10.5046L9.45315 10.5214L10.3799 11.2802L10.2343 11.4622C10.0159 11.7422 9.79755 12.0222 9.58475 12.2854L8.63835 11.5098C8.86235 11.2466 9.08635 10.961 9.31315 10.6726V10.6558ZM10.2791 11.4958L10.4247 11.3138L11.3711 12.0894L11.2003 12.305L10.5759 13.0974L9.62955 12.3218L10.2791 11.4958ZM11.2479 12.3358L11.4159 12.1202L12.3623 12.8958L12.1691 13.1422L11.5671 13.9066L10.6207 13.1282C10.8419 12.893 11.0351 12.627 11.2479 12.361V12.3358ZM11.4495 12.0754L12.2419 11.0954L13.1883 11.871L12.3931 12.879L11.4495 12.0754ZM13.2359 11.8822L14.1823 12.6578L13.3871 13.6966L12.4407 12.9182L13.2359 11.8822ZM13.2695 11.8374L14.0647 10.8294L15.0139 11.605L14.2159 12.6158L13.2695 11.8374ZM14.1095 10.7846L14.9019 9.77658L15.8539 10.555L15.0419 11.5882L14.1095 10.7846ZM14.9495 9.73178L15.7419 8.72098L16.6967 9.50498L15.8819 10.5382L14.9495 9.73178ZM14.9103 9.69818L13.9359 8.93658L14.7283 7.92858L15.6831 8.71259L14.9103 9.69818ZM14.7619 7.88938L15.5543 6.87858L16.5147 7.66818L15.7167 8.67338L14.7619 7.88938ZM14.7283 7.85858L13.7735 7.07458L14.5631 6.06658L15.5235 6.85338L14.7283 7.85858ZM13.7371 7.04658L13.0175 6.45579L12.7823 6.26259L13.5719 5.25178L13.8519 5.48978L14.5239 6.04978C14.2869 6.34845 14.0246 6.68072 13.7371 7.04658ZM12.7459 6.23178L11.7911 5.44778C12.0711 5.08658 12.3511 4.74778 12.5807 4.43978L13.5411 5.22658L12.7459 6.23178ZM11.7547 5.41978L10.7999 4.63579L11.5895 3.61658L12.5499 4.40618C12.3063 4.73658 12.0403 5.05578 11.7547 5.41978ZM10.7635 4.60498L9.80875 3.82378C10.0887 3.45978 10.3687 3.12098 10.6011 2.81298L11.5587 3.59978L10.7635 4.60498ZM10.7271 4.64978L9.93195 5.65778L8.97995 4.87658L9.77515 3.86578L10.7271 4.64978ZM8.94075 4.84298L7.98875 4.06458L8.78395 3.05658L9.73595 3.84058L8.94075 4.84298ZM7.94955 4.03098L6.99755 3.25258L7.79275 2.23898L8.74755 3.02298L7.94955 4.03098ZM7.91595 4.07298L7.11795 5.08378L6.16875 4.30538L6.96675 3.29178L7.91595 4.07298ZM6.12675 4.27178L5.17755 3.49338C5.45755 3.14338 5.72075 2.80458 5.97555 2.47698L6.92195 3.25818L6.12675 4.27178ZM6.09595 4.30818C5.83648 4.63858 5.56955 4.97645 5.29515 5.32178L4.34875 4.54618L5.14955 3.52978C5.44915 3.77618 5.76555 4.03938 6.09595 4.30818ZM5.25595 5.36099L4.45795 6.37458L3.51155 5.59898L4.31235 4.58259L5.25595 5.36099ZM4.41595 6.41378L3.62075 7.42458L2.67155 6.64898L3.47515 5.63259L4.41595 6.41378ZM4.46075 6.45298L5.40715 7.23138L5.38195 7.26218L4.60915 8.24218L3.66275 7.46658L4.46075 6.45298ZM4.57555 8.28138L3.78035 9.29218L2.83395 8.51378C3.09155 8.18618 3.35755 7.84738 3.63195 7.50298L4.57555 8.28138ZM4.62035 8.31778L5.56675 9.09338C5.28675 9.44058 5.03195 9.77659 4.77155 10.1042L3.84195 9.32579L4.62035 8.31778ZM4.73795 10.1462C4.45795 10.4962 4.20035 10.8322 3.94555 11.157L3.00195 10.3786L3.79995 9.36778L4.73795 10.1462ZM4.78275 10.1826L5.72915 10.961L4.96195 11.969L4.00995 11.1906L4.78275 10.1826ZM5.80195 10.9974L6.75115 11.7758L5.95875 12.7838L4.99835 12.0166L5.80195 10.9974ZM6.79315 11.8122L7.70315 12.557L7.74235 12.5878L6.94995 13.5958L6.85755 13.5202L6.00075 12.8174L6.79315 11.8122ZM7.78435 12.6242L8.72235 13.4166C8.44235 13.761 8.18475 14.0998 7.92995 14.4246L6.98075 13.6434L7.78435 12.6242ZM7.82075 12.5794L8.61595 11.5714C8.93515 11.8346 9.24875 12.095 9.56235 12.3498L8.76715 13.355L7.82075 12.5794ZM9.60715 12.3862L10.5535 13.1618L9.75835 14.1698L8.81195 13.3914L9.60715 12.3862ZM10.5983 13.1982L11.5335 13.9766C11.2629 14.3219 10.9978 14.6588 10.7383 14.9874L9.79195 14.209L10.5983 13.1982ZM11.5895 14.0102C11.9115 14.2762 12.2279 14.5366 12.5359 14.7858L11.7407 15.7994L10.7943 15.021C11.0445 14.6981 11.3058 14.3611 11.5783 14.0102H11.5895ZM11.6231 13.9682L12.2251 13.2038L12.4183 12.9602L13.3619 13.7358L13.1435 14.0158C12.9475 14.2622 12.7543 14.5058 12.5667 14.7494L11.6231 13.9682ZM13.1911 14.0494L13.4095 13.7694L14.3447 14.5366L14.1011 14.8446L13.5411 15.5474L12.5975 14.7718L13.1911 14.0494ZM13.4431 13.7302L14.2383 12.7194L15.1875 13.495L14.3867 14.5086L13.4431 13.7302ZM14.2831 12.6774L15.0783 11.6666L16.0275 12.4422L15.2295 13.4558L14.2831 12.6774ZM15.1231 11.6246L15.8819 10.6166L16.8339 11.395L16.0331 12.4058L15.1231 11.6246ZM15.9631 10.5718L16.7219 9.55818C17.0505 9.82885 17.3697 10.0902 17.6795 10.3422L16.8787 11.353L15.9631 10.5718ZM17.5535 8.48018L16.7219 9.49658L15.7671 8.70978L16.5595 7.69898L17.5535 8.48018ZM17.3967 6.61818L16.5987 7.62338L15.6019 6.83378C15.9071 6.44178 16.1619 6.10298 16.3887 5.82298L17.3967 6.61818ZM16.4055 5.80618L15.6075 6.80858L14.6471 6.02178C14.9523 5.62978 15.2071 5.29099 15.4339 5.01098L16.4055 5.80618ZM14.7899 4.48178L15.4143 4.99138L14.6163 5.99658L13.9443 5.43658L13.6643 5.19858L14.4539 4.18778L14.7899 4.48178ZM14.3755 4.17658L13.5775 5.17898L12.6171 4.39218L13.4067 3.38138L14.3755 4.17658ZM13.3843 3.36178L12.5863 4.36698L11.6259 3.57738L12.4155 2.56658L13.3843 3.36178ZM11.4243 1.75458L12.3931 2.54978L11.5951 3.55218L10.6347 2.77658L11.4243 1.75458ZM10.5619 2.77658L9.76395 3.78458L8.80635 3.00338L9.60155 1.98978L10.5619 2.77658ZM8.60195 1.17498L9.55955 1.96458L8.75875 2.97258L7.80395 2.19138C8.10915 1.83578 8.37515 1.49418 8.62155 1.18338L8.60195 1.17498ZM6.78475 1.41298L7.76195 2.21658L6.96115 3.22738L6.00915 2.44898C6.28355 2.08498 6.55235 1.74618 6.80435 1.42138L6.78475 1.41298ZM5.15235 1.80498L5.91675 2.43498L5.11315 3.45138C4.83315 3.23298 4.59235 3.02298 4.34875 2.82698L5.15235 1.80498ZM4.31235 2.85778L5.07395 3.48498L4.27315 4.50138L3.53955 3.89658L4.31235 2.85778ZM2.72195 4.92138L3.50875 3.91898L4.27035 4.54618L3.47515 5.57658L2.72195 4.94099V4.92138ZM2.67995 4.97178L3.44155 5.59898C3.16715 5.94431 2.90021 6.28311 2.64075 6.61538L1.88195 5.99098L2.67995 4.97178ZM1.04195 7.04378L1.84555 6.02458L2.60435 6.65178L1.80635 7.66818L1.04195 7.04378ZM1.84835 7.70458L2.66035 6.69658L3.60675 7.47498C3.32675 7.81938 3.06635 8.15818 2.80875 8.48858L1.84835 7.70458ZM2.01075 9.56658L2.80875 8.55298L3.75795 9.33419L2.97395 10.3366L2.01075 9.56658ZM2.17035 11.4286L2.96835 10.4206C3.27821 10.6726 3.59461 10.933 3.91755 11.2018L3.12515 12.2098L2.17035 11.4286ZM3.16435 12.2406L3.95955 11.2354L4.91995 12.0166L4.12195 13.0246L3.16435 12.2406ZM4.15555 13.0554L4.95075 12.0474L5.89995 12.8286L5.10755 13.8366L4.15555 13.0554ZM5.96435 14.5366L5.15795 13.873L5.95315 12.8566L6.80995 13.5594L6.90235 13.635L6.10995 14.643L5.96435 14.5366ZM7.10115 15.469L6.14915 14.685L6.94435 13.6798L7.89355 14.461L7.10115 15.469ZM7.96915 14.4498C8.22675 14.125 8.49181 13.789 8.76435 13.4418L9.72195 14.2146L8.92675 15.2226L7.96915 14.4498ZM8.96035 15.2618C9.21795 14.9398 9.48395 14.601 9.75555 14.2566L10.7047 15.0322L9.90955 16.043L8.96035 15.2618ZM10.9007 16.8578L9.95155 16.0766C10.2091 15.7518 10.4742 15.4158 10.7467 15.0686L11.6959 15.8442C11.4215 16.1886 11.1555 16.5246 10.9007 16.8522V16.8578ZM12.7179 16.617L11.7715 15.8386L12.5695 14.8306L13.5159 15.6034C13.2453 15.9468 12.9793 16.2829 12.7179 16.6114V16.617ZM15.0671 15.707L14.5379 16.3818C14.2355 16.1326 13.9219 15.8722 13.5915 15.6034L14.1515 14.8978L14.3923 14.5898L15.3415 15.3654L15.0671 15.707ZM15.3667 15.329C15.0643 15.0798 14.7507 14.8194 14.4203 14.5506L15.2183 13.537L16.1619 14.307L15.3667 15.329ZM16.2067 14.2762C15.9043 14.027 15.5907 13.7666 15.2603 13.4978L16.0583 12.4842L17.0019 13.2542C16.7387 13.5846 16.4699 13.9234 16.1955 14.2706L16.2067 14.2762ZM17.0467 13.2234L16.0975 12.445L16.8955 11.4314L17.8475 12.2098L17.0467 13.2234ZM17.8867 12.1734C17.5843 11.9242 17.2679 11.661 16.9375 11.3922L17.7327 10.3758L18.6903 11.1598L17.8867 12.1734Z" fill="#263238"/>
<path d="M28.0669 23.337L29.4137 21.811L33.5157 24.597L31.9561 26.4702L28.0669 23.337Z" fill="#455A64"/>
<path d="M17.64 31.6375C22.1233 31.6375 25.7576 28.0031 25.7576 23.5199C25.7576 19.0367 22.1233 15.4023 17.64 15.4023C13.1568 15.4023 9.52246 19.0367 9.52246 23.5199C9.52246 28.0031 13.1568 31.6375 17.64 31.6375Z" fill="#F6C43E"/>
<path opacity="0.15" d="M24.7379 19.5812C24.6753 19.4685 24.6043 19.3599 24.5333 19.2513C23.2974 19.1297 22.0533 19.3783 20.9589 19.9654C19.3805 20.7713 17.9649 22.191 17.5348 23.3811C16.3645 23.4869 15.1878 23.2657 14.1358 22.7422C14.6745 20.93 16.6997 18.7711 19.1216 17.4516C19.9141 17.0194 20.7551 16.683 21.627 16.4494C21.5018 16.3784 21.3681 16.3116 21.2387 16.249C20.457 16.4826 19.7014 16.796 18.9838 17.1843C16.516 18.5289 14.4448 20.7379 13.8644 22.6128C13.5938 22.4775 13.3304 22.3284 13.0752 22.166C12.5231 21.8123 12.0252 21.3805 11.597 20.884C12.1273 19.3348 13.8101 17.201 16.2404 15.5308C15.9857 15.5767 15.7393 15.631 15.4929 15.6978C13.4051 17.272 11.9436 19.1511 11.3799 20.6043C11.092 20.2214 10.86 19.7996 10.6909 19.3515C10.6282 19.4601 10.5572 19.5645 10.4988 19.6731C11.0114 20.8102 11.8518 21.7684 12.9123 22.4249C14.121 23.2162 15.5197 23.6689 16.9628 23.736C17.1698 23.7372 17.3766 23.7204 17.5808 23.6859C18.259 24.6418 18.6554 25.7688 18.7249 26.9388C16.8876 27.3814 14.0022 26.7091 11.6513 25.2685C10.881 24.7988 10.1702 24.238 9.53418 23.5982C9.53418 23.7444 9.53418 23.8905 9.55506 24.0367C10.1474 24.597 10.7968 25.0939 11.4926 25.5191C13.2987 26.649 15.3685 27.288 17.4973 27.3731C17.9188 27.373 18.3391 27.3254 18.75 27.2311C18.7667 27.5357 18.7667 27.841 18.75 28.1456C18.7188 28.8004 18.5936 29.4473 18.3783 30.0664C16.7707 30.3838 14.0774 29.9913 11.4091 28.7177C11.5678 28.9056 11.7348 29.0893 11.9102 29.2647C13.5818 30.0059 15.3814 30.4157 17.2091 30.4715C17.5573 30.4724 17.9049 30.4459 18.2489 30.3921C18.0597 30.8363 17.808 31.2511 17.5014 31.624H17.6351H17.8856C18.6077 30.6138 19.0132 29.4118 19.0506 28.1706C19.1425 26.4001 18.6331 24.4626 17.7979 23.498C18.2885 22.4321 19.0665 21.5241 20.0445 20.8757C21.3473 22.2453 22.2033 25.0806 22.1323 27.8408C22.1108 28.7396 21.9818 29.6325 21.7481 30.5007C21.8734 30.4255 21.9987 30.3545 22.1156 30.2752C22.3071 29.4786 22.4135 28.664 22.433 27.8449C22.5039 25.0389 21.627 22.1409 20.295 20.7003C20.5458 20.5316 20.8066 20.3782 21.0758 20.241C21.6582 19.9395 22.2814 19.7242 22.9257 19.6021C23.9988 20.8339 25.0135 23.3602 25.239 26.2832C25.3267 26.041 25.4019 25.7988 25.4645 25.5525C25.1472 22.9594 24.2494 20.7462 23.2765 19.5353C23.7633 19.48 24.2555 19.4955 24.7379 19.5812Z" fill="black"/>
</svg>
