<svg width="39" height="15" viewBox="0 0 39 15" fill="none" xmlns="http://www.w3.org/2000/svg">
<path d="M26.4004 7.24609H35.7585V11.1035H26.4004V7.24609Z" fill="#5F7381"/>
<path d="M37.9105 5.81445C37.9105 5.81445 39.0225 5.91617 38.9996 6.33971C38.9006 7.94184 38.4647 9.51488 37.7131 10.9817H36.2598L37.9105 5.81445Z" fill="#5F7381"/>
<path d="M31.1292 8.42773C29.1864 8.42773 27.6113 9.7902 27.6113 11.471C27.6113 13.1517 29.1863 14.5142 31.1292 14.5142C33.072 14.5142 34.647 13.1517 34.647 11.471C34.647 11.4699 34.647 11.4688 34.647 11.4677C34.647 9.7888 33.0737 8.42773 31.133 8.42773C31.1317 8.42773 31.1305 8.42773 31.1292 8.42773Z" fill="#5F7381"/>
<path d="M31.13 9.66407C29.9773 9.66226 29.0411 10.4691 29.0391 11.4664C29.037 12.4635 29.9697 13.2734 31.1224 13.2752C32.2752 13.277 33.2113 12.4702 33.2134 11.4729C33.2134 11.4707 33.2134 11.4685 33.2134 11.4664C33.2134 10.471 32.2806 9.66407 31.13 9.66407Z" fill="#EBF0F3"/>
<path d="M31.1294 10.8672C30.7355 10.8672 30.416 11.1436 30.416 11.4843C30.416 11.8251 30.7355 12.1015 31.1294 12.1015C31.5234 12.1015 31.8428 11.8251 31.8428 11.4843C31.8428 11.1434 31.5235 10.8672 31.1294 10.8672Z" fill="#5F7381"/>
<path d="M37.1589 10.9549L35.9065 11.1716C35.6419 11.2163 35.3774 11.0944 35.2728 10.8795L34.5139 9.23801C34.2617 8.70548 33.6611 8.35868 32.996 8.36149H29.5313C28.8181 8.35882 28.186 8.758 27.9716 9.3464L27.1444 11.6772C26.9242 12.2748 26.2754 12.6757 25.5505 12.6621L13.1604 12.4389C12.4125 12.4251 11.7713 11.9732 11.6045 11.3424L11.4262 10.6858C11.2548 10.0457 10.5956 9.59254 9.83609 9.59261H6.50409C5.94135 9.5902 5.4168 9.83822 5.11522 10.2491L4.43213 11.2274C4.13664 11.6461 3.61024 11.9011 3.04326 11.9003H0.386719C0.386719 11.9003 0.386719 10.7185 0.659987 7.99701C0.933256 5.27549 5.50985 4.80609 5.50985 4.80609V4.74376C5.50985 4.71419 5.50985 4.67154 5.53639 4.62222V4.56642C5.67688 4.10023 6.14735 3.00373 7.73743 1.67424C9.85491 -0.0984851 18.7425 -0.213414 21.1978 0.19698C21.7058 0.29796 22.1815 0.495315 22.5905 0.774763C22.8818 1.38231 23.2361 1.96577 23.6493 2.51792C24.2034 3.15477 25.1103 3.54868 25.3683 3.94599C25.4518 4.07727 25.6644 4.20535 25.7061 4.2743C25.7488 4.34805 25.8347 4.39583 25.93 4.3991C29.9496 4.56709 33.9444 5.03949 37.8686 5.81076C39.1397 7.35035 37.1589 10.9549 37.1589 10.9549Z" fill="#EEAA38"/>
<path d="M0.440316 11.0072L0.466856 10.459C0.24011 10.4569 0.043915 10.5949 1.60843e-05 10.7873V11.5785C-0.00206699 11.7942 0.198448 11.9706 0.4478 11.9724H0.45158H1.74185V11.0204C1.30826 11.0473 0.872902 11.0429 0.440316 11.0072Z" fill="#5F7381"/>
<path d="M36.181 10.4961H37.513C37.7456 10.4961 37.9343 10.6592 37.9343 10.8605V11.1067C37.9343 11.3079 37.7457 11.4711 37.513 11.4711H36.181C35.9484 11.4711 35.7598 11.308 35.7598 11.1067V10.8605C35.7598 10.6592 35.9484 10.4961 36.181 10.4961Z" fill="#5F7381"/>
<path d="M24.5305 4.57684L21.6881 1.26112C21.4033 0.928543 20.9595 0.725782 20.4813 0.709564L15.882 0.558594C12.0379 0.61439 10.1404 1.36944 9.22578 1.99321C8.22012 2.67931 8.1405 3.34246 8.13672 3.37202V7.91219C8.1388 8.37144 8.56977 8.74279 9.10064 8.74272H11.1271C11.8895 8.74433 12.567 9.16326 12.8158 9.7867L13.4002 11.2475H23.8094C24.3046 11.2457 24.705 10.8979 24.705 10.4695V5.03963C24.706 4.87318 24.6447 4.71079 24.5305 4.57684ZM12.9107 9.77028C12.6455 9.11394 11.9309 8.67331 11.1271 8.67051H9.10064C8.62485 8.67058 8.23917 8.337 8.2391 7.92541C8.2391 7.921 8.2391 7.9166 8.23918 7.91212V3.3785C8.23918 3.33912 8.34541 2.70227 9.29792 2.06542C10.2504 1.42857 12.0643 0.716171 15.8327 0.657104L16.3678 11.1819H13.4723L12.9107 9.77028ZM24.6064 10.4826C24.6064 10.8634 24.2497 11.172 23.8095 11.172H16.4627L15.9353 0.647161L20.4891 0.79813C20.9397 0.80734 21.3601 0.99642 21.6276 1.31024L24.432 4.62924C24.5349 4.74757 24.5908 4.89146 24.5913 5.03956L24.6064 10.4826Z" fill="#DB9A2C"/>
<path d="M16.584 1.74466L16.6561 4.01314C16.6682 4.19755 16.8447 4.34178 17.0584 4.34145H22.3711C22.5933 4.33964 22.7716 4.1824 22.7695 3.99018C22.7688 3.92631 22.7479 3.86384 22.7088 3.80958L21.0694 1.58381C20.9966 1.48497 20.871 1.42443 20.7355 1.4229L16.9862 1.38352C16.7772 1.37171 16.5965 1.5088 16.5828 1.68967C16.5815 1.70802 16.5818 1.72637 16.584 1.74466Z" fill="#5F7381"/>
<path d="M14.9714 4.0054L14.8348 1.74026C14.8348 1.55899 14.6649 1.41195 14.4553 1.41195C13.3168 1.35289 9.76493 1.37912 8.8655 3.86418C8.83294 3.95735 8.84529 4.05799 8.89968 4.14322L9.04773 4.3632C9.12048 4.48347 9.27124 4.55262 9.42724 4.53713L14.6034 4.36968C14.8195 4.35413 14.9824 4.19295 14.9714 4.0054Z" fill="#5F7381"/>
<path d="M25.7494 4.27492C25.0663 3.38859 23.4724 1.43854 22.6339 0.775391C22.5884 0.775391 22.0002 0.77539 22.1633 1.0774C22.2923 1.32688 23.4042 2.39047 24.0607 3.20138C24.4762 3.70635 25.0681 4.08257 25.7494 4.27492Z" fill="#5F7381"/>
<path d="M8.13699 8.42773C6.19418 8.42773 4.61914 9.7902 4.61914 11.471C4.61914 13.1517 6.1941 14.5142 8.13699 14.5142C10.0799 14.5142 11.6548 13.1517 11.6548 11.471C11.6548 11.4699 11.6548 11.4688 11.6548 11.4677C11.6548 9.7888 10.0815 8.42773 8.14077 8.42773C8.13954 8.42773 8.1383 8.42773 8.13699 8.42773Z" fill="#5F7381"/>
<path d="M8.13599 9.66406C6.98328 9.66406 6.04883 10.4725 6.04883 11.4696C6.04883 12.4668 6.98336 13.2752 8.13599 13.2752C9.28863 13.2752 10.2232 12.4667 10.2232 11.4696C10.2232 11.4686 10.2232 11.4674 10.2232 11.4664C10.2232 10.471 9.2904 9.66406 8.13977 9.66406C8.13854 9.66406 8.1373 9.66406 8.13599 9.66406Z" fill="#EBF0F3"/>
<path d="M8.13529 10.8672C7.74136 10.8672 7.42188 11.1436 7.42188 11.4843C7.42188 11.8251 7.74136 12.1015 8.13529 12.1015C8.52922 12.1015 8.8487 11.8251 8.8487 11.4843C8.8487 11.1434 8.52938 10.8672 8.13529 10.8672Z" fill="#5F7381"/>
</svg>
