<svg width="62" height="56" viewBox="0 0 62 56" fill="none" xmlns="http://www.w3.org/2000/svg">
<path d="M31 0L57.8468 14V42L31 56L4.15321 42V14L31 0Z" fill="#82B9A8"/>
<path d="M38.4614 29.2217H47.8195V33.0791H38.4614V29.2217Z" fill="#2F4859"/>
<path d="M49.971 27.7905C49.971 27.7905 51.083 27.8922 51.0602 28.3158C50.9611 29.9179 50.5252 31.491 49.7737 32.9577H48.3203L49.971 27.7905Z" fill="#3A556A"/>
<path d="M43.1897 30.4038C41.2469 30.4038 39.6719 31.7663 39.6719 33.447C39.6719 35.1278 41.2468 36.4902 43.1897 36.4902C45.1325 36.4902 46.7076 35.1278 46.7076 33.447C46.7076 33.446 46.7076 33.4448 46.7076 33.4438C46.7076 31.7649 45.1342 30.4038 43.1935 30.4038C43.1923 30.4038 43.191 30.4038 43.1897 30.4038Z" fill="#3A556A"/>
<path d="M43.1896 31.6411C42.0369 31.6393 41.1007 32.4462 41.0986 33.4434C41.0966 34.4406 42.0292 35.2504 43.182 35.2522C44.3347 35.254 45.2709 34.4472 45.273 33.45C45.273 33.4477 45.273 33.4455 45.273 33.4434C45.273 32.4481 44.3401 31.6411 43.1896 31.6411Z" fill="#EBF0F3"/>
<path d="M43.1895 32.8428C42.7956 32.8428 42.4761 33.1191 42.4761 33.4599C42.4761 33.8007 42.7956 34.0771 43.1895 34.0771C43.5834 34.0771 43.9029 33.8007 43.9029 33.4599C43.9029 33.119 43.5836 32.8428 43.1895 32.8428Z" fill="#3A556A"/>
<path d="M49.2199 32.9315L47.9676 33.1482C47.7029 33.1929 47.4385 33.071 47.3339 32.856L46.5749 31.2146C46.3227 30.682 45.7222 30.3352 45.0571 30.3381H41.5923C40.8792 30.3354 40.2471 30.7346 40.0326 31.323L39.2054 33.6538C38.9852 34.2513 38.3364 34.6523 37.6115 34.6387L25.2214 34.4154C24.4736 34.4016 23.8323 33.9498 23.6655 33.3189L23.4872 32.6624C23.3158 32.0223 22.6566 31.5691 21.8971 31.5692H18.5651C18.0024 31.5668 17.4778 31.8148 17.1763 32.2257L16.4932 33.2039C16.1977 33.6227 15.6713 33.8777 15.1043 33.8769H12.4478C12.4478 33.8769 12.4478 32.6951 12.721 29.9736C12.9943 27.252 17.5709 26.7827 17.5709 26.7827V26.7203C17.5709 26.6908 17.5709 26.6481 17.5974 26.5988V26.543C17.7379 26.0768 18.2084 24.9803 19.7985 23.6508C21.9159 21.8781 30.8035 21.7631 33.2588 22.1735C33.7669 22.2745 34.2425 22.4719 34.6516 22.7513C34.9428 23.3589 35.2972 23.9423 35.7103 24.4945C36.2644 25.1313 37.1714 25.5252 37.4294 25.9226C37.5129 26.0538 37.7254 26.1819 37.7671 26.2509C37.8099 26.3246 37.8958 26.3724 37.991 26.3757C42.0106 26.5437 46.0054 27.0161 49.9296 27.7873C51.2007 29.3269 49.2199 32.9315 49.2199 32.9315Z" fill="#FCD462"/>
<path d="M12.5009 32.9838L12.5274 32.4356C12.3007 32.4334 12.1045 32.5715 12.0606 32.7639V33.555C12.0585 33.7708 12.259 33.9471 12.5083 33.9489H12.5121H13.8024V32.9969C13.3688 33.0239 12.9334 33.0195 12.5009 32.9838Z" fill="#3A556A"/>
<path d="M48.2406 32.4717H49.5726C49.8052 32.4717 49.9938 32.6348 49.9938 32.8361V33.0823C49.9938 33.2835 49.8053 33.4467 49.5726 33.4467H48.2406C48.008 33.4467 47.8193 33.2836 47.8193 33.0823V32.8361C47.8194 32.6348 48.008 32.4717 48.2406 32.4717Z" fill="#3A556A"/>
<path d="M36.5906 26.5529L33.7482 23.2372C33.4633 22.9046 33.0196 22.7019 32.5414 22.6856L27.942 22.5347C24.0979 22.5905 22.2005 23.3455 21.2858 23.9693C20.2802 24.6554 20.2006 25.3185 20.1968 25.3481V29.8883C20.1989 30.3475 20.6298 30.7189 21.1607 30.7188H23.1871C23.9496 30.7204 24.6271 31.1393 24.8758 31.7628L25.4602 33.2236H35.8694C36.3647 33.2218 36.7651 32.874 36.7651 32.4455V27.0157C36.766 26.8492 36.7048 26.6869 36.5906 26.5529ZM24.9708 31.7464C24.7056 31.09 23.991 30.6494 23.1871 30.6466H21.1607C20.6849 30.6467 20.2992 30.3131 20.2992 29.9015C20.2992 29.8971 20.2992 29.8927 20.2992 29.8882V25.3546C20.2992 25.3152 20.4055 24.6783 21.358 24.0415C22.3105 23.4046 24.1244 22.6922 27.8927 22.6332L28.4279 33.158H25.5324L24.9708 31.7464ZM36.6665 32.4587C36.6665 32.8394 36.3097 33.1481 35.8696 33.1481H28.5228L27.9953 22.6232L32.5492 22.7742C32.9997 22.7834 33.4201 22.9725 33.6877 23.2863L36.4921 26.6053C36.595 26.7236 36.6508 26.8675 36.6514 27.0156L36.6665 32.4587Z" fill="#F7BE56"/>
<path d="M28.6441 23.7198L28.7162 25.9882C28.7283 26.1726 28.9048 26.3169 29.1184 26.3165H34.4312C34.6534 26.3147 34.8317 26.1575 34.8296 25.9653C34.8289 25.9014 34.8079 25.8389 34.7689 25.7847L33.1295 23.5589C33.0567 23.4601 32.9311 23.3995 32.7956 23.398L29.0463 23.3586C28.8372 23.3468 28.6565 23.4839 28.6429 23.6648C28.6416 23.6831 28.6419 23.7015 28.6441 23.7198Z" fill="#3A556A"/>
<path d="M27.0314 25.9815L26.8949 23.7163C26.8949 23.5351 26.725 23.388 26.5154 23.388C25.3769 23.329 21.825 23.3552 20.9256 25.8403C20.893 25.9334 20.9053 26.0341 20.9597 26.1193L21.1078 26.3393C21.1805 26.4595 21.3313 26.5287 21.4873 26.5132L26.6635 26.3458C26.8795 26.3302 27.0425 26.169 27.0314 25.9815Z" fill="#3A556A"/>
<path d="M37.8085 26.251C37.1254 25.3647 35.5315 23.4146 34.693 22.7515C34.6474 22.7515 34.0592 22.7515 34.2223 23.0535C34.3513 23.303 35.4633 24.3665 36.1198 25.1775C36.5353 25.6824 37.1272 26.0586 37.8085 26.251Z" fill="#3A556A"/>
<path d="M20.1966 30.4038C18.2537 30.4038 16.6787 31.7663 16.6787 33.447C16.6787 35.1278 18.2537 36.4902 20.1966 36.4902C22.1395 36.4902 23.7144 35.1278 23.7144 33.447C23.7144 33.446 23.7144 33.4448 23.7144 33.4438C23.7144 31.7649 22.1411 30.4038 20.2003 30.4038C20.1991 30.4038 20.1979 30.4038 20.1966 30.4038Z" fill="#3A556A"/>
<path d="M20.1965 31.6411C19.0438 31.6411 18.1094 32.4496 18.1094 33.4467C18.1094 34.4439 19.0439 35.2522 20.1965 35.2522C21.3492 35.2522 22.2837 34.4438 22.2837 33.4467C22.2837 33.4456 22.2837 33.4445 22.2837 33.4434C22.2837 32.4481 21.3509 31.6411 20.2003 31.6411C20.1991 31.6411 20.1979 31.6411 20.1965 31.6411Z" fill="#EBF0F3"/>
<path d="M20.1968 32.8428C19.8029 32.8428 19.4834 33.1191 19.4834 33.4599C19.4834 33.8007 19.8029 34.0771 20.1968 34.0771C20.5907 34.0771 20.9102 33.8007 20.9102 33.4599C20.9102 33.119 20.5909 32.8428 20.1968 32.8428Z" fill="#3A556A"/>
</svg>
