<svg width="40" height="16" viewBox="0 0 40 16" fill="none" xmlns="http://www.w3.org/2000/svg">
<path d="M26.4614 8.22168H35.8195V12.0791H26.4614V8.22168Z" fill="#2F4859"/>
<path d="M37.971 6.79053C37.971 6.79053 39.083 6.89224 39.0602 7.31578C38.9611 8.91792 38.5252 10.491 37.7737 11.9577H36.3203L37.971 6.79053Z" fill="#3A556A"/>
<path d="M31.1897 9.40381C29.2469 9.40381 27.6719 10.7663 27.6719 12.447C27.6719 14.1278 29.2468 15.4902 31.1897 15.4902C33.1325 15.4902 34.7076 14.1278 34.7076 12.447C34.7076 12.446 34.7076 12.4448 34.7076 12.4438C34.7076 10.7649 33.1342 9.40381 31.1935 9.40381C31.1923 9.40381 31.191 9.40381 31.1897 9.40381Z" fill="#3A556A"/>
<path d="M31.1896 10.6411C30.0369 10.6393 29.1007 11.4462 29.0986 12.4434C29.0966 13.4406 30.0292 14.2504 31.182 14.2522C32.3347 14.254 33.2709 13.4472 33.273 12.45C33.273 12.4477 33.273 12.4455 33.273 12.4434C33.273 11.4481 32.3401 10.6411 31.1896 10.6411Z" fill="#EBF0F3"/>
<path d="M31.1895 11.8428C30.7956 11.8428 30.4761 12.1191 30.4761 12.4599C30.4761 12.8007 30.7956 13.0771 31.1895 13.0771C31.5834 13.0771 31.9029 12.8007 31.9029 12.4599C31.9029 12.119 31.5836 11.8428 31.1895 11.8428Z" fill="#3A556A"/>
<path d="M37.2199 11.9315L35.9676 12.1482C35.7029 12.1929 35.4385 12.071 35.3339 11.856L34.5749 10.2146C34.3227 9.68204 33.7222 9.33525 33.0571 9.33805H29.5923C28.8792 9.33538 28.2471 9.73456 28.0326 10.323L27.2054 12.6538C26.9852 13.2513 26.3364 13.6523 25.6115 13.6387L13.2214 13.4154C12.4736 13.4016 11.8323 12.9498 11.6655 12.3189L11.4872 11.6624C11.3158 11.0223 10.6566 10.5691 9.89712 10.5692H6.56513C6.00239 10.5668 5.47784 10.8148 5.17626 11.2257L4.49316 12.2039C4.19767 12.6227 3.67127 12.8777 3.10429 12.8769H0.447754C0.447754 12.8769 0.447754 11.6951 0.721022 8.97357C0.994291 6.25205 5.57088 5.78266 5.57088 5.78266V5.72032C5.57088 5.69075 5.57088 5.6481 5.59742 5.59878V5.54299C5.73792 5.0768 6.20838 3.9803 7.79846 2.6508C9.91595 0.878077 18.8035 0.763148 21.2588 1.17354C21.7669 1.27452 22.2425 1.47188 22.6516 1.75133C22.9428 2.35887 23.2972 2.94233 23.7103 3.49448C24.2644 4.13133 25.1714 4.52524 25.4294 4.92256C25.5129 5.05384 25.7254 5.18191 25.7671 5.25086C25.8099 5.32461 25.8958 5.37239 25.991 5.37566C30.0106 5.54365 34.0054 6.01605 37.9296 6.78732C39.2007 8.32692 37.2199 11.9315 37.2199 11.9315Z" fill="#FCD462"/>
<path d="M0.500863 11.9838L0.527403 11.4356C0.300657 11.4334 0.104462 11.5715 0.060563 11.7639V12.555C0.0584799 12.7708 0.258995 12.9471 0.508347 12.9489H0.512127H1.8024V11.9969C1.36881 12.0239 0.933449 12.0195 0.500863 11.9838Z" fill="#3A556A"/>
<path d="M36.2406 11.4717H37.5726C37.8052 11.4717 37.9938 11.6348 37.9938 11.8361V12.0823C37.9938 12.2835 37.8053 12.4467 37.5726 12.4467H36.2406C36.008 12.4467 35.8193 12.2836 35.8193 12.0823V11.8361C35.8194 11.6348 36.008 11.4717 36.2406 11.4717Z" fill="#3A556A"/>
<path d="M24.5906 5.55292L21.7482 2.23719C21.4633 1.90462 21.0196 1.70186 20.5414 1.68564L15.942 1.53467C12.0979 1.59046 10.2005 2.34551 9.28584 2.96928C8.28018 3.65539 8.20056 4.31853 8.19678 4.3481V8.88827C8.19886 9.34751 8.62983 9.71887 9.1607 9.7188H11.1871C11.9496 9.7204 12.6271 10.1393 12.8758 10.7628L13.4602 12.2236H23.8694C24.3647 12.2218 24.7651 11.874 24.7651 11.4455V6.0157C24.766 5.84925 24.7048 5.68687 24.5906 5.55292ZM12.9708 10.7464C12.7056 10.09 11.991 9.64939 11.1871 9.64658H9.1607C8.68491 9.64665 8.29923 9.31308 8.29916 8.90148C8.29916 8.89708 8.29916 8.89267 8.29923 8.8882V4.35457C8.29923 4.31519 8.40547 3.67834 9.35798 3.0415C10.3105 2.40465 12.1244 1.69224 15.8927 1.63318L16.4279 12.158H13.5324L12.9708 10.7464ZM24.6665 11.4587C24.6665 11.8394 24.3097 12.1481 23.8696 12.1481H16.5228L15.9953 1.62323L20.5492 1.7742C20.9997 1.78341 21.4201 1.97249 21.6877 2.28631L24.4921 5.60531C24.595 5.72364 24.6508 5.86754 24.6514 6.01564L24.6665 11.4587Z" fill="#F7BE56"/>
<path d="M16.6441 2.71976L16.7162 4.98824C16.7283 5.17265 16.9048 5.31688 17.1184 5.31654H22.4312C22.6534 5.31474 22.8317 5.1575 22.8296 4.96528C22.8289 4.90141 22.8079 4.83894 22.7689 4.78468L21.1295 2.55891C21.0567 2.46007 20.9311 2.39953 20.7956 2.398L17.0463 2.35862C16.8372 2.34681 16.6565 2.48389 16.6429 2.66476C16.6416 2.68312 16.6419 2.70147 16.6441 2.71976Z" fill="#3A556A"/>
<path d="M15.0314 4.98148L14.8949 2.71633C14.8949 2.53506 14.725 2.38803 14.5154 2.38803C13.3769 2.32896 9.82498 2.35519 8.92556 4.84025C8.893 4.93342 8.90535 5.03407 8.95974 5.1193L9.10779 5.33928C9.18054 5.45955 9.3313 5.52869 9.48729 5.51321L14.6635 5.34575C14.8795 5.3302 15.0425 5.16902 15.0314 4.98148Z" fill="#3A556A"/>
<path d="M25.8085 5.251C25.1254 4.36467 23.5315 2.41461 22.693 1.75146C22.6474 1.75146 22.0592 1.75146 22.2223 2.05347C22.3513 2.30295 23.4633 3.36655 24.1198 4.17746C24.5353 4.68243 25.1272 5.05865 25.8085 5.251Z" fill="#3A556A"/>
<path d="M8.19656 9.40381C6.25375 9.40381 4.67871 10.7663 4.67871 12.447C4.67871 14.1278 6.25367 15.4902 8.19656 15.4902C10.1395 15.4902 11.7144 14.1278 11.7144 12.447C11.7144 12.446 11.7144 12.4448 11.7144 12.4438C11.7144 10.7649 10.1411 9.40381 8.20034 9.40381C8.19911 9.40381 8.19787 9.40381 8.19656 9.40381Z" fill="#3A556A"/>
<path d="M8.19654 10.6411C7.04383 10.6411 6.10938 11.4496 6.10938 12.4467C6.10938 13.4439 7.0439 14.2522 8.19654 14.2522C9.34917 14.2522 10.2837 13.4438 10.2837 12.4467C10.2837 12.4456 10.2837 12.4445 10.2837 12.4434C10.2837 11.4481 9.35095 10.6411 8.20032 10.6411C8.19909 10.6411 8.19785 10.6411 8.19654 10.6411Z" fill="#EBF0F3"/>
<path d="M8.19681 11.8428C7.80288 11.8428 7.4834 12.1191 7.4834 12.4599C7.4834 12.8007 7.80288 13.0771 8.19681 13.0771C8.59075 13.0771 8.91023 12.8007 8.91023 12.4599C8.91023 12.119 8.5909 11.8428 8.19681 11.8428Z" fill="#3A556A"/>
</svg>
