<svg width="31" height="27" viewBox="0 0 31 27" fill="none" xmlns="http://www.w3.org/2000/svg">
<path fill-rule="evenodd" clip-rule="evenodd" d="M14.2689 9.57008C14.139 11.6914 12.3656 13.3734 10.1972 13.3734C8.02947 13.3734 6.25673 11.6914 6.12684 9.56942C6.10826 9.28393 6.12093 8.99726 6.16462 8.71453C6.39391 7.18633 7.4834 5.93779 8.9281 5.46859C8.97096 5.18555 8.98384 4.89878 8.96654 4.61304C6.99168 5.12001 5.5039 6.82117 5.32166 8.89412C5.29734 9.16458 5.29646 9.43664 5.31902 9.70726C5.5165 12.2123 7.62523 14.1838 10.1972 14.1838C12.7692 14.1838 14.8792 12.2123 15.0774 9.70726C14.8045 9.68457 14.534 9.63868 14.2689 9.57008Z" fill="#FEAF30"/>
<path fill-rule="evenodd" clip-rule="evenodd" d="M9.77559 4.47526C9.57677 1.97023 7.46804 0 4.89475 0C2.19223 0 0 2.17699 0 4.86294C0 7.54889 2.19223 9.72588 4.89475 9.72588C5.0379 9.72588 5.17972 9.71926 5.31955 9.70667C5.29584 9.43611 5.2965 9.16396 5.32153 8.89352C5.17975 8.90819 5.03728 8.91527 4.89475 8.91473C2.64287 8.91473 0.816452 7.1009 0.816452 4.86294C0.816452 2.62432 2.64287 0.809827 4.89475 0.809827C7.06379 0.809827 8.83785 2.49112 8.96642 4.61376C8.98513 4.89923 8.97269 5.18589 8.92931 5.46866C8.69935 6.9962 7.60919 8.24473 6.16582 8.71459C6.12083 8.9972 6.10771 9.28396 6.12672 9.56949C8.0996 9.06119 9.5887 7.36267 9.77161 5.2884C9.784 5.14693 9.78997 5.00496 9.7895 4.86294C9.7895 4.73239 9.78421 4.60382 9.77559 4.47526Z" fill="#0181CC"/>
<path fill-rule="evenodd" clip-rule="evenodd" d="M15.9267 8.89354C15.6428 8.92114 15.3569 8.92114 15.0731 8.89354C14.7871 8.86328 14.505 8.80331 14.2314 8.71461C12.7874 8.24409 11.6979 6.99621 11.4666 5.46735C11.1932 5.37847 10.9111 5.31916 10.625 5.29041C10.8066 7.36202 12.2957 9.06121 14.2699 9.57016C14.6725 9.67277 15.0863 9.7253 15.5019 9.72657C15.6443 9.72657 15.7835 9.71929 15.924 9.70668C15.9137 9.57815 15.9084 9.44926 15.9081 9.32032C15.9081 9.17651 15.9147 9.03403 15.9267 8.89354Z" fill="black"/>
<path fill-rule="evenodd" clip-rule="evenodd" d="M11.4296 4.61311C11.0271 4.5087 10.6128 4.45657 10.1969 4.45804C10.0558 4.45804 9.91462 4.46466 9.77546 4.47527C9.79588 4.74665 9.79455 5.01923 9.77148 5.2904C10.0551 5.26173 10.3408 5.26173 10.6244 5.2904C11.5199 5.38115 12.36 5.76663 13.0128 6.38635C13.6657 7.00608 14.0943 7.82498 14.2315 8.7146C14.5012 8.80208 14.7815 8.86371 15.0731 8.89353C14.8916 6.82125 13.4031 5.12008 11.4296 4.61311Z" fill="#FEAF30"/>
<path fill-rule="evenodd" clip-rule="evenodd" d="M20.3801 4.47526C20.1826 1.97023 18.0726 0 15.5006 0C12.9293 0 10.8199 1.97089 10.6211 4.47526C10.8974 4.49845 11.1672 4.54551 11.4296 4.6131C11.5595 2.49112 13.3322 0.809164 15.5006 0.809164C17.669 0.809164 19.4411 2.49112 19.5716 4.6131C19.5892 4.89858 19.5768 5.18512 19.5345 5.46799C19.4194 6.21185 19.1001 6.90917 18.6122 7.48236C18.1243 8.05554 17.4869 8.48211 16.771 8.71459C16.7267 8.99727 16.7138 9.28398 16.7326 9.56949C18.7055 9.06119 20.1946 7.36267 20.3761 5.2884C20.4001 5.01794 20.4014 4.74594 20.3801 4.47526Z" fill="black"/>
<path fill-rule="evenodd" clip-rule="evenodd" d="M24.8746 9.57008C24.7441 11.6914 22.9713 13.3734 20.8043 13.3734C18.6346 13.3734 16.8625 11.6914 16.7333 9.56942C16.7155 9.28395 16.7279 8.99739 16.7704 8.71453C16.9997 7.18633 18.0892 5.93779 19.5339 5.46859C19.5637 5.26978 19.5803 5.06765 19.5803 4.86221C19.5803 4.77805 19.5756 4.69521 19.5716 4.61304C17.5981 5.12001 16.109 6.82117 15.9268 8.89412C15.9146 9.03584 15.9084 9.178 15.9082 9.32024C15.9082 9.45013 15.9148 9.57869 15.9241 9.70726C16.1223 12.2123 18.2303 14.1838 20.8043 14.1838C23.3756 14.1838 25.4843 12.2123 25.6825 9.70726C25.4095 9.68476 25.139 9.63887 24.874 9.57008" fill="#02A650"/>
<path fill-rule="evenodd" clip-rule="evenodd" d="M26.1058 0C23.5331 0 21.4251 1.97089 21.2256 4.47526C21.5026 4.49845 21.7736 4.54551 22.0341 4.61376C22.1653 2.49112 23.9374 0.809827 26.1058 0.809827C28.3576 0.809827 30.1847 2.62432 30.1847 4.86294C30.1847 7.1009 28.3576 8.91473 26.1058 8.91473C25.6746 8.91527 25.2461 8.84772 24.836 8.71459C23.3933 8.24473 22.3038 6.99619 22.0725 5.46932C21.7993 5.37921 21.5171 5.31921 21.2309 5.29039C21.4118 7.36201 22.9009 9.06119 24.8751 9.56949C25.1349 9.63775 25.4053 9.68413 25.6823 9.70667C25.8215 9.71991 25.962 9.72588 26.1058 9.72588C28.8089 9.72588 30.9998 7.54756 30.9998 4.86294C30.9998 2.17699 28.8089 0 26.1058 0Z" fill="#E7384F"/>
<path fill-rule="evenodd" clip-rule="evenodd" d="M22.0347 4.61311C21.6326 4.5088 21.2188 4.45668 20.8034 4.45803C20.6603 4.45803 20.5191 4.46466 20.3806 4.47526C20.4008 4.74666 20.3993 5.01924 20.376 5.29039C20.6602 5.26186 20.9466 5.26186 21.2309 5.29039C21.5198 5.32021 21.8034 5.38052 22.0725 5.46866C23.5172 5.93852 24.6067 7.18706 24.836 8.7146C25.1064 8.80207 25.388 8.86371 25.6783 8.89353C25.4974 6.82124 24.0076 5.12008 22.0347 4.61311Z" fill="#02A650"/>
<path d="M13.6338 7.79441C13.5708 7.79402 13.5086 7.77948 13.4519 7.75192L6.33713 4.3639C6.18899 4.30571 6.08583 4.16963 6.06956 4.01135C6.05349 3.85307 6.12717 3.699 6.26038 3.61192C6.39378 3.52503 6.5645 3.51986 6.70288 3.59871L13.8171 6.98616C13.9951 7.07229 14.0902 7.26999 14.0464 7.46292C14.0028 7.65565 13.8317 7.79307 13.6338 7.79402V7.79441Z" fill="#4A5B66"/>
<path d="M24.3783 12.9103C24.3151 12.9098 24.2527 12.8952 24.1959 12.8679L22.4751 12.0489C22.263 11.9478 22.1729 11.6941 22.2737 11.4818C22.3748 11.2697 22.6286 11.1796 22.8408 11.2805L24.5611 12.1025C24.7391 12.1886 24.8342 12.3861 24.7905 12.579C24.7469 12.7718 24.576 12.9092 24.3783 12.9103Z" fill="#4A5B66"/>
<path d="M22.6518 11.673C22.2058 12.2083 21.4217 12.3067 20.8575 11.8983L17.8385 9.79373L16.5971 10.4144C15.1419 9.96694 13.8173 9.17324 12.7363 8.10144L16.767 4.82328C17.9497 3.8602 19.6689 3.94843 20.7469 5.02731C21.1738 5.45373 21.469 5.99384 21.5972 6.58351L21.8481 7.76134C21.8983 7.99005 21.7536 8.21647 21.5249 8.26719L20.9212 8.39485C20.8383 8.41246 20.7738 8.47791 20.7572 8.56098C20.7405 8.64404 20.775 8.72921 20.8447 8.77744L22.3754 9.84464C22.6629 10.0441 22.8556 10.3532 22.9079 10.6992C22.9603 11.0452 22.8675 11.3976 22.6518 11.673Z" fill="#EEAA38"/>
<path d="M17.4441 9.94712C17.3574 9.94731 17.2728 9.92071 17.2018 9.87094C16.8489 9.625 16.6024 9.25447 16.5117 8.83398L16.3488 8.07798C16.1518 7.16007 16.735 6.25574 17.6525 6.0565L18.5152 5.86989C18.7448 5.82032 18.971 5.96635 19.0206 6.19583C19.07 6.42531 18.9242 6.65154 18.6947 6.70111L17.8319 6.88772C17.6114 6.93537 17.4189 7.06858 17.2967 7.25806C17.1745 7.44773 17.1325 7.67797 17.1802 7.89846L17.3429 8.65407C17.3884 8.8646 17.5121 9.04987 17.6891 9.17275C17.8418 9.27897 17.9077 9.47208 17.852 9.6495C17.7961 9.82692 17.6315 9.9475 17.4455 9.94712H17.4441Z" fill="#F19937"/>
<path d="M19.3994 16.8858L13.4169 19.5474C13.0971 19.6897 12.7328 19.6941 12.4098 19.5597C12.0865 19.4255 11.8327 19.1643 11.7077 18.8374C11.4811 18.1784 11.8048 17.4569 12.4475 17.1878L16.6355 15.3211C16.7777 15.2578 16.8738 15.1219 16.8862 14.9667C16.8985 14.8116 16.8254 14.6622 16.6952 14.577L12.6559 11.9877C11.9956 11.5471 11.601 10.8043 11.6055 10.0106C11.6027 9.6653 11.6813 9.32444 11.8352 9.01553C11.9749 8.77916 12.1564 8.57035 12.3709 8.39906L12.7367 8.10144C13.8177 9.17324 15.1423 9.96694 16.5974 10.4144L16.3465 10.5421C16.2654 10.6355 16.229 10.7599 16.247 10.8824C16.265 11.0049 16.3354 11.1136 16.4401 11.1798L19.6459 13.4419C20.258 13.8262 20.6082 14.5169 20.5568 15.2379C20.5051 15.9588 20.0601 16.5925 19.3994 16.8858Z" fill="#4A5B66"/>
<path d="M25.866 3.55607C25.866 4.9651 24.7238 6.10733 23.3147 6.10733C21.9059 6.10733 20.7637 4.9651 20.7637 3.55607C20.7637 2.14723 21.9059 1.005 23.3147 1.005C24.7238 1.005 25.866 2.14723 25.866 3.55607Z" fill="#FEDEBB"/>
<path d="M7.79601 6.10723C7.64883 6.10703 7.51199 6.03086 7.43467 5.9055C7.35715 5.78014 7.35007 5.62377 7.41591 5.4919L8.26626 3.79119C8.37134 3.58104 8.62685 3.49568 8.837 3.60076C9.04714 3.70564 9.13231 3.96115 9.02743 4.17129L8.17708 5.872C8.10492 6.01631 7.95736 6.10742 7.79601 6.10723Z" fill="#95C2D5"/>
<path d="M22.9229 26.095C22.2675 26.0944 21.625 25.9126 21.0664 25.5698L5.44839 16.0473C5.3171 15.969 5.23805 15.8262 5.24131 15.6733C5.24456 15.5204 5.32954 15.381 5.46409 15.3083C5.59845 15.2356 5.7617 15.2406 5.89147 15.3215L21.5091 24.8458C22.4557 25.4272 23.6616 25.3694 24.5484 24.7003C24.7361 24.5594 25.0027 24.5975 25.1436 24.7855C25.2845 24.9732 25.2464 25.2398 25.0586 25.3807C24.4429 25.8441 23.6934 26.0948 22.9229 26.095Z" fill="#5F7381"/>
</svg>
