<svg width="62" height="56" viewBox="0 0 62 56" fill="none" xmlns="http://www.w3.org/2000/svg">
<path d="M31 0L57.8468 14V42L31 56L4.15321 42V14L31 0Z" fill="#E6B8AF"/>
<path d="M43.8949 31.8006C46.8975 31.8006 49.3317 29.3893 49.3317 26.4149C49.3317 23.4405 46.8975 21.0293 43.8949 21.0293C40.8922 21.0293 38.458 23.4405 38.458 26.4149C38.458 29.3893 40.8922 31.8006 43.8949 31.8006Z" stroke="#EA6153" stroke-width="1.5" stroke-linecap="round" stroke-linejoin="round"/>
<path d="M37.3001 36.7342C40.3028 36.7342 42.737 34.323 42.737 31.3486C42.737 28.3741 40.3028 25.9629 37.3001 25.9629C34.2974 25.9629 31.8633 28.3741 31.8633 31.3486C31.8633 34.323 34.2974 36.7342 37.3001 36.7342Z" stroke="#2ECC71" stroke-width="1.5" stroke-linecap="round" stroke-linejoin="round"/>
<path d="M30.7054 31.7713C33.7081 31.7713 36.1422 29.3601 36.1422 26.3857C36.1422 23.4112 33.7081 21 30.7054 21C27.7027 21 25.2686 23.4112 25.2686 26.3857C25.2686 29.3601 27.7027 31.7713 30.7054 31.7713Z" stroke="#3B3C3D" stroke-width="1.5" stroke-linecap="round" stroke-linejoin="round"/>
<path d="M17.4368 31.7713C20.4395 31.7713 22.8737 29.3601 22.8737 26.3857C22.8737 23.4112 20.4395 21 17.4368 21C14.4342 21 12 23.4112 12 26.3857C12 29.3601 14.4342 31.7713 17.4368 31.7713Z" stroke="#00A5EC" stroke-width="1.5" stroke-linecap="round" stroke-linejoin="round"/>
<path d="M39.1665 23.7559C39.7353 22.7633 40.6076 21.9754 41.6577 21.5058C42.7078 21.0362 43.8813 20.9092 45.0089 21.1431C46.1366 21.377 47.1601 21.9597 47.9318 22.8072C48.7035 23.6546 49.1835 24.723 49.3026 25.8583C49.4217 26.9935 49.1737 28.1368 48.5943 29.1233C48.015 30.1099 47.1343 30.8887 46.0793 31.3473C45.0243 31.8058 43.8495 31.9206 42.7244 31.6749C41.5993 31.4293 40.5821 30.8359 39.8195 29.9804" stroke="#EA6153" stroke-width="1.5" stroke-linecap="round" stroke-linejoin="round"/>
<path d="M24.1097 36.7342C27.1124 36.7342 29.5465 34.323 29.5465 31.3486C29.5465 28.3741 27.1124 25.9629 24.1097 25.9629C21.107 25.9629 18.6729 28.3741 18.6729 31.3486C18.6729 34.323 21.107 36.7342 24.1097 36.7342Z" stroke="#FFD632" stroke-width="1.5" stroke-linecap="round" stroke-linejoin="round"/>
<path d="M31.8864 31.6428C30.727 31.8986 29.515 31.7712 28.4356 31.2801C27.3562 30.789 26.4689 29.9612 25.9092 28.9233" stroke="#3B3C3D" stroke-width="1.5" stroke-linecap="round" stroke-linejoin="round"/>
<path d="M41.5338 34.7275C40.7342 35.7107 39.6114 36.3845 38.3614 36.631C37.1114 36.8776 35.8137 36.6812 34.6949 36.0763C33.5762 35.4713 32.7075 34.4963 32.2407 33.3214C31.7738 32.1465 31.7384 30.8465 32.1407 29.6484" stroke="#2ECC71" stroke-width="1.5" stroke-linecap="round" stroke-linejoin="round"/>
<path d="M21.9935 29.3242C21.5168 30.0493 20.8709 30.65 20.1102 31.0754C19.3496 31.5007 18.4967 31.7383 17.6237 31.768C16.7507 31.7976 15.8834 31.6185 15.0951 31.2457C14.3069 30.8729 13.6209 30.3175 13.0952 29.6264" stroke="#00A5EC" stroke-width="1.5" stroke-linecap="round" stroke-linejoin="round"/>
</svg>
