<svg width="39" height="18" viewBox="0 0 39 18" fill="none" xmlns="http://www.w3.org/2000/svg">
<path d="M32.6439 11.5506C35.6466 11.5506 38.0807 9.1393 38.0807 6.16489C38.0807 3.19047 35.6466 0.779297 32.6439 0.779297C29.6412 0.779297 27.207 3.19047 27.207 6.16489C27.207 9.1393 29.6412 11.5506 32.6439 11.5506Z" stroke="#EA6153" stroke-width="1.5" stroke-linecap="round" stroke-linejoin="round"/>
<path d="M26.0501 16.4842C29.0528 16.4842 31.487 14.073 31.487 11.0986C31.487 8.12414 29.0528 5.71289 26.0501 5.71289C23.0474 5.71289 20.6133 8.12414 20.6133 11.0986C20.6133 14.073 23.0474 16.4842 26.0501 16.4842Z" stroke="#2ECC71" stroke-width="1.5" stroke-linecap="round" stroke-linejoin="round"/>
<path d="M19.4544 11.5213C22.4571 11.5213 24.8913 9.11008 24.8913 6.13566C24.8913 3.16125 22.4571 0.75 19.4544 0.75C16.4517 0.75 14.0176 3.16125 14.0176 6.13566C14.0176 9.11008 16.4517 11.5213 19.4544 11.5213Z" stroke="#3B3C3D" stroke-width="1.5" stroke-linecap="round" stroke-linejoin="round"/>
<path d="M6.18684 11.5213C9.18953 11.5213 11.6237 9.11008 11.6237 6.13566C11.6237 3.16125 9.18953 0.75 6.18684 0.75C3.18416 0.75 0.75 3.16125 0.75 6.13566C0.75 9.11008 3.18416 11.5213 6.18684 11.5213Z" stroke="#00A5EC" stroke-width="1.5" stroke-linecap="round" stroke-linejoin="round"/>
<path d="M27.916 3.50637C28.4848 2.51382 29.3571 1.72592 30.4072 1.25632C31.4573 0.786725 32.6308 0.659724 33.7584 0.893613C34.8861 1.1275 35.9096 1.71018 36.6813 2.55764C37.453 3.4051 37.933 4.47354 38.0521 5.60876C38.1712 6.74397 37.9232 7.88726 37.3439 8.87381C36.7645 9.86035 35.8839 10.6392 34.8288 11.0977C33.7738 11.5563 32.5991 11.6711 31.474 11.4254C30.3489 11.1798 29.3316 10.5864 28.569 9.73089" stroke="#EA6153" stroke-width="1.5" stroke-linecap="round" stroke-linejoin="round"/>
<path d="M12.8587 16.4842C15.8614 16.4842 18.2956 14.073 18.2956 11.0986C18.2956 8.12414 15.8614 5.71289 12.8587 5.71289C9.85603 5.71289 7.42188 8.12414 7.42188 11.0986C7.42188 14.073 9.85603 16.4842 12.8587 16.4842Z" stroke="#FFD632" stroke-width="1.5" stroke-linecap="round" stroke-linejoin="round"/>
<path d="M20.6374 11.3933C19.478 11.6491 18.266 11.5216 17.1866 11.0305C16.1072 10.5394 15.2198 9.7117 14.6602 8.67383" stroke="#3B3C3D" stroke-width="1.5" stroke-linecap="round" stroke-linejoin="round"/>
<path d="M30.2843 14.4775C29.4847 15.4607 28.3619 16.1345 27.1119 16.381C25.8618 16.6276 24.5641 16.4312 23.4454 15.8263C22.3267 15.2213 21.458 14.2463 20.9911 13.0714C20.5243 11.8965 20.4889 10.5965 20.8912 9.39844" stroke="#2ECC71" stroke-width="1.5" stroke-linecap="round" stroke-linejoin="round"/>
<path d="M10.744 9.07422C10.2673 9.79933 9.62134 10.4 8.86069 10.8254C8.10005 11.2507 7.24715 11.4883 6.37419 11.518C5.50123 11.5476 4.63389 11.3685 3.84562 10.9957C3.05736 10.6229 2.37137 10.0675 1.8457 9.37638" stroke="#00A5EC" stroke-width="1.5" stroke-linecap="round" stroke-linejoin="round"/>
</svg>
