<svg width="40" height="18" viewBox="0 0 40 18" fill="none" xmlns="http://www.w3.org/2000/svg">
<path d="M32.8949 11.8006C35.8975 11.8006 38.3317 9.3893 38.3317 6.41489C38.3317 3.44047 35.8975 1.0293 32.8949 1.0293C29.8922 1.0293 27.458 3.44047 27.458 6.41489C27.458 9.3893 29.8922 11.8006 32.8949 11.8006Z" stroke="#EA6153" stroke-width="1.5" stroke-linecap="round" stroke-linejoin="round"/>
<path d="M26.3001 16.7342C29.3028 16.7342 31.737 14.323 31.737 11.3486C31.737 8.37414 29.3028 5.96289 26.3001 5.96289C23.2974 5.96289 20.8633 8.37414 20.8633 11.3486C20.8633 14.323 23.2974 16.7342 26.3001 16.7342Z" stroke="#2ECC71" stroke-width="1.5" stroke-linecap="round" stroke-linejoin="round"/>
<path d="M19.7054 11.7713C22.7081 11.7713 25.1422 9.36008 25.1422 6.38566C25.1422 3.41125 22.7081 1 19.7054 1C16.7027 1 14.2686 3.41125 14.2686 6.38566C14.2686 9.36008 16.7027 11.7713 19.7054 11.7713Z" stroke="#3B3C3D" stroke-width="1.5" stroke-linecap="round" stroke-linejoin="round"/>
<path d="M6.43684 11.7713C9.43953 11.7713 11.8737 9.36008 11.8737 6.38566C11.8737 3.41125 9.43953 1 6.43684 1C3.43416 1 1 3.41125 1 6.38566C1 9.36008 3.43416 11.7713 6.43684 11.7713Z" stroke="#00A5EC" stroke-width="1.5" stroke-linecap="round" stroke-linejoin="round"/>
<path d="M28.1665 3.75588C28.7353 2.76333 29.6076 1.97543 30.6577 1.50583C31.7078 1.03624 32.8813 0.909236 34.0089 1.14312C35.1366 1.37701 36.1601 1.9597 36.9318 2.80715C37.7035 3.65461 38.1835 4.72305 38.3026 5.85827C38.4217 6.99348 38.1737 8.13678 37.5943 9.12332C37.015 10.1099 36.1343 10.8887 35.0793 11.3473C34.0243 11.8058 32.8495 11.9206 31.7244 11.6749C30.5993 11.4293 29.5821 10.8359 28.8195 9.9804" stroke="#EA6153" stroke-width="1.5" stroke-linecap="round" stroke-linejoin="round"/>
<path d="M13.1097 16.7342C16.1124 16.7342 18.5465 14.323 18.5465 11.3486C18.5465 8.37414 16.1124 5.96289 13.1097 5.96289C10.107 5.96289 7.67285 8.37414 7.67285 11.3486C7.67285 14.323 10.107 16.7342 13.1097 16.7342Z" stroke="#FFD632" stroke-width="1.5" stroke-linecap="round" stroke-linejoin="round"/>
<path d="M20.8864 11.6428C19.727 11.8986 18.515 11.7712 17.4356 11.2801C16.3562 10.789 15.4689 9.96121 14.9092 8.92334" stroke="#3B3C3D" stroke-width="1.5" stroke-linecap="round" stroke-linejoin="round"/>
<path d="M30.5338 14.7275C29.7342 15.7107 28.6114 16.3845 27.3614 16.631C26.1114 16.8776 24.8137 16.6812 23.6949 16.0763C22.5762 15.4713 21.7075 14.4963 21.2407 13.3214C20.7738 12.1465 20.7384 10.8465 21.1407 9.64844" stroke="#2ECC71" stroke-width="1.5" stroke-linecap="round" stroke-linejoin="round"/>
<path d="M10.9935 9.32422C10.5168 10.0493 9.87085 10.65 9.11021 11.0754C8.34956 11.5007 7.49667 11.7383 6.6237 11.768C5.75074 11.7976 4.8834 11.6185 4.09514 11.2457C3.30687 10.8729 2.62088 10.3175 2.09521 9.62638" stroke="#00A5EC" stroke-width="1.5" stroke-linecap="round" stroke-linejoin="round"/>
</svg>
