<svg width="225" height="124" viewBox="0 0 225 124" fill="none" xmlns="http://www.w3.org/2000/svg">
<path d="M1.56699 95.0849L1.04498 83.5909L0 36.5709C3.657 54.3339 52.245 68.4399 111.282 68.4399C170.319 68.4399 222.564 53.2889 224.131 35.0029H224.653V89.3379H223.608C223.608 108.146 172.93 123.82 111.281 123.82C49.633 123.819 9.92699 111.281 1.56699 95.0849Z" fill="#C75A7C"/>
<path d="M224.131 33.958V35.003C222.564 53.289 171.886 68.44 111.282 68.44C50.678 68.44 3.657 54.334 0 36.571V33.959C0 32.914 3.15905e-06 31.869 0.522003 30.824C6.269 13.583 52.767 4.94989e-08 109.714 4.94989e-08H111.281C172.931 -0.000999951 224.131 15.15 224.131 33.958Z" fill="#D87C99"/>
</svg>
