<svg version="1.2" xmlns="http://www.w3.org/2000/svg" viewBox="0 0 512 512" width="512" height="512">
	<title>image</title>
	<style>
		.s0 { fill: #020288 } 
		.s1 { fill: #ffbebc } 
	</style>
	<g id="Background">
		<path id="Path 0" fill-rule="evenodd" class="s0" d="m22.5 36l467 0.1 5.9 3.2c3.2 1.8 7.2 4.8 8.9 6.7 1.7 1.9 4.1 5.8 7.7 13.5l-0.5 315-3 5.4c-1.6 2.9-4.5 6.7-6.3 8.2-1.7 1.6-5.1 3.9-11.7 7.4l-91.3 0.2c-50.1 0.2-91.2 0.6-91.2 1 0 0.5 3.6 13.9 15.7 58.8l8.7 0.5c7.9 0.4 9 0.8 10.8 3 1 1.4 2.2 3.4 2.5 4.5 0.3 1.1 0.2 3.2-0.1 4.8-0.3 1.5-1.7 3.8-5.5 7.7h-83.8c-77.9 0-84-0.2-85.9-1.8-1.2-0.9-2.7-2.7-3.3-3.9-0.6-1.3-1.1-3.2-1.1-4.3 0-1.1 0.6-3.2 1.4-4.7 0.7-1.6 2.2-3.2 3.2-3.7 1-0.6 5.5-1.2 17.7-2.1l7.8-29c4.3-15.9 7.9-29.3 7.9-29.7 0-0.5-41.1-0.9-182.5-1.3l-5.4-3c-2.9-1.6-6.7-4.6-8.4-6.5-1.7-1.9-4.1-5.7-7.7-13.5l0.5-315 3-5.3c1.7-3 4.1-6.4 5.5-7.7 1.4-1.3 5-3.8 8-5.4zm-2.3 26.7l-0.2 273.2h30v-250h412v250h30l-0.5-274.1-6.5-5.9h-458.2zm-0.2 299.7c0 5.8 0.3 6.9 2.9 9.8l2.9 3.2h460.2c5.2-5.2 5.5-6.4 5.7-12.5l0.3-7h-472zm200.5 51.3c-2.6 9.7-6.3 23.2-8.1 30l-3.4 12.2h94c-5.2-19-8.9-32.5-11.6-42.2l-4.9-17.8h-61.3z"/>
		<path id="Path 1" class="s1" d="m50 211v125h412v-250h-412z"/>
		<path id="Path 2" class="s0" d="m193.9 118.8l-3.4 3v78.2l5.5 5.5h78.2c6.1-6.9 6.1-7.1 5.5-15-0.3-4.4-1.3-10.9-2.2-14.5-0.9-3.6-3.4-10.1-5.5-14.5-2.1-4.4-6.2-11.2-9.2-15-3-3.8-8.8-9.6-12.9-12.9-4.1-3.2-11-7.5-15.4-9.6-4.4-2.1-10.9-4.6-14.5-5.5-3.6-0.9-10.1-1.9-14.6-2.2-7.9-0.6-8.1-0.5-11.5 2.5zm116.4-1.4c-1.1 0.7-2.8 2.4-3.7 3.7-0.8 1.3-1.5 3.4-1.6 4.7 0 1.2 0.6 3.4 1.4 4.9 0.7 1.6 2.5 3.4 4 4 2 1 15.8 1.3 58.1 1.3 42.3 0 56.1-0.3 58.1-1.3 1.5-0.6 3.3-2.4 4-4 0.8-1.5 1.4-3.6 1.4-4.7 0-1.1-0.6-3.2-1.4-4.8-0.7-1.5-2.5-3.3-4-4-2-0.9-15.8-1.2-58.4-1.2-44.4 0.1-56.1 0.3-57.9 1.4zm-158.6 39.8c-4 0.5-10.5 1.7-14.5 2.8-3.9 1.1-10.2 3.5-14 5.4-3.7 1.8-9.6 5.6-13.1 8.2-3.5 2.7-8 6.7-9.8 8.9-1.9 2.2-5.1 6.5-7.1 9.5-1.9 3-4.8 8.4-6.2 12-1.5 3.6-3.4 9.8-4.4 13.8-0.9 4.2-1.6 11.6-1.6 18 0 5.9 0.5 13.4 1.1 16.7 0.6 3.3 2.4 9.4 3.9 13.5 1.6 4.1 5.1 10.9 7.8 15 2.7 4.1 8.2 10.6 12.3 14.3 5.1 4.8 10.2 8.2 16.4 11.3 4.9 2.4 12.6 5.3 17 6.4 4.4 1.2 12 2.3 17 2.7 6.1 0.4 11.6 0.1 17-1 4.4-0.8 11.1-2.7 15-4.3 3.8-1.5 9.7-4.3 13-6.3 3.3-2 8.9-6.3 12.4-9.6 3.5-3.3 8.3-8.7 10.7-12 2.3-3.3 5.6-8.9 7.3-12.5 1.7-3.6 4-10.1 5.1-14.5 1.1-4.4 2.1-11.2 2.1-15 0.1-3.8-0.3-8-1-9.3-0.6-1.2-2.5-2.9-4.1-3.7-2.5-1.2-8.4-1.5-33.5-1.5h-30.5c0-59.7-0.1-61.7-2-64.8-1.1-1.7-2.1-3.2-2.3-3.2-0.1 0-1.7-0.3-3.5-0.8-1.9-0.4-6.6-0.4-10.5 0zm156.8 8c-1.7 1.5-2.8 3.7-3.2 6.3-0.5 3.5-0.2 4.5 2.5 7.5l3 3.5h115.4c5.7-6.5 6-7.5 5.5-11-0.4-2.5-1.5-4.8-3.1-6.3l-2.6-2.2h-114.9zm3.8 44.4c-1.2 0.3-3.4 1.9-4.7 3.6-2 2.5-2.4 4-2.1 7.2 0.3 2.8 1.2 4.8 3 6.3l2.5 2.2h115c4.2-3.6 5.4-5.9 5.7-8.5 0.5-3.4 0.2-4.4-2.5-7.5l-3-3.5c-86.6-0.2-112.7 0-113.9 0.2zm-1.9 47.7c-1.2 0.8-2.9 2.4-3.8 3.8-1.2 1.9-1.5 6.2-1.5 24.6-0.1 17 0.2 22.9 1.3 25 0.8 1.5 2.6 3.3 4 4 2 1 15.8 1.2 58.1 1.2 42.4 0 56.1-0.2 58.1-1.2 1.5-0.7 3.3-2.5 4-4 1.1-2.1 1.4-8 1.4-24.8 0-16.7-0.3-22.6-1.4-24.7-0.7-1.5-2.5-3.3-4-4-2-1-15.7-1.2-58.3-1.2-44.5 0-56.2 0.3-57.9 1.3z"/>
		<path id="Path 3" class="s1" d="m210 161.5v24.5h49c-1-5-2.1-8.8-3.1-11.5-1-2.8-3.6-7.7-5.7-11-2.2-3.3-6.1-8.1-8.8-10.7-2.7-2.6-7.6-6.3-10.9-8.3-3.3-2-8.9-4.5-12.5-5.6-3.6-1-6.8-1.9-7.2-1.9-0.5 0-0.8 11-0.8 24.5zm-72 19.1c-3.6 1.4-9.2 4.5-12.5 6.8-3.3 2.4-7.9 6.5-10.3 9.2-2.3 2.7-6 8.3-8.1 12.4-2.1 4.1-4.6 10.4-5.5 14-0.9 3.6-1.6 9.5-1.6 13.2 0 3.8 0.5 9.2 1.1 12 0.6 2.9 1.5 6.1 2 7 0.8 1.6 3.7 0.2 23.9-11.5l23-13.2v-52.5c-4.3 0.1-8.4 1.2-12 2.6zm40 66.4c0 0.6 4.4 8.5 9.7 17.7 5.3 9.3 9.8 17 10.1 17.3 0.2 0.3 2.9-2.2 5.9-5.5 3-3.3 7.2-9.6 9.4-14 2.2-4.4 4.3-9.9 4.7-12.3l0.7-4.2c-33.1 0-40.5 0.4-40.5 1zm-43.3 15.1c-19.2 11-20.6 12-19.4 13.8 0.6 1.1 3.9 4.1 7.2 6.8 3.3 2.6 8.7 6 12 7.5 3.3 1.5 9.2 3.4 13 4.3 3.8 0.8 9.6 1.5 12.8 1.5 3.1 0 8.9-0.7 12.7-1.5 3.8-0.8 7-1.9 7-2.5 0-0.6-5-9.7-11.1-20.3-6.2-10.5-11.7-19.7-12.3-20.4-0.9-0.8-6.2 1.8-21.9 10.8zm190.3 23.9v10h87v-20h-87z"/>
	</g>
</svg>