<svg width="329" height="329" viewBox="0 0 329 329" fill="none" xmlns="http://www.w3.org/2000/svg">
<g clip-path="url(#clip0_1415_278)">
<path d="M79.8882 19.7739C48.8938 31.0542 21.4511 45.8912 -0.642578 62.3674L32.6034 153.712C49.6493 200.542 101.435 224.686 148.268 207.641C195.088 190.6 219.238 138.817 202.192 91.9863L168.946 0.64209C141.43 2.22093 110.878 8.49361 79.8882 19.7739ZM39.4684 117.037C40.4449 106.457 46.5268 96.5521 56.5821 91.1454C66.6375 85.7387 78.2541 86.1227 87.6142 91.1429C86.6428 101.715 80.5609 111.618 70.508 117.032C60.4476 122.441 48.826 122.052 39.4684 117.037ZM127.391 150.602C109.987 156.937 95.5134 167.755 84.8054 181.282C77.968 156.119 91.4546 129.492 116.402 120.41C141.347 111.331 168.793 123.061 179.736 146.731C162.831 143.252 144.791 144.269 127.391 150.602ZM149.585 88.2488C138.401 90.5656 127.374 86.8883 119.834 79.4158C123.777 69.5537 132.432 61.7926 143.609 59.4707C154.786 57.1489 165.811 60.8262 173.358 68.3037C169.415 78.1608 160.763 85.9269 149.585 88.2488Z" fill="#FFC933"/>
<path d="M147.67 207.852C100.998 224.488 49.579 200.346 32.6034 153.712L-0.642578 62.3675C10.1809 54.2951 22.2819 46.6193 35.4674 39.5635L54.6494 92.2701C45.7512 97.86 40.3821 107.152 39.4684 117.037C47.0313 121.086 56.0625 122.117 64.5667 119.514L71.8183 139.439C75.0488 148.315 78.8967 156.603 83.1889 164.149C83.1839 164.151 83.1839 164.151 83.1914 164.154C82.7522 169.794 83.2517 175.574 84.8079 181.282C86.4796 179.169 88.2417 177.123 90.0992 175.145C107.552 200.233 129.816 213.878 147.67 207.852Z" fill="#FFAC33"/>
<path d="M247.841 136.104C216.851 124.823 186.291 118.548 158.776 116.969L125.53 208.313C108.484 255.146 132.628 306.924 179.461 323.97C226.287 341.014 278.067 316.869 295.11 270.036L328.359 178.692C306.265 162.216 278.828 147.381 247.841 136.104ZM157.054 177.239C166.414 172.219 178.03 171.837 188.086 177.244C198.141 182.648 204.223 192.553 205.197 203.133C195.839 208.148 184.22 208.537 174.167 203.13C164.107 197.716 158.025 187.811 157.054 177.239ZM191.821 289.703C161.464 278.653 145.063 246.263 153.379 215.648C166.406 232.104 184.014 245.267 205.187 252.973C226.357 260.679 248.31 261.916 268.868 257.684C255.559 286.48 222.168 300.747 191.821 289.703ZM261.187 234.802C250.009 232.48 241.357 224.714 237.411 214.857C244.959 207.38 255.986 203.705 267.163 206.024C278.341 208.346 286.995 216.107 290.939 225.969C283.398 233.444 272.372 237.119 261.187 234.802Z" fill="#F36F8F"/>
<path d="M178.875 323.749C132.429 306.493 108.556 254.951 125.529 208.313L158.775 116.969C172.256 117.745 186.458 119.64 201.095 122.712L182.151 174.761C173.654 172.156 164.616 173.185 157.053 177.241C157.961 187.116 163.33 196.408 172.234 202.006L164.744 222.586C164.247 223.951 163.77 225.317 163.31 226.677C159.749 223.203 156.438 219.513 153.378 215.65C149.59 229.594 150.928 243.901 156.375 256.394C152.115 289.228 160.316 316.493 178.875 323.749Z" fill="#C94971"/>
</g>
<defs>
<clipPath id="clip0_1415_278">
<rect width="329" height="329" fill="white"/>
</clipPath>
</defs>
</svg>
