<svg width="264" height="248" viewBox="0 0 264 248" fill="none" xmlns="http://www.w3.org/2000/svg">
<path d="M213.393 147.09H178.372L213.393 181.465V147.09Z" fill="#556875"/>
<path d="M199.979 147.09V168.297L213.394 181.465V147.09H199.979Z" fill="#404D57"/>
<path d="M259.532 231.472H227.627C225.462 231.472 223.707 229.716 223.707 227.552C223.707 225.387 225.462 223.632 227.627 223.632H259.532C261.697 223.632 263.452 225.387 263.452 227.552C263.452 229.716 261.697 231.472 259.532 231.472Z" fill="#91A3B0"/>
<path d="M213.392 222.072C211.226 222.072 209.472 220.317 209.472 218.152V139.752C209.472 137.587 211.226 135.832 213.392 135.832C215.557 135.832 217.311 137.587 217.311 139.752V218.152C217.311 220.317 215.556 222.072 213.392 222.072Z" fill="#91A3B0"/>
<path d="M168.6 125.915C166.435 125.915 164.68 124.16 164.68 121.995V70.5517H67.081C64.9158 70.5517 63.1611 68.7965 63.1611 66.6318C63.1611 64.4671 64.9158 62.7119 67.081 62.7119H168.6C170.766 62.7119 172.52 64.4671 172.52 66.6318V121.994C172.52 124.16 170.766 125.915 168.6 125.915Z" fill="#91A3B0"/>
<path d="M217.128 243.706C226.05 243.706 233.284 236.472 233.284 227.55C233.284 218.627 226.05 211.394 217.128 211.394C208.205 211.394 200.972 218.627 200.972 227.55C200.972 236.472 208.205 243.706 217.128 243.706Z" fill="#556875"/>
<path d="M223.076 212.531C212.485 208.331 200.97 216.153 200.97 227.551C200.97 236.474 208.203 243.707 217.125 243.707C219.227 243.707 221.234 243.301 223.076 242.571C209.495 237.185 209.502 217.914 223.076 212.531Z" fill="#404D57"/>
<path d="M207.13 118.14H137.007C144.914 127.651 150.632 139.042 153.383 151.535H217.125V128.135C217.125 122.615 212.651 118.14 207.13 118.14Z" fill="#009E3D"/>
<path d="M150.295 141.082C151.554 144.465 152.594 147.953 153.383 151.535H217.125V141.082H150.295Z" fill="#009E3D"/>
<path d="M16.4506 20.8236H34.2599L51.2366 94.6186C57.6485 92.208 64.4546 90.6113 71.5297 89.9516L52.6964 8.07802C51.6082 3.35028 47.4001 0 42.5494 0H16.4506C10.7004 0 6.03906 4.66188 6.03906 10.412C6.03906 16.1627 10.6999 20.8236 16.4506 20.8236Z" fill="#009E3D"/>
<path d="M187.482 61.1774C187.482 66.3904 183.257 70.6159 178.045 70.6159H112.238C107.026 70.6159 102.8 66.3904 102.8 61.1774V59.1377C102.8 53.9253 107.026 49.6992 112.238 49.6992H178.044C183.257 49.6992 187.482 53.9253 187.482 59.1377L187.482 61.1774Z" fill="#009E3D"/>
<path d="M178.044 60.1581H112.238C108.54 60.1581 105.348 58.0263 103.799 54.9287C102.662 57.2041 102.8 58.8584 102.8 61.178C102.8 66.391 107.026 70.6165 112.238 70.6165H178.044C183.257 70.6165 187.482 66.391 187.482 61.178V59.1383C187.482 57.6234 187.116 56.1976 186.482 54.9292C184.935 58.0263 181.742 60.1581 178.044 60.1581Z" fill="#009E3D"/>
<path d="M217.127 231.805C219.477 231.805 221.382 229.9 221.382 227.55C221.382 225.2 219.477 223.295 217.127 223.295C214.777 223.295 212.872 225.2 212.872 227.55C212.872 229.9 214.777 231.805 217.127 231.805Z" fill="#91A3B0"/>
<path d="M46.8571 30.395C45.0592 22.5887 39.2803 21.0677 36.214 20.8232H34.2603L51.237 94.6183C54.3856 93.4349 57.6304 92.45 60.9544 91.673L46.8571 30.395Z" fill="#009E3D"/>
<path d="M136.442 164.028L93.5494 164.028L130.696 142.581C132.57 141.499 133.213 139.101 132.13 137.226C131.047 135.351 128.649 134.709 126.775 135.791L89.6316 157.236L111.077 120.093C112.159 118.218 111.517 115.82 109.642 114.738C107.768 113.655 105.369 114.297 104.287 116.172L82.8404 153.318V110.426C82.8404 108.261 81.0858 106.506 78.9206 106.506C76.7553 106.506 75.0007 108.261 75.0007 110.426V153.315L68.2806 141.675C68.279 141.673 68.2775 141.671 68.2759 141.669L53.556 116.172C52.4739 114.297 50.0756 113.654 48.201 114.737C46.3265 115.819 45.6838 118.217 46.7665 120.092L67.7367 156.414C67.7382 156.416 67.7398 156.418 67.7413 156.42L68.2132 157.237L58.7006 151.746L58.6985 151.745L31.0668 135.791C29.1913 134.709 26.794 135.351 25.7119 137.226C24.6292 139.101 25.2719 141.498 27.1464 142.581L63.469 163.552L64.2917 164.027H50.161L50.1558 164.027H21.3999C19.2346 164.027 17.48 165.782 17.48 167.947C17.48 170.112 19.2346 171.867 21.3999 171.867H63.3419C63.3429 171.867 63.3439 171.866 63.3439 171.866H64.2902L46.2936 182.257C46.291 182.258 46.2895 182.259 46.2869 182.261L27.1464 193.312C25.2719 194.395 24.6292 196.792 25.7119 198.667C26.4384 199.925 27.7557 200.628 29.1105 200.628C29.7753 200.628 30.4499 200.459 31.0668 200.102L66.3911 179.707C66.3927 179.707 66.3942 179.706 66.3952 179.705L68.2121 178.655L56.153 199.542C56.1504 199.547 56.1489 199.552 56.1458 199.556L46.7659 215.803C45.6833 217.678 46.326 220.075 48.2005 221.158C48.818 221.514 49.4921 221.684 50.1569 221.684C51.5117 221.684 52.8295 220.98 53.555 219.723L73.9494 184.398C73.951 184.396 73.952 184.393 73.9536 184.39L74.9996 182.578V205.075C74.9996 205.078 75.0002 205.081 75.0002 205.085V225.469C75.0002 227.634 76.7548 229.389 78.92 229.389C81.0853 229.389 82.8399 227.634 82.8399 225.469V184.68C82.8399 184.677 82.8394 184.674 82.8394 184.67V182.576L104.286 219.723C105.369 221.599 107.768 222.24 109.641 221.158C111.516 220.076 112.158 217.678 111.076 215.803L89.6305 178.658C129.694 201.79 127.238 200.63 128.73 200.63C132.714 200.63 134.164 195.318 130.694 193.314L93.5489 171.868H136.441C138.606 171.868 140.361 170.113 140.361 167.948C140.362 165.783 138.608 164.028 136.442 164.028Z" fill="#91A3B0"/>
<path d="M78.9221 247.446C35.4035 247.446 0 212.042 0 168.524C0 125.007 35.4035 89.6025 78.9221 89.6025C122.439 89.6025 157.844 125.007 157.844 168.524C157.844 212.042 122.439 247.446 78.9221 247.446ZM78.9221 110.426C46.8864 110.426 20.8241 136.489 20.8241 168.524C20.8241 200.56 46.8858 226.622 78.9221 226.622C110.957 226.622 137.02 200.56 137.02 168.524C137.02 136.489 110.957 110.426 78.9221 110.426Z" fill="#556875"/>
<path d="M10.4532 168.524C10.4532 126.763 43.0575 92.4799 84.1485 89.7801C82.4201 89.6663 80.6788 89.6025 78.9216 89.6025C35.4035 89.6025 0 125.007 0 168.524C0 212.042 35.4035 247.446 78.9221 247.446C80.6788 247.446 82.4206 247.382 84.149 247.268C43.0581 244.568 10.4532 210.285 10.4532 168.524Z" fill="#404D57"/>
<path d="M78.923 183.015C86.9256 183.015 93.4129 176.528 93.4129 168.525C93.4129 160.523 86.9256 154.035 78.923 154.035C70.9205 154.035 64.4331 160.523 64.4331 168.525C64.4331 176.528 70.9205 183.015 78.923 183.015Z" fill="#556875"/>
<path d="M74.6662 168.524C74.6662 162.323 78.563 157.035 84.0394 154.966C82.4479 154.365 80.7236 154.033 78.9221 154.033C70.9187 154.033 64.4302 160.521 64.4302 168.524C64.4302 176.527 70.9187 183.015 78.9221 183.015C80.7241 183.015 82.4479 182.683 84.0394 182.082C78.5625 180.013 74.6662 174.725 74.6662 168.524Z" fill="#404D57"/>
<path d="M78.9228 172.78C81.2727 172.78 83.1777 170.875 83.1777 168.525C83.1777 166.175 81.2727 164.271 78.9228 164.271C76.5729 164.271 74.668 166.175 74.668 168.525C74.668 170.875 76.5729 172.78 78.9228 172.78Z" fill="#91A3B0"/>
</svg>
