<svg width="264" height="248" viewBox="0 0 264 248" fill="none" xmlns="http://www.w3.org/2000/svg">
<path d="M213.394 147.09H178.373L213.394 181.465V147.09Z" fill="#585A60"/>
<path d="M199.979 147.09V168.298L213.394 181.465V147.09H199.979Z" fill="#404249"/>
<path d="M259.532 231.472H227.627C225.462 231.472 223.707 229.716 223.707 227.552C223.707 225.387 225.462 223.632 227.627 223.632H259.532C261.697 223.632 263.452 225.387 263.452 227.552C263.452 229.716 261.697 231.472 259.532 231.472Z" fill="#BABABA"/>
<path d="M213.393 222.072C211.227 222.072 209.473 220.317 209.473 218.152V139.751C209.473 137.587 211.227 135.832 213.393 135.832C215.558 135.832 217.312 137.587 217.312 139.751V218.152C217.312 220.317 215.557 222.072 213.393 222.072Z" fill="#BABABA"/>
<path d="M168.601 125.914C166.436 125.914 164.681 124.159 164.681 121.994V70.5512H67.082C64.9167 70.5512 63.1621 68.7961 63.1621 66.6313C63.1621 64.4666 64.9167 62.7114 67.082 62.7114H168.601C170.767 62.7114 172.521 64.4666 172.521 66.6313V121.994C172.521 124.159 170.767 125.914 168.601 125.914Z" fill="#BABABA"/>
<path d="M217.127 243.706C226.049 243.706 233.283 236.473 233.283 227.55C233.283 218.627 226.049 211.394 217.127 211.394C208.204 211.394 200.971 218.627 200.971 227.55C200.971 236.473 208.204 243.706 217.127 243.706Z" fill="#585A60"/>
<path d="M223.075 212.531C212.484 208.33 200.969 216.153 200.969 227.551C200.969 236.474 208.202 243.707 217.124 243.707C219.226 243.707 221.233 243.301 223.075 242.57C209.494 237.185 209.501 217.914 223.075 212.531Z" fill="#404249"/>
<path d="M207.129 118.139H137.006C144.913 127.65 150.631 139.042 153.382 151.535H217.124V128.135C217.124 122.615 212.65 118.139 207.129 118.139Z" fill="#407BFF"/>
<path d="M150.295 141.082C151.554 144.465 152.594 147.953 153.383 151.535H217.125V141.082H150.295Z" fill="#1558AE"/>
<path d="M16.4506 20.8236H34.2599L51.2366 94.6186C57.6485 92.208 64.4546 90.6113 71.5297 89.9516L52.6964 8.07802C51.6082 3.35028 47.4001 0 42.5494 0H16.4506C10.7004 0 6.03906 4.66188 6.03906 10.412C6.03906 16.1627 10.6999 20.8236 16.4506 20.8236Z" fill="#407BFF"/>
<path d="M187.481 61.1777C187.481 66.3906 183.256 70.6162 178.044 70.6162H112.237C107.025 70.6162 102.799 66.3906 102.799 61.1777V59.138C102.799 53.9255 107.025 49.6995 112.237 49.6995H178.043C183.256 49.6995 187.481 53.9255 187.481 59.138L187.481 61.1777Z" fill="#407BFF"/>
<path d="M178.045 60.1579H112.239C108.541 60.1579 105.348 58.0261 103.799 54.9285C102.662 57.2038 102.8 58.8581 102.8 61.1778C102.8 66.3907 107.026 70.6163 112.239 70.6163H178.045C183.257 70.6163 187.482 66.3907 187.482 61.1778V59.138C187.482 57.6232 187.117 56.1974 186.483 54.929C184.935 58.0261 181.743 60.1579 178.045 60.1579Z" fill="#1558AE"/>
<path d="M217.128 231.805C219.478 231.805 221.383 229.9 221.383 227.55C221.383 225.2 219.478 223.295 217.128 223.295C214.778 223.295 212.873 225.2 212.873 227.55C212.873 229.9 214.778 231.805 217.128 231.805Z" fill="#BABABA"/>
<path d="M46.8566 30.3953C45.0588 22.5889 39.2798 21.0679 36.2135 20.8235H34.2598L51.2365 94.6186C54.3851 93.4351 57.6299 92.4502 60.9539 91.6733L46.8566 30.3953Z" fill="#1558AE"/>
<path d="M136.443 164.028L93.5499 164.028L130.696 142.581C132.571 141.499 133.213 139.101 132.131 137.226C131.048 135.351 128.65 134.709 126.776 135.791L89.6321 157.236L111.077 120.093C112.16 118.218 111.517 115.82 109.643 114.738C107.769 113.655 105.37 114.297 104.288 116.172L82.8409 153.318V110.426C82.8409 108.261 81.0863 106.506 78.9211 106.506C76.7558 106.506 75.0012 108.261 75.0012 110.426V153.315L68.2811 141.675C68.2795 141.673 68.278 141.671 68.2764 141.669L53.5565 116.172C52.4744 114.297 50.0761 113.654 48.2015 114.737C46.327 115.819 45.6843 118.217 46.7669 120.092L67.7372 156.414C67.7387 156.416 67.7403 156.418 67.7418 156.42L68.2136 157.237L58.701 151.746L58.699 151.745L31.0673 135.791C29.1918 134.709 26.7945 135.351 25.7123 137.226C24.6297 139.101 25.2724 141.498 27.1469 142.581L63.4694 163.552L64.2922 164.027H50.1615L50.1563 164.027H21.4004C19.2351 164.027 17.4805 165.782 17.4805 167.947C17.4805 170.112 19.2351 171.867 21.4004 171.867H63.3423C63.3434 171.867 63.3444 171.866 63.3444 171.866H64.2907L46.2941 182.257C46.2915 182.258 46.29 182.259 46.2874 182.261L27.1469 193.312C25.2724 194.395 24.6297 196.792 25.7123 198.667C26.4389 199.925 27.7562 200.628 29.111 200.628C29.7758 200.628 30.4504 200.459 31.0673 200.102L66.3916 179.707C66.3932 179.707 66.3947 179.706 66.3957 179.705L68.2126 178.655L56.1535 199.542C56.1509 199.547 56.1494 199.552 56.1463 199.556L46.7664 215.803C45.6838 217.678 46.3265 220.075 48.201 221.158C48.8185 221.514 49.4925 221.684 50.1574 221.684C51.5122 221.684 52.83 220.98 53.5555 219.723L73.9499 184.398C73.9515 184.396 73.9525 184.393 73.954 184.39L75.0001 182.578V205.075C75.0001 205.078 75.0006 205.081 75.0006 205.085V225.469C75.0006 227.634 76.7553 229.389 78.9205 229.389C81.0858 229.389 82.8404 227.634 82.8404 225.469V184.68C82.8404 184.677 82.8399 184.674 82.8399 184.67V182.576L104.287 219.723C105.369 221.599 107.769 222.24 109.642 221.158C111.516 220.076 112.159 217.678 111.076 215.803L89.631 178.658C129.695 201.79 127.238 200.63 128.731 200.63C132.714 200.63 134.164 195.318 130.694 193.314L93.5494 171.868H136.441C138.606 171.868 140.361 170.113 140.361 167.948C140.363 165.783 138.608 164.028 136.443 164.028Z" fill="#BABABA"/>
<path d="M78.9221 247.446C35.4035 247.446 0 212.042 0 168.524C0 125.007 35.4035 89.6028 78.9221 89.6028C122.439 89.6028 157.844 125.007 157.844 168.524C157.844 212.042 122.439 247.446 78.9221 247.446ZM78.9221 110.426C46.8864 110.426 20.8241 136.489 20.8241 168.524C20.8241 200.56 46.8858 226.622 78.9221 226.622C110.957 226.622 137.02 200.56 137.02 168.524C137.02 136.489 110.957 110.426 78.9221 110.426Z" fill="#585A60"/>
<path d="M10.4532 168.524C10.4532 126.764 43.0575 92.4802 84.1485 89.7803C82.4201 89.6666 80.6788 89.6028 78.9216 89.6028C35.4035 89.6028 0 125.007 0 168.524C0 212.042 35.4035 247.446 78.9221 247.446C80.6788 247.446 82.4206 247.382 84.149 247.268C43.0581 244.569 10.4532 210.285 10.4532 168.524Z" fill="#404249"/>
<path d="M78.9235 183.015C86.9261 183.015 93.4134 176.528 93.4134 168.525C93.4134 160.523 86.9261 154.035 78.9235 154.035C70.9209 154.035 64.4336 160.523 64.4336 168.525C64.4336 176.528 70.9209 183.015 78.9235 183.015Z" fill="#585A60"/>
<path d="M74.6658 168.524C74.6658 162.323 78.5625 157.034 84.0389 154.966C82.4474 154.364 80.7231 154.033 78.9216 154.033C70.9182 154.033 64.4297 160.52 64.4297 168.524C64.4297 176.526 70.9182 183.014 78.9216 183.014C80.7236 183.014 82.4474 182.683 84.0389 182.081C78.562 180.013 74.6658 174.725 74.6658 168.524Z" fill="#404249"/>
<path d="M78.9228 172.78C81.2727 172.78 83.1777 170.875 83.1777 168.525C83.1777 166.175 81.2727 164.271 78.9228 164.271C76.5729 164.271 74.668 166.175 74.668 168.525C74.668 170.875 76.5729 172.78 78.9228 172.78Z" fill="#BABABA"/>
</svg>
