<svg width="261" height="188" viewBox="0 0 261 188" fill="none" xmlns="http://www.w3.org/2000/svg">
<path d="M219.154 15.4876L218.527 17.9047L207.023 62.6665L192.847 67.1427L177.928 62.6665L166.424 17.9047L165.798 15.4876C165.196 11.6087 166.321 7.66061 168.878 4.68209C171.435 1.70357 175.166 -0.00714421 179.092 2.24273e-05H205.904C209.822 0.00592879 213.541 1.72226 216.088 4.69909C218.635 7.67592 219.754 11.6164 219.154 15.4876Z" fill="#2C2F38"/>
<path d="M218.527 17.9045L207.023 62.6663H177.928L166.424 17.9045H218.527Z" fill="#393F4A"/>
<path d="M246.19 143.238L203.666 149.952C198.322 149.945 193.194 152.065 189.415 155.844C185.636 159.623 183.516 164.751 183.523 170.095C183.531 164.751 181.411 159.623 177.632 155.844C173.853 152.065 168.725 149.945 163.381 149.952C152.235 149.952 149.675 152.235 149.675 163.381C149.675 165.753 143.641 167.991 144.402 170.095H126.184C128.511 166.156 125.333 161.59 125.333 156.667C125.333 141.85 117.768 136.524 102.952 136.524C91.5738 136.511 81.4306 143.692 77.6618 154.429H74.5285C70.7598 143.692 60.6165 136.511 49.2381 136.524C39.301 136.524 30.6172 139.702 26.0067 147.714L0.000124051 143.238C0.453858 137.512 3.84174 132.431 8.95248 129.81V40.2859C4.01435 40.2712 0.0148722 36.2717 0.000124051 31.3336C-0.0125125 28.9586 0.940753 26.6804 2.64107 25.0222C4.29932 23.3219 6.57746 22.3686 8.95248 22.3812H107.428C112.367 22.396 116.366 26.3955 116.381 31.3336C116.344 36.2626 112.357 40.2494 107.428 40.2859V76.0954H120.857C120.894 71.1664 124.88 67.1796 129.809 67.143H138.762C143.7 67.1578 147.699 71.1573 147.714 76.0954H161.143C161.143 76.0954 161.143 64.6811 177.928 62.6668H207.023C223.809 64.6811 223.809 76.0954 223.809 76.0954C223.809 76.0954 237.238 85.0478 237.238 94.0001V129.81C242.348 132.431 245.736 137.512 246.19 143.238Z" fill="#7F8C8D"/>
<path d="M129.808 156.666C129.83 161.387 128.578 166.027 126.182 170.095C120.953 179.171 110.917 184.372 100.486 183.409C90.0556 182.447 81.1404 175.499 77.6602 165.619H102.951C107.88 165.582 111.866 161.596 111.903 156.666C111.888 151.728 107.889 147.729 102.951 147.714H77.6602C82.0509 135.428 94.6361 128.075 107.495 130.283C120.354 132.49 129.766 143.62 129.808 156.666Z" fill="#C03A2B"/>
<path d="M49.2382 165.619H74.5286C70.461 177.152 59.1069 184.473 46.9229 183.419C34.7389 182.365 24.8107 173.203 22.784 161.143C22.5128 159.666 22.3779 158.168 22.3812 156.666C22.3586 151.945 23.6113 147.306 26.0069 143.238C31.2359 134.161 41.2718 128.961 51.7025 129.923C62.1332 130.886 71.0484 137.834 74.5286 147.714H49.2382C44.3092 147.751 40.3224 151.737 40.2859 156.666C40.3006 161.604 44.3001 165.604 49.2382 165.619Z" fill="#C03A2B"/>
<path d="M163.379 143.238C158.035 143.231 152.907 145.351 149.128 149.13C145.349 152.909 143.229 158.036 143.236 163.381C143.229 165.669 143.623 167.942 144.4 170.095C147.815 179.754 157.937 185.311 167.919 183.008C177.902 180.705 184.566 171.275 183.404 161.096C182.242 150.917 173.624 143.232 163.379 143.238ZM163.379 170.095C159.671 170.095 156.665 167.089 156.665 163.381C156.665 159.672 159.671 156.666 163.379 156.666C167.087 156.666 170.094 159.672 170.094 163.381C170.094 167.089 167.087 170.095 163.379 170.095Z" fill="#C03A2B"/>
<path d="M8.95117 93.9998H237.236V111.904H8.95117V93.9998Z" fill="#E64C3C"/>
<path d="M89.5215 40.2856H107.426V93.9998H89.5215V40.2856Z" fill="#C03A2B"/>
<path d="M8.95117 40.2856H26.8559V93.9998H8.95117V40.2856Z" fill="#C03A2B"/>
<path d="M246.19 143.238H203.666C198.322 143.23 193.194 145.35 189.415 149.129C185.636 152.908 183.516 158.036 183.523 163.38C183.523 152.256 174.505 143.238 163.381 143.238C152.256 143.238 143.238 152.256 143.238 163.38C143.231 165.669 143.625 167.942 144.402 170.095H126.184C128.579 166.027 129.832 161.387 129.809 156.666C129.767 143.619 120.355 132.49 107.496 130.282C94.6376 128.075 82.0524 135.428 77.6617 147.714H74.5284C71.0481 137.834 62.1329 130.885 51.7022 129.923C41.2716 128.961 31.2356 134.161 26.0066 143.238H0C0.453734 137.512 3.84162 132.43 8.95236 129.809V111.904H237.238V129.809C242.348 132.43 245.736 137.512 246.19 143.238Z" fill="#393F4A"/>
<path d="M203.666 143.238C193.421 143.232 184.803 150.917 183.641 161.096C182.479 171.275 189.143 180.705 199.125 183.008C209.108 185.311 219.23 179.754 222.645 170.095C223.422 167.942 223.816 165.669 223.809 163.381C223.816 158.036 221.696 152.909 217.917 149.13C214.138 145.351 209.01 143.231 203.666 143.238ZM203.666 170.095C199.958 170.095 196.951 167.089 196.951 163.381C196.951 159.672 199.958 156.666 203.666 156.666C207.374 156.666 210.38 159.672 210.38 163.381C210.38 167.089 207.374 170.095 203.666 170.095Z" fill="#C03A2B"/>
<path d="M255.724 170.095H222.645C223.422 167.942 223.816 165.67 223.809 163.381C223.816 158.036 221.696 152.909 217.917 149.13C214.138 145.351 209.01 143.231 203.666 143.238L246.19 143.238L259.439 163.157C260.362 164.525 260.452 166.291 259.673 167.746C258.894 169.201 257.374 170.105 255.724 170.095Z" fill="#E64C3C"/>
<path d="M22.3809 156.666C22.3777 158.168 22.5125 159.666 22.7838 161.143H8.95236C4.01423 161.128 0.0147481 157.128 0 152.19V143.238H26.0066C23.611 147.306 22.3583 151.945 22.3809 156.666Z" fill="#E64C3C"/>
<path d="M26.8574 40.2856H62.6669V93.9998H26.8574V40.2856Z" fill="#3B97D3"/>
<path d="M62.666 40.2856H89.5231V93.9998H62.666V40.2856Z" fill="#2980BA"/>
<path d="M163.38 170.095C167.088 170.095 170.095 167.089 170.095 163.381C170.095 159.673 167.088 156.667 163.38 156.667C159.672 156.667 156.666 159.673 156.666 163.381C156.666 167.089 159.672 170.095 163.38 170.095Z" fill="#BDC3C7"/>
<path d="M203.663 170.095C207.372 170.095 210.378 167.089 210.378 163.381C210.378 159.673 207.372 156.667 203.663 156.667C199.955 156.667 196.949 159.673 196.949 163.381C196.949 167.089 199.955 170.095 203.663 170.095Z" fill="#BDC3C7"/>
<path d="M102.952 188C89.666 188.015 77.8235 179.626 73.4316 167.087C72.6735 164.767 73.9127 162.268 76.2179 161.468C78.523 160.667 81.0445 161.86 81.8871 164.151C84.794 172.375 92.2219 178.156 100.908 178.953C109.595 179.75 117.951 175.419 122.307 167.861C124.312 164.473 125.358 160.603 125.333 156.666C125.296 145.801 117.46 136.532 106.752 134.687C96.0438 132.843 85.5579 138.955 81.8871 149.182C81.0445 151.472 78.523 152.665 76.2179 151.865C73.9127 151.064 72.6735 148.565 73.4316 146.246C78.5378 131.894 93.2261 123.294 108.241 125.865C123.255 128.436 134.245 141.433 134.285 156.666C134.298 162.187 132.833 167.61 130.042 172.373C124.443 182.038 114.122 187.992 102.952 188Z" fill="#2C2F38"/>
<path d="M49.24 188C33.9214 188.068 20.8259 176.99 18.3544 161.872C18.046 160.154 17.8961 158.412 17.9068 156.666C17.8938 151.146 19.359 145.722 22.1502 140.96C28.263 130.368 39.9855 124.308 52.1615 125.444C64.3375 126.581 74.7358 134.706 78.7828 146.246C79.541 148.565 78.3017 151.065 75.9966 151.865C73.6915 152.666 71.1699 151.472 70.3273 149.182C67.4205 140.958 59.9926 135.177 51.306 134.38C42.6194 133.582 34.2631 137.914 29.9074 145.471C27.8943 148.857 26.8405 152.727 26.8591 156.666C26.8546 157.893 26.964 159.117 27.1859 160.323C28.8374 170.391 37.0984 178.062 47.2608 178.964C57.4232 179.866 66.9061 173.77 70.3049 164.151C71.1475 161.861 73.6691 160.667 75.9742 161.468C78.2793 162.268 79.5186 164.768 78.7604 167.087C74.3686 179.626 62.5261 188.016 49.24 188Z" fill="#2C2F38"/>
<path d="M163.381 187.999C149.784 187.999 138.762 176.977 138.762 163.38C138.762 149.784 149.784 138.761 163.381 138.761C176.977 138.761 188 149.784 188 163.38C187.982 176.97 176.97 187.982 163.381 187.999ZM163.381 147.714C154.728 147.714 147.714 154.728 147.714 163.38C147.714 172.033 154.728 179.047 163.381 179.047C172.033 179.047 179.047 172.033 179.047 163.38C179.047 154.728 172.033 147.714 163.381 147.714Z" fill="#2C2F38"/>
<path d="M203.668 187.999C190.071 187.999 179.049 176.977 179.049 163.38C179.049 149.784 190.071 138.761 203.668 138.761C217.265 138.761 228.287 149.784 228.287 163.38C228.27 176.97 217.257 187.982 203.668 187.999ZM203.668 147.714C195.015 147.714 188.001 154.728 188.001 163.38C188.001 172.033 195.015 179.047 203.668 179.047C212.32 179.047 219.334 172.033 219.334 163.38C219.334 154.728 212.32 147.714 203.668 147.714Z" fill="#2C2F38"/>
<path d="M111.904 156.666C111.867 161.596 107.881 165.582 102.952 165.619H49.2375C44.2994 165.604 40.2999 161.605 40.2852 156.666C40.3217 151.737 44.3085 147.751 49.2375 147.714H102.952C107.89 147.729 111.889 151.728 111.904 156.666Z" fill="#E4C05C"/>
</svg>
