<svg width="280" height="155" viewBox="0 0 280 155" fill="none" xmlns="http://www.w3.org/2000/svg">
<path d="M267.784 131.544H9.4632C4.2365 131.544 0 127.307 0 122.081V9.4632C0 4.23705 4.2365 0 9.4632 0H258.278C262.778 0 266.65 3.18201 267.523 7.59671L278.84 64.8675C278.959 65.4691 279.019 66.0811 279.019 66.6942V120.309C279.019 126.514 273.989 131.544 267.784 131.544Z" fill="#F6C43E"/>
<path d="M278.84 64.8675L267.523 7.59671C266.65 3.18201 262.778 0 258.278 0H245.143L252.901 39.261C252.958 39.5482 252.986 39.8403 252.986 40.1334V99.154C252.986 102.64 250.161 105.465 246.675 105.465H0V122.081C0 127.307 4.23651 131.544 9.4632 131.544H267.784C273.989 131.544 279.019 126.514 279.019 120.31V66.6947C279.019 66.0811 278.959 65.4691 278.84 64.8675Z" fill="#E4B63C"/>
<path d="M50.1581 154.999C63.112 154.999 73.6131 144.498 73.6131 131.544C73.6131 118.59 63.112 108.089 50.1581 108.089C37.2043 108.089 26.7031 118.59 26.7031 131.544C26.7031 144.498 37.2043 154.999 50.1581 154.999Z" fill="#35495D"/>
<path d="M228.861 154.999C241.815 154.999 252.316 144.498 252.316 131.544C252.316 118.59 241.815 108.089 228.861 108.089C215.907 108.089 205.406 118.59 205.406 131.544C205.406 144.498 215.907 154.999 228.861 154.999Z" fill="#35495D"/>
<path d="M226.246 154.852C227.104 154.947 227.974 155 228.858 155C241.812 155 252.314 144.498 252.314 131.544C252.314 118.59 241.812 108.088 228.858 108.088C227.973 108.088 227.1 108.141 226.24 108.237L226.246 154.852Z" fill="#2A3A4C"/>
<path d="M47.549 154.852C48.4067 154.947 49.277 155 50.1604 155C63.1146 155 73.6165 144.498 73.6165 131.544C73.6165 118.59 63.1146 108.088 50.1604 108.088C49.2754 108.088 48.4029 108.141 47.543 108.237L47.549 154.852Z" fill="#2A3A4C"/>
<path d="M228.86 141.712C234.476 141.712 239.028 137.159 239.028 131.543C239.028 125.928 234.476 121.375 228.86 121.375C223.244 121.375 218.691 125.928 218.691 131.543C218.691 137.159 223.244 141.712 228.86 141.712Z" fill="#EDE6CB"/>
<path d="M279.018 66.6943C279.018 66.0812 278.958 65.4692 278.839 64.8676L269.397 17.0862H208.942C207.156 17.0862 205.707 18.5347 205.707 20.321V65.7711C205.707 68.7122 207.093 71.4839 209.464 73.225C216.17 78.1509 234.002 86.4168 279.019 87.9831L279.018 66.6943Z" fill="#FEFEE1"/>
<path d="M275.865 49.818L269.397 17.0862H248.518L252.9 39.2616C252.956 39.5488 252.985 39.8409 252.985 40.1341V86.0713C260.451 86.9634 269.07 87.637 279.017 87.9831V66.6948C279.017 66.388 279.003 66.0817 278.973 65.7771C278.943 65.4719 278.898 65.1689 278.839 64.8681L275.865 49.818Z" fill="#EFD694"/>
<path d="M50.1586 141.712C55.7744 141.712 60.327 137.159 60.327 131.543C60.327 125.928 55.7744 121.375 50.1586 121.375C44.5428 121.375 39.9902 125.928 39.9902 131.543C39.9902 137.159 44.5428 141.712 50.1586 141.712Z" fill="#EDE6CB"/>
<path d="M205.706 98.572H213.109C215.437 98.572 217.323 96.6859 217.323 94.3584C217.323 92.0309 215.437 90.1448 213.109 90.1448H205.706C203.378 90.1448 201.492 92.0309 201.492 94.3584C201.492 96.6859 203.378 98.572 205.706 98.572Z" fill="#FEFEE1"/>
<path d="M52.2161 17.0862H21.1616C19.7769 17.0862 18.6543 18.2088 18.6543 19.5935V67.0109C18.6543 68.3956 19.7769 69.5182 21.1616 69.5182H52.2161V17.0862Z" fill="#FEFEE1"/>
<path d="M91.697 17.0862H60.6426V69.5177H91.697C93.0818 69.5177 94.2044 68.3951 94.2044 67.0103V19.593C94.2044 18.2088 93.0818 17.0862 91.697 17.0862Z" fill="#FEFEE1"/>
<path d="M184.199 17.0862H153.145V69.5177H184.199C185.584 69.5177 186.706 68.3951 186.706 67.0103V19.593C186.706 18.2088 185.584 17.0862 184.199 17.0862Z" fill="#FEFEE1"/>
<path d="M144.714 17.0862H113.66C112.275 17.0862 111.152 18.2088 111.152 19.5935V67.0109C111.152 68.3956 112.275 69.5182 113.66 69.5182H144.714V17.0862Z" fill="#FEFEE1"/>
</svg>
