<svg width="280" height="155" viewBox="0 0 280 155" fill="none" xmlns="http://www.w3.org/2000/svg">
<path d="M267.784 131.544H9.4632C4.2365 131.544 0 127.307 0 122.081V9.4632C0 4.23705 4.2365 0 9.4632 0H258.278C262.778 0 266.65 3.18201 267.523 7.59671L278.84 64.8675C278.959 65.4691 279.019 66.0811 279.019 66.6942V120.309C279.019 126.514 273.989 131.544 267.784 131.544Z" fill="#184921"/>
<path d="M278.84 64.8675L267.523 7.59671C266.65 3.18201 262.778 0 258.278 0H245.143L252.901 39.261C252.958 39.5482 252.986 39.8403 252.986 40.1334V99.154C252.986 102.64 250.161 105.465 246.675 105.465H0V122.081C0 127.307 4.23651 131.544 9.4632 131.544H267.784C273.989 131.544 279.019 126.514 279.019 120.31V66.6947C279.019 66.0811 278.959 65.4691 278.84 64.8675Z" fill="#184921"/>
<path d="M50.1581 154.999C63.112 154.999 73.6131 144.498 73.6131 131.544C73.6131 118.59 63.112 108.089 50.1581 108.089C37.2043 108.089 26.7031 118.59 26.7031 131.544C26.7031 144.498 37.2043 154.999 50.1581 154.999Z" fill="#00362E"/>
<path d="M228.861 154.999C241.815 154.999 252.316 144.498 252.316 131.544C252.316 118.59 241.815 108.089 228.861 108.089C215.907 108.089 205.406 118.59 205.406 131.544C205.406 144.498 215.907 154.999 228.861 154.999Z" fill="#00362E"/>
<path d="M226.247 154.852C227.105 154.947 227.975 155 228.859 155C241.813 155 252.315 144.498 252.315 131.544C252.315 118.59 241.813 108.088 228.859 108.088C227.974 108.088 227.101 108.141 226.241 108.237L226.247 154.852Z" fill="#00362E"/>
<path d="M47.5499 154.852C48.4077 154.947 49.278 155 50.1614 155C63.1156 155 73.6175 144.498 73.6175 131.544C73.6175 118.59 63.1156 108.088 50.1614 108.088C49.2764 108.088 48.4039 108.141 47.5439 108.237L47.5499 154.852Z" fill="#00362E"/>
<path d="M228.86 141.712C234.476 141.712 239.029 137.159 239.029 131.543C239.029 125.928 234.476 121.375 228.86 121.375C223.244 121.375 218.692 125.928 218.692 131.543C218.692 137.159 223.244 141.712 228.86 141.712Z" fill="#F6F7F9"/>
<path d="M279.018 66.694C279.018 66.0809 278.958 65.469 278.839 64.8673L269.397 17.0859H208.942C207.156 17.0859 205.707 18.5344 205.707 20.3208V65.7709C205.707 68.712 207.093 71.4837 209.464 73.2248C216.17 78.1507 234.002 86.4166 279.019 87.9828L279.018 66.694Z" fill="#F6F7F9"/>
<path d="M275.866 49.8178L269.398 17.0859H248.519L252.901 39.2614C252.957 39.5486 252.986 39.8407 252.986 40.1339V86.0711C260.452 86.9632 269.071 87.6368 279.018 87.9828V66.6946C279.018 66.3878 279.004 66.0815 278.974 65.7769C278.944 65.4717 278.899 65.1687 278.839 64.8679L275.866 49.8178Z" fill="#D9E0E3"/>
<path d="M50.1576 141.712C55.7735 141.712 60.326 137.159 60.326 131.543C60.326 125.928 55.7735 121.375 50.1576 121.375C44.5418 121.375 39.9893 125.928 39.9893 131.543C39.9893 137.159 44.5418 141.712 50.1576 141.712Z" fill="#F6F7F9"/>
<path d="M205.706 98.5718H213.109C215.437 98.5718 217.323 96.6857 217.323 94.3581C217.323 92.0306 215.437 90.1445 213.109 90.1445H205.706C203.378 90.1445 201.492 92.0306 201.492 94.3581C201.492 96.6857 203.378 98.5718 205.706 98.5718Z" fill="#F6F7F9"/>
<path d="M52.2141 17.0859H21.1597C19.775 17.0859 18.6523 18.2086 18.6523 19.5933V67.0106C18.6523 68.3954 19.775 69.518 21.1597 69.518H52.2141V17.0859Z" fill="#F6F7F9"/>
<path d="M91.696 17.0859H60.6416V69.5174H91.696C93.0808 69.5174 94.2034 68.3948 94.2034 67.0101V19.5927C94.2034 18.2085 93.0808 17.0859 91.696 17.0859Z" fill="#F6F7F9"/>
<path d="M184.197 17.0859H153.143V69.5174H184.197C185.582 69.5174 186.704 68.3948 186.704 67.0101V19.5927C186.704 18.2085 185.582 17.0859 184.197 17.0859Z" fill="#F6F7F9"/>
<path d="M144.714 17.0859H113.659C112.274 17.0859 111.152 18.2086 111.152 19.5933V67.0106C111.152 68.3954 112.274 69.518 113.659 69.518H144.714V17.0859Z" fill="#F6F7F9"/>
</svg>
