<svg width="261" height="188" viewBox="0 0 261 188" fill="none" xmlns="http://www.w3.org/2000/svg">
<path d="M219.154 15.4876L218.527 17.9047L207.024 62.6665L192.848 67.1427L177.929 62.6665L166.425 17.9047L165.798 15.4876C165.196 11.6087 166.322 7.66061 168.878 4.68209C171.435 1.70357 175.167 -0.00714421 179.092 2.24273e-05H205.905C209.822 0.00592879 213.542 1.72226 216.088 4.69909C218.635 7.67592 219.755 11.6164 219.154 15.4876Z" fill="#404D57"/>
<path d="M218.527 17.9043L207.023 62.6661H177.928L166.424 17.9043H218.527Z" fill="#4A5B66"/>
<path d="M246.19 143.238L203.666 149.952C198.322 149.945 193.194 152.065 189.415 155.844C185.636 159.623 183.516 164.751 183.523 170.095C183.531 164.751 181.411 159.623 177.632 155.844C173.853 152.065 168.725 149.945 163.381 149.952C152.235 149.952 149.675 152.235 149.675 163.381C149.675 165.753 143.641 167.991 144.402 170.095H126.184C128.511 166.156 125.333 161.59 125.333 156.666C125.333 141.85 117.768 136.524 102.952 136.524C91.5738 136.511 81.4306 143.692 77.6618 154.428H74.5285C70.7598 143.692 60.6165 136.511 49.2381 136.524C39.301 136.524 30.6172 139.702 26.0067 147.714L0.000124051 143.238C0.453858 137.512 3.84174 132.43 8.95248 129.809V40.2857C4.01435 40.271 0.0148722 36.2715 0.000124051 31.3333C-0.0125125 28.9583 0.940753 26.6802 2.64107 25.0219C4.29932 23.3216 6.57746 22.3683 8.95248 22.381H107.428C112.367 22.3957 116.366 26.3952 116.381 31.3333C116.344 36.2624 112.357 40.2491 107.428 40.2857V76.0951H120.857C120.894 71.1661 124.88 67.1793 129.809 67.1428H138.762C143.7 67.1575 147.699 71.157 147.714 76.0951H161.143C161.143 76.0951 161.143 64.6809 177.928 62.6666H207.023C223.809 64.6809 223.809 76.0951 223.809 76.0951C223.809 76.0951 237.238 85.0475 237.238 93.9999V129.809C242.348 132.43 245.736 137.512 246.19 143.238Z" fill="#91A3B0"/>
<path d="M129.809 156.666C129.831 161.387 128.579 166.027 126.183 170.095C120.954 179.171 110.918 184.371 100.487 183.409C90.0566 182.447 81.1414 175.499 77.6611 165.619H102.952C107.881 165.582 111.867 161.595 111.904 156.666C111.889 151.728 107.89 147.729 102.952 147.714H77.6611C82.0518 135.428 94.6371 128.075 107.496 130.282C120.355 132.49 129.767 143.619 129.809 156.666Z" fill="#293339"/>
<path d="M49.2382 165.619H74.5286C70.461 177.152 59.1069 184.473 46.9229 183.419C34.7389 182.365 24.8107 173.203 22.784 161.143C22.5128 159.666 22.3779 158.168 22.3812 156.666C22.3586 151.945 23.6113 147.306 26.0069 143.238C31.2359 134.161 41.2718 128.961 51.7025 129.923C62.1332 130.886 71.0484 137.834 74.5286 147.714H49.2382C44.3092 147.751 40.3224 151.737 40.2859 156.666C40.3006 161.604 44.3001 165.604 49.2382 165.619Z" fill="#293339"/>
<path d="M163.38 143.238C158.036 143.231 152.908 145.351 149.129 149.13C145.35 152.909 143.23 158.037 143.237 163.381C143.23 165.67 143.624 167.942 144.401 170.095C147.816 179.755 157.938 185.312 167.92 183.008C177.903 180.705 184.567 171.275 183.405 161.096C182.243 150.917 173.625 143.232 163.38 143.238ZM163.38 170.095C159.672 170.095 156.666 167.089 156.666 163.381C156.666 159.673 159.672 156.667 163.38 156.667C167.088 156.667 170.094 159.673 170.094 163.381C170.094 167.089 167.088 170.095 163.38 170.095Z" fill="#293339"/>
<path d="M8.95117 94H237.236V111.905H8.95117V94Z" fill="#293339"/>
<path d="M89.5225 40.2852H107.427V93.9993H89.5225V40.2852Z" fill="#293339"/>
<path d="M8.95117 40.2852H26.8559V93.9993H8.95117V40.2852Z" fill="#293339"/>
<path d="M246.19 143.238H203.666C198.322 143.23 193.194 145.35 189.415 149.129C185.636 152.908 183.516 158.036 183.523 163.38C183.523 152.256 174.505 143.238 163.381 143.238C152.256 143.238 143.238 152.256 143.238 163.38C143.231 165.669 143.625 167.942 144.402 170.095H126.184C128.579 166.027 129.832 161.387 129.809 156.666C129.767 143.619 120.355 132.49 107.496 130.282C94.6376 128.075 82.0524 135.428 77.6617 147.714H74.5284C71.0481 137.834 62.1329 130.885 51.7022 129.923C41.2716 128.961 31.2356 134.161 26.0066 143.238H0C0.453734 137.512 3.84162 132.43 8.95236 129.809V111.904H237.238V129.809C242.348 132.43 245.736 137.512 246.19 143.238Z" fill="#4A5B66"/>
<path d="M203.666 143.238C193.421 143.232 184.804 150.917 183.642 161.096C182.48 171.275 189.143 180.705 199.126 183.008C209.109 185.312 219.23 179.755 222.645 170.095C223.422 167.942 223.816 165.67 223.809 163.381C223.816 158.037 221.696 152.909 217.917 149.13C214.138 145.351 209.011 143.231 203.666 143.238ZM203.666 170.095C199.958 170.095 196.952 167.089 196.952 163.381C196.952 159.673 199.958 156.667 203.666 156.667C207.374 156.667 210.38 159.673 210.38 163.381C210.38 167.089 207.374 170.095 203.666 170.095Z" fill="#293339"/>
<path d="M255.724 170.095H222.645C223.422 167.942 223.816 165.67 223.809 163.381C223.816 158.037 221.696 152.909 217.917 149.13C214.138 145.351 209.01 143.231 203.666 143.238L246.19 143.238L259.439 163.157C260.362 164.525 260.452 166.292 259.673 167.747C258.894 169.201 257.374 170.105 255.724 170.095Z" fill="#293339"/>
<path d="M22.3809 156.667C22.3777 158.168 22.5125 159.666 22.7838 161.143H8.95236C4.01423 161.128 0.0147481 157.129 0 152.191V143.238H26.0066C23.611 147.306 22.3583 151.946 22.3809 156.667Z" fill="#293339"/>
<path d="M26.8564 40.2852H62.6659V93.9993H26.8564V40.2852Z" fill="#D9E0E3"/>
<path d="M62.666 40.2852H89.5231V93.9993H62.666V40.2852Z" fill="#B9C5CC"/>
<path d="M163.38 170.095C167.088 170.095 170.094 167.088 170.094 163.38C170.094 159.672 167.088 156.666 163.38 156.666C159.672 156.666 156.666 159.672 156.666 163.38C156.666 167.088 159.672 170.095 163.38 170.095Z" fill="#B9C5CC"/>
<path d="M203.664 170.095C207.373 170.095 210.379 167.088 210.379 163.38C210.379 159.672 207.373 156.666 203.664 156.666C199.956 156.666 196.95 159.672 196.95 163.38C196.95 167.088 199.956 170.095 203.664 170.095Z" fill="#B9C5CC"/>
<path d="M102.951 188C89.6645 188.016 77.822 179.627 73.4302 167.087C72.672 164.768 73.9113 162.269 76.2164 161.468C78.5215 160.668 81.0431 161.861 81.8857 164.151C84.7925 172.376 92.2204 178.156 100.907 178.953C109.594 179.751 117.95 175.42 122.306 167.862C124.311 164.474 125.357 160.604 125.331 156.667C125.294 145.801 117.458 136.532 106.75 134.688C96.0423 132.843 85.5564 138.956 81.8857 149.183C81.0431 151.473 78.5215 152.666 76.2164 151.865C73.9113 151.065 72.672 148.566 73.4302 146.246C78.5363 131.894 93.2246 123.294 108.239 125.866C123.254 128.437 134.244 141.434 134.284 156.667C134.297 162.187 132.832 167.611 130.04 172.374C124.441 182.039 114.12 187.992 102.951 188Z" fill="#404D57"/>
<path d="M49.2381 188C33.9195 188.069 20.824 176.991 18.3524 161.872C18.044 160.155 17.8942 158.412 17.9048 156.667C17.8918 151.146 19.357 145.723 22.1482 140.96C28.2611 130.368 39.9836 124.308 52.1596 125.445C64.3356 126.581 74.7339 134.706 78.7809 146.246C79.539 148.566 78.2998 151.065 75.9947 151.865C73.6895 152.666 71.168 151.473 70.3254 149.182C67.4186 140.958 59.9906 135.178 51.304 134.38C42.6174 133.583 34.2612 137.914 29.9055 145.472C27.8923 148.858 26.8386 152.728 26.8572 156.667C26.8527 157.893 26.9621 159.117 27.1839 160.324C28.8354 170.392 37.0964 178.062 47.2588 178.964C57.4212 179.866 66.9041 173.77 70.303 164.151C71.1456 161.861 73.6672 160.668 75.9723 161.468C78.2774 162.269 79.5166 164.768 78.7585 167.087C74.3666 179.626 62.5241 188.016 49.2381 188Z" fill="#404D57"/>
<path d="M163.38 188C149.783 188 138.761 176.977 138.761 163.381C138.761 149.784 149.783 138.762 163.38 138.762C176.976 138.762 187.999 149.784 187.999 163.381C187.981 176.97 176.969 187.982 163.38 188ZM163.38 147.714C154.727 147.714 147.713 154.728 147.713 163.381C147.713 172.033 154.727 179.047 163.38 179.047C172.032 179.047 179.046 172.033 179.046 163.381C179.046 154.728 172.032 147.714 163.38 147.714Z" fill="#404D57"/>
<path d="M203.666 188C190.069 188 179.047 176.977 179.047 163.381C179.047 149.784 190.069 138.762 203.666 138.762C217.263 138.762 228.285 149.784 228.285 163.381C228.268 176.97 217.255 187.982 203.666 188ZM203.666 147.714C195.013 147.714 187.999 154.728 187.999 163.381C187.999 172.033 195.013 179.047 203.666 179.047C212.318 179.047 219.332 172.033 219.332 163.381C219.332 154.728 212.318 147.714 203.666 147.714Z" fill="#404D57"/>
<path d="M111.904 156.666C111.867 161.595 107.88 165.582 102.951 165.619H49.237C44.2989 165.604 40.2994 161.604 40.2847 156.666C40.3212 151.737 44.308 147.75 49.237 147.714H102.951C107.889 147.729 111.889 151.728 111.904 156.666Z" fill="#91A3B0"/>
</svg>
