<svg width="201" height="201" viewBox="0 0 201 201" fill="none" xmlns="http://www.w3.org/2000/svg">
<g clip-path="url(#clip0_1399_2)">
<path d="M82.8457 5.88892V80.8713C82.8457 88.4481 76.6783 94.6116 69.1055 94.6116H53.4023V108.744H41.625V94.6116H25.9219C18.3451 94.6116 12.1816 88.4481 12.1816 80.8713V5.88892C12.1816 2.63837 14.8158 0.000244141 18.0703 0.000244141C21.3209 0.000244141 23.959 2.63837 23.959 5.88892V80.8713C23.959 81.9549 24.8384 82.8342 25.9219 82.8342H41.625V5.88892C41.625 2.63837 44.2592 0.000244141 47.5137 0.000244141C50.7642 0.000244141 53.4023 2.63837 53.4023 5.88892V82.8342H69.1055C70.1851 82.8342 71.0684 81.9549 71.0684 80.8713V5.88892C71.0684 2.63837 73.7026 0.000244141 76.957 0.000244141C80.2076 0.000244141 82.8457 2.63837 82.8457 5.88892Z" fill="#1C6C94"/>
<path d="M82.846 5.88867V80.8711C82.846 88.4479 76.6786 94.6113 69.1057 94.6113H53.4026V108.744H47.4629V0H47.5139C50.7645 0 53.4026 2.63813 53.4026 5.88867V82.834H69.1057C70.1853 82.834 71.0686 81.9546 71.0686 80.8711V5.88867C71.0686 2.63813 73.7028 0 76.9573 0C80.2078 0 82.846 2.63813 82.846 5.88867Z" fill="#165771"/>
<path d="M150.905 1.02861C148.905 -0.339525 146.272 -0.343058 144.269 1.01919C120.556 17.142 106.398 43.8871 106.398 72.563V104.475C106.398 112.051 112.562 118.215 120.139 118.215H175.08C182.656 118.215 188.82 112.051 188.82 104.475V72.6027C188.82 43.9005 174.642 17.1412 150.905 1.02861Z" fill="#1C6C94"/>
<path d="M188.818 72.6034V104.473C188.818 112.05 182.655 118.213 175.078 118.213H147.609V0C148.764 0.00392578 149.914 0.345469 150.907 1.02855C174.642 17.14 188.818 43.902 188.818 72.6034Z" fill="#165771"/>
<path d="M153.51 76.957V132.299H141.732V76.957C141.732 73.7065 144.367 71.0684 147.621 71.0684C150.872 71.0684 153.51 73.7065 153.51 76.957Z" fill="#165771"/>
<path d="M153.51 76.957V132.299H147.609V71.0684H147.621C150.872 71.0684 153.51 73.7065 153.51 76.957Z" fill="#0C3F60"/>
<path d="M165.227 169.792V136.225C165.227 132.972 162.59 130.336 159.338 130.336H135.822C132.57 130.336 129.934 132.972 129.934 136.225V169.798C129.806 170.355 123.226 180.213 130.151 191.324C138.201 204.24 156.998 204.217 165.027 191.307C171.807 180.404 165.313 170.167 165.227 169.792Z" fill="#E7985B"/>
<path d="M165.028 191.307C161.012 197.757 154.315 200.992 147.609 201V130.336H159.34C162.59 130.336 165.228 132.974 165.228 136.225V169.79C165.315 170.167 171.808 180.405 165.028 191.307Z" fill="#D38853"/>
<path d="M65.1378 169.768V112.67C65.1378 109.418 62.5012 106.781 59.2491 106.781H35.7337C32.4815 106.781 29.845 109.418 29.845 112.67V169.77C29.7178 170.32 23.1213 180.187 30.0483 191.312C38.0836 204.217 56.8917 204.243 64.9407 191.306C71.737 180.382 65.2288 170.163 65.1378 169.768Z" fill="#E7985B"/>
<path d="M64.9405 191.307C60.9126 197.785 54.1838 201.012 47.4629 201V106.781H59.2481C62.5026 106.781 65.1368 109.419 65.1368 112.67V169.766C65.231 170.163 71.7399 180.382 64.9405 191.307Z" fill="#D38853"/>
</g>
<defs>
<clipPath id="clip0_1399_2">
<rect width="201" height="201" fill="white"/>
</clipPath>
</defs>
</svg>
