<svg width="201" height="201" viewBox="0 0 201 201" fill="none" xmlns="http://www.w3.org/2000/svg">
<g clip-path="url(#clip0_1655_11473)">
<path d="M82.845 5.88867V80.8711C82.845 88.4479 76.6776 94.6113 69.1047 94.6113H53.4016V108.744H41.6243V94.6113H25.9211C18.3444 94.6113 12.1809 88.4479 12.1809 80.8711V5.88867C12.1809 2.63813 14.8151 0 18.0696 0C21.3201 0 23.9583 2.63813 23.9583 5.88867V80.8711C23.9583 81.9546 24.8376 82.834 25.9211 82.834H41.6243V5.88867C41.6243 2.63813 44.2585 0 47.5129 0C50.7635 0 53.4016 2.63813 53.4016 5.88867V82.834H69.1047C70.1843 82.834 71.0676 81.9546 71.0676 80.8711V5.88867C71.0676 2.63813 73.7018 0 76.9563 0C80.2068 0 82.845 2.63813 82.845 5.88867Z" fill="#005D31"/>
<path d="M82.845 5.88867V80.8711C82.845 88.4479 76.6776 94.6113 69.1047 94.6113H53.4016V108.744H47.4619V0H47.5129C50.7635 0 53.4016 2.63813 53.4016 5.88867V82.834H69.1047C70.1843 82.834 71.0676 81.9546 71.0676 80.8711V5.88867C71.0676 2.63813 73.7018 0 76.9563 0C80.2069 0 82.845 2.63813 82.845 5.88867Z" fill="#005D31"/>
<path d="M150.904 1.02861C148.904 -0.339525 146.271 -0.343058 144.268 1.01919C120.555 17.142 106.398 43.8871 106.398 72.563V104.475C106.398 112.051 112.562 118.215 120.138 118.215H175.079C182.655 118.215 188.819 112.051 188.819 104.475V72.6027C188.819 43.9005 174.641 17.1412 150.904 1.02861Z" fill="#005D31"/>
<path d="M188.818 72.6034V104.473C188.818 112.05 182.654 118.213 175.077 118.213H147.609V0C148.763 0.00392578 149.913 0.345469 150.906 1.02855C174.642 17.14 188.818 43.902 188.818 72.6034Z" fill="#005D31"/>
<path d="M153.509 76.957V132.299H141.732V76.957C141.732 73.7065 144.366 71.0684 147.62 71.0684C150.871 71.0684 153.509 73.7065 153.509 76.957Z" fill="#005D31"/>
<path d="M153.509 76.957V132.299H147.609V71.0684H147.62C150.871 71.0684 153.509 73.7065 153.509 76.957Z" fill="#00362E"/>
<path d="M165.226 169.792V136.225C165.226 132.972 162.589 130.336 159.337 130.336H135.821C132.569 130.336 129.933 132.972 129.933 136.225V169.798C129.805 170.355 123.225 180.213 130.15 191.324C138.2 204.24 156.997 204.217 165.026 191.307C171.806 180.404 165.312 170.167 165.226 169.792Z" fill="#297A38"/>
<path d="M165.027 191.307C161.011 197.757 154.314 200.992 147.609 201V130.336H159.339C162.589 130.336 165.228 132.974 165.228 136.225V169.79C165.314 170.167 171.807 180.405 165.027 191.307Z" fill="#005D31"/>
<path d="M65.1378 169.768V112.67C65.1378 109.418 62.5012 106.781 59.2491 106.781H35.7337C32.4815 106.781 29.845 109.418 29.845 112.67V169.77C29.7178 170.32 23.1213 180.187 30.0483 191.312C38.0836 204.217 56.8917 204.243 64.9407 191.306C71.737 180.382 65.2288 170.163 65.1378 169.768Z" fill="#297A38"/>
<path d="M64.9395 191.307C60.9116 197.785 54.1829 201.012 47.4619 201V106.781H59.2471C62.5016 106.781 65.1358 109.419 65.1358 112.67V169.766C65.23 170.163 71.7389 180.382 64.9395 191.307Z" fill="#005D31"/>
</g>
<defs>
<clipPath id="clip0_1655_11473">
<rect width="201" height="201" fill="white"/>
</clipPath>
</defs>
</svg>
