<svg width="299" height="299" viewBox="0 0 299 299" fill="none" xmlns="http://www.w3.org/2000/svg">
<path d="M74.7501 154.483L19.8836 156.302C14.2983 156.697 9.96849 161.343 9.96674 166.942V194.35C7.14184 194.437 4.91635 196.787 4.98341 199.612V218.898C4.99162 221.85 7.38304 224.242 10.3355 224.25H288.665C291.617 224.242 294.009 221.85 294.017 218.898V199.961C294.173 197.042 291.951 194.54 289.033 194.35V159.835C289.025 156.883 286.634 154.492 283.681 154.483H74.7501Z" fill="#D9E0E3"/>
<path d="M294.017 199.981V218.918C294.014 221.862 291.628 224.247 288.685 224.25H224.25L249.167 154.483H283.701C286.645 154.486 289.031 156.872 289.033 159.816V194.35C291.954 194.55 294.173 197.058 294.017 199.981Z" fill="#5F7381"/>
<path d="M72.2584 224.25H10.3156C7.37185 224.247 4.98617 221.862 4.98342 218.918V199.632C4.91618 196.803 7.13871 194.448 9.96675 194.35V166.942C9.97486 161.341 14.2978 156.692 19.8836 156.277L54.9164 155.131L72.2584 224.25Z" fill="#5F7381"/>
<path d="M269.1 154.483L237.207 113.446C235.421 111.082 232.644 109.675 229.682 109.633H128.072C125.786 109.636 123.576 110.456 121.843 111.946L74.75 154.483H269.1Z" fill="#B9C5CC"/>
<path d="M234.217 254.15C250.73 254.15 264.117 240.763 264.117 224.25C264.117 207.737 250.73 194.35 234.217 194.35C217.704 194.35 204.317 207.737 204.317 224.25C204.317 240.763 217.704 254.15 234.217 254.15Z" fill="#404D57"/>
<path d="M234.217 239.2C242.474 239.2 249.167 232.507 249.167 224.25C249.167 215.993 242.474 209.3 234.217 209.3C225.96 209.3 219.267 215.993 219.267 224.25C219.267 232.507 225.96 239.2 234.217 239.2Z" fill="#D9E0E3"/>
<path d="M64.7836 254.15C81.2969 254.15 94.6836 240.763 94.6836 224.25C94.6836 207.737 81.2969 194.35 64.7836 194.35C48.2702 194.35 34.8835 207.737 34.8835 224.25C34.8835 240.763 48.2702 254.15 64.7836 254.15Z" fill="#404D57"/>
<path d="M64.7835 239.2C73.0402 239.2 79.7335 232.507 79.7335 224.25C79.7335 215.993 73.0402 209.3 64.7835 209.3C56.5268 209.3 49.8335 215.993 49.8335 224.25C49.8335 232.507 56.5268 239.2 64.7835 239.2Z" fill="#D9E0E3"/>
<path d="M174.417 109.633H144.517V89.7C144.517 81.4434 151.21 74.75 159.467 74.75C167.723 74.75 174.417 81.4434 174.417 89.7V109.633Z" fill="#C83A32"/>
<path d="M152.211 155.934L145.952 169.319L131.7 171.506C130.768 171.653 129.996 172.306 129.698 173.201C129.4 174.096 129.626 175.082 130.284 175.757L140.68 186.451L138.253 201.401C138.078 202.355 138.473 203.323 139.264 203.883C140.055 204.443 141.099 204.494 141.94 204.013L153.268 197.729C154.023 197.306 154.944 197.306 155.699 197.729L167.027 204.013C167.868 204.494 168.912 204.443 169.703 203.883C170.494 203.323 170.889 202.355 170.714 201.401L168.287 186.451L178.683 175.757C179.341 175.082 179.567 174.096 179.269 173.201C178.971 172.306 178.199 171.653 177.267 171.506L163.015 169.319L156.756 155.934C156.354 155.039 155.464 154.464 154.483 154.464C153.503 154.464 152.613 155.039 152.211 155.934Z" fill="#EEAA38"/>
<path d="M189.367 159.467C186.615 159.467 184.384 157.236 184.384 154.483V109.633C184.384 106.881 186.615 104.65 189.367 104.65C192.119 104.65 194.35 106.881 194.35 109.633V154.483C194.35 157.236 192.119 159.467 189.367 159.467Z" fill="#D9E0E3"/>
<path d="M275.479 154.483H262.871L233.27 116.51C232.428 115.362 231.105 114.664 229.682 114.617H128.072C126.968 114.618 125.903 115.026 125.082 115.763L73.1056 163.154C71.0489 164.806 68.0615 164.569 66.2912 162.614C64.5208 160.658 64.5807 157.662 66.4279 155.779L118.504 108.238C121.163 105.939 124.556 104.666 128.072 104.65H229.682C234.181 104.694 238.409 106.808 241.144 110.381L275.479 154.483Z" fill="#D9E0E3"/>
<path d="M34.8835 155.779V164.45C34.867 169.948 30.4144 174.4 24.9168 174.417H9.9668V166.942C9.9749 161.341 14.2978 156.692 19.8836 156.277L34.8835 155.779Z" fill="#EEAA38"/>
<path d="M294.017 199.981V218.918C294.014 221.862 291.628 224.247 288.685 224.25H278.718C281.662 224.247 284.047 221.862 284.05 218.918V199.981C284.207 197.058 281.988 194.55 279.067 194.35V159.816C279.064 156.872 276.678 154.486 273.735 154.483H283.701C286.645 154.486 289.031 156.872 289.033 159.816V194.35C291.954 194.55 294.173 197.058 294.017 199.981Z" fill="#404D57"/>
<path d="M275.479 154.483H265.512L231.177 110.381C230.988 110.125 230.77 109.891 230.529 109.683C227.825 106.517 223.879 104.68 219.715 104.65H229.682C234.181 104.694 238.409 106.808 241.144 110.381L275.479 154.483Z" fill="#D9E0E3"/>
<path d="M264.117 224.25C264.125 234.282 259.087 243.645 250.712 249.167H240.745C250.986 242.406 256.048 230.067 253.506 218.062C250.964 206.057 241.336 196.829 229.233 194.799C230.877 194.497 232.545 194.346 234.217 194.35C242.147 194.35 249.752 197.5 255.359 203.108C260.967 208.715 264.117 216.32 264.117 224.25Z" fill="#293339"/>
<path d="M94.6834 224.25C94.6914 234.282 89.6539 243.645 81.2782 249.167H71.3116C81.5527 242.406 86.6146 230.067 84.0727 218.062C81.5308 206.057 71.9025 196.829 59.8 194.799C61.4439 194.497 63.112 194.346 64.7834 194.35C72.7134 194.35 80.3185 197.5 85.9259 203.108C91.5332 208.715 94.6834 216.32 94.6834 224.25Z" fill="#293339"/>
<path d="M174.417 89.7V104.65H164.45V89.7C164.481 83.3645 160.473 77.7133 154.483 75.647C156.075 75.0435 157.765 74.7394 159.467 74.75C167.723 74.75 174.417 81.4434 174.417 89.7Z" fill="#C83A32"/>
<path d="M24.9168 189.367C24.9168 192.119 22.6857 194.35 19.9335 194.35H9.9668V184.383H19.9335C22.6857 184.383 24.9168 186.614 24.9168 189.367Z" fill="#404D57"/>
<path d="M289.033 184.383V194.35H279.067C276.315 194.35 274.083 192.119 274.083 189.367C274.083 186.614 276.315 184.383 279.067 184.383H289.033Z" fill="#404D57"/>
<path d="M159.467 59.8C156.715 59.8 154.484 57.5689 154.484 54.8167V44.85C154.484 42.0978 156.715 39.8667 159.467 39.8667C162.219 39.8667 164.45 42.0978 164.45 44.85V54.8167C164.45 57.5689 162.219 59.8 159.467 59.8Z" fill="#C83A32"/>
<path d="M184.134 70.0159C182.119 70.0154 180.302 68.8013 179.531 66.9394C178.76 65.0776 179.186 62.9345 180.611 61.5093L187.657 54.4629C188.909 53.1674 190.762 52.6479 192.504 53.1039C194.246 53.56 195.607 54.9207 196.063 56.663C196.519 58.4053 195.999 60.2581 194.704 61.5093L187.657 68.5557C186.725 69.4936 185.457 70.0194 184.134 70.0159Z" fill="#C83A32"/>
<path d="M204.317 94.6833H194.35C191.598 94.6833 189.367 92.4522 189.367 89.7C189.367 86.9478 191.598 84.7167 194.35 84.7167H204.317C207.069 84.7167 209.3 86.9478 209.3 89.7C209.3 92.4522 207.069 94.6833 204.317 94.6833Z" fill="#C83A32"/>
<path d="M124.584 94.6833H114.617C111.865 94.6833 109.634 92.4522 109.634 89.7C109.634 86.9478 111.865 84.7167 114.617 84.7167H124.584C127.336 84.7167 129.567 86.9478 129.567 89.7C129.567 92.4522 127.336 94.6833 124.584 94.6833Z" fill="#C83A32"/>
<path d="M134.799 70.0159C133.477 70.0194 132.208 69.4936 131.276 68.5557L124.23 61.5093C122.934 60.2581 122.415 58.4053 122.871 56.663C123.327 54.9207 124.688 53.56 126.43 53.1039C128.172 52.6479 130.025 53.1674 131.276 54.4629L138.323 61.5093C139.747 62.9345 140.174 65.0776 139.402 66.9394C138.631 68.8013 136.815 70.0154 134.799 70.0159Z" fill="#C83A32"/>
</svg>
