<svg width="3907" height="3907" viewBox="0 0 3907 3907" fill="none" xmlns="http://www.w3.org/2000/svg">
<path d="M976.75 2018.62L259.815 2042.38C186.833 2047.54 130.256 2108.24 130.233 2181.41V2539.55C93.3205 2540.68 64.2402 2571.39 65.1165 2608.31V2860.31C65.2238 2898.89 96.4722 2930.14 135.052 2930.25H3771.95C3810.53 2930.14 3841.78 2898.89 3841.88 2860.31V2612.87C3843.93 2574.72 3814.89 2542.03 3776.77 2539.55V2088.55C3776.66 2049.97 3745.41 2018.72 3706.83 2018.62H976.75Z" fill="#B9C5CC"/>
<path d="M3841.88 2613.13V2860.58C3841.85 2899.04 3810.67 2930.21 3772.21 2930.25H2930.25L3255.83 2018.62H3707.09C3745.56 2018.65 3776.73 2049.83 3776.77 2088.29V2539.55C3814.93 2542.16 3843.93 2574.93 3841.88 2613.13Z" fill="#5F7381"/>
<path d="M944.192 2930.25H134.791C96.3259 2930.21 65.1524 2899.04 65.1165 2860.58V2608.57C64.238 2571.61 93.2794 2540.82 130.233 2539.55V2181.41C130.339 2108.22 186.826 2047.47 259.815 2042.06L717.586 2027.08L944.192 2930.25Z" fill="#5F7381"/>
<path d="M3516.3 2018.62L3099.55 1482.38C3076.22 1451.5 3039.93 1433.12 3001.23 1432.57H1673.5C1643.63 1432.6 1614.76 1443.32 1592.1 1462.78L976.75 2018.62H3516.3Z" fill="#5F7381"/>
<path d="M3060.48 3320.95C3276.26 3320.95 3451.18 3146.03 3451.18 2930.25C3451.18 2714.47 3276.26 2539.55 3060.48 2539.55C2844.71 2539.55 2669.78 2714.47 2669.78 2930.25C2669.78 3146.03 2844.71 3320.95 3060.48 3320.95Z" fill="#404D57"/>
<path d="M3060.48 3125.6C3168.37 3125.6 3255.83 3038.14 3255.83 2930.25C3255.83 2822.36 3168.37 2734.9 3060.48 2734.9C2952.59 2734.9 2865.13 2822.36 2865.13 2930.25C2865.13 3038.14 2952.59 3125.6 3060.48 3125.6Z" fill="#B9C5CC"/>
<path d="M846.517 3320.95C1062.29 3320.95 1237.22 3146.03 1237.22 2930.25C1237.22 2714.47 1062.29 2539.55 846.517 2539.55C630.739 2539.55 455.817 2714.47 455.817 2930.25C455.817 3146.03 630.739 3320.95 846.517 3320.95Z" fill="#404D57"/>
<path d="M846.517 3125.6C954.405 3125.6 1041.87 3038.14 1041.87 2930.25C1041.87 2822.36 954.405 2734.9 846.517 2734.9C738.628 2734.9 651.167 2822.36 651.167 2930.25C651.167 3038.14 738.628 3125.6 846.517 3125.6Z" fill="#B9C5CC"/>
<path d="M2279.08 1432.57H1888.38V1172.1C1888.38 1064.21 1975.84 976.75 2083.73 976.75C2191.62 976.75 2279.08 1064.21 2279.08 1172.1V1432.57Z" fill="#C83A32"/>
<path d="M1988.92 2037.57L1907.14 2212.47L1720.9 2241.06C1708.73 2242.96 1698.64 2251.51 1694.75 2263.2C1690.86 2274.89 1693.81 2287.77 1702.41 2296.6L1838.24 2436.34L1806.53 2631.69C1804.25 2644.15 1809.41 2656.8 1819.74 2664.12C1830.08 2671.44 1843.72 2672.1 1854.72 2665.81L2002.73 2583.7C2012.6 2578.18 2024.63 2578.18 2034.51 2583.7L2182.52 2665.81C2193.51 2672.1 2207.15 2671.44 2217.49 2664.12C2227.83 2656.8 2232.98 2644.15 2230.7 2631.69L2198.99 2436.34L2334.82 2296.6C2343.42 2287.77 2346.38 2274.89 2342.49 2263.2C2338.59 2251.51 2328.5 2242.96 2316.33 2241.06L2130.1 2212.47L2048.31 2037.57C2043.05 2025.88 2031.43 2018.36 2018.62 2018.36C2005.8 2018.36 1994.18 2025.88 1988.92 2037.57Z" fill="#EEAA38"/>
<path d="M2474.43 2083.73C2438.47 2083.73 2409.32 2054.58 2409.32 2018.62V1432.57C2409.32 1396.6 2438.47 1367.45 2474.43 1367.45C2510.4 1367.45 2539.55 1396.6 2539.55 1432.57V2018.62C2539.55 2054.58 2510.4 2083.73 2474.43 2083.73Z" fill="#B9C5CC"/>
<path d="M3599.65 2018.62H3434.9L3048.11 1522.43C3037.11 1507.42 3019.82 1498.3 3001.23 1497.68H1673.5C1659.08 1497.7 1645.17 1503.03 1634.43 1512.66L955.261 2131.92C928.388 2153.5 889.351 2150.4 866.218 2124.85C843.085 2099.3 843.868 2060.15 868.005 2035.55L1548.47 1414.33C1583.22 1384.29 1627.56 1367.66 1673.5 1367.45H3001.23C3060.02 1368.02 3115.27 1395.64 3151 1442.33L3599.65 2018.62Z" fill="#B9C5CC"/>
<path d="M455.817 2035.55V2148.85C455.602 2220.69 397.42 2278.87 325.583 2279.08H130.233V2181.41C130.339 2108.22 186.826 2047.47 259.815 2042.06L455.817 2035.55Z" fill="#EEAA38"/>
<path d="M3841.88 2613.13V2860.58C3841.85 2899.04 3810.67 2930.21 3772.21 2930.25H3641.98C3680.44 2930.21 3711.61 2899.04 3711.65 2860.58V2613.13C3713.7 2574.93 3684.7 2542.16 3646.53 2539.55V2088.29C3646.5 2049.83 3615.32 2018.65 3576.86 2018.62H3707.09C3745.56 2018.65 3776.73 2049.83 3776.77 2088.29V2539.55C3814.93 2542.16 3843.93 2574.93 3841.88 2613.13Z" fill="#404D57"/>
<path d="M3599.65 2018.62H3469.42L3020.76 1442.33C3018.29 1438.99 3015.45 1435.93 3012.3 1433.22C2976.96 1391.84 2925.4 1367.84 2870.99 1367.45H3001.23C3060.02 1368.02 3115.27 1395.64 3151 1442.33L3599.65 2018.62Z" fill="#B9C5CC"/>
<path d="M3451.18 2930.25C3451.29 3061.34 3385.46 3183.69 3276.02 3255.83H3145.79C3279.61 3167.49 3345.75 3006.27 3312.53 2849.39C3279.32 2692.52 3153.51 2571.94 2995.37 2545.41C3016.85 2541.46 3038.64 2539.5 3060.48 2539.55C3164.1 2539.55 3263.48 2580.71 3336.75 2653.98C3410.02 2727.25 3451.18 2826.63 3451.18 2930.25Z" fill="#293339"/>
<path d="M1237.22 2930.25C1237.32 3061.34 1171.5 3183.69 1062.05 3255.83H931.819C1065.64 3167.49 1131.78 3006.27 1098.57 2849.39C1065.35 2692.52 939.542 2571.94 781.4 2545.41C802.88 2541.46 824.677 2539.5 846.517 2539.55C950.137 2539.55 1049.51 2580.71 1122.78 2653.98C1196.05 2727.25 1237.22 2826.63 1237.22 2930.25Z" fill="#293339"/>
<path d="M2279.08 1172.1V1367.45H2148.85V1172.1C2149.25 1089.32 2096.88 1015.47 2018.62 988.471C2039.41 980.585 2061.49 976.612 2083.73 976.75C2191.62 976.75 2279.08 1064.21 2279.08 1172.1Z" fill="#C83A32"/>
<path d="M325.583 2474.43C325.583 2510.4 296.43 2539.55 260.467 2539.55H130.233V2409.32H260.467C296.43 2409.32 325.583 2438.47 325.583 2474.43Z" fill="#404D57"/>
<path d="M3776.77 2409.32V2539.55H3646.53C3610.57 2539.55 3581.42 2510.4 3581.42 2474.43C3581.42 2438.47 3610.57 2409.32 3646.53 2409.32H3776.77Z" fill="#404D57"/>
<path d="M2083.73 781.4C2047.77 781.4 2018.62 752.246 2018.62 716.283V586.05C2018.62 550.087 2047.77 520.933 2083.73 520.933C2119.7 520.933 2148.85 550.087 2148.85 586.05V716.283C2148.85 752.246 2119.7 781.4 2083.73 781.4Z" fill="#C83A32"/>
<path d="M2406.06 914.889C2379.73 914.884 2355.99 899.018 2345.91 874.69C2335.84 850.361 2341.41 822.358 2360.02 803.735L2452.1 711.66C2468.45 694.733 2492.66 687.944 2515.43 693.903C2538.19 699.862 2555.97 717.642 2561.93 740.409C2567.89 763.175 2561.1 787.386 2544.17 803.735L2452.1 895.81C2439.92 908.065 2423.34 914.936 2406.06 914.889Z" fill="#C83A32"/>
<path d="M2669.78 1237.22H2539.55C2503.59 1237.22 2474.43 1208.06 2474.43 1172.1C2474.43 1136.14 2503.59 1106.98 2539.55 1106.98H2669.78C2705.75 1106.98 2734.9 1136.14 2734.9 1172.1C2734.9 1208.06 2705.75 1237.22 2669.78 1237.22Z" fill="#C83A32"/>
<path d="M1627.92 1237.22H1497.68C1461.72 1237.22 1432.57 1208.06 1432.57 1172.1C1432.57 1136.14 1461.72 1106.98 1497.68 1106.98H1627.92C1663.88 1106.98 1693.03 1136.14 1693.03 1172.1C1693.03 1208.06 1663.88 1237.22 1627.92 1237.22Z" fill="#C83A32"/>
<path d="M1761.41 914.889C1744.13 914.936 1727.55 908.065 1715.37 895.81L1623.29 803.735C1606.37 787.386 1599.58 763.175 1605.54 740.409C1611.5 717.642 1629.28 699.862 1652.04 693.903C1674.81 687.944 1699.02 694.733 1715.37 711.66L1807.44 803.735C1826.06 822.358 1831.63 850.361 1821.55 874.69C1811.48 899.018 1787.74 914.884 1761.41 914.889Z" fill="#C83A32"/>
</svg>
