<svg width="203" height="185" viewBox="0 0 203 185" fill="none" xmlns="http://www.w3.org/2000/svg">
<path d="M102.199 140.482L173.822 90.0057L74.9052 72.0042L2.15625 119.666L102.199 140.482Z" fill="#F4D177"/>
<path d="M100.805 90.3704L29.1816 45.0173L128.105 28.8384L200.4 71.0961L100.805 90.3704Z" fill="#E36B88"/>
<path d="M75.333 51.2204L16.6914 14.0916L97.6832 0.841064L157.125 34.9486L75.333 51.2204Z" fill="#02A9F4"/>
<path d="M107.564 143.628C106.573 142.061 105.217 140.967 103.721 140.686L3.27539 122.684C3.27539 122.684 7.57923 135.129 7.42579 143.41C7.31041 150.119 3.33288 162.813 3.33288 162.813L103.772 180.815C105.269 181.096 106.624 180.488 107.609 179.286C108.594 178.084 109.208 176.293 109.202 174.208L109.17 149.281C109.17 147.196 108.555 145.181 107.564 143.628ZM199.728 74.3767L99.2888 90.5497C97.7862 90.8058 96.4306 91.784 95.4394 93.197C94.4482 94.6042 93.8344 96.401 93.8344 98.2748L93.809 120.683C93.8023 122.563 94.4101 124.168 95.395 125.236C96.3794 126.323 97.7354 126.867 99.2318 126.617L199.677 110.438C199.677 110.438 196.793 103.288 195.975 91.9501C195.438 84.5255 199.728 74.3767 199.728 74.3767ZM74.0482 80.8997L156.275 67.6428C156.275 67.6428 152.662 61.5675 152.316 53.1263C152.041 46.444 156.32 38.1174 156.32 38.1174L74.0867 51.3675C72.8651 51.5725 71.7522 52.3782 70.9402 53.5292C70.1278 54.6738 69.629 56.1448 69.629 57.6855L69.6037 76.0265C69.5969 77.5545 70.0961 78.8784 70.9017 79.761C71.7078 80.6439 72.8203 81.0848 74.0482 80.8997Z" fill="#E4F1FF"/>
<path d="M129.373 121.331L105.831 137.922C105.334 137.718 104.822 137.562 104.297 137.463L3.85083 119.461C2.10511 119.141 0.372073 120.328 0.0521098 122.105C-0.267457 123.886 0.915653 125.587 2.69983 125.907L103.113 143.903C103.529 143.983 104.181 144.408 104.802 145.39C105.499 146.477 105.895 147.893 105.895 149.284L105.927 174.218C105.934 175.436 105.614 176.555 105.076 177.211C104.693 177.668 104.475 177.607 104.347 177.591L3.90832 159.589C2.16894 159.267 0.429563 160.456 0.1096 162.234C-0.210363 164.015 0.973143 165.715 2.75732 166.035L103.165 184.031C103.619 184.117 104.066 184.159 104.507 184.159C106.27 184.159 107.937 183.493 109.303 182.246L177.609 133.447C179.566 132.059 180.87 129.239 180.863 125.767L180.848 113.471L129.373 121.331Z" fill="#FBAC0F"/>
<path d="M199.16 107.206L98.695 123.388C98.4583 123.436 98.1709 123.429 97.7998 123.017C97.3521 122.524 97.0774 121.658 97.0833 120.686L97.1087 98.2745C97.1087 97.1557 97.4734 95.9916 98.1193 95.0773C98.6308 94.3517 99.2576 93.8752 99.8075 93.7824L200.247 77.6094C202.038 77.3215 203.246 75.6432 202.959 73.8555C202.671 72.0713 200.957 70.8339 199.211 71.1439C199.211 71.1439 118.892 84.2077 96.8712 87.8791L83.4538 79.3833L70.773 81.3986L65.7721 68.1873L29.1818 45.0176C26.0289 45.9446 22.3135 50.1782 22.1727 54.9487L22.1406 77.5293C22.1406 80.6437 23.4387 83.176 25.3954 84.423L94.2576 128.581C94.231 128.564 94.2116 128.547 94.1862 128.529C95.4589 129.46 96.9533 129.952 98.5091 129.952C98.9182 129.952 99.3342 129.92 99.7497 129.85L200.195 113.67C201.986 113.382 203.194 111.703 202.907 109.916C202.626 108.13 200.893 106.918 199.16 107.206Z" fill="#C94971"/>
<path d="M155.757 64.4104L73.3194 77.5551C73.1017 77.3184 72.8781 76.7974 72.8781 76.0298L72.9035 57.6857C72.9035 56.88 73.1596 56.0585 73.6136 55.4154C73.9974 54.8718 74.4002 54.6351 74.6048 54.5998L156.838 41.3497C158.629 41.0619 159.837 39.38 159.549 37.5958C159.261 35.8084 157.541 34.59 155.802 34.8842C155.802 34.8842 72.1644 48.486 71.5186 48.8044L16.6919 14.0918C14.1148 14.8463 11.0709 18.3128 10.9556 22.2134L10.7637 41.5293C10.7637 44.0938 11.8255 46.1654 13.4304 47.1887C13.4304 47.1887 69.1864 83.1166 71.5293 83.9131C72.8178 84.3512 74.2083 84.1867 74.5663 84.1323L156.793 70.8755C158.584 70.5877 159.792 68.9058 159.504 67.1216C159.216 65.3342 157.502 64.1162 155.757 64.4104Z" fill="#006AB3"/>
</svg>
