<svg width="203" height="184" viewBox="0 0 203 184" fill="none" xmlns="http://www.w3.org/2000/svg">
<path d="M102.199 139.641L173.822 89.1647L74.9052 71.1631L2.15625 118.824L102.199 139.641Z" fill="#98DCA4"/>
<path d="M100.805 89.5291L29.1816 44.176L128.105 27.9971L200.4 70.2548L100.805 89.5291Z" fill="#EEAA38"/>
<path d="M75.333 50.3793L16.6914 13.2505L97.6832 0L157.125 34.1076L75.333 50.3793Z" fill="#009E3D"/>
<path d="M107.564 142.787C106.573 141.219 105.217 140.126 103.721 139.845L3.27539 121.843C3.27539 121.843 7.57923 134.288 7.42579 142.569C7.31041 149.278 3.33288 161.972 3.33288 161.972L103.772 179.973C105.269 180.255 106.624 179.647 107.609 178.445C108.594 177.242 109.208 175.452 109.202 173.367L109.17 148.44C109.17 146.355 108.555 144.34 107.564 142.787ZM199.728 73.5357L99.2888 89.7086C97.7862 89.9648 96.4306 90.9429 95.4394 92.356C94.4482 93.7631 93.8344 95.56 93.8344 97.4338L93.809 119.841C93.8023 121.722 94.4101 123.327 95.395 124.395C96.3794 125.482 97.7354 126.025 99.2318 125.776L199.677 109.597C199.677 109.597 196.793 102.447 195.975 91.109C195.438 83.6845 199.728 73.5357 199.728 73.5357ZM74.0482 80.0586L156.275 66.8018C156.275 66.8018 152.662 60.7264 152.316 52.2853C152.041 45.6029 156.32 37.2764 156.32 37.2764L74.0867 50.5265C72.8651 50.7315 71.7522 51.5371 70.9402 52.6881C70.1278 53.8328 69.629 55.3037 69.629 56.8445L69.6037 75.1854C69.5969 76.7135 70.0961 78.0373 70.9017 78.9199C71.7078 79.8029 72.8203 80.2438 74.0482 80.0586Z" fill="#D9E0E3"/>
<path d="M129.373 120.49L105.831 137.081C105.334 136.877 104.822 136.721 104.297 136.622L3.85083 118.62C2.10511 118.3 0.372073 119.487 0.0521098 121.265C-0.267457 123.046 0.915653 124.746 2.69983 125.066L103.113 143.062C103.529 143.142 104.181 143.567 104.802 144.549C105.499 145.636 105.895 147.052 105.895 148.443L105.927 173.377C105.934 174.595 105.614 175.715 105.076 176.37C104.693 176.827 104.475 176.766 104.347 176.75L3.90832 158.749C2.16894 158.426 0.429563 159.615 0.1096 161.393C-0.210363 163.174 0.973143 164.875 2.75732 165.195L103.165 183.19C103.619 183.277 104.066 183.318 104.507 183.318C106.27 183.318 107.937 182.652 109.303 181.405L177.609 132.606C179.566 131.219 180.87 128.398 180.863 124.926L180.848 112.63L129.373 120.49Z" fill="#3BB050"/>
<path d="M199.16 106.365L98.695 122.547C98.4583 122.595 98.1709 122.588 97.7998 122.176C97.3521 121.684 97.0774 120.817 97.0833 119.845L97.1087 97.4337C97.1087 96.3148 97.4734 95.1508 98.1193 94.2365C98.6308 93.5109 99.2576 93.0343 99.8075 92.9416L200.247 76.7686C202.038 76.4807 203.246 74.8024 202.959 73.0147C202.671 71.2305 200.957 69.993 199.211 70.3031C199.211 70.3031 118.892 83.3669 96.8712 87.0383L83.4538 78.5424L70.773 80.5578L65.7721 67.3465L29.1818 44.1768C26.0289 45.1037 22.3135 49.3374 22.1727 54.1079L22.1406 76.6885C22.1406 79.8029 23.4387 82.3352 25.3954 83.5822L94.2576 127.74C94.231 127.723 94.2116 127.706 94.1862 127.689C95.4589 128.619 96.9533 129.111 98.5091 129.111C98.9182 129.111 99.3342 129.079 99.7497 129.009L200.195 112.829C201.986 112.541 203.194 110.863 202.907 109.075C202.626 107.289 200.893 106.077 199.16 106.365Z" fill="#C88413"/>
<path d="M155.757 63.5696L73.3194 76.7142C73.1017 76.4775 72.8781 75.9566 72.8781 75.189L72.9035 56.8448C72.9035 56.0392 73.1596 55.2177 73.6136 54.5746C73.9974 54.031 74.4002 53.7943 74.6048 53.759L156.838 40.5089C158.629 40.221 159.837 38.5391 159.549 36.755C159.261 34.9676 157.541 33.7492 155.802 34.0434C155.802 34.0434 72.1644 47.6452 71.5186 47.9636L16.6919 13.251C14.1148 14.0055 11.0709 17.4719 10.9556 21.3726L10.7637 40.6885C10.7637 43.2529 11.8255 45.3246 13.4304 46.3479C13.4304 46.3479 69.1864 82.2757 71.5293 83.0723C72.8178 83.5104 74.2083 83.3458 74.5663 83.2915L156.793 70.0347C158.584 69.7468 159.792 68.0649 159.504 66.2808C159.216 64.4934 157.502 63.2754 155.757 63.5696Z" fill="#005D31"/>
</svg>
