<svg width="259" height="180" viewBox="0 0 259 180" fill="none" xmlns="http://www.w3.org/2000/svg">
<path d="M254.813 101.817C248.474 91.1253 239.444 82.1661 228.702 75.9101C217.623 69.4604 204.957 66.0498 192.071 66.0498C179.186 66.0498 166.52 69.4604 155.44 75.9101C144.699 82.1661 135.67 91.1253 129.329 101.817C123.83 111.097 123.747 122.253 129.11 131.665C134.526 141.175 144.282 146.85 155.203 146.85H228.94C239.863 146.85 249.616 141.173 255.035 131.665C260.395 122.253 260.312 111.097 254.813 101.817Z" fill="#3DC255"/>
<path d="M228.705 75.9023C217.628 69.4506 204.96 66.04 192.074 66.04C192.074 66.04 192.074 66.04 192.072 66.04V146.843H228.942C239.866 146.843 249.619 141.166 255.036 131.657C260.398 122.245 260.315 111.087 254.816 101.81C248.477 91.1155 239.447 82.1563 228.705 75.9023Z" fill="#3BB050"/>
<path d="M221.019 11.9904C213.287 4.25828 203.008 0 192.073 0C181.137 0 170.858 4.25828 163.128 11.9904C155.396 19.7225 151.138 30.0016 151.138 40.9349C151.138 51.8701 155.396 62.1492 163.128 69.8813C170.858 77.6134 181.137 81.8717 192.073 81.8717C203.008 81.8717 213.287 77.6134 221.019 69.8813C228.751 62.1492 233.009 51.8701 233.009 40.9349C233.009 30.0016 228.751 19.7225 221.019 11.9904Z" fill="#FFD2BF"/>
<path d="M221.021 11.9804C213.04 3.99931 202.557 0.00976562 192.072 0.00976562V81.8419H192.074C202.557 81.8419 213.04 77.8524 221.021 69.8713C236.981 53.9111 236.981 27.9406 221.021 11.9804Z" fill="#FFCAB4"/>
<path d="M129.668 101.817C123.329 91.1253 114.298 82.1661 103.557 75.9101C92.4794 69.4604 79.8113 66.0498 66.9258 66.0498C54.0402 66.0498 41.3741 69.4604 30.2946 75.9101C19.5531 82.1661 10.5247 91.1253 4.18374 101.817C-1.31548 111.095 -1.39847 122.253 3.9644 131.665C9.38062 141.173 19.1361 146.85 30.0575 146.85H103.796C114.717 146.85 124.471 141.175 129.889 131.665C135.25 122.255 135.167 111.097 129.668 101.817Z" fill="#009E3D"/>
<path d="M103.56 75.9023C92.4824 69.4506 79.8142 66.04 66.9287 66.04C66.9287 66.04 66.9287 66.04 66.9268 66.04V146.843H103.797C114.72 146.843 124.474 141.166 129.89 131.657C135.253 122.245 135.17 111.087 129.671 101.81C123.332 91.1155 114.301 82.1563 103.56 75.9023Z" fill="#03913A"/>
<path d="M95.8725 11.9904C88.1404 4.25828 77.8613 0 66.9261 0C55.9928 0 45.7117 4.25828 37.9816 11.9904C30.2495 19.7225 25.9912 30.0016 25.9912 40.9349C25.9912 51.8701 30.2495 62.1492 37.9816 69.8813C45.7117 77.6134 55.9928 81.8717 66.9261 81.8717C77.8613 81.8717 88.1404 77.6134 95.8725 69.8813C103.605 62.1492 107.863 51.8701 107.863 40.9349C107.863 30.0016 103.605 19.7225 95.8725 11.9904Z" fill="#FFD2BF"/>
<path d="M95.8752 11.9804C87.8941 3.99931 77.4114 0.00976562 66.9268 0.00976562V81.8419H66.9287C77.4114 81.8419 87.8941 77.8524 95.8752 69.8713C111.835 53.9111 111.835 27.9406 95.8752 11.9804Z" fill="#FFCAB4"/>
<path d="M192.24 134.309C185.901 123.615 176.873 114.655 166.131 108.401C155.052 101.95 142.385 98.541 129.5 98.541C116.614 98.541 103.946 101.95 92.8688 108.401C82.1273 114.655 73.097 123.615 66.758 134.309C61.2587 143.586 61.1758 154.744 66.5386 164.156C71.9548 173.665 81.7084 179.342 92.6317 179.342H166.368C177.29 179.342 187.045 173.665 192.461 164.156C197.822 154.744 197.741 143.586 192.24 134.309Z" fill="#EEAA38"/>
<path d="M166.131 108.401C155.052 101.95 142.386 98.5391 129.5 98.5391H129.498V179.342H166.368C177.29 179.342 187.045 173.665 192.461 164.156C197.822 154.744 197.741 143.586 192.24 134.309C185.901 123.615 176.873 114.655 166.131 108.401Z" fill="#F19937"/>
<path d="M158.446 44.4799C142.484 28.5197 116.515 28.5197 100.553 44.4799C84.593 60.4401 84.593 86.4107 100.553 102.371C108.534 110.352 119.017 114.341 129.5 114.341C139.982 114.341 150.465 110.352 158.446 102.371C174.406 86.4107 174.406 60.4401 158.446 44.4799Z" fill="#FFD2BF"/>
<path d="M158.446 44.4794C150.465 36.4983 139.981 32.5088 129.498 32.5088V114.341H129.5C139.983 114.341 150.465 110.351 158.446 102.37C174.407 86.4102 174.407 60.4396 158.446 44.4794Z" fill="#FFCAB4"/>
</svg>
