<svg width="259" height="180" viewBox="0 0 259 180" fill="none" xmlns="http://www.w3.org/2000/svg">
<path d="M254.814 101.818C248.475 91.1255 239.445 82.1663 228.703 75.9103C217.624 69.4606 204.958 66.05 192.072 66.05C179.187 66.05 166.521 69.4606 155.441 75.9103C144.7 82.1663 135.671 91.1255 129.33 101.818C123.831 111.097 123.748 122.253 129.111 131.665C134.527 141.176 144.283 146.851 155.204 146.851H228.94C239.864 146.851 249.617 141.174 255.036 131.665C260.396 122.253 260.313 111.097 254.814 101.818Z" fill="#19CFFC"/>
<path d="M228.705 75.9023C217.628 69.4506 204.96 66.04 192.074 66.04C192.074 66.04 192.074 66.04 192.072 66.04V146.843H228.942C239.866 146.843 249.619 141.166 255.036 131.657C260.398 122.245 260.315 111.087 254.816 101.81C248.477 91.1155 239.447 82.1563 228.705 75.9023Z" fill="#4AB8F7"/>
<path d="M221.018 11.9904C213.286 4.25828 203.007 0 192.072 0C181.136 0 170.857 4.25828 163.127 11.9904C155.395 19.7225 151.137 30.0016 151.137 40.9349C151.137 51.8701 155.395 62.1492 163.127 69.8813C170.857 77.6134 181.136 81.8717 192.072 81.8717C203.007 81.8717 213.286 77.6134 221.018 69.8813C228.75 62.1492 233.008 51.8701 233.008 40.9349C233.008 30.0016 228.75 19.7225 221.018 11.9904Z" fill="#FFD2BF"/>
<path d="M221.021 11.9806C213.04 3.99956 202.557 0.0100098 192.072 0.0100098V81.8422H192.074C202.557 81.8422 213.04 77.8526 221.021 69.8716C236.981 53.9114 236.981 27.9408 221.021 11.9806Z" fill="#FFB89C"/>
<path d="M129.668 101.818C123.329 91.1255 114.298 82.1663 103.557 75.9103C92.4794 69.4606 79.8113 66.05 66.9258 66.05C54.0402 66.05 41.3741 69.4606 30.2946 75.9103C19.5531 82.1663 10.5247 91.1255 4.18374 101.818C-1.31548 111.095 -1.39847 122.253 3.9644 131.665C9.38062 141.174 19.1361 146.851 30.0575 146.851H103.796C114.717 146.851 124.471 141.176 129.889 131.665C135.25 122.255 135.167 111.097 129.668 101.818Z" fill="#27488F"/>
<path d="M103.559 75.9023C92.4814 69.4506 79.8133 66.04 66.9278 66.04C66.9278 66.04 66.9278 66.04 66.9258 66.04V146.843H103.796C114.719 146.843 124.473 141.166 129.889 131.657C135.252 122.245 135.169 111.087 129.67 101.81C123.331 91.1155 114.3 82.1563 103.559 75.9023Z" fill="#12254C"/>
<path d="M95.8735 11.9904C88.1414 4.25828 77.8622 0 66.927 0C55.9938 0 45.7127 4.25828 37.9826 11.9904C30.2505 19.7225 25.9922 30.0016 25.9922 40.9349C25.9922 51.8701 30.2505 62.1492 37.9826 69.8813C45.7127 77.6134 55.9938 81.8717 66.927 81.8717C77.8622 81.8717 88.1414 77.6134 95.8735 69.8813C103.606 62.1492 107.864 51.8701 107.864 40.9349C107.864 30.0016 103.606 19.7225 95.8735 11.9904Z" fill="#FFD2BF"/>
<path d="M95.8742 11.9806C87.8931 3.99956 77.4104 0.0100098 66.9258 0.0100098V81.8422H66.9278C77.4104 81.8422 87.8931 77.8526 95.8742 69.8716C111.834 53.9114 111.834 27.9408 95.8742 11.9806Z" fill="#FFB89C"/>
<path d="M192.24 134.309C185.901 123.615 176.873 114.656 166.131 108.402C155.052 101.95 142.385 98.5413 129.5 98.5413C116.614 98.5413 103.946 101.95 92.8688 108.402C82.1273 114.656 73.097 123.615 66.758 134.309C61.2587 143.586 61.1758 154.745 66.5386 164.156C71.9548 173.665 81.7084 179.342 92.6317 179.342H166.368C177.29 179.342 187.045 173.665 192.461 164.156C197.822 154.745 197.741 143.586 192.24 134.309Z" fill="#E26F93"/>
<path d="M166.131 108.402C155.052 101.95 142.386 98.5396 129.5 98.5396H129.498V179.342H166.368C177.29 179.342 187.045 173.665 192.461 164.157C197.822 154.745 197.741 143.586 192.24 134.309C185.901 123.615 176.873 114.656 166.131 108.402Z" fill="#C94971"/>
<path d="M158.447 44.4799C142.485 28.5197 116.516 28.5197 100.554 44.4799C84.5939 60.4401 84.5939 86.4107 100.554 102.371C108.535 110.352 119.018 114.341 129.501 114.341C139.983 114.341 150.466 110.352 158.447 102.371C174.407 86.4107 174.407 60.4401 158.447 44.4799Z" fill="#FFD2BF"/>
<path d="M158.446 44.4799C150.465 36.4988 139.981 32.5093 129.498 32.5093V114.341H129.5C139.983 114.341 150.465 110.352 158.446 102.371C174.407 86.4107 174.407 60.4401 158.446 44.4799Z" fill="#FFB89C"/>
</svg>
