<svg width="201" height="201" viewBox="0 0 201 201" fill="none" xmlns="http://www.w3.org/2000/svg">
<path d="M135.832 35.332C132.577 35.332 129.943 32.6982 129.943 29.4434V17.666C129.943 14.417 127.304 11.7773 124.055 11.7773H76.9453C73.6963 11.7773 71.0566 14.417 71.0566 17.666V29.4434C71.0566 32.6982 68.4228 35.332 65.168 35.332C61.9131 35.332 59.2793 32.6982 59.2793 29.4434V17.666C59.2793 7.92458 67.2039 0 76.9453 0H124.055C133.796 0 141.721 7.92458 141.721 17.666V29.4434C141.721 32.6982 139.087 35.332 135.832 35.332Z" fill="#293339"/>
<path d="M124.055 0H100.5V11.7773H124.055C127.304 11.7773 129.943 14.417 129.943 17.666V29.4434C129.943 32.6982 132.577 35.332 135.832 35.332C139.087 35.332 141.721 32.6982 141.721 29.4434V17.666C141.721 7.92458 133.796 0 124.055 0Z" fill="#293339"/>
<path d="M148.552 201H52.4477C43.3328 201 35.5982 193.881 34.8507 184.8L23.9704 53.4868C23.8322 51.8478 24.3901 50.2206 25.4999 49.013C26.6156 47.7995 28.1914 47.1094 29.8359 47.1094H171.164C172.809 47.1094 174.384 47.7995 175.5 49.013C176.61 50.2206 177.168 51.8482 177.03 53.4868L166.149 184.8C165.402 193.881 157.667 201 148.552 201Z" fill="#4A5B66"/>
<path d="M171.164 47.1094H100.5V201H148.552C157.667 201 165.402 193.881 166.149 184.8L177.03 53.4868C177.168 51.8478 176.61 50.2206 175.5 49.013C174.384 47.7995 172.809 47.1094 171.164 47.1094Z" fill="#4A5B66"/>
<path d="M65.1795 171.925L59.2908 76.9207C59.0894 73.6718 61.5564 70.8766 64.7998 70.6756C68.1638 70.4397 70.8381 72.9357 71.045 76.1847L76.9337 171.189C77.135 174.438 74.6681 177.233 71.4246 177.434C67.9495 177.592 65.373 175.016 65.1795 171.925Z" fill="#B9C5CC"/>
<path d="M100.5 177.445C97.2451 177.445 94.6113 174.812 94.6113 171.557V76.5527C94.6113 73.2979 97.2451 70.6641 100.5 70.6641C103.755 70.6641 106.389 73.2979 106.389 76.5527V171.557C106.389 174.812 103.755 177.445 100.5 177.445Z" fill="#B9C5CC"/>
<path d="M129.575 177.434C126.332 177.233 123.865 174.438 124.066 171.189L129.955 76.1852C130.156 72.9362 133.003 70.5725 136.2 70.6761C139.444 70.8775 141.911 73.6723 141.709 76.9213L135.821 171.925C135.627 175.016 133.051 177.592 129.575 177.434Z" fill="#B9C5CC"/>
<path d="M106.389 171.557V76.5527C106.389 73.2979 103.755 70.6641 100.5 70.6641V177.445C103.755 177.445 106.389 174.812 106.389 171.557Z" fill="#B9C5CC"/>
<path d="M171.164 58.8867H29.8359C20.0945 58.8867 12.1699 50.9621 12.1699 41.2207C12.1699 31.4793 20.0945 23.5547 29.8359 23.5547H171.164C180.906 23.5547 188.83 31.4793 188.83 41.2207C188.83 50.9621 180.906 58.8867 171.164 58.8867Z" fill="#293339"/>
<path d="M171.164 23.5547H100.5V58.8867H171.164C180.905 58.8867 188.83 50.9621 188.83 41.2207C188.83 31.4793 180.905 23.5547 171.164 23.5547Z" fill="#293339"/>
</svg>
