<svg width="185" height="185" viewBox="0 0 185 185" fill="none" xmlns="http://www.w3.org/2000/svg">
<g clip-path="url(#clip0_1415_64)">
<path d="M119.814 184.596C116.066 184.596 112.827 183.909 110.263 183.066C104.164 181.06 100.496 177.771 100.343 177.632C99.2183 176.611 99.1345 174.872 100.156 173.747C101.175 172.624 102.909 172.539 104.034 173.553C104.536 174.002 116.223 184.171 132.588 175.865C139.168 172.526 141.704 166.017 144.39 159.125C149.08 147.09 154.397 133.45 182.82 139.48C184.306 139.796 185.255 141.256 184.94 142.742C184.624 144.228 183.161 145.176 181.679 144.861C165.442 141.417 159.976 145.47 158.18 146.802C153.841 150.02 151.739 155.412 149.515 161.122C146.71 168.321 143.53 176.481 135.078 180.77C129.461 183.62 124.277 184.596 119.814 184.596Z" fill="#454045"/>
<path d="M130.416 105.802H82.277C80.3926 105.802 78.8652 104.275 78.8652 102.391V54.2514C78.8652 25.7805 101.945 2.70044 130.416 2.70044C158.887 2.70044 181.967 25.7805 181.967 54.2514C181.967 82.7224 158.887 105.802 130.416 105.802Z" fill="#C94971"/>
<path d="M130.415 2.70044C128.682 2.70044 126.97 2.78752 125.282 2.95446C151.342 5.53084 171.699 27.5131 171.699 54.2514C171.699 82.7224 148.619 105.802 120.148 105.802H130.415C158.885 105.802 181.966 82.7224 181.966 54.2514C181.966 25.7805 158.885 2.70044 130.415 2.70044Z" fill="#C94971"/>
<path d="M68.8634 32.3959C68.5234 32.3959 68.1776 32.3326 67.8426 32.1982C66.4323 31.6341 65.7465 30.0334 66.3109 28.6231C70.6647 17.7419 77.7962 8.06844 86.9335 0.647178C88.1129 -0.310381 89.8448 -0.130794 90.8024 1.04827C91.7599 2.22733 91.5803 3.95961 90.4013 4.91717C81.9889 11.7491 75.4243 20.6529 71.4174 30.6661C70.9874 31.7415 69.9547 32.3959 68.8634 32.3959Z" fill="#C94971"/>
<path d="M63.4826 20.2714C63.1425 20.2714 62.7964 20.2081 62.4618 20.0737C61.0515 19.5093 60.3656 17.9089 60.93 16.4986C63.3756 10.3868 67.3807 4.95367 72.5118 0.786668C73.6905 -0.170891 75.4228 0.00833525 76.3803 1.18812C77.3379 2.36682 77.1583 4.0991 75.9789 5.05666C71.573 8.63431 68.1349 13.2978 66.0365 18.5416C65.6062 19.6173 64.5735 20.2714 63.4826 20.2714Z" fill="#C94971"/>
<path d="M167.652 123.593C166.561 123.593 165.528 122.939 165.098 121.864C164.534 120.454 165.219 118.853 166.63 118.289C171.874 116.191 176.537 112.752 180.115 108.347C181.072 107.168 182.805 106.988 183.983 107.945C185.162 108.903 185.342 110.635 184.385 111.814C180.218 116.945 174.785 120.95 168.673 123.395C168.338 123.53 167.992 123.593 167.652 123.593Z" fill="#C94971"/>
<path d="M155.386 118.212C154.295 118.212 153.262 117.558 152.832 116.483C152.268 115.072 152.954 113.472 154.364 112.908C164.377 108.901 173.281 102.336 180.113 93.924C181.071 92.7449 182.803 92.5654 183.982 93.5229C185.161 94.4805 185.341 96.2127 184.383 97.3918C176.962 106.529 167.288 113.661 156.407 118.014C156.073 118.149 155.727 118.212 155.386 118.212Z" fill="#C94971"/>
<path d="M151.452 45.8114H140.2C139.458 45.8114 138.856 45.2097 138.856 44.4675V33.215C138.856 31.2435 137.258 29.6453 135.286 29.6453H125.546C123.575 29.6453 121.977 31.2435 121.977 33.215V44.4675C121.977 45.2097 121.375 45.8114 120.633 45.8114H109.38C107.409 45.8114 105.811 47.4096 105.811 49.3811V59.1211C105.811 61.0926 107.409 62.6908 109.38 62.6908H120.633C121.375 62.6908 121.977 63.2924 121.977 64.0346V75.2872C121.977 77.2587 123.575 78.8569 125.546 78.8569H135.286C137.258 78.8569 138.856 77.2587 138.856 75.2872V64.0346C138.856 63.2924 139.458 62.6908 140.2 62.6908H151.452C153.424 62.6908 155.022 61.0926 155.022 59.1211V49.3811C155.022 47.4096 153.424 45.8114 151.452 45.8114Z" fill="#F6F1F1"/>
<path d="M132.158 33.215V44.4675C132.158 45.2097 132.759 45.8114 133.501 45.8114H140.2C139.457 45.8114 138.856 45.2097 138.856 44.4675V33.215C138.856 31.2435 137.258 29.6453 135.286 29.6453H128.588C130.559 29.6453 132.158 31.2435 132.158 33.215Z" fill="#EADFDA"/>
<path d="M132.158 64.035V75.2876C132.158 77.2591 130.559 78.8573 128.588 78.8573H135.286C137.258 78.8573 138.856 77.2591 138.856 75.2876V64.035C138.856 63.2928 139.457 62.6912 140.2 62.6912H133.501C132.759 62.6908 132.158 63.2928 132.158 64.035Z" fill="#EADFDA"/>
<path d="M151.452 45.8113H144.754C146.725 45.8113 148.324 47.4095 148.324 49.381V59.121C148.324 61.0925 146.725 62.6907 144.754 62.6907H151.452C153.424 62.6907 155.022 61.0925 155.022 59.121V49.381C155.022 47.4095 153.424 45.8113 151.452 45.8113Z" fill="#EADFDA"/>
<path d="M88.602 134.292L78.204 140.974C74.2657 143.506 69.1823 143.522 65.2899 140.921C49.1231 130.119 39.4839 115.121 36.3738 95.9291C35.6248 91.3079 37.7509 86.691 41.6892 84.1598L52.0886 77.476C50.3538 76.1662 54.3185 71.8066 52.7481 70.3988C43.7647 62.3448 37.4893 52.6803 34.0862 41.3074C33.5149 39.3988 27.4067 40.4427 26.9984 38.4373L19.2317 43.4288C2.36532 54.2691 -4.48647 75.5804 3.03524 94.1657C14.6593 122.887 31.7454 149.472 53.0444 171.976C66.8264 186.538 89.0583 189.158 105.925 178.317L113.691 173.326C111.184 171.434 115.402 166.083 113.239 163.985C105.491 156.469 99.9716 147.627 96.8023 137.387C96.1551 135.295 89.0522 136.501 88.602 134.292Z" fill="#C94971"/>
<path d="M35.5363 88.008C31.598 90.5392 29.4723 95.1561 30.221 99.7773C33.3314 118.97 42.9702 133.966 59.1371 144.769C63.0298 147.37 68.1128 147.354 72.0511 144.823L76.9787 141.655C73.2511 143.475 68.7903 143.259 65.2896 140.92C49.1228 130.119 39.4836 115.121 36.3735 95.929C35.6245 91.3078 37.7506 86.6909 41.6889 84.1597L35.5363 88.008Z" fill="#C94971"/>
<path d="M44.8368 38.8024L59.1659 61.0976C62.1376 65.7214 60.7981 71.8783 56.1747 74.85L52.0883 77.4762C38.7626 67.415 30.2664 54.4807 26.998 38.4375L31.0845 35.8112C35.7082 32.8395 41.8651 34.1787 44.8368 38.8024Z" fill="#F6F1F1"/>
<path d="M106.44 134.653L120.769 156.948C123.741 161.572 122.402 167.729 117.778 170.7L113.692 173.327C100.366 163.265 91.8699 150.331 88.6016 134.288L92.688 131.662C97.3114 128.69 103.469 130.029 106.44 134.653Z" fill="#F6F1F1"/>
<path d="M120.77 156.948L106.443 134.656C103.471 130.032 97.3145 128.693 92.6907 131.665L87.6934 134.876C92.1415 132.783 97.5598 134.256 100.29 138.504L114.617 160.795C117.589 165.419 116.249 171.576 111.626 174.548L103.697 179.644C104.448 179.224 105.194 178.787 105.926 178.317L117.778 170.7C122.402 167.729 123.741 161.571 120.77 156.948Z" fill="#EADFDA"/>
<path d="M56.1755 74.8498C60.7992 71.8781 62.1384 65.7211 59.1667 61.0974L44.8376 38.8022C41.8659 34.1784 35.709 32.8393 31.0853 35.811L26.0879 39.0226C30.536 36.9297 35.9544 38.4022 38.6847 42.6501L53.0137 64.9453C55.9854 69.5691 54.6459 75.726 50.0225 78.6977L56.1755 74.8498Z" fill="#EADFDA"/>
</g>
<defs>
<clipPath id="clip0_1415_64">
<rect width="185" height="185" fill="white"/>
</clipPath>
</defs>
</svg>
