<svg width="185" height="185" viewBox="0 0 185 185" fill="none" xmlns="http://www.w3.org/2000/svg">
<g clip-path="url(#clip0_1655_11618)">
<path d="M119.814 184.596C116.066 184.596 112.827 183.909 110.263 183.066C104.164 181.06 100.496 177.771 100.343 177.632C99.2183 176.611 99.1345 174.872 100.156 173.747C101.175 172.624 102.909 172.539 104.034 173.553C104.536 174.002 116.223 184.171 132.588 175.865C139.168 172.526 141.704 166.017 144.39 159.125C149.08 147.09 154.397 133.45 182.82 139.48C184.306 139.796 185.255 141.256 184.94 142.742C184.624 144.228 183.161 145.176 181.679 144.861C165.442 141.417 159.976 145.47 158.18 146.802C153.841 150.02 151.739 155.412 149.515 161.122C146.71 168.321 143.53 176.481 135.078 180.77C129.461 183.62 124.277 184.596 119.814 184.596Z" fill="#4A5B66"/>
<path d="M130.416 105.802H82.2765C80.3921 105.802 78.8647 104.275 78.8647 102.39V54.2512C78.8647 25.7803 101.945 2.7002 130.416 2.7002C158.887 2.7002 181.967 25.7803 181.967 54.2512C181.967 82.7221 158.886 105.802 130.416 105.802Z" fill="#5F7381"/>
<path d="M130.416 2.7002C128.683 2.7002 126.971 2.78728 125.283 2.95422C151.343 5.53059 171.7 27.5129 171.7 54.2512C171.7 82.7221 148.62 105.802 120.149 105.802H130.416C158.886 105.802 181.967 82.7221 181.967 54.2512C181.967 25.7803 158.886 2.7002 130.416 2.7002Z" fill="#5F7381"/>
<path d="M68.8639 32.3954C68.5239 32.3954 68.1781 32.3321 67.8431 32.1977C66.4328 31.6337 65.747 30.0329 66.3114 28.6226C70.6652 17.7415 77.7967 8.06795 86.934 0.64669C88.1134 -0.310869 89.8453 -0.131282 90.8029 1.04778C91.7604 2.22684 91.5808 3.95912 90.4018 4.91668C81.9893 11.7486 75.4248 20.6524 71.4179 30.6656C70.9879 31.741 69.9552 32.3954 68.8639 32.3954Z" fill="#5F7381"/>
<path d="M63.4831 20.2711C63.143 20.2711 62.7969 20.2079 62.4623 20.0735C61.0519 19.509 60.3661 17.9087 60.9305 16.4983C63.3761 10.3866 67.3812 4.95343 72.5123 0.786424C73.691 -0.171135 75.4233 0.00809111 76.3808 1.18788C77.3384 2.36658 77.1588 4.09886 75.9794 5.05641C71.5735 8.63407 68.1354 13.2976 66.037 18.5414C65.6067 19.6171 64.574 20.2711 63.4831 20.2711Z" fill="#5F7381"/>
<path d="M167.651 123.593C166.56 123.593 165.527 122.939 165.097 121.863C164.533 120.453 165.218 118.853 166.629 118.288C171.873 116.19 176.536 112.752 180.114 108.346C181.071 107.167 182.804 106.987 183.982 107.944C185.161 108.902 185.341 110.634 184.384 111.813C180.217 116.944 174.784 120.949 168.672 123.395C168.337 123.529 167.991 123.593 167.651 123.593Z" fill="#5F7381"/>
<path d="M155.387 118.212C154.296 118.212 153.263 117.558 152.833 116.482C152.269 115.072 152.955 113.471 154.365 112.907C164.378 108.9 173.282 102.336 180.114 93.9238C181.072 92.7447 182.804 92.5651 183.983 93.5227C185.162 94.4802 185.342 96.2125 184.384 97.3916C176.963 106.529 167.289 113.66 156.408 118.014C156.074 118.149 155.728 118.212 155.387 118.212Z" fill="#5F7381"/>
<path d="M151.452 45.8107H140.199C139.457 45.8107 138.856 45.209 138.856 44.4668V33.2142C138.856 31.2428 137.257 29.6445 135.286 29.6445H125.546C123.574 29.6445 121.976 31.2428 121.976 33.2142V44.4668C121.976 45.209 121.375 45.8107 120.632 45.8107H109.38C107.408 45.8107 105.81 47.4089 105.81 49.3804V59.1204C105.81 61.0918 107.408 62.6901 109.38 62.6901H120.632C121.375 62.6901 121.976 63.2917 121.976 64.0339V75.2865C121.976 77.258 123.574 78.8562 125.546 78.8562H135.286C137.257 78.8562 138.856 77.258 138.856 75.2865V64.0339C138.856 63.2917 139.457 62.6901 140.199 62.6901H151.452C153.423 62.6901 155.022 61.0918 155.022 59.1204V49.3804C155.022 47.4089 153.423 45.8107 151.452 45.8107Z" fill="#F6F7F9"/>
<path d="M132.157 33.2142V44.4668C132.157 45.209 132.759 45.8107 133.501 45.8107H140.199C139.457 45.8107 138.855 45.209 138.855 44.4668V33.2142C138.855 31.2428 137.257 29.6445 135.286 29.6445H128.587C130.559 29.6445 132.157 31.2428 132.157 33.2142Z" fill="#91A3B0"/>
<path d="M132.157 64.0343V75.2868C132.157 77.2583 130.559 78.8566 128.587 78.8566H135.286C137.257 78.8566 138.855 77.2583 138.855 75.2868V64.0343C138.855 63.2921 139.457 62.6904 140.199 62.6904H133.501C132.759 62.6901 132.157 63.2921 132.157 64.0343Z" fill="#91A3B0"/>
<path d="M151.452 45.8105H144.754C146.725 45.8105 148.324 47.4088 148.324 49.3803V59.1203C148.324 61.0917 146.725 62.69 144.754 62.69H151.452C153.424 62.69 155.022 61.0917 155.022 59.1203V49.3803C155.022 47.4088 153.424 45.8105 151.452 45.8105Z" fill="#91A3B0"/>
<path d="M88.602 134.291L78.204 140.974C74.2657 143.505 69.1823 143.521 65.2899 140.92C49.1231 130.118 39.4839 115.121 36.3738 95.9284C35.6248 91.3071 37.7509 86.6903 41.6892 84.1591L52.0886 77.4753C50.3538 76.1654 54.3185 71.8058 52.7481 70.398C43.7647 62.3441 37.4893 52.6796 34.0862 41.3067C33.5149 39.3981 27.4067 40.442 26.9984 38.4365L19.2317 43.4281C2.36532 54.2684 -4.48647 75.5797 3.03524 94.165C14.6593 122.887 31.7454 149.471 53.0444 171.975C66.8264 186.537 89.0583 189.157 105.925 178.317L113.691 173.325C111.184 171.433 115.402 166.082 113.239 163.985C105.491 156.468 99.9716 147.626 96.8023 137.386C96.1551 135.294 89.0522 136.5 88.602 134.291Z" fill="#5F7381"/>
<path d="M35.5358 88.0075C31.5975 90.5387 29.4718 95.1556 30.2205 99.7768C33.3309 118.969 42.9697 133.966 59.1366 144.768C63.0293 147.369 68.1123 147.353 72.0506 144.822L76.9782 141.655C73.2506 143.475 68.7899 143.259 65.2892 140.92C49.1223 130.118 39.4831 115.121 36.3731 95.9285C35.624 91.3073 37.7501 86.6904 41.6884 84.1592L35.5358 88.0075Z" fill="#5F7381"/>
<path d="M44.8368 38.8019L59.1659 61.0972C62.1376 65.7209 60.7981 71.8778 56.1747 74.8495L52.0883 77.4757C38.7626 67.4145 30.2664 54.4802 26.998 38.437L31.0845 35.8107C35.7082 32.8391 41.8651 34.1782 44.8368 38.8019Z" fill="#F6F7F9"/>
<path d="M106.44 134.653L120.769 156.948C123.741 161.571 122.401 167.728 117.778 170.7L113.691 173.326C100.366 163.265 91.8694 150.331 88.6011 134.288L92.6875 131.661C97.3109 128.69 103.468 130.029 106.44 134.653Z" fill="#F6F7F9"/>
<path d="M120.768 156.947L106.442 134.655C103.47 130.032 97.313 128.693 92.6893 131.664L87.6919 134.876C92.14 132.783 97.5584 134.255 100.289 138.503L114.616 160.795C117.587 165.419 116.248 171.576 111.624 174.547L103.695 179.643C104.447 179.223 105.192 178.787 105.925 178.317L117.777 170.699C122.401 167.728 123.74 161.571 120.768 156.947Z" fill="#91A3B0"/>
<path d="M56.1745 74.8495C60.7982 71.8778 62.1374 65.7209 59.1657 61.0972L44.8366 38.8019C41.865 34.1782 35.708 32.8391 31.0843 35.8107L26.0869 39.0224C30.535 36.9295 35.9534 38.4019 38.6837 42.6499L53.0127 64.9451C55.9844 69.5688 54.6449 75.7258 50.0215 78.6975L56.1745 74.8495Z" fill="#91A3B0"/>
</g>
<defs>
<clipPath id="clip0_1655_11618">
<rect width="185" height="185" fill="white"/>
</clipPath>
</defs>
</svg>
