<svg width="287" height="287" viewBox="0 0 287 287" fill="none" xmlns="http://www.w3.org/2000/svg">
<path d="M140.891 251.885C138.567 251.885 136.683 250.001 136.683 247.677V208.664C136.683 206.339 138.567 204.455 140.891 204.455C143.216 204.455 145.1 206.339 145.1 208.664V247.677C145.1 250.001 143.215 251.885 140.891 251.885Z" fill="#00362E"/>
<path d="M184.486 253.515C182.161 253.515 180.277 251.631 180.277 249.307V188.378C180.277 186.053 182.161 184.169 184.486 184.169C186.811 184.169 188.695 186.053 188.695 188.378V249.306C188.694 251.631 186.81 253.515 184.486 253.515Z" fill="#00362E"/>
<path d="M137.933 215.398C158.742 215.398 175.612 198.528 175.612 177.719C175.612 156.909 158.742 140.04 137.933 140.04C117.123 140.04 100.254 156.909 100.254 177.719C100.254 198.528 117.123 215.398 137.933 215.398Z" fill="#0F7A4F"/>
<path d="M175.612 177.721C175.612 198.528 158.74 215.4 137.933 215.4C129.054 215.4 120.893 212.328 114.452 207.188C117.832 208.185 121.409 208.718 125.113 208.718C145.92 208.718 162.786 191.846 162.786 171.039C162.786 159.111 157.243 148.472 148.594 141.572C164.211 146.169 175.612 160.613 175.612 177.721Z" fill="#00362E"/>
<path d="M196.053 125.377C216.862 125.377 233.732 108.508 233.732 87.6984C233.732 66.8889 216.862 50.0195 196.053 50.0195C175.243 50.0195 158.374 66.8889 158.374 87.6984C158.374 108.508 175.243 125.377 196.053 125.377Z" fill="#187A6A"/>
<path d="M233.734 87.6993C233.734 108.506 216.862 125.378 196.055 125.378C193.045 125.378 190.119 125.025 187.316 124.358C203.908 120.412 216.251 105.496 216.251 87.6993C216.251 69.8969 203.908 54.9813 187.316 51.0407C190.119 50.3737 193.045 50.0205 196.055 50.0205C216.862 50.0205 233.734 66.8868 233.734 87.6993Z" fill="#0F7A4F"/>
<path d="M245.41 176.698C266.22 176.698 283.089 159.828 283.089 139.019C283.089 118.209 266.22 101.34 245.41 101.34C224.601 101.34 207.731 118.209 207.731 139.019C207.731 159.828 224.601 176.698 245.41 176.698Z" fill="#187A6A"/>
<path d="M283.088 139.021C283.088 159.828 266.216 176.699 245.409 176.699C241.984 176.699 238.666 176.24 235.511 175.382C253.975 172.949 268.223 157.154 268.223 138.028C268.223 120.646 256.452 106.011 240.444 101.667C242.069 101.454 243.728 101.342 245.41 101.342C266.216 101.342 283.088 118.208 283.088 139.021Z" fill="#0F7A4F"/>
<path d="M202.087 251.886C199.763 251.886 197.879 250.002 197.879 247.677V191.483C197.879 189.158 199.763 187.274 202.087 187.274C204.412 187.274 206.296 189.158 206.296 191.483V247.677C206.296 250.002 204.412 251.886 202.087 251.886Z" fill="#0F7A4F"/>
<path d="M221.225 205.958C204.981 205.958 191.812 192.79 191.812 176.546V112.218C191.812 95.974 204.981 82.8057 221.225 82.8057C237.469 82.8057 250.637 95.974 250.637 112.218V176.545C250.637 192.79 237.469 205.958 221.225 205.958Z" fill="#D2F0A2"/>
<path d="M250.64 112.217V176.543C250.64 192.787 237.468 205.959 221.224 205.959C218.729 205.959 216.307 205.651 213.998 205.063C226.75 201.845 236.19 190.293 236.19 176.543V112.217C236.19 104.095 232.899 96.7409 227.574 91.4213C223.886 87.7329 219.222 85.0198 213.998 83.7025C216.307 83.114 218.729 82.8057 221.224 82.8057C229.346 82.8057 236.7 86.0961 242.025 91.4213C247.349 96.7409 250.64 104.095 250.64 112.217Z" fill="#BDDA70"/>
<path d="M233.521 162.66C231.877 161.017 229.213 161.017 227.569 162.66L225.433 164.796V155.602C225.433 155.602 225.433 155.601 225.433 155.6V139.147C225.433 136.822 223.549 134.938 221.225 134.938C218.9 134.938 217.016 136.822 217.016 139.147V145.44L212.772 141.196C211.129 139.552 208.464 139.552 206.821 141.195C205.177 142.839 205.177 145.504 206.82 147.147L217.017 157.344V174.953V174.959V245.395C217.017 247.72 218.901 249.604 221.225 249.604C223.55 249.604 225.434 247.72 225.434 245.395V176.7L233.522 168.612C235.164 166.969 235.164 164.304 233.521 162.66Z" fill="#98DCA4"/>
<path d="M71.4095 132.361C55.1654 132.361 41.9971 119.193 41.9971 102.949V61.7757C41.9971 45.5316 55.1654 32.3633 71.4095 32.3633C87.6536 32.3633 100.822 45.5316 100.822 61.7757V102.949C100.823 119.193 87.6536 132.361 71.4095 132.361Z" fill="#D2F0A2"/>
<path d="M100.822 61.7745V102.951C100.822 119.195 87.6549 132.362 71.4108 132.362C68.6305 132.362 65.9343 131.976 63.3838 131.253C75.7265 127.76 84.7681 116.415 84.7681 102.952V61.775C84.7681 53.6527 81.4777 46.2989 76.153 40.9793C72.6552 37.4759 68.2774 34.8581 63.3843 33.4741C65.9348 32.751 68.6311 32.3643 71.4114 32.3643C79.5337 32.3643 86.8875 35.6547 92.2071 40.9793C97.5312 46.2983 100.822 53.6527 100.822 61.7745Z" fill="#BDDA70"/>
<path d="M83.7056 89.0631C82.0621 87.4201 79.3973 87.4201 77.7543 89.0631L75.6181 91.1993V82.0052C75.6181 82.0052 75.6181 82.0036 75.6181 82.0024V65.5504C75.6181 63.2258 73.7341 61.3418 71.4095 61.3418C69.0849 61.3418 67.2009 63.2258 67.2009 65.5504V71.8436L62.9564 67.5986C61.3129 65.9557 58.6481 65.9557 57.0051 67.5986C55.3616 69.2427 55.3616 71.907 57.0051 73.5505L67.2015 83.7469V101.358V101.361V249.307C67.2015 251.631 69.0854 253.515 71.41 253.515C73.7346 253.515 75.6186 251.631 75.6186 249.307V103.103L83.7062 95.0155C85.3492 93.3714 85.3492 90.7072 83.7056 89.0631Z" fill="#98DCA4"/>
<path d="M112.641 186.528C137.304 186.528 157.297 166.534 157.297 141.871C157.297 117.208 137.304 97.2148 112.641 97.2148C87.9778 97.2148 67.9844 117.208 67.9844 141.871C67.9844 166.534 87.9778 186.528 112.641 186.528Z" fill="#2D9E8C"/>
<path d="M157.299 141.869C157.299 166.532 137.305 186.526 112.642 186.526C105.563 186.526 98.8703 184.878 92.9229 181.941C113.691 178.107 129.425 159.906 129.425 138.029C129.425 120.445 119.262 105.238 104.492 97.9567C107.132 97.469 109.856 97.2168 112.642 97.2168C137.305 97.2168 157.299 117.211 157.299 141.869Z" fill="#187A6A"/>
<path d="M125.719 121.445C124.075 119.802 121.41 119.802 119.767 121.446L116.85 124.363V119.504C116.85 117.18 114.966 115.296 112.641 115.296C110.317 115.296 108.433 117.18 108.433 119.504V164.044C108.433 166.369 110.317 168.253 112.641 168.253C114.966 168.253 116.85 166.369 116.85 164.044V136.265L125.719 127.396C127.362 125.753 127.362 123.089 125.719 121.445Z" fill="#0F7A4F"/>
<path d="M112.641 253.514C110.317 253.514 108.433 251.63 108.433 249.306V209.343C108.433 207.019 110.317 205.135 112.641 205.135C114.966 205.135 116.85 207.019 116.85 209.343V249.306C116.85 251.63 114.966 253.514 112.641 253.514Z" fill="#0F7A4F"/>
<path d="M196.053 151.419C196.053 203.172 182.775 202.249 166.395 202.249C150.016 202.249 136.737 203.172 136.737 151.419C136.737 99.6649 153.474 41.2744 166.395 41.2744C179.317 41.2744 196.053 99.6649 196.053 151.419Z" fill="#98DCA4"/>
<path d="M196.053 151.419C196.053 203.172 182.775 202.249 166.395 202.249C150.016 202.249 136.737 203.172 136.737 151.419C136.737 99.6649 153.474 41.2744 166.395 41.2744C179.317 41.2744 196.053 99.6649 196.053 151.419Z" fill="#98DCA4"/>
<path d="M196.05 151.418C196.05 203.174 182.775 202.249 166.395 202.249C163.727 202.249 161.136 202.274 158.674 202.088C171.306 201.149 180.608 194.727 180.608 151.418C180.608 109.606 169.68 63.4684 158.674 47.2809C161.29 43.43 163.913 41.2764 166.395 41.2764C179.316 41.2769 196.05 99.668 196.05 151.418Z" fill="#62CA76"/>
<path d="M184.257 156.871C182.612 155.228 179.948 155.228 178.305 156.871L170.604 164.572V148.46C170.604 148.458 170.604 148.456 170.604 148.454V129.499C170.604 127.174 168.72 125.29 166.395 125.29C164.071 125.29 162.187 127.174 162.187 129.499V138.296L156.201 132.311C154.557 130.668 151.893 130.668 150.249 132.311C148.606 133.955 148.606 136.619 150.249 138.263L162.187 150.2V174.73V174.735V247.676C162.187 250.001 164.071 251.885 166.395 251.885C168.72 251.885 170.604 250.001 170.604 247.676V176.476L184.257 162.823C185.9 161.18 185.9 158.515 184.257 156.871Z" fill="#62CA76"/>
<path d="M4.50586 189.183C4.50586 229.046 22.4736 228.335 44.6377 228.335C66.8017 228.335 84.7694 229.046 84.7694 189.183C84.7694 149.32 62.1228 104.347 44.6377 104.347C27.1525 104.347 4.50586 149.32 4.50586 189.183Z" fill="#98DCA4"/>
<path d="M4.50586 189.183C4.50586 229.046 22.4736 228.335 44.6377 228.335C66.8017 228.335 84.7694 229.046 84.7694 189.183C84.7694 149.32 62.1228 104.347 44.6377 104.347C27.1525 104.347 4.50586 149.32 4.50586 189.183Z" fill="#62CA76"/>
<path d="M84.7673 189.183C84.7673 229.048 66.8023 228.336 44.6389 228.336C41.7577 228.336 38.9549 228.347 36.248 228.28C54.3812 227.837 67.9851 223.868 67.9851 189.183C67.9851 155.495 51.8139 118.158 36.248 107.402C39.1012 105.423 41.932 104.347 44.6389 104.347C62.1223 104.347 84.7673 149.318 84.7673 189.183Z" fill="#3CB252"/>
<path d="M123.038 190.682C123.038 220.141 109.759 219.615 93.3797 219.615C76.9999 219.615 63.7217 220.141 63.7217 190.682C63.7217 161.223 80.4579 127.987 93.3797 127.987C106.301 127.987 123.038 161.223 123.038 190.682Z" fill="#98DCA4"/>
<path d="M123.038 190.682C123.038 220.141 109.759 219.615 93.3797 219.615C76.9999 219.615 63.7217 220.141 63.7217 190.682C63.7217 161.223 80.4579 127.987 93.3797 127.987C106.301 127.987 123.038 161.223 123.038 190.682Z" fill="#98DCA4"/>
<path d="M123.035 190.68C123.035 220.141 109.762 219.614 93.3775 219.614C90.3225 219.614 87.3796 219.631 84.6055 219.468C96.7015 218.768 105.491 214.648 105.491 190.68C105.491 167.636 95.2503 142.284 84.6055 132.329C87.5652 129.56 90.5641 127.984 93.3775 127.984C106.303 127.985 123.035 161.224 123.035 190.68Z" fill="#62CA76"/>
<path d="M111.241 182.919C109.598 181.276 106.933 181.276 105.289 182.919L97.5881 190.621V170.017C97.5881 167.693 95.7041 165.809 93.3795 165.809C91.0549 165.809 89.1709 167.693 89.1709 170.017V200.779V200.782V247.677C89.1709 250.002 91.0549 251.886 93.3795 251.886C95.7041 251.886 97.5881 250.002 97.5881 247.677V202.524L111.241 188.871C112.884 187.228 112.884 184.563 111.241 182.919Z" fill="#62CA76"/>
<path d="M281.109 205.033C281.109 226.264 271.539 225.886 259.734 225.886C247.929 225.886 238.359 226.265 238.359 205.033C238.359 183.801 250.421 159.848 259.734 159.848C269.047 159.848 281.109 183.802 281.109 205.033Z" fill="#98DCA4"/>
<path d="M281.109 205.033C281.109 226.264 271.539 225.886 259.734 225.886C247.929 225.886 238.359 226.265 238.359 205.033C238.359 183.801 250.421 159.848 259.734 159.848C269.047 159.848 281.109 183.802 281.109 205.033Z" fill="#98DCA4"/>
<path d="M281.11 205.035C281.11 226.262 271.537 225.887 259.731 225.887C257.22 225.887 254.81 225.903 252.573 225.724C260.858 225.068 266.783 221.744 266.783 205.035C266.783 189.032 259.933 171.487 252.573 163.808C254.972 161.297 257.433 159.845 259.731 159.845C269.048 159.845 281.11 183.802 281.11 205.035Z" fill="#62CA76"/>
<path d="M270.855 201.189C269.212 199.546 266.547 199.546 264.904 201.19L263.943 202.151V190.14C263.943 187.816 262.059 185.932 259.734 185.932C257.409 185.932 255.525 187.816 255.525 190.14V212.311V212.314V247.678C255.525 250.003 257.409 251.887 259.734 251.887C262.059 251.887 263.943 250.003 263.943 247.678V214.055L270.856 207.142C272.499 205.498 272.499 202.833 270.855 201.189Z" fill="#62CA76"/>
<path d="M55.3083 173.716C56.9518 172.072 56.9518 169.407 55.3083 167.764C53.6647 166.121 50.9999 166.121 49.3569 167.764L48.8463 168.274V156.689C48.8463 154.364 46.9623 152.48 44.6377 152.48C42.3131 152.48 40.4291 154.364 40.4291 156.689V192.689L35.1303 187.39C33.4867 185.747 30.8219 185.747 29.1789 187.39C27.5354 189.034 27.5354 191.699 29.1789 193.342L40.4297 204.592V247.677C40.4297 250.002 42.3137 251.886 44.6383 251.886C46.9628 251.886 48.8468 250.002 48.8468 247.677V202.85C48.8468 202.85 48.8468 202.848 48.8468 202.847V180.178L55.3083 173.716Z" fill="#3CB253"/>
<path d="M282.791 254.638H4.20859C1.88456 254.638 0 252.754 0 250.429C0 248.105 1.884 246.221 4.20859 246.221H282.791C285.116 246.221 287 248.105 287 250.429C287 252.754 285.116 254.638 282.791 254.638Z" fill="#00362E"/>
</svg>
