<svg width="287" height="287" viewBox="0 0 287 287" fill="none" xmlns="http://www.w3.org/2000/svg">
<path d="M140.89 251.885C138.566 251.885 136.682 250.001 136.682 247.677V208.664C136.682 206.339 138.566 204.455 140.89 204.455C143.215 204.455 145.099 206.339 145.099 208.664V247.677C145.099 250.001 143.214 251.885 140.89 251.885Z" fill="#0A5B36"/>
<path d="M184.486 253.515C182.161 253.515 180.277 251.631 180.277 249.307V188.378C180.277 186.053 182.161 184.169 184.486 184.169C186.811 184.169 188.695 186.053 188.695 188.378V249.306C188.694 251.631 186.81 253.515 184.486 253.515Z" fill="#0A5B36"/>
<path d="M137.933 215.397C158.742 215.397 175.612 198.528 175.612 177.719C175.612 156.909 158.742 140.04 137.933 140.04C117.123 140.04 100.254 156.909 100.254 177.719C100.254 198.528 117.123 215.397 137.933 215.397Z" fill="#0F7A4F"/>
<path d="M175.613 177.72C175.613 198.527 158.741 215.399 137.934 215.399C129.055 215.399 120.894 212.327 114.453 207.187C117.833 208.185 121.41 208.717 125.114 208.717C145.921 208.717 162.787 191.846 162.787 171.039C162.787 159.11 157.244 148.472 148.595 141.572C164.212 146.168 175.613 160.613 175.613 177.72Z" fill="#0C6842"/>
<path d="M196.054 125.377C216.863 125.377 233.733 108.508 233.733 87.6981C233.733 66.8887 216.863 50.0193 196.054 50.0193C175.244 50.0193 158.375 66.8887 158.375 87.6981C158.375 108.508 175.244 125.377 196.054 125.377Z" fill="#158F5E"/>
<path d="M233.736 87.6993C233.736 108.506 216.864 125.378 196.057 125.378C193.047 125.378 190.121 125.025 187.318 124.358C203.91 120.412 216.253 105.496 216.253 87.6993C216.253 69.8969 203.91 54.9813 187.318 51.0407C190.121 50.3737 193.047 50.0205 196.057 50.0205C216.864 50.0205 233.736 66.8868 233.736 87.6993Z" fill="#0F7A4F"/>
<path d="M245.409 176.698C266.219 176.698 283.088 159.829 283.088 139.019C283.088 118.21 266.219 101.34 245.409 101.34C224.6 101.34 207.73 118.21 207.73 139.019C207.73 159.829 224.6 176.698 245.409 176.698Z" fill="#158F5E"/>
<path d="M283.087 139.021C283.087 159.828 266.215 176.7 245.408 176.7C241.984 176.7 238.665 176.241 235.51 175.383C253.974 172.95 268.222 157.154 268.222 138.029C268.222 120.647 256.451 106.012 240.443 101.668C242.068 101.455 243.727 101.343 245.409 101.343C266.215 101.343 283.087 118.209 283.087 139.021Z" fill="#0F7A4F"/>
<path d="M202.087 251.885C199.763 251.885 197.879 250.001 197.879 247.677V191.482C197.879 189.158 199.763 187.274 202.087 187.274C204.412 187.274 206.296 189.158 206.296 191.482V247.677C206.296 250.001 204.412 251.885 202.087 251.885Z" fill="#0F7A4F"/>
<path d="M221.225 205.958C204.981 205.958 191.812 192.79 191.812 176.545V112.218C191.812 95.9735 204.981 82.8052 221.225 82.8052C237.469 82.8052 250.637 95.9735 250.637 112.218V176.545C250.637 192.79 237.469 205.958 221.225 205.958Z" fill="#D2F0A2"/>
<path d="M250.64 112.217V176.543C250.64 192.787 237.468 205.959 221.224 205.959C218.729 205.959 216.307 205.651 213.998 205.062C226.75 201.845 236.19 190.292 236.19 176.543V112.217C236.19 104.094 232.899 96.7404 227.574 91.4208C223.886 87.7324 219.222 85.0193 213.998 83.7021C216.307 83.1135 218.729 82.8052 221.224 82.8052C229.346 82.8052 236.7 86.0956 242.025 91.4208C247.349 96.7404 250.64 104.095 250.64 112.217Z" fill="#BCEA73"/>
<path d="M233.521 162.66C231.877 161.017 229.213 161.017 227.569 162.66L225.433 164.795V155.602C225.433 155.601 225.433 155.6 225.433 155.599V139.146C225.433 136.822 223.549 134.938 221.225 134.938C218.9 134.938 217.016 136.822 217.016 139.146V145.44L212.772 141.195C211.129 139.552 208.464 139.551 206.821 141.195C205.177 142.838 205.177 145.503 206.82 147.146L217.017 157.343V174.952V174.958V245.395C217.017 247.719 218.901 249.603 221.225 249.603C223.55 249.603 225.434 247.719 225.434 245.395V176.699L233.522 168.611C235.164 166.968 235.164 164.304 233.521 162.66Z" fill="#A3E440"/>
<path d="M71.4105 132.361C55.1664 132.361 41.998 119.193 41.998 102.949V61.7757C41.998 45.5316 55.1664 32.3633 71.4105 32.3633C87.6546 32.3633 100.823 45.5316 100.823 61.7757V102.949C100.824 119.193 87.6546 132.361 71.4105 132.361Z" fill="#D2F0A2"/>
<path d="M100.823 61.7747V102.951C100.823 119.195 87.6559 132.363 71.4118 132.363C68.6315 132.363 65.9353 131.976 63.3848 131.253C75.7274 127.761 84.7691 116.416 84.7691 102.952V61.7753C84.7691 53.653 81.4787 46.2991 76.154 40.9795C72.6562 37.4761 68.2783 34.8584 63.3853 33.4744C65.9358 32.7513 68.632 32.3645 71.4124 32.3645C79.5347 32.3645 86.8885 35.6549 92.2081 40.9795C97.5322 46.2986 100.823 53.653 100.823 61.7747Z" fill="#BCEA73"/>
<path d="M83.7066 89.0631C82.0631 87.4201 79.3983 87.4201 77.7553 89.0631L75.619 91.1993V82.0052C75.619 82.0052 75.619 82.0036 75.619 82.0024V65.5504C75.619 63.2258 73.735 61.3418 71.4105 61.3418C69.0859 61.3418 67.2019 63.2258 67.2019 65.5504V71.8436L62.9574 67.5986C61.3139 65.9557 58.649 65.9557 57.0061 67.5986C55.3626 69.2427 55.3626 71.907 57.0061 73.5505L67.2024 83.7469V101.358V101.361V249.307C67.2024 251.631 69.0864 253.515 71.411 253.515C73.7356 253.515 75.6196 251.631 75.6196 249.307V103.103L83.7072 95.0155C85.3501 93.3714 85.3501 90.7072 83.7066 89.0631Z" fill="#A3E440"/>
<path d="M112.641 186.528C137.304 186.528 157.297 166.535 157.297 141.872C157.297 117.208 137.304 97.2151 112.641 97.2151C87.9778 97.2151 67.9844 117.208 67.9844 141.872C67.9844 166.535 87.9778 186.528 112.641 186.528Z" fill="#1CA56F"/>
<path d="M157.3 141.869C157.3 166.532 137.306 186.526 112.643 186.526C105.564 186.526 98.8712 184.878 92.9238 181.941C113.692 178.107 129.426 159.906 129.426 138.029C129.426 120.445 119.263 105.238 104.493 97.9567C107.133 97.469 109.857 97.2168 112.643 97.2168C137.306 97.2168 157.3 117.211 157.3 141.869Z" fill="#158F5E"/>
<path d="M125.718 121.445C124.074 119.802 121.409 119.802 119.766 121.446L116.849 124.363V119.505C116.849 117.18 114.965 115.296 112.64 115.296C110.316 115.296 108.432 117.18 108.432 119.505V164.045C108.432 166.369 110.316 168.253 112.64 168.253C114.965 168.253 116.849 166.369 116.849 164.045V136.266L125.718 127.396C127.361 125.753 127.361 123.089 125.718 121.445Z" fill="#0F7A4F"/>
<path d="M112.64 253.515C110.316 253.515 108.432 251.631 108.432 249.307V209.344C108.432 207.019 110.316 205.135 112.64 205.135C114.965 205.135 116.849 207.019 116.849 209.344V249.307C116.849 251.631 114.965 253.515 112.64 253.515Z" fill="#0F7A4F"/>
<path d="M196.052 151.419C196.052 203.172 182.774 202.249 166.394 202.249C150.015 202.249 136.736 203.172 136.736 151.419C136.736 99.6649 153.473 41.2744 166.394 41.2744C179.316 41.2744 196.052 99.6649 196.052 151.419Z" fill="#A3E440"/>
<path d="M196.052 151.419C196.052 203.172 182.774 202.249 166.394 202.249C150.015 202.249 136.736 203.172 136.736 151.419C136.736 99.6649 153.473 41.2744 166.394 41.2744C179.316 41.2744 196.052 99.6649 196.052 151.419Z" fill="#A3E440"/>
<path d="M196.05 151.417C196.05 203.174 182.775 202.248 166.395 202.248C163.727 202.248 161.136 202.274 158.674 202.087C171.306 201.149 180.608 194.726 180.608 151.417C180.608 109.606 169.68 63.4682 158.674 47.2807C161.29 43.4297 163.913 41.2761 166.395 41.2761C179.316 41.2767 196.05 99.6677 196.05 151.417Z" fill="#99D53B"/>
<path d="M184.256 156.871C182.611 155.229 179.947 155.229 178.304 156.871L170.603 164.572V148.46C170.603 148.458 170.603 148.456 170.603 148.454V129.499C170.603 127.174 168.719 125.29 166.394 125.29C164.07 125.29 162.186 127.174 162.186 129.499V138.297L156.2 132.311C154.556 130.668 151.892 130.668 150.248 132.311C148.605 133.955 148.605 136.619 150.248 138.263L162.186 150.2V174.73V174.736V247.677C162.186 250.001 164.07 251.885 166.394 251.885C168.719 251.885 170.603 250.001 170.603 247.677V176.476L184.256 162.823C185.899 161.18 185.899 158.516 184.256 156.871Z" fill="#88BA31"/>
<path d="M4.50586 189.183C4.50586 229.046 22.4736 228.335 44.6377 228.335C66.8017 228.335 84.7694 229.046 84.7694 189.183C84.7694 149.321 62.1228 104.347 44.6377 104.347C27.1525 104.347 4.50586 149.321 4.50586 189.183Z" fill="#A3E440"/>
<path d="M4.50586 189.183C4.50586 229.046 22.4736 228.335 44.6377 228.335C66.8017 228.335 84.7694 229.046 84.7694 189.183C84.7694 149.321 62.1228 104.347 44.6377 104.347C27.1525 104.347 4.50586 149.321 4.50586 189.183Z" fill="#99D53B"/>
<path d="M84.7673 189.183C84.7673 229.048 66.8023 228.336 44.6389 228.336C41.7577 228.336 38.9549 228.347 36.248 228.28C54.3812 227.837 67.9851 223.868 67.9851 189.183C67.9851 155.495 51.8139 118.158 36.248 107.402C39.1012 105.423 41.932 104.347 44.6389 104.347C62.1223 104.347 84.7673 149.318 84.7673 189.183Z" fill="#8DC637"/>
<path d="M123.039 190.682C123.039 220.141 109.76 219.615 93.3806 219.615C77.0009 219.615 63.7227 220.141 63.7227 190.682C63.7227 161.223 80.4589 127.987 93.3806 127.987C106.302 127.987 123.039 161.223 123.039 190.682Z" fill="#A3E440"/>
<path d="M123.039 190.682C123.039 220.141 109.76 219.615 93.3806 219.615C77.0009 219.615 63.7227 220.141 63.7227 190.682C63.7227 161.223 80.4589 127.987 93.3806 127.987C106.302 127.987 123.039 161.223 123.039 190.682Z" fill="#A3E440"/>
<path d="M123.035 190.68C123.035 220.141 109.762 219.614 93.3775 219.614C90.3225 219.614 87.3796 219.631 84.6055 219.468C96.7015 218.767 105.491 214.647 105.491 190.68C105.491 167.636 95.2503 142.284 84.6055 132.328C87.5652 129.559 90.5641 127.984 93.3775 127.984C106.303 127.985 123.035 161.224 123.035 190.68Z" fill="#99D53B"/>
<path d="M111.242 182.919C109.599 181.276 106.934 181.276 105.29 182.919L97.5891 190.621V170.017C97.5891 167.693 95.7051 165.809 93.3805 165.809C91.0559 165.809 89.1719 167.693 89.1719 170.017V200.779V200.782V247.677C89.1719 250.002 91.0559 251.886 93.3805 251.886C95.7051 251.886 97.5891 250.002 97.5891 247.677V202.524L111.242 188.871C112.885 187.228 112.885 184.563 111.242 182.919Z" fill="#88BA31"/>
<path d="M281.109 205.032C281.109 226.264 271.539 225.885 259.734 225.885C247.929 225.885 238.359 226.264 238.359 205.032C238.359 183.8 250.421 159.847 259.734 159.847C269.047 159.847 281.109 183.801 281.109 205.032Z" fill="#A3E440"/>
<path d="M281.109 205.032C281.109 226.264 271.539 225.885 259.734 225.885C247.929 225.885 238.359 226.264 238.359 205.032C238.359 183.8 250.421 159.847 259.734 159.847C269.047 159.847 281.109 183.801 281.109 205.032Z" fill="#A3E440"/>
<path d="M281.109 205.035C281.109 226.262 271.536 225.886 259.73 225.886C257.219 225.886 254.809 225.903 252.572 225.724C260.857 225.068 266.782 221.744 266.782 205.035C266.782 189.032 259.932 171.487 252.572 163.808C254.971 161.296 257.432 159.844 259.73 159.844C269.047 159.845 281.109 183.802 281.109 205.035Z" fill="#99D53B"/>
<path d="M270.855 201.189C269.212 199.546 266.547 199.545 264.904 201.189L263.943 202.151V190.14C263.943 187.815 262.059 185.931 259.734 185.931C257.409 185.931 255.525 187.815 255.525 190.14V212.31V212.313V247.678C255.525 250.002 257.409 251.886 259.734 251.886C262.059 251.886 263.943 250.002 263.943 247.678V214.055L270.856 207.141C272.499 205.497 272.499 202.832 270.855 201.189Z" fill="#88BA31"/>
<path d="M55.3073 173.716C56.9508 172.072 56.9508 169.408 55.3073 167.764C53.6638 166.121 50.9989 166.121 49.356 167.764L48.8453 168.275V156.689C48.8453 154.365 46.9613 152.481 44.6367 152.481C42.3121 152.481 40.4281 154.365 40.4281 156.689V192.689L35.1293 187.39C33.4858 185.747 30.8209 185.747 29.178 187.39C27.5344 189.035 27.5344 191.699 29.178 193.342L40.4287 204.593V247.677C40.4287 250.002 42.3127 251.886 44.6373 251.886C46.9619 251.886 48.8459 250.002 48.8459 247.677V202.85C48.8459 202.85 48.8459 202.849 48.8459 202.848V180.178L55.3073 173.716Z" fill="#88BA31"/>
<path d="M282.791 254.637H4.20859C1.88456 254.637 0 252.753 0 250.429C0 248.104 1.884 246.22 4.20859 246.22H282.791C285.116 246.22 287 248.104 287 250.429C287 252.753 285.116 254.637 282.791 254.637Z" fill="#0A5B36"/>
</svg>
