<svg width="279" height="279" viewBox="0 0 279 279" fill="none" xmlns="http://www.w3.org/2000/svg">
<path d="M122.295 103.741C105.276 115.041 83.3746 112.204 74.4001 106.159C45.9421 86.49 49.9411 51.1081 37.4326 27.7186C37.2824 27.4469 37.1986 27.1436 37.1881 26.8333C37.1777 26.5231 37.2408 26.2147 37.3723 25.9335C37.5038 25.6523 37.7 25.4063 37.9449 25.2155C38.1897 25.0246 38.4763 24.8945 38.7811 24.8356C48.7786 23.0686 84.4441 18.7441 116.855 40.0411C124.166 45.455 129.644 52.9772 132.554 61.5967C135.463 70.2162 135.664 79.5198 133.13 88.257L122.295 103.741Z" fill="#72B746"/>
<path d="M151.916 112.298C138.434 90.6489 119.388 73.0162 96.7666 61.2405C95.6492 60.7459 94.4452 60.4762 93.2235 60.4469C92.0018 60.4176 90.7863 60.6292 89.6463 61.0696C88.5064 61.51 87.4644 62.1707 86.5798 63.0138C85.6952 63.8569 84.9853 64.866 84.4906 65.9835C83.996 67.101 83.7263 68.305 83.697 69.5267C83.6677 70.7484 83.8793 71.9639 84.3197 73.1038C84.7601 74.2438 85.4208 75.2858 86.2639 76.1704C87.1071 77.055 88.1162 77.7649 89.2337 78.2595C91.1402 79.143 131.549 99.696 145.08 141.825V141.872L153.45 130.2L151.916 112.298Z" fill="#5D8C3F"/>
<path d="M162.192 91.2191C145.266 69.6664 155.245 38.595 173.678 24.3102C206.925 -1.4275 251.751 4.7477 263.237 6.78905C263.587 6.86176 263.915 7.01564 264.194 7.2383C264.474 7.46096 264.697 7.74618 264.847 8.071C264.996 8.39581 265.067 8.75114 265.054 9.10838C265.041 9.46562 264.944 9.81478 264.771 10.1277C250.496 36.9629 255.006 77.5527 222.363 100.045C215.514 104.002 207.849 106.336 199.957 106.867C192.065 107.397 184.156 106.11 176.84 103.105L162.192 91.2191Z" fill="#83D34F"/>
<path d="M144.708 145.452C146.175 124.824 152.976 104.931 164.445 87.7229C175.915 70.5149 191.658 56.5821 210.134 47.2905C212.39 46.2915 214.952 46.23 217.254 47.1195C218.394 47.5599 219.436 48.2206 220.32 49.0637C221.205 49.9069 221.915 50.916 222.41 52.0335C222.904 53.1509 223.174 54.3549 223.203 55.5766C223.232 56.7983 223.021 58.0138 222.58 59.1538C222.14 60.2937 221.479 61.3357 220.636 62.2203C219.793 63.1049 218.784 63.8148 217.667 64.3095C202.427 72.1549 189.442 83.7584 179.938 98.0223C170.434 112.286 164.726 128.739 163.355 145.824L158.1 148.8H148.8L144.708 145.452Z" fill="#72B746"/>
<path d="M254.438 175.849C252.64 172.989 250.28 170.524 247.5 168.603C244.721 166.683 241.58 165.347 238.269 164.678C234.957 164.008 231.544 164.018 228.237 164.708C224.93 165.397 221.797 166.751 219.029 168.688C215.016 162.006 208.554 157.153 201.018 155.161C193.483 153.169 185.467 154.195 178.676 158.021C175.981 153.772 172.256 150.272 167.846 147.847C163.437 145.422 158.486 144.151 153.454 144.151C148.422 144.151 143.472 145.422 139.063 147.847C134.653 150.272 130.928 153.772 128.233 158.021C121.442 154.197 113.428 153.173 105.894 155.165C98.3593 157.157 91.8987 162.008 87.8848 168.688L162.75 241.8L254.438 175.849Z" fill="#6B4227"/>
<path d="M55.4605 243.353L148.879 273.453C151.726 274.371 154.752 274.589 157.701 274.086C160.649 273.583 163.433 272.375 165.814 270.565L270.197 191.273C271.367 190.366 272.336 189.226 273.044 187.926C273.752 186.626 274.183 185.194 274.311 183.719C274.439 182.245 274.261 180.76 273.787 179.357C273.314 177.955 272.555 176.665 271.56 175.57C269.852 173.697 267.535 172.49 265.021 172.167C262.507 171.843 259.959 172.423 257.833 173.803L166.795 231.463C165.612 232.211 164.229 232.58 162.83 232.52C161.432 232.46 160.085 231.974 158.969 231.128L130.2 209.25H198.155C199.798 209.25 201.424 208.926 202.942 208.298C204.459 207.669 205.838 206.748 207 205.586C208.161 204.425 209.083 203.046 209.711 201.528C210.34 200.011 210.664 198.384 210.664 196.742C210.664 193.753 209.594 190.864 207.649 188.596C205.703 186.328 203.01 184.831 200.057 184.377L94.674 167.665C89.7662 166.915 84.7473 167.756 80.352 170.064L57.3995 182.592C53.2989 184.829 48.7021 186.001 44.0308 186H13.9499C11.4834 186 9.11794 186.98 7.37385 188.724C5.62976 190.468 4.64994 192.833 4.64994 195.3V232.56C4.64251 235.014 5.60782 237.37 7.33442 239.114C9.06102 240.857 11.4081 241.844 13.8616 241.86C23.8823 241.926 39.4784 242.014 46.9184 242.009C49.8187 242.006 52.7014 242.459 55.4605 243.353Z" fill="#F4B990"/>
<path d="M210.226 199.95C209.455 202.845 207.674 205.368 205.204 207.064L205.158 207.111C204.786 207.343 204.414 207.576 204.088 207.762C202.254 208.732 200.211 209.243 198.136 209.25H106.95C105.717 209.25 104.534 208.76 103.662 207.888C102.79 207.016 102.3 205.833 102.3 204.6C102.3 203.367 102.79 202.184 103.662 201.312C104.534 200.44 105.717 199.95 106.95 199.95H210.226Z" fill="#DDA27A"/>
</svg>
