<svg width="137" height="137" viewBox="0 0 137 137" fill="none" xmlns="http://www.w3.org/2000/svg">
<path d="M31.335 66.126H15.0058C14.4934 66.126 14.0781 66.5413 14.0781 67.0537V77.9192C14.0781 78.4316 14.4934 78.8469 15.0058 78.8469H31.335C31.8474 78.8469 32.2627 78.4316 32.2627 77.9192V67.0537C32.2627 66.5413 31.8474 66.126 31.335 66.126Z" fill="#55A2F0"/>
<path d="M31.3353 66.126H23.1758V78.8469H31.3353C31.8477 78.8469 32.263 78.4316 32.263 77.9192V67.0537C32.263 66.5413 31.8477 66.126 31.3353 66.126Z" fill="#4B9EE2"/>
<path d="M107.863 15.6099C106.739 15.6099 105.828 16.5207 105.828 17.6445V38.1396C105.828 39.2635 106.739 40.1743 107.863 40.1743C108.987 40.1743 109.897 39.2635 109.897 38.1396V17.6445C109.897 16.521 108.987 15.6099 107.863 15.6099Z" fill="#2D5872"/>
<path d="M111.288 45.8815H104.44C103.258 45.8815 102.301 44.9238 102.301 43.7425V36.2594C102.301 35.078 103.258 34.1204 104.44 34.1204H111.288C112.469 34.1204 113.427 35.078 113.427 36.2594V43.7425C113.427 44.9238 112.469 45.8815 111.288 45.8815Z" fill="#FF4C4C"/>
<path d="M120.951 67.5757H94.7762C93.6507 67.5757 92.7383 66.6632 92.7383 65.5381V45.7817C92.7383 44.6563 93.6507 43.7441 94.7762 43.7441H120.951C122.077 43.7441 122.989 44.6566 122.989 45.7817V65.5381C122.989 66.6632 122.077 67.5757 120.951 67.5757Z" fill="#F33A3A"/>
<path d="M129.333 137H83.4023V53.4966H128.206C128.828 53.4966 129.333 54.0015 129.333 54.6244V137Z" fill="#FF4C4C"/>
<path d="M128.206 53.4966H115.73C116.353 53.4966 116.858 54.0015 116.858 54.6244V137H129.334V54.6244C129.334 54.0015 128.829 53.4966 128.206 53.4966Z" fill="#F33A3A"/>
<path d="M120.745 73.4009H94.4251C93.4934 73.4009 92.7383 72.6455 92.7383 71.714V67.813C92.7383 66.8813 93.4937 66.1262 94.4251 66.1262H120.745C121.676 66.1262 122.431 66.8816 122.431 67.813V71.714C122.431 72.6455 121.676 73.4009 120.745 73.4009Z" fill="#E1EFFB"/>
<path d="M120.745 90.0796H94.4251C93.4934 90.0796 92.7383 89.3242 92.7383 88.3928V84.4917C92.7383 83.56 93.4937 82.8049 94.4251 82.8049H120.745C121.676 82.8049 122.431 83.5603 122.431 84.4917V88.3928C122.431 89.3242 121.676 90.0796 120.745 90.0796Z" fill="#E1EFFB"/>
<path d="M120.745 106.758H94.4251C93.4934 106.758 92.7383 106.003 92.7383 105.071V101.17C92.7383 100.238 93.4937 99.4834 94.4251 99.4834H120.745C121.676 99.4834 122.431 100.239 122.431 101.17V105.071C122.431 106.003 121.676 106.758 120.745 106.758Z" fill="#E1EFFB"/>
<path d="M120.745 123.437H94.4251C93.4934 123.437 92.7383 122.681 92.7383 121.75V117.849C92.7383 116.917 93.4937 116.162 94.4251 116.162H120.745C121.676 116.162 122.431 116.917 122.431 117.849V121.75C122.431 122.682 121.676 123.437 120.745 123.437Z" fill="#E1EFFB"/>
<path d="M95.3444 137H42.3052C41.4569 137 40.7695 136.312 40.7695 135.464V3.99217C40.7695 3.14395 41.4569 2.45654 42.3052 2.45654H95.3444C96.1926 2.45654 96.88 3.14395 96.88 3.99217V135.464C96.88 136.312 96.1926 137 95.3444 137Z" fill="#FFB125"/>
<path d="M95.343 2.45654H82.8672C83.7154 2.45654 84.4028 3.14395 84.4028 3.99217V135.464C84.4028 136.312 83.7154 137 82.8672 137H95.343C96.1912 137 96.8786 136.312 96.8786 135.464V3.99217C96.8786 3.14395 96.1909 2.45654 95.343 2.45654Z" fill="#FF901D"/>
<path d="M99.2908 0H37.7116C37.2907 0 36.9492 0.341161 36.9492 0.762329V5.93086C36.9492 6.35176 37.2904 6.69319 37.7116 6.69319H99.2908C99.7117 6.69319 100.053 6.35203 100.053 5.93086V0.762329C100.053 0.341161 99.7117 0 99.2908 0Z" fill="#FF901D"/>
<path d="M56.1559 25.1256H48.694C48.1684 25.1256 47.7422 24.6997 47.7422 24.1739V15.0629C47.7422 14.5373 48.1682 14.1111 48.694 14.1111H56.1559C56.6814 14.1111 57.1077 14.5371 57.1077 15.0629V24.1741C57.1077 24.6997 56.6814 25.1256 56.1559 25.1256Z" fill="#E1EFFB"/>
<path d="M72.5543 25.1256H65.0924C64.5669 25.1256 64.1406 24.6997 64.1406 24.1739V15.0629C64.1406 14.5373 64.5666 14.1111 65.0924 14.1111H72.5543C73.0799 14.1111 73.5061 14.5371 73.5061 15.0629V24.1741C73.5058 24.6997 73.0799 25.1256 72.5543 25.1256Z" fill="#E1EFFB"/>
<path d="M88.9528 25.1256H81.4908C80.9653 25.1256 80.5391 24.6997 80.5391 24.1739V15.0629C80.5391 14.5373 80.965 14.1111 81.4908 14.1111H88.9528C89.4783 14.1111 89.9045 14.5371 89.9045 15.0629V24.1741C89.9045 24.6997 89.4786 25.1256 88.9528 25.1256Z" fill="#E1EFFB"/>
<path d="M56.1559 49.7036H48.694C48.1684 49.7036 47.7422 49.2776 47.7422 48.7518V39.6405C47.7422 39.115 48.1682 38.6887 48.694 38.6887H56.1559C56.6814 38.6887 57.1077 39.1147 57.1077 39.6405V48.7518C57.1077 49.2776 56.6814 49.7036 56.1559 49.7036Z" fill="#E1EFFB"/>
<path d="M72.5543 49.7036H65.0924C64.5669 49.7036 64.1406 49.2776 64.1406 48.7518V39.6405C64.1406 39.115 64.5666 38.6887 65.0924 38.6887H72.5543C73.0799 38.6887 73.5061 39.1147 73.5061 39.6405V48.7518C73.5058 49.2776 73.0799 49.7036 72.5543 49.7036Z" fill="#E1EFFB"/>
<path d="M88.9528 49.7036H81.4908C80.9653 49.7036 80.5391 49.2776 80.5391 48.7518V39.6405C80.5391 39.115 80.965 38.6887 81.4908 38.6887H88.9528C89.4783 38.6887 89.9045 39.1147 89.9045 39.6405V48.7518C89.9045 49.2776 89.4786 49.7036 88.9528 49.7036Z" fill="#E1EFFB"/>
<path d="M56.1559 74.2812H48.694C48.1684 74.2812 47.7422 73.8552 47.7422 73.3294V64.2181C47.7422 63.6926 48.1682 63.2664 48.694 63.2664H56.1559C56.6814 63.2664 57.1077 63.6923 57.1077 64.2181V73.3294C57.1077 73.8552 56.6814 74.2812 56.1559 74.2812Z" fill="#E1EFFB"/>
<path d="M72.5543 74.2812H65.0924C64.5669 74.2812 64.1406 73.8552 64.1406 73.3294V64.2181C64.1406 63.6926 64.5666 63.2664 65.0924 63.2664H72.5543C73.0799 63.2664 73.5061 63.6923 73.5061 64.2181V73.3294C73.5058 73.8552 73.0799 74.2812 72.5543 74.2812Z" fill="#E1EFFB"/>
<path d="M88.9528 74.2812H81.4908C80.9653 74.2812 80.5391 73.8552 80.5391 73.3294V64.2181C80.5391 63.6926 80.965 63.2664 81.4908 63.2664H88.9528C89.4783 63.2664 89.9045 63.6923 89.9045 64.2181V73.3294C89.9045 73.8552 89.4786 74.2812 88.9528 74.2812Z" fill="#E1EFFB"/>
<path d="M72.5543 98.8591H65.0924C64.5669 98.8591 64.1406 98.4331 64.1406 97.9073V88.796C64.1406 88.2705 64.5666 87.8442 65.0924 87.8442H72.5543C73.0799 87.8442 73.5061 88.2702 73.5061 88.796V97.9073C73.5058 98.4331 73.0799 98.8591 72.5543 98.8591Z" fill="#E1EFFB"/>
<path d="M88.9528 98.8591H81.4908C80.9653 98.8591 80.5391 98.4331 80.5391 97.9073V88.796C80.5391 88.2705 80.965 87.8442 81.4908 87.8442H88.9528C89.4783 87.8442 89.9045 88.2702 89.9045 88.796V97.9073C89.9045 98.4331 89.4786 98.8591 88.9528 98.8591Z" fill="#E1EFFB"/>
<path d="M72.5543 123.437H65.0924C64.5669 123.437 64.1406 123.011 64.1406 122.485V113.374C64.1406 112.848 64.5666 112.422 65.0924 112.422H72.5543C73.0799 112.422 73.5061 112.848 73.5061 113.374V122.485C73.5058 123.011 73.0799 123.437 72.5543 123.437Z" fill="#E1EFFB"/>
<path d="M88.9528 123.437H81.4908C80.9653 123.437 80.5391 123.011 80.5391 122.485V113.374C80.5391 112.848 80.965 112.422 81.4908 112.422H88.9528C89.4783 112.422 89.9045 112.848 89.9045 113.374V122.485C89.9045 123.011 89.4786 123.437 88.9528 123.437Z" fill="#E1EFFB"/>
<path d="M65.271 137H8.84076C8.19296 137 7.66797 136.475 7.66797 135.827V76.0412C7.66797 75.3934 8.19296 74.8684 8.84076 74.8684H65.271C65.9188 74.8684 66.4438 75.3934 66.4438 76.0412V135.827C66.4438 136.475 65.9188 137 65.271 137Z" fill="#61AFF6"/>
<path d="M65.2706 74.8684H52.5703C53.2181 74.8684 53.7431 75.3934 53.7431 76.0412V135.827C53.7431 136.475 53.2181 137 52.5703 137H65.2706C65.9182 137 66.4434 136.475 66.4434 135.827V76.0412C66.4434 75.3934 65.9184 74.8684 65.2706 74.8684Z" fill="#55A2F0"/>
<path d="M23.176 91.8258H15.7906C15.1404 91.8258 14.6133 91.2986 14.6133 90.6484V85.9447C14.6133 85.2945 15.1404 84.7673 15.7906 84.7673H23.176C23.8262 84.7673 24.3534 85.2945 24.3534 85.9447V90.6484C24.3534 91.2986 23.8262 91.8258 23.176 91.8258Z" fill="#E1EFFB"/>
<path d="M40.3674 91.8258H32.982C32.3318 91.8258 31.8047 91.2986 31.8047 90.6484V85.9447C31.8047 85.2945 32.3318 84.7673 32.982 84.7673H40.3674C41.0177 84.7673 41.5448 85.2945 41.5448 85.9447V90.6484C41.5448 91.2986 41.0177 91.8258 40.3674 91.8258Z" fill="#E1EFFB"/>
<path d="M57.5628 91.8258H50.1773C49.5271 91.8258 49 91.2986 49 90.6484V85.9447C49 85.2945 49.5271 84.7673 50.1773 84.7673H57.5628C58.213 84.7673 58.7401 85.2945 58.7401 85.9447V90.6484C58.7401 91.2986 58.213 91.8258 57.5628 91.8258Z" fill="#E1EFFB"/>
<path d="M23.176 108.335H15.7906C15.1404 108.335 14.6133 107.808 14.6133 107.158V102.454C14.6133 101.804 15.1404 101.277 15.7906 101.277H23.176C23.8262 101.277 24.3534 101.804 24.3534 102.454V107.158C24.3534 107.808 23.8262 108.335 23.176 108.335Z" fill="#E1EFFB"/>
<path d="M40.3674 108.335H32.982C32.3318 108.335 31.8047 107.808 31.8047 107.158V102.454C31.8047 101.804 32.3318 101.277 32.982 101.277H40.3674C41.0177 101.277 41.5448 101.804 41.5448 102.454V107.158C41.5448 107.808 41.0177 108.335 40.3674 108.335Z" fill="#E1EFFB"/>
<path d="M57.5628 108.335H50.1773C49.5271 108.335 49 107.808 49 107.158V102.454C49 101.804 49.5271 101.277 50.1773 101.277H57.5628C58.213 101.277 58.7401 101.804 58.7401 102.454V107.158C58.7401 107.808 58.213 108.335 57.5628 108.335Z" fill="#E1EFFB"/>
<path d="M23.176 124.844H15.7906C15.1404 124.844 14.6133 124.317 14.6133 123.667V118.963C14.6133 118.313 15.1404 117.786 15.7906 117.786H23.176C23.8262 117.786 24.3534 118.313 24.3534 118.963V123.667C24.3534 124.317 23.8262 124.844 23.176 124.844Z" fill="#E1EFFB"/>
<path d="M40.3674 124.844H32.982C32.3318 124.844 31.8047 124.317 31.8047 123.667V118.963C31.8047 118.313 32.3318 117.786 32.982 117.786H40.3674C41.0177 117.786 41.5448 118.313 41.5448 118.963V123.667C41.5448 124.317 41.0177 124.844 40.3674 124.844Z" fill="#E1EFFB"/>
<path d="M57.5628 124.844H50.1773C49.5271 124.844 49 124.317 49 123.667V118.963C49 118.313 49.5271 117.786 50.1773 117.786H57.5628C58.213 117.786 58.7401 118.313 58.7401 118.963V123.667C58.7401 124.317 58.213 124.844 57.5628 124.844Z" fill="#E1EFFB"/>
</svg>
