<svg width="137" height="137" viewBox="0 0 137 137" fill="none" xmlns="http://www.w3.org/2000/svg">
<g clip-path="url(#clip0_1655_12003)">
<path d="M31.336 66.126H15.0068C14.4944 66.126 14.0791 66.5413 14.0791 67.0537V77.9192C14.0791 78.4316 14.4944 78.8469 15.0068 78.8469H31.336C31.8484 78.8469 32.2637 78.4316 32.2637 77.9192V67.0537C32.2637 66.5413 31.8484 66.126 31.336 66.126Z" fill="#009E3D"/>
<path d="M31.3363 66.126H23.1768V78.8469H31.3363C31.8487 78.8469 32.264 78.4316 32.264 77.9192V67.0537C32.264 66.5413 31.8487 66.126 31.3363 66.126Z" fill="#009E3D"/>
<path d="M107.862 15.6104C106.738 15.6104 105.827 16.5212 105.827 17.645V38.1401C105.827 39.2639 106.738 40.1748 107.862 40.1748C108.986 40.1748 109.896 39.2639 109.896 38.1401V17.645C109.896 16.5215 108.986 15.6104 107.862 15.6104Z" fill="#297A38"/>
<path d="M111.286 45.8812H104.438C103.256 45.8812 102.299 44.9236 102.299 43.7422V36.2591C102.299 35.0778 103.256 34.1201 104.438 34.1201H111.286C112.467 34.1201 113.425 35.0778 113.425 36.2591V43.7422C113.425 44.9236 112.467 45.8812 111.286 45.8812Z" fill="#00362E"/>
<path d="M120.949 67.5757H94.7742C93.6488 67.5757 92.7363 66.6632 92.7363 65.5381V45.7817C92.7363 44.6563 93.6488 43.7441 94.7742 43.7441H120.949C122.075 43.7441 122.987 44.6566 122.987 45.7817V65.5381C122.987 66.6632 122.075 67.5757 120.949 67.5757Z" fill="#187A6A"/>
<path d="M129.333 136.999H83.4023V53.4961H128.206C128.828 53.4961 129.333 54.001 129.333 54.6239V136.999Z" fill="#00362E"/>
<path d="M128.205 53.4961H115.729C116.352 53.4961 116.857 54.001 116.857 54.6239V136.999H129.333V54.6239C129.333 54.001 128.828 53.4961 128.205 53.4961Z" fill="#187A6A"/>
<path d="M120.744 73.4006H94.4241C93.4924 73.4006 92.7373 72.6452 92.7373 71.7138V67.8128C92.7373 66.8811 93.4927 66.126 94.4241 66.126H120.744C121.675 66.126 122.43 66.8813 122.43 67.8128V71.7138C122.43 72.6452 121.675 73.4006 120.744 73.4006Z" fill="#F6F7F9"/>
<path d="M120.744 90.0793H94.4241C93.4924 90.0793 92.7373 89.3239 92.7373 88.3925V84.4915C92.7373 83.5598 93.4927 82.8047 94.4241 82.8047H120.744C121.675 82.8047 122.43 83.5601 122.43 84.4915V88.3925C122.43 89.3239 121.675 90.0793 120.744 90.0793Z" fill="#F6F7F9"/>
<path d="M120.744 106.758H94.4241C93.4924 106.758 92.7373 106.003 92.7373 105.071V101.17C92.7373 100.238 93.4927 99.4834 94.4241 99.4834H120.744C121.675 99.4834 122.43 100.239 122.43 101.17V105.071C122.43 106.003 121.675 106.758 120.744 106.758Z" fill="#F6F7F9"/>
<path d="M120.744 123.437H94.4241C93.4924 123.437 92.7373 122.681 92.7373 121.75V117.849C92.7373 116.917 93.4927 116.162 94.4241 116.162H120.744C121.675 116.162 122.43 116.917 122.43 117.849V121.75C122.43 122.682 121.675 123.437 120.744 123.437Z" fill="#F6F7F9"/>
<path d="M95.3434 137H42.3042C41.456 137 40.7686 136.313 40.7686 135.465V3.99266C40.7686 3.14444 41.456 2.45703 42.3042 2.45703H95.3434C96.1916 2.45703 96.8791 3.14444 96.8791 3.99266V135.465C96.8791 136.313 96.1916 137 95.3434 137Z" fill="#EEAA38"/>
<path d="M95.344 2.45703H82.8682C83.7164 2.45703 84.4038 3.14444 84.4038 3.99266V135.465C84.4038 136.313 83.7164 137 82.8682 137H95.344C96.1922 137 96.8796 136.313 96.8796 135.465V3.99266C96.8796 3.14444 96.1919 2.45703 95.344 2.45703Z" fill="#F19937"/>
<path d="M99.2898 0H37.7106C37.2897 0 36.9482 0.341161 36.9482 0.762329V5.93086C36.9482 6.35176 37.2894 6.69319 37.7106 6.69319H99.2898C99.7107 6.69319 100.052 6.35203 100.052 5.93086V0.762329C100.052 0.341161 99.7107 0 99.2898 0Z" fill="#F19937"/>
<path d="M56.1549 25.1259H48.693C48.1675 25.1259 47.7412 24.6999 47.7412 24.1741V15.0631C47.7412 14.5376 48.1672 14.1113 48.693 14.1113H56.1549C56.6804 14.1113 57.1067 14.5373 57.1067 15.0631V24.1744C57.1067 24.6999 56.6804 25.1259 56.1549 25.1259Z" fill="#F6F7F9"/>
<path d="M72.5543 25.1259H65.0924C64.5669 25.1259 64.1406 24.6999 64.1406 24.1741V15.0631C64.1406 14.5376 64.5666 14.1113 65.0924 14.1113H72.5543C73.0799 14.1113 73.5061 14.5373 73.5061 15.0631V24.1744C73.5058 24.6999 73.0799 25.1259 72.5543 25.1259Z" fill="#F6F7F9"/>
<path d="M88.9528 25.1259H81.4908C80.9653 25.1259 80.5391 24.6999 80.5391 24.1741V15.0631C80.5391 14.5376 80.965 14.1113 81.4908 14.1113H88.9528C89.4783 14.1113 89.9045 14.5373 89.9045 15.0631V24.1744C89.9045 24.6999 89.4786 25.1259 88.9528 25.1259Z" fill="#F6F7F9"/>
<path d="M56.1549 49.7033H48.693C48.1675 49.7033 47.7412 49.2773 47.7412 48.7515V39.6403C47.7412 39.1147 48.1672 38.6885 48.693 38.6885H56.1549C56.6804 38.6885 57.1067 39.1145 57.1067 39.6403V48.7515C57.1067 49.2773 56.6804 49.7033 56.1549 49.7033Z" fill="#F6F7F9"/>
<path d="M72.5543 49.7033H65.0924C64.5669 49.7033 64.1406 49.2773 64.1406 48.7515V39.6403C64.1406 39.1147 64.5666 38.6885 65.0924 38.6885H72.5543C73.0799 38.6885 73.5061 39.1145 73.5061 39.6403V48.7515C73.5058 49.2773 73.0799 49.7033 72.5543 49.7033Z" fill="#F6F7F9"/>
<path d="M88.9528 49.7033H81.4908C80.9653 49.7033 80.5391 49.2773 80.5391 48.7515V39.6403C80.5391 39.1147 80.965 38.6885 81.4908 38.6885H88.9528C89.4783 38.6885 89.9045 39.1145 89.9045 39.6403V48.7515C89.9045 49.2773 89.4786 49.7033 88.9528 49.7033Z" fill="#F6F7F9"/>
<path d="M56.1549 74.2814H48.693C48.1675 74.2814 47.7412 73.8555 47.7412 73.3297V64.2184C47.7412 63.6929 48.1672 63.2666 48.693 63.2666H56.1549C56.6804 63.2666 57.1067 63.6926 57.1067 64.2184V73.3297C57.1067 73.8555 56.6804 74.2814 56.1549 74.2814Z" fill="#F6F7F9"/>
<path d="M72.5543 74.2814H65.0924C64.5669 74.2814 64.1406 73.8555 64.1406 73.3297V64.2184C64.1406 63.6929 64.5666 63.2666 65.0924 63.2666H72.5543C73.0799 63.2666 73.5061 63.6926 73.5061 64.2184V73.3297C73.5058 73.8555 73.0799 74.2814 72.5543 74.2814Z" fill="#F6F7F9"/>
<path d="M88.9528 74.2814H81.4908C80.9653 74.2814 80.5391 73.8555 80.5391 73.3297V64.2184C80.5391 63.6929 80.965 63.2666 81.4908 63.2666H88.9528C89.4783 63.2666 89.9045 63.6926 89.9045 64.2184V73.3297C89.9045 73.8555 89.4786 74.2814 88.9528 74.2814Z" fill="#F6F7F9"/>
<path d="M72.5543 98.8596H65.0924C64.5669 98.8596 64.1406 98.4336 64.1406 97.9078V88.7965C64.1406 88.271 64.5666 87.8447 65.0924 87.8447H72.5543C73.0799 87.8447 73.5061 88.2707 73.5061 88.7965V97.9078C73.5058 98.4336 73.0799 98.8596 72.5543 98.8596Z" fill="#F6F7F9"/>
<path d="M88.9528 98.8596H81.4908C80.9653 98.8596 80.5391 98.4336 80.5391 97.9078V88.7965C80.5391 88.271 80.965 87.8447 81.4908 87.8447H88.9528C89.4783 87.8447 89.9045 88.2707 89.9045 88.7965V97.9078C89.9045 98.4336 89.4786 98.8596 88.9528 98.8596Z" fill="#F6F7F9"/>
<path d="M72.5543 123.437H65.0924C64.5669 123.437 64.1406 123.011 64.1406 122.485V113.374C64.1406 112.848 64.5666 112.422 65.0924 112.422H72.5543C73.0799 112.422 73.5061 112.848 73.5061 113.374V122.485C73.5058 123.011 73.0799 123.437 72.5543 123.437Z" fill="#F6F7F9"/>
<path d="M88.9528 123.437H81.4908C80.9653 123.437 80.5391 123.011 80.5391 122.485V113.374C80.5391 112.848 80.965 112.422 81.4908 112.422H88.9528C89.4783 112.422 89.9045 112.848 89.9045 113.374V122.485C89.9045 123.011 89.4786 123.437 88.9528 123.437Z" fill="#F6F7F9"/>
<path d="M65.27 136.999H8.83978C8.19198 136.999 7.66699 136.474 7.66699 135.827V76.041C7.66699 75.3932 8.19198 74.8682 8.83978 74.8682H65.27C65.9178 74.8682 66.4428 75.3932 66.4428 76.041V135.827C66.4428 136.474 65.9178 136.999 65.27 136.999Z" fill="#009E3D"/>
<path d="M65.2696 74.8682H52.5693C53.2171 74.8682 53.7421 75.3932 53.7421 76.041V135.827C53.7421 136.475 53.2171 137 52.5693 137H65.2696C65.9172 137 66.4424 136.475 66.4424 135.827V76.041C66.4424 75.3932 65.9174 74.8682 65.2696 74.8682Z" fill="#297A38"/>
<path d="M23.177 91.826H15.7916C15.1414 91.826 14.6143 91.2989 14.6143 90.6487V85.9449C14.6143 85.2947 15.1414 84.7676 15.7916 84.7676H23.177C23.8272 84.7676 24.3544 85.2947 24.3544 85.9449V90.6487C24.3544 91.2989 23.8272 91.826 23.177 91.826Z" fill="#F6F7F9"/>
<path d="M40.3694 91.826H32.984C32.3338 91.826 31.8066 91.2989 31.8066 90.6487V85.9449C31.8066 85.2947 32.3338 84.7676 32.984 84.7676H40.3694C41.0196 84.7676 41.5467 85.2947 41.5467 85.9449V90.6487C41.5467 91.2989 41.0196 91.826 40.3694 91.826Z" fill="#F6F7F9"/>
<path d="M57.5618 91.826H50.1764C49.5262 91.826 48.999 91.2989 48.999 90.6487V85.9449C48.999 85.2947 49.5262 84.7676 50.1764 84.7676H57.5618C58.212 84.7676 58.7391 85.2947 58.7391 85.9449V90.6487C58.7391 91.2989 58.212 91.826 57.5618 91.826Z" fill="#F6F7F9"/>
<path d="M23.177 108.335H15.7916C15.1414 108.335 14.6143 107.808 14.6143 107.157V102.454C14.6143 101.804 15.1414 101.276 15.7916 101.276H23.177C23.8272 101.276 24.3544 101.804 24.3544 102.454V107.157C24.3544 107.808 23.8272 108.335 23.177 108.335Z" fill="#F6F7F9"/>
<path d="M40.3694 108.335H32.984C32.3338 108.335 31.8066 107.808 31.8066 107.157V102.454C31.8066 101.804 32.3338 101.276 32.984 101.276H40.3694C41.0196 101.276 41.5467 101.804 41.5467 102.454V107.157C41.5467 107.808 41.0196 108.335 40.3694 108.335Z" fill="#F6F7F9"/>
<path d="M57.5618 108.335H50.1764C49.5262 108.335 48.999 107.808 48.999 107.157V102.454C48.999 101.804 49.5262 101.276 50.1764 101.276H57.5618C58.212 101.276 58.7391 101.804 58.7391 102.454V107.157C58.7391 107.808 58.212 108.335 57.5618 108.335Z" fill="#F6F7F9"/>
<path d="M23.177 124.845H15.7916C15.1414 124.845 14.6143 124.317 14.6143 123.667V118.963C14.6143 118.313 15.1414 117.786 15.7916 117.786H23.177C23.8272 117.786 24.3544 118.313 24.3544 118.963V123.667C24.3544 124.317 23.8272 124.845 23.177 124.845Z" fill="#F6F7F9"/>
<path d="M40.3694 124.845H32.984C32.3338 124.845 31.8066 124.317 31.8066 123.667V118.963C31.8066 118.313 32.3338 117.786 32.984 117.786H40.3694C41.0196 117.786 41.5467 118.313 41.5467 118.963V123.667C41.5467 124.317 41.0196 124.845 40.3694 124.845Z" fill="#F6F7F9"/>
<path d="M57.5618 124.845H50.1764C49.5262 124.845 48.999 124.317 48.999 123.667V118.963C48.999 118.313 49.5262 117.786 50.1764 117.786H57.5618C58.212 117.786 58.7391 118.313 58.7391 118.963V123.667C58.7391 124.317 58.212 124.845 57.5618 124.845Z" fill="#F6F7F9"/>
</g>
<defs>
<clipPath id="clip0_1655_12003">
<rect width="137" height="137" fill="white"/>
</clipPath>
</defs>
</svg>
