<svg width="168" height="213" viewBox="0 0 168 213" fill="none" xmlns="http://www.w3.org/2000/svg">
<path d="M167.3 135.694C167.3 198.1 80.9945 242.58 23.9 188.141C9.29444 174.2 0 155.611 0 135.694C0 81.2551 57.7583 53.3718 77.0111 4.24403C77.675 2.25236 79.6667 0.924588 81.6583 0.260699C84.9778 -0.40319 88.2972 0.924587 89.625 4.24403C109.542 53.3718 167.3 81.2551 167.3 135.694Z" fill="#00362E"/>
<path d="M167.3 135.694C167.3 185.485 108.878 227.974 54.439 207.394C43.1529 203.41 32.5306 196.772 24.564 188.805C34.5223 192.788 45.1445 194.116 55.1028 192.788C82.3223 190.133 106.222 170.88 116.845 145.652C127.467 120.424 124.147 90.5493 110.206 67.3132C98.9195 48.7243 75.0195 25.4882 82.3223 0.260447C84.314 -0.403442 86.3056 0.260447 87.6334 1.58823C88.2973 2.25211 89.6251 2.916 89.6251 4.24378C109.542 53.3716 167.3 81.2549 167.3 135.694Z" fill="#012B25"/>
<path d="M167.3 135.694C167.3 185.485 108.878 227.974 54.439 207.394C82.3223 203.41 103.567 197.435 124.811 178.846C142.072 164.241 152.031 132.374 141.408 102.499C134.77 83.9103 121.492 69.3047 110.206 53.3714C105.558 46.0686 98.9195 40.0936 95.6001 32.7908C92.9445 27.4797 87.6334 10.8825 86.9695 2.25195C87.6334 2.91584 88.9612 3.57973 88.9612 4.90751C109.542 53.3714 167.3 81.2547 167.3 135.694Z" fill="#012B25"/>
<g opacity="0.5">
<path d="M37.1777 109.139C29.8749 124.408 29.8749 138.35 22.5721 136.358C15.2694 135.03 13.2777 120.425 18.5888 103.828C23.236 87.2303 36.5138 79.2637 47.136 79.2637C57.7582 79.2637 44.4805 93.2053 37.1777 109.139Z" fill="white"/>
</g>
<g opacity="0.5">
<path d="M28.5472 151.627C28.5472 156.939 25.2278 160.258 21.9083 160.258C18.5889 160.258 15.9333 156.275 15.9333 150.964C15.9333 146.316 19.2528 142.333 22.5722 142.333C26.5556 142.997 29.2111 146.98 28.5472 151.627Z" fill="white"/>
</g>
<g opacity="0.45">
<path d="M88.9612 199.427C101.575 193.452 120.828 179.51 128.795 168.224C137.425 154.946 141.408 138.349 140.745 122.416C140.081 106.482 132.778 91.2129 123.483 76.6073C103.567 45.4046 98.9195 39.4296 96.9279 31.4629C101.575 38.7657 108.214 44.0768 114.189 51.3796C126.139 65.9851 136.761 76.6073 145.392 94.5323C158.006 121.752 153.358 152.955 136.097 173.535C126.139 184.821 104.895 196.771 88.9612 199.427Z" fill="#297A38"/>
</g>
</svg>
