<svg width="169" height="213" viewBox="0 0 169 213" fill="none" xmlns="http://www.w3.org/2000/svg">
<path d="M168.15 135.711C168.15 198.117 81.8441 242.597 24.7496 188.158C10.1441 174.217 0.849609 155.628 0.849609 135.711C0.849609 81.2722 58.6079 53.3889 77.8607 4.26112C78.5246 2.26945 80.5163 0.941678 82.508 0.277789C85.8274 -0.3861 89.1468 0.941677 90.4746 4.26112C110.391 53.3889 168.15 81.2722 168.15 135.711Z" fill="#57B3FE"/>
<path d="M168.15 135.711C168.15 185.503 109.728 227.992 55.2891 207.411C44.003 203.428 33.3807 196.789 25.4141 188.822C35.3724 192.806 45.9946 194.133 55.9529 192.806C83.1724 190.15 107.072 170.897 117.695 145.669C128.317 120.442 124.997 90.5667 111.056 67.3306C99.7696 48.7417 75.8696 25.5056 83.1724 0.277781C85.1641 -0.386108 87.1557 0.277781 88.4835 1.60556C89.1474 2.26945 90.4752 2.93334 90.4752 4.26111C110.392 53.3889 168.15 81.2722 168.15 135.711Z" fill="#5094FF"/>
<path d="M168.15 135.711C168.15 185.503 109.728 227.992 55.2891 207.411C83.1724 203.428 104.417 197.453 125.661 178.864C142.922 164.258 152.881 132.392 142.259 102.517C135.62 83.9279 122.342 69.3223 111.056 53.389C106.409 46.0862 99.7696 40.1112 96.4502 32.8084C93.7946 27.4973 88.4835 10.9001 87.8196 2.26953C88.4835 2.93342 89.8113 3.59731 89.8113 4.92509C110.392 53.389 168.15 81.2723 168.15 135.711Z" fill="#5094FF"/>
<g opacity="0.5">
<path d="M38.0271 109.156C30.7243 124.425 30.7243 138.367 23.4215 136.375C16.1187 135.047 14.127 120.442 19.4382 103.844C24.0854 87.2472 37.3632 79.2805 47.9854 79.2805C58.6076 79.2805 45.3298 93.2222 38.0271 109.156Z" fill="white"/>
</g>
<g opacity="0.5">
<path d="M29.3971 151.645C29.3971 156.956 26.0776 160.275 22.7582 160.275C19.4388 160.275 16.7832 156.292 16.7832 150.981C16.7832 146.333 20.1026 142.35 23.4221 142.35C27.4054 143.014 30.061 146.997 29.3971 151.645Z" fill="white"/>
</g>
<g opacity="0.45">
<path d="M89.8105 199.444C102.424 193.469 121.677 179.528 129.644 168.242C138.274 154.964 142.258 138.367 141.594 122.433C140.93 106.5 133.627 91.2305 124.333 76.6249C104.416 45.4221 99.7689 39.4471 97.7772 31.4805C102.424 38.7832 109.063 44.0944 115.038 51.3971C126.988 66.0027 137.611 76.6249 146.241 94.5499C158.855 121.769 154.208 152.972 136.947 173.553C126.988 184.839 105.744 196.789 89.8105 199.444Z" fill="#5564D7"/>
</g>
</svg>
