<svg width="224" height="281" viewBox="0 0 224 281" fill="none" xmlns="http://www.w3.org/2000/svg">
<path d="M87.8999 69.0001H153.9V95H87.8999V69.0001Z" fill="#EEAA38"/>
<path d="M120.9 44.9998C117.307 44.9998 113.913 44.1528 110.9 42.6558V58.9998H130.9V42.6558C127.887 44.1528 124.493 44.9998 120.9 44.9998Z" fill="#08B0A0"/>
<path d="M125.9 44.4348V48.9998C125.9 51.7608 123.661 53.9998 120.9 53.9998H110.9V58.9998H130.9V42.6558C129.329 43.4368 127.653 44.0368 125.9 44.4348Z" fill="#00AEC3"/>
<path d="M194 167H222C223.105 167 224 166.105 224 165V77C224 75.895 223.105 75 222 75H194C188.477 75 184 79.477 184 85V157C184 162.523 188.477 167 194 167Z" fill="#58595B"/>
<path d="M222 75H219V160C219 161.105 218.105 162 217 162H189C188.639 162 188.283 161.979 187.933 161.942C187.881 161.936 187.831 161.925 187.779 161.918C187.475 161.88 187.174 161.834 186.879 161.77C186.854 161.765 186.83 161.757 186.805 161.751C186.14 161.6 185.499 161.385 184.89 161.11C186.459 164.581 189.943 167 194 167H222C223.105 167 224 166.105 224 165V77C224 75.895 223.105 75 222 75Z" fill="#4A5B66"/>
<path d="M184 95H57C29.386 95 7 117.386 7 145V177H59V157C59 151.477 63.477 147 69 147H184V95Z" fill="#EEAA38"/>
<path d="M13.2149 142.653C13.1489 142.653 13.0829 142.65 13.0159 142.643C11.9169 142.535 11.1139 141.556 11.2219 140.456C13.0759 121.642 26.5879 105.636 44.8449 100.629C45.9089 100.334 47.0099 100.964 47.3029 102.029C47.5949 103.094 46.9689 104.195 45.9029 104.487C29.2329 109.059 16.8959 123.672 15.2029 140.849C15.1019 141.881 14.2309 142.653 13.2149 142.653ZM53.2339 103.16C52.2079 103.16 51.3339 102.374 51.2439 101.333C51.1489 100.232 51.9629 99.263 53.0639 99.167L53.4679 99.134C54.5669 99.05 55.5319 99.869 55.6189 100.97C55.7059 102.071 54.8839 103.034 53.7829 103.121L53.4099 103.152C53.3509 103.157 53.2919 103.16 53.2339 103.16Z" fill="#FFC91D"/>
<path d="M174 95V132C174 134.761 171.761 137 169 137H59C53.477 137 49 141.477 49 147V162C49 164.761 46.761 167 44 167H7V177H59V157C59 151.477 63.477 147 69 147H184V95H174Z" fill="#F79219"/>
<path d="M179 95V137C179 139.761 176.761 142 174 142H64C58.477 142 54 146.477 54 152V167C54 169.761 51.761 172 49 172H7V177H59V157C59 151.477 63.477 147 69 147H184V95H179Z" fill="#F19937"/>
<path d="M0 182V192C0 194.761 2.239 197 5 197H61C63.761 197 66 194.761 66 192V182C66 179.239 63.761 177 61 177H5C2.239 177 0 179.239 0 182Z" fill="#91A3B0"/>
<path d="M61 177V187C61 189.761 58.761 192 56 192H0C0 194.761 2.239 197 5 197H61C63.761 197 66 194.761 66 192V182C66 179.239 63.761 177 61 177Z" fill="#5F7381"/>
<path d="M166.4 9.99988C162.783 9.99988 159.536 11.5449 157.253 13.9999H84.547C82.265 11.5449 79.017 9.99988 75.4 9.99988C68.496 9.99988 62.9 15.5959 62.9 22.4999C62.9 29.4039 68.496 34.9999 75.4 34.9999C79.486 34.9999 83.102 33.0309 85.383 29.9999H156.417C158.698 33.0309 162.314 34.9999 166.4 34.9999C173.304 34.9999 178.9 29.4039 178.9 22.4999C178.9 15.5959 173.304 9.99988 166.4 9.99988Z" fill="#08B0A0"/>
<path d="M176.717 15.4469C176.828 16.1159 176.9 16.7989 176.9 17.4999C176.9 24.4039 171.304 29.9999 164.4 29.9999C160.314 29.9999 156.698 28.0309 154.417 24.9999H83.383C81.102 28.0309 77.486 29.9999 73.4 29.9999C69.114 29.9999 65.335 27.8409 63.083 24.5529C64.064 30.4779 69.197 34.9999 75.4 34.9999C79.486 34.9999 83.102 33.0309 85.383 29.9999H156.417C158.698 33.0309 162.314 34.9999 166.4 34.9999C173.304 34.9999 178.9 29.4039 178.9 22.4999C178.9 19.8819 178.093 17.4549 176.717 15.4469Z" fill="#00AEC3"/>
<path d="M120.9 45C133.326 45 143.4 34.9264 143.4 22.5C143.4 10.0736 133.326 0 120.9 0C108.473 0 98.3997 10.0736 98.3997 22.5C98.3997 34.9264 108.473 45 120.9 45Z" fill="#00AEC3"/>
<path d="M134.11 4.28998C136.806 7.99998 138.4 12.563 138.4 17.5C138.4 29.926 128.326 40 115.9 40C110.963 40 106.4 38.406 102.69 35.71C106.78 41.338 113.41 45 120.9 45C133.326 45 143.4 34.926 143.4 22.5C143.4 15.011 139.738 8.37998 134.11 4.28998Z" fill="#088696"/>
<path d="M155.9 69H85.9C83.139 69 80.9 66.761 80.9 64C80.9 61.239 83.139 59 85.9 59H155.9C158.661 59 160.9 61.239 160.9 64C160.9 66.761 158.661 69 155.9 69Z" fill="#58595B"/>
<path d="M158.275 59.625C158.661 60.334 158.9 61.135 158.9 62C158.9 64.761 156.661 67 153.9 67H83.9C83.036 67 82.235 66.761 81.525 66.375C82.372 67.932 84.003 69 85.9 69H155.9C158.661 69 160.9 66.761 160.9 64C160.9 62.103 159.831 60.473 158.275 59.625Z" fill="#4A5B66"/>
<path d="M6 254C6 261.161 8.84464 268.028 13.9081 273.092C18.9716 278.155 25.8392 281 33 281C40.1608 281 47.0284 278.155 52.0919 273.092C57.1554 268.028 60 261.161 60 254C60 248.158 58.1052 242.474 54.6 237.8L33 209L11.4 237.8C7.8948 242.474 6 248.158 6 254Z" fill="#0A8796"/>
<path d="M11.1031 237.801C8.37813 241.449 6.62256 245.727 6 250.236C10.0283 252.317 14.4356 253.565 18.9582 253.905C23.4808 254.245 28.0255 253.67 32.3204 252.215C36.6152 250.76 40.5718 248.454 43.9533 245.436C47.3348 242.418 50.0717 238.75 52 234.65L32.7345 209L11.1031 237.801Z" fill="#00AEC3"/>
</svg>
