<svg width="280" height="229" viewBox="0 0 280 229" fill="none" xmlns="http://www.w3.org/2000/svg">
<path d="M120.718 35.8381C113.731 13.0562 85.2996 -5.78621 58.6898 1.64671C54.4987 2.82304 50.4766 4.53428 46.7228 6.73823C20.8934 21.6041 0.00688512 57.8395 0.00688512 87.6455C-0.078099 92.6789 0.624104 97.6947 2.08809 102.511C9.03787 125.293 37.506 144.024 64.1158 136.554C68.3069 135.378 72.3289 133.667 76.0828 131.463C101.875 116.597 122.799 80.3241 122.799 50.5181C122.858 45.5473 122.156 40.5966 120.718 35.8381Z" fill="#5F7381"/>
<path d="M76.0479 131.426C101.84 116.56 122.764 80.2872 122.764 50.4812C122.764 20.6752 101.84 8.59673 76.0479 23.4626C50.2557 38.3284 29.332 74.5638 29.332 104.37C29.332 134.176 50.2557 146.329 76.0479 131.426Z" fill="#404D57"/>
<path d="M76.0492 56.5382C85.9721 50.8149 93.9996 55.4605 93.9996 66.9443C93.6634 73.1754 91.8628 79.2393 88.7439 84.644C85.625 90.0488 81.2758 94.6421 76.0492 98.0511C66.1262 103.774 58.0986 99.1288 58.0986 87.6821C58.435 81.4461 60.2354 75.3769 63.3541 69.9661C66.4727 64.5554 70.8218 59.9552 76.0492 56.5382Z" fill="#5F7381"/>
<path d="M82.1749 73.7455C82.0628 75.8801 81.4491 77.9583 80.3837 79.8115C79.3183 81.6647 77.8311 83.2407 76.0428 84.4117C75.4537 84.8361 74.7693 85.1089 74.0498 85.2062C73.3304 85.3034 72.598 85.2219 71.9175 84.9691L71.4715 84.7091C70.9333 84.2575 70.5085 83.6861 70.2309 83.0407C69.9534 82.3953 69.831 81.6939 69.8735 80.9926C69.9984 78.8567 70.6214 76.7796 71.6927 74.9275C72.7639 73.0754 74.2537 71.4997 76.0428 70.3263C76.6337 69.905 77.3199 69.637 78.0398 69.5462C78.7598 69.4554 79.491 69.5447 80.168 69.806L80.614 70.029C81.1477 70.4824 81.5671 71.0551 81.8383 71.7008C82.1095 72.3464 82.2248 73.0469 82.1749 73.7455Z" fill="#404D57"/>
<path d="M180.884 130.719C180.769 132.853 180.154 134.93 179.089 136.783C178.024 138.635 176.538 140.212 174.752 141.385C173.953 141.9 173.027 142.183 172.076 142.203C171.354 142.188 170.649 141.983 170.032 141.608L71.9175 84.9691L71.4715 84.7091C70.9333 84.2575 70.5085 83.6861 70.2309 83.0407C69.9534 82.3953 69.831 81.6939 69.8735 80.9926C69.9984 78.8567 70.6214 76.7796 71.6927 74.9275C72.7639 73.0754 74.2537 71.4997 76.0428 70.3263C76.6337 69.905 77.3199 69.637 78.0398 69.5462C78.7598 69.4554 79.491 69.5447 80.168 69.806L80.614 70.029L178.728 126.668C179.433 127.072 180.009 127.666 180.39 128.383C180.771 129.099 180.943 129.909 180.884 130.719Z" fill="#B9C5CC"/>
<path d="M277.177 126.148C270.227 103.367 241.759 84.5241 215.149 91.9942C210.948 93.1764 206.915 94.8872 203.145 97.0857C177.353 111.952 156.429 148.224 156.429 178.03C156.363 183.062 157.065 188.075 158.51 192.896C165.497 215.678 193.928 234.409 220.538 226.976C224.732 225.809 228.756 224.097 232.505 221.884C258.297 207.019 279.221 170.746 279.221 140.977C279.307 135.958 278.617 130.957 277.177 126.148Z" fill="#5F7381"/>
<path d="M232.546 221.735C258.338 206.87 279.262 170.597 279.262 140.828C279.262 111.059 258.338 98.9436 232.546 113.809C206.754 128.675 185.793 164.948 185.83 194.754C185.867 224.56 206.717 236.638 232.546 221.735Z" fill="#404D57"/>
<path d="M232.547 146.887C242.47 141.163 250.498 145.772 250.498 157.256C250.162 163.487 248.361 169.551 245.242 174.955C242.123 180.36 237.774 184.953 232.547 188.362C222.624 194.086 214.56 189.44 214.56 177.993C214.903 171.76 216.71 165.695 219.836 160.29C222.961 154.886 227.316 150.294 232.547 146.887Z" fill="#5F7381"/>
<path d="M238.825 164.056C238.71 166.19 238.095 168.267 237.03 170.12C235.965 171.973 234.479 173.549 232.693 174.722C232.104 175.147 231.42 175.419 230.7 175.517C229.981 175.614 229.248 175.533 228.568 175.28C228.403 175.224 228.252 175.135 228.122 175.02C227.584 174.568 227.159 173.997 226.881 173.351C226.604 172.706 226.481 172.004 226.524 171.303C226.64 169.16 227.259 167.074 228.331 165.215C229.403 163.356 230.897 161.775 232.693 160.6C233.281 160.188 233.961 159.925 234.673 159.834C235.385 159.744 236.109 159.828 236.781 160.079L237.227 160.339C237.772 160.785 238.202 161.356 238.48 162.003C238.759 162.649 238.877 163.354 238.825 164.056Z" fill="#404D57"/>
<path d="M253.691 172.678C253.579 174.808 252.965 176.881 251.9 178.728C250.834 180.575 249.347 182.144 247.559 183.307C246.76 183.823 245.834 184.106 244.883 184.125C244.158 184.13 243.448 183.924 242.839 183.53L228.568 175.28C228.403 175.224 228.252 175.135 228.122 175.02C227.584 174.568 227.159 173.997 226.881 173.351C226.604 172.706 226.481 172.004 226.524 171.303C226.64 169.16 227.259 167.074 228.331 165.215C229.403 163.356 230.897 161.775 232.693 160.6C233.281 160.188 233.961 159.925 234.673 159.834C235.385 159.744 236.109 159.828 236.781 160.079L237.227 160.339L251.536 168.553C252.249 168.966 252.83 169.572 253.212 170.303C253.593 171.033 253.76 171.857 253.691 172.678Z" fill="#B9C5CC"/>
<path d="M253.693 172.604C253.584 174.744 252.971 176.829 251.906 178.688C250.841 180.548 249.352 182.131 247.561 183.307C246.966 183.72 246.28 183.982 245.562 184.073C244.844 184.164 244.114 184.079 243.435 183.828L242.989 183.567C242.447 183.12 242.019 182.549 241.741 181.903C241.463 181.256 241.343 180.553 241.391 179.851C241.513 177.714 242.135 175.636 243.207 173.784C244.278 171.931 245.77 170.356 247.561 169.185C248.15 168.76 248.834 168.488 249.554 168.39C250.273 168.293 251.005 168.375 251.686 168.627L252.132 168.888C252.666 169.341 253.085 169.914 253.356 170.559C253.627 171.205 253.743 171.905 253.693 172.604Z" fill="#D9E0E3"/>
</svg>
