<svg width="160" height="71" viewBox="0 0 160 71" fill="none" xmlns="http://www.w3.org/2000/svg">
<path d="M134.569 47.2574C146.955 47.2574 156.997 37.3105 156.997 25.0404C156.997 12.7703 146.955 2.82373 134.569 2.82373C122.182 2.82373 112.141 12.7703 112.141 25.0404C112.141 37.3105 122.182 47.2574 134.569 47.2574Z" stroke="#EA6153" stroke-width="5" stroke-linecap="round" stroke-linejoin="round"/>
<path d="M107.37 67.6098C119.756 67.6098 129.798 57.6629 129.798 45.3928C129.798 33.1227 119.756 23.1758 107.37 23.1758C94.9828 23.1758 84.9414 33.1227 84.9414 45.3928C84.9414 57.6629 94.9828 67.6098 107.37 67.6098Z" stroke="#2ECC71" stroke-width="5" stroke-linecap="round" stroke-linejoin="round"/>
<path d="M80.1586 47.1369C92.5453 47.1369 102.587 37.19 102.587 24.9199C102.587 12.6498 92.5453 2.70288 80.1586 2.70288C67.7719 2.70288 57.7305 12.6498 57.7305 24.9199C57.7305 37.19 67.7719 47.1369 80.1586 47.1369Z" stroke="#3B3C3D" stroke-width="5" stroke-linecap="round" stroke-linejoin="round"/>
<path d="M25.4281 47.1369C37.8148 47.1369 47.8562 37.19 47.8562 24.9199C47.8562 12.6498 37.8148 2.70288 25.4281 2.70288C13.0414 2.70288 3 12.6498 3 24.9199C3 37.19 13.0414 47.1369 25.4281 47.1369Z" stroke="#00A5EC" stroke-width="5" stroke-linecap="round" stroke-linejoin="round"/>
<path d="M115.066 14.0725C117.413 9.97803 121.011 6.72777 125.343 4.79058C129.675 2.8534 134.516 2.32949 139.168 3.29433C143.819 4.25917 148.041 6.66286 151.225 10.1588C154.408 13.6547 156.389 18.0623 156.88 22.7453C157.371 27.4283 156.348 32.1446 153.958 36.2143C151.568 40.284 147.935 43.4967 143.583 45.3885C139.231 47.2803 134.385 47.7536 129.744 46.7402C125.102 45.7268 120.906 43.279 117.76 39.7499" stroke="#EA6153" stroke-width="5" stroke-linecap="round" stroke-linejoin="round"/>
<path d="M52.9515 67.6098C65.3383 67.6098 75.3797 57.6629 75.3797 45.3928C75.3797 33.1227 65.3383 23.1758 52.9515 23.1758C40.5648 23.1758 30.5234 33.1227 30.5234 45.3928C30.5234 57.6629 40.5648 67.6098 52.9515 67.6098Z" stroke="#FFD632" stroke-width="5" stroke-linecap="round" stroke-linejoin="round"/>
<path d="M85.0382 46.6055C80.2554 47.6604 75.2555 47.1348 70.8028 45.1089C66.3501 43.083 62.6896 39.6684 60.3809 35.387" stroke="#3B3C3D" stroke-width="5" stroke-linecap="round" stroke-linejoin="round"/>
<path d="M124.836 59.3315C121.538 63.3877 116.906 66.1671 111.749 67.1841C106.593 68.2011 101.24 67.391 96.6245 64.8955C92.0095 62.4 88.426 58.3779 86.5002 53.5312C84.5743 48.6846 84.4284 43.3217 86.088 38.3794" stroke="#2ECC71" stroke-width="5" stroke-linecap="round" stroke-linejoin="round"/>
<path d="M44.2268 37.0427C42.2605 40.034 39.5956 42.5117 36.4578 44.2665C33.32 46.0213 29.8016 47.0014 26.2005 47.1237C22.5993 47.246 19.0214 46.507 15.7696 44.9692C12.5179 43.4314 9.68801 41.14 7.51953 38.2892" stroke="#00A5EC" stroke-width="5" stroke-linecap="round" stroke-linejoin="round"/>
</svg>
