<svg width="159" height="70" viewBox="0 0 159 70" fill="none" xmlns="http://www.w3.org/2000/svg">
<path d="M134.067 47.0548C146.454 47.0548 156.495 37.1079 156.495 24.8378C156.495 12.5677 146.454 2.62109 134.067 2.62109C121.68 2.62109 111.639 12.5677 111.639 24.8378C111.639 37.1079 121.68 47.0548 134.067 47.0548Z" stroke="#EA6153" stroke-width="5" stroke-linecap="round" stroke-linejoin="round"/>
<path d="M106.869 67.4066C119.255 67.4066 129.297 57.4597 129.297 45.1896C129.297 32.9196 119.255 22.9727 106.869 22.9727C94.4818 22.9727 84.4404 32.9196 84.4404 45.1896C84.4404 57.4597 94.4818 67.4066 106.869 67.4066Z" stroke="#2ECC71" stroke-width="5" stroke-linecap="round" stroke-linejoin="round"/>
<path d="M79.6576 46.934C92.0443 46.934 102.086 36.9871 102.086 24.717C102.086 12.4469 92.0443 2.5 79.6576 2.5C67.2709 2.5 57.2295 12.4469 57.2295 24.717C57.2295 36.9871 67.2709 46.934 79.6576 46.934Z" stroke="#3B3C3D" stroke-width="5" stroke-linecap="round" stroke-linejoin="round"/>
<path d="M24.9281 46.934C37.3148 46.934 47.3562 36.9871 47.3562 24.717C47.3562 12.4469 37.3148 2.5 24.9281 2.5C12.5414 2.5 2.5 12.4469 2.5 24.717C2.5 36.9871 12.5414 46.934 24.9281 46.934Z" stroke="#00A5EC" stroke-width="5" stroke-linecap="round" stroke-linejoin="round"/>
<path d="M114.566 13.8699C116.913 9.77539 120.511 6.52513 124.843 4.58795C129.175 2.65076 134.016 2.12685 138.668 3.09169C143.319 4.05654 147.541 6.46022 150.725 9.95616C153.908 13.4521 155.889 17.8596 156.38 22.5426C156.871 27.2257 155.848 31.942 153.458 36.0117C151.068 40.0814 147.435 43.2941 143.083 45.1859C138.731 47.0777 133.885 47.551 129.244 46.5376C124.602 45.5242 120.406 43.0763 117.26 39.5473" stroke="#EA6153" stroke-width="5" stroke-linecap="round" stroke-linejoin="round"/>
<path d="M52.4515 67.4066C64.8383 67.4066 74.8797 57.4597 74.8797 45.1896C74.8797 32.9196 64.8383 22.9727 52.4515 22.9727C40.0648 22.9727 30.0234 32.9196 30.0234 45.1896C30.0234 57.4597 40.0648 67.4066 52.4515 67.4066Z" stroke="#FFD632" stroke-width="5" stroke-linecap="round" stroke-linejoin="round"/>
<path d="M84.5382 46.4031C79.7554 47.458 74.7555 46.9324 70.3028 44.9065C65.8501 42.8806 62.1896 39.466 59.8809 35.1846" stroke="#3B3C3D" stroke-width="5" stroke-linecap="round" stroke-linejoin="round"/>
<path d="M124.335 59.1289C121.037 63.185 116.405 65.9644 111.248 66.9814C106.092 67.9984 100.739 67.1883 96.1235 64.6929C91.5085 62.1974 87.925 58.1752 85.9992 53.3286C84.0734 48.482 83.9274 43.1191 85.587 38.1768" stroke="#2ECC71" stroke-width="5" stroke-linecap="round" stroke-linejoin="round"/>
<path d="M43.7268 36.8398C41.7605 39.8311 39.0956 42.3089 35.9578 44.0636C32.82 45.8184 29.3016 46.7985 25.7005 46.9208C22.0993 47.0431 18.5214 46.3041 15.2696 44.7664C12.0179 43.2286 9.18801 40.9371 7.01953 38.0863" stroke="#00A5EC" stroke-width="5" stroke-linecap="round" stroke-linejoin="round"/>
</svg>
