<svg width="408" height="364" viewBox="0 0 408 364" fill="none" xmlns="http://www.w3.org/2000/svg">
<path d="M306.735 273.085C361.348 273.085 405.621 228.812 405.621 174.199C405.621 119.585 361.348 75.3123 306.735 75.3123C252.122 75.3123 207.849 119.585 207.849 174.199C207.849 228.812 252.122 273.085 306.735 273.085Z" fill="white"/>
<mask id="mask0_154_1594" style="mask-type:luminance" maskUnits="userSpaceOnUse" x="205" y="72" width="203" height="204">
<path d="M306.713 275.497C286.681 275.497 267.098 269.557 250.442 258.427C233.785 247.298 220.803 231.479 213.137 212.971C205.471 194.463 203.465 174.098 207.373 154.45C211.281 134.803 220.928 116.755 235.093 102.59C249.258 88.425 267.306 78.7785 286.953 74.8703C306.601 70.9621 326.966 72.968 345.474 80.6341C363.982 88.3002 379.8 101.282 390.93 117.939C402.059 134.595 408 154.178 408 174.211C407.962 201.062 397.278 226.802 378.291 245.789C359.305 264.775 333.564 275.459 306.713 275.497ZM306.713 77.7244C287.63 77.7244 268.975 83.3832 253.108 93.9852C237.241 104.587 224.874 119.656 217.572 137.287C210.269 154.917 208.358 174.318 212.081 193.034C215.804 211.75 224.993 228.943 238.487 242.436C251.981 255.93 269.173 265.12 287.89 268.843C306.606 272.566 326.006 270.655 343.637 263.352C361.267 256.049 376.336 243.682 386.938 227.815C397.541 211.948 403.199 193.294 403.199 174.211C403.174 148.629 393 124.102 374.911 106.013C356.822 87.9234 332.295 77.7498 306.713 77.7244Z" fill="white"/>
</mask>
<g mask="url(#mask0_154_1594)">
</g>
<path d="M321.908 125.251L319.076 169.461L272.945 181.798L251.104 146.612L278.657 110.994L321.908 125.251ZM387.528 180.214L351.862 195.863C351.862 195.863 342.837 229.177 340.965 237.242C350.469 240.894 360.357 243.455 370.439 244.874C370.439 244.874 389.928 224.425 394.681 210.648C394.681 210.84 391.368 187.511 387.528 180.214ZM301.987 251.499C301.987 251.499 272.465 229.657 265.36 222.697C265.36 222.697 240.159 226.969 233.486 226.969C236.574 237.113 241.452 246.623 247.887 255.051C260.032 263.388 274.115 268.462 288.786 269.788L301.987 251.499ZM273.905 87.4722C283.602 82.1652 293.9 78.0395 304.579 75.1835C286.565 75.5305 268.995 80.8282 253.792 90.4965C260.356 88.7363 267.11 87.7852 273.905 87.6643V87.4722ZM386.568 140.276L396.457 132.451C387.785 113.82 373.546 98.3389 355.702 88.1444L347.59 86.9923C347.59 86.9923 356.182 106.193 354.742 112.194C366.451 120.303 377.137 129.796 386.568 140.468V140.276ZM209.725 193.415C211.16 193.595 212.617 193.464 213.997 193.031C213.875 179.344 216.47 165.77 221.63 153.092C219.871 145.499 218.716 137.778 218.173 130.003C211.337 143.668 207.786 158.742 207.805 174.022C207.796 180.598 208.439 187.158 209.725 193.607V193.415Z" fill="#263238"/>
<path d="M289.842 272.232H288.546C273.399 270.905 258.858 265.661 246.351 257.015L245.919 256.631C239.297 248.006 234.303 238.246 231.182 227.829L230.318 224.757H233.486C239.871 224.757 264.688 220.581 264.976 220.533L266.176 220.293L267.04 221.205C273.953 228.117 303.091 249.767 303.379 250.007L305.299 251.447L289.842 272.232ZM249.423 253.271C260.778 260.979 273.847 265.792 287.49 267.288L298.626 252.215C292.194 247.415 271.745 232.006 264.544 225.285C260.128 226.005 244.767 228.502 236.75 229.222C239.629 237.878 243.91 246.003 249.423 253.271ZM371.399 247.511H370.295C359.968 246.07 349.839 243.461 340.101 239.734L338.133 238.966L338.613 236.95C340.485 228.886 349.173 196.867 349.557 195.475L349.846 194.371L388.632 177.33L389.64 179.298C393.624 186.739 396.888 209.54 397.032 210.5V211.076V211.652C392.232 225.765 373.031 245.879 372.263 246.743L371.399 247.511ZM343.797 235.894C352.084 239.011 360.676 241.247 369.431 242.566C372.983 238.726 387.912 222.165 392.232 210.548C390.976 201.399 389.002 192.362 386.328 183.523L353.878 197.924C352.438 203.204 346.101 226.629 343.797 235.894ZM211.021 196.051H209.437H207.709L207.372 194.371C206.072 187.827 205.413 181.171 205.404 174.498C205.384 158.852 209.017 143.418 216.013 129.423L219.757 121.839L220.525 130.287C221.116 137.896 222.255 145.452 223.934 152.897V153.713L223.598 154.529C218.597 166.878 216.069 180.088 216.157 193.411V195.139L214.525 195.763C213.374 196.011 212.196 196.108 211.021 196.051ZM216.733 139.36C212.398 150.467 210.184 162.287 210.205 174.21C210.221 179.518 210.67 184.816 211.549 190.051C211.856 177.397 214.407 164.898 219.085 153.137C218.011 148.599 217.225 143.997 216.733 139.36ZM271.841 184.579L248.175 146.608L277.793 108.206L324.452 123.567L321.38 171.57L271.841 184.579ZM254.031 146.608L274.049 178.818L316.771 167.394L319.412 126.735L279.521 113.582L254.031 146.608ZM386.184 143.632L384.696 141.76C375.38 131.348 364.857 122.082 353.35 114.158L352.054 113.246L352.39 111.662C353.302 107.726 348.597 95.053 345.429 87.9966L343.653 84.0124L356.902 86.0285C375.209 96.4367 389.796 112.317 398.617 131.439L399.433 133.167L386.184 143.632ZM357.382 111.038C368.178 118.563 378.125 127.239 387.048 136.912L393.576 131.775C385.177 114.482 371.805 100.09 355.174 90.4448L351.718 89.9647C354.749 96.6924 356.631 103.88 357.286 111.23L357.382 111.038ZM239.583 96.6371L252.591 88.3806C268.172 78.4828 286.172 73.0532 304.627 72.6837L324.74 72.2516L305.539 77.3879C295.064 80.2201 284.962 84.2805 275.441 89.4847L274.913 89.7727H274.241C267.648 89.9386 261.102 90.9222 254.752 92.7009L239.583 96.6371ZM282.017 80.7002C277.51 81.8719 273.098 83.3803 268.816 85.2125C270.4 85.2125 271.937 85.2125 273.617 84.9724C275.297 84.7324 277.553 82.9563 281.921 80.9882L282.017 80.7002Z" fill="#263238"/>
<path d="M276.283 87.1568L271.58 88.1171L276.334 111.398L281.037 110.438L276.283 87.1568Z" fill="#263238"/>
<path d="M353.822 110.25L321.006 123.078L322.753 127.549L355.57 114.721L353.822 110.25Z" fill="#263238"/>
<path d="M389.923 180.551L385.123 180.215C385.94 167.06 385.635 153.859 384.211 140.756L389.011 140.132C390.506 153.552 390.812 167.077 389.923 180.551Z" fill="#263238"/>
<path d="M320.61 167.514L317.585 171.241L350.386 197.86L353.411 194.132L320.61 167.514Z" fill="#263238"/>
<path d="M270.583 181.381L262.993 222.253L267.713 223.129L275.303 182.257L270.583 181.381Z" fill="#263238"/>
<path d="M302.613 253.993L301.316 249.193C314.469 245.449 335.495 238.632 339.431 235.416L342.503 239.112C336.551 244.201 306.069 253.033 302.613 253.993Z" fill="#263238"/>
<path d="M250.621 144.272L221.125 150.947L222.184 155.628L251.681 148.954L250.621 144.272Z" fill="#263238"/>
<path d="M231.709 228.598C222.945 218.413 216.172 206.673 211.74 193.988L216.541 192.5C220.874 204.544 227.383 215.689 235.742 225.382L231.709 228.598Z" fill="#263238"/>
<path d="M366.911 303.921L384.817 282.413C384.817 282.413 316.63 237.63 289.207 213.84C261.785 190.051 236.998 138.131 229.765 124.821C222.531 111.512 206.778 24.2603 122.067 4.07097C50.2792 -13.0642 19.7058 29.4362 19.7058 29.4362C-26.3631 96.9482 18.5485 148.386 50.7292 174.748C82.91 201.11 124.317 205.064 158.298 206.253C198.388 207.668 252.815 220.72 269.983 228.95C282.617 234.994 366.911 303.921 366.911 303.921ZM206.746 164.557C206.746 164.557 161.738 230.943 63.3636 168.511C25.2997 144.399 13.6298 115.016 10.9936 92.0294C9.16135 74.7668 13.4133 57.4061 23.0156 42.944C32.6179 28.4819 46.9679 17.826 63.5887 12.8154C88.7289 5.06758 122.067 4.07097 168.747 38.9843C168.747 38.9843 240.213 100.581 206.746 164.557ZM196.684 203.135C193.469 202.17 182.313 200.724 198.902 187.511C218.191 172.079 219.541 159.67 221.92 152.147C222.519 149.963 223.546 147.919 224.942 146.136C225.259 145.754 225.651 145.442 226.094 145.219C226.537 144.997 227.021 144.867 227.515 144.84C228.01 144.813 228.506 144.888 228.97 145.062C229.435 145.235 229.858 145.502 230.215 145.846C241.049 156.198 273.583 208.118 269.275 214.323C264.517 221.202 201.635 204.549 196.684 203.071V203.135Z" fill="#009E3D"/>
<path d="M215.625 126.332L214.564 127.65C211.092 124.757 207.438 121.746 203.602 118.617L212.732 106.979C212.732 106.625 212.507 106.304 212.442 105.982L201.64 97.1413L206.816 90.5509L206.624 90.1651C205.016 92.2227 203.216 94.4409 201.287 96.8842L190.26 87.8183L199.294 76.2448L198.201 74.4124L188.363 66.343L190.646 63.3853V63.1604C189.906 64.0605 189.103 65.0571 188.267 66.1501L177.111 56.9878L181.258 51.6511L177.015 56.9556L169.846 51.0725L165.859 47.8576L171.067 41.1386L165.763 47.7933L154.318 38.3095L159.108 32.1369L154.253 38.213L143.098 29.0828L146.666 24.5177H146.473L142.712 28.6649L131.557 19.6633L133.1 17.7022H132.81L131.299 19.599L125.416 14.7445L123.744 14.1659L130.914 19.9526L121.751 31.494L110.724 22.4602L118.569 12.3977H118.215L110.338 22.2352L99.3115 13.2014L102.526 9.11854H102.012C101.048 10.3723 100.019 11.6583 98.9579 12.9764L93.5569 8.57202H92.6889L98.765 13.2979C95.9359 16.8342 92.8818 20.7242 89.5705 24.9035L78.4471 15.8055L84.1052 8.60415H83.398L78.0292 15.3875L71.9209 10.4366H71.3423C73.3676 12.1084 75.5216 13.8444 77.772 15.6769L68.5453 27.3147L59.7366 20.1455C62.0192 17.22 64.2053 14.4231 66.3592 11.7226L65.3948 11.9798L59.2544 19.7597L54.6571 15.9983L54.2392 16.1912L58.9651 20.1134L49.7384 31.8154L40.5118 24.2927C40.3912 24.3601 40.2825 24.447 40.1903 24.5499L49.4491 32.1691C46.4593 35.9948 43.373 39.8848 40.1903 43.9033L29.0669 35.0946L28.8418 35.3839L39.8367 44.7392L30.7708 56.2483L30.61 56.4413L20.0974 47.8897L19.9045 48.2112L30.3207 56.8271L21.094 68.5291L13.7963 62.5816C13.7823 62.7206 13.7823 62.8606 13.7963 62.9996L20.9333 68.9149L11.7066 80.617L10.7743 79.8776V80.4562L11.4173 81.0028L10.7422 81.8708C10.7422 82.2244 10.7422 82.5781 10.7422 82.9317L11.9317 81.4207L20.7083 88.622C17.7827 92.2869 14.9858 95.8876 12.2532 99.3275C12.2532 99.5847 12.2532 99.874 12.4139 100.131L21.1905 89.0077L32.0567 97.9772L22.8944 109.615L12.6068 101.192C12.6068 101.481 12.7676 101.771 12.8319 102.06L22.4764 110.065L17.3326 116.656C17.4049 116.854 17.4908 117.047 17.5898 117.234L22.9586 110.451L33.857 119.42L24.7268 131.026L25.8199 132.73L35.8502 140.96L33.8892 143.467L34.2428 143.885L36.2682 141.314L47.2308 150.315L44.1124 153.851L44.4982 154.237L47.5202 150.412L58.4507 159.381L55.5573 163.11L55.9752 163.432L58.9008 159.735L68.1596 167.354L69.8313 168.736L67.8702 171.244L68.3525 171.533C68.9954 170.729 69.6062 169.894 70.2814 169.09L81.2119 178.059L80.8582 178.542L81.3726 178.799L81.662 178.413L83.3015 179.763L85.9056 181.049L82.0799 177.834L91.2101 166.293L101.98 175.295L94.425 184.939L94.9715 185.164L102.462 175.68C106.17 178.724 109.803 181.703 113.36 184.618L109.02 190.179L109.631 190.34L113.843 185.036L124.484 193.812L125.673 194.005L134.836 182.399L145.702 191.305L142.487 195.387H143.291L146.184 191.723L150.171 194.937H150.942C149.495 193.748 148.017 192.558 146.538 191.305L155.7 179.699L166.599 188.572L163.384 192.783L164.445 192.526C165.345 191.337 166.277 190.179 167.209 188.99L169.588 190.951L170.167 190.758L167.531 188.604C169.524 186.032 171.582 183.46 173.639 180.824L176.854 176.934L185.277 183.814L185.695 183.557L177.175 176.516C180.305 172.53 183.369 168.64 186.37 164.846C190.517 168.222 194.407 171.437 198.072 174.491L198.426 174.201L186.691 164.557C189.842 160.549 192.907 156.659 195.886 152.887L207.974 162.757L208.167 162.339L196.207 152.469L205.37 140.799L213.632 147.518C213.632 147.357 213.632 147.197 213.632 147.004L205.563 140.381L214.661 128.326L215.689 129.193V128.486L214.982 127.908L215.657 127.072C215.634 126.826 215.623 126.579 215.625 126.332ZM212.41 106.689L203.216 118.295L192.253 109.261L201.351 97.6557L212.41 106.689ZM62.8229 83.3175L73.657 92.2548L73.0461 92.9621L64.4625 103.828L53.757 95.0196L62.63 83.7676L62.8229 83.3175ZM85.9699 101.514L95.0679 89.9401L105.934 98.8452L96.8361 110.419L85.9699 101.514ZM96.4182 110.933C96.0324 111.383 95.6787 111.865 95.3251 112.315L87.3201 122.474L76.4217 113.569L84.7482 103.057L85.5519 102.028L96.4182 110.933ZM129.21 97.2057L127.699 96.1769L136.765 84.6356L138.854 86.3073L147.695 93.5729L138.565 105.114L129.21 97.2057ZM138.211 105.468L129.113 117.009L119.083 109.036L118.247 108.329L127.345 96.7877L128.792 97.9772C131.974 100.421 135.125 102.992 138.211 105.564V105.468ZM127.249 95.5983L116.382 86.661L125.48 75.0875L136.379 84.0569L127.249 95.5983ZM126.831 96.1127L117.733 107.75L106.866 98.8452L115.964 87.2718L126.831 96.1127ZM106.352 98.3309L95.5501 89.5221C98.765 85.5679 101.691 81.6779 104.648 77.9486L115.547 86.8859L106.352 98.3309ZM94.9715 89.0077L84.1052 80.1026L93.2033 68.5291L104.102 77.4664L94.9715 89.0077ZM94.5535 89.5221L85.4555 101.063L74.5893 92.1583L83.6873 80.5848L94.5535 89.5221ZM106.449 99.1667L117.315 108.104L108.217 119.645L97.3505 110.74L106.449 99.1667ZM117.829 108.522L118.665 109.197L128.695 117.427L119.565 129.001C116.093 126.107 112.557 123.214 108.988 120.288L108.731 120.063L117.829 108.522ZM129.21 117.845L140.076 126.782L130.914 138.517L120.08 129.611L129.21 117.845ZM129.628 117.331L138.726 105.757L149.592 114.695L140.558 126.429L129.628 117.331ZM150.106 115.08C153.814 118.145 157.447 121.124 161.005 124.018L151.842 135.591L140.976 126.654L150.106 115.08ZM150.492 114.566C153.707 110.579 156.697 106.722 159.59 102.992L170.521 111.962L161.39 123.535L150.492 114.566ZM150.01 114.18L139.144 105.243L148.21 93.6693L159.14 102.639L150.01 114.18ZM148.627 93.1549C151.842 89.0721 154.864 85.2142 157.725 81.5814L168.688 90.5509L159.558 102.092L148.627 93.1549ZM148.177 92.7692L139.337 85.5036L137.247 83.7997L146.345 72.2262L149.013 74.4444L157.308 81.2278L148.177 92.7692ZM136.797 83.4139L125.866 74.4766L134.964 62.9031L145.927 71.8726L136.797 83.4139ZM125.416 74.0909L114.486 65.1214L123.584 53.5479L134.546 62.5495L125.416 74.0909ZM124.998 74.6052L115.868 86.1466L105.002 77.2414C108.217 73.2228 111.174 69.365 114.1 65.6358L124.998 74.6052ZM104.487 76.8235L93.6212 67.8862L102.719 56.3127L113.618 65.2822L104.487 76.8235ZM93.1069 67.5003L82.2085 58.563L91.3387 46.9574L102.269 55.9269C99.3115 59.8169 96.2574 63.7069 93.1069 67.6933V67.5003ZM92.7211 67.9826L83.5909 79.5561L72.6925 70.6509C75.9074 66.6967 78.865 62.8067 81.8549 59.0453L92.7211 67.9826ZM72.2103 70.233L61.3119 61.3279C64.5268 57.3414 67.5166 53.4836 70.4743 49.6901L81.3405 58.6274L72.2103 70.233ZM71.8245 70.7152L62.6621 82.3209L51.7959 73.6729L60.9583 62.0351L71.8245 70.7152ZM72.3389 71.1331L83.1729 80.0704L74.0428 91.644L63.1765 82.7388L72.3389 71.1331ZM73.6248 93.2514L74.1713 92.5763L85.0376 101.481L84.2017 102.542L75.9074 113.055L65.0411 104.15L73.6248 93.2514ZM75.5216 113.569L66.4235 125.143L55.5252 116.238L64.6554 104.664L75.5216 113.569ZM76.036 113.987L86.9022 122.925C83.6873 126.847 80.7618 130.737 77.8041 134.466L66.9058 125.561L76.036 113.987ZM87.4166 123.343L98.2828 132.248C95.0679 136.202 92.1102 140.06 89.1847 143.821L88.7347 143.467L78.2864 134.884L87.4166 123.343ZM87.8345 122.828C90.4385 119.613 93.1069 116.077 95.8395 112.637L96.9325 111.255L107.799 120.16L106.416 121.928L98.765 131.926L87.8345 122.828ZM106.931 122.346L108.313 120.61L108.538 120.803L119.179 129.515L117.508 131.605C115 134.819 112.492 138.034 110.049 141.056L99.1829 132.151C101.755 129.129 104.327 125.85 106.931 122.539V122.346ZM118.022 131.99L119.694 129.901L130.56 138.806L128.599 141.281L121.43 150.379L110.564 141.474L118.022 131.99ZM129.145 141.635L131.074 139.16L141.941 148.065L139.722 150.894L132.81 159.67L121.944 150.733C124.484 148.033 126.702 144.979 129.145 141.924V141.635ZM131.46 138.645L140.558 127.393L151.424 136.298L142.294 147.872L131.46 138.645ZM151.971 136.427L162.837 145.332L153.707 157.259L142.841 148.322L151.971 136.427ZM152.357 135.913L161.487 124.339L172.385 133.244L163.223 144.85L152.357 135.913ZM162.001 123.825L171.099 112.251L182.03 121.189L172.707 133.051L162.001 123.825ZM171.646 111.737L180.744 100.131L191.707 109.133L182.351 120.996L171.646 111.737ZM171.196 111.351L160.008 102.607L169.106 91.0331L180.069 100.035L171.196 111.351ZM169.492 90.5831L178.59 78.9774L189.617 88.0433L180.455 99.5847L169.492 90.5831ZM169.106 90.2294L158.143 81.2278L167.209 69.6543L178.236 78.6881L169.106 90.2294ZM157.725 80.9063L149.463 74.123L146.763 71.9048L155.829 60.2991L159.044 63.0317L166.759 69.4614C164.037 72.8906 161.026 76.7056 157.725 80.9063ZM146.345 71.5511L135.382 62.5495C138.597 58.4024 141.812 54.5124 144.448 50.976L155.475 60.0098L146.345 71.5511ZM134.964 62.228L124.002 53.2265L133.068 41.5243L144.094 50.5902C141.298 54.3838 138.243 58.0487 134.964 62.228ZM123.584 52.8728L112.621 43.9033C115.836 39.724 119.051 35.834 121.719 32.2977L132.714 41.3314L123.584 52.8728ZM123.166 53.3872L114.036 64.9607L103.105 55.9912L112.235 44.3855L123.166 53.3872ZM102.655 55.6054L91.7245 46.6681L100.855 35.0946L111.785 44.0962L102.655 55.6054ZM91.2744 46.2823L80.3439 37.345L89.4741 25.7072L100.437 34.7088L91.2744 46.2823ZM90.8886 46.7646L81.7263 58.3701L70.8279 49.4328L79.9902 37.7951L90.8886 46.7646ZM70.3457 49.0471L59.4473 40.1098C62.6621 36.0912 65.6841 32.2012 68.6096 28.4398L79.4759 37.4093L70.3457 49.0471ZM69.992 49.465C67.0129 53.2586 63.9481 57.1378 60.7975 61.1028L49.9313 52.1977L59.1258 40.5277C62.5657 43.3568 66.1985 46.3788 69.992 49.465ZM60.3474 61.5529L51.1851 73.1907L40.3189 64.2855L49.5134 52.6156L60.3474 61.5529ZM50.7029 73.6407L41.5727 85.2464L30.6743 76.3412L39.9009 64.6713L50.7029 73.6407ZM51.2173 74.0909L62.0835 83.0282L61.7941 83.3817L52.9211 94.6337L42.0549 85.7286L51.2173 74.0909ZM52.5353 95.0839L43.4051 106.689L32.5389 97.7522C35.4966 93.9908 38.5507 90.1008 41.7013 86.1466L52.5353 95.0839ZM53.0497 95.5018L63.9159 104.407C60.7011 108.393 57.7756 112.251 54.7857 116.013L44.1124 107.075L53.0497 95.5018ZM54.4 116.495C51.1851 120.513 48.2274 124.371 45.3019 128.1L34.4678 119.163L43.6302 107.558L54.4 116.495ZM54.9143 116.913L65.7806 125.85L56.9718 137.424L46.0413 128.486L54.9143 116.913ZM66.6164 126.268L77.5148 135.205L68.4167 146.779L57.3898 137.97L66.6164 126.268ZM77.997 135.623L88.4453 144.175L88.8954 144.528L79.7973 156.102L78.7364 155.234L68.899 147.165L77.997 135.623ZM89.3776 144.946L100.147 154.044C96.9325 157.999 93.9749 161.889 91.0493 165.618L80.151 156.648L89.3776 144.946ZM89.7955 144.432L98.9257 132.858C102.591 135.88 106.191 138.87 109.792 141.796L100.662 153.337L89.7955 144.432ZM110.306 142.214L121.173 151.119L112.042 162.692L101.176 153.755L110.306 142.214ZM121.687 151.537L132.425 160.474C129.317 164.439 126.273 168.308 123.294 172.08L112.428 163.142L121.687 151.537ZM133.068 160.86C136.765 163.914 140.397 166.904 143.934 169.765L134.804 181.403L123.937 172.466C126.809 168.758 129.81 164.889 132.939 160.86H133.068ZM133.453 160.378L140.365 151.601L142.584 148.804L153.418 157.709L150.91 160.924C148.66 163.753 146.441 166.55 144.287 169.347L133.453 160.378ZM151.457 161.31L153.964 158.095L164.702 166.904L161.905 170.44L155.475 178.509L144.641 169.604L151.457 161.31ZM154.35 157.645L163.48 146.039L174.378 154.945L165.184 166.582L154.35 157.645ZM163.994 145.557L173.125 133.952L184.023 142.857L174.861 154.494L163.994 145.557ZM173.639 133.469L182.351 121.896L193.282 130.833L184.087 142.439L173.639 133.469ZM183.284 121.381L191.996 109.744C195.768 112.851 199.433 115.852 202.991 118.745L193.796 130.351L183.284 121.381ZM201.544 97.3664L191.996 109.036L181.033 100.003L190.131 88.3969L201.544 97.3664ZM199.744 75.9876L190.581 87.5289L179.136 78.463C182.641 73.9622 185.566 70.0723 188.17 66.8574L199.744 75.9876ZM188.363 66.6645L179.201 78.1737L168.174 69.1399C171.678 64.6391 174.604 60.7492 177.208 57.5344L188.363 66.6645ZM169.813 51.4582L176.983 57.3093L167.82 68.8506L160.105 62.4209L156.89 59.6883L165.956 48.0827L169.813 51.4582ZM165.055 47.954L155.893 59.4632L144.866 50.4294L153.932 38.8239L165.055 47.954ZM153.675 38.5988L144.512 50.1401L133.485 41.0742L142.551 29.4686L153.675 38.5988ZM131.171 20.1455L142.294 29.2757L133.132 40.7849L122.105 31.8797L131.171 20.1455ZM121.269 31.8797L112.107 43.4533L101.112 34.4838L110.242 22.846L121.269 31.8797ZM98.765 13.4908L109.76 22.5567L100.565 34.1301L89.6027 25.1607C93.1069 21.0778 96.161 17.1557 98.99 13.5872L98.765 13.4908ZM77.9006 16.2234L89.1204 25.45L79.9259 37.0557L68.9954 28.1184C72.146 23.9391 75.2322 20.0491 78.1256 16.3198L77.9006 16.2234ZM59.158 20.7242L67.9345 27.9576L58.7079 39.6276C55.493 37.12 52.7282 34.7088 49.9313 32.4584L59.158 20.7242ZM49.5134 32.812L58.2578 40.0133L49.0633 51.6833L40.6404 44.7392L49.5134 32.812ZM31.253 56.5056L40.2867 44.9964L49.0311 52.1977L39.9009 64.0283L31.253 56.7306V56.5056ZM30.7708 57.0842L39.5152 64.2855C36.3646 68.2505 33.2998 72.1405 30.3207 75.9554L21.6084 68.7864L30.7708 57.0842ZM11.9638 80.8742L21.1905 69.1721L29.9028 76.3734L20.7404 88.0433L11.9638 80.8742ZM21.2226 88.4613L30.5457 76.8878L41.4119 85.8251C38.1971 89.7793 35.2073 93.6693 32.2496 97.4628L21.2226 88.4613ZM23.0872 109.84L32.2496 98.2023L43.148 107.172L34.1464 118.681L23.0872 109.84ZM24.9197 131.219L34.0821 119.645C37.6398 122.539 41.2726 125.529 44.9804 128.615L35.8824 140.188L24.9197 131.219ZM36.3325 140.542L45.4627 129.001L56.4896 137.97L47.3273 149.544L36.3325 140.542ZM47.7131 149.897L56.8433 138.324L67.7416 147.293L58.6436 158.867L47.7131 149.897ZM68.481 166.904L59.2223 159.285L68.3525 147.615L78.1899 155.684L79.2508 156.552L70.1528 168.125L68.481 166.904ZM81.5334 177.609L70.6029 168.608L79.7331 157.066L90.6314 166.036L81.5334 177.609ZM91.4994 165.907C94.4571 162.178 97.5005 158.32 100.63 154.334L111.624 163.207L102.494 174.78L91.4994 165.907ZM102.88 175.23C105.838 171.533 108.892 167.643 112.01 163.689L122.909 172.594L113.778 184.2L102.88 175.23ZM125.159 193.555L114.261 184.586C117.218 180.856 120.262 176.998 123.391 173.012L134.289 181.917C131.139 185.872 128.085 189.729 125.159 193.491V193.555ZM146.023 190.79L135.157 181.853L144.32 170.279L155.186 179.152C152.078 183.096 149.024 186.954 146.023 190.726V190.79ZM172.996 180.342L166.92 188.09C163.448 185.228 159.847 182.239 156.054 179.152L162.483 171.051L165.248 167.515L176.147 176.42L172.996 180.342ZM176.436 176.002C172.964 173.141 169.363 170.151 165.57 167.065L174.732 155.427L185.566 164.268L176.436 176.002ZM186.081 163.914C182.609 161.053 179.008 158.063 175.214 154.977L184.377 143.339L195.211 152.18C192.189 155.973 189.103 159.863 185.952 163.85L186.081 163.914ZM195.725 151.826L184.827 142.889L193.989 131.251L204.92 140.188L195.725 151.826ZM205.37 139.77C201.898 136.909 198.265 133.887 194.471 130.801L203.602 119.131L214.596 128.133L205.37 139.77Z" fill="#263238"/>
<path d="M322.248 267.947L337.712 250.426L384.809 282.414L366.902 303.922L322.248 267.947Z" fill="#455A64"/>
<path d="M155.536 363.251C207.011 363.251 248.739 321.522 248.739 270.047C248.739 218.573 207.011 176.844 155.536 176.844C104.061 176.844 62.333 218.573 62.333 270.047C62.333 321.522 104.061 363.251 155.536 363.251Z" fill="#EEAA38"/>
<path opacity="0.15" d="M237.03 224.824C236.311 223.53 235.496 222.283 234.681 221.037C220.49 219.641 206.205 222.494 193.641 229.235C175.518 238.489 159.265 254.789 154.327 268.453C140.89 269.668 127.379 267.129 115.3 261.118C121.485 240.31 144.738 215.523 172.545 200.373C181.644 195.411 191.301 191.548 201.312 188.866C199.873 188.051 198.339 187.284 196.853 186.565C187.877 189.247 179.202 192.846 170.963 197.305C142.628 212.743 118.848 238.105 112.184 259.632C109.077 258.078 106.053 256.366 103.122 254.502C96.7836 250.441 91.0668 245.483 86.1502 239.783C92.2391 221.996 111.561 197.496 139.464 178.319C136.539 178.846 133.711 179.469 130.882 180.237C106.91 198.311 90.1296 219.886 83.6571 236.571C80.3524 232.175 77.6888 227.332 75.7463 222.188C75.0272 223.434 74.2122 224.633 73.5409 225.879C79.4262 238.935 89.0755 249.937 101.253 257.474C115.13 266.56 131.189 271.758 147.758 272.529C150.136 272.542 152.51 272.349 154.854 271.953C162.641 282.929 167.192 295.868 167.991 309.302C146.895 314.384 113.766 306.665 86.7735 290.124C77.9299 284.731 69.7685 278.292 62.4658 270.947C62.4658 272.625 62.4658 274.303 62.7056 275.981C69.5071 282.414 76.963 288.119 84.9516 293.001C105.689 305.974 129.453 313.312 153.895 314.288C158.736 314.287 163.56 313.74 168.278 312.658C168.47 316.155 168.47 319.66 168.278 323.158C167.92 330.676 166.483 338.103 164.011 345.212C145.553 348.856 114.629 344.349 83.9927 329.726C85.8146 331.883 87.7323 333.993 89.746 336.007C108.939 344.517 129.601 349.223 150.587 349.862C154.584 349.873 158.576 349.568 162.525 348.951C160.353 354.051 157.463 358.814 153.943 363.095H155.477H158.354C166.644 351.496 171.3 337.696 171.73 323.445C172.785 303.117 166.936 280.871 157.347 269.796C162.98 257.558 171.912 247.132 183.141 239.687C198.099 255.413 207.928 287.967 207.113 319.658C206.866 329.977 205.385 340.23 202.702 350.198C204.14 349.335 205.579 348.52 206.921 347.609C209.12 338.463 210.341 329.11 210.565 319.706C211.38 287.487 201.312 254.214 186.018 237.673C188.897 235.737 191.891 233.976 194.983 232.4C201.67 228.938 208.824 226.467 216.222 225.064C228.544 239.208 240.194 268.214 242.783 301.775C243.79 298.994 244.653 296.213 245.372 293.384C241.729 263.611 231.421 238.201 220.25 224.297C225.839 223.663 231.491 223.841 237.03 224.824Z" fill="black"/>
</svg>
