<svg width="280" height="229" viewBox="0 0 280 229" fill="none" xmlns="http://www.w3.org/2000/svg">
<path d="M120.718 35.8381C113.731 13.0562 85.2996 -5.78621 58.6898 1.64671C54.4987 2.82304 50.4766 4.53428 46.7228 6.73823C20.8934 21.6041 0.00688512 57.8395 0.00688512 87.6455C-0.078099 92.6789 0.624104 97.6947 2.08809 102.511C9.03787 125.293 37.506 144.024 64.1158 136.554C68.3069 135.378 72.3289 133.667 76.0828 131.463C101.875 116.597 122.799 80.3241 122.799 50.5181C122.858 45.5473 122.156 40.5966 120.718 35.8381Z" fill="#455A64"/>
<path d="M76.0479 131.426C101.84 116.56 122.764 80.2872 122.764 50.4812C122.764 20.6752 101.84 8.59673 76.0479 23.4626C50.2557 38.3284 29.332 74.5638 29.332 104.37C29.332 134.176 50.2557 146.329 76.0479 131.426Z" fill="#37474F"/>
<path d="M76.0482 56.5384C85.9712 50.8151 93.9987 55.4607 93.9987 66.9446C93.6624 73.1756 91.8618 79.2395 88.7429 84.6443C85.624 90.049 81.2749 94.6424 76.0482 98.0513C66.1253 103.775 58.0977 99.1291 58.0977 87.6824C58.434 81.4463 60.2345 75.3771 63.3531 69.9664C66.4717 64.5556 70.8208 59.9555 76.0482 56.5384Z" fill="#455A64"/>
<path d="M82.1749 73.746C82.0628 75.8806 81.4491 77.9588 80.3837 79.812C79.3183 81.6651 77.8311 83.2412 76.0428 84.4122C75.4537 84.8365 74.7693 85.1094 74.0498 85.2067C73.3304 85.3039 72.598 85.2224 71.9175 84.9696L71.4715 84.7095C70.9333 84.258 70.5085 83.6866 70.2309 83.0412C69.9534 82.3958 69.831 81.6943 69.8735 80.9931C69.9984 78.8572 70.6214 76.7801 71.6927 74.928C72.7639 73.0759 74.2537 71.5002 76.0428 70.3268C76.6337 69.9055 77.3199 69.6375 78.0398 69.5467C78.7598 69.4559 79.491 69.5452 80.168 69.8065L80.614 70.0295C81.1477 70.4829 81.5671 71.0556 81.8383 71.7013C82.1095 72.3469 82.2248 73.0474 82.1749 73.746Z" fill="#37474F"/>
<path d="M180.884 130.719C180.769 132.853 180.154 134.93 179.089 136.783C178.024 138.636 176.538 140.212 174.752 141.386C173.953 141.901 173.027 142.184 172.076 142.203C171.354 142.189 170.649 141.984 170.032 141.609L71.9175 84.9696L71.4715 84.7096C70.9333 84.258 70.5085 83.6866 70.2309 83.0412C69.9534 82.3958 69.831 81.6943 69.8735 80.9931C69.9984 78.8572 70.6214 76.7801 71.6927 74.928C72.7639 73.0759 74.2537 71.5002 76.0428 70.3268C76.6337 69.9055 77.3199 69.6375 78.0398 69.5467C78.7598 69.4559 79.491 69.5452 80.168 69.8065L80.614 70.0295L178.728 126.668C179.433 127.072 180.009 127.667 180.39 128.383C180.771 129.1 180.943 129.91 180.884 130.719Z" fill="#DDDDDD"/>
<path d="M277.176 126.148C270.226 103.366 241.758 84.5238 215.148 91.9939C210.947 93.1761 206.914 94.887 203.144 97.0855C177.352 111.951 156.428 148.224 156.428 178.03C156.362 183.062 157.064 188.075 158.509 192.896C165.496 215.678 193.927 234.409 220.537 226.976C224.731 225.809 228.755 224.097 232.504 221.884C258.296 207.018 279.22 170.746 279.22 140.977C279.306 135.958 278.616 130.956 277.176 126.148Z" fill="#455A64"/>
<path d="M232.544 221.735C258.336 206.87 279.26 170.597 279.26 140.828C279.26 111.059 258.336 98.9436 232.544 113.809C206.752 128.675 185.791 164.948 185.828 194.754C185.865 224.56 206.715 236.638 232.544 221.735Z" fill="#37474F"/>
<path d="M232.546 146.886C242.469 141.163 250.497 145.771 250.497 157.255C250.161 163.486 248.36 169.55 245.241 174.955C242.122 180.36 237.773 184.953 232.546 188.362C222.623 194.085 214.559 189.44 214.559 177.993C214.902 171.759 216.709 165.694 219.835 160.29C222.96 154.885 227.315 150.293 232.546 146.886Z" fill="#455A64"/>
<path d="M238.823 164.056C238.708 166.19 238.093 168.267 237.028 170.12C235.963 171.972 234.478 173.549 232.691 174.722C232.102 175.146 231.418 175.419 230.698 175.516C229.979 175.614 229.246 175.532 228.566 175.279C228.401 175.223 228.25 175.135 228.12 175.019C227.582 174.568 227.157 173.996 226.879 173.351C226.602 172.706 226.479 172.004 226.522 171.303C226.638 169.16 227.257 167.074 228.329 165.215C229.401 163.355 230.895 161.774 232.691 160.599C233.279 160.187 233.959 159.925 234.671 159.834C235.383 159.743 236.107 159.828 236.779 160.079L237.225 160.339C237.77 160.785 238.2 161.355 238.478 162.002C238.757 162.649 238.875 163.353 238.823 164.056Z" fill="#37474F"/>
<path d="M253.689 172.678C253.577 174.808 252.963 176.881 251.898 178.728C250.832 180.575 249.345 182.144 247.557 183.307C246.758 183.822 245.832 184.105 244.881 184.125C244.156 184.13 243.446 183.923 242.837 183.53L228.566 175.279C228.401 175.223 228.25 175.135 228.12 175.019C227.582 174.568 227.157 173.996 226.879 173.351C226.602 172.706 226.479 172.004 226.522 171.303C226.638 169.16 227.257 167.074 228.329 165.215C229.401 163.355 230.895 161.774 232.691 160.599C233.279 160.187 233.959 159.925 234.671 159.834C235.383 159.743 236.107 159.828 236.779 160.079L237.225 160.339L251.534 168.553C252.247 168.965 252.828 169.572 253.21 170.303C253.592 171.033 253.758 171.857 253.689 172.678Z" fill="#DDDDDD"/>
<path d="M253.693 172.604C253.584 174.744 252.971 176.829 251.906 178.688C250.841 180.548 249.352 182.13 247.561 183.307C246.966 183.72 246.28 183.982 245.562 184.073C244.844 184.163 244.114 184.079 243.435 183.827L242.989 183.567C242.447 183.12 242.019 182.549 241.741 181.902C241.463 181.256 241.343 180.553 241.391 179.851C241.513 177.714 242.135 175.636 243.207 173.784C244.278 171.931 245.77 170.356 247.561 169.185C248.15 168.76 248.834 168.487 249.554 168.39C250.273 168.293 251.005 168.374 251.686 168.627L252.132 168.887C252.666 169.341 253.085 169.913 253.356 170.559C253.627 171.205 253.743 171.905 253.693 172.604Z" fill="#D8D6D6"/>
</svg>
