<svg width="207" height="171" viewBox="0 0 207 171" fill="none" xmlns="http://www.w3.org/2000/svg">
<path d="M181.125 36H169.875C169.278 36 168.706 35.7629 168.284 35.341C167.862 34.919 167.625 34.3467 167.625 33.75V27.99C167.625 26.534 168.203 25.1376 169.233 24.108C170.263 23.0784 171.659 22.5 173.115 22.5H177.885C179.341 22.5 180.737 23.0784 181.767 24.108C182.797 25.1376 183.375 26.534 183.375 27.99V33.75C183.375 34.3467 183.138 34.919 182.716 35.341C182.294 35.7629 181.722 36 181.125 36ZM172.125 31.5H178.875V27.99C178.875 27.7274 178.771 27.4756 178.585 27.29C178.399 27.1043 178.148 27 177.885 27H173.115C172.852 27 172.601 27.1043 172.415 27.29C172.229 27.4756 172.125 27.7274 172.125 27.99V31.5Z" fill="#F19937"/>
<path d="M37.125 36H25.875C25.2783 36 24.706 35.7629 24.284 35.341C23.8621 34.919 23.625 34.3467 23.625 33.75V27.99C23.625 26.534 24.2034 25.1376 25.233 24.108C26.2626 23.0784 27.659 22.5 29.115 22.5H33.885C35.341 22.5 36.7374 23.0784 37.767 24.108C38.7966 25.1376 39.375 26.534 39.375 27.99V33.75C39.375 34.3467 39.1379 34.919 38.716 35.341C38.294 35.7629 37.7217 36 37.125 36ZM28.125 31.5H34.875V27.99C34.875 27.7274 34.7707 27.4756 34.585 27.29C34.3994 27.1043 34.1476 27 33.885 27H29.115C28.8524 27 28.6006 27.1043 28.415 27.29C28.2293 27.4756 28.125 27.7274 28.125 27.99V31.5Z" fill="#F19937"/>
<path d="M130.5 0H76.5C72.9196 0 69.4858 1.42232 66.9541 3.95406C64.4223 6.4858 63 9.91958 63 13.5V33.75C63 34.3467 63.2371 34.919 63.659 35.341C64.081 35.7629 64.6533 36 65.25 36H76.5C77.0967 36 77.669 35.7629 78.091 35.341C78.5129 34.919 78.75 34.3467 78.75 33.75V19.5075C78.75 18.5109 79.1459 17.5552 79.8505 16.8505C80.5552 16.1459 81.5109 15.75 82.5075 15.75H124.493C125.489 15.75 126.445 16.1459 127.149 16.8505C127.854 17.5552 128.25 18.5109 128.25 19.5075V33.75C128.25 34.3467 128.487 34.919 128.909 35.341C129.331 35.7629 129.903 36 130.5 36H141.75C142.347 36 142.919 35.7629 143.341 35.341C143.763 34.919 144 34.3467 144 33.75V13.5C144 9.91958 142.578 6.4858 140.046 3.95406C137.514 1.42232 134.08 0 130.5 0Z" fill="#F19937"/>
<path d="M193.5 31.5H13.5C6.04416 31.5 0 37.5442 0 45V157.5C0 164.956 6.04416 171 13.5 171H193.5C200.956 171 207 164.956 207 157.5V45C207 37.5442 200.956 31.5 193.5 31.5Z" fill="#009E3D"/>
<path d="M56.2502 31.5001H42.7502C42.1534 31.5001 41.5812 31.7372 41.1592 32.1591C40.7372 32.5811 40.5002 33.1534 40.5002 33.7501V131.22C40.4932 131.759 40.6803 132.283 41.0272 132.696C41.3741 133.109 41.8578 133.384 42.3902 133.47L43.6052 133.65L48.9827 143.078L45.0002 153.158L42.1202 154.035C41.6419 154.18 41.2253 154.479 40.936 154.886C40.6468 155.294 40.5014 155.786 40.5227 156.285V168.75C40.5227 169.347 40.7597 169.919 41.1817 170.341C41.6037 170.763 42.1759 171 42.7727 171H56.2727C56.8694 171 57.4417 170.763 57.8637 170.341C58.2856 169.919 58.5227 169.347 58.5227 168.75V33.7501C58.5227 33.4527 58.4638 33.1583 58.3493 32.8838C58.2348 32.6094 58.0671 32.3603 57.8557 32.1511C57.6444 31.9419 57.3937 31.7766 57.1181 31.6649C56.8426 31.5531 56.5475 31.4971 56.2502 31.5001Z" fill="#F19937"/>
<path d="M164.25 31.5H150.75C150.153 31.5 149.581 31.7371 149.159 32.159C148.737 32.581 148.5 33.1533 148.5 33.75V100.463C148.498 100.759 148.555 101.052 148.667 101.326C148.779 101.6 148.944 101.85 149.153 102.06L153.653 106.56L149.153 111.06C148.944 111.27 148.779 111.52 148.667 111.794C148.555 112.068 148.498 112.361 148.5 112.658V168.75C148.5 169.347 148.737 169.919 149.159 170.341C149.581 170.763 150.153 171 150.75 171H164.25C164.847 171 165.419 170.763 165.841 170.341C166.263 169.919 166.5 169.347 166.5 168.75V33.75C166.5 33.1533 166.263 32.581 165.841 32.159C165.419 31.7371 164.847 31.5 164.25 31.5Z" fill="#F19937"/>
<path d="M53.4387 141.749L46.9812 130.499C46.8141 130.208 46.5839 129.958 46.3075 129.767C46.031 129.576 45.7154 129.45 45.3837 129.397L32.5137 127.394C32.1802 127.342 31.8391 127.365 31.5158 127.463C31.1926 127.56 30.8953 127.729 30.6462 127.957L21.0387 136.777C20.789 137.007 20.5946 137.29 20.4699 137.606C20.3452 137.921 20.2935 138.261 20.3187 138.599L21.2412 151.582C21.266 151.918 21.3657 152.244 21.5332 152.536C21.7006 152.828 21.9315 153.078 22.2087 153.269L32.9412 160.672C33.2209 160.863 33.5402 160.989 33.8752 161.04C34.2103 161.09 34.5525 161.065 34.8762 160.964L47.2512 157.162C47.5758 157.063 47.8739 156.893 48.1232 156.663C48.3726 156.433 48.5668 156.15 48.6912 155.834L53.5062 143.729C53.6468 143.416 53.7138 143.075 53.7021 142.732C53.6904 142.388 53.6003 142.052 53.4387 141.749Z" fill="#98DCA4"/>
<path d="M158.536 105.052L145.824 92.2495C145.615 92.0386 145.366 91.8712 145.092 91.757C144.817 91.6428 144.523 91.584 144.226 91.584C143.929 91.584 143.635 91.6428 143.361 91.757C143.087 91.8712 142.838 92.0386 142.629 92.2495L137.859 97.042L134.664 100.215L117.181 117.697L114.009 120.892L109.216 125.662C109.005 125.871 108.838 126.12 108.724 126.394C108.61 126.668 108.551 126.963 108.551 127.26C108.551 127.557 108.61 127.851 108.724 128.125C108.838 128.399 109.005 128.648 109.216 128.857L121.929 141.75C122.138 141.96 122.387 142.128 122.661 142.242C122.935 142.356 123.229 142.415 123.526 142.415C123.823 142.415 124.117 142.356 124.392 142.242C124.666 142.128 124.915 141.96 125.124 141.75L129.916 136.98L133.089 133.785L150.571 116.302L153.766 113.13L158.536 108.337C158.761 108.127 158.94 107.872 159.063 107.59C159.185 107.307 159.249 107.002 159.249 106.695C159.249 106.387 159.185 106.082 159.063 105.799C158.94 105.517 158.761 105.263 158.536 105.052Z" fill="#6FACA1"/>
<path d="M150.572 109.845L141.032 100.305L137.86 97.1328L134.665 100.305L150.572 116.213L153.767 113.04L150.572 109.845ZM120.377 120.983L117.182 117.788L114.01 120.983L129.917 136.89L133.09 133.695L129.917 130.5L120.377 120.983Z" fill="#FFD48F"/>
<path d="M98.9274 63.3626L98.7386 62.0788C98.6489 61.3671 98.3262 60.7052 97.8208 60.1963C97.3153 59.6874 96.6557 59.3601 95.9447 59.2657L94.6233 59.0769C93.2724 58.8977 91.8985 59.0328 90.6084 59.4716C89.3183 59.9104 88.1469 60.6411 87.1854 61.6068L82.2206 66.5722L81.1068 66.1569C81.2731 65.7536 81.2947 65.3052 81.1679 64.8878C81.041 64.4705 80.7736 64.1099 80.4111 63.8674C80.0485 63.6249 79.6131 63.5155 79.179 63.5577C78.7449 63.5999 78.3388 63.7912 78.0297 64.0989L77.3501 64.7786L76.2175 64.3633C76.32 64.037 76.332 63.6891 76.2522 63.3565C76.1724 63.024 76.0038 62.7194 75.7644 62.4753C75.4107 62.1236 74.9322 61.9262 74.4335 61.9262C73.9348 61.9262 73.4563 62.1236 73.1026 62.4753L72.5741 63.0039L71.8189 62.7207C71.0681 62.4438 70.2684 62.3244 69.4695 62.3699C68.6706 62.4154 67.8896 62.6248 67.175 62.985L62.1158 65.5338C61.7915 65.6863 61.5172 65.9279 61.3252 66.2305C61.1331 66.5331 61.0311 66.8841 61.0311 67.2425C61.0311 67.6009 61.1331 67.9518 61.3252 68.2544C61.5172 68.557 61.7915 68.7986 62.1158 68.9511L74.3863 74.3319L61.9081 86.8304L54.0927 88.0765C53.7718 88.1271 53.4694 88.2598 53.2148 88.4615C52.9602 88.6633 52.7619 88.9273 52.6392 89.2282L52.1483 90.4176C51.957 90.8715 51.9505 91.3822 52.1304 91.8407C52.3103 92.2993 52.6622 92.6693 53.1111 92.872L61.3229 96.648L64.9474 104.861C65.0475 105.092 65.193 105.302 65.3753 105.476C65.5576 105.651 65.7731 105.787 66.0089 105.877C66.2447 105.966 66.4962 106.008 66.7483 105.999C67.0005 105.99 67.2483 105.93 67.4771 105.824L68.7607 105.238C69.0403 105.111 69.2844 104.917 69.4719 104.673C69.6594 104.43 69.7847 104.144 69.8368 103.841L71.1393 96.0627L83.6364 83.5642L89.0166 95.7984C89.16 96.1274 89.3942 96.4087 89.6918 96.6093C89.9893 96.81 90.3379 96.9216 90.6967 96.9312C91.0453 96.9301 91.3868 96.8326 91.6834 96.6493C91.9799 96.466 92.2199 96.2041 92.3768 95.8928L94.9253 90.833C95.4962 89.7296 95.6886 88.4692 95.4727 87.2458C95.4147 86.8846 95.3198 86.5303 95.1896 86.1885L94.9064 85.4333L95.435 84.9047C95.7201 84.6043 95.8985 84.2186 95.9428 83.8069C95.9871 83.3952 95.8949 82.9804 95.6803 82.6262C95.4657 82.2721 95.1407 81.9984 94.7552 81.8472C94.3698 81.696 93.9453 81.6757 93.5472 81.7895L93.1319 80.6567L93.8115 79.977C94.1193 79.6679 94.3105 79.2617 94.3527 78.8275C94.3949 78.3934 94.2855 77.958 94.043 77.5954C93.8006 77.2328 93.44 76.9653 93.0227 76.8385C92.6054 76.7116 92.157 76.7332 91.7538 76.8996L91.3763 75.7856L96.3222 70.8391C97.3068 69.8805 98.0547 68.7059 98.5069 67.4083C98.959 66.1106 99.103 64.7255 98.9274 63.3626Z" fill="#C83A32"/>
</svg>
