<svg width="512" height="512" viewBox="0 0 512 512" fill="none" xmlns="http://www.w3.org/2000/svg">
<path d="M366 432H146C118.4 432 96 409.6 96 382V242C96 214.4 118.4 192 146 192H366C393.6 192 416 214.4 416 242V382C416 409.6 393.6 432 366 432Z" fill="#556875"/>
<path d="M23.9999 192C20.6999 192 17.5999 189.9 16.3999 186.6C14.9999 182.4 17.1999 177.9 21.3999 176.4L485.4 16.4001C489.6 15.0001 494.1 17.2001 495.6 21.4001C497 25.6001 494.8 30.1001 490.6 31.6001L26.5999 191.6C25.6999 191.9 24.8999 192 23.9999 192Z" fill="#556875"/>
<path d="M304 200H208C205 200 202.3 198.4 200.9 195.8C199.5 193.2 199.7 190 201.3 187.6L249.3 115.6C250.8 113.4 253.3 112 256 112C258.7 112 261.2 113.3 262.7 115.6L310.7 187.6C312.3 190.1 312.5 193.2 311.1 195.8C309.7 198.4 307 200 304 200ZM222.9 184H289L256 134.4L222.9 184Z" fill="#556875"/>
<path d="M256 128C269.255 128 280 117.255 280 104C280 90.7452 269.255 80 256 80C242.745 80 232 90.7452 232 104C232 117.255 242.745 128 256 128Z" fill="#F19937"/>
<path d="M200 288H312V432H200V288Z" fill="#D87148"/>
<path d="M200 288H256V432H200V288Z" fill="#F19937"/>
<path d="M158 368H96V256H158C163.5 256 168 260.5 168 266V358C168 363.5 163.5 368 158 368Z" fill="#EEAA38"/>
<path d="M354 368H416V256H354C348.5 256 344 260.5 344 266V358C344 363.5 348.5 368 354 368Z" fill="#EEAA38"/>
<path d="M272 368H240C235.6 368 232 364.4 232 360C232 355.6 235.6 352 240 352H272C276.4 352 280 355.6 280 360C280 364.4 276.4 368 272 368Z" fill="#556875"/>
<path d="M200 232H312V288H200V232Z" fill="#EEAA38"/>
</svg>
