<svg width="289" height="175" viewBox="0 0 289 175" fill="none" xmlns="http://www.w3.org/2000/svg">
<path d="M283.998 144.481H5.0019C3.21844 144.488 1.56723 143.541 0.672425 141.999C-0.222376 140.456 -0.224257 138.552 0.667494 137.008L14.9661 112.098C15.8595 110.55 17.5135 109.599 19.3005 109.606H269.7C271.487 109.599 273.14 110.55 274.034 112.098L288.333 137.008C289.224 138.552 289.222 140.456 288.328 141.999C287.433 143.541 285.782 144.488 283.998 144.481Z" fill="#009E3D"/>
<path d="M224.063 39.857H64.936C63.1525 39.8641 61.5013 38.9174 60.6065 37.3746C59.7117 35.8319 59.7098 33.9285 60.6016 32.3839L66.331 22.4198C67.2245 20.8722 68.8784 19.9217 70.6654 19.9288H218.334C220.121 19.9217 221.775 20.8722 222.668 22.4198L228.398 32.3839C229.29 33.9285 229.288 35.8319 228.393 37.3746C227.498 38.9174 225.847 39.8641 224.063 39.857Z" fill="#009E3D"/>
<path d="M249.722 84.6956H39.2788C37.4953 84.7027 35.8441 83.7559 34.9493 82.2131C34.0545 80.6704 34.0526 78.767 34.9444 77.2225L43.5135 62.2762C44.407 60.7286 46.0609 59.7781 47.8479 59.7852H241.152C242.939 59.7781 244.593 60.7286 245.487 62.2762L254.056 77.2225C254.948 78.767 254.946 80.6704 254.051 82.2131C253.156 83.7559 251.505 84.7027 249.722 84.6956Z" fill="#009E3D"/>
<path d="M246.583 174.373H230.092C225.603 174.376 221.666 171.377 220.477 167.049L214.249 144.48L204.584 109.606L190.833 59.785L185.303 39.8567L179.823 19.9284H179.773L176.037 6.3273C175.616 4.82858 175.921 3.21957 176.859 1.97787C177.798 0.736178 179.263 0.00451332 180.819 6.29326e-05H185.802C187.831 -0.0101012 189.664 1.21173 190.435 3.08895L197.41 19.9284L205.68 39.8567L213.95 59.785L224.313 84.6953L234.626 109.606L249.124 144.48L255.8 160.572C257.084 163.651 256.742 167.168 254.89 169.943C253.037 172.717 249.919 174.38 246.583 174.373Z" fill="#B9C5CC"/>
<path d="M112.964 6.3273L109.227 19.9284H109.177L103.697 39.8567L98.167 59.785L84.4165 109.606L74.7512 144.48L68.5237 167.049C67.3341 171.377 63.3971 174.376 58.9082 174.373H42.4176C39.0816 174.38 35.9635 172.717 34.1107 169.943C32.258 167.168 31.9164 163.651 33.2007 160.572L39.8767 144.48L54.3746 109.606L64.6875 84.6953L75.0502 59.785L83.3204 39.8567L91.5907 19.9284L98.5656 3.08895C99.3367 1.21173 101.169 -0.0101012 103.199 6.29326e-05H108.181C109.737 0.00451332 111.202 0.736178 112.141 1.97787C113.08 3.21957 113.384 4.82858 112.964 6.3273Z" fill="#B9C5CC"/>
</svg>
