<svg width="289" height="175" viewBox="0 0 289 175" fill="none" xmlns="http://www.w3.org/2000/svg">
<path d="M283.998 144.48H5.0019C3.21844 144.487 1.56723 143.54 0.672425 141.998C-0.222376 140.455 -0.224257 138.551 0.667494 137.007L14.9661 112.097C15.8595 110.549 17.5135 109.598 19.3005 109.606H269.7C271.487 109.598 273.14 110.549 274.034 112.097L288.333 137.007C289.224 138.551 289.222 140.455 288.328 141.998C287.433 143.54 285.782 144.487 283.998 144.48Z" fill="#805333"/>
<path d="M224.063 39.8566H64.9355C63.152 39.8637 61.5008 38.9169 60.606 37.3741C59.7112 35.8314 59.7093 33.928 60.6011 32.3834L66.3305 22.4193C67.224 20.8717 68.8779 19.9212 70.6649 19.9283H218.334C220.121 19.9212 221.774 20.8717 222.668 22.4193L228.397 32.3834C229.289 33.928 229.287 35.8314 228.392 37.3741C227.498 38.9169 225.846 39.8637 224.063 39.8566Z" fill="#805333"/>
<path d="M249.722 84.6953H39.2792C37.4958 84.7024 35.8446 83.7557 34.9498 82.2129C34.055 80.6701 34.0531 78.7667 34.9448 77.2222L43.514 62.276C44.4075 60.7284 46.0614 59.7779 47.8484 59.785H241.153C242.94 59.7779 244.594 60.7284 245.487 62.276L254.056 77.2222C254.948 78.7667 254.946 80.6701 254.052 82.2129C253.157 83.7557 251.506 84.7024 249.722 84.6953Z" fill="#805333"/>
<path d="M246.583 174.373H230.092C225.603 174.376 221.666 171.377 220.477 167.049L214.249 144.48L204.584 109.606L190.833 59.785L185.303 39.8567L179.823 19.9284H179.773L176.037 6.3273C175.616 4.82858 175.921 3.21957 176.859 1.97787C177.798 0.736178 179.263 0.00451332 180.819 6.29326e-05H185.802C187.831 -0.0101012 189.664 1.21173 190.435 3.08895L197.41 19.9284L205.68 39.8567L213.95 59.785L224.313 84.6953L234.626 109.606L249.124 144.48L255.8 160.572C257.084 163.651 256.742 167.168 254.89 169.943C253.037 172.717 249.919 174.38 246.583 174.373Z" fill="#BDC3C7"/>
<path d="M112.965 6.3273L109.228 19.9284H109.178L103.698 39.8567L98.168 59.785L84.4174 109.606L74.7522 144.48L68.5246 167.049C67.3351 171.377 63.3981 174.376 58.9092 174.373H42.4186C39.0826 174.38 35.9645 172.717 34.1117 169.943C32.2589 167.168 31.9174 163.651 33.2017 160.572L39.8777 144.48L54.3755 109.606L64.6884 84.6953L75.0511 59.785L83.3214 39.8567L91.5916 19.9284L98.5665 3.08895C99.3377 1.21173 101.17 -0.0101012 103.2 6.29326e-05H108.182C109.738 0.00451332 111.203 0.736178 112.142 1.97787C113.081 3.21957 113.385 4.82858 112.965 6.3273Z" fill="#BDC3C7"/>
</svg>
