<svg width="276" height="295" viewBox="0 0 276 295" fill="none" xmlns="http://www.w3.org/2000/svg">
<path d="M98.422 241.681L72.2495 230.471C70.5464 229.73 69.096 228.508 68.0754 226.956C67.0547 225.404 66.508 223.589 66.502 221.731V218.501L66.407 218.026C72.139 216.892 77.2488 213.678 80.752 209.001L81.1795 208.099C85.3219 210.926 90.0748 212.733 95.0495 213.371L95.002 213.751V228.191C95.0071 232.902 96.1823 237.537 98.422 241.681Z" fill="white"/>
<path d="M137.752 226.623V237.501L124.404 241.966L119.749 239.971C118.046 239.229 116.596 238.008 115.575 236.456C114.555 234.904 114.008 233.088 114.002 231.231V210.521C115.077 210.008 116.124 209.437 117.137 208.811C119.137 213.056 122.005 216.834 125.556 219.903C129.107 222.971 133.261 225.26 137.752 226.623Z" fill="white"/>
<path d="M147.252 228.001C151.613 228.012 155.933 227.157 159.961 225.486C163.989 223.814 167.645 221.359 170.717 218.264L171.002 218.501V235.839C170.994 237.733 170.42 239.582 169.354 241.148C168.287 242.714 166.777 243.925 165.017 244.626L147.252 251.751L124.405 241.966L137.752 237.501V226.624C140.836 227.539 144.035 228.003 147.252 228.001Z" fill="white"/>
<path d="M209.002 196.081V217.361C209.001 219.128 208.507 220.861 207.576 222.363C206.644 223.865 205.312 225.077 203.729 225.864L190.002 232.751V209.001L189.669 207.909C197.174 206.041 203.922 201.912 209.002 196.081Z" fill="white"/>
<path d="M190.002 209.001V235.221C190.004 240.244 188.678 245.179 186.159 249.524C183.64 253.87 180.017 257.473 175.657 259.968L156.752 270.751L147.252 251.751L165.017 244.626C166.777 243.925 168.287 242.713 169.354 241.148C170.42 239.582 170.994 237.733 171.002 235.838V218.501L170.717 218.263C173.456 215.543 175.692 212.359 177.319 208.858C178.364 208.906 179.409 209.001 180.502 209.001C183.59 209.003 186.668 208.636 189.669 207.908L190.002 209.001Z" fill="#293339"/>
<path d="M124.404 241.966L147.252 251.751L156.752 270.751L166.252 294.501H128.252V261.251L112.292 254.411C107.17 252.198 102.806 248.538 99.735 243.88C96.6637 239.222 95.0187 233.77 95.002 228.191V213.751L95.0495 213.371C96.6018 213.642 98.1761 213.77 99.752 213.751C104.682 213.741 109.549 212.637 114.002 210.521V231.231C114.008 233.088 114.555 234.904 115.575 236.456C116.596 238.008 118.046 239.229 119.749 239.971L124.404 241.966Z" fill="#293339"/>
<path d="M113.432 131.338C108.859 135.694 105.854 141.438 104.882 147.678C103.184 147.416 101.47 147.273 99.7519 147.251C92.6238 147.245 85.6826 149.53 79.9519 153.769C74.2212 158.008 70.0044 163.976 67.9235 170.794C65.8425 177.611 66.0076 184.917 68.3944 191.634C70.7811 198.351 75.2631 204.122 81.1794 208.098L80.7519 209.001C77.2487 213.677 72.139 216.892 66.4069 218.026C64.8772 218.353 63.3163 218.512 61.7519 218.501C56.9292 218.491 52.2237 217.013 48.2612 214.264C44.2987 211.515 41.267 207.625 39.5694 203.111C37.5394 203.831 35.4057 204.216 33.2519 204.251C28.2128 204.251 23.3801 202.249 19.8169 198.686C16.2537 195.122 14.2519 190.29 14.2519 185.251C14.2519 184.586 14.3944 183.968 14.4419 183.351C10.1577 181.526 6.50451 178.481 3.93676 174.596C1.36901 170.711 0 166.157 0 161.501C0 156.844 1.36901 152.29 3.93676 148.405C6.50451 144.52 10.1577 141.476 14.4419 139.651C14.3944 139.033 14.2519 138.416 14.2519 137.751C14.2198 133.677 15.2441 129.665 17.2249 126.106C19.2057 122.546 22.0753 119.561 25.5539 117.441C29.0324 115.322 33.001 114.14 37.0725 114.012C41.1439 113.883 45.1791 114.812 48.7844 116.708C50.161 113.123 52.59 110.039 55.7522 107.86C58.9144 105.681 62.6618 104.51 66.5019 104.501L66.8819 104.453C67.9939 112.377 71.9338 119.631 77.9749 124.878C84.0159 130.124 91.7506 133.009 99.7519 133.001C104.067 132.994 108.341 132.155 112.339 130.531C112.683 130.826 113.049 131.096 113.432 131.338Z" fill="#4A5B66"/>
<path d="M232.752 71.251C232.756 76.1957 231.653 81.0786 229.524 85.5416C227.395 90.0046 224.295 93.9346 220.449 97.0435C216.787 95.6825 212.909 94.9907 209.002 95.001C200.184 95.001 191.726 98.5041 185.491 104.74C179.255 110.975 175.752 119.433 175.752 128.251C175.774 129.937 175.917 131.62 176.179 133.286C169.911 133.974 163.916 136.228 158.747 139.841C156.833 135.765 153.978 132.202 150.418 129.446C146.857 126.69 142.692 124.82 138.266 123.989C133.84 123.159 129.281 123.392 124.963 124.67C120.645 125.948 116.693 128.233 113.432 131.338C113.049 131.096 112.683 130.826 112.339 130.531C108.341 132.155 104.068 132.994 99.752 133.001C91.7506 133.01 84.0159 130.125 77.9749 124.878C71.9338 119.632 67.9939 112.377 66.882 104.453C66.6101 102.901 66.4829 101.327 66.502 99.751C66.5086 98.1446 66.6356 96.5409 66.882 94.9535C66.7395 94.9535 66.6445 95.001 66.502 95.001C60.2031 95.001 54.1622 92.4987 49.7082 88.0448C45.2542 83.5908 42.752 77.5499 42.752 71.251C42.752 64.9521 45.2542 58.9112 49.7082 54.4572C54.1622 50.0032 60.2031 47.501 66.502 47.501C66.692 47.501 66.8345 47.5485 66.977 47.5485C66.6732 45.9671 66.5142 44.3613 66.502 42.751C66.502 36.4521 69.0042 30.4112 73.4582 25.9572C77.9122 21.5032 83.9531 19.001 90.252 19.001C93.5077 18.9966 96.7281 19.6762 99.7045 20.996C104.07 13.6419 111.106 8.2572 119.345 5.96506C127.585 3.67293 136.391 4.65036 143.927 8.69347C148.682 4.34623 154.599 1.47705 160.957 0.43607C167.314 -0.60491 173.838 0.227335 179.731 2.83124C185.623 5.43514 190.631 9.69809 194.142 15.0998C197.652 20.5016 199.515 26.8085 199.502 33.251C199.497 34.8417 199.37 36.4297 199.122 38.001H199.502C208.32 38.001 216.778 41.5041 223.013 47.7397C229.249 53.9753 232.752 62.4325 232.752 71.251Z" fill="#5F7381"/>
<path d="M137.752 226.623C133.261 225.261 129.107 222.971 125.556 219.903C122.005 216.835 119.137 213.056 117.137 208.811C116.124 209.437 115.077 210.008 114.002 210.521C109.549 212.638 104.682 213.741 99.752 213.751C98.1761 213.77 96.6019 213.643 95.0495 213.371C90.0748 212.733 85.3219 210.926 81.1795 208.098C75.2632 204.123 70.7811 198.351 68.3944 191.634C66.0077 184.918 65.8426 177.612 67.9235 170.794C70.0044 163.977 74.2212 158.008 79.9519 153.769C85.6826 149.53 92.6239 147.245 99.752 147.251C101.47 147.273 103.184 147.416 104.882 147.678C105.854 141.439 108.859 135.694 113.432 131.338C116.693 128.233 120.645 125.948 124.963 124.67C129.281 123.392 133.84 123.159 138.266 123.989C142.692 124.82 146.857 126.69 150.418 129.446C153.978 132.202 156.833 135.765 158.747 139.841C163.916 136.228 169.911 133.974 176.179 133.286C175.917 131.62 175.774 129.937 175.752 128.251C175.752 119.433 179.255 110.975 185.491 104.74C191.726 98.5041 200.184 95.001 209.002 95.001C212.909 94.9907 216.787 95.6825 220.449 97.0435C221.276 97.3267 222.085 97.6598 222.872 98.041C226.854 95.926 231.315 94.8775 235.822 94.9975C240.33 95.1176 244.729 96.402 248.593 98.726C252.456 101.05 255.653 104.334 257.871 108.259C260.089 112.185 261.254 116.617 261.252 121.126C261.242 126.534 259.567 131.808 256.454 136.231C261.045 138.384 265.082 141.559 268.257 145.512C271.432 149.465 273.661 154.092 274.774 159.039C275.886 163.986 275.852 169.122 274.675 174.054C273.498 178.986 271.208 183.583 267.981 187.494C264.755 191.405 260.676 194.526 256.058 196.619C251.439 198.712 246.403 199.721 241.335 199.569C236.267 199.416 231.301 198.107 226.816 195.741C222.332 193.374 218.448 190.014 215.462 185.916C213.856 189.622 211.676 193.053 209.002 196.081C203.922 201.912 197.174 206.041 189.669 207.908C186.668 208.637 183.59 209.003 180.502 209.001C179.409 209.001 178.364 208.906 177.319 208.858C174.641 214.574 170.392 219.409 165.067 222.799C159.743 226.189 153.564 227.993 147.252 228.001C144.035 228.003 140.835 227.539 137.752 226.623Z" fill="#B9C5CC"/>
<path d="M242.252 175.751C237.034 175.748 231.89 174.516 227.236 172.156C222.581 169.796 218.548 166.374 215.462 162.166C213.856 165.873 211.676 169.303 209.002 172.331C203.922 178.162 197.174 182.291 189.67 184.159C186.668 184.887 183.59 185.254 180.502 185.251C179.41 185.251 178.365 185.156 177.32 185.109C174.641 190.824 170.392 195.66 165.068 199.049C159.743 202.439 153.564 204.243 147.252 204.251C140.925 204.259 134.727 202.456 129.391 199.056C124.055 195.656 119.803 190.8 117.137 185.061C116.124 185.687 115.077 186.258 114.002 186.771C109.549 188.888 104.682 189.991 99.752 190.001C98.1761 190.02 96.6019 189.893 95.0495 189.621C90.0748 188.983 85.3219 187.176 81.1795 184.349C75.5106 180.529 71.1555 175.056 68.706 168.674C66.017 175.687 65.7866 183.405 68.0523 190.566C70.318 197.727 74.9459 203.908 81.1795 208.099C85.3219 210.926 90.0748 212.733 95.0495 213.371C96.6019 213.643 98.1761 213.77 99.752 213.751C104.682 213.741 109.549 212.638 114.002 210.521C115.077 210.008 116.124 209.437 117.137 208.811C119.803 214.55 124.055 219.406 129.391 222.806C134.727 226.206 140.925 228.009 147.252 228.001C153.564 227.993 159.743 226.189 165.068 222.799C170.392 219.41 174.641 214.574 177.32 208.859C178.365 208.906 179.41 209.001 180.502 209.001C183.59 209.004 186.668 208.637 189.67 207.909C197.174 206.041 203.922 201.912 209.002 196.081C211.676 193.053 213.856 189.623 215.462 185.916C220.192 192.447 227.138 197.031 235.002 198.812C242.866 200.593 251.11 199.449 258.192 195.594C265.274 191.738 270.709 185.435 273.481 177.863C276.254 170.291 276.173 161.969 273.255 154.452C270.848 160.722 266.596 166.114 261.061 169.916C255.526 173.719 248.968 175.753 242.252 175.751Z" fill="#404D57"/>
<path d="M256.568 136.293L256.355 136.326C255.361 142.894 251.968 148.86 246.831 153.071C241.694 157.282 235.178 159.44 228.543 159.126C224.271 159.183 220.038 158.299 216.145 156.538C212.252 154.778 208.793 152.183 206.014 148.937C204.632 151.759 202.796 154.334 200.58 156.561C196.134 161.028 190.488 164.11 184.326 165.434C181.792 165.979 179.208 166.253 176.616 166.251C175.695 166.251 174.816 166.18 173.937 166.142C172.536 168.813 170.656 171.204 168.389 173.196C162.94 177.971 155.922 180.572 148.677 180.501C145.982 180.504 143.298 180.156 140.692 179.466C137.042 178.544 133.621 176.883 130.638 174.585C127.656 172.288 125.177 169.403 123.355 166.109C122.514 166.584 121.635 166.997 120.718 167.391C116.925 168.988 112.85 169.812 108.734 169.814C107.411 169.828 106.089 169.733 104.782 169.529C100.653 169.068 96.6734 167.718 93.1162 165.572C88.0201 162.585 84.1261 157.913 82.1057 152.362C75.9986 156.201 71.3042 161.921 68.7297 168.659C71.1792 175.041 75.5344 180.514 81.2032 184.334C85.3456 187.162 90.0986 188.969 95.0732 189.607C96.6174 189.882 98.1836 190.014 99.752 190.001C104.682 189.991 109.549 188.888 114.002 186.771C115.077 186.258 116.124 185.687 117.137 185.061C119.803 190.8 124.055 195.656 129.391 199.056C134.727 202.457 140.925 204.259 147.252 204.251C153.564 204.243 159.743 202.439 165.067 199.049C170.392 195.66 174.641 190.824 177.319 185.109C178.364 185.156 179.409 185.251 180.502 185.251C183.59 185.254 186.668 184.887 189.669 184.159C197.174 182.291 203.922 178.162 209.002 172.331C211.676 169.303 213.856 165.873 215.462 162.166C218.984 166.976 223.736 170.749 229.219 173.089C234.703 175.428 240.715 176.249 246.624 175.464C252.534 174.68 258.123 172.319 262.806 168.629C267.488 164.939 271.091 160.057 273.236 154.495C270.234 146.506 264.263 139.985 256.568 136.293Z" fill="#5F7381"/>
<path d="M98.422 241.681C97.3626 239.712 96.5398 237.625 95.971 235.463L74.1542 226.101C73.2998 225.731 72.571 225.121 72.0559 224.345C71.5409 223.57 71.2616 222.661 71.252 221.731V216.458C69.6991 217.156 68.0744 217.682 66.407 218.026C64.8772 218.353 63.3163 218.512 61.752 218.501V221.731C61.7578 224.517 62.5773 227.241 64.1096 229.568C65.642 231.895 67.8206 233.725 70.378 234.831L96.5552 246.051C97.0671 246.271 97.6137 246.4 98.1702 246.431L101.87 246.625C100.548 245.105 99.3917 243.447 98.422 241.681Z" fill="#293339"/>
<path d="M133.002 224.729V234.081L122.899 237.463C122.265 237.677 121.683 238.023 121.192 238.477C120.701 238.931 120.311 239.484 120.049 240.1L124.4 241.966L130.969 244.778L139.253 242.004C140.198 241.689 141.021 241.085 141.604 240.277C142.187 239.469 142.501 238.498 142.502 237.501V227.659C139.195 227.213 135.985 226.222 133.002 224.729Z" fill="#293339"/>
<path d="M213.624 189.379C212.33 191.773 210.78 194.021 209.002 196.081C207.555 197.721 205.965 199.229 204.252 200.589V217.361C204.255 218.25 204.007 219.123 203.539 219.878C203.07 220.634 202.399 221.243 201.601 221.636L190.002 227.436V235.221C190.002 235.991 189.912 236.741 189.85 237.501H190.002C190.741 237.502 191.47 237.33 192.13 236.998L205.853 230.11C208.229 228.936 210.229 227.119 211.625 224.865C213.021 222.612 213.758 220.012 213.752 217.361V190.001C213.726 189.791 213.683 189.582 213.624 189.379Z" fill="#293339"/>
<path d="M155.042 285.001C152.845 285.001 150.716 284.241 149.016 282.848C147.317 281.455 146.153 279.517 145.722 277.363L142.502 261.251L108.155 244.075C107.058 243.527 106.135 242.684 105.49 241.641C104.844 240.598 104.502 239.397 104.502 238.17V234.608C104.502 232.855 105.198 231.175 106.437 229.936C107.676 228.697 109.357 228.001 111.109 228.001H114.002V210.521C109.549 212.637 104.682 213.741 99.752 213.751C98.1761 213.77 96.6018 213.642 95.0495 213.371L95.002 213.751V228.191C95.0187 233.77 96.6637 239.222 99.735 243.88C102.806 248.538 107.17 252.198 112.292 254.411L128.252 261.251V294.501H166.252L162.452 285.001H155.042Z" fill="#293339"/>
<path d="M189.669 207.908C186.668 208.636 183.59 209.003 180.502 209.001C179.409 209.001 178.364 208.906 177.319 208.858C175.692 212.359 173.456 215.543 170.717 218.263L171.002 218.501V235.838C170.994 237.733 170.42 239.582 169.354 241.148C168.287 242.713 166.777 243.925 165.017 244.626L147.252 251.751L156.752 270.751L167.078 264.861L166.485 263.977C165.139 261.956 164.618 259.497 165.028 257.104C165.439 254.711 166.751 252.566 168.693 251.109L174.802 246.526C176.572 245.198 178.008 243.477 178.998 241.498C179.987 239.52 180.502 237.338 180.502 235.126V228.001C180.502 225.481 181.503 223.065 183.284 221.283C185.066 219.502 187.482 218.501 190.002 218.501V209.001L189.669 207.908Z" fill="#293339"/>
<path d="M235.127 95.0008C230.854 94.9924 226.645 96.0365 222.872 98.0408C222.085 97.6596 221.276 97.3265 220.449 97.0433C216.787 95.6823 212.909 94.9905 209.002 95.0008C200.184 95.0008 191.726 98.5039 185.491 104.74C179.255 110.975 175.752 119.432 175.752 128.251C175.774 129.937 175.917 131.62 176.179 133.286C169.911 133.974 163.916 136.228 158.747 139.841C156.145 134.328 151.842 129.796 146.472 126.913C141.101 124.03 134.946 122.947 128.914 123.825C122.882 124.703 117.291 127.494 112.964 131.788C108.638 136.083 105.805 141.653 104.882 147.678L104.502 147.631V161.881L104.882 161.928C105.854 155.688 108.859 149.944 113.432 145.588C116.693 142.483 120.645 140.198 124.963 138.92C129.281 137.642 133.84 137.409 138.266 138.239C142.692 139.07 146.857 140.94 150.418 143.696C153.978 146.452 156.833 150.015 158.747 154.091C163.916 150.478 169.911 148.224 176.179 147.536C175.917 145.87 175.774 144.187 175.752 142.501C175.752 133.682 179.255 125.225 185.491 118.99C191.726 112.754 200.184 109.251 209.002 109.251C212.909 109.24 216.787 109.932 220.449 111.293C221.276 111.577 222.085 111.91 222.872 112.291C226.307 110.469 230.106 109.437 233.991 109.271C237.876 109.104 241.749 109.806 245.328 111.327C248.906 112.848 252.101 115.148 254.677 118.06C257.254 120.972 259.148 124.423 260.221 128.161C261.35 124.282 261.556 120.192 260.823 116.22C260.09 112.247 258.439 108.5 256.001 105.279C253.563 102.058 250.406 99.4506 246.782 97.6661C243.158 95.8815 239.167 94.9688 235.127 95.0008Z" fill="#B9C5CC"/>
<path d="M195.141 82.6513C189.707 78.5432 183.394 75.7504 176.699 74.492C170.003 73.2337 163.107 73.544 156.552 75.3987C149.997 77.2534 143.96 80.6019 138.917 85.1815C133.873 89.7612 129.959 95.4473 127.482 101.794C127.663 95.4003 120.661 91.3438 114.429 89.8903C104.583 87.67 94.3049 88.3296 84.8226 91.7903C82.7914 92.7632 80.6647 93.5225 78.4766 94.056C76.0351 94.4028 73.5129 94.1035 71.0381 94.531C69.6174 94.7855 68.2135 95.1265 66.8344 95.5523C66.6309 96.9431 66.5198 98.3458 66.5019 99.7513C66.4828 101.327 66.6101 102.901 66.8819 104.454C67.9938 112.378 71.9337 119.632 77.9748 124.878C84.0158 130.125 91.7505 133.01 99.7519 133.001C104.067 132.994 108.341 132.156 112.339 130.531C112.683 130.827 113.048 131.097 113.432 131.339C116.693 128.234 120.645 125.948 124.963 124.67C129.281 123.393 133.84 123.159 138.266 123.99C142.692 124.82 146.856 126.69 150.417 129.446C153.978 132.202 156.833 135.765 158.747 139.841C163.916 136.228 169.911 133.974 176.179 133.286C175.917 131.62 175.774 129.938 175.752 128.251C175.752 119.433 179.255 110.976 185.491 104.74C191.726 98.5044 200.183 95.0013 209.002 95.0013C212.909 94.991 216.787 95.6828 220.449 97.0438C226.671 91.9896 230.85 84.851 232.21 76.9513C226.078 74.5494 219.419 73.8115 212.909 74.8126C206.399 75.8136 200.269 78.5178 195.141 82.6513Z" fill="#404D57"/>
<path d="M223.67 48.4514C222.102 48.4514 220.535 48.3802 218.963 48.4847C208.59 48.8197 198.746 53.145 191.484 60.5592C188.033 57.1272 183.911 54.4441 179.376 52.6778C174.841 50.9114 169.99 50.0999 165.127 50.2938C160.264 50.4877 155.493 51.683 151.113 53.8049C146.733 55.9267 142.837 58.9295 139.671 62.6255C136.087 59.6393 131.902 57.4602 127.401 56.2365C122.899 55.0128 118.187 54.7732 113.585 55.534C108.982 56.2948 104.598 58.0382 100.73 60.6455C96.8616 63.2528 93.6006 66.6628 91.1686 70.6434C88.5022 68.3645 85.4126 66.6339 82.0765 65.5506C78.7404 64.4674 75.2234 64.0528 71.7268 64.3307C64.7263 64.9321 58.0085 67.3702 52.2518 71.3987C49.2649 73.4512 46.4955 75.8036 43.9868 78.4192C45.4941 83.2149 48.4882 87.4066 52.5359 90.3878C56.5836 93.3689 61.4748 94.9847 66.5018 95.0014C66.6443 95.0014 66.7393 94.9539 66.8818 94.9539C66.8533 95.1487 66.8818 95.3482 66.8343 95.5429C68.2135 95.1172 69.6173 94.7762 71.0381 94.5217C73.5128 94.0942 76.0351 94.3934 78.4766 94.0467C80.6646 93.5132 82.7914 92.7539 84.8226 91.781C94.3048 88.3203 104.582 87.6607 114.429 89.881C120.661 91.306 127.663 95.3909 127.482 101.784C129.96 95.4388 133.875 89.7536 138.919 85.175C143.963 80.5963 149.999 77.2488 156.555 75.3951C163.11 73.5414 170.005 73.2319 176.7 74.4909C183.395 75.7499 189.707 78.5431 195.141 82.6514C200.267 78.5214 206.393 75.8191 212.9 74.8182C219.406 73.8172 226.061 74.5532 232.191 76.9515C233.131 71.8633 232.846 66.6245 231.359 61.6686C229.872 56.7126 227.227 52.1819 223.641 48.4514H223.67Z" fill="#5F7381"/>
<path d="M24.1367 189.231C25.1587 184.93 26.4582 180.7 28.0269 176.568C25.4642 175.945 23.2073 174.43 21.6619 172.293C19.751 169.907 18.4728 167.078 17.9456 164.068C17.4184 161.057 17.6592 157.962 18.6457 155.069C19.7357 152.168 21.6307 149.639 24.1082 147.778C25.3297 146.847 26.6802 146.098 28.1172 145.555C29.0672 145.199 32.0027 145.042 32.3352 144.201C32.6297 143.455 30.3022 140.135 29.9602 139.337C29.0971 137.47 28.3669 135.545 27.7752 133.575C26.5637 129.679 26.147 125.58 26.5497 121.52C26.7605 119.787 27.1554 118.082 27.7277 116.433C23.7018 118.356 20.301 121.378 17.917 125.149C15.5329 128.921 14.2624 133.289 14.2519 137.751C14.2519 138.416 14.3944 139.033 14.4419 139.651C10.1577 141.476 6.50451 144.52 3.93676 148.405C1.36901 152.29 0 156.844 0 161.501C0 166.157 1.36901 170.711 3.93676 174.596C6.50451 178.481 10.1577 181.526 14.4419 183.351C14.3944 183.968 14.2519 184.586 14.2519 185.251C14.2517 188.493 15.0847 191.681 16.6708 194.509C18.257 197.337 20.5432 199.71 23.3102 201.401C23.03 197.325 23.3081 193.231 24.1367 189.231Z" fill="#4A5B66"/>
<path d="M112.339 130.531C108.341 132.155 104.067 132.994 99.7519 133.001C91.7505 133.009 84.0159 130.124 77.9748 124.878C71.9337 119.631 67.9938 112.377 66.8819 104.453L66.5019 104.501C62.7432 104.513 59.0726 105.639 55.9543 107.738C52.836 109.836 50.4103 112.813 48.9839 116.29C50.4706 121.168 52.3991 125.923 54.3371 130.645C54.9641 132.184 55.5959 133.723 56.3511 135.205C57.5267 137.728 59.0787 140.058 60.9539 142.116C59.0643 143.333 57.2843 144.713 55.6339 146.239C54.0329 147.866 52.6327 149.679 51.4634 151.64C49.1286 155.566 47.628 159.932 47.0554 164.465C46.2102 173.56 47.7644 182.719 51.5631 191.027C46.3774 194.349 42.4916 199.353 40.5574 205.201C42.4939 209.177 45.5063 212.531 49.2526 214.882C52.9989 217.233 57.3291 218.486 61.7519 218.501C63.3162 218.512 64.8771 218.353 66.4069 218.026C72.1389 216.892 77.2487 213.677 80.7519 209.001L81.1794 208.098C75.2631 204.122 70.781 198.351 68.3943 191.634C66.0076 184.917 65.8425 177.611 67.9234 170.794C70.0043 163.976 74.2211 158.008 79.9518 153.769C85.6825 149.53 92.6238 147.245 99.7519 147.251C101.47 147.273 103.184 147.416 104.882 147.678C105.854 141.438 108.859 135.694 113.432 131.338C113.048 131.096 112.683 130.826 112.339 130.531Z" fill="#293339"/>
<path d="M51.5631 191.046C47.7644 182.739 46.2102 173.58 47.0554 164.484C47.6281 159.952 49.1286 155.586 51.4634 151.659C52.6327 149.699 54.0329 147.886 55.6339 146.259C57.2843 144.733 59.0643 143.353 60.9539 142.136C59.0787 140.078 57.5268 137.748 56.3511 135.224C55.5959 133.742 54.9641 132.203 54.3371 130.664C52.3991 125.943 50.4706 121.164 48.9839 116.31C48.9221 116.452 48.8414 116.585 48.7844 116.728C45.551 114.997 41.949 114.07 38.2819 114.022C34.6149 113.975 30.9902 114.81 27.7134 116.457C27.1411 118.106 26.7462 119.812 26.5354 121.544C26.1327 125.604 26.5494 129.704 27.7609 133.6C28.3526 135.57 29.0828 137.495 29.9459 139.362C30.3116 140.16 32.6391 143.48 32.3209 144.226C31.9884 145.066 29.0529 145.223 28.1029 145.579C26.6659 146.122 25.3154 146.871 24.0939 147.802C21.6164 149.664 19.7214 152.193 18.6314 155.094C17.6449 157.986 17.4041 161.081 17.9313 164.092C18.4585 167.103 19.7367 169.932 21.6476 172.317C23.193 174.454 25.4499 175.97 28.0126 176.592C26.4406 180.725 25.138 184.955 24.1129 189.256C23.2944 193.249 23.0243 197.335 23.3101 201.401C26.2933 203.26 29.737 204.247 33.2519 204.251C35.4056 204.217 37.5394 203.832 39.5694 203.111C39.8496 203.843 40.2154 204.536 40.5574 205.22C42.4916 199.373 46.3774 194.369 51.5631 191.046Z" fill="#4A5B66"/>
<path d="M52.252 71.3982C56.6188 68.4187 61.5005 66.2751 66.6492 65.076C66.9967 59.0474 69.6334 53.3792 74.0204 49.2297C78.4074 45.0802 84.2134 42.7628 90.252 42.751C93.5077 42.7466 96.7281 43.4262 99.7045 44.746C104.07 37.3919 111.106 32.0072 119.345 29.7151C127.585 27.4229 136.391 28.4004 143.927 32.4435C147.673 29.0114 152.157 26.4862 157.034 25.0627C161.91 23.6393 167.049 23.3557 172.053 24.2338C177.056 25.112 181.791 27.1285 185.892 30.1275C189.992 33.1265 193.349 37.0278 195.702 41.5302C198.02 39.4735 199.502 38.001 199.502 38.001H199.122C199.37 36.4297 199.497 34.8417 199.502 33.251C199.515 26.8085 197.652 20.5016 194.142 15.0998C190.631 9.69809 185.623 5.43514 179.731 2.83124C173.838 0.227335 167.314 -0.60491 160.957 0.43607C154.599 1.47705 148.682 4.34623 143.927 8.69347C136.391 4.65036 127.585 3.67293 119.345 5.96506C111.106 8.2572 104.07 13.6419 99.7045 20.996C96.7281 19.6762 93.5077 18.9966 90.252 19.001C83.9531 19.001 77.9122 21.5032 73.4582 25.9572C69.0042 30.4112 66.502 36.4521 66.502 42.751C66.5142 44.3613 66.6732 45.9671 66.977 47.5485C66.8345 47.5485 66.692 47.501 66.502 47.501C60.2031 47.501 54.1622 50.0032 49.7082 54.4572C45.2542 58.9112 42.752 64.9521 42.752 71.251C42.7756 74.8222 43.6276 78.3392 45.241 81.5252C44.7472 80.5201 44.3234 79.4822 43.9727 78.4187C46.4859 75.8024 49.26 73.45 52.252 71.3982Z" fill="#B9C5CC"/>
</svg>
