<svg width="276" height="295" viewBox="0 0 276 295" fill="none" xmlns="http://www.w3.org/2000/svg">
<path d="M98.4212 241.681L72.2487 230.471C70.5456 229.73 69.0953 228.508 68.0746 226.956C67.054 225.404 66.5073 223.589 66.5013 221.731V218.501L66.4062 218.026C72.1383 216.892 77.2481 213.678 80.7513 209.001L81.1788 208.099C85.3211 210.926 90.0741 212.733 95.0488 213.371L95.0013 213.751V228.191C95.0064 232.902 96.1816 237.537 98.4212 241.681Z" fill="white"/>
<path d="M137.752 226.624V237.501L124.404 241.966L119.749 239.971C118.046 239.23 116.596 238.008 115.575 236.456C114.555 234.904 114.008 233.089 114.002 231.231V210.521C115.077 210.008 116.124 209.437 117.137 208.811C119.137 213.056 122.005 216.835 125.556 219.903C129.107 222.971 133.261 225.261 137.752 226.624Z" fill="white"/>
<path d="M147.252 228.001C151.613 228.012 155.933 227.157 159.961 225.486C163.989 223.814 167.645 221.359 170.717 218.264L171.002 218.501V235.839C170.994 237.733 170.42 239.582 169.354 241.148C168.287 242.714 166.777 243.925 165.017 244.626L147.252 251.751L124.404 241.966L137.752 237.501V226.624C140.835 227.539 144.035 228.003 147.252 228.001Z" fill="white"/>
<path d="M209.002 196.081V217.361C209.001 219.128 208.508 220.861 207.576 222.363C206.645 223.865 205.313 225.077 203.73 225.864L190.002 232.751V209.001L189.67 207.909C197.174 206.041 203.923 201.912 209.002 196.081Z" fill="white"/>
<path d="M190.002 209.001V235.221C190.004 240.244 188.678 245.179 186.159 249.525C183.64 253.871 180.017 257.474 175.657 259.969L156.752 270.751L147.252 251.751L165.017 244.626C166.777 243.925 168.287 242.714 169.354 241.148C170.42 239.582 170.994 237.733 171.002 235.839V218.501L170.717 218.264C173.456 215.543 175.692 212.359 177.319 208.859C178.364 208.906 179.409 209.001 180.502 209.001C183.59 209.004 186.668 208.637 189.669 207.909L190.002 209.001Z" fill="#9A6948"/>
<path d="M124.404 241.966L147.252 251.751L156.752 270.751L166.252 294.501H128.252V261.251L112.292 254.411C107.17 252.198 102.806 248.538 99.735 243.881C96.6637 239.223 95.0187 233.77 95.002 228.191V213.751L95.0495 213.371C96.6018 213.643 98.1761 213.77 99.752 213.751C104.682 213.741 109.549 212.638 114.002 210.521V231.231C114.008 233.089 114.555 234.904 115.575 236.456C116.596 238.008 118.046 239.229 119.749 239.971L124.404 241.966Z" fill="#9A6948"/>
<path d="M113.432 131.339C108.859 135.694 105.854 141.439 104.882 147.679C103.184 147.416 101.47 147.274 99.7519 147.251C92.6238 147.245 85.6826 149.53 79.9519 153.769C74.2212 158.008 70.0044 163.977 67.9235 170.794C65.8425 177.612 66.0076 184.918 68.3944 191.634C70.7811 198.351 75.2631 204.123 81.1794 208.099L80.7519 209.001C77.2487 213.678 72.139 216.892 66.4069 218.026C64.8772 218.353 63.3163 218.513 61.7519 218.501C56.9292 218.491 52.2237 217.014 48.2612 214.265C44.2987 211.516 41.267 207.625 39.5694 203.111C37.5394 203.831 35.4057 204.216 33.2519 204.251C28.2128 204.251 23.3801 202.249 19.8169 198.686C16.2537 195.123 14.2519 190.29 14.2519 185.251C14.2519 184.586 14.3944 183.969 14.4419 183.351C10.1577 181.526 6.50451 178.482 3.93676 174.597C1.36901 170.712 0 166.158 0 161.501C0 156.844 1.36901 152.29 3.93676 148.405C6.50451 144.52 10.1577 141.476 14.4419 139.651C14.3944 139.034 14.2519 138.416 14.2519 137.751C14.2198 133.678 15.2441 129.666 17.2249 126.106C19.2057 122.547 22.0753 119.562 25.5539 117.442C29.0324 115.322 33.001 114.141 37.0725 114.012C41.1439 113.883 45.1791 114.813 48.7844 116.709C50.161 113.124 52.59 110.039 55.7522 107.86C58.9144 105.682 62.6618 104.51 66.5019 104.501L66.8819 104.454C67.9939 112.377 71.9338 119.632 77.9749 124.878C84.0159 130.125 91.7506 133.01 99.7519 133.001C104.067 132.994 108.341 132.155 112.339 130.531C112.683 130.827 113.049 131.097 113.432 131.339Z" fill="#2F5224"/>
<path d="M232.752 71.251C232.756 76.1957 231.653 81.0786 229.524 85.5416C227.395 90.0046 224.295 93.9346 220.449 97.0435C216.787 95.6825 212.909 94.9907 209.002 95.001C200.184 95.001 191.726 98.5041 185.491 104.74C179.255 110.975 175.752 119.433 175.752 128.251C175.774 129.937 175.917 131.62 176.179 133.286C169.911 133.974 163.916 136.228 158.747 139.841C156.833 135.765 153.978 132.202 150.418 129.446C146.857 126.69 142.692 124.82 138.266 123.989C133.84 123.159 129.281 123.392 124.963 124.67C120.645 125.948 116.693 128.233 113.432 131.338C113.049 131.096 112.683 130.826 112.339 130.531C108.341 132.155 104.068 132.994 99.752 133.001C91.7506 133.01 84.0159 130.125 77.9749 124.878C71.9338 119.632 67.9939 112.377 66.882 104.453C66.6101 102.901 66.4829 101.327 66.502 99.751C66.5086 98.1446 66.6356 96.5409 66.882 94.9535C66.7395 94.9535 66.6445 95.001 66.502 95.001C60.2031 95.001 54.1622 92.4987 49.7082 88.0448C45.2542 83.5908 42.752 77.5499 42.752 71.251C42.752 64.9521 45.2542 58.9112 49.7082 54.4572C54.1622 50.0032 60.2031 47.501 66.502 47.501C66.692 47.501 66.8345 47.5485 66.977 47.5485C66.6732 45.9671 66.5142 44.3613 66.502 42.751C66.502 36.4521 69.0042 30.4112 73.4582 25.9572C77.9122 21.5032 83.9531 19.001 90.252 19.001C93.5077 18.9966 96.7281 19.6762 99.7045 20.996C104.07 13.6419 111.106 8.2572 119.345 5.96506C127.585 3.67293 136.391 4.65036 143.927 8.69347C148.682 4.34623 154.599 1.47705 160.957 0.43607C167.314 -0.60491 173.838 0.227335 179.731 2.83124C185.623 5.43514 190.631 9.69809 194.142 15.0998C197.652 20.5016 199.515 26.8085 199.502 33.251C199.497 34.8417 199.37 36.4297 199.122 38.001H199.502C208.32 38.001 216.778 41.5041 223.013 47.7397C229.249 53.9753 232.752 62.4325 232.752 71.251Z" fill="#5CB34F"/>
<path d="M137.751 226.623C133.261 225.261 129.106 222.971 125.555 219.903C122.004 216.835 119.136 213.056 117.136 208.811C116.123 209.437 115.077 210.008 114.001 210.521C109.549 212.638 104.682 213.741 99.7515 213.751C98.1756 213.77 96.6014 213.643 95.049 213.371C90.0743 212.733 85.3214 210.926 81.179 208.098C75.2627 204.123 70.7806 198.351 68.3939 191.634C66.0072 184.918 65.8421 177.612 67.923 170.794C70.004 163.977 74.2207 158.008 79.9514 153.769C85.6821 149.53 92.6234 147.245 99.7515 147.251C101.469 147.273 103.184 147.416 104.881 147.678C105.853 141.439 108.859 135.694 113.431 131.338C116.693 128.233 120.645 125.948 124.963 124.67C129.28 123.392 133.84 123.159 138.266 123.989C142.691 124.82 146.856 126.69 150.417 129.446C153.978 132.202 156.833 135.765 158.746 139.841C163.915 136.228 169.91 133.974 176.179 133.286C175.917 131.62 175.774 129.937 175.751 128.251C175.751 119.433 179.255 110.975 185.49 104.74C191.726 98.5041 200.183 95.001 209.001 95.001C212.909 94.9907 216.786 95.6825 220.449 97.0435C221.276 97.3267 222.085 97.6598 222.871 98.041C226.853 95.926 231.315 94.8775 235.822 94.9975C240.329 95.1176 244.728 96.402 248.592 98.726C252.456 101.05 255.652 104.334 257.871 108.259C260.089 112.185 261.254 116.617 261.251 121.126C261.242 126.534 259.567 131.808 256.454 136.231C261.044 138.384 265.082 141.559 268.257 145.512C271.432 149.465 273.661 154.092 274.773 159.039C275.886 163.986 275.852 169.122 274.675 174.054C273.497 178.986 271.208 183.583 267.981 187.494C264.754 191.405 260.675 194.526 256.057 196.619C251.439 198.712 246.403 199.721 241.335 199.569C236.267 199.416 231.3 198.107 226.816 195.741C222.332 193.374 218.448 190.014 215.461 185.916C213.855 189.622 211.675 193.053 209.001 196.081C203.922 201.912 197.173 206.041 189.669 207.908C186.668 208.637 183.59 209.003 180.501 209.001C179.409 209.001 178.364 208.906 177.319 208.858C174.641 214.574 170.391 219.409 165.067 222.799C159.743 226.189 153.563 227.993 147.251 228.001C144.035 228.003 140.835 227.539 137.751 226.623Z" fill="#7BC24F"/>
<path d="M242.252 175.751C237.033 175.748 231.889 174.516 227.235 172.156C222.581 169.796 218.548 166.374 215.462 162.166C213.855 165.873 211.675 169.303 209.002 172.331C203.922 178.162 197.173 182.291 189.669 184.159C186.668 184.887 183.59 185.254 180.502 185.251C179.409 185.251 178.364 185.156 177.319 185.109C174.641 190.824 170.391 195.66 165.067 199.049C159.743 202.439 153.563 204.243 147.252 204.251C140.924 204.259 134.726 202.456 129.39 199.056C124.054 195.656 119.802 190.8 117.137 185.061C116.123 185.687 115.077 186.258 114.002 186.771C109.549 188.888 104.682 189.991 99.7515 190.001C98.1756 190.02 96.6014 189.893 95.049 189.621C90.0743 188.983 85.3214 187.176 81.179 184.349C75.5101 180.529 71.155 175.056 68.7055 168.674C66.0165 175.687 65.7861 183.405 68.0518 190.566C70.3175 197.727 74.9454 203.908 81.179 208.099C85.3214 210.926 90.0743 212.733 95.049 213.371C96.6014 213.643 98.1756 213.77 99.7515 213.751C104.682 213.741 109.549 212.638 114.002 210.521C115.077 210.008 116.123 209.437 117.137 208.811C119.802 214.55 124.054 219.406 129.39 222.806C134.726 226.206 140.924 228.009 147.252 228.001C153.563 227.993 159.743 226.189 165.067 222.799C170.391 219.41 174.641 214.574 177.319 208.859C178.364 208.906 179.409 209.001 180.502 209.001C183.59 209.004 186.668 208.637 189.669 207.909C197.173 206.041 203.922 201.912 209.002 196.081C211.675 193.053 213.855 189.623 215.462 185.916C220.191 192.447 227.137 197.031 235.002 198.812C242.866 200.593 251.11 199.449 258.192 195.594C265.273 191.738 270.709 185.435 273.481 177.863C276.253 170.291 276.173 161.969 273.255 154.452C270.848 160.722 266.596 166.114 261.061 169.916C255.525 173.719 248.967 175.753 242.252 175.751Z" fill="#44853B"/>
<path d="M256.569 136.293L256.355 136.326C255.362 142.894 251.968 148.86 246.832 153.071C241.695 157.282 235.179 159.44 228.544 159.126C224.272 159.183 220.039 158.299 216.146 156.538C212.253 154.778 208.794 152.183 206.015 148.937C204.633 151.759 202.797 154.334 200.581 156.561C196.134 161.028 190.488 164.11 184.326 165.434C181.793 165.979 179.209 166.253 176.617 166.251C175.696 166.251 174.817 166.18 173.938 166.142C172.537 168.813 170.656 171.204 168.39 173.196C162.941 177.971 155.923 180.572 148.678 180.501C145.982 180.504 143.298 180.156 140.693 179.466C137.043 178.544 133.621 176.883 130.639 174.585C127.657 172.288 125.178 169.403 123.355 166.109C122.515 166.584 121.636 166.997 120.719 167.391C116.925 168.988 112.851 169.812 108.735 169.814C107.412 169.828 106.09 169.733 104.783 169.529C100.654 169.068 96.6742 167.718 93.117 165.572C88.0209 162.585 84.1268 157.913 82.1065 152.362C75.9993 156.201 71.305 161.921 68.7305 168.659C71.1799 175.041 75.5351 180.514 81.204 184.334C85.3464 187.162 90.0993 188.969 95.074 189.607C96.6181 189.882 98.1843 190.014 99.7527 190.001C104.683 189.991 109.55 188.888 114.003 186.771C115.078 186.258 116.124 185.687 117.138 185.061C119.803 190.8 124.055 195.656 129.391 199.056C134.728 202.457 140.925 204.259 147.253 204.251C153.565 204.243 159.744 202.439 165.068 199.049C170.393 195.66 174.642 190.824 177.32 185.109C178.365 185.156 179.41 185.251 180.503 185.251C183.591 185.254 186.669 184.887 189.67 184.159C197.174 182.291 203.923 178.162 209.003 172.331C211.676 169.303 213.856 165.873 215.463 162.166C218.985 166.976 223.737 170.749 229.22 173.089C234.703 175.428 240.715 176.249 246.625 175.464C252.535 174.68 258.124 172.319 262.806 168.629C267.489 164.939 271.092 160.057 273.237 154.495C270.235 146.506 264.263 139.985 256.569 136.293Z" fill="#5CB34F"/>
<path d="M98.422 241.681C97.3626 239.712 96.5398 237.625 95.971 235.463L74.1542 226.101C73.2998 225.731 72.571 225.121 72.0559 224.346C71.5409 223.57 71.2616 222.662 71.252 221.731V216.458C69.6991 217.157 68.0744 217.682 66.407 218.026C64.8772 218.353 63.3163 218.512 61.752 218.501V221.731C61.7578 224.517 62.5773 227.241 64.1096 229.569C65.642 231.896 67.8206 233.725 70.378 234.831L96.5552 246.051C97.0671 246.271 97.6137 246.4 98.1702 246.431L101.87 246.626C100.548 245.105 99.3917 243.448 98.422 241.681Z" fill="#5D241D"/>
<path d="M133.002 224.728V234.081L122.899 237.463C122.265 237.677 121.683 238.022 121.192 238.476C120.701 238.931 120.311 239.484 120.049 240.099L124.4 241.966L130.969 244.778L139.253 242.004C140.199 241.689 141.021 241.085 141.604 240.276C142.187 239.468 142.501 238.497 142.502 237.501V227.659C139.195 227.212 135.986 226.222 133.002 224.728Z" fill="#5D241D"/>
<path d="M213.623 189.379C212.329 191.773 210.78 194.021 209.002 196.081C207.554 197.721 205.965 199.229 204.252 200.589V217.361C204.254 218.25 204.007 219.123 203.539 219.878C203.07 220.634 202.399 221.243 201.601 221.636L190.002 227.436V235.221C190.002 235.991 189.911 236.741 189.85 237.501H190.002C190.741 237.502 191.469 237.33 192.13 236.998L205.852 230.11C208.229 228.936 210.229 227.119 211.625 224.865C213.021 222.612 213.758 220.012 213.752 217.361V190.001C213.726 189.791 213.683 189.582 213.623 189.379Z" fill="#5D241D"/>
<path d="M155.042 285.001C152.845 285.002 150.716 284.241 149.016 282.849C147.317 281.456 146.153 279.517 145.722 277.363L142.502 261.251L108.155 244.075C107.058 243.527 106.135 242.685 105.49 241.642C104.844 240.599 104.502 239.397 104.502 238.171V234.608C104.502 232.856 105.198 231.175 106.437 229.936C107.676 228.697 109.357 228.001 111.109 228.001H114.002V210.521C109.549 212.638 104.682 213.741 99.752 213.751C98.1761 213.77 96.6018 213.643 95.0495 213.371L95.002 213.751V228.191C95.0187 233.77 96.6637 239.223 99.735 243.881C102.806 248.538 107.17 252.198 112.292 254.411L128.252 261.251V294.501H166.252L162.452 285.001H155.042Z" fill="#714226"/>
<path d="M189.669 207.909C186.668 208.637 183.59 209.004 180.502 209.001C179.409 209.001 178.364 208.906 177.319 208.859C175.692 212.359 173.456 215.543 170.717 218.264L171.002 218.501V235.839C170.994 237.733 170.42 239.582 169.354 241.148C168.287 242.714 166.777 243.925 165.017 244.626L147.252 251.751L156.752 270.751L167.078 264.861L166.485 263.978C165.139 261.957 164.618 259.497 165.028 257.104C165.439 254.711 166.751 252.566 168.693 251.11L174.802 246.526C176.572 245.199 178.008 243.478 178.998 241.499C179.987 239.52 180.502 237.338 180.502 235.126V228.001C180.502 225.482 181.503 223.065 183.284 221.284C185.066 219.502 187.482 218.501 190.002 218.501V209.001L189.669 207.909Z" fill="#714226"/>
<path d="M235.127 95.0008C230.854 94.9924 226.645 96.0365 222.872 98.0408C222.085 97.6596 221.276 97.3265 220.449 97.0433C216.787 95.6823 212.909 94.9905 209.002 95.0008C200.184 95.0008 191.726 98.5039 185.491 104.74C179.255 110.975 175.752 119.432 175.752 128.251C175.774 129.937 175.917 131.62 176.179 133.286C169.911 133.974 163.916 136.228 158.747 139.841C156.145 134.328 151.842 129.796 146.472 126.913C141.101 124.03 134.946 122.947 128.914 123.825C122.882 124.703 117.291 127.494 112.964 131.788C108.638 136.083 105.805 141.653 104.882 147.678L104.502 147.631V161.881L104.882 161.928C105.854 155.688 108.859 149.944 113.432 145.588C116.693 142.483 120.645 140.198 124.963 138.92C129.281 137.642 133.84 137.409 138.266 138.239C142.692 139.07 146.857 140.94 150.418 143.696C153.978 146.452 156.833 150.015 158.747 154.091C163.916 150.478 169.911 148.224 176.179 147.536C175.917 145.87 175.774 144.187 175.752 142.501C175.752 133.682 179.255 125.225 185.491 118.99C191.726 112.754 200.184 109.251 209.002 109.251C212.909 109.24 216.787 109.932 220.449 111.293C221.276 111.577 222.085 111.91 222.872 112.291C226.307 110.469 230.106 109.437 233.991 109.271C237.876 109.104 241.749 109.806 245.328 111.327C248.906 112.848 252.101 115.148 254.677 118.06C257.254 120.972 259.148 124.423 260.221 128.161C261.35 124.282 261.556 120.192 260.823 116.22C260.09 112.247 258.439 108.5 256.001 105.279C253.563 102.058 250.406 99.4506 246.782 97.6661C243.158 95.8815 239.167 94.9688 235.127 95.0008Z" fill="#8EE05B"/>
<path d="M195.141 82.6508C189.707 78.5427 183.394 75.7499 176.699 74.4915C170.003 73.2332 163.107 73.5435 156.552 75.3982C149.997 77.2529 143.96 80.6014 138.917 85.181C133.873 89.7607 129.959 95.4468 127.482 101.793C127.663 95.3998 120.661 91.3433 114.429 89.8898C104.583 87.6696 94.3049 88.3291 84.8226 91.7898C82.7914 92.7627 80.6647 93.522 78.4766 94.0555C76.0351 94.4023 73.5129 94.103 71.0381 94.5305C69.6174 94.785 68.2135 95.1261 66.8344 95.5518C66.6309 96.9426 66.5198 98.3453 66.5019 99.7508C66.4828 101.327 66.6101 102.901 66.8819 104.453C67.9938 112.377 71.9337 119.631 77.9748 124.878C84.0158 130.125 91.7505 133.01 99.7519 133.001C104.067 132.994 108.341 132.155 112.339 130.531C112.683 130.826 113.048 131.096 113.432 131.338C116.693 128.233 120.645 125.948 124.963 124.67C129.281 123.392 133.84 123.159 138.266 123.989C142.692 124.82 146.856 126.69 150.417 129.446C153.978 132.202 156.833 135.765 158.747 139.841C163.916 136.228 169.911 133.974 176.179 133.286C175.917 131.62 175.774 129.937 175.752 128.251C175.752 119.432 179.255 110.975 185.491 104.739C191.726 98.5039 200.183 95.0008 209.002 95.0008C212.909 94.9905 216.787 95.6823 220.449 97.0433C226.671 91.9891 230.85 84.8505 232.21 76.9508C226.078 74.5489 219.419 73.8111 212.909 74.8121C206.399 75.8131 200.269 78.5174 195.141 82.6508Z" fill="#44853B"/>
<path d="M223.669 48.451C222.102 48.451 220.534 48.3797 218.962 48.4842C208.589 48.8192 198.746 53.1445 191.483 60.5587C188.032 57.1267 183.91 54.4436 179.375 52.6773C174.84 50.911 169.989 50.0994 165.126 50.2933C160.263 50.4873 155.492 51.6825 151.112 53.8044C146.732 55.9262 142.837 58.929 139.67 62.625C136.087 59.6388 131.902 57.4597 127.4 56.236C122.899 55.0123 118.187 54.7727 113.584 55.5335C108.982 56.2943 104.597 58.0377 100.729 60.645C96.8611 63.2523 93.6001 66.6623 91.1681 70.643C88.5017 68.364 85.4121 66.6334 82.076 65.5501C78.7399 64.4669 75.2229 64.0524 71.7263 64.3302C64.7259 64.9317 58.008 67.3697 52.2513 71.3982C49.2644 73.4507 46.495 75.8031 43.9863 78.4187C45.4936 83.2144 48.4877 87.4062 52.5354 90.3873C56.5831 93.3684 61.4744 94.9842 66.5013 95.001C66.6438 95.001 66.7388 94.9535 66.8813 94.9535C66.8528 95.1482 66.8813 95.3477 66.8338 95.5425C68.213 95.1167 69.6168 94.7757 71.0376 94.5212C73.5123 94.0937 76.0346 94.393 78.4761 94.0462C80.6641 93.5127 82.7909 92.7534 84.8221 91.7805C94.3043 88.3198 104.582 87.6602 114.429 89.8805C120.661 91.3055 127.662 95.3905 127.482 101.784C129.96 95.4383 133.874 89.7531 138.918 85.1745C143.962 80.5959 149.999 77.2484 156.554 75.3946C163.109 73.5409 170.005 73.2314 176.7 74.4904C183.395 75.7494 189.707 78.5426 195.141 82.651C200.267 78.5209 206.393 75.8186 212.899 74.8177C219.405 73.8167 226.061 74.5527 232.191 76.951C233.131 71.8629 232.846 66.6241 231.359 61.6681C229.872 56.7121 227.226 52.1814 223.641 48.451H223.669Z" fill="#52A147"/>
<path d="M24.1367 189.232C25.1587 184.931 26.4582 180.701 28.0269 176.568C25.4642 175.946 23.2073 174.43 21.6619 172.293C19.751 169.908 18.4728 167.079 17.9456 164.068C17.4184 161.057 17.6592 157.962 18.6457 155.07C19.7357 152.169 21.6307 149.64 24.1082 147.778C25.3297 146.847 26.6802 146.098 28.1172 145.555C29.0672 145.199 32.0027 145.042 32.3352 144.202C32.6297 143.456 30.3022 140.136 29.9602 139.338C29.0971 137.471 28.3669 135.546 27.7752 133.576C26.5637 129.68 26.147 125.58 26.5497 121.52C26.7605 119.788 27.1554 118.082 27.7277 116.433C23.7018 118.357 20.301 121.378 17.917 125.15C15.5329 128.921 14.2624 133.289 14.2519 137.751C14.2519 138.416 14.3944 139.034 14.4419 139.651C10.1577 141.476 6.50451 144.52 3.93676 148.405C1.36901 152.29 0 156.844 0 161.501C0 166.158 1.36901 170.712 3.93676 174.597C6.50451 178.482 10.1577 181.526 14.4419 183.351C14.3944 183.969 14.2519 184.586 14.2519 185.251C14.2517 188.494 15.0847 191.682 16.6708 194.51C18.257 197.338 20.5432 199.711 23.3102 201.401C23.03 197.326 23.3081 193.232 24.1367 189.232Z" fill="#39632C"/>
<path d="M112.339 130.531C108.34 132.155 104.067 132.994 99.7511 133.001C91.7498 133.01 84.0151 130.125 77.9741 124.878C71.933 119.632 67.9931 112.377 66.8811 104.454L66.5011 104.501C62.7425 104.513 59.0718 105.64 55.9536 107.738C52.8353 109.837 50.4095 112.813 48.9831 116.291C50.4699 121.169 52.3984 125.924 54.3364 130.645C54.9634 132.184 55.5951 133.723 56.3504 135.205C57.526 137.729 59.0779 140.059 60.9531 142.116C59.0636 143.334 57.2836 144.713 55.6331 146.239C54.0321 147.866 52.632 149.68 51.4626 151.64C49.1278 155.567 47.6273 159.933 47.0546 164.465C46.2094 173.561 47.7637 182.719 51.5624 191.027C46.3766 194.35 42.4908 199.354 40.5566 205.201C42.4932 209.177 45.5055 212.531 49.2518 214.882C52.9981 217.233 57.3284 218.487 61.7511 218.501C63.3155 218.513 64.8764 218.353 66.4061 218.026C72.1382 216.892 77.2479 213.678 80.7511 209.001L81.1786 208.099C75.2623 204.123 70.7803 198.351 68.3936 191.634C66.0068 184.918 65.8417 177.612 67.9227 170.794C70.0036 163.977 74.2204 158.008 79.9511 153.769C85.6818 149.53 92.6231 147.245 99.7511 147.251C101.469 147.274 103.183 147.416 104.881 147.679C105.853 141.439 108.859 135.694 113.431 131.339C113.048 131.097 112.683 130.827 112.339 130.531Z" fill="#233D1B"/>
<path d="M51.5624 191.046C47.7637 182.738 46.2095 173.58 47.0547 164.484C47.6273 159.951 49.1279 155.586 51.4627 151.659C52.632 149.698 54.0322 147.885 55.6332 146.258C57.2836 144.732 59.0636 143.353 60.9532 142.135C59.078 140.078 57.526 137.747 56.3504 135.224C55.5952 133.742 54.9634 132.203 54.3364 130.664C52.3984 125.942 50.4699 121.164 48.9832 116.309C48.9214 116.452 48.8407 116.585 48.7837 116.727C45.5502 114.997 41.9482 114.069 38.2812 114.022C34.6141 113.975 30.9895 114.81 27.7127 116.457C27.1404 118.106 26.7455 119.811 26.5347 121.544C26.132 125.604 26.5487 129.703 27.7602 133.599C28.3519 135.569 29.0821 137.494 29.9452 139.361C30.3109 140.159 32.6384 143.479 32.3202 144.225C31.9877 145.066 29.0522 145.223 28.1022 145.579C26.6652 146.122 25.3147 146.871 24.0932 147.802C21.6156 149.663 19.7206 152.192 18.6307 155.093C17.6441 157.986 17.4033 161.081 17.9306 164.092C18.4578 167.102 19.736 169.931 21.6469 172.317C23.1923 174.454 25.4492 175.969 28.0119 176.592C26.4399 180.724 25.1373 184.954 24.1122 189.255C23.2936 193.248 23.0236 197.335 23.3094 201.401C26.2926 203.26 29.7363 204.247 33.2512 204.251C35.4049 204.216 37.5386 203.831 39.5687 203.111C39.8489 203.842 40.2147 204.536 40.5567 205.22C42.4909 199.373 46.3766 194.368 51.5624 191.046Z" fill="#2F5224"/>
<path d="M52.252 71.3982C56.6188 68.4187 61.5005 66.2751 66.6492 65.076C66.9967 59.0474 69.6334 53.3792 74.0204 49.2297C78.4074 45.0802 84.2134 42.7628 90.252 42.751C93.5077 42.7466 96.7281 43.4262 99.7045 44.746C104.07 37.3919 111.106 32.0072 119.345 29.7151C127.585 27.4229 136.391 28.4004 143.927 32.4435C147.673 29.0114 152.157 26.4862 157.034 25.0627C161.91 23.6393 167.049 23.3557 172.053 24.2338C177.056 25.112 181.791 27.1285 185.892 30.1275C189.992 33.1265 193.349 37.0278 195.702 41.5302C198.02 39.4735 199.502 38.001 199.502 38.001H199.122C199.37 36.4297 199.497 34.8417 199.502 33.251C199.515 26.8085 197.652 20.5016 194.142 15.0998C190.631 9.69809 185.623 5.43514 179.731 2.83124C173.838 0.227335 167.314 -0.60491 160.957 0.43607C154.599 1.47705 148.682 4.34623 143.927 8.69347C136.391 4.65036 127.585 3.67293 119.345 5.96506C111.106 8.2572 104.07 13.6419 99.7045 20.996C96.7281 19.6762 93.5077 18.9966 90.252 19.001C83.9531 19.001 77.9122 21.5032 73.4582 25.9572C69.0042 30.4112 66.502 36.4521 66.502 42.751C66.5142 44.3613 66.6732 45.9671 66.977 47.5485C66.8345 47.5485 66.692 47.501 66.502 47.501C60.2031 47.501 54.1622 50.0032 49.7082 54.4572C45.2542 58.9112 42.752 64.9521 42.752 71.251C42.7756 74.8222 43.6276 78.3392 45.241 81.5252C44.7472 80.5201 44.3234 79.4822 43.9727 78.4187C46.4859 75.8024 49.26 73.45 52.252 71.3982Z" fill="#7BC24F"/>
</svg>
