<svg width="170" height="123" viewBox="0 0 170 123" fill="none" xmlns="http://www.w3.org/2000/svg">
<path d="M169.2 60.7052C169.2 88.9052 130.284 100.693 81.028 99.8844C32.2608 99.1136 0 88.9616 0 60.7052C0 39.762 37.882 0 84.6 0C131.318 0 169.2 39.762 169.2 60.7052Z" fill="#5F7381"/>
<g opacity="0.1">
<path d="M98.3052 99.6212C92.6652 99.9032 87.0252 99.9784 81.028 99.8844C32.2608 99.1136 0 88.9616 0 60.7052C0 39.762 37.882 1.59187e-05 84.6 1.59187e-05C89.0078 -0.00272831 93.4087 0.349341 97.76 1.05281C57.2836 7.44482 26.32 41.7736 26.32 60.7052C26.32 87.1756 54.6328 97.7224 98.3052 99.6212Z" fill="black"/>
</g>
<path d="M17.8594 96.5193L83.8474 76.5537L149.647 96.4817C149.647 102.535 149.347 122.915 83.7346 122.915C18.7994 122.952 17.8594 102.573 17.8594 96.5193Z" fill="#5F7381"/>
<g opacity="0.1">
<path d="M125.301 118.815C115.713 121.316 102.365 122.951 83.7531 122.951C18.8555 122.951 17.9531 102.572 17.9531 96.5186L35.3055 91.2734C35.9823 99.8838 42.8255 119.191 110.167 119.191C115.544 119.191 120.601 119.06 125.301 118.815Z" fill="black"/>
</g>
<path d="M149.666 81.1601V97.0837L135.886 94.3013C102.028 87.4466 67.1489 87.3572 33.2566 94.0381L17.8594 97.0837V81.1789C17.8574 80.359 18.1361 79.5632 18.6492 78.9236C19.1622 78.284 19.8786 77.8393 20.6794 77.6633L33.2002 75.2005C67.0913 68.5133 101.97 68.5964 135.829 75.4449L146.733 77.6445C147.555 77.7976 148.297 78.2325 148.833 78.8743C149.368 79.516 149.663 80.3244 149.666 81.1601Z" fill="#404D57"/>
<path d="M84.5989 59.6336H83.9785C70.8185 57.7536 67.3969 46.9248 68.4309 38.258C68.5502 36.0103 67.8857 33.791 66.5509 31.9788L64.2949 29.1024L71.6645 21.7704L73.5445 21.8832C79.1845 22.2028 81.4405 19.8904 81.5345 19.7964L84.5989 16.3936L87.7009 19.834C87.7009 19.834 90.0697 22.1652 95.6345 21.8644L97.5145 21.7516L104.884 29.0836L102.628 31.96C101.306 33.7784 100.643 35.9932 100.748 38.2392C101.876 47.2819 98.3605 57.7536 85.1817 59.6336H84.5989Z" fill="#B9C5CC"/>
<path d="M100.391 30.1925C98.6457 32.5968 97.8006 35.538 98.0036 38.5021C98.4548 42.2621 98.8496 54.7829 84.8436 56.7757H84.4676C73.3004 55.1589 70.3112 46.2853 71.3076 38.5021C71.5187 35.5371 70.6728 32.5932 68.92 30.1925L68.168 29.2337L72.8868 24.5525H73.5072C80.5196 24.9285 83.5652 21.7137 83.678 21.5821L84.712 20.4541L85.746 21.6009C85.8588 21.7137 88.8856 24.9285 95.9168 24.5525H96.5372L101.256 29.2337L100.391 30.1925Z" fill="#293339"/>
</svg>
