<svg width="213" height="213" viewBox="0 0 213 213" fill="none" xmlns="http://www.w3.org/2000/svg">
<path d="M193.545 39.3433L176.459 212.099H34.5028L17.416 39.3433H45.3135C50.4329 27.647 58.8505 17.6964 69.5364 10.7089C80.2223 3.72138 92.7131 0 105.481 0C118.248 0 130.739 3.72138 141.425 10.7089C152.111 17.6964 160.529 27.647 165.648 39.3433H193.545Z" fill="#5F7381"/>
<path d="M48.3034 203.003L33.5615 53.9724H54.8766L58.7127 45.2128C62.691 36.1202 69.2336 28.3845 77.5398 22.9523C85.846 17.5201 95.5556 14.627 105.48 14.627C115.405 14.627 125.115 17.5201 133.421 22.9523C141.727 28.3845 148.27 36.1202 152.248 45.2128L156.084 53.9724H177.399L162.657 203.003H48.3034Z" fill="#B9C5CC"/>
<path d="M54.8766 59.8641L58.7127 51.1045C62.691 42.0119 69.2336 34.2762 77.5398 28.844C85.846 23.4118 95.5556 20.5187 105.48 20.5187C115.405 20.5187 125.115 23.4118 133.421 28.844C141.727 34.2762 148.27 42.0119 152.248 51.1045L156.084 59.8641H176.816L177.399 53.9724H156.084L152.248 45.2128C148.27 36.1202 141.727 28.3845 133.421 22.9523C125.115 17.5201 115.405 14.627 105.48 14.627C95.5556 14.627 85.846 17.5201 77.5398 22.9523C69.2336 28.3845 62.691 36.1202 58.7127 45.2128L54.8766 53.9724H33.5615L34.1443 59.8641H54.8766Z" fill="#91A3B0"/>
<path d="M178.426 192.177C174.61 193.731 170.936 193.677 168.172 191.325C164.067 183.118 168.858 170.37 176.466 169.268C160.117 172.172 144.45 181.019 131.799 194.489C128.557 170.437 120.314 158.377 112.53 151.662C113.173 159.467 114.411 167.024 112.682 174.558C110.953 182.092 108.549 189.202 102.418 190.169C100.681 186.37 100.327 175.861 100.776 171.506C95.7887 177.71 91.6882 184.579 88.5925 191.913C83.4043 174.942 74.2392 159.969 62.5724 149.397C66.1694 162.702 65.5024 177.78 60.7544 190.489C58.595 181.505 53.9618 169.488 48.8092 164.717C49.7047 174.08 46.0537 186.704 42.1706 194.758C40.6798 187.048 37.8349 179.663 33.7675 172.946C33.344 175.58 32.5404 178.139 31.3818 180.543L34.2338 209.378H176.725L178.426 192.177Z" fill="#91A3B0"/>
<path d="M48.3029 203.003H162.657L165.72 172.062C153.321 176.323 141.647 184.004 131.802 194.488C128.56 170.436 120.318 158.376 112.533 151.661C113.176 159.466 114.414 167.023 112.686 174.557C110.957 182.091 108.552 189.201 102.421 190.168C100.684 186.369 100.33 175.86 100.78 171.505C95.7921 177.709 91.6916 184.578 88.5959 191.912C83.4077 174.941 74.2426 159.968 62.5758 149.396C66.1728 162.701 65.5058 177.779 60.7578 190.488C58.5984 181.504 53.9652 169.487 48.8126 164.716C49.3557 170.394 48.2252 177.271 46.3867 183.601L48.3029 203.003Z" fill="#5F7381"/>
<path d="M95.5591 81.4933C95.5549 77.9399 94.1415 74.5333 91.6289 72.0207C89.1162 69.5081 85.7095 68.0948 82.1561 68.0908H65.2741C64.3042 68.0908 63.3741 68.4761 62.6883 69.1619C62.0025 69.8477 61.6172 70.7778 61.6172 71.7477V111.05C61.6172 112.02 62.0025 112.95 62.6883 113.636C63.3741 114.322 64.3042 114.707 65.2741 114.707C66.2439 114.707 67.1741 114.322 67.8599 113.636C68.5457 112.95 68.931 112.02 68.931 111.05V94.8958H76.311L87.2863 112.952C87.7919 113.776 88.6038 114.367 89.5442 114.595C90.4845 114.822 91.4767 114.668 92.3034 114.165C93.1301 113.663 93.724 112.853 93.955 111.913C94.186 110.974 94.0353 109.981 93.5359 109.153L84.7187 94.6494C87.7696 94.0512 90.5182 92.4124 92.4953 90.013C94.4723 87.6136 95.5552 84.6023 95.5591 81.4933ZM82.1561 87.582H68.931V75.4046H82.1561C82.9602 75.3976 83.7576 75.55 84.5025 75.8529C85.2473 76.1557 85.9248 76.6031 86.4959 77.1692C87.0669 77.7353 87.5201 78.4089 87.8295 79.1511C88.1388 79.8933 88.298 80.6895 88.298 81.4935C88.298 82.2976 88.1388 83.0937 87.8295 83.836C87.5201 84.5782 87.0669 85.2517 86.4959 85.8179C85.9248 86.384 85.2473 86.8314 84.5025 87.1342C83.7576 87.4371 82.9602 87.589 82.1561 87.582Z" fill="#293339"/>
<path d="M138.926 68.0905H122.044C121.074 68.0905 120.144 68.4758 119.458 69.1616C118.772 69.8474 118.387 70.7776 118.387 71.7474V111.05C118.387 112.02 118.772 112.95 119.458 113.636C120.144 114.321 121.074 114.707 122.044 114.707C123.013 114.707 123.944 114.321 124.629 113.636C125.315 112.95 125.7 112.02 125.7 111.05V94.8955H138.926C140.692 94.9058 142.444 94.5668 144.079 93.8979C145.714 93.2289 147.201 92.2433 148.454 90.9978C149.706 89.7522 150.701 88.2712 151.379 86.64C152.058 85.0087 152.407 83.2595 152.407 81.4928C152.407 79.7261 152.058 77.9769 151.379 76.3456C150.701 74.7144 149.706 73.2334 148.454 71.9878C147.201 70.7423 145.714 69.7567 144.079 69.0877C142.444 68.4188 140.692 68.0798 138.926 68.0901V68.0905ZM138.926 87.5822H125.7V75.4043H138.926C139.73 75.3973 140.527 75.5497 141.272 75.8526C142.017 76.1554 142.694 76.6028 143.265 77.1689C143.836 77.7351 144.29 78.4086 144.599 79.1508C144.908 79.8931 145.068 80.6892 145.068 81.4933C145.068 82.2973 144.908 83.0935 144.599 83.8357C144.29 84.5779 143.836 85.2515 143.265 85.8176C142.694 86.3837 142.017 86.8311 141.272 87.1339C140.527 87.4368 139.73 87.5892 138.926 87.5822Z" fill="#293339"/>
<path d="M105.109 68.0908C104.139 68.0908 103.209 68.4761 102.523 69.1619C101.837 69.8477 101.452 70.7778 101.452 71.7477V111.05C101.452 112.02 101.837 112.95 102.523 113.636C103.209 114.322 104.139 114.707 105.109 114.707C106.079 114.707 107.009 114.322 107.695 113.636C108.381 112.95 108.766 112.02 108.766 111.05V71.7477C108.766 70.7778 108.381 69.8477 107.695 69.1619C107.009 68.4761 106.079 68.0908 105.109 68.0908Z" fill="#293339"/>
<path d="M109.372 47.9296C109.709 48.0573 110.068 48.1173 110.428 48.1061C110.788 48.0949 111.143 48.0128 111.471 47.8644C111.799 47.716 112.095 47.5042 112.341 47.2412C112.588 46.9783 112.78 46.6693 112.906 46.332L117.604 33.8849L125.4 31.2117C126.019 30.9996 126.542 30.5732 126.874 30.0095L134.676 16.7693L144.061 12.5346C142.31 11.2602 140.494 10.0735 138.614 8.97461L131.627 12.1287C131.111 12.3617 130.68 12.7486 130.393 13.2363L122.663 26.3553L114.604 29.1181C114.222 29.2491 113.874 29.4628 113.584 29.7439C113.294 30.025 113.07 30.3667 112.928 30.7445L107.775 44.3994C107.519 45.0793 107.544 45.8329 107.843 46.4948C108.143 47.1566 108.693 47.6727 109.372 47.9296Z" fill="#91A3B0"/>
<path d="M126.816 19.3047L124.039 24.0175C125.753 24.6871 127.429 25.4488 129.061 26.2994L131.674 21.8654C130.102 20.9254 128.48 20.0706 126.816 19.3047Z" fill="#556875"/>
<path d="M173.598 92.4111L157.525 112.967L149.613 114.422C148.772 114.577 148.012 115.021 147.465 115.678C146.917 116.336 146.618 117.164 146.618 118.019V138.93L132.429 145.912C131.996 146.123 131.609 146.417 131.29 146.778C130.971 147.139 130.726 147.559 130.57 148.014C130.414 148.47 130.349 148.952 130.379 149.433C130.41 149.913 130.535 150.383 130.748 150.815C130.96 151.247 131.256 151.633 131.618 151.951C131.981 152.268 132.402 152.511 132.858 152.665C133.315 152.819 133.797 152.882 134.277 152.849C134.758 152.816 135.227 152.689 135.658 152.475L151.89 144.488C152.503 144.186 153.019 143.719 153.38 143.139C153.74 142.559 153.932 141.889 153.932 141.206V121.064L160.212 119.909C161.091 119.747 161.88 119.269 162.431 118.565L172.254 106.004L173.598 92.4111Z" fill="#5F7381"/>
<path d="M198.649 164.514C198.933 182.97 178.579 202.161 169.043 194.048C164.938 185.841 169.729 173.092 177.337 171.99C160.988 174.894 145.321 183.741 132.67 197.212C129.428 173.16 121.186 161.1 113.401 154.385C114.044 162.19 115.282 169.747 113.553 177.281C111.824 184.815 109.42 191.924 103.289 192.891C101.552 189.093 101.198 178.584 101.647 174.228C96.6598 180.433 92.5593 187.301 89.4635 194.636C84.2753 177.665 75.1102 162.692 63.4438 152.12C67.0408 165.425 66.3734 180.503 61.6254 193.212C59.4665 184.228 54.8328 172.21 49.6802 167.439C50.5757 176.803 46.9252 189.426 43.0416 197.481C41.5513 189.771 38.7063 182.385 34.6385 175.668C33.4258 183.231 29.1417 189.889 23.5485 192.904C21.7073 183.172 23.6436 172.405 28.6284 164.655C14.8374 167.412 0 188.308 0 212.099H212.1V198.752C210.993 178.315 205.59 170.873 198.649 164.514Z" fill="#005D31"/>
<path d="M198.649 168.967C198.933 187.423 178.578 206.614 169.043 198.501C167.717 195.668 167.243 192.51 167.679 189.413C167.237 185.56 167.961 181.664 169.757 178.227C156.181 182.215 143.35 190.292 132.67 201.665C129.49 178.072 121.498 166.023 113.847 159.232C114.222 163.153 114.553 167.021 114.383 170.867C114.591 174.51 114.312 178.165 113.553 181.734C111.824 189.268 109.42 196.378 103.288 197.344C101.799 194.087 101.327 185.894 101.506 180.88C101.485 180.203 101.473 179.54 101.471 178.9C96.5639 185.049 92.5236 191.842 89.4627 199.088C84.461 182.728 75.7576 168.237 64.6845 157.743C65.4982 162.401 65.8352 167.129 65.6902 171.855C66.0165 180.64 64.636 189.405 61.6251 197.665C59.4808 188.742 54.8946 176.83 49.7859 171.994C49.7759 172.238 49.7622 172.484 49.748 172.73C50.3605 181.997 46.8115 194.119 43.0426 201.934C41.5523 194.224 38.7073 186.838 34.6395 180.121C33.4268 187.684 29.1428 194.343 23.5496 197.358C22.9585 194.175 22.751 190.933 22.9316 187.701C22.5962 181.612 23.6162 175.524 25.9179 169.877C13.8346 174.291 1.7472 191.729 0.173828 212.099H212.099V203.203C210.993 182.77 205.589 175.327 198.649 168.967Z" fill="#009E3D"/>
</svg>
