<svg width="213" height="213" viewBox="0 0 213 213" fill="none" xmlns="http://www.w3.org/2000/svg">
<path d="M193.545 39.3433L176.459 212.099H34.5028L17.416 39.3433H45.3135C50.4329 27.647 58.8505 17.6964 69.5364 10.7089C80.2223 3.72138 92.7131 0 105.481 0C118.248 0 130.739 3.72138 141.425 10.7089C152.111 17.6964 160.529 27.647 165.648 39.3433H193.545Z" fill="#C1B39E"/>
<path d="M48.3024 203.003L33.5605 53.9724H54.8756L58.7117 45.2128C62.69 36.1202 69.2326 28.3845 77.5388 22.9523C85.845 17.5201 95.5546 14.627 105.479 14.627C115.404 14.627 125.114 17.5201 133.42 22.9523C141.726 28.3845 148.269 36.1202 152.247 45.2128L156.083 53.9724H177.398L162.656 203.003H48.3024Z" fill="#D4C5B2"/>
<path d="M54.8756 59.8641L58.7117 51.1045C62.69 42.0119 69.2326 34.2762 77.5388 28.844C85.845 23.4118 95.5546 20.5187 105.479 20.5187C115.404 20.5187 125.114 23.4118 133.42 28.844C141.726 34.2762 148.269 42.0119 152.247 51.1045L156.083 59.8641H176.816L177.398 53.9724H156.083L152.247 45.2128C148.269 36.1202 141.726 28.3845 133.42 22.9523C125.114 17.5201 115.404 14.627 105.479 14.627C95.5546 14.627 85.845 17.5201 77.5388 22.9523C69.2326 28.3845 62.69 36.1202 58.7117 45.2128L54.8756 53.9724H33.5605L34.1434 59.8641H54.8756Z" fill="#B39B7F"/>
<path d="M178.427 192.177C174.611 193.731 170.937 193.677 168.173 191.325C164.068 183.118 168.859 170.37 176.467 169.268C160.118 172.172 144.451 181.019 131.8 194.489C128.558 170.437 120.315 158.377 112.531 151.662C113.174 159.467 114.412 167.024 112.683 174.558C110.954 182.092 108.55 189.202 102.419 190.169C100.682 186.37 100.328 175.861 100.777 171.506C95.7897 177.71 91.6891 184.579 88.5935 191.913C83.4053 174.942 74.2402 159.969 62.5733 149.397C66.1703 162.702 65.5034 177.78 60.7554 190.489C58.596 181.505 53.9627 169.488 48.8102 164.717C49.7057 174.08 46.0547 186.704 42.1715 194.758C40.6808 187.048 37.8358 179.663 33.7685 172.946C33.345 175.58 32.5414 178.139 31.3828 180.543L34.2347 209.378H176.726L178.427 192.177Z" fill="#B39B7F"/>
<path d="M48.3029 203.003H162.657L165.72 172.061C153.321 176.322 141.647 184.004 131.802 194.488C128.56 170.435 120.318 158.376 112.533 151.661C113.176 159.466 114.414 167.023 112.686 174.557C110.957 182.091 108.552 189.2 102.421 190.167C100.684 186.369 100.33 175.86 100.78 171.504C95.7921 177.709 91.6916 184.577 88.5959 191.911C83.4077 174.941 74.2426 159.968 62.5758 149.396C66.1728 162.701 65.5058 177.779 60.7578 190.488C58.5984 181.504 53.9652 169.486 48.8126 164.716C49.3557 170.393 48.2252 177.271 46.3867 183.601L48.3029 203.003Z" fill="#C1B39E"/>
<path d="M95.5571 81.4938C95.553 77.9404 94.1396 74.5338 91.6269 72.0212C89.1142 69.5086 85.7075 68.0953 82.1542 68.0913H65.2721C64.3023 68.0913 63.3721 68.4766 62.6863 69.1624C62.0005 69.8482 61.6152 70.7783 61.6152 71.7482V111.051C61.6152 112.02 62.0005 112.951 62.6863 113.636C63.3721 114.322 64.3023 114.707 65.2721 114.707C66.242 114.707 67.1721 114.322 67.8579 113.636C68.5437 112.951 68.929 112.02 68.929 111.051V94.8963H76.3091L87.2843 112.952C87.79 113.777 88.6019 114.368 89.5422 114.595C90.4826 114.823 91.4747 114.668 92.3014 114.166C93.1281 113.663 93.722 112.853 93.953 111.914C94.184 110.974 94.0333 109.982 93.5339 109.153L84.7167 94.6499C87.7676 94.0516 90.5163 92.4129 92.4933 90.0135C94.4704 87.6141 95.5533 84.6028 95.5571 81.4938ZM82.1542 87.5825H68.929V75.4051H82.1542C82.9582 75.3981 83.7557 75.5505 84.5005 75.8533C85.2454 76.1562 85.9229 76.6036 86.4939 77.1697C87.0649 77.7358 87.5182 78.4094 87.8275 79.1516C88.1368 79.8938 88.2961 80.69 88.2961 81.494C88.2961 82.2981 88.1368 83.0942 87.8275 83.8364C87.5182 84.5786 87.0649 85.2522 86.4939 85.8183C85.9229 86.3844 85.2454 86.8318 84.5005 87.1347C83.7557 87.4376 82.9582 87.5895 82.1542 87.5825Z" fill="#3B3B3B"/>
<path d="M138.924 68.091H122.042C121.072 68.091 120.142 68.4763 119.456 69.1621C118.77 69.8479 118.385 70.778 118.385 71.7479V111.05C118.385 112.02 118.77 112.95 119.456 113.636C120.142 114.322 121.072 114.707 122.042 114.707C123.012 114.707 123.942 114.322 124.627 113.636C125.313 112.95 125.699 112.02 125.699 111.05V94.896H138.924C140.69 94.9063 142.442 94.5673 144.077 93.8984C145.712 93.2294 147.199 92.2438 148.452 90.9982C149.704 89.7527 150.699 88.2717 151.377 86.6404C152.056 85.0092 152.405 83.26 152.405 81.4933C152.405 79.7266 152.056 77.9773 151.377 76.3461C150.699 74.7149 149.704 73.2339 148.452 71.9883C147.199 70.7428 145.712 69.7572 144.077 69.0882C142.442 68.4193 140.69 68.0802 138.924 68.0906V68.091ZM138.924 87.5827H125.699V75.4048H138.924C139.728 75.3978 140.525 75.5502 141.27 75.8531C142.015 76.1559 142.692 76.6033 143.263 77.1694C143.834 77.7355 144.288 78.4091 144.597 79.1513C144.906 79.8935 145.066 80.6897 145.066 81.4937C145.066 82.2978 144.906 83.0939 144.597 83.8362C144.288 84.5784 143.834 85.252 143.263 85.8181C142.692 86.3842 142.015 86.8316 141.27 87.1344C140.525 87.4373 139.728 87.5897 138.924 87.5827Z" fill="#3B3B3B"/>
<path d="M105.108 68.0913C104.138 68.0913 103.208 68.4766 102.522 69.1624C101.836 69.8482 101.451 70.7783 101.451 71.7482V111.051C101.451 112.02 101.836 112.951 102.522 113.636C103.208 114.322 104.138 114.707 105.108 114.707C106.078 114.707 107.008 114.322 107.694 113.636C108.38 112.951 108.765 112.02 108.765 111.051V71.7482C108.765 70.7783 108.38 69.8482 107.694 69.1624C107.008 68.4766 106.078 68.0913 105.108 68.0913Z" fill="#3B3B3B"/>
<path d="M109.372 47.9301C109.709 48.0578 110.068 48.1178 110.428 48.1066C110.788 48.0954 111.143 48.0133 111.471 47.8648C111.799 47.7164 112.095 47.5047 112.341 47.2417C112.588 46.9788 112.78 46.6698 112.906 46.3325L117.604 33.8854L125.4 31.2122C126.019 31.0001 126.542 30.5737 126.874 30.01L134.676 16.7698L144.061 12.5351C142.31 11.2607 140.494 10.074 138.614 8.9751L131.627 12.1292C131.111 12.3622 130.68 12.749 130.393 13.2367L122.663 26.3558L114.604 29.1186C114.222 29.2496 113.874 29.4632 113.584 29.7444C113.294 30.0255 113.07 30.3672 112.928 30.745L107.775 44.3998C107.519 45.0798 107.544 45.8334 107.843 46.4953C108.143 47.1571 108.693 47.6731 109.372 47.9301Z" fill="#B39B7F"/>
<path d="M126.816 19.3052L124.039 24.018C125.753 24.6876 127.429 25.4493 129.061 26.2999L131.674 21.8659C130.102 20.9259 128.48 20.0711 126.816 19.3052Z" fill="#A2886C"/>
<path d="M173.597 92.4111L157.524 112.967L149.612 114.422C148.771 114.577 148.011 115.021 147.464 115.678C146.916 116.336 146.617 117.164 146.617 118.019V138.93L132.428 145.912C131.995 146.123 131.608 146.417 131.289 146.778C130.97 147.139 130.725 147.559 130.569 148.014C130.413 148.47 130.348 148.952 130.378 149.433C130.409 149.913 130.534 150.383 130.747 150.815C130.959 151.247 131.255 151.633 131.618 151.951C131.98 152.268 132.401 152.511 132.857 152.665C133.314 152.819 133.796 152.882 134.276 152.849C134.757 152.816 135.226 152.689 135.657 152.475L151.889 144.488C152.502 144.186 153.018 143.719 153.379 143.139C153.739 142.559 153.931 141.889 153.931 141.206V121.064L160.211 119.909C161.09 119.747 161.879 119.269 162.43 118.565L172.253 106.004L173.597 92.4111Z" fill="#C1B39E"/>
<path d="M198.649 164.514C198.933 182.97 178.579 202.161 169.043 194.047C164.938 185.84 169.729 173.092 177.337 171.989C160.988 174.894 145.321 183.741 132.67 197.211C129.428 173.159 121.186 161.1 113.401 154.384C114.044 162.189 115.282 169.746 113.553 177.28C111.824 184.815 109.42 191.924 103.289 192.891C101.552 189.093 101.198 178.583 101.647 174.227C96.6598 180.432 92.5593 187.301 89.4635 194.635C84.2753 177.664 75.1102 162.691 63.4438 152.12C67.0408 165.424 66.3734 180.503 61.6254 193.211C59.4665 184.228 54.8328 172.21 49.6802 167.439C50.5757 176.802 46.9252 189.426 43.0416 197.481C41.5513 189.77 38.7063 182.385 34.6385 175.667C33.4258 183.23 29.1417 189.888 23.5485 192.904C21.7073 183.172 23.6436 172.405 28.6284 164.655C14.8374 167.411 0 188.307 0 212.099H212.1V198.751C210.993 178.315 205.59 170.873 198.649 164.514Z" fill="#168F8F"/>
<path d="M198.649 168.967C198.933 187.423 178.578 206.614 169.043 198.501C167.717 195.668 167.243 192.51 167.679 189.413C167.237 185.56 167.961 181.664 169.757 178.227C156.181 182.215 143.35 190.292 132.67 201.665C129.49 178.072 121.498 166.023 113.847 159.232C114.222 163.153 114.553 167.021 114.383 170.867C114.591 174.51 114.312 178.165 113.553 181.734C111.824 189.268 109.42 196.378 103.288 197.344C101.799 194.087 101.327 185.894 101.506 180.88C101.485 180.203 101.473 179.54 101.471 178.9C96.5639 185.049 92.5236 191.842 89.4627 199.088C84.461 182.728 75.7576 168.237 64.6845 157.743C65.4982 162.401 65.8352 167.129 65.6902 171.855C66.0165 180.64 64.636 189.405 61.6251 197.665C59.4808 188.742 54.8946 176.83 49.7859 171.994C49.7759 172.238 49.7622 172.484 49.748 172.73C50.3605 181.997 46.8115 194.119 43.0426 201.934C41.5523 194.224 38.7073 186.838 34.6395 180.121C33.4268 187.684 29.1428 194.343 23.5496 197.358C22.9585 194.175 22.751 190.933 22.9316 187.701C22.5962 181.612 23.6162 175.524 25.9179 169.877C13.8346 174.291 1.7472 191.729 0.173828 212.099H212.099V203.203C210.993 182.77 205.589 175.327 198.649 168.967Z" fill="#25A3A3"/>
</svg>
