<svg width="170" height="123" viewBox="0 0 170 123" fill="none" xmlns="http://www.w3.org/2000/svg">
<path d="M169.6 60.7516C169.6 88.9516 130.684 100.739 81.4284 99.9308C32.6612 99.16 0.400391 89.008 0.400391 60.7516C0.400391 39.8084 38.2824 0.0463867 85.0004 0.0463867C131.718 0.0463867 169.6 39.8084 169.6 60.7516Z" fill="#4A7296"/>
<g opacity="0.1">
<path d="M98.7056 99.6676C93.0656 99.9496 87.4256 100.025 81.4284 99.9308C32.6612 99.16 0.400391 89.008 0.400391 60.7516C0.400391 39.8084 38.2824 0.0464026 85.0004 0.0464026C89.4082 0.0436584 93.8091 0.395728 98.1604 1.0992C57.684 7.4912 26.7204 41.82 26.7204 60.7516C26.7204 87.222 55.0332 97.7688 98.7056 99.6676Z" fill="black"/>
</g>
<path d="M18.2598 96.5657L84.2478 76.6001L150.048 96.5281C150.048 102.582 149.747 122.961 84.135 122.961C19.1998 122.999 18.2598 102.619 18.2598 96.5657Z" fill="#4A7296"/>
<g opacity="0.1">
<path d="M125.702 118.862C116.114 121.363 102.766 122.998 84.1535 122.998C19.2559 122.998 18.3535 102.619 18.3535 96.5655L35.7059 91.3203C36.3827 99.9307 43.2259 119.238 110.568 119.238C115.944 119.238 121.002 119.107 125.702 118.862Z" fill="black"/>
</g>
<path d="M150.067 81.206V97.1296L136.286 94.3472C102.429 87.4925 67.5493 87.4031 33.657 94.084L18.2598 97.1296V81.2248C18.2578 80.4049 18.5365 79.6091 19.0495 78.9695C19.5626 78.3299 20.279 77.8852 21.0798 77.7092L33.6006 75.2464C67.4917 68.5592 102.371 68.6423 136.23 75.4908L147.134 77.6904C147.955 77.8435 148.698 78.2784 149.233 78.9202C149.768 79.5619 150.063 80.3703 150.067 81.206Z" fill="#2C4053"/>
<path d="M84.9993 59.6799H84.3789C71.2189 57.7999 67.7973 46.9711 68.8313 38.3043C68.9506 36.0567 68.2861 33.8374 66.9513 32.0251L64.6953 29.1487L72.0649 21.8167L73.9449 21.9295C79.5849 22.2491 81.8409 19.9367 81.9349 19.8427L84.9993 16.4399L88.1013 19.8803C88.1013 19.8803 90.4701 22.2115 96.0349 21.9107L97.9149 21.7979L105.285 29.1299L103.029 32.0063C101.706 33.8248 101.043 36.0396 101.149 38.2855C102.277 47.3283 98.7609 57.7999 85.5821 59.6799H84.9993Z" fill="#FBB03B"/>
<path d="M100.792 30.2391C99.0461 32.6434 98.201 35.5846 98.404 38.5487C98.8552 42.3087 99.25 54.8295 85.244 56.8223H84.868C73.7008 55.2055 70.7116 46.3319 71.708 38.5487C71.919 35.5837 71.0732 32.6398 69.3204 30.2391L68.5684 29.2803L73.2872 24.5991H73.9076C80.92 24.9751 83.9656 21.7603 84.0784 21.6287L85.1124 20.5007L86.1464 21.6475C86.2592 21.7603 89.286 24.9751 96.3172 24.5991H96.9376L101.656 29.2803L100.792 30.2391Z" fill="#F7931E"/>
</svg>
