<svg width="277" height="277" viewBox="0 0 277 277" fill="none" xmlns="http://www.w3.org/2000/svg">
<path d="M128.79 4.02204C134.153 -1.34066 142.847 -1.3407 148.21 4.02204L272.978 128.79C278.341 134.153 278.341 142.847 272.978 148.21L148.21 272.978C142.847 278.34 134.153 278.34 128.79 272.978L4.02199 148.21C-1.34065 142.847 -1.34068 134.153 4.02199 128.79L128.79 4.02204Z" fill="#005D31"/>
<path d="M128.79 24.6207C134.153 19.2579 142.848 19.2579 148.211 24.6207L252.38 128.79C257.743 134.153 257.743 142.848 252.38 148.211L148.211 252.38C142.848 257.742 134.153 257.742 128.79 252.38L24.6207 148.211C19.2579 142.848 19.2579 134.153 24.6207 128.79L128.79 24.6207Z" fill="#009E3D"/>
<path d="M127.094 96.9733C134.592 96.9733 140.669 90.8992 140.669 83.4066C140.669 75.9139 134.592 69.8398 127.094 69.8398C119.597 69.8398 113.52 75.9139 113.52 83.4066C113.52 90.8992 119.597 96.9733 127.094 96.9733Z" fill="#F6F7F9"/>
<path d="M146.092 99.4259L116.748 107.9C115.68 108.448 114.744 109.286 114.07 110.383L105.282 124.688C104.373 126.167 102.931 127.242 101.254 127.692L85.1711 131.998C81.5503 132.968 79.4012 136.688 80.3717 140.306C81.3419 143.925 85.0637 146.072 88.6845 145.103L104.767 140.796C109.8 139.448 114.124 136.224 116.85 131.786L121.449 124.301L121.459 124.336C123.548 131.625 124.608 139.169 124.608 146.75V157.128L116.791 164.23C112.545 168.087 110.125 173.555 110.125 179.288V203.812C110.125 207.558 113.164 210.595 116.913 210.595C120.661 210.595 123.7 207.558 123.7 203.812V179.288C123.7 177.377 124.507 175.554 125.922 174.269L136.336 164.808L142.654 164.807L146.768 178.036C147.747 181.188 149.479 184.054 151.815 186.387L168.11 202.673C170.761 205.322 175.058 205.322 177.709 202.673C180.36 200.024 180.36 195.729 177.709 193.08L161.413 176.794C160.635 176.016 160.058 175.061 159.731 174.01L155.152 159.282L155.152 146.75C155.152 135.857 153.459 125.132 150.462 114.676L159.404 118.406C161.931 119.46 163.577 121.929 163.577 124.666V139.37C163.577 143.116 166.616 146.153 170.364 146.153C174.113 146.153 177.152 143.116 177.152 139.37V124.666C177.152 116.456 172.215 109.049 164.633 105.887L150.071 99.8114C148.763 99.2659 147.382 99.1598 146.092 99.4259Z" fill="#F6F7F9"/>
</svg>
