<svg width="277" height="277" viewBox="0 0 277 277" fill="none" xmlns="http://www.w3.org/2000/svg">
<path d="M128.79 4.02204C134.153 -1.34066 142.847 -1.3407 148.21 4.02204L272.978 128.79C278.341 134.153 278.341 142.847 272.978 148.21L148.21 272.978C142.847 278.34 134.153 278.34 128.79 272.978L4.02199 148.21C-1.34065 142.847 -1.34068 134.153 4.02199 128.79L128.79 4.02204Z" fill="#B9BFCA"/>
<path d="M128.791 24.6205C134.154 19.2577 142.849 19.2577 148.212 24.6205L252.381 128.79C257.744 134.153 257.744 142.848 252.381 148.21L148.212 252.379C142.849 257.742 134.154 257.742 128.791 252.379L24.6217 148.21C19.2589 142.848 19.2589 134.153 24.6217 128.79L128.791 24.6205Z" fill="#407BFF"/>
<path d="M127.094 96.9731C134.592 96.9731 140.669 90.899 140.669 83.4063C140.669 75.9137 134.592 69.8396 127.094 69.8396C119.597 69.8396 113.52 75.9137 113.52 83.4063C113.52 90.899 119.597 96.9731 127.094 96.9731Z" fill="#EFF0F2"/>
<path d="M146.092 99.4254L116.748 107.899C115.68 108.447 114.744 109.285 114.07 110.383L105.282 124.688C104.373 126.167 102.931 127.242 101.254 127.691L85.1711 131.998C81.5503 132.967 79.4012 136.687 80.3717 140.305C81.3419 143.924 85.0637 146.072 88.6845 145.102L104.767 140.795C109.8 139.448 114.124 136.224 116.85 131.786L121.449 124.3L121.459 124.336C123.548 131.624 124.608 139.168 124.608 146.75V157.127L116.791 164.23C112.545 168.087 110.125 173.554 110.125 179.288V203.811C110.125 207.558 113.164 210.595 116.913 210.595C120.661 210.595 123.7 207.558 123.7 203.811V179.288C123.7 177.377 124.507 175.554 125.922 174.268L136.336 164.807L142.654 164.807L146.768 178.036C147.747 181.187 149.479 184.053 151.815 186.387L168.11 202.673C170.761 205.322 175.058 205.322 177.709 202.673C180.36 200.023 180.36 195.729 177.709 193.079L161.413 176.794C160.635 176.016 160.058 175.06 159.731 174.01L155.152 159.282L155.152 146.75C155.152 135.857 153.459 125.132 150.462 114.675L159.404 118.406C161.931 119.46 163.577 121.929 163.577 124.666V139.369C163.577 143.116 166.616 146.153 170.364 146.153C174.113 146.153 177.152 143.116 177.152 139.369V124.666C177.152 116.455 172.215 109.049 164.633 105.886L150.071 99.8109C148.763 99.2654 147.382 99.1593 146.092 99.4254Z" fill="#EFF0F2"/>
</svg>
