<svg width="199" height="199" viewBox="0 0 199 199" fill="none" xmlns="http://www.w3.org/2000/svg">
<path d="M120.975 16.2918C113.871 12.1986 106.768 20.3835 99.6621 16.2918C99.6621 12.5023 99.6621 8.71274 99.6621 4.92319C106.768 9.01638 113.871 0.831517 120.975 4.92319V16.2918Z" fill="#009E3D"/>
<path d="M99.6621 43.9745C98.0452 43.9745 96.7334 42.6627 96.7334 41.0458V2.9287C96.7334 1.31177 98.0452 0 99.6621 0C101.281 0 102.592 1.31177 102.592 2.9287V41.0458C102.592 42.6627 101.281 43.9745 99.6621 43.9745Z" fill="#91A3B0"/>
<path d="M6.92188 86.335H192.242V195.095C192.242 197.252 190.495 198.999 188.337 198.999H10.8268C8.66938 198.999 6.92188 197.252 6.92188 195.095V86.335Z" fill="#B9C5CC"/>
<path d="M176.229 86.335V195.095C176.229 197.252 174.482 198.999 172.324 198.999H188.337C190.495 198.999 192.242 197.252 192.242 195.095V86.335H176.229Z" fill="#B9C5CC"/>
<path d="M109.151 199H90.0137V161.053C90.0137 158.259 91.2328 155.605 93.3553 153.788C96.9384 150.717 102.226 150.717 105.81 153.788C107.931 155.605 109.151 158.259 109.151 161.053V199Z" fill="#91A3B0"/>
<path d="M129.85 102.559H141.567V190.435H129.85V102.559Z" fill="#4A5B66"/>
<path d="M57.9863 102.559H69.7042V190.435H57.9863V102.559Z" fill="#4A5B66"/>
<path d="M193.432 87.1159H5.33968C3.67872 87.1159 2.33203 85.7692 2.33203 84.1083V73.3621C2.33203 71.7012 3.67872 70.3545 5.33968 70.3545H193.432C195.093 70.3545 196.44 71.7012 196.44 73.3621V84.1083C196.441 85.7692 195.095 87.1159 193.432 87.1159Z" fill="#4A5B66"/>
<path d="M193.433 70.3525H177.812C179.472 70.3525 180.819 71.6992 180.819 73.3617V84.1079C180.819 85.7688 179.472 87.1155 177.812 87.1155H193.433C195.094 87.1155 196.44 85.7688 196.44 84.1079V73.3617C196.442 71.6992 195.095 70.3525 193.433 70.3525Z" fill="#4A5B66"/>
<path d="M48.6143 101.16V87.1318H150.549V101.16C150.549 102.472 149.487 103.535 148.176 103.535H50.9873C49.677 103.535 48.6143 102.472 48.6143 101.16Z" fill="#91A3B0"/>
<path d="M12.3408 70.337L36.2578 53.0427C37.2127 52.3534 38.362 51.9814 39.5402 51.9814H159.624C160.803 51.9814 161.952 52.3534 162.907 53.0427L186.824 70.337H12.3408Z" fill="#B9C5CC"/>
<path d="M97.2742 30.1054L37.6846 70.3374H161.479L101.89 30.1054C100.494 29.1641 98.6695 29.1641 97.2742 30.1054Z" fill="#4A5B66"/>
<path d="M108.174 126.578C108.174 131.324 104.328 135.171 99.582 135.171C94.836 135.171 90.9902 131.324 90.9902 126.578C90.9902 121.834 94.836 117.986 99.582 117.986C104.328 117.986 108.174 121.834 108.174 126.578Z" fill="#F6F7F9"/>
<path d="M78.6862 199H48.6143V190.162C48.6143 189.219 49.3779 188.454 50.3208 188.454H76.9797C77.9225 188.454 78.6862 189.219 78.6862 190.162V199Z" fill="#91A3B0"/>
<path d="M150.549 199H120.478V190.162C120.478 189.219 121.241 188.454 122.184 188.454H148.843C149.786 188.454 150.549 189.219 150.549 190.162V199Z" fill="#91A3B0"/>
<path d="M172.064 135.933V114.563C172.064 111.632 169.689 109.258 166.759 109.258C163.829 109.258 161.454 111.632 161.454 114.563V135.933H172.064Z" fill="#F6F7F9"/>
<path d="M172.064 178.505V157.134C172.064 154.204 169.689 151.829 166.759 151.829C163.829 151.829 161.454 154.204 161.454 157.134V178.505H172.064Z" fill="#F6F7F9"/>
<path d="M36.9288 135.933V114.563C36.9288 111.632 34.5543 109.258 31.6241 109.258C28.6939 109.258 26.3193 111.632 26.3193 114.563V135.933H36.9288Z" fill="#F6F7F9"/>
<path d="M36.9288 178.505V157.134C36.9288 154.204 34.5543 151.829 31.6241 151.829C28.6939 151.829 26.3193 154.204 26.3193 157.134V178.505H36.9288Z" fill="#F6F7F9"/>
</svg>
