<svg width="199" height="199" viewBox="0 0 199 199" fill="none" xmlns="http://www.w3.org/2000/svg">
<path d="M120.975 16.2923C113.871 12.1991 106.768 20.384 99.6621 16.2923C99.6621 12.5028 99.6621 8.71322 99.6621 4.92368C106.768 9.01687 113.871 0.832006 120.975 4.92368V16.2923Z" fill="#FD9C98"/>
<path d="M99.6631 43.9745C98.0461 43.9745 96.7344 42.6627 96.7344 41.0458V2.9287C96.7344 1.31177 98.0461 0 99.6631 0C101.282 0 102.593 1.31177 102.593 2.9287V41.0458C102.593 42.6627 101.282 43.9745 99.6631 43.9745Z" fill="#BD8B8C"/>
<path d="M6.92188 86.335H192.242V195.095C192.242 197.252 190.495 198.999 188.337 198.999H10.8268C8.66938 198.999 6.92188 197.252 6.92188 195.095V86.335Z" fill="#FDEDD3"/>
<path d="M176.229 86.335V195.095C176.229 197.252 174.482 198.999 172.324 198.999H188.337C190.495 198.999 192.242 197.252 192.242 195.095V86.335H176.229Z" fill="#FAE3BE"/>
<path d="M109.151 199H90.0137V161.053C90.0137 158.259 91.2328 155.605 93.3553 153.788C96.9384 150.717 102.226 150.717 105.81 153.788C107.931 155.605 109.151 158.259 109.151 161.053V199Z" fill="#BD8B8C"/>
<path d="M129.85 102.559H141.567V190.435H129.85V102.559Z" fill="#FEDBA8"/>
<path d="M57.9863 102.559H69.7042V190.435H57.9863V102.559Z" fill="#FEDBA8"/>
<path d="M193.432 87.1154H5.33968C3.67872 87.1154 2.33203 85.7688 2.33203 84.1078V73.3617C2.33203 71.7007 3.67872 70.354 5.33968 70.354H193.432C195.093 70.354 196.44 71.7007 196.44 73.3617V84.1078C196.441 85.7688 195.095 87.1154 193.432 87.1154Z" fill="#BD8B8C"/>
<path d="M193.432 70.3525H177.811C179.472 70.3525 180.818 71.6992 180.818 73.3617V84.1079C180.818 85.7688 179.472 87.1155 177.811 87.1155H193.432C195.093 87.1155 196.439 85.7688 196.439 84.1079V73.3617C196.441 71.6992 195.094 70.3525 193.432 70.3525Z" fill="#AE7374"/>
<path d="M48.6152 101.161V87.1323H150.55V101.161C150.55 102.473 149.488 103.535 148.177 103.535H50.9883C49.678 103.535 48.6152 102.473 48.6152 101.161Z" fill="#956465"/>
<path d="M12.3398 70.3375L36.2568 53.0432C37.2118 52.3539 38.3611 51.9819 39.5392 51.9819H159.623C160.802 51.9819 161.951 52.3539 162.906 53.0432L186.823 70.3375H12.3398Z" fill="#FDEDD3"/>
<path d="M97.2752 30.1054L37.6855 70.3374H161.48L101.891 30.1054C100.495 29.1641 98.6705 29.1641 97.2752 30.1054Z" fill="#FEDBA8"/>
<path d="M108.174 126.578C108.174 131.324 104.328 135.171 99.582 135.171C94.836 135.171 90.9902 131.324 90.9902 126.578C90.9902 121.833 94.836 117.986 99.582 117.986C104.328 117.986 108.174 121.833 108.174 126.578Z" fill="#9CBEE4"/>
<path d="M78.6871 199H48.6152V190.162C48.6152 189.219 49.3789 188.454 50.3217 188.454H76.9806C77.9235 188.454 78.6871 189.219 78.6871 190.162V199Z" fill="#956465"/>
<path d="M150.55 199H120.479V190.162C120.479 189.219 121.242 188.454 122.185 188.454H148.844C149.787 188.454 150.55 189.219 150.55 190.162V199Z" fill="#956465"/>
<path d="M172.063 135.933V114.563C172.063 111.632 169.688 109.258 166.758 109.258C163.828 109.258 161.453 111.632 161.453 114.563V135.933H172.063Z" fill="#9CBEE4"/>
<path d="M172.063 178.505V157.134C172.063 154.204 169.688 151.83 166.758 151.83C163.828 151.83 161.453 154.204 161.453 157.134V178.505H172.063Z" fill="#9CBEE4"/>
<path d="M36.9279 135.933V114.563C36.9279 111.632 34.5533 109.258 31.6231 109.258C28.6929 109.258 26.3184 111.632 26.3184 114.563V135.933H36.9279Z" fill="#9CBEE4"/>
<path d="M36.9279 178.505V157.134C36.9279 154.204 34.5533 151.83 31.6231 151.83C28.6929 151.83 26.3184 154.204 26.3184 157.134V178.505H36.9279Z" fill="#9CBEE4"/>
</svg>
