<svg width="238" height="299" viewBox="0 0 238 299" fill="none" xmlns="http://www.w3.org/2000/svg">
<path d="M229.016 0H8.75977C3.92204 0 0 3.92204 0 8.75977V290.24C0 295.078 3.92204 299 8.75977 299H229.016C233.854 299 237.776 295.078 237.776 290.24V8.75977C237.776 3.92204 233.854 0 229.016 0Z" fill="#005D31"/>
<path d="M114.525 0H8.75977C3.92204 0 0 3.92204 0 8.75977V290.24C0 295.078 3.92204 299 8.75977 299H114.525V0Z" fill="#036235"/>
<path d="M198.213 32.8018H39.5635C36.3387 32.8018 33.7236 35.4163 33.7236 38.6416V260.358C33.7236 263.584 36.3387 266.198 39.5635 266.198H198.213C201.438 266.198 204.053 263.584 204.053 260.358V38.6416C204.053 35.4163 201.438 32.8018 198.213 32.8018Z" fill="#009E3D"/>
<path d="M204.053 136.329V38.6416C204.053 35.4163 201.438 32.8018 198.213 32.8018H39.5635C36.3387 32.8018 33.7236 35.4163 33.7236 38.6416V136.329H204.053Z" fill="#AEE3E8"/>
<path d="M114.525 32.8018H39.5635C36.3387 32.8018 33.7236 35.4163 33.7236 38.6416V136.329H114.525V32.8018Z" fill="#DBF9FF"/>
<path d="M161.155 143.503C158.548 129.91 155.94 116.318 153.334 102.725C151.749 94.4632 150.231 86.0959 147.422 78.5748C143.519 68.1203 137.116 59.3033 124.531 54.7032C110.746 49.664 93.9406 53.5002 84.3159 64.5813C79.2896 70.368 76.3311 77.6544 74.0676 84.9776C67.9755 104.69 63.8368 158.21 63.8368 158.21C58.2253 158.611 52.7306 159.481 47.529 162.906C38.9894 168.529 33.7236 178.256 33.7236 188.483C33.7236 189.776 33.7236 260.359 33.7236 260.359C33.7236 263.585 36.3387 266.199 39.5635 266.199H198.213C201.438 266.199 204.053 263.585 204.053 260.359V184.194L161.155 143.503Z" fill="#404D57"/>
<path d="M114.525 52.6053C103.3 51.8467 91.6963 56.0835 84.3159 64.581C79.2896 70.3677 76.3311 77.6541 74.0676 84.9773C67.9755 104.69 63.8368 158.21 63.8368 158.21C58.2253 158.611 52.7306 159.481 47.529 162.906C38.9894 168.529 33.7236 178.256 33.7236 188.483C33.7236 189.776 33.7236 260.359 33.7236 260.359C33.7236 263.584 36.3387 266.199 39.5635 266.199H114.525V52.6053Z" fill="#295561"/>
<path d="M203.541 179.877C202.223 176.934 198.769 175.616 195.824 176.935C175.899 185.859 158.506 199.856 145.524 217.413L135.394 231.114C133.477 233.707 134.025 237.364 136.618 239.282C137.663 240.054 138.88 240.426 140.086 240.426C141.875 240.426 143.641 239.606 144.787 238.057L154.916 224.357C159.312 218.411 164.267 212.917 169.688 207.941L170.089 207.581C179.113 199.376 189.415 192.603 200.6 187.594C203.542 186.276 204.86 182.821 203.541 179.877Z" fill="#EEAA38"/>
<path d="M138.645 151.148C138.645 151.148 137.833 127.044 137.769 125.271C137.235 110.498 136.98 94.7452 129.979 81.3398C125.814 73.3632 118.978 66.4751 110.393 63.78C97.6623 59.7838 85.0739 66.9306 79.7439 78.6774C76.1512 86.5963 75.3039 96.1859 77.3566 105.68C79.4093 115.175 84.1442 123.558 90.6878 129.284C93.6912 131.913 96.9218 133.855 100.258 135.086C99.5118 138.767 97.3177 142.06 94.076 144.152C94.0352 144.178 93.9943 144.205 93.9534 144.231C84.6283 150.207 77.2152 158.733 72.8838 168.926L71.0244 173.303L87.4869 191.774L124.026 197.797L140.851 187.066L138.645 151.148Z" fill="#FFD2BF"/>
<path d="M114.525 65.4568C113.199 64.7911 111.82 64.2269 110.393 63.779C97.6623 59.7828 85.0739 66.9296 79.7439 78.6765C76.1512 86.5953 75.3039 96.1849 77.3566 105.679C79.4093 115.174 84.1442 123.557 90.6878 129.283C93.6912 131.912 96.9218 133.854 100.258 135.085C99.5118 138.766 97.3177 142.059 94.076 144.151C94.0351 144.177 93.9943 144.204 93.9534 144.23C84.6283 150.206 77.2152 158.732 72.8838 168.925L71.0244 173.302L87.4869 191.773L112.188 195.844L114.525 196.23L114.525 65.4568Z" fill="#FFD2BF"/>
<path d="M124.736 192.351C97.2867 193.496 84.345 182.345 78.5916 174.193L77.9539 173.073C76.6819 170.84 73.3842 171.1 72.4784 173.505L71.6246 175.771C70.209 179.53 71.0687 183.772 73.8531 186.667C74.221 187.049 74.6012 187.432 74.9936 187.814C82.7659 195.38 96.9374 204.111 120.94 204.111C122.26 204.111 123.61 204.085 124.99 204.03C128.119 203.906 130.758 201.443 130.818 198.312C130.884 194.915 128.111 192.21 124.736 192.351Z" fill="#0B8149"/>
<path d="M81.7071 161.368C79.4605 158.843 75.5945 158.615 73.0682 160.86C64.1887 168.753 59.7417 180.506 61.1719 192.3L61.6256 196.039C62.0327 199.394 65.0822 201.784 68.4367 201.378C71.7911 200.971 74.1813 197.922 73.7748 194.567L73.3211 190.827C72.3739 183.017 75.3189 175.234 81.1985 170.007C83.7248 167.762 83.9525 163.894 81.7071 161.368Z" fill="#EEAA38"/>
<path d="M77.4422 214.456C76.3209 211.268 72.8252 209.59 69.6407 210.711C66.4527 211.831 64.7755 215.323 65.895 218.512L67.4251 222.868C68.3945 225.627 71.1416 227.255 73.9295 226.917C74.3634 226.864 74.7979 226.764 75.2265 226.614C78.4145 225.493 80.0917 222.001 78.9722 218.812L77.4422 214.456Z" fill="#EEAA38"/>
<path d="M152.014 246.096C147.022 237.015 137.487 231.089 127.135 230.627L98.5812 229.356C95.3594 229.213 92.631 231.709 92.4873 234.931C92.3437 238.154 94.8402 240.881 98.0621 241.025L126.616 242.296C132.925 242.576 138.737 246.189 141.78 251.724C142.576 253.172 143.897 254.15 145.375 254.549C146.783 254.929 148.333 254.786 149.711 254.028C152.537 252.473 153.568 248.923 152.014 246.096Z" fill="#FFD2BF"/>
<path d="M114.528 230.066L98.5822 229.356C95.3604 229.213 92.632 231.709 92.4883 234.931C92.3447 238.154 94.8412 240.881 98.063 241.025L114.528 241.758L114.528 230.066Z" fill="#FFD2BF"/>
<path d="M181.48 158.365C180.162 155.421 176.708 154.103 173.763 155.422C153.837 164.347 136.444 178.343 123.463 195.9L113.333 209.601C111.416 212.195 111.963 215.852 114.557 217.769C115.602 218.541 116.818 218.913 118.025 218.913C119.813 218.913 121.58 218.094 122.725 216.544L132.855 202.844C137.25 196.898 142.205 191.404 147.627 186.429L148.027 186.068C157.052 177.863 167.354 171.09 178.538 166.081C181.481 164.763 182.798 161.308 181.48 158.365Z" fill="#EEAA38"/>
</svg>
