<svg width="238" height="299" viewBox="0 0 238 299" fill="none" xmlns="http://www.w3.org/2000/svg">
<path d="M229.016 0H8.75977C3.92204 0 0 3.92204 0 8.75977V290.24C0 295.078 3.92204 299 8.75977 299H229.016C233.854 299 237.776 295.078 237.776 290.24V8.75977C237.776 3.92204 233.854 0 229.016 0Z" fill="#995231"/>
<path d="M114.525 0H8.75977C3.92204 0 0 3.92204 0 8.75977V290.24C0 295.078 3.92204 299 8.75977 299H114.525V0Z" fill="#C77D3C"/>
<path d="M198.214 32.8018H39.5645C36.3397 32.8018 33.7246 35.4163 33.7246 38.6416V260.358C33.7246 263.584 36.3397 266.198 39.5645 266.198H198.214C201.439 266.198 204.054 263.584 204.054 260.358V38.6416C204.054 35.4163 201.439 32.8018 198.214 32.8018Z" fill="#F0B400"/>
<path d="M114.526 32.8018H39.5645C36.3397 32.8018 33.7246 35.4163 33.7246 38.6416V260.358C33.7246 263.584 36.3397 266.198 39.5645 266.198H114.526V32.8018Z" fill="#FFD23D"/>
<path d="M204.054 136.329V38.6416C204.054 35.4163 201.439 32.8018 198.214 32.8018H39.5645C36.3397 32.8018 33.7246 35.4163 33.7246 38.6416V136.329H204.054Z" fill="#AEE3E8"/>
<path d="M114.526 32.8018H39.5645C36.3397 32.8018 33.7246 35.4163 33.7246 38.6416V136.329H114.526V32.8018Z" fill="#DBF9FF"/>
<path d="M161.156 143.502C158.549 129.91 155.941 116.317 153.335 102.725C151.75 94.4627 150.232 86.0954 147.423 78.5743C143.52 68.1198 137.117 59.3028 124.532 54.7027C110.747 49.6635 93.9416 53.4997 84.3169 64.5808C79.2906 70.3675 76.3321 77.6539 74.0686 84.9771C67.9765 104.689 63.8378 158.209 63.8378 158.209C58.2263 158.611 52.7315 159.481 47.53 162.906C38.9904 168.528 33.7246 178.256 33.7246 188.482C33.7246 189.776 33.7246 260.359 33.7246 260.359C33.7246 263.584 36.3397 266.199 39.5645 266.199H198.214C201.439 266.199 204.054 263.584 204.054 260.359V184.193L161.156 143.502Z" fill="#141F24"/>
<path d="M114.526 52.6048C103.301 51.8462 91.6973 56.083 84.3169 64.5806C79.2906 70.3673 76.3321 77.6536 74.0686 84.9768C67.9765 104.689 63.8378 158.209 63.8378 158.209C58.2263 158.61 52.7315 159.48 47.53 162.905C38.9904 168.528 33.7246 178.255 33.7246 188.482C33.7246 189.776 33.7246 260.358 33.7246 260.358C33.7246 263.584 36.3397 266.198 39.5645 266.198H114.526V52.6048Z" fill="#295561"/>
<path d="M203.541 179.878C202.223 176.935 198.769 175.616 195.824 176.935C175.899 185.86 158.506 199.857 145.524 217.414L135.394 231.114C133.477 233.708 134.025 237.365 136.618 239.282C137.663 240.054 138.88 240.426 140.086 240.426C141.875 240.426 143.641 239.607 144.787 238.057L154.916 224.357C159.312 218.412 164.267 212.917 169.688 207.942L170.089 207.581C179.113 199.377 189.415 192.604 200.6 187.594C203.542 186.277 204.86 182.821 203.541 179.878Z" fill="#FF9B30"/>
<path d="M138.646 151.148C138.646 151.148 137.834 127.044 137.77 125.271C137.236 110.498 136.981 94.7452 129.98 81.3398C125.815 73.3632 118.979 66.4751 110.394 63.78C97.6633 59.7838 85.0749 66.9306 79.7449 78.6774C76.1522 86.5963 75.3048 96.1859 77.3575 105.68C79.4102 115.175 84.1452 123.558 90.6887 129.284C93.6922 131.913 96.9228 133.855 100.258 135.086C99.5127 138.767 97.3187 142.06 94.077 144.152C94.0361 144.178 93.9952 144.205 93.9544 144.231C84.6293 150.207 77.2162 158.733 72.8848 168.926L71.0254 173.303L87.4879 191.774L124.027 197.797L140.852 187.066L138.646 151.148Z" fill="#FFD23D"/>
<path d="M114.526 65.4573C113.2 64.7915 111.821 64.2274 110.394 63.7795C97.6633 59.7833 85.0749 66.9301 79.7449 78.6769C76.1522 86.5958 75.3048 96.1854 77.3575 105.68C79.4102 115.174 84.1452 123.557 90.6887 129.284C93.6922 131.912 96.9228 133.854 100.258 135.086C99.5127 138.767 97.3187 142.059 94.077 144.152C94.0361 144.178 93.9952 144.204 93.9544 144.23C84.6293 150.206 77.2162 158.732 72.8848 168.926L71.0254 173.303L87.4879 191.773L112.189 195.845L114.526 196.23L114.526 65.4573Z" fill="#FFE280"/>
<path d="M124.736 192.351C97.2867 193.496 84.345 182.344 78.5916 174.192L77.9539 173.072C76.6819 170.839 73.3842 171.1 72.4784 173.505L71.6246 175.771C70.209 179.53 71.0687 183.772 73.8531 186.666C74.221 187.049 74.6012 187.432 74.9936 187.813C82.7659 195.379 96.9374 204.111 120.94 204.111C122.26 204.111 123.61 204.084 124.99 204.029C128.119 203.906 130.758 201.443 130.818 198.312C130.884 194.914 128.111 192.21 124.736 192.351Z" fill="#C77D3C"/>
<path d="M81.7071 161.368C79.4605 158.843 75.5945 158.615 73.0682 160.86C64.1887 168.753 59.7417 180.506 61.1719 192.3L61.6256 196.039C62.0327 199.394 65.0822 201.784 68.4367 201.378C71.7911 200.971 74.1813 197.922 73.7748 194.567L73.3211 190.827C72.3739 183.017 75.3189 175.234 81.1985 170.007C83.7248 167.762 83.9525 163.894 81.7071 161.368Z" fill="#FF9B30"/>
<path d="M77.4412 214.456C76.3199 211.268 72.8242 209.59 69.6397 210.711C66.4518 211.831 64.7746 215.323 65.8941 218.512L67.4241 222.868C68.3935 225.627 71.1406 227.255 73.9285 226.917C74.3624 226.864 74.7969 226.764 75.2255 226.614C78.4135 225.493 80.0907 222.001 78.9712 218.812L77.4412 214.456Z" fill="#FF9B30"/>
<path d="M152.015 246.096C147.023 237.015 137.488 231.089 127.136 230.627L98.5822 229.356C95.3604 229.213 92.632 231.709 92.4883 234.931C92.3447 238.154 94.8412 240.881 98.063 241.025L126.617 242.296C132.926 242.576 138.738 246.189 141.781 251.724C142.577 253.172 143.898 254.15 145.376 254.549C146.784 254.929 148.334 254.786 149.712 254.028C152.538 252.473 153.569 248.923 152.015 246.096Z" fill="#FFD23D"/>
<path d="M114.528 230.066L98.5822 229.357C95.3604 229.214 92.632 231.709 92.4883 234.932C92.3447 238.154 94.8412 240.882 98.063 241.026L114.528 241.758L114.528 230.066Z" fill="#FFE280"/>
<path d="M181.481 158.364C180.163 155.421 176.709 154.102 173.764 155.422C153.838 164.346 136.445 178.343 123.464 195.9L113.334 209.601C111.417 212.194 111.964 215.851 114.558 217.768C115.603 218.54 116.819 218.912 118.026 218.912C119.814 218.912 121.581 218.093 122.726 216.544L132.856 202.843C137.251 196.898 142.206 191.404 147.628 186.428L148.028 186.067C157.053 177.863 167.355 171.09 178.539 166.08C181.482 164.763 182.799 161.308 181.481 158.364Z" fill="#FF9B30"/>
</svg>
