<svg width="183" height="183" viewBox="0 0 183 183" fill="none" xmlns="http://www.w3.org/2000/svg">
<g clip-path="url(#clip0_1655_11583)">
<path fill-rule="evenodd" clip-rule="evenodd" d="M182.875 29.1604C182.875 21.4491 179.813 14.0548 174.361 8.60267C168.909 3.1505 161.515 0.0888672 153.803 0.0888672C121.07 0.0888672 61.8934 0.0888672 29.1604 0.0888672C21.4491 0.0888672 14.0548 3.1505 8.60267 8.60267C3.1505 14.0548 0.0888672 21.4491 0.0888672 29.1604V153.803C0.0888672 161.515 3.1505 168.909 8.60267 174.361C14.0548 179.813 21.4491 182.875 29.1604 182.875H153.803C161.515 182.875 168.909 179.813 174.361 174.361C179.813 168.909 182.875 161.515 182.875 153.803V29.1604Z" fill="#00362E"/>
<path fill-rule="evenodd" clip-rule="evenodd" d="M174.307 34.8727C174.307 27.9183 171.545 21.2523 166.63 16.3342C161.712 11.419 155.046 8.65723 148.091 8.65723H34.8722C27.9178 8.65723 21.2518 11.419 16.3337 16.3342C11.4185 21.2523 8.65674 27.9183 8.65674 34.8727V148.092C8.65674 155.046 11.4185 161.712 16.3337 166.63C21.2518 171.545 27.9178 174.307 34.8722 174.307H148.091C155.046 174.307 161.712 171.545 166.63 166.63C171.545 161.712 174.307 155.046 174.307 148.092V34.8727ZM168.595 34.8727V148.092C168.595 153.53 166.435 158.745 162.588 162.589C158.744 166.436 153.529 168.595 148.091 168.595H34.8722C29.4343 168.595 24.2193 166.436 20.375 162.589C16.528 158.745 14.3688 153.53 14.3688 148.092V34.8727C14.3688 29.4348 16.528 24.2197 20.375 20.3755C24.2193 16.5284 29.4343 14.3693 34.8722 14.3693H148.091C153.529 14.3693 158.744 16.5284 162.588 20.3755C166.435 24.2197 168.595 29.4348 168.595 34.8727ZM57.2093 42.9296V150.745H74.3455V111.474H91.4817C100.572 111.474 109.289 107.864 115.715 101.435C122.144 95.0094 125.754 86.2928 125.754 77.202C125.754 58.2751 110.409 42.9296 91.4817 42.9296H57.2093ZM74.3455 94.3382H91.4817C96.0257 94.3382 100.384 92.5333 103.6 89.3202C106.813 86.1043 108.618 81.746 108.618 77.202C108.618 67.7371 100.947 60.0658 91.4817 60.0658H74.3455V94.3382Z" fill="white"/>
</g>
<defs>
<clipPath id="clip0_1655_11583">
<rect width="183" height="183" fill="white"/>
</clipPath>
</defs>
</svg>
