<svg width="183" height="183" viewBox="0 0 183 183" fill="none" xmlns="http://www.w3.org/2000/svg">
<g clip-path="url(#clip0_1406_12)">
<path fill-rule="evenodd" clip-rule="evenodd" d="M182.876 29.1604C182.876 21.4491 179.814 14.0548 174.362 8.60267C168.91 3.1505 161.516 0.0888672 153.804 0.0888672C121.071 0.0888672 61.8944 0.0888672 29.1614 0.0888672C21.4501 0.0888672 14.0558 3.1505 8.60364 8.60267C3.15148 14.0548 0.0898438 21.4491 0.0898438 29.1604V153.803C0.0898438 161.515 3.15148 168.909 8.60364 174.361C14.0558 179.813 21.4501 182.875 29.1614 182.875H153.804C161.516 182.875 168.91 179.813 174.362 174.361C179.814 168.909 182.876 161.515 182.876 153.803V29.1604Z" fill="#407BFF"/>
<path fill-rule="evenodd" clip-rule="evenodd" d="M174.308 34.8722C174.308 27.9178 171.546 21.2518 166.631 16.3337C161.713 11.4185 155.047 8.65674 148.093 8.65674H34.8737C27.9193 8.65674 21.2533 11.4185 16.3352 16.3337C11.42 21.2518 8.6582 27.9178 8.6582 34.8722V148.091C8.6582 155.046 11.42 161.712 16.3352 166.63C21.2533 171.545 27.9193 174.307 34.8737 174.307H148.093C155.047 174.307 161.713 171.545 166.631 166.63C171.546 161.712 174.308 155.046 174.308 148.091V34.8722ZM168.596 34.8722V148.091C168.596 153.529 166.437 158.744 162.59 162.588C158.746 166.435 153.531 168.595 148.093 168.595H34.8737C29.4358 168.595 24.2207 166.435 20.3765 162.588C16.5294 158.744 14.3703 153.529 14.3703 148.091V34.8722C14.3703 29.4343 16.5294 24.2193 20.3765 20.375C24.2207 16.528 29.4358 14.3688 34.8737 14.3688H148.093C153.531 14.3688 158.746 16.528 162.59 20.375C166.437 24.2193 168.596 29.4343 168.596 34.8722ZM57.2108 42.9291V150.744H74.347V111.474H91.4832C100.574 111.474 109.291 107.864 115.717 101.435C122.146 95.0089 125.756 86.2923 125.756 77.2016C125.756 58.2746 110.41 42.9291 91.4832 42.9291H57.2108ZM74.347 94.3378H91.4832C96.0271 94.3378 100.385 92.5328 103.601 89.3197C106.814 86.1038 108.619 81.7455 108.619 77.2016C108.619 67.7367 100.948 60.0653 91.4832 60.0653H74.347V94.3378Z" fill="white"/>
</g>
<defs>
<clipPath id="clip0_1406_12">
<rect width="183" height="183" fill="white"/>
</clipPath>
</defs>
</svg>
