<svg width="238" height="189" viewBox="0 0 238 189" fill="none" xmlns="http://www.w3.org/2000/svg">
<path d="M12.2796 53.2052L10.5196 34.9506C10.2826 32.365 11.0076 29.7829 12.5558 27.6986C14.1039 25.6142 16.3665 24.1741 18.9102 23.654C36.3165 20.1435 53.4538 15.4113 70.195 9.49236L73.6741 8.18262L77.767 53.2052H12.2796Z" fill="#404D57"/>
<path d="M4.09375 159.622V122.65C4.09375 97.9206 12.2797 89.6774 12.2797 69.0693V53.205L63.7937 42.2072C66.4995 41.6541 68.9001 40.1079 70.5228 37.8732C72.1454 35.6384 72.8725 32.8771 72.5608 30.133L69.9495 6.46339C69.8497 5.57529 70.1026 4.68353 70.6538 3.98004C71.205 3.27656 72.0103 2.8176 72.8965 2.70195L93.7215 0.082456C96.1683 -0.221708 98.6455 0.321077 100.741 1.62051C102.836 2.91994 104.424 4.89767 105.239 7.22468L127.538 70.1417C132.092 83.0652 140.539 94.2602 151.717 102.187C162.894 110.114 176.252 114.383 189.955 114.407H210.502C213.506 114.418 216.48 115.02 219.251 116.18C222.023 117.34 224.539 119.034 226.656 121.166C228.773 123.298 230.45 125.827 231.589 128.607C232.729 131.387 233.31 134.364 233.3 137.369V159.622H4.09375Z" fill="#EEAA38"/>
<path d="M159.626 107.027V118.692C159.62 120.861 158.755 122.939 157.222 124.473C155.688 126.007 153.609 126.872 151.44 126.878H90.046C63.8919 126.878 51.1219 138.543 45.3099 147.015H4.09375V122.662C4.09375 97.9408 12.2797 89.673 12.2797 69.0854V53.2047L58.8167 43.2588C64.1784 50.6671 83.8656 72.196 122.299 55.374L127.538 70.1495C133.183 86.0592 144.65 99.2372 159.626 107.027Z" fill="#EEAA38"/>
<path d="M159.627 155.529C202.603 155.529 224.857 146.319 233.3 141.715C233.725 141.49 234.2 141.378 234.68 141.391C235.16 141.404 235.628 141.54 236.04 141.787C236.452 142.034 236.793 142.384 237.03 142.801C237.267 143.219 237.392 143.69 237.393 144.171V167.885C237.394 169.234 237.062 170.563 236.426 171.752C235.79 172.942 234.869 173.956 233.747 174.704C226.752 179.403 209.152 188.272 175.999 188.272H117.134C116.374 188.272 115.629 188.06 114.983 187.66C114.337 187.26 113.815 186.689 113.475 186.009L111.506 182.08C111.201 181.468 110.747 180.943 110.187 180.552C109.626 180.161 108.977 179.916 108.297 179.841L76.9492 176.358C76.0183 176.254 75.0801 176.474 74.2913 176.979C73.5024 177.484 72.9107 178.244 72.6148 179.133L70.5028 185.473C70.2313 186.288 69.71 186.997 69.0128 187.5C68.3156 188.002 67.478 188.273 66.6186 188.272H16.3734C12.6556 188.358 8.98225 187.451 5.7317 185.645C3.95476 184.571 2.49048 183.05 1.485 181.234C0.47952 179.418 -0.0319811 177.369 0.00154851 175.294V143.368C-0.00267112 142.86 0.106729 142.358 0.321747 141.897C0.536765 141.437 0.851965 141.03 1.2443 140.708C1.63663 140.385 2.09616 140.154 2.5893 140.031C3.08245 139.909 3.59672 139.898 4.09451 140C55.3387 150.03 107.411 155.229 159.627 155.529Z" fill="#DF7C0E"/>
<path d="M128.521 72.728L108.015 81.5278C107.509 81.7382 106.967 81.8493 106.419 81.8553C105.476 81.8535 104.563 81.5263 103.834 80.929C103.104 80.3317 102.604 79.5009 102.416 78.5771C102.228 77.6532 102.365 76.6929 102.804 75.8583C103.242 75.0238 103.956 74.3663 104.823 73.9968L125.738 65.0332L127.539 70.1494C127.825 71.0089 128.153 71.8685 128.521 72.728Z" fill="#404D57"/>
<path d="M135.93 86.3164L121.154 97.4083C120.442 97.9322 119.583 98.2186 118.698 98.2269C118.064 98.2228 117.438 98.0731 116.871 97.7892C116.303 97.5054 115.808 97.095 115.424 96.5897C115.102 96.1597 114.867 95.6704 114.734 95.1497C114.6 94.629 114.571 94.0872 114.647 93.5551C114.723 93.023 114.903 92.5111 115.177 92.0486C115.45 91.5861 115.813 91.182 116.243 90.8595L131.591 79.3174C132.862 81.7546 134.312 84.094 135.93 86.3164Z" fill="#404D57"/>
<path d="M146.653 98.186L136.952 111.406C136.563 111.916 136.061 112.329 135.486 112.613C134.911 112.897 134.279 113.044 133.637 113.043C132.77 113.05 131.923 112.777 131.222 112.266C130.786 111.949 130.417 111.55 130.135 111.09C129.854 110.631 129.666 110.12 129.582 109.588C129.498 109.055 129.52 108.512 129.647 107.988C129.774 107.464 130.004 106.971 130.322 106.536L140.759 92.374C142.61 94.423 144.578 96.3636 146.653 98.186Z" fill="#404D57"/>
</svg>
