<svg width="409" height="409" viewBox="0 0 409 409" fill="none" xmlns="http://www.w3.org/2000/svg">
<path d="M296.756 389.272C293.568 389.272 290.981 386.685 290.981 383.498V139.334C290.981 136.147 293.568 133.56 296.756 133.56C299.943 133.56 302.53 136.147 302.53 139.334V383.498C302.53 386.685 299.946 389.272 296.756 389.272Z" fill="#404D57"/>
<path d="M302.53 139.334V159.844H290.981V139.334C290.981 136.147 293.568 133.56 296.756 133.56C299.946 133.56 302.53 136.147 302.53 139.334Z" fill="#404D57"/>
<path d="M242.051 19.7283C221.112 19.7283 204.076 36.7643 204.076 57.7051C204.076 78.6459 221.112 95.682 242.051 95.682C262.991 95.682 280.027 78.6459 280.027 57.7051C280.027 36.7643 262.991 19.7283 242.051 19.7283Z" fill="#FDD7AD"/>
<path d="M280.027 57.7051C280.027 58.4822 280.003 59.2569 279.958 60.022C278.757 79.8874 262.214 95.682 242.051 95.682C221.112 95.682 204.076 78.6459 204.076 57.7051C204.076 46.5731 208.89 36.543 216.548 29.5876C223.294 23.4646 232.244 19.7283 242.051 19.7283C262.991 19.7283 280.027 36.7643 280.027 57.7051Z" fill="#FDD7AD"/>
<path d="M260.99 288.708V363.844C260.99 377.865 249.584 389.272 235.562 389.272C221.539 389.272 210.132 377.865 210.132 363.844V305.177L186.162 279.26L177.978 305.41C177.792 306.007 177.511 306.57 177.143 307.075L130.81 370.975C126.826 376.472 120.937 380.091 114.227 381.159C112.874 381.376 111.518 381.482 110.173 381.482C104.856 381.482 99.6878 379.817 95.2971 376.634C88.7218 371.868 84.793 364.164 84.793 356.032C84.793 350.643 86.4699 345.487 89.6384 341.118L137.116 275.637L148.111 192.795L199.327 215.117L209.959 219.765L209.319 221.743L216.363 229.36L253.457 269.464C258.317 274.718 260.99 281.553 260.99 288.708Z" fill="#556875"/>
<path d="M142.671 190.426L199.327 215.117L209.959 219.765L223.807 177.037L234.331 191.643C238.009 196.78 243.973 199.845 250.289 199.845H304.209C315.238 199.845 324.212 190.873 324.212 179.842C324.212 168.816 315.238 159.844 304.209 159.844H272.584C270.57 159.844 268.67 158.865 267.498 157.229L232.127 107.824C230.135 105.046 227.729 102.618 224.977 100.604C222.224 98.5931 219.181 97.0389 215.928 95.9827C207.772 93.3387 199.077 94.0315 191.443 97.9267C190.308 98.5065 189.215 99.1465 188.171 99.8466C188.171 99.8466 161.942 130.608 152.199 155.114C142.455 179.621 142.671 190.426 142.671 190.426Z" fill="#C83A32"/>
<path d="M188.101 115.559L187.327 117.953C187.283 118.09 187.233 118.225 187.177 118.355C187.163 118.396 187.146 118.437 187.127 118.475C186.891 119.029 186.679 119.596 186.492 120.176L183.694 128.806L181.985 134.08C181.976 134.118 181.964 134.154 181.949 134.191L180.131 139.803L161.988 195.788C161.928 195.981 161.855 196.169 161.774 196.351C161.475 197.03 161.151 197.687 160.802 198.327C158.769 202.044 155.913 205.092 152.557 207.332C152.42 207.423 152.28 207.515 152.14 207.604C150.156 208.876 148.005 209.868 145.755 210.556C143.335 211.297 140.799 211.684 138.227 211.684C135.218 211.684 132.162 211.152 129.186 210.036L101.497 199.645C88.5819 194.802 81.7997 180.73 86.0533 167.608L91.9598 149.384L93.6318 144.223C93.6367 144.204 93.6439 144.187 93.6487 144.17L95.5229 138.389L111.433 89.2944C113.622 82.5387 118.35 77.123 124.745 74.0411C131.14 70.9592 138.321 70.6344 144.966 73.1269L172.658 83.5179C180.349 86.4049 185.866 92.564 188.171 99.8466C189.737 104.791 189.821 110.252 188.101 115.559Z" fill="#EEAA38"/>
<path d="M136.271 123.46L129.915 121.09C126.927 119.977 125.406 116.652 126.52 113.664C127.634 110.675 130.959 109.155 133.947 110.269L140.304 112.639C143.292 113.753 144.812 117.077 143.698 120.066C142.587 123.054 139.26 124.574 136.271 123.46Z" fill="#E9EDF5"/>
<path d="M183.693 128.806L181.985 134.08C181.976 134.118 181.964 134.154 181.949 134.19L180.13 139.803L152.624 129.554C149.638 128.44 148.115 125.115 149.229 122.127C150.343 119.139 153.67 117.619 156.656 118.733L183.693 128.806Z" fill="#E9EDF5"/>
<path d="M141.391 155.48L147.747 157.85C150.735 158.964 152.256 162.289 151.142 165.277C150.028 168.265 146.703 169.786 143.715 168.672L137.358 166.302C134.37 165.188 132.85 161.863 133.964 158.875C135.078 155.887 138.403 154.366 141.391 155.48Z" fill="#E9EDF5"/>
<path d="M128.433 156.813C127.319 159.801 123.992 161.322 121.006 160.208L91.96 149.384L93.632 144.223C93.6369 144.204 93.6441 144.187 93.6489 144.17L95.5231 138.389L125.038 149.386C128.027 150.5 129.547 153.825 128.433 156.813Z" fill="#E9EDF5"/>
</svg>
