<svg width="238" height="189" viewBox="0 0 238 189" fill="none" xmlns="http://www.w3.org/2000/svg">
<path d="M12.2786 53.205L10.5187 34.9503C10.2817 32.3648 11.0066 29.7827 12.5548 27.6983C14.1029 25.614 16.3655 24.1739 18.9092 23.6538C36.3155 20.1433 53.4529 15.411 70.1941 9.49212L73.6731 8.18237L77.766 53.205H12.2786Z" fill="#37353F"/>
<path d="M4.09375 159.622V122.65C4.09375 97.9206 12.2797 89.6774 12.2797 69.0693V53.205L63.7937 42.2072C66.4995 41.6541 68.9001 40.1079 70.5228 37.8732C72.1454 35.6384 72.8725 32.8771 72.5608 30.133L69.9495 6.46339C69.8497 5.57529 70.1026 4.68353 70.6538 3.98004C71.205 3.27656 72.0103 2.8176 72.8965 2.70195L93.7215 0.082456C96.1683 -0.221708 98.6455 0.321077 100.741 1.62051C102.836 2.91994 104.424 4.89767 105.239 7.22468L127.538 70.1417C132.092 83.0652 140.539 94.2602 151.717 102.187C162.894 110.114 176.252 114.383 189.955 114.407H210.502C213.506 114.418 216.48 115.02 219.251 116.18C222.023 117.34 224.539 119.034 226.656 121.166C228.773 123.298 230.45 125.827 231.589 128.607C232.729 131.387 233.31 134.364 233.3 137.369V159.622H4.09375Z" fill="#FCCC54"/>
<path d="M159.626 107.027V118.692C159.62 120.861 158.755 122.94 157.222 124.473C155.688 126.007 153.609 126.872 151.44 126.878H90.046C63.8919 126.878 51.1219 138.543 45.3099 147.016H4.09375V122.663C4.09375 97.941 12.2797 89.6732 12.2797 69.0856V53.2049L58.8167 43.259C64.1784 50.6673 83.8656 72.1963 122.299 55.3742L127.538 70.1498C133.183 86.0595 144.65 99.2374 159.626 107.027Z" fill="#F2B549"/>
<path d="M159.627 155.529C202.603 155.529 224.857 146.32 233.3 141.715C233.725 141.49 234.2 141.379 234.68 141.392C235.16 141.404 235.628 141.541 236.04 141.788C236.452 142.035 236.793 142.384 237.03 142.802C237.267 143.219 237.392 143.691 237.393 144.171V167.886C237.394 169.235 237.062 170.563 236.426 171.753C235.79 172.943 234.869 173.957 233.747 174.705C226.752 179.403 209.152 188.273 175.999 188.273H117.134C116.374 188.272 115.629 188.06 114.983 187.661C114.337 187.261 113.815 186.689 113.475 186.009L111.506 182.08C111.201 181.469 110.747 180.944 110.187 180.552C109.626 180.161 108.977 179.917 108.297 179.841L76.9492 176.358C76.0183 176.255 75.0801 176.474 74.2913 176.979C73.5024 177.484 72.9107 178.245 72.6148 179.133L70.5028 185.473C70.2313 186.289 69.71 186.998 69.0128 187.5C68.3156 188.003 67.478 188.273 66.6186 188.273H16.3734C12.6556 188.359 8.98225 187.452 5.7317 185.645C3.95476 184.572 2.49048 183.051 1.485 181.234C0.47952 179.418 -0.0319811 177.37 0.00154851 175.294V143.369C-0.00267112 142.861 0.106729 142.358 0.321747 141.898C0.536765 141.437 0.851965 141.031 1.2443 140.708C1.63663 140.385 2.09616 140.154 2.5893 140.032C3.08245 139.909 3.59672 139.899 4.09451 140C55.3387 150.031 107.411 155.23 159.627 155.529Z" fill="#C68A3C"/>
<path d="M128.519 72.7285L108.013 81.5283C107.507 81.7387 106.965 81.8498 106.417 81.8558C105.474 81.854 104.561 81.5268 103.832 80.9295C103.102 80.3322 102.602 79.5014 102.414 78.5776C102.226 77.6537 102.363 76.6934 102.802 75.8588C103.24 75.0243 103.954 74.3668 104.821 73.9973L125.736 65.0337L127.537 70.1499C127.823 71.0094 128.151 71.8689 128.519 72.7285Z" fill="#37353F"/>
<path d="M135.928 86.3171L121.152 97.409C120.44 97.9329 119.581 98.2193 118.696 98.2276C118.062 98.2235 117.437 98.0738 116.869 97.79C116.301 97.5061 115.806 97.0957 115.422 96.5904C115.1 96.1604 114.865 95.6711 114.732 95.1504C114.598 94.6298 114.569 94.0879 114.645 93.5558C114.721 93.0237 114.901 92.5118 115.175 92.0493C115.448 91.5868 115.811 91.1828 116.241 90.8603L131.589 79.3181C132.86 81.7553 134.31 84.0947 135.928 86.3171Z" fill="#37353F"/>
<path d="M146.652 98.1868L136.952 111.407C136.562 111.917 136.06 112.33 135.485 112.614C134.91 112.897 134.278 113.045 133.636 113.044C132.769 113.051 131.922 112.778 131.221 112.267C130.785 111.95 130.416 111.551 130.134 111.091C129.853 110.632 129.665 110.121 129.581 109.589C129.497 109.056 129.52 108.512 129.647 107.989C129.774 107.465 130.003 106.971 130.321 106.536L140.758 92.3748C142.609 94.4237 144.577 96.3643 146.652 98.1868Z" fill="#37353F"/>
</svg>
