<svg width="546" height="342" viewBox="0 0 546 342" fill="none" xmlns="http://www.w3.org/2000/svg">
<path d="M332.401 232.903H436.822L389.322 321.901" stroke="#B9C5CC" stroke-miterlimit="10"/>
<path d="M532.239 249.731L436.839 232.411L486.537 148.7" stroke="#B9C5CC" stroke-miterlimit="10"/>
<path d="M378.243 153.614C379.754 154.622 436.84 232.41 436.84 232.41L471.255 321.901" stroke="#B9C5CC" stroke-miterlimit="10"/>
<path d="M6.71387 232.903H111.135L63.6348 321.901" stroke="#B9C5CC" stroke-miterlimit="10"/>
<path d="M206.552 249.731L111.152 232.411L160.85 148.7" stroke="#B9C5CC" stroke-miterlimit="10"/>
<path d="M52.5552 153.614C54.0663 154.622 111.153 232.41 111.153 232.41L145.567 321.901" stroke="#B9C5CC" stroke-miterlimit="10"/>
<path d="M109.112 137.505C161.8 137.505 204.512 180.217 204.512 232.905C204.512 285.593 161.8 328.305 109.112 328.305C56.4237 328.305 13.7118 285.593 13.7118 232.905C13.7685 180.241 56.4472 137.562 109.112 137.505ZM109.112 123.811C48.8605 123.801 0.00950185 172.637 1.31397e-06 232.888C-0.00924921 293.139 48.8263 341.99 109.078 342C169.329 342.009 218.18 293.174 218.189 232.922V232.905C218.189 172.654 169.346 123.811 109.095 123.811H109.112Z" fill="#009E3D"/>
<path d="M109.111 141.579C159.549 141.569 200.445 182.45 200.454 232.888C200.464 283.325 159.583 324.221 109.145 324.23C58.7075 324.24 17.8119 283.36 17.8024 232.922V232.905C17.8497 182.493 58.6995 141.635 109.111 141.579ZM109.111 128.483C51.4408 128.483 4.68994 175.234 4.68994 232.905C4.68994 290.575 51.4408 337.326 109.111 337.326C166.781 337.326 213.532 290.575 213.532 232.905C213.532 175.234 166.782 128.483 109.111 128.483Z" fill="#EEAA38"/>
<path d="M436.823 137.505C489.51 137.496 532.23 180.2 532.24 232.888C532.249 285.576 489.545 328.296 436.857 328.305C384.169 328.315 341.449 285.61 341.44 232.922V232.905C341.496 180.241 384.175 137.562 436.84 137.505M436.84 123.811C376.588 123.811 327.745 172.654 327.745 232.905C327.745 293.156 376.588 342 436.84 342C497.091 342 545.934 293.156 545.934 232.905C545.934 172.654 497.091 123.811 436.84 123.811Z" fill="#009E3D"/>
<path d="M436.823 141.579C487.26 141.569 528.156 182.45 528.165 232.888C528.175 283.325 487.295 324.221 436.857 324.23C386.419 324.24 345.523 283.36 345.514 232.922V232.905C345.561 182.493 386.411 141.635 436.823 141.579ZM436.823 128.483C379.152 128.483 332.401 175.234 332.401 232.905C332.401 290.575 379.152 337.326 436.823 337.326C494.493 337.326 541.244 290.575 541.244 232.905C541.244 175.234 494.493 128.483 436.823 128.483Z" fill="#EEAA38"/>
<path d="M436.822 249.731C446.116 249.731 453.65 242.197 453.65 232.903C453.65 223.61 446.116 216.076 436.822 216.076C427.529 216.076 419.995 223.61 419.995 232.903C419.995 242.197 427.529 249.731 436.822 249.731Z" fill="#009E3D"/>
<path d="M109.094 221.195C110.165 221.199 111.23 221.349 112.261 221.64H112.637L260.145 251.049C270.98 253.862 277.482 264.926 274.669 275.76C272.345 284.711 264.257 290.954 255.01 290.935C253.36 290.932 251.716 290.731 250.114 290.336L106.132 244.116H105.944C99.723 242.351 96.1113 235.877 97.8769 229.655C99.3 224.642 103.865 221.172 109.077 221.144M109.077 216.008C99.7747 215.881 92.1308 223.319 92.0035 232.621C91.8975 240.37 97.0928 247.191 104.592 249.149L248.727 295.368C250.786 295.89 252.902 296.155 255.027 296.156C269.057 296.14 280.418 284.755 280.402 270.725C280.39 259.122 272.518 249.003 261.275 246.136L113.63 216.624C112.155 216.204 110.628 215.991 109.094 215.991L109.077 216.008Z" fill="#009E3D"/>
<path opacity="0.7" d="M109.094 221.195C110.165 221.199 111.23 221.349 112.261 221.64H112.637L260.145 251.049C270.98 253.862 277.482 264.926 274.669 275.76C272.345 284.711 264.257 290.954 255.01 290.935C253.36 290.932 251.716 290.731 250.114 290.336L106.132 244.116H105.944C99.723 242.351 96.1113 235.877 97.8769 229.655C99.3 224.642 103.865 221.172 109.077 221.144M109.077 216.008C99.7747 215.881 92.1308 223.319 92.0035 232.621C91.8975 240.37 97.0928 247.191 104.592 249.149L248.727 295.368C250.786 295.89 252.902 296.155 255.027 296.156C269.057 296.14 280.418 284.755 280.402 270.725C280.39 259.122 272.518 249.003 261.275 246.136L113.63 216.624C112.155 216.204 110.628 215.991 109.094 215.991L109.077 216.008Z" fill="white"/>
<path d="M252.51 270.887C252.265 270.904 252.019 270.904 251.774 270.887C249.99 270.634 248.47 269.464 247.768 267.806L156.373 51.243C155.272 48.6289 156.498 45.6169 159.112 44.5154C161.727 43.4141 172.657 41.9013 173.758 44.5151L217.511 150.007L256.532 248.763L394.283 84.1271C396.143 81.986 399.386 81.758 401.528 83.6178C403.581 85.4019 405.573 90.4897 406.271 97.5038L335.017 181.259L262.513 270.887C261.527 272.092 254.067 270.902 252.51 270.887Z" fill="#009E3D"/>
<path d="M111.61 223.829C109.719 223.833 108.183 222.303 108.179 220.412C108.178 219.901 108.291 219.395 108.511 218.933L177.207 73.9072C177.926 72.1584 179.926 71.3233 181.675 72.0421C183.424 72.7611 184.259 74.7615 183.54 76.5104C183.494 76.6211 187.663 73.1755 187.509 86.2552L156.258 152.509L122.506 223.829C121.942 225.03 112.937 223.828 111.61 223.829Z" fill="#009E3D"/>
<path d="M436.823 238.04C434.472 238.042 431.85 240.095 431.27 237.818L408.769 157.509L387.518 82.7091L287.512 92.9799L185.007 102.506C182.17 102.761 172.909 91.143 172.654 88.3066C172.399 85.4705 174.491 82.9643 177.327 82.7091L394.044 63.1087C396.554 62.8779 398.86 64.5025 399.488 66.9432L441.804 231.569C442.507 234.316 440.852 237.112 438.106 237.818C437.691 237.951 437.259 238.026 436.823 238.04Z" fill="#009E3D"/>
<path d="M394.507 73.3964C391.935 73.4229 389.74 71.5426 389.371 68.9969L383.26 26.6123C382.849 23.8044 384.792 21.1947 387.6 20.7834C390.407 20.3722 393.017 22.315 393.428 25.1229L399.642 67.5248C400.05 70.3317 398.104 72.9371 395.297 73.3447L395.294 73.3449C395.033 73.3817 394.77 73.3987 394.507 73.3964Z" fill="#009E3D"/>
<path d="M128.026 53.4358C135.691 61.4417 174.862 52.1004 186.348 48.3002C197.834 44.5 204.171 47.8764 200.251 38.9407C197.043 31.6285 174.139 34.6029 158.699 34.7685C154.752 34.8107 150.798 34.4382 146.997 33.3711C130.921 28.8579 113.784 35.2355 128.026 53.4358Z" fill="#EEAA38"/>
<path d="M237.378 328.749C235.487 328.751 233.954 327.219 233.952 325.328C233.952 325.021 233.993 324.715 234.075 324.418L264.34 215.256C264.928 213.458 266.861 212.478 268.658 213.066C270.342 213.617 271.327 215.361 270.93 217.087L240.665 326.182C240.278 327.683 238.929 328.737 237.378 328.749Z" fill="#009E3D"/>
<path d="M281.136 219.603H250.888C248.997 219.603 247.464 218.07 247.464 216.18C247.464 214.289 248.997 212.756 250.888 212.756H281.136C283.026 212.756 284.559 214.289 284.559 216.18C284.559 218.07 283.026 219.603 281.136 219.603Z" fill="#009E3D"/>
<path d="M254.119 328.751H223.888C221.998 328.751 220.465 327.218 220.465 325.327C220.465 323.436 221.998 321.903 223.888 321.903H254.119C256.01 321.903 257.543 323.436 257.543 325.327C257.543 327.218 256.01 328.751 254.119 328.751Z" fill="#009E3D"/>
<path d="M435.67 51.7341C433.506 51.7341 431.402 50.6098 430.246 48.5992C428.525 45.607 429.555 41.786 432.547 40.0647L435.58 38.3203C441.848 34.7166 444.286 26.7974 441.129 20.2918C438.097 14.0477 430.854 11.0018 424.275 13.2237L365.46 32.706C362.189 33.7923 358.647 32.015 357.561 28.7385C356.476 25.4618 358.252 21.9254 361.529 20.8401L420.316 1.36623C432.812 -2.83925 446.606 2.94707 452.375 14.835C458.385 27.2197 453.745 42.2963 441.812 49.1569L438.781 50.9003C437.799 51.4656 436.727 51.7341 435.67 51.7341Z" fill="#EEAA38"/>
<path d="M109.111 216.076C118.405 216.076 125.939 223.61 125.939 232.903C125.939 242.197 118.405 249.731 109.111 249.731C99.8179 249.731 92.2842 242.197 92.2842 232.903C92.2842 223.61 99.8181 216.076 109.111 216.076Z" fill="#009E3D"/>
<path d="M255.01 245.351C240.98 245.351 229.606 256.724 229.606 270.754C229.606 284.784 240.98 296.157 255.01 296.157C269.04 296.157 280.413 284.784 280.413 270.754C280.423 256.734 269.065 245.36 255.044 245.351H255.01Z" fill="#009E3D"/>
</svg>
