<svg width="219" height="137" viewBox="0 0 219 137" fill="none" xmlns="http://www.w3.org/2000/svg">
<path d="M132.953 93.1567H174.719L155.72 128.754" stroke="#E0E0E0" stroke-miterlimit="10"/>
<path d="M212.884 99.8872L174.727 92.9594L194.605 59.4771" stroke="#E0E0E0" stroke-miterlimit="10"/>
<path d="M151.289 61.4429C151.893 61.8458 174.727 92.9595 174.727 92.9595L188.492 128.754" stroke="#E0E0E0" stroke-miterlimit="10"/>
<path d="M2.68555 93.1567H44.4516L25.4526 128.754" stroke="#E0E0E0" stroke-miterlimit="10"/>
<path d="M82.6168 99.8872L44.459 92.9594L64.337 59.4771" stroke="#E0E0E0" stroke-miterlimit="10"/>
<path d="M21.0195 61.4429C21.6239 61.8458 44.4572 92.9595 44.4572 92.9595L58.2223 128.754" stroke="#E0E0E0" stroke-miterlimit="10"/>
<path d="M43.6422 54.9991C64.7162 54.9991 81.8001 72.0829 81.8001 93.1569C81.8001 114.231 64.7162 131.315 43.6422 131.315C22.5682 131.315 5.4844 114.231 5.4844 93.1569C5.5071 72.0923 22.5776 55.0217 43.6422 54.9991ZM43.6422 49.5215C19.5431 49.5178 0.00380053 69.0509 5.25559e-07 93.1501C-0.00369947 117.249 19.5294 136.788 43.6286 136.792C67.7277 136.796 87.267 117.263 87.2708 93.1638V93.1569C87.2708 69.0578 67.7346 49.5215 43.6354 49.5215H43.6422Z" fill="#5E0794"/>
<path d="M43.6431 56.6284C63.8172 56.6247 80.1745 72.9759 80.1783 93.1499C80.1821 113.324 63.8308 129.681 43.6568 129.685C23.4828 129.689 7.12545 113.338 7.12165 93.1636V93.1567C7.14055 72.9932 23.4796 56.6511 43.6431 56.6284ZM43.6431 51.3906C20.5763 51.3906 1.87695 70.0899 1.87695 93.1567C1.87695 116.224 20.5763 134.923 43.6431 134.923C66.7099 134.923 85.4093 116.224 85.4093 93.1567C85.4093 70.0899 66.71 51.3906 43.6431 51.3906Z" fill="#FFE100"/>
<path d="M174.72 54.9991C195.794 54.9953 212.881 72.0761 212.885 93.1501C212.889 114.224 195.808 131.311 174.734 131.315C153.66 131.318 136.573 114.238 136.569 93.1638V93.1569C136.592 72.0923 153.663 55.0217 174.727 54.9991M174.727 49.5215C150.628 49.5215 131.092 69.0578 131.092 93.1569C131.092 117.256 150.628 136.792 174.727 136.792C198.826 136.792 218.363 117.256 218.363 93.1569C218.363 69.0578 198.826 49.5215 174.727 49.5215Z" fill="#5E0794"/>
<path d="M174.719 56.6284C194.893 56.6247 211.251 72.9759 211.254 93.1499C211.258 113.324 194.907 129.681 174.733 129.685C154.559 129.689 138.202 113.338 138.198 93.1636V93.1567C138.217 72.9932 154.556 56.6511 174.719 56.6284ZM174.719 51.3906C151.652 51.3906 132.953 70.0899 132.953 93.1567C132.953 116.224 151.652 134.923 174.719 134.923C197.786 134.923 216.485 116.224 216.485 93.1567C216.485 70.0899 197.786 51.3906 174.719 51.3906Z" fill="#FFE100"/>
<path d="M174.721 99.8873C178.438 99.8873 181.451 96.8739 181.451 93.1568C181.451 89.4396 178.438 86.4263 174.721 86.4263C171.004 86.4263 167.99 89.4396 167.99 93.1568C167.99 96.8739 171.004 99.8873 174.721 99.8873Z" fill="#5E0794"/>
<path d="M43.6352 88.4735C44.0636 88.4751 44.4897 88.535 44.9019 88.6516H45.0525L104.052 100.414C108.386 101.54 110.987 105.965 109.862 110.298C108.932 113.878 105.697 116.375 101.998 116.368C101.338 116.367 100.681 116.286 100.04 116.128L42.4507 97.6415H42.3754C39.8871 96.9353 38.4425 94.3458 39.1487 91.8575C39.7179 89.8522 41.5439 88.4644 43.6284 88.453M43.6284 86.3989C39.9078 86.348 36.8504 89.3229 36.7995 93.0435C36.7571 96.1431 38.8351 98.8715 41.8345 99.6545L99.4855 118.141C100.309 118.35 101.155 118.456 102.005 118.456C107.617 118.45 112.161 113.896 112.155 108.284C112.15 103.643 109.001 99.5959 104.504 98.4495L45.4496 86.6454C44.8595 86.4774 44.2488 86.3921 43.6352 86.3921L43.6284 86.3989Z" fill="#5E0794"/>
<path opacity="0.7" d="M43.6352 88.4735C44.0636 88.4751 44.4897 88.535 44.9019 88.6516H45.0525L104.052 100.414C108.386 101.54 110.987 105.965 109.862 110.298C108.932 113.878 105.697 116.375 101.998 116.368C101.338 116.367 100.681 116.286 100.04 116.128L42.4507 97.6415H42.3754C39.8871 96.9353 38.4425 94.3458 39.1487 91.8575C39.7179 89.8522 41.5439 88.4644 43.6284 88.453M43.6284 86.3989C39.9078 86.348 36.8504 89.3229 36.7995 93.0435C36.7571 96.1431 38.8351 98.8715 41.8345 99.6545L99.4855 118.141C100.309 118.35 101.155 118.456 102.005 118.456C107.617 118.45 112.161 113.896 112.155 108.284C112.15 103.643 109.001 99.5959 104.504 98.4495L45.4496 86.6454C44.8595 86.4774 44.2488 86.3921 43.6352 86.3921L43.6284 86.3989Z" fill="white"/>
<path d="M100.999 108.349C100.901 108.356 100.802 108.356 100.704 108.349C99.991 108.248 99.3832 107.78 99.1022 107.117L62.5465 20.4967C62.106 19.4511 62.5965 18.2464 63.642 17.8058C64.6876 17.3653 69.0594 16.7602 69.5 17.8057L87 60.0001L102.608 99.5001L157.705 33.6496C158.449 32.7932 159.746 32.702 160.603 33.4459C161.424 34.1595 162.221 36.1945 162.5 39L134 72.5L105 108.349C104.606 108.831 101.622 108.355 100.999 108.349Z" fill="#5E0794"/>
<path d="M44.6418 89.5263C43.8856 89.5279 43.2711 88.9162 43.2695 88.1599C43.2691 87.9552 43.3145 87.7529 43.4026 87.5681L70.8792 29.5611C71.1668 28.8616 71.9669 28.5276 72.6664 28.8151C73.3659 29.1027 73.6999 29.9028 73.4123 30.6023C73.3941 30.6466 75.0613 29.2684 75 34.5L62.5 61L49 89.5263C48.7745 90.0068 45.1726 89.5262 44.6418 89.5263Z" fill="#5E0794"/>
<path d="M174.721 95.2107C173.781 95.2115 172.732 96.0326 172.5 95.1217L163.5 63L155 33.0818L115 37.1899L74 41C72.8656 41.1021 69.1613 36.4552 69.0592 35.3207C68.9571 34.1863 69.794 33.1839 70.9284 33.0818L157.61 25.2421C158.614 25.1498 159.537 25.7996 159.788 26.7758L176.713 92.6225C176.995 93.721 176.333 94.8396 175.234 95.1217C175.068 95.1749 174.895 95.2049 174.721 95.2107Z" fill="#5E0794"/>
<path d="M157.794 29.357C156.765 29.3676 155.887 28.6155 155.74 27.5973L153.295 10.6444C153.131 9.52128 153.908 8.47748 155.031 8.31298C156.154 8.14848 157.198 8.92558 157.363 10.0487L159.848 27.0085C160.011 28.1312 159.233 29.1733 158.11 29.3363L158.109 29.3364C158.005 29.3511 157.899 29.3579 157.794 29.357Z" fill="#5E0794"/>
<path d="M51.2082 21.3737C54.2741 24.5759 69.9413 20.8396 74.5356 19.3196C79.1299 17.7996 81.6643 19.1501 80.0963 15.576C78.8132 12.6513 69.6521 13.841 63.4767 13.9072C61.898 13.9241 60.3163 13.7751 58.7962 13.3483C52.3662 11.5431 45.5116 14.094 51.2082 21.3737Z" fill="#FFE100"/>
<path d="M94.9466 131.492C94.1903 131.493 93.5768 130.88 93.5762 130.124C93.5761 130.001 93.5926 129.879 93.6252 129.76L105.73 86.0973C105.966 85.3785 106.739 84.9864 107.458 85.2216C108.131 85.4419 108.525 86.1394 108.367 86.8299L96.2612 130.465C96.1062 131.066 95.5668 131.487 94.9466 131.492Z" fill="#5E0794"/>
<path d="M112.448 87.8365H100.35C99.5936 87.8365 98.9805 87.2234 98.9805 86.4671C98.9805 85.7108 99.5936 85.0977 100.35 85.0977H112.448C113.205 85.0977 113.818 85.7108 113.818 86.4671C113.818 87.2234 113.205 87.8365 112.448 87.8365Z" fill="#5E0794"/>
<path d="M101.643 131.493H89.5509C88.7947 131.493 88.1816 130.88 88.1816 130.123C88.1816 129.367 88.7947 128.754 89.5509 128.754H101.643C102.399 128.754 103.012 129.367 103.012 130.123C103.012 130.88 102.399 131.493 101.643 131.493Z" fill="#5E0794"/>
<path d="M174.258 20.6925C173.392 20.6925 172.551 20.2428 172.088 19.4386C171.4 18.2418 171.812 16.7135 173.009 16.025L174.222 15.3273C176.729 13.8859 177.704 10.7184 176.441 8.11626C175.229 5.61876 172.332 4.40046 169.7 5.28916L146.175 13.0817C144.867 13.5162 143.45 12.8053 143.016 11.4948C142.582 10.1842 143.293 8.76966 144.603 8.33556L168.117 0.546463C173.115 -1.13564 178.632 1.17876 180.94 5.93366C183.343 10.8873 181.487 16.9176 176.714 19.6617L175.502 20.359C175.109 20.5851 174.681 20.6925 174.258 20.6925Z" fill="#FFE100"/>
<path d="M43.6426 86.4263C47.3598 86.4263 50.3732 89.4397 50.3732 93.1568C50.3732 96.8739 47.3598 99.8873 43.6426 99.8873C39.9254 99.8873 36.9121 96.874 36.9121 93.1568C36.9121 89.4396 39.9255 86.4263 43.6426 86.4263Z" fill="#5E0794"/>
<path d="M101.999 98.1343C96.387 98.1343 91.8379 102.683 91.8379 108.295C91.8379 113.907 96.387 118.456 101.999 118.456C107.61 118.456 112.159 113.907 112.159 108.295C112.163 102.687 107.62 98.1381 102.012 98.1343H101.999Z" fill="#5E0794"/>
</svg>
