<svg width="546" height="342" viewBox="0 0 546 342" fill="none" xmlns="http://www.w3.org/2000/svg">
<path d="M332.401 232.903H436.822L389.322 321.901" stroke="#009E3D" stroke-miterlimit="10"/>
<path d="M532.239 249.731L436.839 232.411L486.537 148.7" stroke="#009E3D" stroke-miterlimit="10"/>
<path d="M378.243 153.614C379.754 154.622 436.84 232.41 436.84 232.41L471.255 321.901" stroke="#009E3D" stroke-miterlimit="10"/>
<path d="M6.71436 232.903H111.135L63.6353 321.901" stroke="#009E3D" stroke-miterlimit="10"/>
<path d="M206.552 249.731L111.152 232.411L160.85 148.7" stroke="#009E3D" stroke-miterlimit="10"/>
<path d="M52.5557 153.614C54.0667 154.622 111.153 232.41 111.153 232.41L145.568 321.901" stroke="#009E3D" stroke-miterlimit="10"/>
<path d="M109.112 137.505C161.8 137.505 204.512 180.217 204.512 232.905C204.512 285.593 161.8 328.305 109.112 328.305C56.4237 328.305 13.7118 285.593 13.7118 232.905C13.7685 180.241 56.4472 137.562 109.112 137.505ZM109.112 123.811C48.8605 123.801 0.00950185 172.637 1.31397e-06 232.888C-0.00924921 293.139 48.8263 341.99 109.078 342C169.329 342.009 218.18 293.174 218.189 232.922V232.905C218.189 172.654 169.346 123.811 109.095 123.811H109.112Z" fill="#21632D"/>
<path d="M109.112 141.579C159.55 141.569 200.445 182.45 200.455 232.888C200.464 283.325 159.584 324.221 109.146 324.23C58.708 324.24 17.8124 283.36 17.8029 232.922V232.905C17.8502 182.493 58.7 141.635 109.112 141.579ZM109.112 128.483C51.4413 128.483 4.69043 175.234 4.69043 232.905C4.69043 290.575 51.4413 337.326 109.112 337.326C166.782 337.326 213.533 290.575 213.533 232.905C213.533 175.234 166.782 128.483 109.112 128.483Z" fill="#00362E"/>
<path d="M436.823 137.505C489.511 137.496 532.231 180.2 532.24 232.888C532.25 285.576 489.545 328.296 436.857 328.305C384.169 328.315 341.45 285.61 341.44 232.922V232.905C341.497 180.241 384.176 137.562 436.84 137.505M436.84 123.811C376.589 123.811 327.746 172.654 327.746 232.905C327.746 293.156 376.589 342 436.84 342C497.092 342 545.935 293.156 545.935 232.905C545.935 172.654 497.091 123.811 436.84 123.811Z" fill="#21632D"/>
<path d="M436.823 141.579C487.26 141.569 528.156 182.45 528.165 232.888C528.175 283.325 487.295 324.221 436.857 324.23C386.419 324.24 345.523 283.36 345.514 232.922V232.905C345.561 182.493 386.411 141.635 436.823 141.579ZM436.823 128.483C379.152 128.483 332.401 175.234 332.401 232.905C332.401 290.575 379.152 337.326 436.823 337.326C494.493 337.326 541.244 290.575 541.244 232.905C541.244 175.234 494.493 128.483 436.823 128.483Z" fill="#00362E"/>
<path d="M436.823 249.731C446.116 249.731 453.65 242.197 453.65 232.903C453.65 223.61 446.116 216.076 436.823 216.076C427.529 216.076 419.996 223.61 419.996 232.903C419.996 242.197 427.529 249.731 436.823 249.731Z" fill="#21632D"/>
<path d="M109.094 221.195C110.165 221.199 111.231 221.349 112.261 221.64H112.638L260.146 251.049C270.98 253.862 277.483 264.926 274.67 275.76C272.346 284.711 264.258 290.954 255.01 290.935C253.36 290.932 251.716 290.731 250.114 290.336L106.133 244.116H105.945C99.7235 242.351 96.1118 235.877 97.8774 229.655C99.3005 224.642 103.866 221.172 109.077 221.144M109.077 216.008C99.7752 215.881 92.1313 223.319 92.004 232.621C91.898 240.37 97.0933 247.191 104.592 249.149L248.728 295.368C250.787 295.89 252.903 296.155 255.027 296.156C269.057 296.14 280.418 284.755 280.403 270.725C280.39 259.122 272.518 249.003 261.275 246.136L113.631 216.624C112.155 216.204 110.628 215.991 109.094 215.991L109.077 216.008Z" fill="#21632D"/>
<path opacity="0.7" d="M109.094 221.195C110.165 221.199 111.231 221.349 112.261 221.64H112.638L260.146 251.049C270.98 253.862 277.483 264.926 274.67 275.76C272.346 284.711 264.258 290.954 255.01 290.935C253.36 290.932 251.716 290.731 250.114 290.336L106.133 244.116H105.945C99.7235 242.351 96.1118 235.877 97.8774 229.655C99.3005 224.642 103.866 221.172 109.077 221.144M109.077 216.008C99.7752 215.881 92.1313 223.319 92.004 232.621C91.898 240.37 97.0933 247.191 104.592 249.149L248.728 295.368C250.787 295.89 252.903 296.155 255.027 296.156C269.057 296.14 280.418 284.755 280.403 270.725C280.39 259.122 272.518 249.003 261.275 246.136L113.631 216.624C112.155 216.204 110.628 215.991 109.094 215.991L109.077 216.008Z" fill="white"/>
<path d="M252.51 270.887C252.265 270.904 252.019 270.904 251.774 270.887C249.991 270.634 248.471 269.464 247.768 267.806L156.374 51.243C155.273 48.6289 156.499 45.6169 159.113 44.5154C161.727 43.4141 172.657 41.9013 173.759 44.5151L217.511 150.007L256.533 248.763L394.283 84.1271C396.143 81.986 399.387 81.758 401.528 83.6178C403.582 85.4019 405.574 90.4897 406.272 97.5038L335.018 181.259L262.514 270.887C261.528 272.092 254.067 270.902 252.51 270.887Z" fill="#21632D"/>
<path d="M111.61 223.829C109.719 223.833 108.183 222.303 108.179 220.412C108.178 219.901 108.291 219.395 108.511 218.933L177.207 73.9072C177.926 72.1584 179.926 71.3233 181.675 72.0421C183.424 72.7611 184.259 74.7615 183.54 76.5104C183.494 76.6211 187.663 73.1755 187.509 86.2552L156.258 152.509L122.506 223.829C121.942 225.03 112.937 223.828 111.61 223.829Z" fill="#21632D"/>
<path d="M436.823 238.04C434.472 238.042 431.85 240.095 431.27 237.818L408.769 157.509L387.518 82.7091L287.512 92.9799L185.007 102.506C182.17 102.761 172.909 91.143 172.654 88.3066C172.399 85.4705 174.491 82.9643 177.327 82.7091L394.044 63.1087C396.554 62.8779 398.86 64.5025 399.488 66.9432L441.804 231.569C442.507 234.316 440.852 237.112 438.106 237.818C437.691 237.951 437.259 238.026 436.823 238.04Z" fill="#21632D"/>
<path d="M394.507 73.3964C391.935 73.4229 389.74 71.5426 389.371 68.9969L383.26 26.6123C382.849 23.8044 384.792 21.1947 387.6 20.7834C390.407 20.3722 393.017 22.315 393.428 25.1229L399.642 67.5248C400.05 70.3317 398.104 72.9371 395.297 73.3447L395.294 73.3449C395.033 73.3817 394.77 73.3987 394.507 73.3964Z" fill="#21632D"/>
<path d="M128.027 53.4358C135.692 61.4417 174.862 52.1004 186.349 48.3002C197.835 44.5 204.171 47.8764 200.251 38.9407C197.043 31.6285 174.139 34.6029 158.7 34.7685C154.753 34.8107 150.798 34.4382 146.998 33.3711C130.922 28.8579 113.784 35.2355 128.027 53.4358Z" fill="#00362E"/>
<path d="M237.379 328.749C235.488 328.751 233.954 327.219 233.953 325.328C233.952 325.021 233.994 324.715 234.075 324.418L264.34 215.256C264.928 213.458 266.861 212.478 268.659 213.066C270.342 213.617 271.328 215.361 270.931 217.087L240.666 326.182C240.278 327.683 238.929 328.737 237.379 328.749Z" fill="#21632D"/>
<path d="M281.136 219.603H250.888C248.997 219.603 247.464 218.07 247.464 216.18C247.464 214.289 248.997 212.756 250.888 212.756H281.136C283.026 212.756 284.559 214.289 284.559 216.18C284.559 218.07 283.026 219.603 281.136 219.603Z" fill="#21632D"/>
<path d="M254.12 328.751H223.889C221.998 328.751 220.465 327.218 220.465 325.327C220.465 323.436 221.998 321.903 223.889 321.903H254.12C256.011 321.903 257.543 323.436 257.543 325.327C257.543 327.218 256.011 328.751 254.12 328.751Z" fill="#21632D"/>
<path d="M435.671 51.7341C433.506 51.7341 431.403 50.6098 430.247 48.5992C428.525 45.607 429.556 41.786 432.548 40.0647L435.58 38.3203C441.849 34.7166 444.287 26.7974 441.13 20.2918C438.097 14.0477 430.855 11.0018 424.276 13.2237L365.46 32.706C362.19 33.7923 358.647 32.015 357.562 28.7385C356.477 25.4618 358.253 21.9254 361.529 20.8401L420.317 1.36623C432.813 -2.83925 446.606 2.94707 452.376 14.835C458.386 27.2197 453.745 42.2963 441.812 49.1569L438.781 50.9003C437.8 51.4656 436.728 51.7341 435.671 51.7341Z" fill="#00362E"/>
<path d="M109.111 216.076C118.405 216.076 125.939 223.61 125.939 232.903C125.939 242.197 118.405 249.731 109.111 249.731C99.8179 249.731 92.2842 242.197 92.2842 232.903C92.2842 223.61 99.8181 216.076 109.111 216.076Z" fill="#21632D"/>
<path d="M255.01 245.351C240.98 245.351 229.606 256.724 229.606 270.754C229.606 284.784 240.98 296.157 255.01 296.157C269.04 296.157 280.413 284.784 280.413 270.754C280.423 256.734 269.065 245.36 255.044 245.351H255.01Z" fill="#21632D"/>
</svg>
