<svg width="245" height="245" viewBox="0 0 245 245" fill="none" xmlns="http://www.w3.org/2000/svg">
<path d="M200.605 89.3854C198.577 89.3854 196.934 87.7417 196.934 85.7133V31.419C196.934 29.391 198.577 27.7468 200.605 27.7468C202.633 27.7468 204.277 29.3905 204.277 31.419V85.7137C204.277 87.7417 202.633 89.3854 200.605 89.3854Z" fill="#796E79"/>
<path d="M202.618 41.4171L198.081 41.7798C197.594 41.7798 196.201 41.9252 196.201 41.9252C194.247 41.3893 192.768 39.781 192.411 37.7019L189.516 20.8323H210.603L207.873 36.9874C207.434 39.5465 205.215 41.4171 202.618 41.4171Z" fill="#FFD064"/>
<path d="M211.698 20.8337L208.8 37.7C208.365 40.2605 206.141 42.1305 203.547 42.1305H197.667C197.163 42.1305 196.668 42.0573 196.203 41.9248C198.132 41.3716 199.635 39.7609 199.988 37.6995L202.886 20.8333L211.698 20.8337Z" fill="#FFC250"/>
<path d="M186.315 23.4655C185.749 23.4655 185.296 22.9846 185.334 22.4194C185.738 16.4447 189.577 11.404 194.886 9.25977C194.886 9.25977 198.581 9.31671 200.607 9.31671C207.482 9.31671 213.764 13.976 214.302 21.9423C214.34 22.5079 213.888 22.9884 213.321 22.9884L202.434 23.4674L186.315 23.4655Z" fill="#796E79"/>
<path d="M215.88 22.4199C215.919 22.9831 215.464 23.4678 214.901 23.4678H202.436L202.441 23.1889C202.583 17.4998 199.675 12.2074 194.887 9.26023C196.654 8.5506 198.583 8.15869 200.605 8.15869C208.708 8.15821 215.341 14.4545 215.88 22.4199Z" fill="#665E67"/>
<path d="M80.1565 89.3854C78.1286 89.3854 76.4844 87.7417 76.4844 85.7133V31.419C76.4844 29.391 78.1281 27.7468 80.1565 27.7468C82.1849 27.7468 83.8286 29.3905 83.8286 31.419V85.7137C83.8282 87.7417 82.1845 89.3854 80.1565 89.3854Z" fill="#796E79"/>
<path d="M82.1691 41.4171L77.6318 41.7798C77.1452 41.7798 75.7522 41.9252 75.7522 41.9252C73.7975 41.3893 72.3184 39.781 71.9614 37.7019L69.0664 20.8323H90.1536L87.4237 36.9874C86.9844 39.5465 84.7655 41.4171 82.1691 41.4171Z" fill="#FFD064"/>
<path d="M91.2492 20.8337L88.3508 37.7C87.9154 40.2605 85.6922 42.1305 83.0977 42.1305H77.2177C76.7133 42.1305 76.219 42.0573 75.7539 41.9248C77.6828 41.3716 79.1858 39.7609 79.5385 37.6995L82.4368 20.8333L91.2492 20.8337Z" fill="#FFC250"/>
<path d="M65.866 23.4655C65.2994 23.4655 64.8472 22.9846 64.885 22.4194C65.2884 16.4447 69.128 11.404 74.4367 9.25977C74.4367 9.25977 78.1318 9.31671 80.1573 9.31671C87.0331 9.31671 93.3151 13.976 93.8524 21.9423C93.8907 22.5079 93.4385 22.9884 92.8715 22.9884L81.9853 23.4674L65.866 23.4655Z" fill="#796E79"/>
<path d="M95.4309 22.4199C95.4702 22.9831 95.0146 23.4678 94.4519 23.4678H81.987L81.9918 23.1889C82.1339 17.4998 79.2255 12.2074 74.4375 9.26023C76.2047 8.5506 78.134 8.15869 80.1558 8.15869C88.2585 8.15821 94.8926 14.4545 95.4309 22.4199Z" fill="#665E67"/>
<path d="M170.494 105.182C161.329 105.182 152.997 102.057 147.633 96.6095C146.211 95.1649 146.228 92.8398 147.674 91.4167C149.117 89.995 151.442 90.0108 152.867 91.4574C156.8 95.4525 163.39 97.8379 170.494 97.8379C177.598 97.8379 184.188 95.4525 188.121 91.4574C189.544 90.0113 191.869 89.995 193.314 91.4167C194.759 92.8393 194.777 95.1644 193.355 96.6095C187.991 102.057 179.659 105.182 170.494 105.182Z" fill="#E8E8E8"/>
<path d="M110.271 105.182C101.107 105.182 92.7746 102.057 87.4109 96.6095C85.9883 95.1649 86.006 92.8398 87.4511 91.4167C88.8962 89.9941 91.2208 90.0118 92.6439 91.4574C96.5778 95.4525 103.167 97.8379 110.271 97.8379C117.375 97.8379 123.965 95.4525 127.898 91.4574C129.32 90.0113 131.645 89.995 133.091 91.4167C134.536 92.8393 134.554 95.1644 133.132 96.6095C127.768 102.057 119.436 105.182 110.271 105.182Z" fill="#E8E8E8"/>
<path d="M50.0449 105.182C40.8804 105.182 32.548 102.057 27.1843 96.6095C25.7617 95.1649 25.7794 92.8398 27.2245 91.4167C28.6696 89.9941 30.9947 90.0118 32.4174 91.4574C36.3512 95.4525 42.9409 97.8379 50.0449 97.8379C57.1485 97.8379 63.7381 95.4525 67.672 91.4574C69.0942 90.0122 71.4197 89.9945 72.8644 91.4167C74.3095 92.8393 74.3277 95.1644 72.9046 96.6095C67.5414 102.057 59.2095 105.182 50.0449 105.182Z" fill="#E8E8E8"/>
<path d="M12.6778 96.6105C9.92633 99.2529 5.43402 102.462 0.58044 103.527C0.281846 103.593 0 103.358 0 103.052V96.4148C0 96.2157 0.124414 96.0392 0.310078 95.9679C3.10413 94.8931 5.51776 93.3891 7.35 91.5579C8.75396 90.1544 11.0408 89.9725 12.517 91.2999C14.0846 92.7101 14.1401 95.1238 12.6778 96.6105Z" fill="#E8E8E8"/>
<path d="M82.0746 191.065L57.0674 175.732L78.2723 162.73C80.0012 161.67 80.5434 159.409 79.4835 157.681C78.4231 155.951 76.163 155.409 74.4337 156.469L50.0428 171.424L21.8501 154.138C20.1207 153.078 17.8602 153.621 16.8003 155.349C15.7399 157.078 16.2821 159.339 18.0109 160.399L43.0182 175.732L18.0109 191.065C16.2821 192.125 15.7399 194.385 16.7998 196.114C17.4927 197.244 18.6986 197.867 19.9336 197.867C20.5878 197.867 21.2505 197.692 21.8496 197.325L50.0423 180.039L78.235 197.325C78.8336 197.692 79.4964 197.867 80.151 197.867C81.386 197.867 82.5919 197.244 83.2848 196.114C84.3457 194.385 83.8035 192.125 82.0746 191.065Z" fill="#E89C69"/>
<path d="M142.301 191.065L117.294 175.732L138.499 162.73C140.228 161.67 140.77 159.409 139.71 157.681C138.65 155.951 136.39 155.409 134.66 156.469L110.269 171.424L82.0766 154.138C80.3473 153.078 78.0868 153.621 77.0269 155.349C75.9665 157.078 76.5086 159.339 78.2375 160.399L103.245 175.732L78.2375 191.065C76.5086 192.125 75.9665 194.385 77.0264 196.114C77.7193 197.244 78.9251 197.867 80.1602 197.867C80.8143 197.867 81.4771 197.692 82.0762 197.325L110.269 180.039L138.462 197.325C139.06 197.692 139.723 197.867 140.378 197.867C141.613 197.867 142.818 197.244 143.511 196.114C144.572 194.385 144.03 192.125 142.301 191.065Z" fill="#E89C69"/>
<path d="M202.528 191.065L177.521 175.732L198.725 162.73C200.454 161.67 200.996 159.409 199.937 157.681C198.876 155.951 196.616 155.409 194.887 156.469L170.496 171.424L142.303 154.138C140.574 153.078 138.313 153.621 137.253 155.349C136.193 157.078 136.735 159.339 138.464 160.399L163.471 175.732L138.464 191.065C136.735 192.125 136.193 194.385 137.253 196.114C137.946 197.244 139.152 197.867 140.387 197.867C141.041 197.867 141.704 197.692 142.303 197.325L170.495 180.039L198.688 197.325C199.287 197.692 199.95 197.867 200.604 197.867C201.839 197.867 203.045 197.244 203.738 196.114C204.799 194.385 204.257 192.125 202.528 191.065Z" fill="#E89C69"/>
<path d="M193.609 218.564V95.5046H203.949V208.646L193.609 218.564Z" fill="#D98556"/>
<path d="M207.598 95.5056V208.644L200.254 213.854V95.5056H207.598Z" fill="#D3744F"/>
<path d="M133.387 218.564V95.5046H143.726V208.646L133.387 218.564Z" fill="#D98556"/>
<path d="M147.375 95.5056V208.644L140.031 213.854V95.5056H147.375Z" fill="#D3744F"/>
<path d="M73.1641 218.564V95.5046H83.5034V208.646L73.1641 218.564Z" fill="#D98556"/>
<path d="M87.1524 95.5056V208.644L79.8086 213.854V95.5056H87.1524Z" fill="#D3744F"/>
<path d="M12.9375 218.564V95.5046H23.2763V208.646L12.9375 218.564Z" fill="#D98556"/>
<path d="M26.9258 95.5056V208.644L19.582 213.854V95.5056H26.9258Z" fill="#D3744F"/>
<path d="M1.46856 125.865H207.599L221.605 126.845C224.309 126.845 226.501 129.037 226.501 131.74V143.275C226.501 145.979 224.309 148.171 221.605 148.171L202.274 149.15H1.46856C0.65748 149.15 0 148.492 0 147.681V127.334C0 126.523 0.65748 125.865 1.46856 125.865Z" fill="#E89C69"/>
<path d="M228.461 130.761V144.253C228.461 146.956 226.268 149.149 223.565 149.149H200.883C204.594 149.149 207.6 146.143 207.6 142.432V125.865H223.565C226.268 125.865 228.461 128.058 228.461 130.761Z" fill="#D98556"/>
<path d="M80.1575 100.555C85.6077 100.555 90.0259 96.1365 90.0259 90.6863C90.0259 85.2361 85.6077 80.8179 80.1575 80.8179C74.7073 80.8179 70.2891 85.2361 70.2891 90.6863C70.2891 96.1365 74.7073 100.555 80.1575 100.555Z" fill="#FFD064"/>
<path d="M19.9309 100.555C25.3811 100.555 29.7994 96.1365 29.7994 90.6863C29.7994 85.2361 25.3811 80.8179 19.9309 80.8179C14.4807 80.8179 10.0625 85.2361 10.0625 90.6863C10.0625 96.1365 14.4807 100.555 19.9309 100.555Z" fill="#FFD064"/>
<path d="M140.38 100.555C145.83 100.555 150.249 96.1365 150.249 90.6863C150.249 85.2361 145.83 80.8179 140.38 80.8179C134.93 80.8179 130.512 85.2361 130.512 90.6863C130.512 96.1365 134.93 100.555 140.38 100.555Z" fill="#FFD064"/>
<path d="M200.607 100.555C206.057 100.555 210.475 96.1365 210.475 90.6863C210.475 85.2361 206.057 80.8179 200.607 80.8179C195.157 80.8179 190.738 85.2361 190.738 90.6863C190.738 96.1365 195.157 100.555 200.607 100.555Z" fill="#FFD064"/>
<path d="M1.41545 233.471C1.41545 234.33 2.1471 235.005 3.00412 234.948C16.7485 234.028 15.8618 220.571 30.6264 220.571C45.9399 220.571 45.9399 234.374 61.2534 234.374C76.5663 234.374 76.5663 220.571 91.8788 220.571C107.191 220.571 107.191 234.374 122.503 234.374C137.815 234.374 137.815 220.571 153.126 220.571C168.438 220.571 168.438 234.374 183.751 234.374C199.063 234.374 199.063 220.571 214.376 220.571C229.139 220.571 226.507 232.705 240.249 233.625C241.107 233.683 241.838 233.007 241.838 232.148L245 224.518V213.649C245 212.862 244.394 212.197 243.608 212.152C229.673 211.342 229.21 198.389 214.376 198.389C199.064 198.389 199.064 212.191 183.751 212.191C168.439 212.191 168.439 198.389 153.127 198.389C137.815 198.389 137.815 212.191 122.504 212.191C107.191 212.191 107.191 198.389 91.8793 198.389C76.5663 198.389 76.5663 212.191 61.2538 212.191C45.9404 212.191 45.9404 198.389 30.6269 198.389C15.792 198.389 15.3283 211.342 1.39152 212.152C0.606279 212.197 0 212.862 0 213.649V224.518L1.41545 233.471Z" fill="#7BB1FF"/>
<path d="M245 224.518V235.309C245 236.171 244.27 236.847 243.413 236.788C229.669 235.866 229.142 223.039 214.377 223.039C199.066 223.039 199.066 236.842 183.75 236.842C168.439 236.842 168.439 223.039 153.127 223.039C137.816 223.039 137.816 236.842 122.505 236.842C107.193 236.842 107.194 223.039 91.8774 223.039C76.5663 223.039 76.5663 236.842 61.2548 236.842C45.9385 236.842 45.9385 223.039 30.6274 223.039C15.8633 223.039 15.3307 235.866 1.58724 236.788C0.729736 236.847 0 236.171 0 235.309V224.518C15.3111 224.518 15.3111 210.715 30.6274 210.715C45.9385 210.715 45.9385 224.518 61.2548 224.518C76.5658 224.518 76.5658 210.715 91.8774 210.715C107.194 210.715 107.194 224.518 122.505 224.518C137.816 224.518 137.816 210.715 153.127 210.715C168.439 210.715 168.438 224.518 183.75 224.518C199.066 224.518 199.066 210.715 214.377 210.715C229.688 210.715 229.689 224.518 245 224.518Z" fill="#62A5F4"/>
</svg>
