<svg width="245" height="245" viewBox="0 0 245 245" fill="none" xmlns="http://www.w3.org/2000/svg">
<path d="M200.607 89.3846C198.579 89.3846 196.936 87.7409 196.936 85.7125V31.4182C196.936 29.3903 198.579 27.7461 200.607 27.7461C202.635 27.7461 204.279 29.3898 204.279 31.4182V85.713C204.279 87.7409 202.635 89.3846 200.607 89.3846Z" fill="#556875"/>
<path d="M202.62 41.4168L198.083 41.7795C197.596 41.7795 196.203 41.925 196.203 41.925C194.249 41.3891 192.77 39.7808 192.413 37.7016L189.518 20.832H210.605L207.875 36.9872C207.436 39.5463 205.217 41.4168 202.62 41.4168Z" fill="#EEAA38"/>
<path d="M211.698 20.8335L208.8 37.6997C208.365 40.2603 206.141 42.1303 203.547 42.1303H197.667C197.163 42.1303 196.668 42.0571 196.203 41.9245C198.132 41.3714 199.635 39.7607 199.988 37.6992L202.886 20.833L211.698 20.8335Z" fill="#EEAA38"/>
<path d="M186.315 23.4645C185.749 23.4645 185.296 22.9836 185.334 22.4184C185.738 16.4437 189.577 11.403 194.886 9.25879C194.886 9.25879 198.581 9.31573 200.607 9.31573C207.482 9.31573 213.764 13.975 214.302 21.9414C214.34 22.507 213.888 22.9874 213.321 22.9874L202.434 23.4664L186.315 23.4645Z" fill="#556875"/>
<path d="M215.88 22.4194C215.919 22.9826 215.464 23.4674 214.901 23.4674H202.436L202.441 23.1884C202.583 17.4993 199.675 12.2069 194.887 9.25975C196.654 8.55011 198.583 8.1582 200.605 8.1582C208.708 8.15772 215.341 14.454 215.88 22.4194Z" fill="#404D57"/>
<path d="M80.1565 89.3846C78.1286 89.3846 76.4844 87.7409 76.4844 85.7125V31.4182C76.4844 29.3903 78.1281 27.7461 80.1565 27.7461C82.1849 27.7461 83.8286 29.3898 83.8286 31.4182V85.713C83.8282 87.7409 82.1845 89.3846 80.1565 89.3846Z" fill="#556875"/>
<path d="M82.1691 41.4168L77.6318 41.7795C77.1452 41.7795 75.7522 41.925 75.7522 41.925C73.7975 41.3891 72.3184 39.7808 71.9614 37.7016L69.0664 20.832H90.1536L87.4237 36.9872C86.9844 39.5463 84.7655 41.4168 82.1691 41.4168Z" fill="#EEAA38"/>
<path d="M91.2482 20.8335L88.3499 37.6997C87.9144 40.2603 85.6912 42.1303 83.0967 42.1303H77.2167C76.7123 42.1303 76.218 42.0571 75.7529 41.9245C77.6818 41.3714 79.1848 39.7607 79.5375 37.6992L82.4359 20.833L91.2482 20.8335Z" fill="#EEAA38"/>
<path d="M65.865 23.4645C65.2984 23.4645 64.8462 22.9836 64.884 22.4184C65.2874 16.4437 69.127 11.403 74.4357 9.25879C74.4357 9.25879 78.1308 9.31573 80.1564 9.31573C87.0321 9.31573 93.3141 13.975 93.8515 21.9414C93.8897 22.507 93.4375 22.9874 92.8705 22.9874L81.9843 23.4664L65.865 23.4645Z" fill="#556875"/>
<path d="M95.429 22.4194C95.4682 22.9826 95.0127 23.4674 94.4499 23.4674H81.9851L81.9899 23.1884C82.132 17.4993 79.2236 12.2069 74.4355 9.25975C76.2027 8.55011 78.1321 8.1582 80.1538 8.1582C88.2565 8.15772 94.8906 14.454 95.429 22.4194Z" fill="#404D57"/>
<path d="M170.494 105.181C161.329 105.181 152.997 102.056 147.633 96.6086C146.211 95.1639 146.228 92.8388 147.674 91.4157C149.117 89.994 151.442 90.0098 152.867 91.4564C156.8 95.4515 163.39 97.8369 170.494 97.8369C177.598 97.8369 184.188 95.4515 188.121 91.4564C189.544 90.0103 191.869 89.994 193.314 91.4157C194.759 92.8383 194.777 95.1634 193.355 96.6086C187.991 102.056 179.659 105.181 170.494 105.181Z" fill="#D9E0E3"/>
<path d="M110.27 105.181C101.105 105.181 92.7726 102.056 87.4089 96.6086C85.9863 95.1639 86.004 92.8388 87.4491 91.4157C88.8942 89.9931 91.2189 90.0108 92.642 91.4564C96.5759 95.4515 103.165 97.8369 110.27 97.8369C117.373 97.8369 123.963 95.4515 127.896 91.4564C129.318 90.0103 131.643 89.994 133.089 91.4157C134.534 92.8383 134.552 95.1634 133.13 96.6086C127.766 102.056 119.434 105.181 110.27 105.181Z" fill="#D9E0E3"/>
<path d="M50.0449 105.181C40.8804 105.181 32.548 102.056 27.1843 96.6086C25.7617 95.1639 25.7794 92.8388 27.2245 91.4157C28.6696 89.9931 30.9947 90.0108 32.4174 91.4564C36.3512 95.4515 42.9409 97.8369 50.0449 97.8369C57.1485 97.8369 63.7381 95.4515 67.672 91.4564C69.0942 90.0113 71.4197 89.9936 72.8644 91.4157C74.3095 92.8383 74.3277 95.1634 72.9046 96.6086C67.5414 102.056 59.2095 105.181 50.0449 105.181Z" fill="#D9E0E3"/>
<path d="M12.6778 96.6098C9.92633 99.2521 5.43402 102.461 0.580439 103.527C0.281846 103.592 0 103.357 0 103.051V96.4141C0 96.215 0.124414 96.0384 0.310078 95.9671C3.10413 94.8924 5.51776 93.3884 7.35 91.5571C8.75396 90.1536 11.0408 89.9718 12.517 91.2992C14.0846 92.7094 14.1401 95.123 12.6778 96.6098Z" fill="#D9E0E3"/>
<path d="M82.0756 191.064L57.0684 175.731L78.2733 162.729C80.0022 161.669 80.5443 159.409 79.4844 157.68C78.424 155.951 76.164 155.409 74.4347 156.469L50.0438 171.424L21.8511 154.138C20.1217 153.078 17.8612 153.62 16.8013 155.349C15.7409 157.078 16.283 159.338 18.0119 160.398L43.0192 175.731L18.0119 191.064C16.283 192.124 15.7409 194.385 16.8008 196.113C17.4937 197.244 18.6996 197.867 19.9346 197.867C20.5887 197.867 21.2515 197.692 21.8506 197.325L50.0433 180.038L78.236 197.325C78.8346 197.692 79.4974 197.867 80.152 197.867C81.387 197.867 82.5929 197.244 83.2858 196.113C84.3466 194.385 83.8045 192.124 82.0756 191.064Z" fill="#EEAA38"/>
<path d="M142.301 191.064L117.294 175.731L138.499 162.729C140.228 161.669 140.77 159.409 139.71 157.68C138.65 155.951 136.39 155.409 134.66 156.469L110.269 171.424L82.0766 154.138C80.3473 153.078 78.0868 153.62 77.0269 155.349C75.9665 157.078 76.5086 159.338 78.2375 160.398L103.245 175.731L78.2375 191.064C76.5086 192.124 75.9665 194.385 77.0264 196.113C77.7193 197.244 78.9251 197.867 80.1602 197.867C80.8143 197.867 81.4771 197.692 82.0762 197.325L110.269 180.038L138.462 197.325C139.06 197.692 139.723 197.867 140.378 197.867C141.613 197.867 142.818 197.244 143.511 196.113C144.572 194.385 144.03 192.124 142.301 191.064Z" fill="#EEAA38"/>
<path d="M202.526 191.064L177.519 175.731L198.724 162.729C200.452 161.669 200.995 159.409 199.935 157.68C198.874 155.951 196.614 155.409 194.885 156.469L170.494 171.424L142.301 154.138C140.572 153.078 138.311 153.62 137.251 155.349C136.191 157.078 136.733 159.338 138.462 160.398L163.469 175.731L138.462 191.064C136.733 192.124 136.191 194.385 137.251 196.113C137.944 197.244 139.15 197.867 140.385 197.867C141.039 197.867 141.702 197.692 142.301 197.325L170.493 180.038L198.686 197.325C199.285 197.692 199.948 197.867 200.602 197.867C201.837 197.867 203.043 197.244 203.736 196.113C204.797 194.385 204.255 192.124 202.526 191.064Z" fill="#EEAA38"/>
<path d="M193.611 218.563V95.5039H203.951V208.646L193.611 218.563Z" fill="#F19937"/>
<path d="M207.601 95.5049V208.644L200.257 213.853V95.5049H207.601Z" fill="#F19937"/>
<path d="M133.387 218.563V95.5039H143.726V208.646L133.387 218.563Z" fill="#F19937"/>
<path d="M147.376 95.5049V208.644L140.032 213.853V95.5049H147.376Z" fill="#F19937"/>
<path d="M73.1631 218.563V95.5039H83.5024V208.646L73.1631 218.563Z" fill="#F19937"/>
<path d="M87.1524 95.5049V208.644L79.8086 213.853V95.5049H87.1524Z" fill="#F19937"/>
<path d="M12.9395 218.563V95.5039H23.2783V208.646L12.9395 218.563Z" fill="#F19937"/>
<path d="M26.9287 95.5049V208.644L19.585 213.853V95.5049H26.9287Z" fill="#F19937"/>
<path d="M1.46954 125.865H207.6L221.606 126.844C224.31 126.844 226.502 129.036 226.502 131.74V143.275C226.502 145.979 224.309 148.17 221.606 148.17L202.275 149.149H1.46954C0.658457 149.149 0.000976562 148.492 0.000976562 147.681V127.334C0.000976562 126.523 0.658457 125.865 1.46954 125.865Z" fill="#EEAA38"/>
<path d="M228.461 130.76V144.253C228.461 146.956 226.268 149.149 223.565 149.149H200.883C204.594 149.149 207.6 146.143 207.6 142.432V125.864H223.565C226.268 125.865 228.461 128.058 228.461 130.76Z" fill="#F19937"/>
<path d="M80.1565 100.554C85.6067 100.554 90.0249 96.136 90.0249 90.6858C90.0249 85.2356 85.6067 80.8174 80.1565 80.8174C74.7063 80.8174 70.2881 85.2356 70.2881 90.6858C70.2881 96.136 74.7063 100.554 80.1565 100.554Z" fill="#EEAA38"/>
<path d="M19.9319 100.554C25.3821 100.554 29.8003 96.136 29.8003 90.6858C29.8003 85.2356 25.3821 80.8174 19.9319 80.8174C14.4817 80.8174 10.0635 85.2356 10.0635 90.6858C10.0635 96.136 14.4817 100.554 19.9319 100.554Z" fill="#EEAA38"/>
<path d="M140.381 100.554C145.831 100.554 150.25 96.136 150.25 90.6858C150.25 85.2356 145.831 80.8174 140.381 80.8174C134.931 80.8174 130.513 85.2356 130.513 90.6858C130.513 96.136 134.931 100.554 140.381 100.554Z" fill="#EEAA38"/>
<path d="M200.607 100.554C206.057 100.554 210.475 96.136 210.475 90.6858C210.475 85.2356 206.057 80.8174 200.607 80.8174C195.157 80.8174 190.738 85.2356 190.738 90.6858C190.738 96.136 195.157 100.554 200.607 100.554Z" fill="#EEAA38"/>
<path d="M1.41545 233.471C1.41545 234.33 2.1471 235.005 3.00412 234.948C16.7485 234.028 15.8618 220.571 30.6264 220.571C45.9399 220.571 45.9399 234.374 61.2534 234.374C76.5663 234.374 76.5663 220.571 91.8788 220.571C107.191 220.571 107.191 234.374 122.503 234.374C137.815 234.374 137.815 220.571 153.126 220.571C168.438 220.571 168.438 234.374 183.751 234.374C199.063 234.374 199.063 220.571 214.376 220.571C229.139 220.571 226.507 232.705 240.249 233.625C241.107 233.683 241.838 233.007 241.838 232.148L245 224.518V213.649C245 212.862 244.394 212.197 243.608 212.152C229.673 211.342 229.21 198.389 214.376 198.389C199.064 198.389 199.064 212.191 183.751 212.191C168.439 212.191 168.439 198.389 153.127 198.389C137.815 198.389 137.815 212.191 122.504 212.191C107.191 212.191 107.191 198.389 91.8793 198.389C76.5663 198.389 76.5663 212.191 61.2538 212.191C45.9404 212.191 45.9404 198.389 30.6269 198.389C15.792 198.389 15.3283 211.342 1.39152 212.152C0.606279 212.197 0 212.862 0 213.649V224.518L1.41545 233.471Z" fill="#00AEC3"/>
<path d="M245 224.518V235.309C245 236.171 244.27 236.847 243.413 236.788C229.669 235.866 229.142 223.039 214.377 223.039C199.066 223.039 199.066 236.842 183.75 236.842C168.439 236.842 168.439 223.039 153.127 223.039C137.816 223.039 137.816 236.842 122.505 236.842C107.193 236.842 107.194 223.039 91.8774 223.039C76.5663 223.039 76.5663 236.842 61.2548 236.842C45.9385 236.842 45.9385 223.039 30.6274 223.039C15.8633 223.039 15.3307 235.866 1.58724 236.788C0.729736 236.847 0 236.171 0 235.309V224.518C15.3111 224.518 15.3111 210.715 30.6274 210.715C45.9385 210.715 45.9385 224.518 61.2548 224.518C76.5658 224.518 76.5658 210.715 91.8774 210.715C107.194 210.715 107.194 224.518 122.505 224.518C137.816 224.518 137.816 210.715 153.127 210.715C168.439 210.715 168.438 224.518 183.75 224.518C199.066 224.518 199.066 210.715 214.377 210.715C229.688 210.715 229.689 224.518 245 224.518Z" fill="#08B0A0"/>
</svg>
