<svg width="319" height="229" viewBox="0 0 319 229" fill="none" xmlns="http://www.w3.org/2000/svg">
<path d="M113.189 132.445C111.271 132.445 109.715 130.89 109.715 128.971V84.8679C109.715 82.9489 111.271 81.3938 113.189 81.3938C115.107 81.3938 116.663 82.9489 116.663 84.8679V128.971C116.663 130.89 115.108 132.445 113.189 132.445Z" fill="#939393"/>
<path d="M136.349 132.445C134.431 132.445 132.875 130.89 132.875 128.971V95.7556C132.875 93.8366 134.431 92.2815 136.349 92.2815C138.267 92.2815 139.823 93.8366 139.823 95.7556V128.971C139.823 130.89 138.267 132.445 136.349 132.445Z" fill="#939393"/>
<path d="M159.498 132.446C157.579 132.446 156.023 130.891 156.023 128.972V99.0959C156.023 97.1769 157.579 95.6218 159.498 95.6218C161.416 95.6218 162.972 97.1769 162.972 99.0959V128.972C162.972 130.891 161.416 132.446 159.498 132.446Z" fill="#939393"/>
<path d="M182.656 132.446C180.737 132.446 179.182 130.89 179.182 128.972V95.747C179.182 93.8281 180.737 92.2729 182.656 92.2729C184.574 92.2729 186.13 93.8281 186.13 95.747V128.972C186.13 130.89 184.574 132.446 182.656 132.446Z" fill="#939393"/>
<path d="M205.806 132.445C203.888 132.445 202.332 130.89 202.332 128.971V84.8679C202.332 82.9489 203.888 81.3938 205.806 81.3938C207.724 81.3938 209.28 82.9489 209.28 84.8679V128.971C209.28 130.89 207.724 132.445 205.806 132.445Z" fill="#939393"/>
<path d="M90.0405 132.446C88.1222 132.446 86.5664 130.89 86.5664 128.971V62.8022C86.5664 60.8832 88.1222 59.3281 90.0405 59.3281C91.9589 59.3281 93.5146 60.8832 93.5146 62.8022V128.971C93.5152 130.89 91.9595 132.446 90.0405 132.446Z" fill="#939393"/>
<path d="M228.957 132.446C227.038 132.446 225.482 130.89 225.482 128.971V62.8022C225.482 60.8832 227.038 59.3281 228.957 59.3281C230.875 59.3281 232.431 60.8832 232.431 62.8022V128.971C232.431 130.89 230.875 132.446 228.957 132.446Z" fill="#939393"/>
<path d="M293.414 132.446C291.495 132.446 289.939 130.89 289.939 128.971V62.8022C289.939 60.8832 291.495 59.3281 293.414 59.3281C295.332 59.3281 296.888 60.8832 296.888 62.8022V128.971C296.888 130.89 295.332 132.446 293.414 132.446Z" fill="#939393"/>
<path d="M25.5854 132.446C23.6671 132.446 22.1113 130.89 22.1113 128.971V62.8022C22.1113 60.8832 23.6671 59.3281 25.5854 59.3281C27.5038 59.3281 29.0595 60.8832 29.0595 62.8022V128.971C29.0601 130.89 27.5044 132.446 25.5854 132.446Z" fill="#939393"/>
<path d="M4.73953 122.001H29.047H46.6586H68.9686H250.034H272.343H289.954H314.262L314.264 141.136H272.339H250.034H68.9686H46.6617H4.73828" fill="#E03232"/>
<path d="M159.5 100.012C108.553 100.012 66.8161 59.8197 64.3413 9.47464H51.2885C50.3777 28.2451 44.0525 46.0473 32.8583 61.2185C25.8459 70.7336 17.241 78.7759 7.28416 85.1222C5.07796 86.5284 2.14965 85.8798 0.742819 83.6724C-0.663392 81.4662 -0.0141798 78.5372 2.19264 77.131C11.162 71.4152 18.9139 64.1686 25.2328 55.5949C36.156 40.7907 41.9292 23.2059 41.9292 4.73763C41.9292 2.12147 44.05 0 46.6668 0H68.9637C70.2204 0 71.4247 0.499059 72.3144 1.38752C73.2023 2.27536 73.7013 3.48095 73.7013 4.73763C73.7013 52.0479 112.191 90.5371 159.501 90.5371C206.81 90.5371 245.299 52.0479 245.299 4.73763C245.299 3.48095 245.798 2.27598 246.686 1.38752C247.575 0.498436 248.779 0 250.037 0H272.333C274.95 0 277.071 2.12147 277.071 4.73763C277.071 23.2059 282.844 40.792 293.766 55.5924C300.087 64.1698 307.838 71.4152 316.808 77.131C319.014 78.5372 319.664 81.4655 318.257 83.6724C316.85 85.8792 313.922 86.5284 311.716 85.1222C301.759 78.7777 293.155 70.7342 286.141 61.216C274.948 46.0473 268.623 28.2457 267.712 9.47464H254.658C252.182 59.8197 210.446 100.012 159.5 100.012Z" fill="#A01717"/>
<path d="M68.9622 0H46.6634C44.0485 0 41.9258 2.12271 41.9258 4.73763V180.485C41.9258 183.1 44.0485 185.222 46.6634 185.222H68.9622C71.5771 185.222 73.6998 183.1 73.6998 180.485V4.73763C73.6998 2.12271 71.5771 0 68.9622 0Z" fill="#C92727"/>
<path d="M68.9636 0H54.2454C51.6305 0 49.5078 2.12271 49.5078 4.73763V180.485C49.5078 183.1 51.6305 185.222 54.2454 185.222H68.9636C71.5785 185.222 73.7013 183.1 73.7013 180.485V4.73763C73.7013 2.12271 71.5785 0 68.9636 0Z" fill="#E03232"/>
<path d="M78.6467 228.461V184.426C78.6467 182.251 76.8835 180.489 74.7097 180.489H40.9214C38.7463 180.489 36.9844 182.252 36.9844 184.426V228.461" fill="#D8D8D6"/>
<path d="M50.915 228.46V180.489H40.9214C38.7463 180.489 36.9844 182.252 36.9844 184.426V228.46" fill="#C4C4C2"/>
<path d="M272.333 0H250.035C247.42 0 245.297 2.12271 245.297 4.73763V180.485C245.297 183.1 247.42 185.222 250.035 185.222H272.333C274.948 185.222 277.07 183.1 277.07 180.485V4.73763C277.07 2.12271 274.948 0 272.333 0Z" fill="#C92727"/>
<path d="M272.335 0H257.617C255.002 0 252.879 2.12271 252.879 4.73763V180.485C252.879 183.1 255.002 185.222 257.617 185.222H272.335C274.95 185.222 277.072 183.1 277.072 180.485V4.73763C277.072 2.12271 274.95 0 272.335 0Z" fill="#E03232"/>
<path d="M282.017 228.461V184.426C282.017 182.251 280.254 180.489 278.08 180.489H244.292C242.117 180.489 240.355 182.252 240.355 184.426V228.461" fill="#D8D8D6"/>
<path d="M254.285 228.46V180.489H244.292C242.117 180.489 240.355 182.252 240.355 184.426V228.46" fill="#C4C4C2"/>
</svg>
