<svg width="177" height="177" viewBox="0 0 177 177" fill="none" xmlns="http://www.w3.org/2000/svg">
<g clip-path="url(#clip0_1655_12109)">
<path d="M83.0059 10.1748C83.0059 10.1748 161.631 18.4675 163.628 98.3205C163.672 100.095 162.403 101.63 160.649 101.897L83.0059 113.731L85.2038 110.398C105.395 79.787 104.52 39.8717 83.0059 10.1748Z" fill="#009E3D"/>
<path d="M83.0059 10.1748C84.565 12.3268 86.0121 14.5341 87.3541 16.786C110.721 24.6197 148.222 45.71 149.594 100.543C149.632 102.062 148.705 103.404 147.337 103.926L160.649 101.897C162.403 101.63 163.672 100.095 163.627 98.3208C161.631 18.4675 83.0059 10.1748 83.0059 10.1748Z" fill="#297A38"/>
<path d="M83.0067 10.1748L11.5523 118.82C9.88149 121.36 12.0131 124.678 15.0183 124.215L83.007 113.731L83.0067 10.1748Z" fill="#98DCA4"/>
<path d="M68.9727 31.5126V115.895L83.0061 113.731V10.1748L68.9727 31.5126Z" fill="#62CA76"/>
<path d="M83.0061 0C81.5528 0 80.375 1.17781 80.375 2.63115V140.688C80.375 142.141 81.5532 143.319 83.0061 143.319C84.4595 143.319 85.6373 142.141 85.6373 140.688V2.63115C85.6376 1.17781 84.4595 0 83.0061 0Z" fill="#F19937"/>
<path d="M2.45508 140.261V160.887C2.45508 169.786 9.6623 177 18.5527 177H128.007C143.043 177 156.541 167.774 162.015 153.757L160.041 148.278L166.294 142.799L176.575 116.471C177.568 113.928 175.442 111.261 172.744 111.666L5.47756 136.748C3.7404 137.009 2.45508 138.503 2.45508 140.261Z" fill="#EEAA38"/>
<path d="M172.744 111.666L162.208 113.246C162.798 114.151 162.99 115.322 162.541 116.471L147.981 153.757C142.507 167.774 129.009 177 113.973 177H128.006C143.042 177 156.541 167.774 162.014 153.757L160.86 148.278L166.294 142.799L176.575 116.471C177.568 113.928 175.442 111.261 172.744 111.666Z" fill="#F19937"/>
<path d="M175.338 125.929C175.128 124.491 173.792 123.493 172.355 123.704L2.42847 148.427C0.990346 148.637 -0.00562511 149.972 0.203525 151.41C0.394008 152.72 1.51858 153.663 2.80425 153.663C2.93043 153.663 3.058 153.654 3.18625 153.635L173.113 128.912C174.551 128.702 175.547 127.367 175.338 125.929Z" fill="#009E3D"/>
<path d="M166.293 142.799L162.014 153.757H147.393C144.367 153.757 141.914 151.304 141.914 148.278C141.914 145.252 144.367 142.799 147.393 142.799H166.293Z" fill="#98DCA4"/>
<path d="M152.26 142.799L147.98 153.757H162.014L166.293 142.799H152.26Z" fill="#62CA76"/>
</g>
<defs>
<clipPath id="clip0_1655_12109">
<rect width="177" height="177" fill="white"/>
</clipPath>
</defs>
</svg>
