<svg width="177" height="177" viewBox="0 0 177 177" fill="none" xmlns="http://www.w3.org/2000/svg">
<g clip-path="url(#clip0_1423_721)">
<path d="M83.0078 10.1743C83.0078 10.1743 161.632 18.467 163.63 98.32C163.674 100.094 162.405 101.629 160.651 101.897L83.0078 113.73L85.2058 110.398C105.397 79.7865 104.522 39.8713 83.0078 10.1743Z" fill="#9AD4FE"/>
<path d="M83.0078 10.1743C84.5669 12.3263 86.014 14.5336 87.3561 16.7855C110.723 24.6192 148.224 45.7095 149.596 100.542C149.634 102.062 148.707 103.403 147.339 103.926L160.651 101.897C162.405 101.629 163.674 100.094 163.629 98.3203C161.633 18.467 83.0078 10.1743 83.0078 10.1743Z" fill="#70C5FF"/>
<path d="M83.0057 10.1743L11.5513 118.819C9.88051 121.36 12.0121 124.678 15.0173 124.215L83.0061 113.73L83.0057 10.1743Z" fill="#FEE45A"/>
<path d="M68.9727 31.5121V115.894L83.0061 113.73V10.1743L68.9727 31.5121Z" fill="#FFD15B"/>
<path d="M83.0061 0C81.5528 0 80.375 1.17781 80.375 2.63115V140.688C80.375 142.141 81.5532 143.319 83.0061 143.319C84.4595 143.319 85.6373 142.141 85.6373 140.688V2.63115C85.6376 1.17781 84.4595 0 83.0061 0Z" fill="#AB695D"/>
<path d="M2.45312 140.261V160.887C2.45312 169.786 9.66034 177 18.5508 177H128.005C143.041 177 156.539 167.774 162.013 153.758L160.039 148.279L166.292 142.799L176.573 116.471C177.566 113.928 175.44 111.262 172.742 111.666L5.47561 136.749C3.73845 137.009 2.45312 138.503 2.45312 140.261Z" fill="#DD7F66"/>
<path d="M172.744 111.666L162.208 113.246C162.798 114.151 162.99 115.322 162.541 116.471L147.981 153.758C142.507 167.775 129.009 177 113.973 177H128.006C143.042 177 156.541 167.775 162.014 153.758L160.86 148.279L166.294 142.8L176.575 116.471C177.568 113.928 175.442 111.261 172.744 111.666Z" fill="#D6694B"/>
<path d="M175.338 125.929C175.128 124.49 173.792 123.493 172.355 123.704L2.42847 148.427C0.990346 148.637 -0.00562511 149.972 0.203525 151.41C0.394008 152.719 1.51858 153.663 2.80425 153.663C2.93043 153.663 3.058 153.654 3.18625 153.635L173.113 128.911C174.551 128.702 175.547 127.367 175.338 125.929Z" fill="#9AD4FE"/>
<path d="M166.293 142.8L162.014 153.758H147.393C144.367 153.758 141.914 151.305 141.914 148.279C141.914 145.253 144.367 142.8 147.393 142.8H166.293Z" fill="#FEE45A"/>
<path d="M152.26 142.8L147.98 153.758H162.014L166.293 142.8H152.26Z" fill="#FFD15B"/>
</g>
<defs>
<clipPath id="clip0_1423_721">
<rect width="177" height="177" fill="white"/>
</clipPath>
</defs>
</svg>
