<svg width="354" height="204" viewBox="0 0 354 204" fill="none" xmlns="http://www.w3.org/2000/svg">
<path d="M337.081 203.234C337.874 203.234 338.683 203.061 339.45 202.697C342.207 201.386 343.379 198.089 342.067 195.334L286.809 79.2926C285.498 76.538 282.206 75.3665 279.443 76.6782C276.686 77.9892 275.515 81.2867 276.826 84.0413L332.084 200.083C333.034 202.071 335.014 203.234 337.081 203.234Z" fill="#DBD8DB"/>
<path d="M16.5723 203.234C15.7794 203.234 14.9699 203.061 14.2032 202.697C11.4458 201.386 10.275 198.089 11.586 195.334L66.8438 79.2926C68.1548 76.538 71.4468 75.3665 74.2097 76.6782C76.967 77.9892 78.1385 81.2867 76.8268 84.0413L21.569 200.083C20.62 202.071 18.639 203.234 16.5723 203.234Z" fill="#DBD8DB"/>
<path d="M291.505 106.686L176.824 13.2773L69.466 84.3872L52.8887 197.709H303.917L291.505 106.686Z" fill="#91A3B0"/>
<path d="M291.505 106.686L287.993 80.9299C287.577 77.8769 285.905 75.1361 283.381 73.3692L179.994 0.998785C178.091 -0.332928 175.559 -0.332928 173.656 0.998785L70.2685 73.3699C67.7446 75.1368 66.0724 77.8776 65.6558 80.9306L49.7319 197.708H60.885L73.4935 105.239C74.1179 100.66 76.6259 96.5485 80.4124 93.8982L173.657 28.6277C175.559 27.296 178.092 27.296 179.994 28.6277L291.505 106.686Z" fill="#404D57"/>
<path d="M149.196 109.296H204.454V197.708H149.196V109.296Z" fill="#404D57"/>
<path d="M193.402 197.708H160.248V142.45C160.248 133.295 167.669 125.873 176.825 125.873C185.98 125.873 193.402 133.295 193.402 142.45V197.708Z" fill="#4A5B66"/>
<path d="M209.98 109.296H143.67V98.2445C143.67 95.1929 146.145 92.7188 149.196 92.7188H209.98C213.031 92.7188 215.506 95.1929 215.506 98.2445V103.77C215.506 106.822 213.031 109.296 209.98 109.296Z" fill="#404D57"/>
<path d="M348.124 203.234H5.52578C2.4714 203.234 0 200.76 0 197.708C0 194.657 2.4714 192.183 5.52578 192.183H348.124C351.178 192.183 353.65 194.657 353.65 197.708C353.65 200.76 351.178 203.234 348.124 203.234Z" fill="#91A3B0"/>
<path d="M160.248 103.77C154.144 103.77 149.196 98.8227 149.196 92.7188H143.67C140.619 92.7188 138.145 95.1929 138.145 98.2445V109.296C138.145 112.348 140.619 114.822 143.67 114.822H209.98C213.031 114.822 215.505 112.348 215.505 109.296V103.77H160.248Z" fill="#4A5B66"/>
</svg>
