<svg width="354" height="204" viewBox="0 0 354 204" fill="none" xmlns="http://www.w3.org/2000/svg">
<path d="M337.081 203.234C337.874 203.234 338.683 203.061 339.45 202.697C342.207 201.386 343.379 198.089 342.067 195.334L286.809 79.2928C285.498 76.5382 282.206 75.3667 279.443 76.6784C276.686 77.9894 275.515 81.2869 276.826 84.0415L332.084 200.083C333.034 202.071 335.014 203.234 337.081 203.234Z" fill="#DBD8DB"/>
<path d="M16.5723 203.234C15.7794 203.234 14.9699 203.061 14.2032 202.697C11.4458 201.386 10.275 198.089 11.586 195.334L66.8438 79.2928C68.1548 76.5382 71.4468 75.3667 74.2097 76.6784C76.967 77.9894 78.1385 81.2869 76.8268 84.0415L21.569 200.083C20.62 202.071 18.639 203.234 16.5723 203.234Z" fill="#DBD8DB"/>
<path d="M291.505 106.686L176.824 13.2771L69.466 84.387L52.8887 197.708H303.917L291.505 106.686Z" fill="#98DB7C"/>
<path d="M291.506 106.686L287.994 80.9299C287.577 77.8769 285.906 75.1361 283.381 73.3692L179.994 0.998785C178.091 -0.332928 175.559 -0.332928 173.656 0.998785L70.269 73.3699C67.7451 75.1368 66.0728 77.8776 65.6563 80.9306L49.7324 197.708H60.8855L73.494 105.239C74.1184 100.66 76.6264 96.5485 80.4129 93.8982L173.657 28.6277C175.56 27.296 178.092 27.296 179.994 28.6277L291.506 106.686Z" fill="#77CC7D"/>
<path d="M149.195 109.296H204.453V197.708H149.195V109.296Z" fill="#4E3D4D"/>
<path d="M193.403 197.708H160.248V142.45C160.248 133.295 167.67 125.873 176.825 125.873C185.981 125.873 193.403 133.295 193.403 142.45V197.708Z" fill="#615260"/>
<path d="M209.979 109.296H143.67V98.244C143.67 95.1924 146.144 92.7183 149.196 92.7183H209.979C213.031 92.7183 215.505 95.1924 215.505 98.244V103.77C215.505 106.821 213.031 109.296 209.979 109.296Z" fill="#77CC7D"/>
<path d="M348.124 203.234H5.52578C2.4714 203.234 0 200.76 0 197.708C0 194.657 2.4714 192.182 5.52578 192.182H348.124C351.178 192.182 353.65 194.657 353.65 197.708C353.65 200.76 351.178 203.234 348.124 203.234Z" fill="#B8B2B8"/>
<path d="M160.248 103.77C154.144 103.77 149.196 98.8222 149.196 92.7183H143.67C140.619 92.7183 138.145 95.1924 138.145 98.244V109.296C138.145 112.347 140.619 114.821 143.67 114.821H209.98C213.031 114.821 215.505 112.347 215.505 109.296V103.77H160.248Z" fill="#52BD7E"/>
</svg>
