<svg width="288" height="264" viewBox="0 0 288 264" fill="none" xmlns="http://www.w3.org/2000/svg">
<path d="M144.09 187.756H262.741V122.345H110.387L144.09 187.756Z" fill="#EDCE91"/>
<path d="M258.683 259.746H30.4961L24.8789 216.632V194.745H264.3V216.632L258.683 259.746Z" fill="#F5DEB2"/>
<path d="M127.802 112.106H30.4961L24.8789 67.9224V49.3823H105.334L127.802 112.106Z" fill="#F5DEB2"/>
<path d="M24.8789 7.8427V38.4159H92.4142L79.9182 5.08916C78.7706 2.0278 75.8441 0 72.5749 0H32.7216C28.3902 0 24.8789 3.5113 24.8789 7.8427Z" fill="#F5DEB2"/>
<path d="M245.891 124.758V185.342H257.126L262.743 141.998V124.758H245.891Z" fill="#EDC472"/>
<path d="M247.449 199.162H264.301V259.746H247.449V199.162Z" fill="#EDCE91"/>
<path d="M105.332 49.3823H88.4805L110.949 112.106H127.801L105.332 49.3823Z" fill="#EDCE91"/>
<path d="M72.5726 0H61.1562L75.5604 38.4159H92.4119L79.9159 5.08916C78.7683 2.0278 75.8424 0 72.5726 0Z" fill="#EDCE91"/>
<path d="M43.7172 259.746H24.8789V216.633H29.3558C37.2878 216.633 43.7178 223.063 43.7178 230.995V259.746H43.7172Z" fill="#DBB56A"/>
<path d="M264.3 259.747H245.461V230.995C245.461 223.063 251.891 216.633 259.823 216.633H264.3V259.747Z" fill="#DBB56A"/>
<path d="M89.6341 259.747H60.9102V230.995C60.9102 223.063 67.3401 216.633 75.2722 216.633C83.2042 216.633 89.6341 223.063 89.6341 230.995V259.747Z" fill="#DBB56A"/>
<path d="M135.841 259.747H107.117V230.995C107.117 223.063 113.547 216.633 121.479 216.633C129.411 216.633 135.841 223.063 135.841 230.995V259.747Z" fill="#DBB56A"/>
<path d="M182.056 259.747H153.332V230.995C153.332 223.063 159.762 216.633 167.694 216.633C175.626 216.633 182.056 223.063 182.056 230.995V259.747Z" fill="#DBB56A"/>
<path d="M228.267 259.747H199.543V230.995C199.543 223.063 205.973 216.633 213.905 216.633C221.837 216.633 228.267 223.063 228.267 230.995V259.747Z" fill="#DBB56A"/>
<path d="M177.795 187.756H30.4961L24.8789 142.229V122.345H155.327L177.795 187.756Z" fill="#F5DEB2"/>
<path d="M43.7172 185.342H24.8789V142.228H29.3558C37.2878 142.228 43.7178 148.658 43.7178 156.59V185.342H43.7172Z" fill="#DBB56A"/>
<path d="M262.745 185.111H243.906V156.359C243.906 148.427 250.336 141.997 258.268 141.997H262.745V185.111Z" fill="#DBB56A"/>
<path d="M89.6341 185.342H60.9102V156.59C60.9102 148.658 67.3401 142.228 75.2722 142.228C83.2042 142.228 89.6341 148.658 89.6341 156.59V185.342Z" fill="#DBB56A"/>
<path d="M135.841 185.342H107.117V156.59C107.117 148.658 113.547 142.228 121.479 142.228C129.411 142.228 135.841 148.658 135.841 156.59V185.342Z" fill="#DBB56A"/>
<path d="M226.712 185.111H197.988V156.359C197.988 148.427 204.418 141.997 212.35 141.997C220.282 141.997 226.712 148.427 226.712 156.359V185.111Z" fill="#DBB56A"/>
<path d="M43.7172 111.036H24.8789V67.9229H29.3558C37.2878 67.9229 43.7178 74.3528 43.7178 82.2849V111.036H43.7172Z" fill="#DBB56A"/>
<path d="M89.6341 111.036H60.9102V82.2844C60.9102 74.3523 67.3401 67.9224 75.2722 67.9224C83.2042 67.9224 89.6341 74.3523 89.6341 82.2844V111.036Z" fill="#DBB56A"/>
<path d="M110.535 50.2759H24.2748C21.3898 50.2759 19.0508 47.9369 19.0508 45.0519V41.7367C19.0508 38.8517 21.3898 36.5127 24.2748 36.5127H110.535C113.42 36.5127 115.759 38.8517 115.759 41.7367V45.0519C115.759 47.9369 113.42 50.2759 110.535 50.2759Z" fill="#BC9B5B"/>
<path d="M283.387 263.942H4.21288C1.88569 263.942 0 262.056 0 259.729C0 257.402 1.88569 255.516 4.21288 255.516H283.387C285.714 255.516 287.599 257.402 287.599 259.729C287.599 262.056 285.714 263.942 283.387 263.942Z" fill="#BC9B5B"/>
<path d="M263.323 199.061H24.2748C21.3898 199.061 19.0508 196.722 19.0508 193.837V190.521C19.0508 187.636 21.3898 185.297 24.2748 185.297H263.323C266.208 185.297 268.547 187.636 268.547 190.521V193.837C268.547 196.722 266.208 199.061 263.323 199.061Z" fill="#BC9B5B"/>
<path d="M263.834 124.681H24.7865C21.9015 124.681 19.5625 122.342 19.5625 119.457V116.141C19.5625 113.256 21.9015 110.917 24.7865 110.917H263.834C266.719 110.917 269.058 113.256 269.058 116.141V119.457C269.058 122.342 266.719 124.681 263.834 124.681Z" fill="#BC9B5B"/>
</svg>
