<svg width="288" height="264" viewBox="0 0 288 264" fill="none" xmlns="http://www.w3.org/2000/svg">
<path d="M144.094 187.755H262.745V122.345H110.391L144.094 187.755Z" fill="#F5D49D"/>
<path d="M258.681 259.746H30.4941L24.877 216.632V194.745H264.298V216.632L258.681 259.746Z" fill="#F5D49D"/>
<path d="M127.8 112.106H30.4941L24.877 67.9229V49.3828H105.332L127.8 112.106Z" fill="#F5D49D"/>
<path d="M24.877 7.8427V38.4159H92.4123L79.9163 5.08916C78.7687 2.0278 75.8421 0 72.573 0H32.7197C28.3882 0 24.877 3.5113 24.877 7.8427Z" fill="#F5D49D"/>
<path d="M245.889 124.758V185.342H257.124L262.741 141.997V124.758H245.889Z" fill="#F19937"/>
<path d="M247.445 199.162H264.297V259.746H247.445V199.162Z" fill="#F5D49D"/>
<path d="M105.334 49.3828H88.4824L110.951 112.106H127.803L105.334 49.3828Z" fill="#F5D49D"/>
<path d="M72.5746 0H61.1582L75.5623 38.4159H92.4139L79.9179 5.08916C78.7703 2.0278 75.8443 0 72.5746 0Z" fill="#F5D49D"/>
<path d="M43.7153 259.746H24.877V216.633H29.3538C37.2859 216.633 43.7158 223.063 43.7158 230.995V259.746H43.7153Z" fill="#F19937"/>
<path d="M264.298 259.747H245.459V230.995C245.459 223.063 251.889 216.633 259.821 216.633H264.298V259.747Z" fill="#F19937"/>
<path d="M89.6322 259.747H60.9082V230.995C60.9082 223.063 67.3382 216.633 75.2702 216.633C83.2022 216.633 89.6322 223.063 89.6322 230.995V259.747Z" fill="#F19937"/>
<path d="M135.845 259.747H107.121V230.995C107.121 223.063 113.551 216.633 121.483 216.633C129.415 216.633 135.845 223.063 135.845 230.995V259.747Z" fill="#F19937"/>
<path d="M182.054 259.747H153.33V230.995C153.33 223.063 159.76 216.633 167.692 216.633C175.624 216.633 182.054 223.063 182.054 230.995V259.747Z" fill="#F19937"/>
<path d="M228.269 259.747H199.545V230.995C199.545 223.063 205.975 216.633 213.907 216.633C221.839 216.633 228.269 223.063 228.269 230.995V259.747Z" fill="#F19937"/>
<path d="M177.793 187.755H30.4941L24.877 142.228V122.345H155.325L177.793 187.755Z" fill="#F5D49D"/>
<path d="M43.7153 185.343H24.877V142.229H29.3538C37.2859 142.229 43.7158 148.658 43.7158 156.591V185.343H43.7153Z" fill="#F19937"/>
<path d="M262.745 185.111H243.906V156.359C243.906 148.427 250.336 141.997 258.268 141.997H262.745V185.111Z" fill="#F19937"/>
<path d="M89.6322 185.343H60.9082V156.591C60.9082 148.658 67.3382 142.229 75.2702 142.229C83.2022 142.229 89.6322 148.658 89.6322 156.591V185.343Z" fill="#F19937"/>
<path d="M135.845 185.343H107.121V156.591C107.121 148.658 113.551 142.229 121.483 142.229C129.415 142.229 135.845 148.658 135.845 156.591V185.343Z" fill="#F19937"/>
<path d="M226.716 185.111H197.992V156.359C197.992 148.427 204.422 141.997 212.354 141.997C220.286 141.997 226.716 148.427 226.716 156.359V185.111Z" fill="#F19937"/>
<path d="M43.7153 111.036H24.877V67.9229H29.3538C37.2859 67.9229 43.7158 74.3528 43.7158 82.2849V111.036H43.7153Z" fill="#F19937"/>
<path d="M89.6322 111.036H60.9082V82.2839C60.9082 74.3519 67.3382 67.9219 75.2702 67.9219C83.2022 67.9219 89.6322 74.3519 89.6322 82.2839V111.036Z" fill="#F19937"/>
<path d="M110.538 50.2759H24.2777C21.3927 50.2759 19.0537 47.9369 19.0537 45.0519V41.7367C19.0537 38.8517 21.3927 36.5127 24.2777 36.5127H110.538C113.423 36.5127 115.762 38.8517 115.762 41.7367V45.0519C115.762 47.9369 113.423 50.2759 110.538 50.2759Z" fill="#F19937"/>
<path d="M283.387 263.942H4.21288C1.88569 263.942 0 262.056 0 259.729C0 257.403 1.88569 255.517 4.21288 255.517H283.387C285.714 255.517 287.599 257.403 287.599 259.729C287.599 262.057 285.714 263.942 283.387 263.942Z" fill="#F19937"/>
<path d="M263.327 199.06H24.2787C21.3937 199.06 19.0547 196.721 19.0547 193.836V190.521C19.0547 187.636 21.3937 185.297 24.2787 185.297H263.327C266.212 185.297 268.551 187.636 268.551 190.521V193.836C268.551 196.721 266.212 199.06 263.327 199.06Z" fill="#F19937"/>
<path d="M263.836 124.68H24.7884C21.9034 124.68 19.5645 122.341 19.5645 119.456V116.141C19.5645 113.256 21.9034 110.917 24.7884 110.917H263.836C266.721 110.917 269.06 113.256 269.06 116.141V119.456C269.06 122.341 266.721 124.68 263.836 124.68Z" fill="#F19937"/>
</svg>
