<svg width="309" height="309" viewBox="0 0 309 309" fill="none" xmlns="http://www.w3.org/2000/svg">
<path d="M109.722 231.395V108.423H199.279V231.395" fill="#F5D49D"/>
<path d="M199.279 108.423H131.579H109.722V125.502V231.395H131.579V125.502H199.279V108.423Z" fill="#F5D49D"/>
<path d="M235.917 188.542V308.999H68.2305V188.542H109.72V207.598H126.615V188.542H146.055V207.598H162.943V188.542H182.39V207.598H199.278V188.542H235.917Z" fill="#F19937"/>
<path d="M87.7913 168.978H17.9229V309H87.7913V168.978Z" fill="#F5D49D"/>
<path d="M87.7933 168.977H38.4179H17.9219V184.815V309H38.4179V184.815H87.7933V168.977Z" fill="#F5D49D"/>
<path d="M291.075 168.978H221.207V309H291.075V168.978Z" fill="#F5D49D"/>
<path d="M291.079 168.977H241.704H221.208V184.815V309H241.704V184.815H291.079V168.977Z" fill="#F5D49D"/>
<path d="M71.1456 133.685V151.331H54.2544V133.685H35.8671V151.331H18.9759V133.685H2.3291V158.978C2.3291 164.5 6.80538 168.977 12.3275 168.977H87.7923V133.685H71.1456Z" fill="#F19937"/>
<path d="M290.024 133.685V151.331H273.132V133.685H254.745V151.331H237.853V133.685H221.206V168.977H296.671C302.193 168.977 306.669 164.5 306.669 158.978V133.685H290.024Z" fill="#F19937"/>
<path d="M254.551 192.267C247.348 192.267 241.509 198.106 241.509 205.309V233.258H267.594V205.309C267.593 198.106 261.754 192.267 254.551 192.267Z" fill="#F19937"/>
<path d="M51.4596 192.267C44.2566 192.267 38.417 198.106 38.417 205.309V233.258H64.5021V205.309C64.5021 198.106 58.6625 192.267 51.4596 192.267Z" fill="#F19937"/>
<path d="M154.5 48.1793L93.5391 108.423H215.461L154.5 48.1793Z" fill="#F19937"/>
<path d="M133.441 108.423L154.5 48.1793L93.5391 108.423H133.441Z" fill="#F19937"/>
<path d="M154.501 125.502C147.298 125.502 141.458 131.341 141.458 138.544V166.493H167.543V138.544C167.544 131.341 161.704 125.502 154.501 125.502Z" fill="#F19937"/>
<path d="M154.5 231.395C137.007 231.395 122.826 245.575 122.826 263.069V308.718H186.176V263.069C186.175 245.576 171.994 231.395 154.5 231.395Z" fill="#F5D49D"/>
<path d="M46.8017 264.001H33.7591C31.1863 264.001 29.1006 261.916 29.1006 259.343C29.1006 256.77 31.1863 254.684 33.7591 254.684H46.8017C49.3745 254.684 51.4602 256.77 51.4602 259.343C51.4602 261.916 49.3739 264.001 46.8017 264.001Z" fill="#F5D49D"/>
<path d="M61.707 278.908H48.6644C46.0916 278.908 44.0059 276.822 44.0059 274.249C44.0059 271.676 46.0916 269.59 48.6644 269.59H61.707C64.2798 269.59 66.3655 271.676 66.3655 274.249C66.3655 276.822 64.2798 278.908 61.707 278.908Z" fill="#F5D49D"/>
<path d="M251.756 264.001H238.713C236.14 264.001 234.055 261.916 234.055 259.343C234.055 256.77 236.14 254.684 238.713 254.684H251.756C254.329 254.684 256.414 256.77 256.414 259.343C256.414 261.916 254.329 264.001 251.756 264.001Z" fill="#F5D49D"/>
<path d="M266.662 278.908H253.619C251.046 278.908 248.961 276.822 248.961 274.249C248.961 271.676 251.046 269.59 253.619 269.59H266.662C269.235 269.59 271.321 271.676 271.321 274.249C271.321 276.822 269.235 278.908 266.662 278.908Z" fill="#F5D49D"/>
<path d="M206.107 236.053H193.065C190.491 236.053 188.406 233.967 188.406 231.395C188.406 228.822 190.491 226.736 193.065 226.736H206.107C208.681 226.736 210.766 228.822 210.766 231.395C210.766 233.967 208.681 236.053 206.107 236.053Z" fill="#F5D49D"/>
<path d="M135.006 126.123H121.963C119.39 126.123 117.305 124.037 117.305 121.464C117.305 118.891 119.39 116.806 121.963 116.806H135.006C137.579 116.806 139.664 118.891 139.664 121.464C139.664 124.038 137.578 126.123 135.006 126.123Z" fill="#F5D49D"/>
<path d="M114.81 247.233H101.767C99.1941 247.233 97.1084 245.147 97.1084 242.574C97.1084 240.001 99.1941 237.916 101.767 237.916H114.81C117.382 237.916 119.468 240.001 119.468 242.574C119.468 245.147 117.382 247.233 114.81 247.233Z" fill="#F5D49D"/>
</svg>
