<svg width="216" height="216" viewBox="0 0 216 216" fill="none" xmlns="http://www.w3.org/2000/svg">
<g clip-path="url(#clip0_1655_12122)">
<path d="M67.493 202.493C66.629 202.493 65.765 202.162 65.1069 201.504C63.7873 200.185 63.7873 198.052 65.1069 196.732L88.7285 173.107C90.0482 171.787 92.1812 171.787 93.5008 173.107C94.8204 174.427 94.8204 176.56 93.5008 177.879L69.8792 201.504C69.221 202.162 68.357 202.493 67.493 202.493Z" fill="#F19937"/>
<path d="M67.493 178.875C66.629 178.875 65.765 178.544 65.1069 177.886C63.7873 176.566 63.7873 174.433 65.1069 173.114L88.7285 149.489C90.0482 148.169 92.1812 148.169 93.5008 149.489C94.8204 150.808 94.8204 152.941 93.5008 154.261L69.8792 177.886C69.221 178.544 68.357 178.875 67.493 178.875Z" fill="#F19937"/>
<path d="M67.493 155.25C66.629 155.25 65.765 154.919 65.1069 154.261C63.7873 152.941 63.7873 150.808 65.1069 149.489L88.7285 125.864C90.0482 124.544 92.1812 124.544 93.5008 125.864C94.8204 127.183 94.8204 129.316 93.5008 130.636L69.8792 154.261C69.221 154.919 68.357 155.25 67.493 155.25Z" fill="#F19937"/>
<path d="M67.493 131.632C66.629 131.632 65.765 131.301 65.1069 130.643C63.7873 129.323 63.7873 127.19 65.1069 125.871L88.7285 102.246C90.0482 100.926 92.1812 100.926 93.5008 102.246C94.8204 103.565 94.8204 105.698 93.5008 107.018L69.8792 130.643C69.221 131.301 68.357 131.632 67.493 131.632Z" fill="#F19937"/>
<path d="M67.493 108.014C66.629 108.014 65.765 107.683 65.1069 107.025C63.7873 105.705 63.7873 103.572 65.1069 102.252L88.7285 78.6274C90.0482 77.3078 92.1812 77.3078 93.5008 78.6274C94.8204 79.947 94.8204 82.08 93.5008 83.3997L69.8792 107.025C69.221 107.683 68.357 108.014 67.493 108.014Z" fill="#F19937"/>
<path d="M91.1117 202.493C90.2477 202.493 89.3837 202.162 88.7256 201.504L65.104 177.879C63.7844 176.56 63.7844 174.427 65.104 173.107C66.4236 171.787 68.5566 171.787 69.8762 173.107L93.4978 196.732C94.8175 198.052 94.8175 200.185 93.4978 201.504C92.8397 202.162 91.9757 202.493 91.1117 202.493Z" fill="#F19937"/>
<path d="M91.1117 178.875C90.2477 178.875 89.3837 178.544 88.7256 177.886L65.104 154.261C63.7844 152.941 63.7844 150.808 65.104 149.489C66.4236 148.169 68.5566 148.169 69.8762 149.489L93.4978 173.114C94.8175 174.433 94.8175 176.566 93.4978 177.886C92.8397 178.544 91.9757 178.875 91.1117 178.875Z" fill="#F19937"/>
<path d="M91.1117 155.25C90.2477 155.25 89.3837 154.919 88.7256 154.261L65.104 130.636C63.7844 129.316 63.7844 127.183 65.104 125.864C66.4236 124.544 68.5566 124.544 69.8762 125.864L93.4978 149.489C94.8175 150.808 94.8175 152.941 93.4978 154.261C92.8397 154.919 91.9757 155.25 91.1117 155.25Z" fill="#F19937"/>
<path d="M91.1117 131.632C90.2477 131.632 89.3837 131.301 88.7256 130.643L65.104 107.018C63.7844 105.698 63.7844 103.565 65.104 102.246C66.4236 100.926 68.5566 100.926 69.8762 102.246L93.4978 125.871C94.8175 127.19 94.8175 129.323 93.4978 130.643C92.8397 131.301 91.9757 131.632 91.1117 131.632Z" fill="#F19937"/>
<path d="M91.1117 108.014C90.2477 108.014 89.3837 107.683 88.7256 107.025L65.104 83.3997C63.7844 82.08 63.7844 79.947 65.104 78.6274C66.4236 77.3078 68.5566 77.3078 69.8762 78.6274L93.4978 102.252C94.8175 103.572 94.8175 105.705 93.4978 107.025C92.8397 107.683 91.9757 108.014 91.1117 108.014Z" fill="#F19937"/>
<path d="M13.5068 37.1322C12.204 37.1322 10.9654 36.3762 10.4119 35.1072C9.66264 33.3994 10.4423 31.4115 12.15 30.6657L66.1399 7.03391C67.8578 6.28804 69.8423 7.06766 70.5848 8.77541C71.334 10.4832 70.5544 12.4744 68.8466 13.2169L14.8568 36.8487C14.4146 37.041 13.959 37.1322 13.5068 37.1322Z" fill="#556875"/>
<path d="M175.507 37.1315C175.203 37.1315 174.896 37.091 174.592 37.0067L90.2103 13.3749C88.4148 12.8754 87.3652 11.009 87.8714 9.21691C88.3777 7.42141 90.2643 6.37517 92.0294 6.87804L176.415 30.5098C178.21 31.0093 179.26 32.8757 178.753 34.6678C178.335 36.1562 176.978 37.1315 175.507 37.1315Z" fill="#556875"/>
<path d="M67.493 37.1288C66.629 37.1288 65.765 36.798 65.1069 36.1399C63.7873 34.8237 63.7873 32.6873 65.1069 31.3676L88.7285 7.74265C90.0482 6.42302 92.1812 6.42302 93.5008 7.74265C94.8204 9.0589 94.8204 11.1953 93.5008 12.5149L69.8792 36.1399C69.221 36.798 68.357 37.1288 67.493 37.1288Z" fill="#F19937"/>
<path d="M91.1117 37.1288C90.2477 37.1288 89.3837 36.798 88.7256 36.1399L65.104 12.5149C63.7844 11.1953 63.7844 9.0589 65.104 7.74265C66.4236 6.42302 68.5566 6.42302 69.8762 7.74265L93.4978 31.3676C94.8175 32.6873 94.8175 34.8237 93.4978 36.1399C92.8397 36.798 91.9757 37.1288 91.1117 37.1288Z" fill="#F19937"/>
<path d="M67.4932 37.1318C65.6268 37.1318 64.1182 35.6231 64.1182 33.7568V10.125C64.1182 8.25863 65.6268 6.75 67.4932 6.75C69.3595 6.75 70.8682 8.25863 70.8682 10.125V33.7568C70.8682 35.6231 69.3595 37.1318 67.4932 37.1318Z" fill="#EEAA38"/>
<path d="M67.497 13.5C66.3225 13.5 65.1851 12.8857 64.5641 11.799C63.6393 10.179 64.203 8.11684 65.8196 7.19209L77.6456 0.44209C79.2723 -0.47591 81.3243 0.0843399 82.2491 1.70096C83.1738 3.32096 82.6102 5.38309 80.9936 6.30784L69.1676 13.0578C68.6377 13.3548 68.064 13.5 67.497 13.5Z" fill="#EEAA38"/>
<path d="M91.1144 13.4997C90.5474 13.4997 89.9703 13.3546 89.4438 13.0542L77.6448 6.30421C76.0282 5.37946 75.4645 3.31396 76.3893 1.70071C77.314 0.0874555 79.3829 -0.479545 80.9928 0.445205L92.7918 7.19521C94.4084 8.11996 94.972 10.1855 94.0473 11.7987C93.4263 12.8888 92.2855 13.4997 91.1144 13.4997Z" fill="#EEAA38"/>
<path d="M91.1182 37.1318C89.2518 37.1318 87.7432 35.6231 87.7432 33.7568V10.125C87.7432 8.25863 89.2518 6.75 91.1182 6.75C92.9845 6.75 94.4932 8.25863 94.4932 10.125V33.7568C94.4932 35.6231 92.9845 37.1318 91.1182 37.1318Z" fill="#EEAA38"/>
<path d="M172.108 151.868C166.526 151.868 161.983 147.325 161.983 141.743C161.983 139.876 163.492 138.368 165.358 138.368C167.225 138.368 168.733 139.876 168.733 141.743C168.733 143.606 170.245 145.118 172.108 145.118C173.971 145.118 175.483 143.606 175.483 141.743C175.423 140.521 172.655 136.782 169.786 134.061C168.436 132.779 168.379 130.642 169.662 129.289C170.941 127.939 173.084 127.882 174.434 129.164C176.263 130.902 182.237 136.937 182.237 141.746C182.233 147.325 177.691 151.868 172.108 151.868Z" fill="#556875"/>
<path d="M172.108 134.986C170.242 134.986 168.733 133.478 168.733 131.611V128.243C168.733 126.377 170.242 124.868 172.108 124.868C173.975 124.868 175.483 126.377 175.483 128.243V131.611C175.483 133.478 173.975 134.986 172.108 134.986Z" fill="#556875"/>
<path d="M172.108 111.321C170.242 111.321 168.733 109.812 168.733 107.946V50.6318C168.733 48.7655 170.242 47.2568 172.108 47.2568C173.975 47.2568 175.483 48.7655 175.483 50.6318V107.946C175.483 109.812 173.975 111.321 172.108 111.321Z" fill="#556875"/>
<path d="M27.0029 47.2842C28.8592 47.2842 30.3779 48.7996 30.3779 50.6592V64.1254C30.3779 65.9817 28.8592 67.5004 27.0029 67.5004H6.75293C4.89668 67.5004 3.37793 65.9817 3.37793 64.1254V50.6592C3.37793 48.7996 4.89668 47.2842 6.75293 47.2842H10.1279H16.8779H27.0029Z" fill="#556875"/>
<path d="M97.8779 57.4092V67.5342H74.2529V50.6592H91.1279L97.8779 57.4092Z" fill="#009E3D"/>
<path d="M74.2529 50.6592V67.5342H97.8779V81.0342H91.1279H67.5029H60.7529V50.6592H70.8779H74.2529Z" fill="#EEAA38"/>
<path d="M192.379 54.0067C191.515 54.0067 190.651 53.676 189.993 53.0178L173.118 36.1428C171.798 34.8232 171.798 32.6902 173.118 31.3706C174.437 30.051 176.57 30.051 177.89 31.3706L194.765 48.2456C196.085 49.5652 196.085 51.6982 194.765 53.0178C194.107 53.676 193.243 54.0067 192.379 54.0067Z" fill="#EEAA38"/>
<path d="M172.129 54.0067C171.265 54.0067 170.401 53.676 169.743 53.0178L152.868 36.1428C151.548 34.8232 151.548 32.6902 152.868 31.3706C154.187 30.051 156.32 30.051 157.64 31.3706L174.515 48.2456C175.835 49.5652 175.835 51.6982 174.515 53.0178C173.857 53.676 172.993 54.0067 172.129 54.0067Z" fill="#EEAA38"/>
<path d="M151.879 54.0067C151.015 54.0067 150.151 53.676 149.493 53.0178L132.618 36.1428C131.298 34.8232 131.298 32.6902 132.618 31.3706C133.937 30.051 136.07 30.051 137.39 31.3706L154.265 48.2456C155.585 49.5652 155.585 51.6982 154.265 53.0178C153.607 53.676 152.743 54.0067 151.879 54.0067Z" fill="#EEAA38"/>
<path d="M131.629 54.0067C130.765 54.0067 129.901 53.676 129.243 53.0178L112.368 36.1428C111.048 34.8232 111.048 32.6902 112.368 31.3706C113.687 30.051 115.82 30.051 117.14 31.3706L134.015 48.2456C135.335 49.5652 135.335 51.6982 134.015 53.0178C133.357 53.676 132.493 54.0067 131.629 54.0067Z" fill="#EEAA38"/>
<path d="M111.379 54.0067C110.515 54.0067 109.651 53.676 108.993 53.0178L92.1176 36.1428C90.798 34.8232 90.798 32.6902 92.1176 31.3706C93.4373 30.051 95.5703 30.051 96.8899 31.3706L113.765 48.2456C115.085 49.5652 115.085 51.6982 113.765 53.0178C113.107 53.676 112.243 54.0067 111.379 54.0067Z" fill="#EEAA38"/>
<path d="M91.1288 54.0067C90.2648 54.0067 89.4008 53.676 88.7426 53.0178L71.8676 36.1428C70.548 34.8232 70.548 32.6902 71.8676 31.3706C73.1873 30.051 75.3203 30.051 76.6399 31.3706L93.5149 48.2456C94.8345 49.5652 94.8345 51.6982 93.5149 53.0178C92.8568 53.676 91.9928 54.0067 91.1288 54.0067Z" fill="#EEAA38"/>
<path d="M70.8788 54.0067C70.0148 54.0067 69.1508 53.676 68.4927 53.0178L51.6176 36.1428C50.298 34.8232 50.298 32.6902 51.6176 31.3706C52.9373 30.051 55.0703 30.051 56.3899 31.3706L73.2649 48.2456C74.5845 49.5652 74.5845 51.6982 73.2649 53.0178C72.6068 53.676 71.7428 54.0067 70.8788 54.0067Z" fill="#EEAA38"/>
<path d="M50.6288 54.0067C49.7648 54.0067 48.9008 53.676 48.2426 53.0178L31.3676 36.1428C30.048 34.8232 30.048 32.6902 31.3676 31.3706C32.6873 30.051 34.8203 30.051 36.1399 31.3706L53.0149 48.2456C54.3345 49.5652 54.3345 51.6982 53.0149 53.0178C52.3568 53.676 51.4928 54.0067 50.6288 54.0067Z" fill="#EEAA38"/>
<path d="M30.3788 54.0067C29.5148 54.0067 28.6508 53.676 27.9926 53.0178L11.1176 36.1428C9.79802 34.8232 9.79802 32.6902 11.1176 31.3706C12.4373 30.051 14.5703 30.051 15.8899 31.3706L32.7649 48.2456C34.0845 49.5652 34.0845 51.6982 32.7649 53.0178C32.1068 53.676 31.2428 54.0067 30.3788 54.0067Z" fill="#EEAA38"/>
<path d="M215.743 51.9211C216.084 51.0976 216.084 50.1661 215.743 49.3426C215.571 48.9275 215.325 48.5562 215.011 48.2457L198.139 31.3707C197.835 31.067 197.481 30.851 197.11 30.689C197.086 30.6788 197.069 30.6586 197.049 30.6451C196.63 30.473 196.185 30.3818 195.743 30.3818C195.736 30.3818 195.736 30.3818 195.736 30.3818H3.37793C1.51155 30.3818 0.00292969 31.8905 0.00292969 33.7568V50.6318C0.00292969 52.4982 1.51155 54.0068 3.37793 54.0068H212.628C213.067 54.0068 213.505 53.9191 213.917 53.747C214.744 53.4027 215.399 52.748 215.743 51.9211ZM194.356 37.1318L204.481 47.2568H6.75293V37.1318H194.356Z" fill="#EEAA38"/>
<path d="M67.4932 202.494C65.6268 202.494 64.1182 200.985 64.1182 199.119V81.0205C64.1182 79.1541 65.6268 77.6455 67.4932 77.6455C69.3595 77.6455 70.8682 79.1541 70.8682 81.0205V199.119C70.8682 200.985 69.3595 202.494 67.4932 202.494Z" fill="#EEAA38"/>
<path d="M91.1182 202.494C89.2518 202.494 87.7432 200.985 87.7432 199.119V81.0205C87.7432 79.1541 89.2518 77.6455 91.1182 77.6455C92.9845 77.6455 94.4932 79.1541 94.4932 81.0205V199.119C94.4932 200.985 92.9845 202.494 91.1182 202.494Z" fill="#EEAA38"/>
<path d="M182.23 104.571H161.986C160.12 104.571 158.611 106.08 158.611 107.946V114.75C158.611 115.027 158.645 115.3 158.713 115.57L162.091 129.064C162.466 130.562 163.816 131.619 165.365 131.619H178.851C180.4 131.619 181.747 130.562 182.125 129.064L185.503 115.57C185.574 115.3 185.605 115.027 185.605 114.75V107.946C185.605 106.083 184.096 104.571 182.23 104.571Z" fill="#EEAA38"/>
<path d="M13.5131 50.6318C13.5131 52.4847 11.9943 54.0068 10.1381 54.0068H3.37793C1.52168 54.0068 0.00292969 52.4847 0.00292969 50.6318V33.7568C0.00292969 31.9006 1.52168 30.3818 3.37793 30.3818H10.1381C11.9943 30.3818 13.5131 31.9006 13.5131 33.7568V50.6318Z" fill="#EEAA38"/>
<path d="M10.1387 30.3818H13.5137V54.0068H10.1387V30.3818Z" fill="#EEAA38"/>
<path d="M97.8779 84.4092H60.7529C58.8866 84.4092 57.3779 82.9006 57.3779 81.0342C57.3779 79.1678 58.8866 77.6592 60.7529 77.6592H97.8779C99.7443 77.6592 101.253 79.1678 101.253 81.0342C101.253 82.9006 99.7443 84.4092 97.8779 84.4092Z" fill="#EEAA38"/>
<path d="M101.253 199.125C103.109 199.125 104.628 200.644 104.628 202.5V209.25C104.628 211.106 103.109 212.625 101.253 212.625H57.3779C55.5217 212.625 54.0029 211.106 54.0029 209.25V202.5C54.0029 200.644 55.5217 199.125 57.3779 199.125H64.1279H70.8779H87.7529H94.5029H101.253Z" fill="#404D57"/>
<path d="M124.878 216H33.7529C31.8866 216 30.3779 214.491 30.3779 212.625C30.3779 210.759 31.8866 209.25 33.7529 209.25H124.878C126.744 209.25 128.253 210.759 128.253 212.625C128.253 214.491 126.744 216 124.878 216Z" fill="#556875"/>
</g>
<defs>
<clipPath id="clip0_1655_12122">
<rect width="216" height="216" fill="white"/>
</clipPath>
</defs>
</svg>
