<svg width="216" height="216" viewBox="0 0 216 216" fill="none" xmlns="http://www.w3.org/2000/svg">
<g clip-path="url(#clip0_1423_788)">
<path d="M67.493 202.493C66.629 202.493 65.765 202.162 65.1069 201.504C63.7873 200.185 63.7873 198.052 65.1069 196.732L88.7285 173.107C90.0482 171.787 92.1812 171.787 93.5008 173.107C94.8204 174.427 94.8204 176.56 93.5008 177.879L69.8792 201.504C69.221 202.162 68.357 202.493 67.493 202.493Z" fill="#EDAB37"/>
<path d="M67.493 178.875C66.629 178.875 65.765 178.544 65.1069 177.886C63.7873 176.566 63.7873 174.433 65.1069 173.114L88.7285 149.489C90.0482 148.169 92.1812 148.169 93.5008 149.489C94.8204 150.808 94.8204 152.941 93.5008 154.261L69.8792 177.886C69.221 178.544 68.357 178.875 67.493 178.875Z" fill="#EDAB37"/>
<path d="M67.493 155.25C66.629 155.25 65.765 154.919 65.1069 154.261C63.7873 152.941 63.7873 150.808 65.1069 149.489L88.7285 125.864C90.0482 124.544 92.1812 124.544 93.5008 125.864C94.8204 127.183 94.8204 129.316 93.5008 130.636L69.8792 154.261C69.221 154.919 68.357 155.25 67.493 155.25Z" fill="#EDAB37"/>
<path d="M67.493 131.632C66.629 131.632 65.765 131.301 65.1069 130.643C63.7873 129.323 63.7873 127.19 65.1069 125.871L88.7285 102.246C90.0482 100.926 92.1812 100.926 93.5008 102.246C94.8204 103.565 94.8204 105.698 93.5008 107.018L69.8792 130.643C69.221 131.301 68.357 131.632 67.493 131.632Z" fill="#EDAB37"/>
<path d="M67.493 108.014C66.629 108.014 65.765 107.683 65.1069 107.025C63.7873 105.705 63.7873 103.572 65.1069 102.252L88.7285 78.6274C90.0482 77.3078 92.1812 77.3078 93.5008 78.6274C94.8204 79.947 94.8204 82.08 93.5008 83.3997L69.8792 107.025C69.221 107.683 68.357 108.014 67.493 108.014Z" fill="#EDAB37"/>
<path d="M91.1107 202.493C90.2467 202.493 89.3827 202.162 88.7246 201.504L65.103 177.879C63.7834 176.56 63.7834 174.427 65.103 173.107C66.4226 171.787 68.5556 171.787 69.8752 173.107L93.4969 196.732C94.8165 198.052 94.8165 200.185 93.4969 201.504C92.8387 202.162 91.9747 202.493 91.1107 202.493Z" fill="#EDAB37"/>
<path d="M91.1107 178.875C90.2467 178.875 89.3827 178.544 88.7246 177.886L65.103 154.261C63.7834 152.941 63.7834 150.808 65.103 149.489C66.4226 148.169 68.5556 148.169 69.8752 149.489L93.4969 173.114C94.8165 174.433 94.8165 176.566 93.4969 177.886C92.8387 178.544 91.9747 178.875 91.1107 178.875Z" fill="#EDAB37"/>
<path d="M91.1107 155.25C90.2467 155.25 89.3827 154.919 88.7246 154.261L65.103 130.636C63.7834 129.316 63.7834 127.183 65.103 125.864C66.4226 124.544 68.5556 124.544 69.8752 125.864L93.4969 149.489C94.8165 150.808 94.8165 152.941 93.4969 154.261C92.8387 154.919 91.9747 155.25 91.1107 155.25Z" fill="#EDAB37"/>
<path d="M91.1107 131.632C90.2467 131.632 89.3827 131.301 88.7246 130.643L65.103 107.018C63.7834 105.698 63.7834 103.565 65.103 102.246C66.4226 100.926 68.5556 100.926 69.8752 102.246L93.4969 125.871C94.8165 127.19 94.8165 129.323 93.4969 130.643C92.8387 131.301 91.9747 131.632 91.1107 131.632Z" fill="#EDAB37"/>
<path d="M91.1107 108.014C90.2467 108.014 89.3827 107.683 88.7246 107.025L65.103 83.3997C63.7834 82.08 63.7834 79.947 65.103 78.6274C66.4226 77.3078 68.5556 77.3078 69.8752 78.6274L93.4969 102.252C94.8165 103.572 94.8165 105.705 93.4969 107.025C92.8387 107.683 91.9747 108.014 91.1107 108.014Z" fill="#EDAB37"/>
<path d="M13.5048 37.1317C12.2021 37.1317 10.9634 36.3757 10.4099 35.1067C9.66068 33.3989 10.4403 31.4111 12.1481 30.6652L66.1379 7.03343C67.8558 6.28755 69.8403 7.06718 70.5828 8.77492C71.3321 10.4827 70.5524 12.4739 68.8447 13.2164L14.8548 36.8482C14.4127 37.0406 13.9571 37.1317 13.5048 37.1317Z" fill="#656D78"/>
<path d="M175.509 37.1315C175.205 37.1315 174.898 37.091 174.594 37.0067L90.2122 13.3749C88.4167 12.8754 87.3671 11.009 87.8734 9.21691C88.3796 7.42141 90.2662 6.37517 92.0314 6.87804L176.416 30.5098C178.212 31.0093 179.262 32.8757 178.755 34.6678C178.337 36.1562 176.98 37.1315 175.509 37.1315Z" fill="#656D78"/>
<path d="M67.493 37.1283C66.629 37.1283 65.765 36.7975 65.1069 36.1394C63.7873 34.8232 63.7873 32.6868 65.1069 31.3672L88.7285 7.74216C90.0482 6.42254 92.1812 6.42254 93.5008 7.74216C94.8204 9.05841 94.8204 11.1948 93.5008 12.5144L69.8792 36.1394C69.221 36.7975 68.357 37.1283 67.493 37.1283Z" fill="#EDAB37"/>
<path d="M91.1107 37.1283C90.2467 37.1283 89.3827 36.7975 88.7246 36.1394L65.103 12.5144C63.7834 11.1948 63.7834 9.05841 65.103 7.74216C66.4226 6.42254 68.5556 6.42254 69.8752 7.74216L93.4969 31.3672C94.8165 32.6868 94.8165 34.8232 93.4969 36.1394C92.8387 36.7975 91.9747 37.1283 91.1107 37.1283Z" fill="#EDAB37"/>
<path d="M67.4922 37.1318C65.6258 37.1318 64.1172 35.6231 64.1172 33.7568V10.125C64.1172 8.25863 65.6258 6.75 67.4922 6.75C69.3586 6.75 70.8672 8.25863 70.8672 10.125V33.7568C70.8672 35.6231 69.3586 37.1318 67.4922 37.1318Z" fill="#F6BB42"/>
<path d="M67.495 13.5C66.3205 13.5 65.1831 12.8857 64.5621 11.799C63.6374 10.179 64.201 8.11684 65.8176 7.19209L77.6436 0.44209C79.2704 -0.47591 81.3224 0.0843399 82.2471 1.70096C83.1719 3.32096 82.6083 5.38309 80.9916 6.30784L69.1656 13.0578C68.6358 13.3548 68.062 13.5 67.495 13.5Z" fill="#F6BB42"/>
<path d="M91.1154 13.5002C90.5484 13.5002 89.9713 13.3551 89.4448 13.0547L77.6458 6.30469C76.0291 5.37994 75.4655 3.31444 76.3903 1.70119C77.315 0.0879438 79.3839 -0.479056 80.9938 0.445694L92.7928 7.19569C94.4094 8.12044 94.973 10.1859 94.0483 11.7992C93.4273 12.8893 92.2865 13.5002 91.1154 13.5002Z" fill="#F6BB42"/>
<path d="M91.1172 37.1318C89.2508 37.1318 87.7422 35.6231 87.7422 33.7568V10.125C87.7422 8.25863 89.2508 6.75 91.1172 6.75C92.9836 6.75 94.4922 8.25863 94.4922 10.125V33.7568C94.4922 35.6231 92.9836 37.1318 91.1172 37.1318Z" fill="#F6BB42"/>
<path d="M172.109 151.868C166.527 151.868 161.984 147.326 161.984 141.743C161.984 139.877 163.493 138.368 165.359 138.368C167.226 138.368 168.734 139.877 168.734 141.743C168.734 143.606 170.246 145.118 172.109 145.118C173.972 145.118 175.484 143.606 175.484 141.743C175.424 140.522 172.656 136.782 169.787 134.062C168.437 132.779 168.38 130.643 169.663 129.29C170.942 127.94 173.085 127.882 174.435 129.165C176.264 130.903 182.238 136.937 182.238 141.747C182.234 147.326 177.692 151.868 172.109 151.868Z" fill="#656D78"/>
<path d="M172.109 134.986C170.243 134.986 168.734 133.478 168.734 131.611V128.243C168.734 126.377 170.243 124.868 172.109 124.868C173.976 124.868 175.484 126.377 175.484 128.243V131.611C175.484 133.478 173.976 134.986 172.109 134.986Z" fill="#656D78"/>
<path d="M172.109 111.321C170.243 111.321 168.734 109.812 168.734 107.946V50.6318C168.734 48.7655 170.243 47.2568 172.109 47.2568C173.976 47.2568 175.484 48.7655 175.484 50.6318V107.946C175.484 109.812 173.976 111.321 172.109 111.321Z" fill="#656D78"/>
<path d="M27.0039 47.2837C28.8602 47.2837 30.3789 48.7991 30.3789 50.6587V64.1249C30.3789 65.9812 28.8602 67.4999 27.0039 67.4999H6.75391C4.89766 67.4999 3.37891 65.9812 3.37891 64.1249V50.6587C3.37891 48.7991 4.89766 47.2837 6.75391 47.2837H10.1289H16.8789H27.0039Z" fill="#656D78"/>
<path d="M97.8789 57.4087V67.5337H74.2539V50.6587H91.1289L97.8789 57.4087Z" fill="#5D9CEC"/>
<path d="M74.2539 50.6587V67.5337H97.8789V81.0337H91.1289H67.5039H60.7539V50.6587H70.8789H74.2539Z" fill="#F6BB42"/>
<path d="M192.38 54.0067C191.516 54.0067 190.652 53.676 189.994 53.0178L173.119 36.1428C171.799 34.8232 171.799 32.6902 173.119 31.3706C174.438 30.051 176.571 30.051 177.891 31.3706L194.766 48.2456C196.086 49.5652 196.086 51.6982 194.766 53.0178C194.108 53.676 193.244 54.0067 192.38 54.0067Z" fill="#F6BB42"/>
<path d="M172.13 54.0067C171.266 54.0067 170.402 53.676 169.744 53.0178L152.869 36.1428C151.549 34.8232 151.549 32.6902 152.869 31.3706C154.188 30.051 156.321 30.051 157.641 31.3706L174.516 48.2456C175.836 49.5652 175.836 51.6982 174.516 53.0178C173.858 53.676 172.994 54.0067 172.13 54.0067Z" fill="#F6BB42"/>
<path d="M151.88 54.0067C151.016 54.0067 150.152 53.676 149.494 53.0178L132.619 36.1428C131.299 34.8232 131.299 32.6902 132.619 31.3706C133.938 30.051 136.071 30.051 137.391 31.3706L154.266 48.2456C155.586 49.5652 155.586 51.6982 154.266 53.0178C153.608 53.676 152.744 54.0067 151.88 54.0067Z" fill="#F6BB42"/>
<path d="M131.63 54.0067C130.766 54.0067 129.902 53.676 129.244 53.0178L112.369 36.1428C111.049 34.8232 111.049 32.6902 112.369 31.3706C113.688 30.051 115.821 30.051 117.141 31.3706L134.016 48.2456C135.336 49.5652 135.336 51.6982 134.016 53.0178C133.358 53.676 132.494 54.0067 131.63 54.0067Z" fill="#F6BB42"/>
<path d="M111.38 54.0067C110.516 54.0067 109.652 53.676 108.994 53.0178L92.1186 36.1428C90.799 34.8232 90.799 32.6902 92.1186 31.3706C93.4383 30.051 95.5712 30.051 96.8909 31.3706L113.766 48.2456C115.085 49.5652 115.085 51.6982 113.766 53.0178C113.108 53.676 112.244 54.0067 111.38 54.0067Z" fill="#F6BB42"/>
<path d="M91.1297 54.0067C90.2657 54.0067 89.4018 53.676 88.7436 53.0178L71.8686 36.1428C70.549 34.8232 70.549 32.6902 71.8686 31.3706C73.1883 30.051 75.3212 30.051 76.6409 31.3706L93.5159 48.2456C94.8355 49.5652 94.8355 51.6982 93.5159 53.0178C92.8577 53.676 91.9937 54.0067 91.1297 54.0067Z" fill="#F6BB42"/>
<path d="M70.8797 54.0067C70.0157 54.0067 69.1518 53.676 68.4936 53.0178L51.6186 36.1428C50.299 34.8232 50.299 32.6902 51.6186 31.3706C52.9383 30.051 55.0713 30.051 56.3909 31.3706L73.2659 48.2456C74.5855 49.5652 74.5855 51.6982 73.2659 53.0178C72.6078 53.676 71.7437 54.0067 70.8797 54.0067Z" fill="#F6BB42"/>
<path d="M50.6298 54.0067C49.7658 54.0067 48.9018 53.676 48.2436 53.0178L31.3686 36.1428C30.049 34.8232 30.049 32.6902 31.3686 31.3706C32.6883 30.051 34.8213 30.051 36.1409 31.3706L53.0159 48.2456C54.3355 49.5652 54.3355 51.6982 53.0159 53.0178C52.3578 53.676 51.4938 54.0067 50.6298 54.0067Z" fill="#F6BB42"/>
<path d="M30.3798 54.0067C29.5158 54.0067 28.6517 53.676 27.9936 53.0178L11.1186 36.1428C9.799 34.8232 9.799 32.6902 11.1186 31.3706C12.4383 30.051 14.5713 30.051 15.8909 31.3706L32.7659 48.2456C34.0855 49.5652 34.0855 51.6982 32.7659 53.0178C32.1077 53.676 31.2438 54.0067 30.3798 54.0067Z" fill="#F6BB42"/>
<path d="M215.744 51.9211C216.085 51.0976 216.085 50.1661 215.744 49.3426C215.572 48.9275 215.326 48.5562 215.012 48.2457L198.14 31.3707C197.836 31.067 197.482 30.851 197.111 30.689C197.087 30.6788 197.07 30.6586 197.05 30.6451C196.631 30.473 196.186 30.3818 195.744 30.3818C195.737 30.3818 195.737 30.3818 195.737 30.3818H3.37891C1.51253 30.3818 0.00390625 31.8905 0.00390625 33.7568V50.6318C0.00390625 52.4982 1.51253 54.0068 3.37891 54.0068H212.629C213.068 54.0068 213.506 53.9191 213.918 53.747C214.745 53.4027 215.4 52.748 215.744 51.9211ZM194.357 37.1318L204.482 47.2568H6.75391V37.1318H194.357Z" fill="#FFCE54"/>
<path d="M67.4922 202.493C65.6258 202.493 64.1172 200.984 64.1172 199.118V81.02C64.1172 79.1536 65.6258 77.645 67.4922 77.645C69.3586 77.645 70.8672 79.1536 70.8672 81.02V199.118C70.8672 200.984 69.3586 202.493 67.4922 202.493Z" fill="#F6BB42"/>
<path d="M91.1172 202.493C89.2508 202.493 87.7422 200.984 87.7422 199.118V81.02C87.7422 79.1536 89.2508 77.645 91.1172 77.645C92.9836 77.645 94.4922 79.1536 94.4922 81.02V199.118C94.4922 200.984 92.9836 202.493 91.1172 202.493Z" fill="#F6BB42"/>
<path d="M182.232 104.571H161.988C160.122 104.571 158.613 106.079 158.613 107.946V114.75C158.613 115.027 158.647 115.3 158.715 115.57L162.093 129.063C162.468 130.562 163.818 131.618 165.367 131.618H178.853C180.402 131.618 181.749 130.562 182.127 129.063L185.505 115.57C185.576 115.3 185.607 115.027 185.607 114.75V107.946C185.607 106.083 184.098 104.571 182.232 104.571Z" fill="#FFCE54"/>
<path d="M13.514 50.6318C13.514 52.4847 11.9953 54.0068 10.139 54.0068H3.37891C1.52266 54.0068 0.00390625 52.4847 0.00390625 50.6318V33.7568C0.00390625 31.9006 1.52266 30.3818 3.37891 30.3818H10.139C11.9953 30.3818 13.514 31.9006 13.514 33.7568V50.6318Z" fill="#FFCE54"/>
<path d="M10.1367 30.3818H13.5117V54.0068H10.1367V30.3818Z" fill="#FFCE54"/>
<path d="M97.8789 84.4087H60.7539C58.8875 84.4087 57.3789 82.9001 57.3789 81.0337C57.3789 79.1673 58.8875 77.6587 60.7539 77.6587H97.8789C99.7453 77.6587 101.254 79.1673 101.254 81.0337C101.254 82.9001 99.7453 84.4087 97.8789 84.4087Z" fill="#FFCE54"/>
<path d="M101.254 199.125C103.11 199.125 104.629 200.644 104.629 202.5V209.25C104.629 211.106 103.11 212.625 101.254 212.625H57.3789C55.5227 212.625 54.0039 211.106 54.0039 209.25V202.5C54.0039 200.644 55.5227 199.125 57.3789 199.125H64.1289H70.8789H87.7539H94.5039H101.254Z" fill="#545C66"/>
<path d="M124.879 216H33.7539C31.8875 216 30.3789 214.491 30.3789 212.625C30.3789 210.759 31.8875 209.25 33.7539 209.25H124.879C126.745 209.25 128.254 210.759 128.254 212.625C128.254 214.491 126.745 216 124.879 216Z" fill="#656D78"/>
</g>
<defs>
<clipPath id="clip0_1423_788">
<rect width="216" height="216" fill="white"/>
</clipPath>
</defs>
</svg>
