<svg width="259" height="259" viewBox="0 0 259 259" fill="none" xmlns="http://www.w3.org/2000/svg">
<g clip-path="url(#clip0_1655_12242)">
<path d="M161.875 20.2779C161.875 25.5697 165.089 30.303 169.975 32.336C182.569 37.5768 194.065 45.2633 203.901 55.0992C213.737 64.9351 221.423 76.4313 226.664 89.0252C228.697 93.9108 233.43 97.125 238.722 97.125H253.941C256.735 97.125 259 94.8603 259 92.0664V18.2393C259 8.16609 250.834 0 240.761 0H166.934C164.14 0 161.875 2.26473 161.875 5.05859V20.2779Z" fill="#98DCA4"/>
<path d="M20.2779 97.125C25.5697 97.125 30.303 93.9108 32.336 89.0252C37.5768 76.4313 45.2633 64.9351 55.0992 55.0992C64.9351 45.2633 76.4313 37.5768 89.0252 32.336C93.9108 30.303 97.125 25.5697 97.125 20.2779V5.05859C97.125 2.26473 94.8603 0 92.0664 0H18.2393C8.16609 0 0 8.16609 0 18.2393V92.0664C0 94.8603 2.26473 97.125 5.05859 97.125H20.2779Z" fill="#98DCA4"/>
<path d="M238.722 161.875C233.43 161.875 228.697 165.089 226.664 169.975C221.423 182.569 213.737 194.065 203.901 203.901C194.065 213.737 182.568 221.423 169.975 226.664C165.089 228.697 161.875 233.43 161.875 238.722V253.941C161.875 256.735 164.14 259 166.934 259H240.761C250.834 259 259 250.834 259 240.761V166.934C259 164.14 256.735 161.875 253.941 161.875H238.722Z" fill="#98DCA4"/>
<path d="M97.125 238.722C97.125 233.43 93.9108 228.697 89.0252 226.664C76.4313 221.423 64.9351 213.737 55.0992 203.901C45.2633 194.065 37.5768 182.569 32.336 169.975C30.303 165.089 25.5697 161.875 20.2779 161.875H5.05859C2.26473 161.875 0 164.14 0 166.934V240.761C0 250.834 8.16609 259 18.2393 259H92.0664C94.8603 259 97.125 256.735 97.125 253.941V238.722Z" fill="#98DCA4"/>
<path d="M240.761 0H236.4C237.526 2.36945 238.156 5.01964 238.156 7.81704V73.6744C238.156 80.6911 232.609 86.4124 225.66 86.6917C226.011 87.4798 226.352 88.2725 226.683 89.0692C228.707 93.9401 233.448 97.125 238.723 97.125H253.942C256.736 97.125 259 94.8603 259 92.0664V18.2393C259 8.16609 250.834 0 240.761 0Z" fill="#62CA76"/>
<path d="M76.2801 0V1.48267C76.2801 11.4243 70.5922 20.4372 61.6966 24.8756C51.6285 29.8993 42.3758 36.5549 34.2543 44.676C26.1332 52.7971 19.4771 62.0502 14.4539 72.1178C11.4026 78.2337 6.1897 82.833 0 85.1108V92.0664C0 94.8603 2.26473 97.125 5.05859 97.125H20.2779C25.5697 97.125 30.303 93.9108 32.336 89.0252C37.5768 76.4313 45.2633 64.9351 55.0992 55.0992C64.9351 45.2633 76.4313 37.5768 89.0252 32.336C93.9108 30.303 97.125 25.5697 97.125 20.2779V5.05859C97.125 2.26473 94.8603 0 92.0664 0H76.2801Z" fill="#62CA76"/>
<path d="M238.722 161.875C238.502 162.096 238.376 162.222 238.155 162.442V209.493C238.155 231.079 220.656 248.578 199.07 248.578H161.875V253.941C161.875 256.735 164.14 259 166.934 259H240.761C250.834 259 259 250.834 259 240.761V166.934C259 164.14 256.735 161.875 253.941 161.875H238.722Z" fill="#62CA76"/>
<path d="M89.0252 226.664C76.4313 221.423 64.9352 213.737 55.0992 203.901C45.2633 194.065 37.5768 182.568 32.3361 169.975C30.303 165.089 25.5697 161.875 20.2779 161.875H12.4912C17.6904 173.561 25.0264 184.25 34.2543 193.478C44.0902 203.314 55.5864 211.001 68.1803 216.241C73.0658 218.274 76.2801 223.008 76.2801 228.299V235.549C76.2801 242.745 70.447 248.578 63.2517 248.578H1.75586C4.68276 254.74 10.9635 259 18.2393 259H92.0664C94.8603 259 97.125 256.735 97.125 253.941V238.722C97.125 233.43 93.9108 228.697 89.0252 226.664Z" fill="#62CA76"/>
<path d="M216.672 111.311C209.495 76.7353 182.264 49.5054 147.689 42.3283C146.521 42.086 145.688 41.0505 145.688 39.8577V2.5293C145.688 1.13262 144.555 0 143.158 0H115.842C114.445 0 113.312 1.13262 113.312 2.5293V39.8577C113.312 41.0505 112.48 42.086 111.311 42.3288C76.7353 49.5059 49.5054 76.7363 42.3283 111.312C42.086 112.48 41.0505 113.312 39.8577 113.312H2.5293C1.13262 113.312 0 114.445 0 115.842V143.158C0 144.555 1.13262 145.688 2.5293 145.688H39.8577C41.0505 145.688 42.086 146.521 42.3288 147.689C49.5059 182.265 76.7363 209.495 111.312 216.672C112.48 216.914 113.313 217.95 113.313 219.143V256.471C113.313 257.867 114.446 259 115.842 259H143.159C144.555 259 145.688 257.867 145.688 256.471V219.142C145.688 217.95 146.521 216.914 147.689 216.671C182.265 209.494 209.495 182.264 216.672 147.688C216.915 146.52 217.95 145.687 219.143 145.687H256.471C257.867 145.687 259 144.554 259 143.158V115.841C259 114.445 257.867 113.312 256.471 113.312H219.142C217.95 113.312 216.914 112.48 216.672 111.311ZM129.5 186.156C98.2096 186.156 72.8438 160.79 72.8438 129.5C72.8438 98.2096 98.2096 72.8438 129.5 72.8438C160.79 72.8438 186.156 98.2096 186.156 129.5C186.156 160.79 160.79 186.156 129.5 186.156Z" fill="#B9C5CC"/>
<path d="M129.5 169.969C151.85 169.969 169.969 151.85 169.969 129.5C169.969 107.15 151.85 89.0312 129.5 89.0312C107.15 89.0312 89.0312 107.15 89.0312 129.5C89.0312 151.85 107.15 169.969 129.5 169.969Z" fill="#B9C5CC"/>
<path d="M136.401 89.6172C144.233 96.9972 149.124 107.466 149.124 119.077C149.124 141.428 131.005 159.546 108.655 159.546C106.302 159.546 103.997 159.345 101.754 158.96C108.999 165.785 118.761 169.968 129.5 169.968C151.85 169.968 169.969 151.85 169.969 129.5C169.969 109.502 155.464 92.8921 136.401 89.6172Z" fill="#B9C5CC"/>
<path d="M238.766 55.5039C231.577 55.5039 225.708 49.7442 225.533 42.5969C214.825 40.7885 206.644 31.4493 206.644 20.2344C206.644 18.1391 208.342 16.4404 210.438 16.4404C212.533 16.4404 214.231 18.1391 214.231 20.2344C214.231 28.5558 221.001 35.3257 229.323 35.3257C229.468 35.3257 229.614 35.3231 229.759 35.3191C231.009 35.2862 232.196 35.8685 232.932 36.8802C233.667 37.8919 233.857 39.2006 233.438 40.3797C233.225 40.9817 233.117 41.6171 233.117 42.2666C233.117 45.3812 235.651 47.9155 238.766 47.9155C240.861 47.9155 242.56 49.6142 242.56 51.7094C242.56 53.8047 240.861 55.5039 238.766 55.5039Z" fill="#62CA76"/>
<path d="M238.766 55.5036C240.861 55.5036 242.56 53.8049 242.56 51.7096C242.56 49.6144 240.861 47.9157 238.766 47.9157C238.559 47.9157 238.356 47.9041 238.155 47.8828V55.4894C238.358 55.4985 238.561 55.5036 238.766 55.5036Z" fill="#3BB050"/>
<path d="M207.29 242.56C205.195 242.56 203.496 240.861 203.496 238.766C203.496 231.577 209.256 225.708 216.403 225.533C218.212 214.825 227.551 206.644 238.766 206.644C240.861 206.644 242.56 208.342 242.56 210.438C242.56 212.533 240.861 214.231 238.766 214.231C230.444 214.231 223.674 221.001 223.674 229.323C223.674 229.468 223.677 229.614 223.681 229.759C223.715 231.009 223.132 232.196 222.12 232.932C221.108 233.667 219.799 233.857 218.62 233.438C218.018 233.225 217.383 233.117 216.733 233.117C213.619 233.117 211.084 235.651 211.084 238.766C211.084 240.861 209.385 242.56 207.29 242.56Z" fill="#62CA76"/>
<path d="M238.766 206.644C238.561 206.644 238.358 206.647 238.155 206.652V209.493C238.155 211.106 238.057 212.697 237.867 214.258C238.165 214.241 238.464 214.231 238.766 214.231C240.861 214.231 242.56 212.533 242.56 210.438C242.56 208.342 240.861 206.644 238.766 206.644Z" fill="#3BB050"/>
<path d="M48.5625 242.56C46.4672 242.56 44.7686 240.861 44.7686 238.766C44.7686 230.445 37.9986 223.675 29.6773 223.675C29.5316 223.675 29.3864 223.677 29.2412 223.681C27.9963 223.721 26.8045 223.132 26.0685 222.12C25.3329 221.109 25.1432 219.8 25.5616 218.621C25.7751 218.019 25.8833 217.383 25.8833 216.734C25.8833 213.619 23.3495 211.085 20.2344 211.085C18.1391 211.085 16.4404 209.386 16.4404 207.291C16.4404 205.196 18.1391 203.497 20.2344 203.497C27.4231 203.497 33.2916 209.257 33.4671 216.404C44.1752 218.212 52.3564 227.551 52.3564 238.766C52.3564 240.861 50.6578 242.56 48.5625 242.56Z" fill="#62CA76"/>
<path d="M20.2344 52.3564C18.1391 52.3564 16.4404 50.6578 16.4404 48.5625C16.4404 46.4672 18.1391 44.7686 20.2344 44.7686C28.5558 44.7686 35.3257 37.9986 35.3257 29.6773C35.3257 29.5316 35.3231 29.3864 35.3191 29.2412C35.2847 27.9912 35.8685 26.804 36.8802 26.0685C37.8919 25.3324 39.2006 25.1432 40.3797 25.5616C40.9817 25.7751 41.6171 25.8833 42.2666 25.8833C45.3812 25.8833 47.9155 23.3495 47.9155 20.2344C47.9155 18.1391 49.6142 16.4404 51.7094 16.4404C53.8047 16.4404 55.5034 18.1391 55.5034 20.2344C55.5034 27.4231 49.7437 33.2916 42.5964 33.4671C40.7885 44.1752 31.4493 52.3564 20.2344 52.3564Z" fill="#62CA76"/>
<path d="M41.2067 38.3115C38.8084 40.3203 36.4885 42.4429 34.2547 44.6768C32.2975 46.6339 30.4253 48.6574 28.6406 50.742C34.3199 48.4677 38.8726 43.9599 41.2067 38.3115Z" fill="#3BB050"/>
<path d="M125.706 233.707C125.706 235.802 127.405 237.501 129.5 237.501C131.595 237.501 133.294 235.802 133.294 233.707V226.119C133.294 224.024 131.595 222.325 129.5 222.325C127.405 222.325 125.706 224.024 125.706 226.119V233.707Z" fill="#DEDBEE"/>
<path d="M113.016 58.6808C113.343 60.5186 114.943 61.8096 116.746 61.8096C116.967 61.8096 117.191 61.7899 117.417 61.7499C119.766 61.331 122.201 61.0032 124.654 60.7756C126.741 60.5819 128.275 58.7335 128.081 56.6473C127.888 54.5606 126.037 53.0233 123.953 53.2201C121.289 53.467 118.642 53.8236 116.085 54.2794C114.022 54.6476 112.648 56.618 113.016 58.6808Z" fill="#DEDBEE"/>
<path d="M98.2377 59.5188C95.765 60.5665 93.3384 61.7492 91.0251 63.0346C89.1934 64.0523 88.5338 66.3621 89.5516 68.1938C90.2451 69.4418 91.5381 70.1459 92.8715 70.1459C93.4947 70.1459 94.1271 69.9916 94.7108 69.6674C96.7899 68.5125 98.9722 67.4487 101.198 66.5058C103.127 65.6883 104.029 63.4615 103.211 61.5321C102.394 59.6028 100.167 58.7003 98.2377 59.5188Z" fill="#DEDBEE"/>
<path d="M60.5573 95.9312C59.4409 98.335 58.4347 100.838 57.5657 103.371C56.8858 105.353 57.9415 107.511 59.9235 108.19C60.3312 108.33 60.746 108.397 61.1547 108.397C62.731 108.397 64.203 107.407 64.7433 105.832C65.5269 103.548 66.4339 101.292 67.4395 99.1272C68.3223 97.2267 67.4972 94.9706 65.5967 94.0884C63.6962 93.2056 61.44 94.0307 60.5573 95.9312Z" fill="#DEDBEE"/>
<path d="M84.3622 191.776C86.5339 193.312 88.8254 194.748 91.1736 196.046C91.7553 196.368 92.3846 196.52 93.0053 196.52C94.3413 196.52 95.6373 195.813 96.3293 194.561C97.3431 192.727 96.6779 190.419 94.8441 189.405C92.7398 188.241 90.6865 186.955 88.7425 185.58C87.0321 184.371 84.6642 184.777 83.4542 186.488C82.2442 188.198 82.6514 190.567 84.3622 191.776Z" fill="#DEDBEE"/>
<path d="M129.5 21.499C127.405 21.499 125.706 23.1977 125.706 25.293V32.8809C125.706 34.9761 127.405 36.6748 129.5 36.6748C131.595 36.6748 133.294 34.9761 133.294 32.8809V25.293C133.294 23.1977 131.595 21.499 129.5 21.499Z" fill="#DEDBEE"/>
<path d="M75.9712 74.1749C74.052 76.0304 72.2142 78.02 70.5094 80.0874C69.1765 81.7041 69.4062 84.0953 71.0234 85.4283C71.7301 86.011 72.585 86.2948 73.4348 86.2948C74.5285 86.2948 75.6141 85.8244 76.3643 84.9143C77.8884 83.0659 79.5309 81.2883 81.2458 79.6301C82.7523 78.1737 82.7927 75.7719 81.3364 74.2655C79.8795 72.7595 77.4777 72.7175 75.9712 74.1749Z" fill="#DEDBEE"/>
<path d="M141.376 61.4669C143.742 61.8771 146.111 62.4174 148.419 63.073C148.765 63.1716 149.114 63.2187 149.458 63.2187C151.111 63.2187 152.631 62.1295 153.105 60.4607C153.678 58.4454 152.508 56.3471 150.492 55.7744C147.93 55.0465 145.298 54.4465 142.672 53.9913C140.605 53.6321 138.644 55.0167 138.286 57.0816C137.928 59.1455 139.312 61.1092 141.376 61.4669Z" fill="#DEDBEE"/>
<path d="M226.119 133.294H233.707C235.802 133.294 237.501 131.595 237.501 129.5C237.501 127.405 235.802 125.706 233.707 125.706H226.119C224.024 125.706 222.325 127.405 222.325 129.5C222.325 131.595 224.024 133.294 226.119 133.294Z" fill="#DEDBEE"/>
<path d="M175.28 72.7096C176.51 71.0129 176.131 68.641 174.435 67.4112C172.276 65.8461 170.012 64.3786 167.704 63.0492C165.889 62.0031 163.569 62.6273 162.523 64.4423C161.477 66.2579 162.101 68.5777 163.916 69.6238C165.995 70.8217 168.036 72.144 169.981 73.5544C170.654 74.042 171.433 74.2767 172.205 74.2767C173.38 74.2772 174.538 73.7334 175.28 72.7096Z" fill="#DEDBEE"/>
<path d="M191.946 91.7821C193.68 90.6055 194.131 88.2467 192.955 86.5126C191.461 84.3106 189.832 82.1602 188.112 80.1216C186.762 78.52 184.368 78.3161 182.766 79.6673C181.164 81.0179 180.961 83.4117 182.312 85.0132C183.862 86.851 185.33 88.7889 186.677 90.7729C187.41 91.8545 188.604 92.4372 189.819 92.4372C190.552 92.4372 191.294 92.2253 191.946 91.7821Z" fill="#DEDBEE"/>
<path d="M180.109 185.687C181.058 185.687 182.008 185.333 182.745 184.621C184.661 182.769 186.501 180.796 188.213 178.757C189.561 177.153 189.353 174.76 187.748 173.413C186.143 172.064 183.751 172.273 182.403 173.878C180.859 175.716 179.2 177.495 177.472 179.165C175.965 180.621 175.924 183.023 177.38 184.53C178.124 185.3 179.116 185.687 180.109 185.687Z" fill="#DEDBEE"/>
<path d="M259 125.706H251.412C249.317 125.706 247.618 127.405 247.618 129.5C247.618 131.595 249.317 133.294 251.412 133.294H259V125.706Z" fill="#DEDBEE"/>
<path d="M202.344 125.535H202.327C200.232 125.544 198.541 127.251 198.55 129.346V129.5C198.55 131.909 198.424 134.339 198.177 136.719C197.96 138.803 199.474 140.668 201.559 140.885C201.692 140.899 201.824 140.906 201.955 140.906C203.874 140.906 205.521 139.454 205.724 137.503C205.998 134.863 206.138 132.17 206.138 129.516V129.312C206.128 127.223 204.432 125.535 202.344 125.535Z" fill="#DEDBEE"/>
<path d="M129.5 11.3818C131.595 11.3818 133.294 9.68316 133.294 7.58789V0H125.706V7.58789C125.706 9.68316 127.405 11.3818 129.5 11.3818Z" fill="#DEDBEE"/>
<path d="M200.154 115.511C200.459 115.511 200.77 115.473 201.079 115.395C203.112 114.886 204.346 112.825 203.836 110.793C203.188 108.207 202.394 105.627 201.477 103.124C200.755 101.157 198.576 100.146 196.608 100.868C194.641 101.589 193.631 103.768 194.352 105.736C195.178 107.989 195.893 110.311 196.477 112.639C196.909 114.361 198.455 115.511 200.154 115.511Z" fill="#DEDBEE"/>
<path d="M32.8809 125.706H25.293C23.1977 125.706 21.499 127.405 21.499 129.5C21.499 131.595 23.1977 133.294 25.293 133.294H32.8809C34.9761 133.294 36.6748 131.595 36.6748 129.5C36.6748 127.405 34.9761 125.706 32.8809 125.706Z" fill="#DEDBEE"/>
<path d="M194.986 165.229C196.389 165.229 197.74 164.447 198.397 163.1C199.568 160.704 200.623 158.22 201.535 155.715C202.252 153.746 201.237 151.569 199.268 150.852C197.299 150.135 195.122 151.15 194.405 153.119C193.584 155.374 192.633 157.611 191.579 159.77C190.66 161.652 191.44 163.924 193.323 164.844C193.859 165.105 194.427 165.229 194.986 165.229Z" fill="#DEDBEE"/>
<path d="M7.58789 133.294C9.68316 133.294 11.3818 131.595 11.3818 129.5C11.3818 127.405 9.68316 125.706 7.58789 125.706H0V133.294H7.58789Z" fill="#DEDBEE"/>
<path d="M133.294 251.412C133.294 249.317 131.595 247.618 129.5 247.618C127.405 247.618 125.706 249.317 125.706 251.412V259H133.294V251.412Z" fill="#DEDBEE"/>
<path d="M116.914 204.806C118.72 204.806 120.321 203.511 120.645 201.67C121.009 199.607 119.632 197.639 117.568 197.275C115.154 196.849 112.766 196.316 110.468 195.69C108.445 195.139 106.361 196.332 105.811 198.354C105.261 200.375 106.453 202.461 108.475 203.012C110.993 203.697 113.61 204.282 116.25 204.748C116.473 204.787 116.695 204.806 116.914 204.806Z" fill="#DEDBEE"/>
<path d="M73.5411 180.416C74.394 180.416 75.2514 180.13 75.9591 179.544C77.5728 178.207 77.7974 175.816 76.4609 174.202C74.9398 172.365 73.4996 170.415 72.1824 168.407C71.0331 166.655 68.6813 166.167 66.929 167.317C65.1767 168.466 64.6886 170.818 65.8384 172.57C67.3094 174.812 68.9176 176.99 70.6178 179.042C71.368 179.948 72.4505 180.416 73.5411 180.416Z" fill="#DEDBEE"/>
<path d="M57.0415 133.371C59.1368 133.371 60.8354 131.672 60.8354 129.577V129.494C60.8354 127.109 60.9518 124.697 61.1824 122.326C61.3848 120.241 59.8586 118.386 57.773 118.184C55.6873 117.982 53.8328 119.508 53.6305 121.593C53.377 124.207 53.248 126.865 53.248 129.494V129.577C53.2475 131.672 54.9462 133.371 57.0415 133.371Z" fill="#DEDBEE"/>
<path d="M145.918 200.588C145.556 198.524 143.59 197.148 141.525 197.507C139.165 197.921 136.752 198.216 134.353 198.382C132.263 198.527 130.685 200.339 130.831 202.43C130.969 204.431 132.635 205.961 134.611 205.961C134.699 205.961 134.788 205.958 134.878 205.951C137.54 205.767 140.218 205.44 142.837 204.981C144.901 204.619 146.281 202.652 145.918 200.588Z" fill="#DEDBEE"/>
<path d="M159.158 199.848C159.675 199.848 160.2 199.742 160.702 199.518C163.134 198.432 165.537 197.205 167.844 195.869C169.657 194.82 170.276 192.498 169.226 190.685C168.176 188.871 165.855 188.252 164.042 189.302C161.964 190.505 159.8 191.611 157.61 192.588C155.696 193.442 154.838 195.686 155.692 197.599C156.321 199.011 157.707 199.848 159.158 199.848Z" fill="#DEDBEE"/>
<path d="M58.2192 143.526C56.1796 144.006 54.915 146.048 55.3945 148.088C56.0056 150.688 56.7543 153.276 57.6198 155.782C58.1621 157.353 59.6326 158.339 61.2058 158.339C61.6166 158.339 62.0344 158.272 62.4442 158.13C64.4251 157.446 65.4763 155.286 64.7924 153.306C64.0108 151.041 63.334 148.701 62.7811 146.35C62.301 144.311 60.2589 143.047 58.2192 143.526Z" fill="#DEDBEE"/>
<path d="M145.688 117.106H129.5C127.405 117.106 125.706 115.408 125.706 113.312C125.706 111.217 127.405 109.519 129.5 109.519H145.688C147.783 109.519 149.481 111.217 149.481 113.312C149.481 115.408 147.783 117.106 145.688 117.106ZM157.575 129.5C157.575 127.405 155.877 125.706 153.781 125.706H145.688C143.592 125.706 141.894 127.405 141.894 129.5C141.894 131.595 143.592 133.294 145.688 133.294H153.781C155.877 133.294 157.575 131.595 157.575 129.5ZM133.294 129.5C133.294 127.405 131.595 125.706 129.5 125.706H105.219C103.123 125.706 101.425 127.405 101.425 129.5C101.425 131.595 103.123 133.294 105.219 133.294H129.5C131.595 133.294 133.294 131.595 133.294 129.5ZM133.294 145.688C133.294 143.592 131.595 141.894 129.5 141.894H113.312C111.217 141.894 109.519 143.592 109.519 145.688C109.519 147.783 111.217 149.481 113.312 149.481H129.5C131.595 149.481 133.294 147.783 133.294 145.688ZM113.312 109.519C111.217 109.519 109.519 111.217 109.519 113.312C109.519 115.408 111.217 117.106 113.312 117.106C115.408 117.106 117.106 115.408 117.106 113.312C117.106 111.217 115.408 109.519 113.312 109.519ZM145.688 141.894C143.592 141.894 141.894 143.592 141.894 145.688C141.894 147.783 143.592 149.481 145.688 149.481C147.783 149.481 149.481 147.783 149.481 145.688C149.481 143.592 147.783 141.894 145.688 141.894Z" fill="#D9E0E3"/>
<path d="M153.781 125.706H148.583C148.151 128.329 147.467 130.867 146.556 133.294H153.781C155.876 133.294 157.575 131.595 157.575 129.5C157.575 127.405 155.876 125.706 153.781 125.706Z" fill="#D9E0E3"/>
<path d="M148.208 110.477C148.546 112.038 148.794 113.634 148.946 115.257C149.286 114.688 149.482 114.023 149.482 113.312C149.482 112.184 148.989 111.172 148.208 110.477Z" fill="#D9E0E3"/>
<path d="M145.688 149.481C147.783 149.481 149.481 147.783 149.481 145.688C149.481 143.592 147.783 141.894 145.688 141.894C143.592 141.894 141.894 143.592 141.894 145.688C141.894 147.783 143.592 149.481 145.688 149.481Z" fill="#D9E0E3"/>
</g>
<defs>
<clipPath id="clip0_1655_12242">
<rect width="259" height="259" fill="white"/>
</clipPath>
</defs>
</svg>
