<svg width="291" height="291" viewBox="0 0 291 291" fill="none" xmlns="http://www.w3.org/2000/svg">
<path d="M278.417 106.103H13.0542V272.438H278.417V106.103Z" fill="#EEAA38"/>
<path d="M267.371 133.149H251.541V160.596H267.371V133.149Z" fill="#E6EAEE"/>
<path d="M251.541 160.595V133.149H267.372L251.541 160.595Z" fill="#E6EAEE"/>
<path d="M267.371 176.117H251.541V203.564H267.371V176.117Z" fill="#E6EAEE"/>
<path d="M251.541 203.557V176.111H267.372L251.541 203.557Z" fill="#E6EAEE"/>
<path d="M267.371 219.069H251.541V246.516H267.371V219.069Z" fill="#E6EAEE"/>
<path d="M251.541 246.519V219.073H267.372L251.541 246.519Z" fill="#E6EAEE"/>
<path d="M241.297 133.149H225.466V160.596H241.297V133.149Z" fill="#E6EAEE"/>
<path d="M225.477 160.595V133.149H241.309L225.477 160.595Z" fill="#E6EAEE"/>
<path d="M241.297 176.117H225.466V203.564H241.297V176.117Z" fill="#E6EAEE"/>
<path d="M225.477 203.557V176.111H241.309L225.477 203.557Z" fill="#E6EAEE"/>
<path d="M241.297 219.069H225.466V246.516H241.297V219.069Z" fill="#E6EAEE"/>
<path d="M225.477 246.519V219.073H241.309L225.477 246.519Z" fill="#E6EAEE"/>
<path d="M215.253 133.149H199.422V160.596H215.253V133.149Z" fill="#E6EAEE"/>
<path d="M199.412 160.595V133.149H215.244L199.412 160.595Z" fill="#E6EAEE"/>
<path d="M215.253 176.117H199.422V203.564H215.253V176.117Z" fill="#E6EAEE"/>
<path d="M199.412 203.557V176.111H215.244L199.412 203.557Z" fill="#E6EAEE"/>
<path d="M215.253 219.069H199.422V246.516H215.253V219.069Z" fill="#E6EAEE"/>
<path d="M199.412 246.519V219.073H215.244L199.412 246.519Z" fill="#E6EAEE"/>
<path d="M238.188 56.3507H53.289L13.0547 106.094H278.422L238.188 56.3507Z" fill="#91A3B0"/>
<path d="M194.405 47.8288C194.405 47.8288 182.73 27.6891 161.714 39.9479C155.642 43.4904 157.336 34.7952 147.704 42.3337V7.54942C147.704 7.54942 148.56 20.4207 169.011 10.7604C174.837 8.00911 183.606 4.92292 194.405 9.30088C194.405 9.30088 204.036 23.3105 194.405 47.8288Z" fill="#187A6A"/>
<path d="M148.791 7.55005H141.787V72.3471H148.791V7.55005Z" fill="#B9C5CC"/>
<path d="M186.736 91.0273V272.419H103.842V91.0273V85.7729L145.289 59.9137L186.736 85.7729V91.0273Z" fill="#EEAA38"/>
<path d="M144.906 135.523C160.529 135.523 173.194 122.858 173.194 107.235C173.194 91.6121 160.529 78.9471 144.906 78.9471C129.283 78.9471 116.618 91.6121 116.618 107.235C116.618 122.858 129.283 135.523 144.906 135.523Z" fill="white"/>
<path d="M144.906 137.414C128.265 137.414 114.727 123.875 114.727 107.234C114.727 90.5935 128.265 77.0552 144.906 77.0552C161.547 77.0552 175.085 90.5935 175.085 107.234C175.085 123.875 161.547 137.414 144.906 137.414ZM144.906 80.8357C130.349 80.8357 118.507 92.6778 118.507 107.234C118.507 121.791 130.349 133.633 144.906 133.633C159.462 133.633 171.304 121.791 171.304 107.234C171.304 92.6778 159.462 80.8357 144.906 80.8357Z" fill="#3A556A"/>
<path d="M141.271 83.4696H143.246V88.9074H142.375V84.2867H141.272V83.4696H141.271Z" fill="#2F4859"/>
<path d="M146.895 85.5935C147.051 85.3807 147.129 85.1651 147.129 84.9476C147.129 84.7293 147.045 84.5438 146.879 84.391C146.714 84.2376 146.504 84.1612 146.251 84.1612C145.804 84.1612 145.433 84.3897 145.138 84.846L144.399 84.4176C144.637 84.0603 144.9 83.7902 145.189 83.6087C145.476 83.4273 145.847 83.3359 146.301 83.3359C146.755 83.3359 147.153 83.4798 147.495 83.7677C147.836 84.0555 148.008 84.4483 148.008 84.9462C148.008 85.2258 147.935 85.4932 147.791 85.7476C147.645 86.0013 147.378 86.3287 146.989 86.7277L145.714 88.0269H148.18V88.9054H144.461V88.1272L146.11 86.4705C146.477 86.0988 146.74 85.8056 146.895 85.5935Z" fill="#2F4859"/>
<path d="M122.951 109.203C123.433 109.203 123.788 109.039 124.016 108.713C124.245 108.386 124.362 107.945 124.367 107.39C124.237 107.536 124.051 107.671 123.806 107.799C123.563 107.926 123.293 107.99 122.998 107.99C122.51 107.99 122.101 107.828 121.773 107.504C121.444 107.18 121.279 106.749 121.279 106.213C121.279 105.677 121.457 105.244 121.811 104.917C122.167 104.591 122.614 104.428 123.154 104.428C124.026 104.428 124.627 104.816 124.959 105.594C125.145 106.04 125.239 106.543 125.239 107.103C125.239 107.663 125.179 108.13 125.06 108.504C124.941 108.877 124.777 109.172 124.57 109.39C124.165 109.815 123.669 110.028 123.081 110.028C122.491 110.028 121.959 109.844 121.482 109.475L121.941 108.799C122.06 108.903 122.22 108.996 122.42 109.079C122.618 109.161 122.796 109.203 122.951 109.203ZM123.119 107.18C123.433 107.18 123.695 107.094 123.905 106.919C124.115 106.745 124.22 106.52 124.22 106.243C124.22 105.966 124.119 105.726 123.916 105.527C123.714 105.327 123.461 105.228 123.157 105.228C122.854 105.228 122.604 105.317 122.407 105.496C122.21 105.676 122.111 105.905 122.111 106.185C122.111 106.465 122.2 106.701 122.379 106.893C122.558 107.086 122.805 107.18 123.119 107.18Z" fill="#2F4859"/>
<path d="M145.27 126.673C144.788 126.673 144.432 126.837 144.204 127.163C143.975 127.49 143.859 127.931 143.855 128.486C143.983 128.34 144.171 128.205 144.414 128.077C144.658 127.95 144.927 127.886 145.223 127.886C145.71 127.886 146.119 128.049 146.448 128.373C146.778 128.696 146.941 129.128 146.941 129.664C146.941 130.2 146.763 130.632 146.409 130.959C146.053 131.285 145.606 131.449 145.067 131.449C144.196 131.449 143.593 131.06 143.263 130.283C143.076 129.837 142.983 129.334 142.983 128.774C142.983 128.214 143.042 127.747 143.161 127.373C143.281 127 143.444 126.704 143.652 126.487C144.056 126.061 144.554 125.849 145.142 125.849C145.73 125.849 146.263 126.032 146.74 126.401L146.281 127.077C146.162 126.974 146.002 126.881 145.802 126.798C145.602 126.715 145.425 126.673 145.27 126.673ZM145.102 128.696C144.788 128.696 144.526 128.782 144.316 128.956C144.106 129.13 144 129.356 144 129.633C144 129.91 144.102 130.149 144.305 130.349C144.506 130.549 144.76 130.648 145.067 130.648C145.372 130.648 145.627 130.559 145.828 130.38C146.031 130.201 146.132 129.973 146.132 129.695C146.132 129.418 146.038 129.181 145.852 128.987C145.666 128.793 145.415 128.696 145.102 128.696Z" fill="#2F4859"/>
<path d="M164.957 106.605V105.788H168.139V106.504L166.824 107.974C167.323 107.99 167.711 108.147 167.991 108.445C168.271 108.744 168.411 109.1 168.411 109.514C168.411 110.07 168.222 110.505 167.847 110.821C167.471 111.138 166.986 111.296 166.396 111.296C165.804 111.296 165.225 111.106 164.661 110.728L165.049 109.989C165.495 110.3 165.963 110.456 166.45 110.456C166.767 110.456 167.027 110.382 167.231 110.234C167.436 110.086 167.539 109.873 167.539 109.596C167.539 109.319 167.424 109.097 167.196 108.931C166.967 108.765 166.651 108.682 166.247 108.682C166.044 108.682 165.851 108.71 165.663 108.767V108.067L166.924 106.605H164.957Z" fill="#2F4859"/>
<path d="M146.265 93.7356H145.104V108.431H146.265V93.7356Z" fill="#2F4859"/>
<path d="M144.522 107.82H133.828V109.08H144.522V107.82Z" fill="#2F4859"/>
<path d="M157.567 122.191L158.115 121.708L141.51 102.822L140.962 103.305L157.567 122.191Z" fill="#E56353"/>
<path d="M145.646 110.323C146.69 110.323 147.537 109.476 147.537 108.431C147.537 107.387 146.69 106.54 145.646 106.54C144.601 106.54 143.754 107.387 143.754 108.431C143.754 109.476 144.601 110.323 145.646 110.323Z" fill="#E6EAEE"/>
<path d="M291 272.409H0V283.889H291V272.409Z" fill="#5F7381"/>
<path d="M162.601 219.186H127.973V272.43H162.601V219.186Z" fill="#E6EAEE"/>
<path d="M93.2833 133.149H77.4526V160.596H93.2833V133.149Z" fill="#E6EAEE"/>
<path d="M77.4526 160.595V133.149H93.2846L77.4526 160.595Z" fill="#E6EAEE"/>
<path d="M93.2833 176.117H77.4526V203.564H93.2833V176.117Z" fill="#E6EAEE"/>
<path d="M77.4526 203.557V176.111H93.2846L77.4526 203.557Z" fill="#E6EAEE"/>
<path d="M93.2833 219.069H77.4526V246.516H93.2833V219.069Z" fill="#E6EAEE"/>
<path d="M77.4526 246.519V219.073H93.2846L77.4526 246.519Z" fill="#E6EAEE"/>
<path d="M67.2183 133.149H51.3877V160.596H67.2183V133.149Z" fill="#E6EAEE"/>
<path d="M51.3892 160.595V133.149H67.2205L51.3892 160.595Z" fill="#E6EAEE"/>
<path d="M67.2183 176.117H51.3877V203.564H67.2183V176.117Z" fill="#E6EAEE"/>
<path d="M51.3892 203.557V176.111H67.2205L51.3892 203.557Z" fill="#E6EAEE"/>
<path d="M67.2183 219.069H51.3877V246.516H67.2183V219.069Z" fill="#E6EAEE"/>
<path d="M51.3892 246.519V219.073H67.2205L51.3892 246.519Z" fill="#E6EAEE"/>
<path d="M41.1563 133.149H25.3257V160.596H41.1563V133.149Z" fill="#E6EAEE"/>
<path d="M25.3247 160.595V133.149H41.156L25.3247 160.595Z" fill="#E6EAEE"/>
<path d="M41.1563 176.117H25.3257V203.564H41.1563V176.117Z" fill="#E6EAEE"/>
<path d="M25.3247 203.557V176.111H41.156L25.3247 203.557Z" fill="#E6EAEE"/>
<path d="M41.1563 219.069H25.3257V246.516H41.1563V219.069Z" fill="#E6EAEE"/>
<path d="M25.3247 246.519V219.073H41.156L25.3247 246.519Z" fill="#E6EAEE"/>
<path d="M138.446 155.835H114.712V176.502H138.446V155.835Z" fill="#E6EAEE"/>
<path d="M114.727 176.5V155.832H138.459L114.727 176.5Z" fill="#E6EAEE"/>
<path d="M174.472 155.835H150.738V176.502H174.472V155.835Z" fill="#E6EAEE"/>
<path d="M150.737 176.5V155.832H174.469L150.737 176.5Z" fill="#E6EAEE"/>
<path d="M138.964 184.847H115.23V205.514H138.964V184.847Z" fill="#E6EAEE"/>
<path d="M115.231 205.509V184.841H138.964L115.231 205.509Z" fill="#E6EAEE"/>
<path d="M174.975 184.847H151.241V205.514H174.975V184.847Z" fill="#E6EAEE"/>
<path d="M151.242 205.509V184.841H174.974L151.242 205.509Z" fill="#E6EAEE"/>
</svg>
