<svg width="170" height="176" viewBox="0 0 170 176" fill="none" xmlns="http://www.w3.org/2000/svg">
<path d="M89.2865 12.6039C88.7018 9.08327 86.887 5.88428 84.1649 3.57628C81.4427 1.26829 77.99 0.00101045 74.4212 0H54.4678C50.899 0.00101045 47.4463 1.26829 44.7242 3.57628C42.0021 5.88428 40.1872 9.08327 39.6025 12.6039C37.9262 22.68 35.8438 32.8572 35.8438 32.8572L47.7802 30.848C47.72 25.9497 48.5255 20.2777 49.3276 15.9082C49.6971 13.8979 50.7599 12.0807 52.3308 10.773C53.9018 9.46525 55.8815 8.74968 57.9256 8.75081H70.9635C73.0075 8.74968 74.9872 9.46525 76.5582 10.773C78.1292 12.0807 79.1919 13.8979 79.5615 15.9082C80.363 20.2822 81.169 25.9519 81.1088 30.848L93.0453 32.8572C93.0453 32.8572 90.9651 22.68 89.2865 12.6039Z" fill="#293339"/>
<path d="M112.494 175.044H122.12C125.052 175.045 127.955 174.466 130.663 173.341C133.371 172.216 135.829 170.566 137.897 168.488C139.965 166.409 141.602 163.942 142.713 161.228C143.824 158.515 144.387 155.609 144.371 152.676C144.208 124.796 141.645 73.3618 108.106 38.3802C108.106 38.3802 97.4265 26.4346 77.5743 22.2879C69.1462 20.5225 60.4172 20.8085 52.1228 23.1218C43.6162 25.5019 32.7437 30.3059 27.6074 39.8224L112.494 175.044Z" fill="#005D31"/>
<path d="M63.5078 41.4526L66.4537 35.8289C66.7803 35.2053 67.2267 34.6522 67.7673 34.2013C68.3079 33.7505 68.9321 33.4106 69.6042 33.2013C70.2763 32.9919 70.983 32.9171 71.6841 32.9812C72.3851 33.0453 73.0666 33.2471 73.6895 33.5749L88.0663 41.1367L81.9132 55.7924L63.5078 41.4526Z" fill="#DF524A"/>
<path d="M147.339 79.9136L158.735 72.3767C159.048 72.1697 159.401 72.0294 159.77 71.9643C160.14 71.8992 160.519 71.9109 160.884 71.9985C161.248 72.0862 161.591 72.2479 161.891 72.4737C162.191 72.6996 162.441 72.9846 162.625 73.3112L169.51 85.476C169.794 85.9773 169.879 86.5669 169.748 87.1279C169.618 87.689 169.282 88.1805 168.806 88.5054L163.375 92.2125C162.333 92.6907 161.379 93.3417 160.554 94.1382L155.469 97.6084C154.386 98.0117 153.418 98.6726 152.648 99.5341L147.049 103.356C145.968 103.763 145.001 104.423 144.228 105.282L138.459 109.219C137.427 109.716 136.476 110.365 135.637 111.145L131.279 114.12L128.104 106.974L147.339 79.9136Z" fill="#C1CBE0"/>
<path d="M95.3669 44.9758L88.0669 41.1357L83.506 47.6115C82.7381 48.6997 81.5827 49.4525 80.277 49.7153C78.9714 49.9782 77.6147 49.7311 76.4855 49.0248C70.6448 45.3779 65.9425 42.7626 63.5084 41.4516L58.8623 50.3211L84.9807 67.1223L89.4172 57.6615L95.3669 44.9758Z" fill="#C83A32"/>
<path d="M147.339 79.9131L107.127 106.506L117.205 123.726L131.279 114.12C131.3 112.576 131.207 111.032 131.001 109.502C130.786 107.985 131.099 106.44 131.889 105.128L147.339 79.9131Z" fill="#C1CBE0"/>
<path d="M86.7666 55.7942L98.999 32.7387C99.4345 31.915 100.035 31.1898 100.763 30.6083C101.491 30.0269 102.331 29.6016 103.231 29.359C104.131 29.1164 105.071 29.0617 105.992 29.1983C106.914 29.3349 107.798 29.6599 108.588 30.153C122.059 38.6264 135.024 47.8784 147.418 57.8619C148.701 58.8946 149.565 60.3576 149.851 61.9794C150.136 63.6012 149.824 65.2716 148.971 66.6803L128.568 100.373L86.7666 55.7942Z" fill="#EEAA38"/>
<path d="M128.568 100.372C121.638 82.928 102.722 66.8772 86.7666 55.7939L80.7578 67.1231L118.737 116.61L128.568 100.372Z" fill="#F19937"/>
<path d="M33.7986 36.833C33.7986 36.833 80.928 62.063 119.484 99.669C119.484 99.669 124.904 106.563 127.074 137.563L6.38845 107.568C5.2444 82.2015 7.17293 38.5184 33.7986 36.833Z" fill="#009E3D"/>
<path d="M82.1238 104.058H20.7568C15.7547 104.053 10.8256 105.257 6.38965 107.569C6.8617 118.027 7.85465 125.376 7.85465 125.376L95.3253 175.121L112.495 175.045C114.524 175.036 116.531 174.626 118.402 173.84C120.273 173.054 121.971 171.907 123.397 170.464C124.824 169.021 125.952 167.311 126.717 165.431C127.482 163.551 127.869 161.539 127.855 159.51L127.815 153.7C127.666 147.703 127.408 142.349 127.073 137.564C124.186 127.884 118.252 119.395 110.154 113.358C102.055 107.321 92.2247 104.059 82.1238 104.058Z" fill="#005D31"/>
<path d="M33.7979 36.833C33.7979 36.833 43.3411 44.5903 48.4598 65.807C53.069 84.9014 72.0487 91.6998 95.6648 92.202C101.194 92.2986 106.639 93.5696 111.639 95.9307L119.483 99.669C119.483 99.669 111.625 85.4581 82.6314 62.134C57.0516 41.5512 33.7979 36.833 33.7979 36.833Z" fill="#297A38"/>
<path d="M30.4243 34.1837L30.4772 34.1684C30.8235 34.068 31.1864 34.0379 31.5445 34.0799C31.9026 34.1219 32.2487 34.235 32.5625 34.4127C32.8762 34.5903 33.1513 34.829 33.3714 35.1145C33.5916 35.4 33.7525 35.7267 33.8446 36.0753C34.6438 39.1342 35.8225 45.0334 36.0128 53.711C36.0216 54.1898 35.9311 54.6653 35.7469 55.1074C35.5627 55.5495 35.2889 55.9486 34.9427 56.2796C34.5964 56.6105 34.1854 56.8661 33.7354 57.0302C33.2855 57.1943 32.8064 57.2633 32.3284 57.2329L31.0145 57.15C30.168 57.097 29.3702 56.7354 28.7724 56.1337C28.1746 55.5319 27.8183 54.7317 27.771 53.8848C27.5438 49.9505 27.3807 42.8646 28.5151 36.319C28.6007 35.8197 28.8252 35.3546 29.1628 34.9769C29.5005 34.5993 29.9377 34.3244 30.4243 34.1837Z" fill="#293339"/>
<path d="M25.468 111.809H74.7361C84.8994 111.809 94.6464 115.846 101.833 123.032C109.019 130.219 113.057 139.966 113.057 150.129V157.389C113.057 162.092 111.189 166.602 107.863 169.928C104.538 173.253 100.027 175.121 95.3245 175.121H16.8989C14.6797 175.121 12.4823 174.684 10.432 173.835C8.38172 172.986 6.51879 171.741 4.94958 170.172C3.38037 168.602 2.1356 166.739 1.28635 164.689C0.437103 162.639 0 160.441 0 158.222V137.276C-8.3196e-10 133.932 0.658752 130.62 1.93864 127.53C3.21854 124.44 5.0945 121.632 7.45943 119.268C9.82435 116.903 12.6319 115.027 15.7218 113.747C18.8118 112.467 22.1235 111.809 25.468 111.809Z" fill="#009E3D"/>
<path d="M33.5786 109.834L33.519 109.821C33.1254 109.735 32.7188 109.729 32.3229 109.803C31.927 109.877 31.5499 110.03 31.2138 110.251C30.8777 110.473 30.5893 110.76 30.3656 111.095C30.1419 111.43 29.9874 111.806 29.9113 112.202C29.2529 115.671 28.3872 122.333 28.832 132.017C28.8583 132.551 28.9953 133.074 29.2341 133.553C29.4729 134.032 29.8085 134.456 30.2196 134.798C30.6307 135.141 31.1083 135.394 31.6224 135.542C32.1364 135.691 32.6756 135.731 33.206 135.66L34.6641 135.468C35.6031 135.344 36.4642 134.881 37.0845 134.165C37.7048 133.449 38.0413 132.531 38.0304 131.584C37.9855 127.183 37.6288 119.271 35.8718 112.067C35.7378 111.517 35.4517 111.016 35.0461 110.621C34.6405 110.226 34.132 109.953 33.5786 109.834Z" fill="#293339"/>
<path d="M123.304 76.8677C122.803 76.8681 122.32 76.6787 121.953 76.3377C115.504 70.3249 108.614 64.8026 101.342 59.8171C101.126 59.6703 100.941 59.4824 100.798 59.2641C100.655 59.0458 100.556 58.8015 100.507 58.545C100.458 58.2885 100.46 58.0249 100.513 57.7692C100.566 57.5136 100.669 57.2708 100.816 57.0549C100.963 56.839 101.15 56.6541 101.369 56.5108C101.587 56.3675 101.831 56.2686 102.088 56.2197C102.344 56.1708 102.608 56.173 102.864 56.226C103.119 56.279 103.362 56.3818 103.578 56.5286C111.014 61.6266 118.058 67.273 124.653 73.4207C124.946 73.6924 125.15 74.0461 125.24 74.4358C125.329 74.8255 125.299 75.233 125.153 75.6052C125.007 75.9774 124.752 76.2969 124.422 76.5221C124.091 76.7474 123.701 76.8678 123.301 76.8677H123.304Z" fill="#F19937"/>
<path d="M126.565 60.1608C126.044 60.1616 125.544 59.9576 125.173 59.5928C122.144 56.6554 118.843 54.0116 115.315 51.6969C114.876 51.4044 114.571 50.9497 114.467 50.4326C114.364 49.9155 114.47 49.3784 114.762 48.9396C115.055 48.5007 115.51 48.196 116.027 48.0924C116.544 47.9889 117.081 48.095 117.52 48.3874C121.255 50.8407 124.75 53.6426 127.957 56.7554C128.239 57.0318 128.433 57.3861 128.513 57.7729C128.593 58.1598 128.556 58.5617 128.406 58.9273C128.257 59.293 128.002 59.6059 127.674 59.8261C127.346 60.0463 126.96 60.1638 126.565 60.1637V60.1608Z" fill="#F19937"/>
<path d="M161.44 88.9233C161.21 88.5362 160.835 88.2561 160.399 88.1442C159.963 88.0323 159.5 88.0978 159.111 88.3263C158.723 88.5547 158.441 88.9276 158.327 89.3635C158.213 89.7993 158.276 90.2625 158.503 90.6519L160.553 94.1357L163.374 92.21L161.44 88.9233Z" fill="#293339"/>
<path d="M153.499 94.2633C153.388 94.0662 153.239 93.8933 153.06 93.7547C152.881 93.616 152.676 93.5144 152.457 93.4557C152.239 93.3971 152.011 93.3825 151.787 93.4129C151.562 93.4434 151.346 93.5182 151.151 93.633C150.956 93.7478 150.786 93.9003 150.651 94.0816C150.515 94.2629 150.417 94.4694 150.362 94.689C150.307 94.9086 150.297 95.1369 150.331 95.3606C150.366 95.5843 150.444 95.7989 150.563 95.9919L152.647 99.5348L155.468 97.6091L153.499 94.2633Z" fill="#293339"/>
<path d="M143.028 96.5239C142.797 96.1368 142.423 95.8567 141.987 95.7448C141.55 95.6329 141.087 95.6984 140.699 95.9269C140.311 96.1553 140.029 96.5282 139.915 96.964C139.801 97.3998 139.864 97.8631 140.09 98.2525L144.226 105.281L147.047 103.355L143.028 96.5239Z" fill="#293339"/>
</svg>
