<svg width="170" height="176" viewBox="0 0 170 176" fill="none" xmlns="http://www.w3.org/2000/svg">
<path d="M89.2865 12.6039C88.7018 9.08327 86.887 5.88428 84.1649 3.57628C81.4427 1.26829 77.99 0.00101045 74.4212 0H54.4678C50.899 0.00101045 47.4463 1.26829 44.7242 3.57628C42.0021 5.88428 40.1872 9.08327 39.6025 12.6039C37.9262 22.68 35.8438 32.8572 35.8438 32.8572L47.7802 30.848C47.72 25.9497 48.5255 20.2777 49.3276 15.9082C49.6971 13.8979 50.7599 12.0807 52.3308 10.773C53.9018 9.46525 55.8815 8.74968 57.9256 8.75081H70.9635C73.0075 8.74968 74.9872 9.46525 76.5582 10.773C78.1292 12.0807 79.1919 13.8979 79.5615 15.9082C80.363 20.2822 81.169 25.9519 81.1088 30.848L93.0453 32.8572C93.0453 32.8572 90.9651 22.68 89.2865 12.6039Z" fill="#3E3E59"/>
<path d="M112.494 175.044H122.12C125.052 175.045 127.955 174.466 130.663 173.341C133.371 172.216 135.829 170.567 137.897 168.488C139.965 166.409 141.602 163.942 142.713 161.229C143.824 158.515 144.387 155.609 144.371 152.677C144.208 124.796 141.645 73.3621 108.106 38.3804C108.106 38.3804 97.4265 26.4349 77.5743 22.2881C69.1462 20.5227 60.4172 20.8087 52.1228 23.122C43.6162 25.5021 32.7437 30.3061 27.6074 39.8227L112.494 175.044Z" fill="#5D80C6"/>
<path d="M63.5078 41.4523L66.4537 35.8286C66.7803 35.205 67.2267 34.652 67.7673 34.2011C68.3079 33.7502 68.9321 33.4104 69.6042 33.201C70.2763 32.9916 70.983 32.9169 71.6841 32.981C72.3851 33.0451 73.0666 33.2468 73.6895 33.5746L88.0663 41.1365L81.9132 55.7922L63.5078 41.4523Z" fill="#D37577"/>
<path d="M147.34 79.9131L158.736 72.3762C159.049 72.1693 159.402 72.0289 159.771 71.9638C160.141 71.8987 160.52 71.9104 160.885 71.998C161.249 72.0857 161.592 72.2474 161.892 72.4733C162.192 72.6991 162.442 72.9841 162.626 73.3107L169.511 85.4755C169.795 85.9768 169.88 86.5664 169.749 87.1274C169.619 87.6885 169.282 88.1801 168.807 88.5049L163.376 92.212C162.334 92.6902 161.38 93.3413 160.555 94.1377L155.47 97.6079C154.387 98.0112 153.419 98.6721 152.649 99.5336L147.05 103.355C145.969 103.763 145.002 104.423 144.229 105.281L138.46 109.219C137.428 109.715 136.477 110.365 135.638 111.145L131.28 114.12L128.105 106.973L147.34 79.9131Z" fill="#DFE6EF"/>
<path d="M95.3659 44.9758L88.0659 41.1357L83.505 47.6115C82.7371 48.6997 81.5817 49.4525 80.276 49.7153C78.9704 49.9782 77.6137 49.7311 76.4845 49.0248C70.6438 45.3779 65.9415 42.7626 63.5074 41.4516L58.8613 50.3211L84.9797 67.1223L89.4162 57.6615L95.3659 44.9758Z" fill="#9B454D"/>
<path d="M147.339 79.9133L107.127 106.506L117.205 123.726L131.279 114.12C131.3 112.576 131.207 111.032 131.001 109.502C130.786 107.985 131.099 106.441 131.889 105.128L147.339 79.9133Z" fill="#C1CBE0"/>
<path d="M86.7676 55.794L99 32.7385C99.4355 31.9148 100.036 31.1896 100.764 30.6081C101.492 30.0266 102.332 29.6013 103.232 29.3588C104.132 29.1162 105.071 29.0615 105.993 29.1981C106.915 29.3347 107.799 29.6596 108.589 30.1527C122.06 38.6262 135.025 47.8782 147.419 57.8617C148.702 58.8943 149.566 60.3574 149.852 61.9792C150.137 63.601 149.825 65.2713 148.972 66.6801L128.569 100.372L86.7676 55.794Z" fill="#FFB655"/>
<path d="M128.568 100.372C121.638 82.928 102.722 66.8772 86.7666 55.7939L80.7578 67.1231L118.737 116.61L128.568 100.372Z" fill="#EA8744"/>
<path d="M33.7976 36.8335C33.7976 36.8335 80.927 62.0634 119.483 99.6695C119.483 99.6695 124.903 106.564 127.073 137.563L6.38748 107.568C5.24342 82.202 7.17195 38.5189 33.7976 36.8335Z" fill="#8FBBEF"/>
<path d="M82.1228 104.057H20.7558C15.7537 104.052 10.8246 105.257 6.38867 107.568C6.86072 118.026 7.85367 125.376 7.85367 125.376L95.3243 175.121L112.494 175.044C114.523 175.035 116.53 174.626 118.401 173.84C120.272 173.054 121.97 171.906 123.396 170.463C124.823 169.02 125.951 167.31 126.716 165.43C127.481 163.551 127.868 161.539 127.854 159.51L127.814 153.699C127.665 147.702 127.407 142.348 127.072 137.563C124.185 127.883 118.251 119.394 110.153 113.357C102.054 107.32 92.2237 104.059 82.1228 104.057Z" fill="#5D80C6"/>
<path d="M33.7988 36.8335C33.7988 36.8335 43.3421 44.5908 48.4608 65.8075C53.0699 84.9019 72.0496 91.7003 95.6658 92.2025C101.195 92.2991 106.64 93.5701 111.64 95.9312L119.484 99.6695C119.484 99.6695 111.626 85.4586 82.6324 62.1345C57.0525 41.5517 33.7988 36.8335 33.7988 36.8335Z" fill="#D2EAFF"/>
<path d="M30.4243 34.1834L30.4772 34.1681C30.8235 34.0678 31.1864 34.0377 31.5445 34.0797C31.9026 34.1216 32.2487 34.2348 32.5625 34.4124C32.8762 34.5901 33.1513 34.8287 33.3714 35.1142C33.5916 35.3998 33.7525 35.7264 33.8446 36.075C34.6438 39.134 35.8225 45.0332 36.0128 53.7107C36.0216 54.1896 35.9311 54.6651 35.7469 55.1072C35.5627 55.5493 35.2889 55.9484 34.9427 56.2793C34.5964 56.6103 34.1854 56.8658 33.7354 57.0299C33.2855 57.194 32.8064 57.263 32.3284 57.2327L31.0145 57.1497C30.168 57.0968 29.3702 56.7352 28.7724 56.1334C28.1746 55.5316 27.8183 54.7315 27.771 53.8846C27.5438 49.9502 27.3807 42.8644 28.5151 36.3187C28.6007 35.8194 28.8252 35.3543 29.1628 34.9767C29.5005 34.5991 29.9377 34.3241 30.4243 34.1834Z" fill="#575777"/>
<path d="M25.468 111.809H74.7361C84.8994 111.809 94.6464 115.846 101.833 123.033C109.019 130.219 113.057 139.966 113.057 150.13V157.389C113.057 162.092 111.189 166.602 107.863 169.928C104.538 173.253 100.027 175.121 95.3245 175.121H16.8989C14.6797 175.121 12.4823 174.684 10.432 173.835C8.38172 172.986 6.51879 171.741 4.94958 170.172C3.38037 168.603 2.1356 166.74 1.28635 164.689C0.437103 162.639 0 160.442 0 158.223V137.276C-8.3196e-10 133.932 0.658752 130.62 1.93864 127.53C3.21854 124.44 5.0945 121.633 7.45943 119.268C9.82435 116.903 12.6319 115.027 15.7218 113.747C18.8118 112.467 22.1235 111.809 25.468 111.809Z" fill="#8FBBEF"/>
<path d="M33.5796 109.834L33.5199 109.821C33.1264 109.735 32.7197 109.729 32.3239 109.803C31.928 109.877 31.5509 110.029 31.2148 110.251C30.8786 110.473 30.5902 110.76 30.3666 111.095C30.1429 111.43 29.9884 111.806 29.9122 112.201C29.2539 115.67 28.3882 122.333 28.833 132.017C28.8593 132.551 28.9962 133.074 29.2351 133.553C29.4739 134.032 29.8095 134.456 30.2206 134.798C30.6317 135.14 31.1093 135.394 31.6233 135.542C32.1374 135.691 32.6766 135.731 33.2069 135.66L34.6651 135.468C35.6041 135.344 36.4652 134.881 37.0855 134.165C37.7058 133.449 38.0423 132.531 38.0314 131.584C37.9865 127.182 37.6298 119.271 35.8728 112.067C35.7388 111.517 35.4526 111.016 35.0471 110.621C34.6415 110.226 34.133 109.953 33.5796 109.834Z" fill="#575777"/>
<path d="M123.305 76.8679C122.804 76.8684 122.321 76.679 121.954 76.3379C115.505 70.3251 108.615 64.8029 101.343 59.8173C101.127 59.6705 100.942 59.4826 100.799 59.2643C100.656 59.0461 100.557 58.8017 100.508 58.5452C100.459 58.2887 100.461 58.0251 100.514 57.7695C100.567 57.5138 100.67 57.2711 100.817 57.0552C100.964 56.8392 101.151 56.6543 101.37 56.511C101.588 56.3677 101.832 56.2688 102.089 56.22C102.345 56.1711 102.609 56.1732 102.865 56.2262C103.12 56.2792 103.363 56.3821 103.579 56.5289C111.015 61.6268 118.059 67.2732 124.654 73.421C124.947 73.6926 125.151 74.0463 125.241 74.436C125.33 74.8257 125.3 75.2332 125.154 75.6054C125.008 75.9776 124.753 76.2972 124.423 76.5224C124.092 76.7476 123.702 76.868 123.302 76.8679H123.305Z" fill="#EA8744"/>
<path d="M126.564 60.1611C126.043 60.1619 125.543 59.9578 125.172 59.593C122.143 56.6556 118.842 54.0119 115.314 51.6971C114.875 51.4047 114.57 50.9499 114.466 50.4328C114.363 49.9157 114.469 49.3787 114.761 48.9398C115.054 48.5009 115.509 48.1962 116.026 48.0927C116.543 47.9891 117.08 48.0952 117.519 48.3877C121.254 50.841 124.749 53.6428 127.956 56.7556C128.238 57.0321 128.432 57.3863 128.512 57.7732C128.592 58.16 128.555 58.5619 128.405 58.9276C128.256 59.2933 128.001 59.6062 127.673 59.8264C127.345 60.0466 126.959 60.1641 126.564 60.1639V60.1611Z" fill="#EA8744"/>
<path d="M161.44 88.9238C161.21 88.5367 160.835 88.2566 160.399 88.1447C159.963 88.0328 159.5 88.0983 159.111 88.3268C158.723 88.5552 158.441 88.9281 158.327 89.3639C158.213 89.7997 158.276 90.263 158.503 90.6524L160.553 94.1362L163.374 92.2105L161.44 88.9238Z" fill="#C1CBE0"/>
<path d="M153.5 94.2633C153.389 94.0662 153.24 93.8933 153.061 93.7547C152.882 93.616 152.677 93.5144 152.458 93.4557C152.24 93.3971 152.012 93.3825 151.788 93.4129C151.563 93.4434 151.347 93.5182 151.152 93.633C150.957 93.7478 150.787 93.9003 150.651 94.0816C150.516 94.2629 150.418 94.4694 150.363 94.689C150.308 94.9086 150.298 95.1369 150.332 95.3606C150.367 95.5843 150.445 95.7989 150.564 95.9919L152.648 99.5348L155.469 97.6091L153.5 94.2633Z" fill="#C1CBE0"/>
<path d="M143.03 96.5241C142.799 96.137 142.425 95.8569 141.989 95.745C141.552 95.6332 141.089 95.6986 140.701 95.9271C140.313 96.1556 140.031 96.5285 139.917 96.9643C139.803 97.4001 139.866 97.8633 140.092 98.2527L144.228 105.281L147.049 103.356L143.03 96.5241Z" fill="#C1CBE0"/>
</svg>
