<svg width="232" height="230" viewBox="0 0 232 230" fill="none" xmlns="http://www.w3.org/2000/svg">
<path d="M210.149 48.5625L214.68 84.8886L210.149 121.215H200.533C196.067 121.215 192.447 117.594 192.447 113.128V56.649C192.447 52.183 196.067 48.5625 200.533 48.5625H210.149Z" fill="#C83A32"/>
<path d="M144.899 82.8949C149.073 74.7501 145.853 64.7644 137.708 60.5913C129.563 56.4182 119.577 59.6379 115.404 67.7828C111.231 75.9277 114.451 85.9134 122.596 90.0865C130.741 94.2596 140.726 91.0398 144.899 82.8949Z" fill="#EEAA38"/>
<path d="M130.169 58.7999C128.352 58.7999 126.605 59.0967 124.969 59.6368C131.573 61.8182 136.34 68.0355 136.34 75.3703C136.34 82.705 131.573 88.9223 124.969 91.1037C126.605 91.6442 128.352 91.9406 130.169 91.9406C139.321 91.9406 146.739 84.5216 146.739 75.3703C146.74 66.2185 139.321 58.7999 130.169 58.7999Z" fill="#F19937"/>
<path d="M100.831 43.9302V97.7157H82.3372V78.3396C82.3372 70.5776 76.0442 64.2841 68.2817 64.2841C60.5192 64.2841 54.2316 70.5771 54.2316 78.3396V97.7157H35.7378V43.9302L68.2844 39.3989L100.831 43.9302Z" fill="#C83A32"/>
<path d="M91.3652 43.9302H100.831V97.7157H91.3652V43.9302Z" fill="#BF3028"/>
<path d="M69.6982 0.593367L108.933 40.5604C110.164 41.8137 109.275 43.9302 107.519 43.9302H29.0497C27.2929 43.9302 26.4048 41.8141 27.6355 40.5604L66.8702 0.593367C67.6464 -0.197789 68.9215 -0.197789 69.6982 0.593367Z" fill="#F19937"/>
<path d="M108.932 40.5608L69.6981 0.593367C68.9215 -0.197789 67.6468 -0.197789 66.8697 0.593367L62.1509 5.40057L96.6663 40.5604C97.897 41.8137 97.0089 43.9302 95.2521 43.9302H107.518C109.275 43.9302 110.163 41.8141 108.932 40.5608Z" fill="#EF8215"/>
<path d="M133.568 161.987L122.953 223.529C122.303 227.294 119.033 229.956 115.339 229.956C114.901 229.956 114.462 229.915 114.013 229.837C109.804 229.115 106.978 225.112 107.705 220.898L117.867 161.987H133.568Z" fill="#187A6A"/>
<path d="M217.965 229.837C217.517 229.915 217.078 229.956 216.639 229.956C212.946 229.956 209.676 227.294 209.026 223.529L198.411 161.987H214.112L224.274 220.898C225.001 225.112 222.174 229.115 217.965 229.837Z" fill="#187A6A"/>
<path d="M210.149 45.2737V158.552H225.624V45.2737C225.624 41.0008 222.159 37.5366 217.886 37.5366C213.614 37.5366 210.149 41.0008 210.149 45.2737Z" fill="#EEAA38"/>
<path d="M99.9785 159.232V166.883C99.9785 171.033 103.343 174.397 107.492 174.397H224.486C228.636 174.397 232 171.033 232 166.883V159.232C232 155.082 228.636 151.718 224.486 151.718H107.493C103.343 151.718 99.9785 155.082 99.9785 159.232Z" fill="#62AF60"/>
<path d="M224.486 165.527H107.493C103.549 165.527 100.321 162.487 100.01 158.623C99.9935 158.824 99.979 159.026 99.979 159.232V166.883C99.979 171.032 103.343 174.396 107.493 174.396H224.486C228.636 174.396 232 171.032 232 166.883C232 166.883 231.986 158.824 231.969 158.623C231.658 162.487 228.43 165.527 224.486 165.527Z" fill="#4B9F49"/>
<path d="M23.8809 229.956H12.2514C11.0543 229.956 10.1081 228.94 10.1933 227.746L18.8045 106.932H41.6832L25.9267 228.159C25.7935 229.187 24.9176 229.956 23.8809 229.956Z" fill="#EEAA38"/>
<path d="M149.922 229.956H161.551C162.749 229.956 163.695 228.94 163.61 227.746L154.998 106.932H132.12L147.876 228.159C148.01 229.187 148.885 229.956 149.922 229.956Z" fill="#EEAA38"/>
<path d="M0 94.0671V113.388C0 114.812 1.15456 115.967 2.57919 115.967H171.225C172.649 115.967 173.804 114.813 173.804 113.388V94.0671C173.804 92.6429 172.649 91.4879 171.225 91.4879H2.57919C1.15456 91.4879 0 92.6425 0 94.0671Z" fill="#62AF60"/>
<path d="M171.225 107.098H2.57919C1.15502 107.098 0 105.943 0 104.518V113.387C0 114.812 1.15456 115.967 2.57919 115.967H171.225C172.649 115.967 173.804 114.812 173.804 113.387V104.518C173.803 105.943 172.649 107.098 171.225 107.098Z" fill="#4B9F49"/>
</svg>
