<svg width="342" height="230" viewBox="0 0 342 230" fill="none" xmlns="http://www.w3.org/2000/svg">
<path d="M265.149 48.5625L269.68 84.8886L265.149 121.215H255.533C251.067 121.215 247.447 117.594 247.447 113.128V56.649C247.447 52.183 251.067 48.5625 255.533 48.5625H265.149Z" fill="#C83A32"/>
<path d="M199.899 82.8949C204.073 74.7501 200.853 64.7644 192.708 60.5913C184.563 56.4182 174.577 59.6379 170.404 67.7828C166.231 75.9277 169.451 85.9134 177.596 90.0865C185.741 94.2596 195.726 91.0398 199.899 82.8949Z" fill="#EEAA38"/>
<path d="M185.169 58.8C183.352 58.8 181.605 59.0968 179.969 59.637C186.573 61.8183 191.34 68.0356 191.34 75.3704C191.34 82.7051 186.573 88.9224 179.969 91.1038C181.605 91.6444 183.352 91.9407 185.169 91.9407C194.321 91.9407 201.739 84.5217 201.739 75.3704C201.74 66.2186 194.321 58.8 185.169 58.8Z" fill="#F19937"/>
<path d="M155.831 43.9302V97.7157H137.337V78.3396C137.337 70.5776 131.044 64.2841 123.282 64.2841C115.519 64.2841 109.232 70.5771 109.232 78.3396V97.7157H90.7378V43.9302L123.284 39.3989L155.831 43.9302Z" fill="#C83A32"/>
<path d="M146.365 43.9302H155.831V97.7157H146.365V43.9302Z" fill="#BF3028"/>
<path d="M124.698 0.593367L163.933 40.5604C165.164 41.8137 164.275 43.9302 162.519 43.9302H84.0497C82.2929 43.9302 81.4048 41.8141 82.6355 40.5604L121.87 0.593367C122.646 -0.197789 123.922 -0.197789 124.698 0.593367Z" fill="#F19937"/>
<path d="M163.932 40.5608L124.698 0.593367C123.921 -0.197789 122.647 -0.197789 121.87 0.593367L117.151 5.40057L151.666 40.5604C152.897 41.8137 152.009 43.9302 150.252 43.9302H162.518C164.275 43.9302 165.163 41.8141 163.932 40.5608Z" fill="#EF8215"/>
<path d="M188.567 161.987L177.952 223.529C177.302 227.294 174.032 229.956 170.339 229.956C169.9 229.956 169.462 229.915 169.013 229.837C164.804 229.115 161.977 225.112 162.704 220.898L172.866 161.987H188.567Z" fill="#187A6A"/>
<path d="M272.965 229.837C272.517 229.915 272.078 229.956 271.639 229.956C267.946 229.956 264.676 227.294 264.026 223.529L253.411 161.987H269.112L279.274 220.898C280.001 225.112 277.174 229.115 272.965 229.837Z" fill="#187A6A"/>
<path d="M265.149 45.2737V158.552H280.624V45.2737C280.624 41.0008 277.159 37.5366 272.886 37.5366C268.614 37.5366 265.149 41.0008 265.149 45.2737Z" fill="#EEAA38"/>
<path d="M154.979 159.232V166.883C154.979 171.033 158.343 174.397 162.492 174.397H279.486C283.636 174.397 287 171.033 287 166.883V159.232C287 155.082 283.636 151.718 279.486 151.718H162.493C158.343 151.718 154.979 155.082 154.979 159.232Z" fill="#62AF60"/>
<path d="M279.486 165.527H162.493C158.549 165.527 155.321 162.487 155.01 158.623C154.994 158.824 154.979 159.026 154.979 159.232V166.883C154.979 171.032 158.343 174.396 162.493 174.396H279.486C283.636 174.396 287 171.032 287 166.883C287 166.883 286.986 158.824 286.969 158.623C286.658 162.487 283.43 165.527 279.486 165.527Z" fill="#4B9F49"/>
<path d="M78.8809 229.956H67.2514C66.0543 229.956 65.1081 228.94 65.1933 227.746L73.8045 106.932H96.6832L80.9267 228.159C80.7935 229.187 79.9176 229.956 78.8809 229.956Z" fill="#EEAA38"/>
<path d="M204.922 229.956H216.552C217.749 229.956 218.695 228.94 218.61 227.746L209.999 106.932H187.12L202.877 228.159C203.01 229.187 203.886 229.956 204.922 229.956Z" fill="#EEAA38"/>
<path d="M55 94.0672V113.388C55 114.812 56.1546 115.967 57.5792 115.967H226.225C227.649 115.967 228.804 114.813 228.804 113.388V94.0672C228.804 92.6431 227.649 91.488 226.225 91.488H57.5792C56.1546 91.488 55 92.6426 55 94.0672Z" fill="#62AF60"/>
<path d="M226.225 107.098H57.5792C56.155 107.098 55 105.943 55 104.519V113.388C55 114.812 56.1546 115.967 57.5792 115.967H226.225C227.649 115.967 228.804 114.812 228.804 113.388V104.519C228.803 105.943 227.649 107.098 226.225 107.098Z" fill="#4B9F49"/>
</svg>
