<svg width="257" height="257" viewBox="0 0 257 257" fill="none" xmlns="http://www.w3.org/2000/svg">
<path d="M248.434 244.15V119.934C248.434 118.798 247.982 117.708 247.179 116.905C246.376 116.102 245.286 115.65 244.15 115.65H12.8502C11.7142 115.65 10.6247 116.102 9.82145 116.905C9.01817 117.708 8.56689 118.798 8.56689 119.934V244.15H248.434Z" fill="#B9C5CC"/>
<path d="M192.75 55.6836C193.886 55.6836 194.976 56.1349 195.779 56.9382C196.582 57.7414 197.033 58.8309 197.033 59.9669V235.584H59.9668V59.9669C59.9668 58.8309 60.4181 57.7414 61.2214 56.9382C62.0246 56.1349 63.1141 55.6836 64.2501 55.6836H192.75Z" fill="#B9C5CC"/>
<path d="M81.3833 171.333H175.617V239.866H81.3833V171.333Z" fill="#B9C5CC"/>
<path d="M98.5166 175.616H158.483V235.583H98.5166V175.616Z" fill="white"/>
<path d="M158.483 218.45C137.067 214.167 128.5 184.184 128.5 184.184V235.584H158.483V218.45Z" fill="white"/>
<path d="M128.5 218.45C107.083 214.167 98.5166 184.184 98.5166 184.184V235.584H128.5V218.45Z" fill="white"/>
<path d="M38.5502 132.783H29.9835C27.6179 132.783 25.7002 134.701 25.7002 137.067V145.633C25.7002 147.999 27.6179 149.917 29.9835 149.917H38.5502C40.9158 149.917 42.8335 147.999 42.8335 145.633V137.067C42.8335 134.701 40.9158 132.783 38.5502 132.783Z" fill="white"/>
<path d="M94.2334 102.8H81.3834C79.0178 102.8 77.1001 104.718 77.1001 107.083V115.65C77.1001 118.015 79.0178 119.933 81.3834 119.933H94.2334C96.5991 119.933 98.5168 118.015 98.5168 115.65V107.083C98.5168 104.718 96.5991 102.8 94.2334 102.8Z" fill="white"/>
<path d="M137.067 102.8H119.933C117.568 102.8 115.65 104.718 115.65 107.083V115.65C115.65 118.015 117.568 119.933 119.933 119.933H137.067C139.432 119.933 141.35 118.015 141.35 115.65V107.083C141.35 104.718 139.432 102.8 137.067 102.8Z" fill="white"/>
<path d="M175.617 102.8H162.767C160.401 102.8 158.483 104.718 158.483 107.083V115.65C158.483 118.015 160.401 119.933 162.767 119.933H175.617C177.982 119.933 179.9 118.015 179.9 115.65V107.083C179.9 104.718 177.982 102.8 175.617 102.8Z" fill="white"/>
<path d="M38.5502 201.316H29.9835C27.6179 201.316 25.7002 203.234 25.7002 205.6V214.166C25.7002 216.532 27.6179 218.45 29.9835 218.45H38.5502C40.9158 218.45 42.8335 216.532 42.8335 214.166V205.6C42.8335 203.234 40.9158 201.316 38.5502 201.316Z" fill="white"/>
<path d="M38.5502 167.05H29.9835C27.6179 167.05 25.7002 168.968 25.7002 171.333V179.9C25.7002 182.265 27.6179 184.183 29.9835 184.183H38.5502C40.9158 184.183 42.8335 182.265 42.8335 179.9V171.333C42.8335 168.968 40.9158 167.05 38.5502 167.05Z" fill="white"/>
<path d="M218.45 149.917H227.017C229.383 149.917 231.3 147.999 231.3 145.634V137.067C231.3 134.701 229.383 132.784 227.017 132.784H218.45C216.085 132.784 214.167 134.701 214.167 137.067V145.634C214.167 147.999 216.085 149.917 218.45 149.917Z" fill="white"/>
<path d="M218.45 218.45H227.017C229.383 218.45 231.3 216.532 231.3 214.167V205.6C231.3 203.235 229.383 201.317 227.017 201.317H218.45C216.085 201.317 214.167 203.235 214.167 205.6V214.167C214.167 216.532 216.085 218.45 218.45 218.45Z" fill="white"/>
<path d="M218.45 184.184H227.017C229.383 184.184 231.3 182.266 231.3 179.9V171.334C231.3 168.968 229.383 167.05 227.017 167.05H218.45C216.085 167.05 214.167 168.968 214.167 171.334V179.9C214.167 182.266 216.085 184.184 218.45 184.184Z" fill="white"/>
<path d="M171.333 4.2832H85.6668C80.9355 4.2832 77.1001 8.11863 77.1001 12.8499V72.8165C77.1001 77.5478 80.9355 81.3832 85.6668 81.3832H171.333C176.065 81.3832 179.9 77.5478 179.9 72.8165V12.8499C179.9 8.11863 176.065 4.2832 171.333 4.2832Z" fill="#009E3D"/>
<path d="M149.917 38.5503V47.117C149.917 48.253 149.466 49.3425 148.662 50.1458C147.859 50.949 146.77 51.4003 145.633 51.4003H137.067V59.967C137.067 61.103 136.616 62.1925 135.812 62.9958C135.009 63.799 133.92 64.2503 132.783 64.2503H124.217C123.081 64.2503 121.991 63.799 121.188 62.9958C120.385 62.1925 119.933 61.103 119.933 59.967V51.4003H111.367C110.231 51.4003 109.141 50.949 108.338 50.1458C107.535 49.3425 107.083 48.253 107.083 47.117V38.5503C107.083 37.4143 107.535 36.3248 108.338 35.5216C109.141 34.7183 110.231 34.267 111.367 34.267H119.933V25.7003C119.933 24.5643 120.385 23.4748 121.188 22.6716C121.991 21.8683 123.081 21.417 124.217 21.417H132.783C133.92 21.417 135.009 21.8683 135.812 22.6716C136.616 23.4748 137.067 24.5643 137.067 25.7003V34.267H145.633C146.77 34.267 147.859 34.7183 148.662 35.5216C149.466 36.3248 149.917 37.4143 149.917 38.5503Z" fill="white"/>
<path d="M175.617 141.35H81.3834C79.0178 141.35 77.1001 143.267 77.1001 145.633V171.333C77.1001 173.699 79.0178 175.616 81.3834 175.616H175.617C177.982 175.616 179.9 173.699 179.9 171.333V145.633C179.9 143.267 177.982 141.35 175.617 141.35Z" fill="#91A3B0"/>
<path d="M248.433 235.583H8.56654C6.20092 235.583 4.2832 237.501 4.2832 239.866V248.433C4.2832 250.799 6.20092 252.716 8.56654 252.716H248.433C250.799 252.716 252.717 250.799 252.717 248.433V239.866C252.717 237.501 250.799 235.583 248.433 235.583Z" fill="#5F7381"/>
<path d="M124.217 175.616H132.783V235.583H124.217V175.616Z" fill="white"/>
</svg>
