<svg width="257" height="257" viewBox="0 0 257 257" fill="none" xmlns="http://www.w3.org/2000/svg">
<path d="M248.433 244.15V119.933C248.433 118.797 247.982 117.708 247.179 116.905C246.376 116.101 245.286 115.65 244.15 115.65H12.85C11.714 115.65 10.6245 116.101 9.82121 116.905C9.01793 117.708 8.56665 118.797 8.56665 119.933V244.15H248.433Z" fill="#B9C5CC"/>
<path d="M192.75 55.6833C193.886 55.6833 194.975 56.1346 195.779 56.9379C196.582 57.7412 197.033 58.8306 197.033 59.9667V235.583H59.9666V59.9667C59.9666 58.8306 60.4178 57.7412 61.2211 56.9379C62.0244 56.1346 63.1139 55.6833 64.2499 55.6833H192.75Z" fill="#B9C5CC"/>
<path d="M81.3833 171.333H175.617V239.867H81.3833V171.333Z" fill="#B9C5CC"/>
<path d="M98.5166 175.617H158.483V235.583H98.5166V175.617Z" fill="white"/>
<path d="M158.483 218.45C137.067 214.167 128.5 184.183 128.5 184.183V235.583H158.483V218.45Z" fill="white"/>
<path d="M128.5 218.45C107.083 214.167 98.5166 184.183 98.5166 184.183V235.583H128.5V218.45Z" fill="white"/>
<path d="M38.55 132.783H29.9833C27.6177 132.783 25.7 134.701 25.7 137.067V145.633C25.7 147.999 27.6177 149.917 29.9833 149.917H38.55C40.9156 149.917 42.8333 147.999 42.8333 145.633V137.067C42.8333 134.701 40.9156 132.783 38.55 132.783Z" fill="white"/>
<path d="M94.2334 102.8H81.3834C79.0178 102.8 77.1001 104.718 77.1001 107.083V115.65C77.1001 118.016 79.0178 119.933 81.3834 119.933H94.2334C96.5991 119.933 98.5168 118.016 98.5168 115.65V107.083C98.5168 104.718 96.5991 102.8 94.2334 102.8Z" fill="white"/>
<path d="M137.067 102.8H119.933C117.568 102.8 115.65 104.718 115.65 107.083V115.65C115.65 118.016 117.568 119.933 119.933 119.933H137.067C139.432 119.933 141.35 118.016 141.35 115.65V107.083C141.35 104.718 139.432 102.8 137.067 102.8Z" fill="white"/>
<path d="M175.617 102.8H162.767C160.401 102.8 158.483 104.718 158.483 107.083V115.65C158.483 118.016 160.401 119.933 162.767 119.933H175.617C177.982 119.933 179.9 118.016 179.9 115.65V107.083C179.9 104.718 177.982 102.8 175.617 102.8Z" fill="white"/>
<path d="M38.55 201.317H29.9833C27.6177 201.317 25.7 203.234 25.7 205.6V214.167C25.7 216.532 27.6177 218.45 29.9833 218.45H38.55C40.9156 218.45 42.8333 216.532 42.8333 214.167V205.6C42.8333 203.234 40.9156 201.317 38.55 201.317Z" fill="white"/>
<path d="M38.55 167.05H29.9833C27.6177 167.05 25.7 168.968 25.7 171.333V179.9C25.7 182.266 27.6177 184.183 29.9833 184.183H38.55C40.9156 184.183 42.8333 182.266 42.8333 179.9V171.333C42.8333 168.968 40.9156 167.05 38.55 167.05Z" fill="white"/>
<path d="M218.45 149.917H227.017C229.382 149.917 231.3 147.999 231.3 145.633V137.067C231.3 134.701 229.382 132.783 227.017 132.783H218.45C216.084 132.783 214.167 134.701 214.167 137.067V145.633C214.167 147.999 216.084 149.917 218.45 149.917Z" fill="white"/>
<path d="M218.45 218.45H227.017C229.382 218.45 231.3 216.532 231.3 214.167V205.6C231.3 203.234 229.382 201.317 227.017 201.317H218.45C216.084 201.317 214.167 203.234 214.167 205.6V214.167C214.167 216.532 216.084 218.45 218.45 218.45Z" fill="white"/>
<path d="M218.45 184.183H227.017C229.382 184.183 231.3 182.266 231.3 179.9V171.333C231.3 168.968 229.382 167.05 227.017 167.05H218.45C216.084 167.05 214.167 168.968 214.167 171.333V179.9C214.167 182.266 216.084 184.183 218.45 184.183Z" fill="white"/>
<path d="M171.333 4.28333H85.6668C80.9355 4.28333 77.1001 8.11875 77.1001 12.85V72.8167C77.1001 77.5479 80.9355 81.3833 85.6668 81.3833H171.333C176.065 81.3833 179.9 77.5479 179.9 72.8167V12.85C179.9 8.11875 176.065 4.28333 171.333 4.28333Z" fill="#009E3D"/>
<path d="M149.917 38.55V47.1167C149.917 48.2527 149.465 49.3422 148.662 50.1455C147.859 50.9487 146.769 51.4 145.633 51.4H137.067V59.9667C137.067 61.1027 136.615 62.1922 135.812 62.9955C135.009 63.7987 133.919 64.25 132.783 64.25H124.217C123.081 64.25 121.991 63.7987 121.188 62.9955C120.385 62.1922 119.933 61.1027 119.933 59.9667V51.4H111.367C110.231 51.4 109.141 50.9487 108.338 50.1455C107.535 49.3422 107.083 48.2527 107.083 47.1167V38.55C107.083 37.414 107.535 36.3245 108.338 35.5212C109.141 34.718 110.231 34.2667 111.367 34.2667H119.933V25.7C119.933 24.564 120.385 23.4745 121.188 22.6712C121.991 21.868 123.081 21.4167 124.217 21.4167H132.783C133.919 21.4167 135.009 21.868 135.812 22.6712C136.615 23.4745 137.067 24.564 137.067 25.7V34.2667H145.633C146.769 34.2667 147.859 34.718 148.662 35.5212C149.465 36.3245 149.917 37.414 149.917 38.55Z" fill="white"/>
<path d="M175.617 141.35H81.3834C79.0178 141.35 77.1001 143.268 77.1001 145.633V171.333C77.1001 173.699 79.0178 175.617 81.3834 175.617H175.617C177.982 175.617 179.9 173.699 179.9 171.333V145.633C179.9 143.268 177.982 141.35 175.617 141.35Z" fill="#91A3B0"/>
<path d="M248.433 235.583H8.56678C6.20116 235.583 4.28345 237.501 4.28345 239.867V248.433C4.28345 250.799 6.20116 252.717 8.56678 252.717H248.433C250.799 252.717 252.717 250.799 252.717 248.433V239.867C252.717 237.501 250.799 235.583 248.433 235.583Z" fill="#5F7381"/>
<path d="M124.217 175.617H132.783V235.583H124.217V175.617Z" fill="white"/>
</svg>
