<svg width="2756" height="2756" viewBox="0 0 2756 2756" fill="none" xmlns="http://www.w3.org/2000/svg">
<path d="M2664.13 2618.2V1286.13C2664.13 1273.95 2659.29 1262.27 2650.68 1253.65C2642.07 1245.04 2630.38 1240.2 2618.2 1240.2H137.8C125.618 1240.2 113.934 1245.04 105.32 1253.65C96.7061 1262.27 91.8667 1273.95 91.8667 1286.13V2618.2H2664.13Z" fill="#009E3D"/>
<path d="M2067 597.133C2079.18 597.133 2090.87 601.973 2099.48 610.587C2108.09 619.201 2112.93 630.884 2112.93 643.067V2526.33H643.067V643.067C643.067 630.884 647.906 619.201 656.52 610.587C665.134 601.973 676.818 597.133 689 597.133H2067Z" fill="#009E3D"/>
<path d="M872.733 1837.33H1883.27V2572.27H872.733V1837.33Z" fill="#009E3D"/>
<path d="M1056.47 1883.27H1699.53V2526.33H1056.47V1883.27Z" fill="white"/>
<path d="M1699.53 2342.6C1469.87 2296.67 1378 1975.13 1378 1975.13V2526.33H1699.53V2342.6Z" fill="white"/>
<path d="M1378 2342.6C1148.33 2296.67 1056.47 1975.13 1056.47 1975.13V2526.33H1378V2342.6Z" fill="white"/>
<path d="M413.4 1423.93H321.533C296.165 1423.93 275.6 1444.5 275.6 1469.87V1561.73C275.6 1587.1 296.165 1607.67 321.533 1607.67H413.4C438.768 1607.67 459.333 1587.1 459.333 1561.73V1469.87C459.333 1444.5 438.768 1423.93 413.4 1423.93Z" fill="white"/>
<path d="M1010.53 1102.4H872.733C847.365 1102.4 826.8 1122.97 826.8 1148.33V1240.2C826.8 1265.57 847.365 1286.13 872.733 1286.13H1010.53C1035.9 1286.13 1056.47 1265.57 1056.47 1240.2V1148.33C1056.47 1122.97 1035.9 1102.4 1010.53 1102.4Z" fill="white"/>
<path d="M1469.87 1102.4H1286.13C1260.77 1102.4 1240.2 1122.97 1240.2 1148.33V1240.2C1240.2 1265.57 1260.77 1286.13 1286.13 1286.13H1469.87C1495.24 1286.13 1515.8 1265.57 1515.8 1240.2V1148.33C1515.8 1122.97 1495.24 1102.4 1469.87 1102.4Z" fill="white"/>
<path d="M1883.27 1102.4H1745.47C1720.1 1102.4 1699.53 1122.97 1699.53 1148.33V1240.2C1699.53 1265.57 1720.1 1286.13 1745.47 1286.13H1883.27C1908.63 1286.13 1929.2 1265.57 1929.2 1240.2V1148.33C1929.2 1122.97 1908.63 1102.4 1883.27 1102.4Z" fill="white"/>
<path d="M413.4 2158.87H321.533C296.165 2158.87 275.6 2179.43 275.6 2204.8V2296.67C275.6 2322.04 296.165 2342.6 321.533 2342.6H413.4C438.768 2342.6 459.333 2322.04 459.333 2296.67V2204.8C459.333 2179.43 438.768 2158.87 413.4 2158.87Z" fill="white"/>
<path d="M413.4 1791.4H321.533C296.165 1791.4 275.6 1811.97 275.6 1837.33V1929.2C275.6 1954.57 296.165 1975.13 321.533 1975.13H413.4C438.768 1975.13 459.333 1954.57 459.333 1929.2V1837.33C459.333 1811.97 438.768 1791.4 413.4 1791.4Z" fill="white"/>
<path d="M2342.6 1607.67H2434.47C2459.83 1607.67 2480.4 1587.1 2480.4 1561.73V1469.87C2480.4 1444.5 2459.83 1423.93 2434.47 1423.93H2342.6C2317.23 1423.93 2296.67 1444.5 2296.67 1469.87V1561.73C2296.67 1587.1 2317.23 1607.67 2342.6 1607.67Z" fill="white"/>
<path d="M2342.6 2342.6H2434.47C2459.83 2342.6 2480.4 2322.04 2480.4 2296.67V2204.8C2480.4 2179.43 2459.83 2158.87 2434.47 2158.87H2342.6C2317.23 2158.87 2296.67 2179.43 2296.67 2204.8V2296.67C2296.67 2322.04 2317.23 2342.6 2342.6 2342.6Z" fill="white"/>
<path d="M2342.6 1975.13H2434.47C2459.83 1975.13 2480.4 1954.57 2480.4 1929.2V1837.33C2480.4 1811.96 2459.83 1791.4 2434.47 1791.4H2342.6C2317.23 1791.4 2296.67 1811.96 2296.67 1837.33V1929.2C2296.67 1954.57 2317.23 1975.13 2342.6 1975.13Z" fill="white"/>
<path d="M1837.33 45.9333H918.667C867.93 45.9333 826.8 87.0634 826.8 137.8V780.867C826.8 831.603 867.93 872.733 918.667 872.733H1837.33C1888.07 872.733 1929.2 831.603 1929.2 780.867V137.8C1929.2 87.0634 1888.07 45.9333 1837.33 45.9333Z" fill="#EEAA38"/>
<path d="M1607.67 413.4V505.267C1607.67 517.449 1602.83 529.132 1594.21 537.746C1585.6 546.361 1573.92 551.2 1561.73 551.2H1469.87V643.067C1469.87 655.249 1465.03 666.932 1456.41 675.546C1447.8 684.161 1436.12 689 1423.93 689H1332.07C1319.88 689 1308.2 684.161 1299.59 675.546C1290.97 666.932 1286.13 655.249 1286.13 643.067V551.2H1194.27C1182.08 551.2 1170.4 546.361 1161.79 537.746C1153.17 529.132 1148.33 517.449 1148.33 505.267V413.4C1148.33 401.218 1153.17 389.534 1161.79 380.92C1170.4 372.306 1182.08 367.467 1194.27 367.467H1286.13V275.6C1286.13 263.418 1290.97 251.734 1299.59 243.12C1308.2 234.506 1319.88 229.667 1332.07 229.667H1423.93C1436.12 229.667 1447.8 234.506 1456.41 243.12C1465.03 251.734 1469.87 263.418 1469.87 275.6V367.467H1561.73C1573.92 367.467 1585.6 372.306 1594.21 380.92C1602.83 389.534 1607.67 401.218 1607.67 413.4Z" fill="white"/>
<path d="M1883.27 1515.8H872.733C847.365 1515.8 826.8 1536.37 826.8 1561.73V1837.33C826.8 1862.7 847.365 1883.27 872.733 1883.27H1883.27C1908.64 1883.27 1929.2 1862.7 1929.2 1837.33V1561.73C1929.2 1536.37 1908.64 1515.8 1883.27 1515.8Z" fill="#EEAA38"/>
<path d="M2664.13 2526.33H91.8667C66.4984 2526.33 45.9333 2546.9 45.9333 2572.27V2664.13C45.9333 2689.5 66.4984 2710.07 91.8667 2710.07H2664.13C2689.5 2710.07 2710.07 2689.5 2710.07 2664.13V2572.27C2710.07 2546.9 2689.5 2526.33 2664.13 2526.33Z" fill="#00362E"/>
<path d="M1332.07 1883.27H1423.93V2526.33H1332.07V1883.27Z" fill="white"/>
</svg>
