<svg width="257" height="257" viewBox="0 0 257 257" fill="none" xmlns="http://www.w3.org/2000/svg">
<path d="M248.433 244.15V119.933C248.433 118.797 247.982 117.708 247.179 116.904C246.375 116.101 245.286 115.65 244.15 115.65H12.8497C11.7137 115.65 10.6242 116.101 9.82097 116.904C9.01768 117.708 8.56641 118.797 8.56641 119.933V244.15H248.433Z" fill="#CAD0D7"/>
<path d="M192.75 55.6831C193.886 55.6831 194.976 56.1344 195.779 56.9377C196.582 57.7409 197.033 58.8304 197.033 59.9664V235.583H59.9668V59.9664C59.9668 58.8304 60.4181 57.7409 61.2214 56.9377C62.0246 56.1344 63.1141 55.6831 64.2501 55.6831H192.75Z" fill="#E4E8EB"/>
<path d="M81.3828 171.333H175.616V239.867H81.3828V171.333Z" fill="#CAD0D7"/>
<path d="M98.5176 175.617H158.484V235.583H98.5176V175.617Z" fill="#4FC0E8"/>
<path d="M158.483 218.45C137.067 214.167 128.5 184.184 128.5 184.184V235.584H158.483V218.45Z" fill="#66D4F1"/>
<path d="M128.501 218.45C107.084 214.167 98.5176 184.184 98.5176 184.184V235.584H128.501V218.45Z" fill="#66D4F1"/>
<path d="M38.5492 132.783H29.9826C27.6169 132.783 25.6992 134.701 25.6992 137.067V145.633C25.6992 147.999 27.6169 149.917 29.9826 149.917H38.5492C40.9148 149.917 42.8326 147.999 42.8326 145.633V137.067C42.8326 134.701 40.9148 132.783 38.5492 132.783Z" fill="#3AADD9"/>
<path d="M94.2329 102.8H81.3829C79.0173 102.8 77.0996 104.718 77.0996 107.083V115.65C77.0996 118.015 79.0173 119.933 81.3829 119.933H94.2329C96.5986 119.933 98.5163 118.015 98.5163 115.65V107.083C98.5163 104.718 96.5986 102.8 94.2329 102.8Z" fill="#4FC0E8"/>
<path d="M137.067 102.8H119.934C117.568 102.8 115.65 104.718 115.65 107.083V115.65C115.65 118.015 117.568 119.933 119.934 119.933H137.067C139.433 119.933 141.35 118.015 141.35 115.65V107.083C141.35 104.718 139.433 102.8 137.067 102.8Z" fill="#4FC0E8"/>
<path d="M175.616 102.8H162.766C160.4 102.8 158.482 104.718 158.482 107.083V115.65C158.482 118.015 160.4 119.933 162.766 119.933H175.616C177.981 119.933 179.899 118.015 179.899 115.65V107.083C179.899 104.718 177.981 102.8 175.616 102.8Z" fill="#4FC0E8"/>
<path d="M38.5492 201.316H29.9826C27.6169 201.316 25.6992 203.234 25.6992 205.6V214.166C25.6992 216.532 27.6169 218.45 29.9826 218.45H38.5492C40.9148 218.45 42.8326 216.532 42.8326 214.166V205.6C42.8326 203.234 40.9148 201.316 38.5492 201.316Z" fill="#3AADD9"/>
<path d="M38.5492 167.05H29.9826C27.6169 167.05 25.6992 168.968 25.6992 171.333V179.9C25.6992 182.265 27.6169 184.183 29.9826 184.183H38.5492C40.9148 184.183 42.8326 182.265 42.8326 179.9V171.333C42.8326 168.968 40.9148 167.05 38.5492 167.05Z" fill="#3AADD9"/>
<path d="M218.449 149.917H227.015C229.381 149.917 231.299 147.999 231.299 145.633V137.067C231.299 134.701 229.381 132.783 227.015 132.783H218.449C216.083 132.783 214.165 134.701 214.165 137.067V145.633C214.165 147.999 216.083 149.917 218.449 149.917Z" fill="#3AADD9"/>
<path d="M218.449 218.45H227.015C229.381 218.45 231.299 216.532 231.299 214.166V205.6C231.299 203.234 229.381 201.316 227.015 201.316H218.449C216.083 201.316 214.165 203.234 214.165 205.6V214.166C214.165 216.532 216.083 218.45 218.449 218.45Z" fill="#3AADD9"/>
<path d="M218.449 184.183H227.015C229.381 184.183 231.299 182.265 231.299 179.9V171.333C231.299 168.967 229.381 167.05 227.015 167.05H218.449C216.083 167.05 214.165 168.967 214.165 171.333V179.9C214.165 182.265 216.083 184.183 218.449 184.183Z" fill="#3AADD9"/>
<path d="M171.333 4.2832H85.6663C80.935 4.2832 77.0996 8.11863 77.0996 12.8499V72.8165C77.0996 77.5478 80.935 81.3832 85.6663 81.3832H171.333C176.064 81.3832 179.9 77.5478 179.9 72.8165V12.8499C179.9 8.11863 176.064 4.2832 171.333 4.2832Z" fill="#F76C82"/>
<path d="M149.917 38.5498V47.1165C149.917 48.2525 149.466 49.342 148.663 50.1453C147.859 50.9486 146.77 51.3998 145.634 51.3998H137.067V59.9665C137.067 61.1025 136.616 62.192 135.813 62.9953C135.009 63.7986 133.92 64.2498 132.784 64.2498H124.217C123.081 64.2498 121.992 63.7986 121.189 62.9953C120.385 62.192 119.934 61.1025 119.934 59.9665V51.3998H111.367C110.231 51.3998 109.142 50.9486 108.339 50.1453C107.535 49.342 107.084 48.2525 107.084 47.1165V38.5498C107.084 37.4138 107.535 36.3243 108.339 35.5211C109.142 34.7178 110.231 34.2665 111.367 34.2665H119.934V25.6998C119.934 24.5638 120.385 23.4743 121.189 22.6711C121.992 21.8678 123.081 21.4165 124.217 21.4165H132.784C133.92 21.4165 135.009 21.8678 135.813 22.6711C136.616 23.4743 137.067 24.5638 137.067 25.6998V34.2665H145.634C146.77 34.2665 147.859 34.7178 148.663 35.5211C149.466 36.3243 149.917 37.4138 149.917 38.5498Z" fill="white"/>
<path d="M175.616 141.35H81.3829C79.0173 141.35 77.0996 143.268 77.0996 145.633V171.333C77.0996 173.699 79.0173 175.617 81.3829 175.617H175.616C177.982 175.617 179.9 173.699 179.9 171.333V145.633C179.9 143.268 177.982 141.35 175.616 141.35Z" fill="#A9B0BB"/>
<path d="M248.433 235.583H8.56654C6.20092 235.583 4.2832 237.501 4.2832 239.867V248.433C4.2832 250.799 6.20092 252.717 8.56654 252.717H248.433C250.799 252.717 252.717 250.799 252.717 248.433V239.867C252.717 237.501 250.799 235.583 248.433 235.583Z" fill="#636C77"/>
<path d="M124.217 175.617H132.783V235.583H124.217V175.617Z" fill="#3AADD9"/>
</svg>
