<svg width="329" height="329" viewBox="0 0 329 329" fill="none" xmlns="http://www.w3.org/2000/svg">
<g clip-path="url(#clip0_1655_11960)">
<path d="M79.8882 19.7744C48.8938 31.0547 21.4511 45.8917 -0.642578 62.3679L32.6034 153.712C49.6493 200.543 101.435 224.687 148.268 207.641C195.088 190.6 219.238 138.817 202.192 91.9867L168.946 0.642578C141.43 2.22142 110.878 8.4941 79.8882 19.7744ZM39.4684 117.037C40.4449 106.457 46.5268 96.5526 56.5821 91.1459C66.6375 85.7392 78.2541 86.1232 87.6142 91.1434C86.6428 101.716 80.5609 111.618 70.508 117.032C60.4477 122.442 48.826 122.052 39.4684 117.037ZM127.391 150.602C109.987 156.937 95.5134 167.756 84.8054 181.283C77.968 156.119 91.4546 129.492 116.402 120.411C141.347 111.332 168.793 123.061 179.736 146.732C162.831 143.253 144.791 144.269 127.391 150.602ZM149.585 88.2492C138.401 90.566 127.374 86.8888 119.834 79.4163C123.777 69.5542 132.432 61.793 143.609 59.4712C154.786 57.1494 165.811 60.8267 173.358 68.3042C169.415 78.1613 160.763 85.9274 149.585 88.2492Z" fill="#EEAA38"/>
<path d="M147.67 207.852C100.998 224.488 49.579 200.346 32.6034 153.712L-0.642578 62.3675C10.1809 54.2951 22.2819 46.6193 35.4674 39.5635L54.6494 92.2701C45.7512 97.86 40.3821 107.152 39.4684 117.037C47.0313 121.086 56.0625 122.117 64.5667 119.514L71.8183 139.439C75.0488 148.315 78.8967 156.603 83.1889 164.149C83.1839 164.151 83.1839 164.151 83.1914 164.154C82.7522 169.794 83.2517 175.574 84.8079 181.282C86.4796 179.169 88.2417 177.123 90.0992 175.145C107.552 200.233 129.816 213.878 147.67 207.852Z" fill="#C88413"/>
<path d="M247.84 136.103C216.85 124.823 186.29 118.548 158.775 116.969L125.529 208.313C108.483 255.146 132.627 306.924 179.46 323.97C226.286 341.013 278.066 316.869 295.109 270.036L328.358 178.692C306.264 162.215 278.827 147.381 247.84 136.103ZM157.053 177.238C166.413 172.218 178.029 171.837 188.085 177.243C198.14 182.647 204.222 192.552 205.196 203.132C195.838 208.147 184.219 208.536 174.166 203.13C164.106 197.715 158.024 187.811 157.053 177.238ZM191.82 289.702C161.463 278.653 145.062 246.263 153.378 215.647C166.405 232.103 184.013 245.266 205.186 252.972C226.356 260.678 248.309 261.916 268.867 257.684C255.558 286.479 222.167 300.746 191.82 289.702ZM261.186 234.802C250.008 232.48 241.356 224.714 237.41 214.857C244.958 207.379 255.985 203.704 267.162 206.024C278.34 208.346 286.994 216.107 290.938 225.969C283.397 233.444 272.371 237.119 261.186 234.802Z" fill="#009E3D"/>
<path d="M178.875 323.749C132.429 306.492 108.556 254.95 125.529 208.313L158.775 116.969C172.256 117.744 186.458 119.639 201.095 122.712L182.151 174.761C173.654 172.155 164.616 173.184 157.053 177.241C157.961 187.115 163.33 196.408 172.234 202.005L164.744 222.585C164.247 223.951 163.77 225.316 163.31 226.677C159.749 223.203 156.438 219.513 153.378 215.65C149.59 229.593 150.928 243.901 156.375 256.393C152.115 289.228 160.316 316.492 178.875 323.749Z" fill="#005D31"/>
</g>
<defs>
<clipPath id="clip0_1655_11960">
<rect width="329" height="329" fill="white"/>
</clipPath>
</defs>
</svg>
