<svg width="513" height="513" viewBox="0 0 513 513" fill="none" xmlns="http://www.w3.org/2000/svg">
<g clip-path="url(#clip0_204_169)">
<path d="M350.182 209.552L358.836 183.167C358.836 183.167 374.063 179.138 382.093 194.748C390.123 210.358 369.109 242.431 350.981 245.126C345.956 232.916 350.182 209.552 350.182 209.552Z" fill="#FFDBBD"/>
<path d="M159.557 209.552L150.903 183.167C150.903 183.167 135.677 179.138 127.646 194.748C119.616 210.359 140.63 242.431 158.758 245.126C163.784 232.916 159.557 209.552 159.557 209.552Z" fill="#FFDBBD"/>
<path d="M455.401 462.94C455.401 462.94 451.285 447.162 447.169 432.069C435.507 384.735 420.757 381.305 402.235 376.16C383.713 371.015 323.001 351.464 307.566 348.377H205.433C189.998 351.464 129.287 371.015 110.764 376.16C92.2423 381.305 77.4935 384.735 65.8317 432.069C61.7157 447.162 57.5996 462.94 57.5996 462.94C57.5996 462.94 99.8683 511.6 251.098 512.986C252.48 513.005 260.522 513.005 261.902 512.986C413.132 511.6 455.401 462.94 455.401 462.94Z" fill="#F4F4F4"/>
<path d="M310.375 335.262C304.303 319.795 302.906 303.13 302.906 303.13H209.433C209.433 303.13 208.037 319.795 201.964 335.262C207.117 344.839 251.509 369.624 255.757 373.523H256.181C260.429 369.624 305.223 344.839 310.375 335.262Z" fill="#FFDBBD"/>
<path d="M304.785 315.378C303.381 308.22 302.953 303.13 302.953 303.13H209.479C209.479 303.13 208.953 309.379 207.155 317.772C215.669 324.776 236.996 340.432 257.575 340.432C278.5 340.432 297.646 322.806 304.785 315.378Z" fill="#EABEA0"/>
<path d="M255.357 80.3545L255.354 80.3494C255.282 80.3494 254.984 80.3494 254.912 80.3494L254.909 80.3545C217.693 80.5757 139.894 108.848 149.215 203.144C154.241 257.208 192.875 329.696 254.903 330.047C254.906 330.049 254.908 330.052 254.911 330.055H255.353C255.356 330.052 255.358 330.05 255.361 330.047C317.389 329.696 356.024 257.208 361.05 203.144C370.373 108.848 292.573 80.5757 255.357 80.3545Z" fill="#FFDBBD"/>
<path d="M154.394 230.955C156.643 200.668 160.023 158.554 201.964 152.895C243.906 147.235 291.316 122.883 297.413 107.618C298.957 123.053 310.276 147.749 328.284 164.214C346.291 180.678 356.716 193.766 355.878 230.955C359.811 212.874 376.473 166.272 348.52 122.024C320.567 77.7768 245.449 47.9354 180.107 99.9005C160.04 118.937 132.798 169.584 154.394 230.955Z" fill="#293339"/>
<path d="M276.221 388.261C276.221 388.261 259.047 373.26 256.292 373.26L256.288 373.267L256.284 373.26C253.53 373.26 236.356 388.261 236.356 388.261L232.975 404.421C232.975 404.421 245.052 423.914 256.284 423.914C256.286 423.913 256.288 423.91 256.288 423.91C256.288 423.91 256.29 423.913 256.292 423.914C267.525 423.914 279.602 404.421 279.602 404.421L276.221 388.261Z" fill="#EEAA38"/>
<path d="M256.285 413.201H256.281H256.277C248.907 413.203 244.595 414.861 243.661 419.413C242.909 423.08 225.331 486.933 218.521 511.637C228.776 512.245 239.618 512.625 251.099 512.73C252.481 512.751 260.523 512.751 261.904 512.73C272.642 512.633 282.812 512.288 292.475 511.748C286.665 489.19 269.681 423.193 268.907 419.422C267.974 414.87 263.654 413.205 256.285 413.201Z" fill="#EEAA38"/>
<path d="M202.605 333.456L186.194 353.453L223.185 417.578L256.284 373.33L202.605 333.456Z" fill="white"/>
<path d="M310.199 333.456L326.609 353.453L289.619 417.578L256.412 373.33L310.199 333.456Z" fill="white"/>
<path d="M447.168 432.069C435.507 384.735 420.757 381.305 402.235 376.16C390.756 372.971 363.082 364.253 340.015 357.347C327.867 382.586 296.096 440.845 256.507 453.212C256.504 453.227 256.502 453.241 256.499 453.256C256.478 453.249 256.459 453.242 256.439 453.235C256.419 453.241 256.399 453.248 256.378 453.256C256.375 453.241 256.373 453.227 256.37 453.212C216.797 440.85 185.036 382.635 172.877 357.378C149.832 364.279 122.224 372.975 110.763 376.159C92.2409 381.304 77.4921 384.734 65.8293 432.068C61.7132 447.161 57.5972 462.939 57.5972 462.939C57.5972 462.939 99.8658 511.6 251.095 512.985C252.477 513.005 260.519 513.005 261.9 512.985C413.13 511.6 455.398 462.939 455.398 462.939C455.398 462.939 451.284 447.162 447.168 432.069Z" fill="#293339"/>
<path d="M406.24 436.738C406.125 449.07 404.937 480.953 402.236 492.545C406.216 491.12 408.746 490.17 408.746 490.17C409.49 480.771 411.343 458.802 406.24 436.738Z" fill="#293339"/>
<path d="M106.486 436.738C106.6 449.07 107.788 480.953 110.489 492.545C106.509 491.12 103.979 490.17 103.979 490.17C103.235 480.771 101.382 458.802 106.486 436.738Z" fill="#293339"/>
<path d="M90.9937 69.8667H98.2842V159.033H90.9937V69.8667Z" fill="#EEAA38"/>
<path d="M108.378 163.799C108.378 156.211 102.226 150.06 94.6383 150.06C87.0504 150.06 80.8989 156.211 80.8989 163.799V259.82H108.378V163.799Z" fill="#EEAA38"/>
<path d="M94.6385 143.811C102.467 143.811 108.813 137.239 108.813 129.13C108.813 121.022 102.467 114.45 94.6385 114.45C86.8101 114.45 80.4639 121.022 80.4639 129.13C80.4639 137.239 86.8101 143.811 94.6385 143.811Z" fill="#EEAA38"/>
<path d="M256.371 125.898L451.377 64.2586L256.278 0L61.1782 64.2586L256.184 125.898L256.222 125.946L256.278 125.928L256.333 125.946L256.371 125.898Z" fill="#293339"/>
<path d="M257.058 45.3804C257.021 45.3804 256.985 45.3783 256.948 45.3783C256.929 45.3783 256.912 45.3783 256.894 45.3783C256.877 45.3783 256.858 45.3783 256.841 45.3783C256.804 45.3783 256.768 45.3793 256.731 45.3804C210.892 45.4133 174.655 55.8721 149.971 71.5491V148.564C149.971 148.564 196.198 129.903 256.802 152.996C256.815 153.015 256.827 153.032 256.841 153.051C256.859 153.044 256.877 153.038 256.894 153.031C256.913 153.039 256.93 153.045 256.948 153.051C256.961 153.032 256.973 153.015 256.987 152.996C317.591 129.903 363.818 148.564 363.818 148.564V71.5491C339.135 55.8721 302.897 45.4143 257.058 45.3804Z" fill="#293339"/>
</g>
<defs>
<clipPath id="clip0_204_169">
<rect width="513" height="513" fill="white"/>
</clipPath>
</defs>
</svg>
