<svg width="289" height="256" viewBox="0 0 289 256" fill="none" xmlns="http://www.w3.org/2000/svg">
<path d="M111.485 191.953C90.2318 217.145 59.481 230.584 28.4089 230.584H14.1113V179.783H32.8173C47.081 179.783 60.69 173.822 70.3591 163.386L111.485 191.953Z" fill="#5F7381"/>
<path d="M8.4668 152.972C3.79087 152.972 0 156.763 0 161.438V247.235C0 251.911 3.79087 255.702 8.4668 255.702C13.1427 255.702 16.9336 251.911 16.9336 247.235V161.438C16.9336 156.763 13.1427 152.972 8.4668 152.972Z" fill="#B9C5CC"/>
<path d="M146.843 172.936L129.915 197.784C127.262 201.684 121.945 202.655 118.089 199.974L62.5358 161.393C58.6806 158.712 57.7379 153.401 60.4417 149.562L78.3969 124.055L146.843 172.936Z" fill="#5F7381"/>
<path d="M287.121 162.63L247.361 211.895C244.532 215.405 239.458 216.065 235.829 213.453C199.675 187.429 201.935 189.234 200.878 187.861L265.124 136.535L285.309 150.319C289.379 153.095 290.232 158.773 287.121 162.63Z" fill="#5F7381"/>
<path d="M287.12 162.63L264.875 190.192L232.109 166.525L229.732 164.809L265.124 136.535L267.562 138.2L285.308 150.319C289.378 153.096 290.231 158.775 287.12 162.63Z" fill="#5F7381"/>
<path d="M272.161 120.783L109.357 3.21059C102.045 -2.07157 91.8913 -0.698815 86.2422 6.33314L32.7372 72.9307C26.6524 80.5063 28.1882 91.6683 36.0973 97.3168L180.129 200.174C183.207 202.372 187.375 202.264 190.335 199.899L272.489 134.263C276.855 130.775 276.704 124.063 272.161 120.783Z" fill="#B9C5CC"/>
<path d="M272.489 134.26L267.561 138.2L232.108 166.524L229.732 164.808L58.3525 41.0461L86.2422 6.33227C91.8923 -0.700817 102.041 -2.07244 109.357 3.21084L272.162 120.781C276.7 124.066 276.852 130.777 272.489 134.26Z" fill="#91A3B0"/>
<path d="M212.234 135.756C216.91 135.756 220.701 131.965 220.701 127.289C220.701 122.613 216.91 118.822 212.234 118.822C207.558 118.822 203.768 122.613 203.768 127.289C203.768 131.965 207.558 135.756 212.234 135.756Z" fill="#C83A32"/>
</svg>
