<svg width="289" height="256" viewBox="0 0 289 256" fill="none" xmlns="http://www.w3.org/2000/svg">
<path d="M111.485 191.953C90.2318 217.146 59.481 230.584 28.4089 230.584H14.1113V179.784H32.8173C47.081 179.784 60.69 173.823 70.3591 163.386L111.485 191.953Z" fill="#7BC0EB"/>
<path d="M8.4668 152.972C3.79087 152.972 0 156.763 0 161.439V247.236C0 251.912 3.79087 255.703 8.4668 255.703C13.1427 255.703 16.9336 251.912 16.9336 247.236V161.439C16.9336 156.763 13.1427 152.972 8.4668 152.972Z" fill="#E0F4FE"/>
<path d="M146.843 172.937L129.915 197.784C127.262 201.684 121.945 202.655 118.089 199.974L62.5358 161.394C58.6806 158.713 57.7379 153.401 60.4417 149.563L78.3969 124.055L146.843 172.937Z" fill="#7C90A6"/>
<path d="M287.122 162.63L247.362 211.895C244.533 215.405 239.459 216.065 235.83 213.453C199.675 187.429 201.936 189.234 200.879 187.861L265.125 136.535L285.31 150.319C289.38 153.095 290.233 158.773 287.122 162.63Z" fill="#7C90A6"/>
<path d="M287.12 162.63L264.875 190.192L232.109 166.525L229.732 164.809L265.124 136.535L267.562 138.2L285.308 150.319C289.378 153.096 290.231 158.775 287.12 162.63Z" fill="#535858"/>
<path d="M272.161 120.783L109.357 3.21059C102.045 -2.07157 91.8913 -0.698815 86.2422 6.33314L32.7372 72.9307C26.6524 80.5063 28.1882 91.6683 36.0974 97.3168L180.129 200.174C183.207 202.372 187.375 202.264 190.335 199.899L272.489 134.263C276.855 130.775 276.704 124.063 272.161 120.783Z" fill="#E0F4FE"/>
<path d="M272.49 134.26L267.562 138.2L232.109 166.524L229.733 164.808L58.3535 41.0461L86.2431 6.33227C91.8933 -0.700817 102.042 -2.07244 109.358 3.21084L272.163 120.781C276.701 124.066 276.853 130.777 272.49 134.26Z" fill="#7BC0EB"/>
<path d="M212.234 135.756C216.91 135.756 220.701 131.965 220.701 127.289C220.701 122.613 216.91 118.822 212.234 118.822C207.558 118.822 203.768 122.613 203.768 127.289C203.768 131.965 207.558 135.756 212.234 135.756Z" fill="#FF4343"/>
</svg>
