<svg width="223" height="290" viewBox="0 0 223 290" fill="none" xmlns="http://www.w3.org/2000/svg">
<path d="M108.083 85.459L109.887 85.6321L110.071 85.0928L110.608 84.4651L110.457 82.9561L108.714 83.954L107.932 83.9661L108.064 85.4188L108.083 85.459Z" fill="#0A170A"/>
<path d="M52.6636 107.932L53.4448 108.578L53.212 109.191L53.5575 109.867L54.0157 113.239L53.4899 114.476L53.1218 116.684L54.5415 119.092L54.8195 120.111L54.9922 122.944L54.7706 124.381L55.304 126.63L55.2025 130.674L55.1011 131.183L52.4571 134.991L52.4909 135.955L52.1716 136.904L52.3481 138.359L52.1153 138.895L52.3857 139.711L52.3519 141.051L52.2467 141.55L51.7021 141.923L52.0176 142.477L51.6646 142.987L51.3641 143.492L50.4665 143.197V143.496L49.9482 143.777L50.0759 144.552L50.6656 143.792L51.6233 144.131L51.1538 144.948L49.813 145.668L50.0233 146L49.7191 146.447L50.0909 146.58L50.0233 146.99L49.674 147.178L49.9031 147.333L48.8365 147.88L48.9153 148.515L48.7088 148.718L48.8252 148.851L49.6552 148.242L49.5426 148.607L48.7989 149.797L48.0064 149.856L47.567 149.15L46.3426 149.106L46.8309 147.887L45.8882 147.847L45.3023 147.536L45.0243 147.422L44.2206 147.104L43.7849 146.635L43.0037 146.72L42.4366 146.037L42.1549 145.834L41.5127 145.996L41.723 145.261L41.1071 145.335L40.4423 145.036L40.3484 144.77L40.1944 144.124L40.4949 144.006L40.5099 143.197L40.7841 142.872L41.0657 143.179L41.6854 142.706L42.0873 142.743L42.2676 142.133L42.9098 141.882L42.8685 141.624L41.5014 141.476L40.9193 141.044L40.3334 141.41L40.2019 140.364L38.8949 140.859L38.8498 140.416L37.9672 140.387L38.001 140.143L38.463 140.228L39.3493 139.478L39.4507 138.961L39.7061 138.584L40.1418 138.588L40.3709 138.06L40.4611 137.606L40.2695 136.786L40.7427 136.468L40.3446 135.774L39.9916 135.837L39.601 135.888L39.124 136.147L37.6367 136.092L36.9794 136.509L37.2761 135.464L36.6902 134.699L37.7644 134.611L38.1625 134.249L37.8846 133.831L37.9935 133.499L39.6723 132.554L39.4883 132.151L39.1315 132.203L38.7634 130.958L37.9785 131.257L37.7306 130.725L37.0696 130.386L36.4649 130.556L36.7128 130.164L36.5475 129.957L36.018 130.109L36.078 129.451L36.54 129.259L36.4649 128.58L36.1795 128.598L35.8978 128.037L35.6799 127.771L38.662 127.025L37.9973 126.116L37.6067 126.198L37.3287 125.862L36.9193 126.035L36.7916 125.692L37.3738 125.359L37.1484 124.927L36.6752 124.828L36.0367 125.363L36.0217 124.647L35.74 124.447L35.8227 124.155L36.2433 124.418L36.386 124.059L37.0132 123.974L36.9494 123.21L37.9071 123.236L38.1588 122.482L38.3841 121.866L37.7832 121.618L38.1287 120.669L38.9738 120.152L39.2104 119.62L39.124 119.273L38.8949 119.292L39.2705 118.904L39.3043 119.502L39.8376 119.244L39.9202 119.561L40.4873 119.702L40.908 118.782L40.7427 118.453L41.9934 118.302L42.2225 117.77L42.846 117.777L43.0676 117.5L44.8478 117.464L45.7192 116.95L45.9107 116.164L46.2112 115.576L46.9586 115.144L47.7773 115.015L48.3708 115.322L48.829 115.048L49.028 115.432L49.52 115.499L49.7379 115.92L50.0383 116.585L50.305 116.551L51.1914 115.03L51.1463 113.516L50.5078 112.533L51.1012 111.691L50.7482 110.812L51.5068 110.196L51.2702 110.055L51.4618 109.656L51.105 108.393L51.4355 108.054L52.6636 107.932Z" fill="#0A170A"/>
<path d="M145.248 278.484L145.357 278.679L144.876 279.053L145.736 279.133L145.512 279.641L146.344 279.295L146.268 279.576L146.499 279.417L147.583 280.037L147.479 280.21L147.938 280.484L147.645 280.477L147.612 280.804L148.043 280.581L147.674 281.118L148.169 280.707L148.964 281.262L148.809 282.465L148.549 282.019L148.184 282.35L148.585 282.498L148.227 282.765L146.213 282.332L144.616 281.129L144.464 280.556L144.699 280.531L144.554 280.196L144.771 279.918L144.471 279.713L144.713 279.439L144.619 279.093L144.294 279.046L144.493 278.7L145.248 278.484ZM144.666 277.911L144.905 278.167L144.413 278.282L144.384 277.958L144.666 277.911ZM142.736 276.521L144.146 277.029L144.626 277.637L143.242 278.109L141.893 277.594L141.828 276.679L142.736 276.521Z" fill="#0A170A"/>
<path d="M137.182 111.587L137.68 113.879L138.501 115.871L140.797 119.913L143.364 122.7L146.382 124.923L146.7 125.766L148.044 127.042L148.165 127.53L150.201 128.867L152.091 129.529L152.168 131.282L153.424 132.161L152.996 132.83L153.329 133.133L152.289 133.842L151.447 134.869L151.146 135.989L150.282 136.59L149.652 137.938L147.909 139.793L147.162 139.659L147.451 139.428L147.059 137.877L146.656 137.49L145.763 136.904L145.378 137.381L145.17 137.302L144.811 136.51L144.357 136.557L144.012 136.102L142.947 136.962L142.423 137.765L141.61 137.819L141.456 138.144L141.914 139.428L142.47 139.749L142.317 140.122L142.005 140.075L141.914 139.71L141.668 140.158L140.94 140.176L140.709 141.13L140.42 140.382L139.995 140.414L139.676 141.282L139.189 141.3L139.087 141.828L138.402 141.474L137.633 141.662L136.721 140.48L136.003 140.548L135.124 140.038L134.747 140.273L134.26 140.129L133.619 138.932L133.135 139.196L132.744 138.77L132.092 138.592L131.704 139.348L130.22 139.836L129.678 139.5L129.411 138.845L128.737 138.69L128.195 138.173L127.562 137.92L127.049 138.412L126.683 137.099L127.151 136.271L126.785 135.762L126.415 135.827L125.69 135.003L125.361 135.136L122.559 133.513L121.815 133.253L121.808 133.701L120.937 133.47L120.42 132.656L120.475 130.878L120.761 131.008L121.523 130.364L121.541 129.5L122.174 129.453L124.577 130.729L125.031 130.451L125.65 130.675L126.042 129.869L126.591 129.764L126.397 129.507L127.067 129.388L126.36 128.947L126.25 128.358L125.361 128.054L124.416 127.136L124.178 125.95L122.808 125.053L123.57 124.211L122.108 122.859L123.273 121.984L123.236 121.124L122.87 120.451L123.247 120.242L123.526 119.244L124.533 119.62L124.756 119.356H125.251L125.463 119.71L126.012 119.432L126.84 119.544L127.334 119.121L127.613 117.881L126.884 117.653L126.463 117.158L126.661 116.55L127.269 116.724L127.957 116.243L128.166 116.409L128.386 115.553L129.253 115.412L129.363 114.511L129.854 113.973L129.942 113.452L130.704 113.861L131.572 113.459L131.817 113.799L132.311 113.738L133.048 113.398L133.216 112.599L133.465 112.462L134.483 112.397L135.256 111.887L137.083 111.5L137.182 111.587Z" fill="#0A170A"/>
<path d="M167.134 157.22L167.014 156.772L167.503 156.323L168.215 156.185L169.912 156.469L170.828 156.141L171.358 156.524L171.975 156.192L171.916 155.846L172.526 155.689L172.46 155.412L172.759 155.518L173.278 155.208L174.117 155.809L174.752 155.919L174.84 156.294L175.3 156.404L175.522 157.26L175.749 157.107L176.42 157.654L176.187 158.033L176.296 158.598L175.643 159.345L175.092 159.247L175.314 159.659L177.355 160.526L177.935 161.077L178.716 160.362L179.446 160.599L180.519 162.954L182.914 165.159L183.199 165.794L183.757 165.947L185.027 164.474L185.772 165.374L185.75 164.686L186.104 164.591L186.414 165.076L186.455 164.441L187.071 164.707L187.44 164.474L187.502 164.835L187.929 165.09L188.126 164.82L189.192 165.63L188.816 165.816L189.262 166.33L188.933 167.649L189.269 168.396L189.039 168.564L188.882 169.617L189.232 169.986L189.072 170.281L189.495 170.602L189.145 171.36L189.459 171.703L190.079 171.546L190.725 171.936L190.86 172.526L191.495 173.062L191.78 173.74L190.342 175.796L188.586 179.573L187.75 180.181L186.758 179.835L185.619 180.189L184.494 179.817L183.797 179.952L183.556 179.547L183.326 180.083L183.407 181.118L183.031 181.927L183.126 182.656L182.012 184.639L182.418 185.055L182.257 185.536L181.476 184.665L180.746 184.599L179.676 184.84L179.669 185.478L178.654 185.015L178.275 185.408L176.523 185.503L175.957 184.869L176.092 184.643L175.782 184.06L176.234 183.247L175.811 183.13L175.267 183.44L175.015 183.09L174.34 182.981L173.818 183.429L173.592 183.112L173.252 183.291L172.924 182.948L172.31 183.014L171.453 183.936L171.106 184.884L170.452 183.59L169.686 182.89L169.635 182.35L169.022 181.993L169.638 181.625L169.175 181.122L169.617 180.998L170.186 180.225L170.069 179.164L170.66 178.563L170.609 178.198L171.876 177.659L171.686 177.21L172.026 176.908L172.011 176.39L171.788 175.971L170.719 175.661L170.668 175.18L170.069 174.63L170.051 173.696L169.284 173.419L168.7 172.639L167.948 172.264L167.773 171.633L166.981 171.01L167.244 170.616L166.751 169.446L167.007 169.147L165.419 168.189L165.685 167.452L166.288 167.084L166.309 166.789L164.145 165.385L164.207 163.617L163.908 163.592L163.988 163.162L163.236 162.699L164.003 162.644L164.046 161.864L163.674 161.675L163.831 161.434L165.579 161.828L165.813 161.7L165.729 161.277L166.81 160.807L167.634 158.667L167.134 157.22Z" fill="#0A170A"/>
<path d="M170.877 185.533L171.223 184.584L172.079 183.663L172.692 183.598L173.02 183.937L173.359 183.758L173.585 184.076L174.106 183.627L174.784 183.736L175.035 184.087L175.578 183.777L176.001 183.89L175.549 184.704L175.859 185.288L175.724 185.515L176.289 186.15L178.038 186.055L178.417 185.661L179.43 186.121L179.438 185.482L180.505 185.245L181.234 185.31L182.014 186.179L182.175 185.697L181.774 185.281L182.885 183.295L182.787 182.561L183.162 181.754L183.086 180.717L183.315 180.184L183.556 180.585L184.252 180.45L185.378 180.823L186.515 180.468L187.506 180.815L186.81 181.706L186.686 182.667L187.182 184.781L185.506 186.91L184.594 188.6L184.609 189.667L185.342 190.514L185.141 191.777L186.992 192.876L189.923 192.92L191.643 194.866L193.352 195.914L194.617 196.239L194.901 196.991L195.681 197.744L197.109 198.237L196.249 200.384L196.158 201.731L196.949 202.892L196.235 205.284L196.76 205.97L196.647 206.317L196.909 206.734L198.024 207.263L197.237 207.979L197.328 209.001L195.936 210.462L195.838 210.06L195.324 209.874L194.555 210.151L193.775 209.359L192.066 209.629L189.981 210.407L186.792 212.386L185.462 214.778L185.881 215.523L186.358 220.511L186.191 221.54L184.132 223.688L181.493 224.805L178.578 228.5L178.209 230.976L177.284 232.74L176.668 233.506L175.451 233.704L173.982 233.36L170.997 233.642L169.452 232.762L168.661 231.275L169.051 230.72L168.588 229.483L169.047 228.424L168.639 227.197L168.657 226.203L170.152 225.59L170.84 225.568L171.781 225.035L172.236 224.243L172.404 223.081L172.823 222.702L173.115 221.701L173.65 221.212L173.916 220.503L174.19 218.725L172.251 216.987L172.426 216.323L173.085 215.694L174.623 215.183L175.257 214.515L176.154 214.405L177.4 214.778L178.031 214.595L178.913 213.902L179.634 211.535L179.529 209.666L178.403 209.118L177.302 207.081L176.712 204.426L176.427 200.606L175.425 197.295L174.095 195.213L173.133 194.523L172.36 191.839L172.028 191.565L171.518 188.356L171.168 187.739L171.588 187.03L170.877 185.533Z" fill="#0A170A"/>
<path d="M142.481 169.817L143.218 169.905L142.965 170.243L141.89 170.393L141.938 169.795L142.481 169.817ZM135.766 164.876L137.383 165.316L137.578 165.599L137.325 166.358L136.29 166.369L136.177 166.589L135.451 166.208L135.436 165.522L135.766 164.876ZM137.82 147.39L138.377 147.672L138.274 148.23L139.03 149.128L139.818 148.952L140.295 149.268L140.196 148.38L139.694 147.767L140.5 146.289L141.34 146.99L141.483 146.483L142.748 146.505L142.825 146.817L143.475 146.821L143.574 147.195L144.318 147.595L147.256 148.453L147.395 149.037L147.831 149.37L149.056 149.18L149.504 149.825L150.307 149.11L150.692 149.088L150.677 148.743L151.4 148.655L151.744 148.927L152.434 148.714L153.064 147.654L154.535 148.277L155.111 147.694L156.083 147.613L157.176 146.843L157.839 147.885L158.888 148.178L158.958 148.472L158.657 148.758L158.855 149.198L158.466 149.264L158.158 149.693L158.386 150.654L159.475 151.043L159.552 151.839L160.806 151.788L161.188 152.331L161.782 152.213L162.244 152.738L161.653 153.112L161.965 153.985L161.224 154.425L160.927 155.155L161.503 155.438L161.771 156.131L162.508 156.659L162.911 156.329L163.949 156.766L164.572 156.292L165.343 156.953L165.918 156.901L167.239 157.562L167.741 159.018L166.912 161.171L165.827 161.644L165.911 162.07L165.676 162.198L163.92 161.799L163.758 162.044L164.132 162.231L164.088 163.02L163.318 163.075L164.074 163.541L163.993 163.97L164.297 163.996L164.235 165.775L166.41 167.187L166.388 167.484L165.779 167.851L165.511 168.592L167.106 169.557L166.853 169.858L167.349 171.035L167.084 171.431L167.877 172.059L168.056 172.693L168.812 173.071L169.399 173.856L170.169 174.135L170.187 175.074L170.792 175.628L170.843 176.112L171.918 176.424L172.142 176.846L172.156 177.37L171.815 177.675L172.006 178.126L170.733 178.665L170.785 179.032L170.194 179.637L170.312 180.705L169.74 181.482L169.3 181.607L169.765 182.11L169.142 182.48L168.826 181.761L167.807 181.622L166.494 181.967L164.939 183.753L163.696 183.544L162.951 182.818L162.141 183.019L162.071 182.788L162.387 182.55L162.134 181.732L160.92 180.565L160.377 180.485L159.457 179.373L157.74 179.395L156.768 178.185L155.419 177.766L155.192 177.378L155.918 176.827L155.954 175.356L156.911 174.806L156.915 173.728L154.696 169.12L152.742 167.066L151.741 167.22L151.242 168.002L150.017 167.646L149.023 168.526L148.161 168.677L147.27 168.189L144.314 169.608L144.6 168.104L145.759 167.873L145.917 167.334L147.23 166.432L146.834 165.269L145.697 164.909L144.399 163.482L143.387 162.807L142.415 163.214L141.74 164.088L141.201 164.007L141.487 163.867L141.227 163.493L139.998 163.141L139.595 163.427L139.906 164.414L139.081 164.135L139.078 162.477L138.667 161.036L137.695 159.484L137.673 159.429L136.789 158.475L136.276 156.703L134.97 154.568L133.8 153.391L134.002 152.907L135.102 152.694L135.286 152.411L135.047 152.323L135.084 151.946L136.224 151.538L135.847 149.899L136.147 149.348L135.663 148.534L136.452 148.398L137.57 147.382L137.82 147.39Z" fill="#0A170A"/>
<path d="M115.068 83.7884L114.638 84.9382L114.722 86.4751L113.796 86.8434L113.598 87.6249L112.524 87.4909L112.594 87.1039L112.3 86.9886L112.046 86.0546L111.046 86.4751V85.6787L110.212 85.1876L110.627 84.6071L110.51 83.2117L109.149 84.1345L108.539 84.1494L108.642 85.489L109.087 86.315L108.491 86.3113L108.366 86.0062L107.635 86.3002L107.263 87.5914L106.308 88.3691L106.234 89.1766L106.219 89.1654L105.616 89.4966L104.87 89.3589L104.565 90.092L103.995 89.2324L103.466 89.5301L102.948 89.4705L102.315 89.8054L101.907 89.3329L101.569 89.4259L101.032 89.091L100.643 89.2473L100.043 88.8566L99.9661 88.4956L99.4698 88.4286L99.2786 87.9486L97.5655 87.8705L96.8302 86.9737L95.5142 86.2295L95.6134 85.0908L94.9443 84.6368L95.0657 84.0303L94.2679 83.2563L94.3598 82.8284L94.6061 82.8619L94.5326 82.4563L95.1502 82.2181L95.3083 81.4776L96.0546 80.6627L96.1796 79.6617L94.1687 80.071L93.1945 79.9371L93.7275 79.1557L93.6577 78.7687L92.7018 78.5714L92.3232 78.9435L91.882 78.8468L91.2461 78.1137L90.7351 77.9723L90.6101 77.176L90.1211 76.7295L89.2168 77.6188L88.3014 77.7156L88.2279 78.1137L87.3897 78.884L85.9229 78.9361L85.8824 79.2859L86.9596 79.9185L87.0515 80.3204L86.1177 80.3799L84.9818 80.0487L83.7539 80.5883L82.7393 80.4692L82.1694 80.0413L82.3974 79.6543L82.2503 79.3157L80.4637 81.3474L80.221 81.2357L80.3387 80.8822L80.0887 80.5436L79.2505 80.3576L77.4234 78.858L75.3758 78.8096L75.0081 79.2673L75.0339 79.7696L74.4199 79.9259L73.1627 78.791L73.0744 78.2142L72.4348 77.6188L72.4532 77.1053L72.0047 76.856L71.3907 76.9639L70.3062 75.8327L69.718 75.8215L68.9129 75.3639L68.038 75.8067L65.9683 73.5926L65.0713 73.7824L63.4979 72.6884L63.0824 72.2195L63.281 71.2446L62.895 71.1665L62.7111 70.705L61.8178 70.3813L59.851 70.6008L58.5974 72.5991L57.274 73.3768L56.752 72.1414L55.7594 71.4009L55.3734 71.6428L54.855 71.319L54.7264 71.6762L53.7044 71.7767L53.3588 72.1972L53.2632 71.7618L52.6566 71.9069L53.2228 70.2287L53.708 70.1506L53.8845 68.878L53.5683 68.1003L52.3809 67.6872L52.0905 67.0435L51.1935 67.7095L50.0355 66.7607L49.8737 67.1514L49.1017 67.0211L49.2267 66.7086L49.0098 66.4741L48.179 66.6379L48.168 64.7476L48.3481 64.8183L48.9914 64.7773L48.8738 64.0257L49.3554 64.9597L50.5428 64.6434L50.2818 64.1261L50.609 63.7391L50.5538 63.2852L49.9142 62.9391L49.8039 62.5298L51.2192 61.086L50.8259 59.8766L50.4693 59.5715L50.2009 59.7203L49.5576 59.1212L50.0171 58.511L49.7965 58.1314L50.4068 57.9752L50.9104 56.4681L51.5133 55.8169L51.4692 55.0057L52.2229 54.321L52.1824 54.0717L52.6346 54.1387L52.7522 53.8373L53.7963 53.5694L54.3734 54.2615L54.7889 53.8782L54.5573 52.8624L54.8256 52.8177L55.4138 53.614L55.8844 53.4131L56.1233 52.7024L56.4615 53.1675L56.4064 54.0978L57.9431 54.7638L58.5386 54.2354L58.7224 53.8596L58.4467 53.454L58.7665 53.3535L59.0717 53.9266L59.7518 54.2801L59.8878 54.9722L60.2297 53.7778L60.5973 53.7889L60.9686 54.3396L61.2921 54.1945L61.3656 53.7629L60.9502 53.1712L61.6119 52.6279L61.8803 52.8549L61.7406 53.6698L62.7994 52.8475L63.1266 52.881L63.8177 53.7926L63.6559 54.3471L64.2147 54.8048L64.2405 55.2588L64.7882 55.1285L65.0823 55.776L66.3065 55.1955L66.5013 55.5416L67.3175 55.5192L68.4203 56.4011L69.0085 56.416L70.0489 57.2607L70.9496 56.7621L71.49 57.8486L73.17 58.6784L74.6185 58.6152L75.1515 58.3026L76.2029 56.7695L76.3683 57.3723L77.0301 56.6021L77.3867 57.763L79.0079 58.031L79.2836 58.3249L79.6071 58.2654L79.6365 58.5445L80.1291 58.4812L80.0556 58.697L80.5923 58.3621L81.0886 58.444L81.1732 58.0161L82.0261 57.5733L83.1731 57.67L83.5149 57.3761L84.4891 57.6142L84.9376 58.191L85.1398 57.9491L86.5699 57.8338L86.7022 57.5882L87.2463 57.9789L87.8602 57.3872L90.1505 57.7296L90.2094 58.284L92.3048 58.1463L93.0768 58.671L93.2349 59.2738L93.4959 59.3668L93.9518 59.3222L94.6944 58.6152L95.8671 58.284L96.1391 57.4579L97.2126 56.9519L99.5176 56.9816L100.33 56.6914L102.793 57.0895L103.635 58.2356L104.179 57.8747L104.477 58.2654L105.267 58.3287L105.804 57.8486L106.201 57.8449L106.506 58.2468L106.274 58.7082L106.396 59.7836L106.631 60.1371L107.363 60.3269L107.583 61.1381L107.344 61.2013L106.907 60.5167L106.469 60.3827L105.833 61.2311L106.297 61.0451L105.686 62.6712L105.469 64.5243L105.646 65.756L106.366 67.1812L106.326 70.4706L106.977 72.2419L107.054 73.5033L107.807 76.1639L108.455 77.4774L110.921 80.3873L111.848 81.0162L114.042 83.4089L115.068 83.7884ZM104.253 87.997L104.153 88.4175L104.657 89.0091L105.458 88.5924L105.348 88.183L105.271 88.0082L104.253 87.997Z" fill="#0A170A"/>
<path d="M115.8 12.7234L116.494 12.9558V13.4752L116.746 13.6096L118.223 13.5006L120.434 13.9328L121.131 13.7367L122.63 14.1072L123.946 15.1096L124.557 14.8517L125.473 15.1096L125.897 14.6447L126.376 14.6992L126.415 14.3687L127.076 14.5576L127.041 14.8481L127.386 14.9607L128.788 14.7065L129.064 15.2295L129.859 15.1096L130.074 15.4801L130.937 15.3748L132.727 15.945L132.188 18.1605L131.505 17.9244L130.455 18.1932L129.963 19.2283L128.209 20.2308L127.644 20.2562L127.652 21.2259L126.444 21.9814L127.332 23.6412L127.123 24.2623L127.781 24.1969L127.756 23.8628L128.406 23.8846L128.762 24.1424L129.276 24.0553L129.848 24.4366L130.078 24.9742L131.228 24.7926L131.739 25.0868L131.368 26.2563L130.085 27.5093L128.73 28.3774L128.838 29.2019L128.273 29.7866L129.37 30.8217L129.959 30.7382L130.437 30.197L131.365 30.3205L131.264 31.5845L130.135 33.7855L130.509 34.9695L130.987 35.2927L131.843 35.1547L133.274 36.3787L134.179 36.6221L135.473 38.9066L136.476 39.6439L134.995 40.9805L134.219 41.0313L133.331 40.5592L132.792 40.6936L132.76 40.3558L133.04 40.2032L134.014 40.512L134.449 40.1633L133.935 40.1814L133.77 39.6148L133.407 39.6948L133.194 39.455L133.637 39.1136L133.378 38.3654L131.167 35.9719L130.268 35.7068L129.862 35.8412L129.661 35.5506L129.169 36.0882L129.1 36.6911L129.733 37.2068L128.525 37.7952L128.238 37.6971L127.475 38.4453L126.606 38.5289L124.762 37.5264L124.1 37.4175H123.989L123.956 37.3921L122.436 37.7988L121.401 39.4042L121.016 39.1863L121.059 38.9647L120.707 39.0083L120.768 38.5289L120.405 38.2383L120.538 37.9478L120.254 37.8751L120.049 36.9054L119.7 37.1632L119.826 36.7383L119.593 36.2661L119.769 36.1717L119.039 35.4707L119.431 35.2383L119.136 35.1148L119.201 34.8169L119.061 34.6826L119.075 34.57L118.866 33.9961L118.654 34.0833L118.816 34.599L118.259 34.7806L118.083 34.3847L117.536 34.7261L117.087 34.3121L117.231 33.9126L117.001 33.8872L116.221 34.283L116.023 34.6608L115.797 34.3956L115.951 34.0324L115.545 33.7273L114.833 34.4901L114.593 34.2467L113.198 35.5506L113.18 34.9622L112.777 34.7734L112.734 34.4501L112.288 34.2104L112.044 34.7952L111.325 34.4138L111.404 33.978L110.904 33.5203L110.452 31.875L109.92 31.8714L109.546 31.3229L109.032 31.3084L109.024 30.0481L108.769 29.1038L108.439 28.8132L109.075 27.7926L110.117 27.0808L110.279 25.7805L109.409 25.0722L109.301 24.2986L108.643 24.3349L108.55 23.7611L107.802 23.7684L107.04 22.7332L107.687 22.0504L107.673 21.3276L108.047 21.0225L108.733 21.1206L108.852 20.3869L109.51 20.0492L109.445 19.8312L109.661 19.9293L109.546 19.4281L110.265 18.7889L110.365 18.1533L110.897 17.4123L111.045 17.5685L111.609 17.1145L112.274 17.4014L112.648 17.1145L113.302 17.3978L113.162 16.7658L112.72 16.4753L112.763 16.1339L114.007 15.3421L114.923 15.3203L114.607 14.899L114.858 14.0745L114.51 13.4716L114.578 12.8178L115.171 12.4873L115.8 12.7234Z" fill="#0A170A"/>
<path d="M118.933 161.357L118.841 161.846L119.052 161.917L118.681 162.344L118.615 161.297L119.445 160.922L118.933 161.357ZM138.066 146.758L138.44 147.073L138.159 147.556L137.881 147.545L136.754 148.573L135.957 148.71L136.446 149.534L136.146 150.09L136.527 151.749L135.375 152.165L135.337 152.547L135.578 152.636L135.393 152.922L134.281 153.137L134.077 153.627L133.035 152.877L132.583 153.1L131.541 152.673L130.448 153.289L130.489 153.831L130.822 154.054L130.066 154.08L126.752 152.146L125.143 151.76L124.535 152.131L123.675 152.087L122.592 152.432L121.365 153.601L120.472 153.53L119.386 151.033L118.029 149.589L116.694 148.851L115.445 148.725L115.145 148.959L113.358 147.76L112.728 147.864L112.676 148.127L112.353 147.99L111.123 145.815L108.498 142.68L107.134 141.522L104.832 140.472L104.487 138.282L103.326 136.149L101.536 135.098L101.054 134.379L100.105 134.015L99.8937 133.566L99.0262 133.017L97.4433 133.25L96.8242 131.807L95.6972 130.319L95.6305 129.621L94.8446 128.037L94.0105 126.864L91.9938 125.22L90.092 124.311L90.7816 122.771L93.3024 122.741L93.269 121.468L92.2348 120.76L92.7426 120.04L92.5758 119.387L92.8057 119.264L93.2283 119.654L93.4766 119.324L93.7769 119.409L94.422 119.082L94.4998 118.682L95.0559 118.27L95.5341 118.362L95.8714 117.568L96.3793 117.639L96.8983 117.297L96.8687 116.897L96.4794 116.718L96.3274 115.746L96.7834 115.75L97.1689 114.874L95.7676 113.776L96.1977 112.87L96.6462 113.045L96.9057 113.535L97.0948 112.789L97.6991 112.392L98.6184 112.444L99.219 113.887L100.25 114.555L99.8751 115.29L99.1893 115.676L99.6675 116.459L101.202 117.409L102.567 116.923L102.941 117.32L102.985 117.041L103.234 117.123L103.745 116.681L104.35 116.934L104.969 117.698L105.173 119.357L105.792 119.646L105.714 120.374L106.099 120.689L105.821 120.938L106.385 121.235L106.129 121.405L106.822 121.327L107.278 121.795L108.02 121.194L108.565 121.253L108.472 121.943L108.746 122.196L108.494 122.281L108.49 123.046L109.339 123.342L108.98 123.869L110.329 123.676L110.311 124.3L110.633 124.671L112.238 123.424L112.32 121.984L112.761 121.955L113.091 122.645L113.54 122.626L114.648 121.895L114.14 121.138L115.275 120.812L115.338 120.318L116.098 120.355L116.783 119.75L117.558 119.502L117.328 118.555L117.543 118.121L118.292 118.489L118.589 118.129L119.794 118.143L120.057 117.576L120.82 117.976L121.858 117.338L121.877 117.049L122.477 117.286L122.971 116.811L123.249 115.16L124.464 115.453L124.665 115.019L125.069 114.982L126.433 116.154L126.233 116.782L126.659 117.286L127.397 117.52L127.115 118.797L126.615 119.231L125.777 119.112L125.221 119.398L125.006 119.038L124.505 119.034L124.279 119.305L123.26 118.923L122.978 119.947L122.596 120.158L122.967 120.849L123.004 121.732L121.825 122.63L123.304 124.018L122.529 124.886L123.916 125.803L124.157 127.024L125.113 127.966L126.01 128.274L126.122 128.879L126.841 129.332L126.162 129.454L126.355 129.714L125.803 129.822L125.406 130.649L124.78 130.419L124.32 130.705L121.888 129.395L121.247 129.443L121.228 130.334L120.457 130.994L120.172 130.861L120.116 132.686L120.635 133.521L121.521 133.759L121.528 133.299L122.281 133.566L125.117 135.232L125.447 135.095L126.181 135.941L126.559 135.87L126.93 136.394L126.455 137.243L126.826 138.59L127.345 138.086L127.986 138.345L128.535 138.876L129.217 139.036L129.491 139.707L130.04 140.052L131.541 139.548L131.938 138.772L132.594 138.954L132.991 139.392L133.484 139.121L134.133 140.349L134.626 140.498L135.004 140.253L135.894 140.78L136.62 140.709L137.547 141.923L138.285 142.561L138.804 143.893L138.841 144.402L138.589 144.639L139.096 145.199L139.015 145.552L138.7 145.619L139.152 146.012L138.066 146.758ZM109.28 136.408L109.265 136.379L109.269 136.312L109.228 136.271L109.195 136.282L109.132 136.297L109.073 136.394L109.061 136.416L109.087 136.445L109.11 136.438L109.206 136.46L109.28 136.431V136.408Z" fill="#0A170A"/>
<path d="M60.2027 81.2978L60.0566 81.6537L59.8301 81.2978H60.2027ZM20.0882 80.8772L20.3767 80.9742L20.9428 80.3738L20.4644 80.381L20.132 79.8633L20.3037 79.3097L21.0122 78.925L24.2994 79.9604L24.8984 79.6476L25.6143 79.8957L25.775 79.6332L25.5705 79.3205L25.092 79.1012L25.764 78.5547L26.3228 78.9214L26.8415 78.7453L27.2725 78.1916L27.2542 77.4942L26.721 77.034L26.9876 76.4228L26.6735 76.0274L27.13 75.5852L26.6662 75.1142V74.7547L26.8232 74.5606L27.3565 74.7942L27.4661 74.0141L27.9372 74.0716L28.2952 73.4928L28.2075 72.7774L29.3726 72.1446L29.6465 71.4508L29.1462 70.2716L29.6502 70.1098L29.6356 69.4267L30.2017 68.9809L30.5597 69.531L31.2353 69.5993L32.3603 70.5376L32.8388 70.2824L33.0433 69.4915L33.3391 69.3548L33.876 69.7323L34.2924 69.1176L34.4203 69.4267L35.589 69.3836L35.9543 69.6532L36.955 68.5639L36.6665 68.2368L37.1157 67.5429L38.416 67.6148L39.0077 67.7011L39.6615 68.758L39.5519 69.0816L39.866 69.0672L40.0048 69.8582L40.4687 69.6928L40.3372 69.1607L40.9727 68.6358L40.9654 68.1073L41.7981 68.0031L42.1195 68.4273L42.6455 68.1505L42.5359 66.8131L42.01 66.2523L42.5798 65.7993L42.8135 65.2025L43.4015 65.1162L43.6645 65.4829L44.4973 65.393L45.0817 66.6262L45.6076 66.5219L46.1409 66.8275L46.1226 67.3596L46.7179 67.7946L48.0036 67.2697L47.9817 66.7448L48.8071 66.5866L49.0263 66.8131L48.9021 67.1151L49.6691 67.2409L49.8298 66.8634L50.9803 67.7802L51.8715 67.1367L52.16 67.7586L53.3398 68.1577L53.6539 68.909L53.4786 70.1386L52.9964 70.2141L52.434 71.8355L53.0366 71.6953L53.1316 72.1159L53.4749 71.7096L54.4903 71.6126L54.6181 71.2674L55.1368 71.5802L55.5203 71.3465L56.5064 72.062L57.0251 73.2555L57.5072 73.1872L57.8761 74.1148L59.348 75.24L60.294 75.6211L60.3268 76.5451L60.6227 76.7967L60.4656 77.7782L61.2253 77.149L61.7622 77.5157L61.4883 77.5373L61.0354 78.2491L62.4708 78.2024L62.5439 79.0508L62.8872 79.5506L62.7082 79.9928L63.3583 79.4535L64.224 79.982L64.1254 80.4781L63.3145 81.3949L62.7374 81.2978L62.3028 81.6106L61.2253 80.8196L61.2436 80.4889L60.7505 80.4853L60.0237 79.7663L59.5525 80.0503L60.0273 80.6327L59.9397 80.8448L60.2136 80.7981L59.8301 81.3014L58.0916 80.1833L57.3976 79.2989L56.5064 78.8387L56.0973 79.1335L55.6043 78.2132L54.8592 77.8896L54.5268 77.282L53.7525 76.9944L53.4128 76.4839L52.5508 76.4552L52.0395 75.9339L51.7985 76.1029L51.2068 75.0998L48.6391 73.6762L48.241 74.05L48.2848 74.9165L46.9553 74.3089L47.1453 73.669L46.8933 73.3238L42.9961 72.3532L42.7587 71.9721L42.5432 72.1303L42.693 72.3711L41.0348 71.9289L41.4621 71.8534L41.1261 71.7204L40.2568 71.6809L40.3554 71.8678L39.603 71.6953L38.847 71.9829L38.2882 72.5113L37.6198 72.6372L37.0829 73.1908L34.9133 74.2765L34.6321 74.6396L34.8878 74.5893L33.792 75.578L34.0696 75.9411L33.3684 76.8578L33.5071 77.5912L30.5852 79.0293L29.8584 80.2732L29.7598 81.4739L28.6129 82.743L28.5326 83.2499L28.8028 83.7389L27.236 84.7778L26.9036 85.3782L26.0599 85.558L24.5259 86.5466L22.9042 86.8702L22.3782 87.3052L21.8158 87.1398L20.5995 87.8445L19.9384 87.7366L19.3796 88.3082L17.6666 87.9236L17.2137 88.2867L16.8412 88.2076L16.0559 86.3489L16.0888 85.7953L16.3627 85.4573L17.2576 85.1877L17.3963 84.048L18.9925 83.2248L19.281 82.5956L19.1897 81.8335L19.9823 81.4991L20.0882 80.8772Z" fill="#0A170A"/>
<path d="M67.8549 12.9139L68.0464 13.1272L67.7113 13.6567L67.807 14.0686L68.5693 14.2084L68.746 14.7784L69.5708 14.9953L69.8139 14.6239L70.635 14.9475L71.0401 14.771L71.7434 15.3153L72.1668 16.3082L73.5551 16.4185L74.5272 17.0694L74.9065 17.5695L74.8218 18.3749L75.1311 18.8861L74.5824 19.4598L73.857 19.5002L72.907 20.438L73.8791 20.905L74.1 21.6478L73.7723 22.1149L74.0706 22.2877L74.2621 23.0747L73.4225 24.6045L73.8165 25.1892L73.4704 26.8183L72.2442 28.3151L72.3767 29.0138L71.9385 29.3595L71.7286 30.0324L71.7471 30.4002L72.3878 30.5179L72.3289 31.2644L72.8076 31.9962L72.4725 32.7685L72.6639 34.3535L73.4925 34.7028L73.231 35.2066L73.3857 35.5266L73.8717 35.5744L74.6597 35.0853L75.3888 35.0595L75.5619 34.2689L77.0385 33.971L77.5061 34.3314L77.6497 34.0151L79.1116 34.2983L75.028 40.3661L75.4441 44.6871L75.2968 45.4152L75.6061 45.4814L75.8638 45.1836L76.7697 45.5991L76.4162 46.5442L76.7697 46.82L76.291 47.1804L76.6592 47.7284L76.4088 48.4308L76.9575 48.5742L77.1453 48.9382L78.0327 48.2027L78.7544 48.9125L79.1668 49.7767L80.139 49.9937L80.1795 50.2437L80.8533 50.4202L80.8165 50.8983L81.8733 51.3764L82.1679 51.825L82.028 52.4539L82.6208 52.3362L82.9412 52.5385L82.5877 53.2298L83.442 53.9469L83.8838 54.0278L83.9722 53.5608L84.473 53.8293L84.8155 53.2114L85.9201 53.6233L85.4525 53.9984L85.6035 54.3698L85.3862 54.9656L86.5388 55.3922L87.0653 55.0796L87.069 55.9842L90.0074 57.5582L90.0921 57.937L87.7981 57.5986L87.1832 58.1834L86.6382 57.7972L86.5056 58.0399L85.0732 58.1539L84.8707 58.393L84.4214 57.8266L83.4456 57.5913L83.1032 57.8818L81.9543 57.7862L81.1 58.2238L81.0153 58.6504L80.5182 58.5695L79.9806 58.9005L80.0543 58.6872L79.5608 58.7497L79.5314 58.4739L79.2073 58.5327L78.9312 58.2422L77.3073 57.9811L76.9501 56.8337L76.2873 57.595L76.1216 56.9992L75.0722 58.5143L74.5382 58.8232L73.0874 58.8858L71.4046 58.0657L70.8633 56.9919L69.9612 57.4846L68.9191 56.6499L68.3299 56.6352L67.2252 55.7636L66.4078 55.7893L66.2126 55.451L64.9864 56.0247L64.6955 55.3885L64.1469 55.5172L64.1211 55.0686L63.5614 54.6162L63.7234 54.0683L63.0311 53.1673L62.7034 53.1342L61.6429 53.9506L61.7828 53.1452L61.514 52.9209L60.8512 53.4578L61.2673 54.0425L61.1973 54.4691L60.8733 54.6126L60.5014 54.0683L60.1332 54.0573L59.7907 55.2377L59.6545 54.5537L58.9733 54.2044L58.6713 53.638L58.351 53.7373L58.6271 54.1382L58.443 54.5096L57.8465 55.0318L56.3073 54.3735L56.3625 53.4541L56.0238 52.9945L55.7844 53.6969L55.3131 53.8954L54.7239 53.1085L54.4551 53.1526L54.6871 54.1565L54.271 54.5353L53.6929 53.8513L52.6508 54.1161L52.533 54.414L52.08 54.3478L52.1205 54.5942L51.3694 55.2708L51.4135 56.0725L50.8133 56.7161L50.3089 58.2054L49.6976 58.3599L49.9185 58.735L49.4583 59.3381L50.1027 59.9301L50.3715 59.7831L50.7286 60.0846L51.1227 61.2798L49.705 62.7066L49.8154 63.1112L50.4562 63.4532L50.5114 63.9018L50.1837 64.2843L50.4451 64.7991L49.2557 65.1154L48.7734 64.1923L48.8912 64.9352L48.2468 64.9756L48.1105 63.9275L48.3425 63.1921L47.5067 62.5742L47.3336 61.4967L46.332 61.7726L46.1663 61.4857L45.6287 61.4416L45.6729 61.0959L45.2457 60.6656L45.5919 60.2942L45.3231 59.5661L44.9475 59.6102L44.3289 59.0623L43.7581 58.1245L43.8465 57.4883L43.5777 57.0139L43.4046 56.8521L42.9185 57.0801L42.4435 56.4366L42.3367 55.2598L41.2652 55.3444L40.6687 55.9364L40.0648 56.0026L39.9727 56.3814L39.5014 56.3189L39.4388 55.9511L39.0264 56.01L38.8828 55.5834L38.7134 56.2306L37.4909 55.5246L37.3841 54.2301L36.8612 53.752L36.9901 53.274L36.5777 53.16L36.3604 52.612L35.8339 52.4539L35.6313 52.0935L36.2905 51.1484L35.4914 51.5014L35.3073 51.358L35.7455 51.1999L35.2852 50.7696L35.6313 50.457L35.4214 50.3062L35.8854 50.2474L35.2926 50.0525L35.2852 49.8723L35.6424 49.9201L35.5282 49.2692L34.7881 48.8868L35.0569 48.3388L35.554 48.1696L35.3331 47.5114L35.8854 47.0039L36.3199 47.3716L37.3436 47.3312V47.6658L37.7597 47.938L37.9401 48.8757L38.4814 48.8353L38.8865 48.6183L39.0927 47.846L39.7849 47.4047L38.9859 46.5516L39.5419 46.6545L39.9727 46.3603L40.5508 46.5222L41.3352 46.125L40.9927 45.099L40.665 45.121L40.2415 43.6868L38.9491 43.0212L38.474 41.2119L38.6361 40.5831L37.9254 39.98L37.8076 39.5166L38.3673 39.6306L38.069 38.9539L38.2052 38.5862L37.4577 38.4391L37.6603 37.4609L36.5372 37.1263L35.7933 35.7215L35.8154 35.1735L36.5814 34.3093L36.11 32.489L39.0743 29.2675L38.7023 27.5943L38.9343 27.0022L39.3799 26.5131L39.6929 27.028L40.1568 27.267L40.6061 27.0758L41.4751 27.7855L41.4861 28.1937L41.0995 28.4254L40.1863 30.0582L41.0516 30.0692L41.766 30.8194L42.2889 30.9408L42.3036 31.5586L43.2131 33.3532L42.5687 34.3204L43.423 34.0004L44.1963 34.2873L44.0711 34.655L44.9291 34.6844L45.2016 33.3385L45.9527 32.5405L45.6803 32.5037L45.3783 31.9153L44.6198 31.7167L44.524 30.8856L44.0748 30.6282L44.7707 29.992L44.3546 28.7895L44.5535 28.407L45.6692 28.0062L45.8901 27.4067L45.5992 26.5168L46.4904 26.0792L47.2784 25.1819L47.6687 25.1561L48.4162 23.4314L48.9538 23.3762L49.0164 22.4973L49.878 20.8903L49.8375 20.1364L49.4399 19.6914L49.5393 18.5036L48.928 17.7387L49.4214 17.3195L49.4877 16.2567L51.1079 15.8926L51.3362 16.5509L52.0285 17.0326L52.4925 16.15L53.0264 15.889L52.938 16.4259L52.6839 16.5215L53.0448 16.7384L53.0006 19.5517L53.6966 19.7834L54.0648 20.8903L54.6245 21.5596L54.7939 21.4198L56.2189 21.9935L57.0069 21.5486L57.6697 21.828L58.1889 20.2541L58.9659 20.6586L61.4036 19.4156L61.7571 19.8201L62.2689 19.4524L63.1011 20.2063L62.8175 20.9969L63.2005 21.2433L63.1563 22.0487L64.2315 22.5966L64.0364 23.5381L64.4856 23.8506L64.8907 23.5675L65.4909 23.6741L66.5072 22.8062L66.1058 21.8427L65.1632 20.7432L65.211 20.1916L65.6087 19.9378L65.8002 19.2869L66.2384 19.1987L66.3157 18.6397L65.9843 18.5661L65.8517 18.1101L64.7029 18.3124L63.9296 17.6762L64.1874 17.1209L63.9775 16.7348L64.2021 15.6279L64.0143 15.0799L65.0748 13.9362L65.1116 13.1382L65.6308 13.278L66.7465 12.708L67.2289 12.9433L67.6818 12.4873L67.8549 12.9139Z" fill="#0A170A"/>
<path d="M131.107 94.7245L130.104 94.1351L129.677 93.2857L128.924 92.6524L128.619 93.2089L127.874 93.1173L125.136 91.5761L117.717 84.9972L115.73 83.9355L114.85 83.8477L114.426 84.9789L114.509 86.4909L113.597 86.8534L113.402 87.6222L112.344 87.4904L112.413 87.1096L112.123 86.9961L111.874 86.0772L110.889 86.4909V85.7075L110.067 85.2242L109.922 85.7184L108.539 85.561L108.524 85.5244L108.963 86.3371L108.376 86.3335L108.253 86.0333L107.532 86.3225L107.167 87.5929L106.225 88.358L106.153 89.1525L106.2 89.1891L106.978 89.5039L107.808 90.6315L107.047 90.6388L107.156 91.4369L106.823 91.415L106.602 90.0531L106.443 91.1953L105.997 91.4369L105.469 91.3344L105.541 91.631L105.201 92.0154L104.364 92.3192L104.889 93.1356L105.146 93.564L106.265 93.5493L106.392 93.7544L107.145 93.1393L107.826 93.0954L107.641 93.3809L107.815 93.9081L106.758 94.8966L107.25 95.4165L107.768 95.1492L108.228 95.7826L108.742 95.0174L109.1 95.065L109.401 95.5849L109.734 95.6032L109.839 95.2883L110.168 95.4421L112.471 98.111L113.242 97.6387L114.05 97.9389L114.528 96.9541L115.281 97.1591L115.147 97.895L115.473 98.2025L114.821 98.8212L114.839 99.1287L115.661 100.212L115.798 101.278L115.574 101.534L116.255 102.025L116.497 103.277L117.001 103.529L116.95 104.591L116.363 105.158L116.606 105.722L117.355 105.876L117.562 106.502L117.475 107.516L117.746 108.289L117.431 108.53L117.772 109.244L117.569 109.79L118.543 110.379L118.615 110.698L119.017 110.745L119.061 112.224L119.499 111.726L119.506 111.1L119.977 111.382L120.484 110.873L121.573 111.715L122.479 113.158L123.445 112.934L123.898 112.268L124.408 113.593L124.318 114.26L123.985 114.955L123.847 114.673L123.152 114.959L123.062 115.691L124.249 115.98L124.445 115.552L124.839 115.515L126.172 116.672L126.776 116.852L127.457 116.365L127.66 116.533L127.877 115.662L128.735 115.519L128.844 114.607L129.325 114.066L129.416 113.535L130.169 113.952L131.024 113.546L131.266 113.894L131.755 113.831L132.483 113.487L132.649 112.678L132.895 112.539L133.902 112.469L134.67 111.953L136.476 111.562L135.68 109.109L135.122 106.132L131.045 95.9144L131.107 94.7245ZM108.955 93.5384L108.687 93.4432L108.619 93.4212L108.734 93.1649L108.941 93.2857L108.977 93.4798L108.955 93.5384Z" fill="#0A170A"/>
<path d="M152.994 132.16L154.945 133.232L156.735 133.576L158.158 135.185L159.292 135.641L159.367 136.854L158.603 137.992L158.897 139.078L158.553 139.668L158.911 140.12L158.642 140.313L159.001 140.865L159.668 141.18L158.933 141.558L158.689 142.115L158.413 141.829L158.402 142.133L157.653 142.47L157.179 143.368L156.017 142.812L155.569 143.375L155.895 143.672L155.641 145.74L156.2 145.989L156.914 146.842L155.845 147.62L154.895 147.698L154.328 148.291L152.89 147.657L152.273 148.732L151.599 148.947L151.262 148.673L150.555 148.758L150.57 149.107L150.193 149.133L149.408 149.856L148.97 149.203L147.772 149.396L147.345 149.059L147.209 148.469L144.336 147.602L143.608 147.197L143.515 146.823L142.877 146.819L142.805 146.508L141.568 146.482L141.428 146.994L140.607 146.285L139.818 147.779L140.313 148.399L140.409 149.296L139.943 148.977L139.172 149.155L138.433 148.247L138.534 147.683L137.989 147.398L138.261 146.919L137.899 146.604L138.925 145.841L138.487 145.448L138.792 145.381L138.867 145.029L138.376 144.469L138.62 144.235L138.584 143.727L138.082 142.396L137.368 141.759L138.121 141.566L138.792 141.929L138.892 141.388L139.369 141.369L139.681 140.48L140.097 140.446L140.381 141.214L140.607 140.235L141.32 140.216L141.561 139.757L141.65 140.131L141.955 140.179L142.106 139.797L141.561 139.467L141.112 138.151L141.263 137.818L142.059 137.762L142.572 136.939L143.616 136.057L143.953 136.524L144.397 136.476L144.749 137.288L144.953 137.369L145.33 136.88L146.205 137.48L146.599 137.877L146.983 139.467L146.7 139.705L147.432 139.842L149.139 137.94L149.755 136.557L150.602 135.942L150.896 134.792L151.721 133.74L152.739 133.013L152.413 132.701L152.833 132.016L152.994 132.16Z" fill="#0A170A"/>
<path d="M33.7307 16.9482L34.2932 17.5259L34.0682 18.0851L34.3368 18.8099L34.2061 20.5539L33.4984 21.4921L34.0428 22.4082L33.8033 22.8423L34.3187 23.3096L35.4256 23.6775L36.224 25.1455L36.7612 25.3773L36.6487 25.7673L36.9245 26.275L37.5814 26.2529L38.3145 26.8232L38.9097 26.7754L38.6811 27.3677L39.0476 29.0418L36.126 32.2647L36.5906 34.0896L35.8357 34.9542L35.8139 35.5061L36.547 36.9116L37.654 37.2464L37.4544 38.2214L38.1911 38.3685L38.0568 38.7364L38.3508 39.4171L37.7955 39.2994L37.9117 39.7666L38.6121 40.3663L38.4524 40.9955L38.9206 42.8056L40.1945 43.4716L40.6119 44.9065L40.9349 44.8844L41.2724 45.9109L40.4993 46.3082L39.9259 46.15L39.5013 46.4444L38.9533 46.3377L39.7408 47.1912L39.0585 47.6327L38.8553 48.4054L38.4561 48.6225L37.9225 48.6629L37.7447 47.7247L37.3346 47.4525L37.3382 47.1177L36.3293 47.1581L35.8974 46.7902L35.3566 47.2979L35.5744 47.9565L35.0808 48.1258L34.8195 48.674L35.549 49.0566L35.6615 49.7078L35.3058 49.66L35.3131 49.8366L35.901 50.0316L35.4437 50.0905L35.6506 50.245L35.3058 50.5577L35.7595 50.9882L35.3276 51.1464L35.5091 51.2899L36.2966 50.9367L35.647 51.8822L35.8466 52.2428L36.3656 52.4047L36.5797 52.9529L36.9862 53.0669L36.8555 53.5452L37.3745 54.0198L37.4798 55.3186L38.6811 56.0213L38.848 55.3775L38.9932 55.8006L39.3997 55.7417L39.465 56.1133L39.9295 56.1722L40.0203 55.7969L40.6155 55.7307L41.2034 55.1383L42.2596 55.05L42.3648 56.231L42.833 56.8749L43.3121 56.6468L43.479 56.8087L43.7439 57.2833L43.6568 57.9198L44.2194 58.858L44.8291 59.4062L45.1993 59.362L45.4606 60.0942L45.1194 60.4658L45.5404 60.8963L45.4969 61.2421L46.0231 61.2899L46.1865 61.5769L47.1736 61.301L47.3442 62.379L48.1681 62.9971L47.943 63.7329L48.0773 64.7815L47.8959 64.7116L47.9067 66.5806L47.9285 67.1141L46.651 67.6549L46.0631 67.2098L46.0812 66.6652L45.5513 66.3525L45.0287 66.4592L44.448 65.1972L43.6205 65.2892L43.3592 64.9139L42.7749 65.0022L42.5463 65.613L41.9765 66.0766L42.4991 66.6505L42.608 68.0192L42.0854 68.3062L41.7696 67.8683L40.9421 67.9787L40.953 68.5196L40.3215 69.0567L40.4522 69.6012L39.9912 69.7742L39.8497 68.9647L39.5376 68.9758L39.6465 68.6446L38.9968 67.563L38.4089 67.4783L37.1205 67.4011L36.6741 68.1112L36.9608 68.446L35.9664 69.5644L35.6034 69.2885L34.4384 69.3327L34.315 69.0162L33.9013 69.6454L33.3678 69.2627L33.0774 69.4026L32.8742 70.212L32.3988 70.4732L31.2809 69.5129L30.6095 69.443L30.2538 68.8838L29.6913 69.34L29.7058 70.0354L29.205 70.2046L29.7022 71.4077L29.43 72.1178L28.2759 72.7653L28.3593 73.5012L28.0037 74.0935L27.5355 74.0347L27.4266 74.8367L26.8967 74.5976L26.7443 74.7963V75.1642L27.2052 75.6462L26.7516 76.0987L27.0637 76.5034L26.7951 77.1325L27.325 77.5998L27.3431 78.3136L26.9149 78.8839L26.3995 79.0641L25.8442 78.6889L25.1764 79.2444L25.6519 79.4725L25.8551 79.7926L25.6991 80.0612L24.9841 79.8073L24.3925 80.1311L21.1261 79.0715L20.4221 79.4688L20.2515 80.0354L20.5818 80.5652L21.0572 80.5579L20.4947 81.1723L20.2043 81.073L20.2261 80.5248L19.3405 79.3143L19.6672 78.1701L18.7671 78.1333L18.4477 78.836L17.3952 78.6594L15.5153 79.4652L14.9527 79.3364L14.8366 79.8147L14.2414 79.4725L13.5772 79.7264L13.3159 78.9243L12.1327 79.0641L11.4722 78.251L10.9895 78.332L10.427 77.4784L9.94791 77.3165L9.60313 77.5078L8.49982 76.7499L7.52717 76.8934L7.06988 76.577L6.84486 75.4107L6.13714 74.9949L6.20247 74.6197L5.59275 74.0494L5.50928 73.5564L4.84874 73.251L4.95036 71.6947L5.98834 71.4887L4.67817 70.1531L4.27168 68.8176L4.6818 68.1921L5.26248 68.1296L5.69074 67.7028L6.01012 66.5328L6.34764 66.5033L5.99197 65.6203L6.24965 64.9838L6.71783 64.6233L8.38005 64.73L8.20585 64.0383L7.53443 63.6373L7.33481 62.4526L6.95011 62.0258L7.37111 61.117L7.05899 60.6976L5.7597 60.0905L5.28789 60.5688L4.41686 60.3996L3.29903 59.6306L3.24096 59.3032L2.32275 58.9389L2.39534 58.1736L2.18484 58.0449L2.5768 57.4783L2.0687 56.6762L2.31912 56.4739L2.19573 56.0471L0.87829 55.8962L0.653274 54.5165L0.319378 54.4209L0 53.6151L0.863773 53.0706L1.00895 52.6732L2.15943 52.7395L2.63487 52.1655L4.11563 52.7947L4.14829 53.0301L4.96851 52.7763L4.97214 51.93L5.94842 51.8933L6.10085 51.3377L6.97551 50.5577L7.44369 50.635L7.8901 50.3627L8.24214 50.7785L9.01881 49.8145L9.28375 49.8513L9.4761 48.8837L9.01518 47.6769L9.37085 47.6107L9.51965 47.0441L9.99872 46.7902L10.0023 46.2494L10.4524 45.5871L9.09502 44.8476L8.87001 43.9462L9.51239 42.6364L9.64305 43.685L9.96969 43.4348L11.0839 43.8285L11.9513 42.721L12.9675 42.6953L13.6498 42.3678L13.9982 42.6143L15.283 41.5694L15.6205 40.9918L16.0669 40.8483L16.7383 41.0212L17.4932 40.6055L18.2227 41.0654L18.2699 41.3855L18.7816 41.1426L19.4966 41.6209L20.3386 41.4811L20.5854 41.7056L22.3601 40.4289L23.3182 40.3553L23.6848 40.5944L23.9497 39.476L24.3853 39.3877L23.7247 38.0153L24.3272 36.9741L24.1965 36.5326L23.6086 36.3119L22.988 35.1713L23.242 33.3133L22.988 31.8196L23.2493 31.5694L23.2856 30.2338L23.8191 29.6525L25.3252 29.6967L25.7281 29.2662L25.7717 28.707L26.1927 28.4016L25.9495 27.6253L26.1455 26.8931L27.4956 26.573L27.6988 26.0469L28.392 25.679L28.3485 25.1308L28.6352 24.7113L28.138 23.5046L27.6044 22.8386L26.9838 22.5443L28.1416 21.378L28.6678 21.5399L29.4627 21.2198L29.7312 20.5097L30.428 20.197L30.4389 19.7003L31.3027 19.336L31.4733 18.7842L30.947 18.5266L31.2301 18.0704L31.593 18.041L32.3153 17.3346L33.7307 16.9482Z" fill="#0A170A"/>
<path d="M176.28 135.585L177.682 135.855L179.471 137.204L179.227 137.759L179.686 138.621L179.657 139.198L179.515 139.908L179.019 140.398L177.296 141.537L177.19 141.927L174.134 143.82L174.188 145.871L175.099 147.577L176.36 148.481L179.773 150.046L180.859 150.89L183.81 151.99L186.881 153.825L190.499 154.964L191.104 155.48L191.759 155.498L191.923 155.768L192.266 155.62L192.357 155.883L193.883 156.54L196.379 157.347L199.891 159.622L201.214 161.219L201.942 161.547L203.604 163.094L207.906 164.803L210.165 166.353L212.209 166.595L212.617 167.262L212.438 167.568L213.746 167.612L213.626 168.005L214.194 168.701L213.998 169.436L214.817 170.438L215.684 171.221L217.827 172.403L221.244 176.03L221.973 177.638L221.889 178.273L222.453 179.578L222.971 179.892L222.785 180.065L223 180.66L222.373 181.229L222.195 182.087L221.47 182.585L220.945 183.728L220.625 185.372L220.635 187.535L220.231 188.098L219.79 188.213L218.395 187.146L216.537 186.76L214.194 184.874L213.203 183.165L213.644 182.985L213.579 182.282L212.821 181.878L213.371 181.478L213.52 180.577L211.841 178.511L211.961 177.822L211.589 177.033L210.671 176.279L207.367 175.8L204.168 176.045L203.021 175.223L202.037 175.118L198.875 173.308L198.467 173.319L198.576 172.991L199.275 172.688L199.356 172.155L198.864 171.563L198.029 171.603L197.818 171.019L196.78 170.633L195.388 170.839L194.113 171.524L192.812 172.663L192.036 173.928L191.752 173.258L191.115 172.728L190.983 172.144L190.339 171.758L189.719 171.917L189.406 171.574L189.756 170.824L189.333 170.507L189.493 170.215L189.144 169.851L189.3 168.809L189.53 168.643L189.195 167.9L189.523 166.599L189.078 166.09L189.45 165.906L188.386 165.106L188.193 165.376L187.767 165.124L187.705 164.767L187.34 164.998L186.725 164.735L186.685 165.362L186.375 164.882L186.021 164.976L186.047 165.658L185.304 164.767L184.032 166.224L183.475 166.072L183.194 165.445L180.801 163.267L179.73 160.938L179.001 160.704L178.225 161.41L177.646 160.866L175.609 160.008L175.391 159.601L175.941 159.698L176.596 158.959L176.484 158.4L176.717 158.025L176.046 157.484L175.824 157.636L175.602 156.788L175.143 156.68L175.055 156.312L174.421 156.204L173.584 155.609L173.066 155.916L172.771 155.811L172.837 156.085L172.228 156.24L172.283 156.583L171.671 156.915L171.139 156.532L170.225 156.857L168.53 156.576L167.824 156.713L167.332 157.156L167.452 157.6L166.141 156.951L165.569 157.001L164.803 156.352L164.184 156.817L163.153 156.388L162.752 156.713L162.02 156.193L161.754 155.512L161.182 155.234L161.481 154.517L162.217 154.084L161.907 153.226L162.494 152.858L162.035 152.343L161.444 152.458L161.066 151.925L159.82 151.975L159.743 151.193L158.661 150.811L158.435 149.866L158.741 149.444L159.127 149.379L158.931 148.947L159.229 148.665L159.164 148.377L158.125 148.088L157.466 147.065L156.741 146.235L156.173 145.994L156.435 143.982L156.1 143.69L156.555 143.142L157.736 143.683L158.217 142.814L158.978 142.486L158.989 142.186L159.269 142.464L159.517 141.923L160.268 141.556L159.59 141.253L159.226 140.712L159.495 140.524L159.135 140.085L159.484 139.511L159.186 138.455L159.962 137.352L159.885 136.173L163.685 136.403L164.14 136.771L165.303 136.814L168.92 136.147L170.148 136.49L171.653 136.414L176.28 135.585Z" fill="#0A170A"/>
<path d="M32.8763 204.591L33.0741 204.938L33.8867 204.703L34.6489 205.993L34.239 208.025L33.6781 208.347L32.6714 206.413L32.47 205.382L32.8763 204.591ZM31.7293 202.953L31.6826 204.927L31.1001 205.064L30.6147 204.721L30.6327 204.11L30.079 203.781L30.9563 202.971L31.7293 202.953ZM57.9768 161.078L58.1745 161.263L57.2792 161.838L57.0887 161.689L58.081 160.869L57.9768 161.078ZM30.248 159.672L30.0466 159.878L30.0251 159.517L30.248 159.672ZM31.9774 156.184L32.0745 156.592L32.5204 156.892L32.2579 157.16L32.1968 157.868L31.2152 157.409L30.4314 158.504L30.6687 158.436L30.9635 159.021L30.7945 159.517L29.9675 159.412L30.3235 158.519L30.097 158.486L30.1545 158.082L30.6866 157.857L30.9995 157.279L31.3446 157.239L31.1505 156.534L31.9774 156.184ZM53.2055 153.172L53.5147 153.725L53.0688 154.477L53.3781 154.56L52.5511 154.687L52.943 153.125L53.2055 153.172ZM50.7857 152.937L51.1345 153.158L50.7533 153.497L50.7857 152.937ZM48.747 152.771L49.6531 153.519L49.3834 154.199L49.7645 154.6L50.6455 154.539L50.7425 154.076L51.192 154.025L51.3861 154.683L51.5911 154.737L52.303 154.745L51.9506 155.204L52.4037 155.283L52.7273 155.782L52.6661 156.838L53.2019 156.021L53.1012 155.605L53.9965 155.656L54.108 155.24L54.4387 155.688L54.2374 155.808L54.5898 155.829L54.4927 156.274L54.9709 156.252L55.0644 156.657L54.7048 157.207L54.5071 156.964L54.3668 157.098L54.4711 157.619L54.1727 157.807L53.8958 158.884L54.1727 158.87L54.2338 158.382L54.8666 158.19L54.676 159.003L55.1507 159.025L55.1363 158.729L55.3017 158.837L55.4779 158.551L56.7543 159.213L56.5026 159.481L55.7224 159.079L55.2262 159.509L55.4347 159.885L54.9709 160.511L55.0895 160.847L54.1116 160.703L53.7844 160.851L54.108 161.021L54.8702 161.039L55.1794 161.165L55.0428 161.313L55.3916 161.726L55.9237 160.984L56.3767 161.071L55.8446 161.751L56.65 162.152L56.4594 162.644L57.0599 162.51L57.8149 163.034L57.5525 163.237L57.1929 163.107L57.0455 163.457L57.2505 163.736L56.934 163.902L56.8837 164.357L57.7323 165.203L57.6747 166.187L58.3938 167.094L58.1745 168.02L58.4046 168.941L59.0662 169.563L59.1669 170.218L59.7637 170.594L58.6347 173.909L57.2181 175.123L56.0531 177.126V178.366L56.5457 179.83L57.272 180.81L58.0127 181.244L58.0055 181.844L57.1534 183.948L57.2109 184.714L57.6532 184.827L57.7287 185.098L57.0707 185.766L57.3367 186.912L56.8442 188.601L57.006 190.285L56.4163 191.742L56.6068 193.734L56.1574 195.339L56.4163 196.308L55.5282 199.02L55.6397 199.782L56.1718 200.22L55.6109 200.408L55.2262 201.001L54.8666 202.675L55.1722 203.137L54.7839 204.215H54.4172L54.0864 204.623L54.1331 205.093L53.7736 204.789V204.265L53.432 204.135L52.5619 204.432L49.9587 202.273L48.3623 201.937L47.5964 202.403L47.4239 203.022L46.5034 202.277L45.7375 202.617L44.8243 203.759L44.8063 205.259L45.3349 206.001L44.8854 207.711L44.6877 207.512L44.4252 207.645L41.8759 210.227L41.4229 210.209L41.0634 209.735L40.8296 210.042L40.3694 209.305L39.3699 208.73L39.3087 209.106L38.3164 209.352L38.4206 209.728L38.0287 209.927L38.2085 210.407L37.8993 210.512L38.0036 209.786L37.2665 209.825L37.5289 208.632L36.6157 207.797L36.4611 206.257L35.8642 205.91L34.8143 205.888L34.9797 205.22L34.7244 204.659L34.4943 204.442L34.0988 204.656L34.0844 203.604L32.8332 202.255L32.7972 201.901L33.8723 200.889L34.0628 200.39L33.786 199.41L33.2898 199.233L33.2179 198.615L32.9231 198.369L33.635 197.237L33.617 196.811L33.0813 196.457L33.1568 196.095L34.3829 194.273L34.71 192.943L34.3145 192.165L34.4727 191.435L34.2498 191.027L34.4332 190.448L34.2534 189.244L34.4979 188.941L35.1379 190.05L35.4184 190.029L35.5406 189.28L36.1231 188.283L36.2669 186.735L35.7204 185.734L34.8539 185.68L34.1671 186.388L33.3797 185.64L33.2898 184.017L33.6601 182.95L33.0058 182.567L33.4732 182.177L33.653 182.43L34.4224 182.191L35.084 181.482L35.1127 180.937L34.4763 179.158L34.9545 176.504L34.5303 175.687L33.8184 175.272L33.1172 175.232L33.0525 174.711L33.4624 173.497L32.9482 171.552L32.2974 171.32L31.5999 169.137L30.6255 169.332L30.5752 169.665L29.8417 169.683L29.8345 169.046L30.1042 168.858L29.7123 168.446L29.0615 169.477L28.8601 169.411L28.7558 168.331L29.4929 167.991L29.8812 166.841L29.3203 166.599L28.5437 165.71L29.1729 164.86L29.0722 164.159L29.5612 163.732L30.2228 161.903L29.3599 160.695L29.8633 159.828L30.4817 160.276L30.3918 161.31L31.8768 162.911L32.9734 163.132L33.7932 162.995L34.4907 163.508L36.4467 163.219L38.9024 161.223L40.7038 160.956L42.1924 159.253L42.1528 158.779L43.2602 158.11L44.738 156.093L45.3313 155.771L45.565 156.035L46.4962 155.855L46.7155 155.352L47.3196 155.327L47.6144 154.994L47.3412 154.304L47.5821 153.516L47.1182 153.436L47.1722 153.096L47.5497 153.353L48.0675 153.075L48.089 153.407L48.747 152.771ZM52.2275 152.532L52.7524 153.385L52.5978 153.801L51.5336 153.967L51.3718 153.512L51.9039 153.107L51.8572 152.709L52.1052 152.977L52.2275 152.532Z" fill="#0A170A"/>
<path d="M110.412 289.104L112.219 289.29L112.337 289.9L110.135 289.312L110.412 289.104ZM99.5795 258.81L100.441 259.248L100.662 259.113L101.402 259.734L101.446 260.595L100.927 261.201L100.235 261.154L99.0125 259.668L99.0456 259.099L99.5795 258.81ZM108.858 235.27L108.512 234.073L108.998 233.813L108.858 235.27ZM106.244 232.656L106.535 233.2L106.951 233.05L107.352 233.335L107.348 233.755L107.08 233.821L106.733 233.448L105.828 233.551L105.522 233.039L106.244 232.656ZM101.638 231.765L102.127 232.809L101.211 232.536L100.953 231.747L101.638 231.765ZM167.581 224.464L168.472 225.055L169.481 225.296L168.464 225.574L167.908 226.03L167.625 227.085L167.934 227.023L166.417 229.794L162.824 234.441L162.813 235.044L162.201 235.456L162.275 235.792L161.06 237.347L160.92 237.756L161.189 238.384L160.813 239.691L160.364 240.261L160.39 241.546L159.241 242.623L158.674 243.67L158.891 247.54L160.121 248.296L160.677 248.435L160.927 248.19L161.899 249.369L161.697 249.647L161.347 249.406L161.277 250.015L161.108 249.333L160.684 249.479L160.563 250.651L160.931 251.505L161.436 251.341L161.645 251.644L161.355 251.523L161.215 251.728L161.461 252.323L161.988 252.618L162.628 252.589L162.665 253.706L162.268 253.557L162.235 254.137L162.492 254.298L162.849 254.09L163.38 254.999L162.721 254.707L162.246 254.897L161.977 255.685L160.99 255.919L159.926 257.083L158.836 259.748L159.687 262.41L159.517 262.83L159.219 262.647L158.564 263.264L157.385 262.026L156.248 262.231L155.419 261.53L154.734 261.355L152.912 261.979L152.201 261.592L151.196 261.588L150.206 260.657L149.278 260.292L147.485 260.062L146.833 259.365L146.531 258.095L145.349 255.992L143.133 253.765L141.296 252.907L139.488 252.509L137.551 252.553L136.373 252.863L135.817 252.706L134.823 251.702L133.464 251.582L131.763 250.538L131.413 249.764L129.767 248.424L129.208 248.566L128.928 248.259L127.787 248.227L126.899 247.307L125.397 246.569L124.911 245.996L124.44 245.963L124.049 245.091L122.418 243.521L120.739 243.24L119.668 243.492L118.578 241.867L117.731 241.579L115.132 241.487L113.155 241.973L111.895 240.074L111.096 239.571L110.242 239.625L109.425 238.687L109.355 237.632L108.457 236.292L109.175 235.883L109.594 234.566L109.071 233.781L109.834 232.722L109.76 231.988L110.217 231.787L109.672 231.203L110.228 231.064L111.207 229.962L111.829 230.075L112.488 229.816L112.934 229.374L112.89 228.965L113.84 229.002L114.337 228.29L113.928 227.49L114.226 227.103L114.351 227.414L114.933 227.348L114.951 228.009L115.349 228.396L115.334 228.98L115.75 229.714L117.429 231.002L119.086 230.55L120.773 229.509L120.301 228.304L120.662 228.22L120.905 227.764L120.758 227.516L121.354 227.016L122.923 227.567L123.7 227.253L123.862 226.757L124.506 226.851L125.309 226.267L125.552 226.881L126.24 227.29L126.428 228.074L126.155 228.491L126.542 229.027L127.753 229.363L128.582 229.162L128.91 228.753L129.458 228.907L129.469 230.002L130.04 230.652L132.779 232.119L133.803 232.276L135.618 231.787L137.209 230.856L138.63 230.579L139.455 231.119L140.254 231.203L140.949 230.853L143.604 231.378L145.217 231.17L146.233 230.604L147.234 230.754L150.261 229.794L152.323 227.611L153.118 227.943L155.003 227.447L155.456 226.987L156.524 227.917L157.916 227.921L158.225 228.498L158.947 228.644L160.379 227.863L161.207 226.932L161.627 225.771L161.307 225.103L161.616 225.081L161.874 225.639L161.675 226.41L162.503 226.64L164.617 226.067L166.936 224.515L167.581 224.464ZM156.285 221.635L156.98 222.164L157.091 222.788L156.708 222.854L156.082 222.456L155.872 221.788L156.259 221.295L156.447 221.478L156.285 221.635ZM156.325 219.181L156.332 219.889L156.667 220.127L156.196 220.28L156.159 221.134L155.095 220.025L155.401 219.229L156.325 219.181ZM144.992 218.4L144.97 218.918L144.65 218.937L144.606 218.517L144.992 218.4ZM153.663 217.717L154.609 217.761L154.598 218.809L154.307 218.875L153.177 218.232L153.38 217.714L153.663 217.717ZM148.512 217.666L149.035 217.768L149.359 218.374L148.611 218.301L148.343 217.871L148.512 217.666ZM158.475 216.246L158.442 216.622L158.1 216.735L158.151 216.297L158.475 216.246ZM122.952 214.614L123.111 214.72L122.838 215.034L122.208 215.089L122.337 214.643L122.717 214.446L122.952 214.614ZM161.299 212.296L161.627 212.537L161.064 213.234L160.581 212.76L161.299 212.296Z" fill="#0A170A"/>
<path d="M69.0347 124.851L69.3519 125.506L69.0716 125.772L68.6991 125.71L68.6401 124.927L69.0347 124.851ZM79.8527 123.849L80.5793 124.589L80.4982 125.688L79.7716 124.8L79.4691 124.752L79.8527 123.849ZM64.6161 118.068L65.0144 118.836L64.7747 119.375L63.9559 119.018L64.4833 118.774L64.6161 118.068ZM71.008 111.78L71.4986 112.29L71.2146 113.065L71.3326 114.037L70.4031 114.533L71.3068 115.152L71.1039 115.836L70.1929 115.545L69.8536 114.551L69.5695 114.416L69.1196 114.503L69.1454 115.112L68.8134 114.529L68.5073 115.133L67.6848 114.773L67.6036 115.374L66.6004 115.104L65.9918 115.199L66.0619 115.392L65.3943 114.988L65.0144 114.351L65.0513 113.775L65.73 113.262L66.7811 113.236L67.718 113.801L67.7807 113.513L68.1753 113.411L68.0426 113.204L68.2823 113.033L68.0573 112.727L69.3962 113.044L69.1159 113.397L69.8167 113.52L70.8015 111.696L71.008 111.78ZM59.9134 106.774L60.1679 107.495L59.4929 108.376L59.1536 107.892L59.3417 107.054L59.7954 106.581L59.9134 106.774ZM105.313 87.8308L105.343 87.8891L105.454 88.2896L104.65 88.701L104.144 88.1221L104.244 87.7143L105.265 87.7216L105.313 87.8308ZM57.0881 73.395L58.4159 72.6341L59.6737 70.6826L61.6469 70.4678L62.5469 70.7845L62.7313 71.236L63.1186 71.3161L62.9194 72.2736L63.3362 72.7324L64.9148 73.8028L65.8148 73.6171L67.8913 75.787L68.7692 75.3538L69.5769 75.8016L70.1671 75.8125L71.2551 76.9193L71.8711 76.8137L72.3211 77.0577L72.3026 77.5601L72.9444 78.1426L73.0329 78.707L74.2943 79.8174L74.9103 79.6645L74.8845 79.1766L75.2533 78.7288L77.3077 78.7761L79.1408 80.2434L79.9818 80.4291L80.2326 80.7604L80.1146 81.1062L80.358 81.2155L82.1505 79.2276L82.2981 79.5589L82.0731 79.9375L82.6448 80.3562L83.6628 80.4727L84.8947 79.9448L86.0344 80.2689L86.9712 80.2106L86.879 79.8174L85.7983 79.1985L85.8389 78.8562L87.3106 78.8053L88.1515 78.0516L88.2253 77.662L89.1437 77.5674L90.051 76.6972L90.5416 77.1378L90.667 77.9205L91.1833 78.0589L91.8214 78.7761L92.2677 78.8708L92.6476 78.5067L93.6066 78.6997L93.6804 79.0783L93.1455 79.8429L94.1267 79.974L96.1442 79.5735L96.0188 80.5528L95.27 81.3502L95.1114 82.0747L94.4918 82.3077L94.5656 82.7046L94.3184 82.6718L94.2262 83.0905L95.0266 83.8478L94.9049 84.4412L95.5762 84.8854L95.4766 85.9995L96.797 86.7277L97.5347 87.6051L99.2572 87.6816L99.449 88.1549L99.9469 88.2204L100.024 88.5736L100.629 88.9559L101.02 88.8029L101.559 89.1306L101.898 89.0396L102.307 89.502L102.942 89.1743L103.466 89.2326L103.997 88.9413L104.568 89.7823L104.875 89.0651L105.627 89.2034L106.232 88.8794L106.295 88.9267L107.088 89.2398L107.932 90.3612L107.158 90.3685L107.268 91.1622L106.929 91.1403L106.704 89.786L106.542 90.9219L106.088 91.1622L105.55 91.0602L105.623 91.3552L105.277 91.7374L104.425 92.0396L104.959 92.8515L104.045 93.9911L103.761 94.9341L102.953 94.8685L102.75 95.0724L102.687 95.7132L103.65 96.2521L103.613 96.4559L102.827 96.7836L102.455 97.4026L102.053 97.2788L101.422 97.9123L101.544 98.2764L102.333 98.1963L102.374 99.1647L102.901 98.9681L103.141 99.1866L103.514 100.02L103.296 100.643L103.443 100.971L104.266 101.276L104.598 100.464L105.166 100.923L102.706 102.445L101.894 101.997L101.592 102.132L101.776 102.616L101.411 103.61L99.5006 104.721L99.3199 105.201L99.6444 106.09L99.5227 106.534L99.8141 107.105L100.124 106.723L100.592 107.218L99.6998 110.804L100.102 111.077L100.157 111.736L99.685 111.766L98.9658 112.618L98.0511 112.567L97.4536 112.956L97.2655 113.688L97.0073 113.207L96.5647 113.036L96.1368 113.925L97.531 115.002L97.1474 115.862L96.6937 115.858L96.845 116.812L97.2322 116.987L97.2618 117.38L96.7454 117.715L96.2401 117.646L95.9044 118.425L95.4286 118.334L94.8754 118.738L94.8016 119.131L94.1598 119.451L93.8611 119.368L93.614 119.692L93.1935 119.309L92.9648 119.43L93.1308 120.07L92.6255 120.777L93.6545 121.472L93.6877 122.721L91.1797 122.75L90.4973 124.261L87.4101 123.551L86.9786 123.205L85.9717 123.467L86.0196 124.006L85.6545 124.181L85.5697 124.625L84.8984 124.68L84.3968 124.061L83.7992 123.875L83.637 122.936L83.9984 122.488L84.3119 122.805L85.1381 122.735L85.5106 121.985L85.625 120.849L84.9869 119.55L84.3377 119.681L83.9763 118.632L83.5706 118.243L83.648 117.886L82.121 117.241L81.778 115.887L80.9629 115.053L79.3289 114.405L78.0786 114.26L76.9426 113.524L77.6212 113.113L77.6729 111.784L78.0011 111.314L77.7577 110.779L77.0975 110.291L75.9172 109.749L74.8623 109.636L73.4866 109.847L73.3427 110.491L72.4907 110.207L72.2731 108.773L72.8964 108.482L73.3095 106.221L73.0661 102.172L72.6346 101.116L71.8379 100.293L71.1629 98.3091L70.7646 98.2727L70.3404 97.1222L69.3741 96.4013L68.7765 94.8249L68.8946 93.9656L68.2085 91.1549L68.4298 90.8345L68.3376 89.3746L67.659 86.1961L65.8 83.3963L64.2804 82.0674L63.4838 81.6888L64.3063 80.764L64.4058 80.2616L63.5317 79.7264L62.8752 80.2725L63.0559 79.8247L62.7092 79.3186L62.6391 78.4594L61.1896 78.5103L61.6469 77.7895L61.9236 77.7676L61.3814 77.3963L60.6142 78.0334L60.7728 77.0395L60.474 76.7846L60.4409 75.8489L59.4856 75.463L57.9992 74.3234L57.6266 73.3841L57.0881 73.395Z" fill="#0A170A"/>
<path d="M104.537 0.160853L105.171 0.658033L104.746 0.957804L104.548 1.7511L103.461 1.86443L102.978 2.32871L103.289 3.71789L103.875 4.27356L103.399 4.97546L104.23 5.13266L104.757 5.98079L105.258 5.58963L105.903 5.73951L106.481 6.91666L106.067 7.59297L106.045 8.44111L107.37 8.67873L107.871 10.2361L109.716 11.2999L108.816 11.6362L108.205 12.3198L107.882 12.2467L108.022 12.7329L107.835 12.9011L107.374 12.923L107.103 12.5977L106.009 12.9413L105.566 12.6635L104.343 13.6323L104.303 12.8061L103.736 12.4478L103.432 12.5538L101.994 11.4315L102.104 12.2833L101.551 13.263L101.613 13.8077L100.713 15.2408L100.501 14.9593L100.076 14.9812L99.6442 15.4126L99.0696 15.2956L97.2873 16.1949L97.2433 16.7945L98.3669 16.948L98.5865 17.4562L97.7447 18.4505L97.6459 19.7885L97.3495 19.518L96.4858 20.0408L97.5508 20.9328L97.763 21.4446L97.5178 22.1392L97.807 22.3951L98.5975 22.2123L98.7585 22.9215L98.9927 22.7716L99.4356 22.9873L99.1465 23.7075L100.036 24.5191L99.8126 25.104L99.41 24.9431L98.7841 26.3871L97.2507 26.9209L96.4345 26.8331L96.16 27.1183L95.9185 26.8368L94.9157 27.1548L94.912 27.8933L95.2524 28.4526L94.4985 28.6756L94.7693 28.9242L94.5021 29.2203L94.9193 29.9588L94.5863 30.6424L93.0455 30.5328L92.8479 29.5055L92.1562 29.2861L91.3693 29.3922L90.3665 30.222L89.0417 30.1379L89.1807 31.1798L88.7086 31.2383L88.4598 31.8013L88.5878 32.1632L87.6802 31.6733L87.6546 31.3882L87.6619 31.8854L86.7762 31.8196L86.4615 33.6145L85.6014 34.6491L85.821 35.5119L85.2537 35.457L85.3013 36.7731L84.3864 38.0051L83.8008 37.9283L83.0944 37.2557L82.4942 37.5774L82.3332 37.1496L81.6598 38.1184L81.4805 37.7382L80.9315 38.356L80.3862 38.0161L80.6241 37.5993L79.8738 37.2301L79.0723 37.2264L79.8738 35.7532L79.5883 35.2011L80.0568 34.799L79.0759 34.1921L77.6266 33.9107L77.4839 34.2287L77.0191 33.8668L75.5515 34.1629L75.3759 34.9489L74.6549 34.9708L73.868 35.4607L73.3849 35.4132L73.2348 35.0951L73.4874 34.587L72.6639 34.236L72.4736 32.6604L72.8066 31.8927L72.3309 31.1652L72.3894 30.4231L71.7526 30.3061L71.7343 29.9405L71.9429 29.2715L72.3821 28.9242L72.2504 28.2296L73.4691 26.7417L73.8094 25.1259L73.4215 24.5446L74.2523 23.0239L74.0656 22.2452L73.7692 22.0734L74.0912 21.6091L73.8717 20.8706L72.9055 20.4063L73.8534 19.4778L74.5743 19.4339L75.1197 18.8636L74.8122 18.3591L74.8964 17.5549L74.5194 17.0577L73.5533 16.4106L72.1735 16.301L71.7563 15.3176L72.1223 14.9922L72.448 13.1387L71.6135 12.3783L70.7754 12.4917L70.468 11.1573L71.0316 10.4591L70.7571 9.81932L71.5586 9.18322L71.1121 8.2437L71.6392 7.95124L72.1735 6.43776L72.5834 6.76678L73.6082 6.69366L73.4727 7.01537L75.7016 5.97714L76.1993 6.25863L76.1957 6.62786L77.3558 7.09945L77.5205 7.39556L76.88 8.36068L77.3705 8.44476L77.967 8.14499L78.4794 8.70066L78.9112 8.52153L79.8189 9.05162L80.4264 8.73357L82.3478 8.93829L82.6919 7.89275L83.53 7.45406L83.303 6.56206L83.8264 5.60425L83.7752 4.94622L84.1045 4.47097L84.584 4.53678L85.0158 4.21507L85.0671 3.5022L85.5246 3.36694L85.8613 3.58994L87.973 2.77471L88.2841 2.98674L88.6757 2.81492L89.5504 3.52779L90.2348 3.23899L90.9667 2.24463L92.0391 3.01964L93.5762 2.20076L94.4106 2.75643L95.289 2.77836L95.6074 3.29748L95.9844 3.4035L96.6358 2.8003L97.6569 2.75277L99.1282 1.61949L99.7174 1.59025L100.241 1.16984L101.057 1.2393L101.423 0.837165L102.093 0.906624L102.51 0.380197L102.901 0.522771L104.138 0L104.537 0.160853Z" fill="#0A170A"/>
<path d="M109.059 93.351L108.867 93.1378L108.797 93.1158L108.886 92.8658L109.129 92.9798L109.166 93.1746L109.059 93.351ZM104.99 92.807L105.252 93.2371L106.392 93.2224L106.521 93.4282L107.288 92.8107L107.982 92.7666L107.794 93.0533L107.971 93.5825L106.894 94.5749L107.395 95.0968L107.923 94.8285L108.392 95.4643L108.915 94.6962L109.281 94.744L109.587 95.2659L109.926 95.2843L110.033 94.9682L110.369 95.1225L112.716 97.8019L113.502 97.3278L114.324 97.6292L114.811 96.6405L115.579 96.8463L115.442 97.5851L115.774 97.8938L115.11 98.5149L115.129 98.8237L115.966 99.9116L116.107 100.981L115.878 101.238L116.571 101.731L116.819 102.988L117.331 103.242L117.28 104.307L116.682 104.877L116.929 105.443L117.693 105.597L117.903 106.226L117.815 107.244L118.092 108.02L117.771 108.262L118.117 108.979L117.911 109.526L118.903 110.118L118.977 110.438L119.387 110.486L119.431 111.971L119.877 111.471L119.885 110.842L120.364 111.125L120.881 110.614L121.991 111.46L122.914 112.908L123.899 112.684L124.36 112.015L124.88 113.345L124.788 114.014L124.449 114.712L124.309 114.429L123.6 114.716L123.508 115.451L123.231 117.09L122.74 117.561L122.143 117.326L122.124 117.612L121.091 118.245L120.331 117.848L120.069 118.41L118.87 118.395L118.579 118.752L117.837 118.388L117.623 118.818L117.852 119.755L117.081 120.001L116.398 120.6L115.642 120.564L115.579 121.053L114.45 121.376L114.955 122.126L113.852 122.85L113.409 122.868L113.081 122.188L112.642 122.218L112.561 123.644L110.963 124.879L110.642 124.511L110.661 123.894L109.318 124.088L109.675 123.567L108.831 123.276L108.838 122.519L109.089 122.434L108.816 122.185L108.908 121.501L108.366 121.442L107.628 122.038L107.174 121.574L106.484 121.655L106.739 121.486L106.178 121.192L106.454 120.946L106.071 120.634L106.148 119.917L105.532 119.63L105.329 117.987L104.713 117.23L104.115 116.98L103.606 117.418L103.359 117.34L103.315 117.616L102.942 117.223L101.584 117.704L100.057 116.763L99.5807 115.988L100.263 115.606L100.636 114.878L99.6102 114.22L99.0125 112.794L99.7319 111.934L100.204 111.904L100.149 111.239L99.7467 110.964L100.64 107.343L100.171 106.843L99.8611 107.229L99.5733 106.652L99.695 106.204L99.3703 105.311L99.5511 104.826L101.462 103.705L101.831 102.701L101.647 102.216L101.953 102.084L102.765 102.536L105.226 101L104.658 100.536L104.326 101.356L103.503 101.047L103.359 100.717L103.577 100.088L103.204 99.2463L102.964 99.0258L102.44 99.2243L102.4 98.2466L101.61 98.3275L101.488 97.96L102.119 97.3204L102.521 97.4454L102.894 96.8206L103.68 96.4898L103.717 96.284L102.754 95.74L102.816 95.0931L103.019 94.8873L103.827 94.9535L104.112 94.0015L104.99 92.807Z" fill="#0A170A"/>
<path d="M18.199 30.3281L18.4123 30.7667L19.8169 30.5643L20.1515 31.1191L20.6369 31.3216L20.8723 32.0451L21.4606 31.614L22.3688 32.2176L22.7991 31.9701L23.5602 32.2438L23.8176 33.7659L23.5602 35.659L24.189 36.8212L24.7847 37.0461L24.9171 37.496L24.3067 38.5569L24.9759 39.9553L24.5346 40.0452L24.2662 41.1849L23.8948 40.9412L22.9241 41.0162L21.126 42.3171L20.8759 42.0884L20.0229 42.2308L19.2985 41.7435L18.78 41.9909L18.7322 41.6648L17.9931 41.1962L17.2283 41.6198L16.548 41.4436L16.0957 41.5898L15.7537 42.1784L14.4521 43.243L14.0991 42.9919L13.4078 43.3255L12.3782 43.3518L11.4994 44.4802L10.3705 44.079L10.0396 44.334L9.90718 43.2655L9.25633 44.6001L8.25616 44.4539L8.35544 43.8429L7.32953 43.558L7.24496 41.661L6.89564 41.2861L7.32586 39.8653L6.68604 39.4717L5.73 39.5391L5.53879 38.9956L4.6379 38.6507L3.71128 37.5597L3.84733 37.1099L3.56787 36.0039L3.93926 34.4519L4.37683 34.3244L4.74086 34.5644L5.00929 34.1183L5.66749 34.3507L6.21538 34.1745L6.41026 33.7883L7.25967 33.4847L7.37734 32.7124L8.13482 32.0601L9.29678 33.8596L10.2418 33.2785L10.9257 33.8408L11.3817 33.0498L12.1649 33.0273L12.8378 32.1201L14.5734 32.8099L16.2097 31.7602L16.195 31.3891L16.6914 30.9954L17.5077 31.1529L17.618 30.3544L18.199 30.3281Z" fill="#0A170A"/>
<path d="M110.92 58.1118L110.426 58.3957L110.77 58.0086L110.44 57.8722L111.026 57.8058L110.92 58.1118ZM110.319 57.3377L110.755 57.6694L109.887 57.8648L110.114 57.2197L110.319 57.3377ZM110.184 11.5957L111.224 12.3146L113.254 12.1081L114.012 12.3809L114.338 12.7828L114.268 13.4463L114.623 14.0583L114.367 14.8951L114.689 15.3227L113.755 15.3449L112.488 16.1485L112.444 16.495L112.895 16.79L113.041 17.4314L112.374 17.1439L111.993 17.4351L111.316 17.1439L110.741 17.6047L110.591 17.4462L110.048 18.1982L109.946 18.8433L109.213 19.4922L109.33 20.0046L109.111 19.905L109.177 20.1262L108.506 20.4691L108.385 21.2138L107.686 21.1142L107.305 21.4239L107.32 22.1575L106.66 22.8542L107.437 23.9049L108.199 23.9012L108.294 24.4837L108.968 24.4468L109.078 25.232L109.964 25.9509L109.799 27.2707L108.737 27.9932L108.089 29.0291L108.426 29.324L108.686 30.2825L108.693 31.5617L109.217 31.5765L109.602 32.1331L110.144 32.1368L110.605 33.8068L111.114 34.2713L111.037 34.7137L111.77 35.1008L112.019 34.5109L112.473 34.7542L112.517 35.086L112.928 35.2777L112.946 35.8749L114.367 34.5515L114.612 34.8021L115.338 34.028L115.752 34.3376L115.594 34.7063L115.825 34.9754L116.026 34.592L116.821 34.1939L117.056 34.2197L116.909 34.6252L117.367 35.0455L117.924 34.6989L118.103 35.1008L118.671 34.9164L118.506 34.3966L118.722 34.3082L118.935 34.8906L118.92 35.0049L119.067 35.1413L119.004 35.4436L119.305 35.5726L118.905 35.8086L119.649 36.5201L119.47 36.6159L119.708 37.0951L119.579 37.5265L119.935 37.2647L120.144 38.249L120.433 38.3227L120.297 38.6177L120.667 38.9163L120.605 39.4029L120.964 39.3587L120.92 39.5835L121.312 39.8047L121.107 40.0886L119.305 40.2139L119.338 39.9374L119.004 39.8084L118.829 40.3098L117.73 40.4535L117.382 40.9291L115.089 42.3705L109.257 45.1022L108.697 45.8284L108.085 45.5188L107.382 46.4699L106.854 47.5058L106.818 47.9039L107.122 48.0477L106.726 48.1952L106.155 50.5877L106.653 50.7425L106.257 51.137L106.466 52.066L106.935 52.6005L106.829 54.5544L107.356 55.0041L107.935 56.1469L107.748 56.0216L107.455 56.3718L107.788 56.5782L108.103 56.346L108.015 56.7552L108.202 56.8068L108.404 56.6925L108.243 56.0437L108.422 56.0548L109.997 58.0344L109.755 59.6823L109.363 60.0435L109.378 61.0942L108.792 60.8914L108.917 59.8371L108.543 59.6749L108.206 59.815L107.931 60.4491L108.25 60.8509L108.111 61.614L108.396 61.8573L108.635 61.6914L108.657 61.9568L108.173 61.9089L108.133 62.4398L107.25 61.7319L107.03 60.9283L106.301 60.7403L106.067 60.3901L105.946 59.3247L106.177 58.8675L105.873 58.4694L105.477 58.4731L104.942 58.9486L104.155 58.886L103.858 58.4989L103.316 58.8565L102.477 57.721L100.023 57.3266L99.2171 57.6141L96.9204 57.5846L95.8508 58.086L95.5797 58.9044L94.4113 59.2362L93.675 59.9366L93.2208 59.9809L92.9607 59.8924L92.8032 59.2952L92.034 58.7754L89.9461 58.9155L89.8875 58.3662L89.8033 57.9865L86.8802 56.4087V55.5018L86.3601 55.8151L85.2136 55.3875L85.4297 54.7903L85.2795 54.418L85.7447 54.0419L84.6458 53.629L84.3052 54.2484L83.807 53.9793L83.7191 54.4474L83.2795 54.3663L82.4297 53.6475L82.7814 52.9544L82.4627 52.7517L81.8729 52.8696L82.0121 52.2392L81.7228 51.7895L80.6715 51.3102L80.7081 50.831L80.0415 50.654L80.0012 50.4034L79.0342 50.1859L78.6239 49.3195L77.906 48.6117L77.0232 49.3527L76.8364 48.9878L76.2906 48.8477L76.5397 48.1436L76.177 47.5943L76.6532 47.2367L76.3016 46.9602L76.6532 46.0128L75.7521 45.5962L75.4957 45.8948L75.1917 45.8284L75.3419 45.0985L74.928 40.7669L78.9902 34.6842L79.9719 35.2961L79.503 35.7017L79.7851 36.262L78.9865 37.7477L79.7851 37.7513L80.536 38.1274L80.2979 38.5439L80.8437 38.8868L81.3894 38.2638L81.5689 38.6508L82.2466 37.6702L82.4077 38.1016L83.0085 37.7771L83.7154 38.4555L84.3015 38.5329L85.2172 37.2905L85.1696 35.9634L85.7374 36.0187L85.5176 35.145L86.3784 34.1017L86.6971 32.2953L87.5835 32.3617L87.5762 31.8603L87.6018 32.1479L88.5102 32.6419L88.382 32.2806L88.6311 31.7129L89.1036 31.6539L88.9681 30.6069L90.2941 30.6917L91.2977 29.8586L92.0853 29.7517L92.7776 29.9728L92.9754 31.0088L94.5175 31.1193L94.8508 30.43L94.4332 29.6853L94.7006 29.3904L94.4332 29.1397L95.1878 28.9185L94.8471 28.3508L94.8508 27.6061L95.8545 27.2854L96.0999 27.5693L96.3709 27.2854L97.1914 27.3739L98.7226 26.8356L99.3489 25.3795L99.7519 25.5417L99.9716 24.9518L99.0852 24.1334L99.3746 23.4072L98.9313 23.1934L98.6969 23.3445L98.5358 22.6294L97.7446 22.8137L97.4552 22.5556L97.7043 21.8589L97.4918 21.3391L96.4222 20.4433L97.2867 19.9124L97.5834 20.1852L97.6823 18.836L98.5248 17.8369L98.3087 17.3245L97.1805 17.1697L97.2244 16.5614L99.0083 15.6545L99.5834 15.7762L100.012 15.3412L100.437 15.3154L100.649 15.5992L101.554 14.1541L101.492 13.6085L102.049 12.6169L101.935 11.7579L103.378 12.8933L103.682 12.7864L104.25 13.1477L104.29 13.9809L105.514 13.0039L105.957 13.2841L107.048 12.9376L107.323 13.2657L107.785 13.2436L107.972 13.074L107.832 12.5874L108.151 12.6611L108.763 11.968L109.667 11.6289L110.184 11.5957Z" fill="#0A170A"/>
</svg>
