<svg width="241" height="234" viewBox="0 0 241 234" fill="none" xmlns="http://www.w3.org/2000/svg">
<path d="M111.646 233.8C111.038 233.708 110.516 233.412 110.479 233.153C110.446 232.888 110.403 232.488 110.377 232.259C110.312 231.7 107.497 229.235 105.65 228.117C104.718 227.558 103.971 226.699 103.665 225.84C103.389 225.081 103.018 224.458 102.841 224.458C102.667 224.458 102.526 224.199 102.526 223.881C102.526 223.56 102.144 223.037 101.679 222.704C101.218 222.383 100.953 221.922 101.1 221.686C101.265 221.421 101.126 221.351 100.741 221.495C100.285 221.674 100.12 221.471 100.12 220.763C100.12 220.151 99.4289 219.072 98.2699 217.854C96.358 215.87 95.5375 213.43 96.4025 212.33C96.623 212.054 96.917 211.336 97.064 210.734C97.2085 210.134 97.8675 209.24 98.5229 208.751C99.947 207.7 99.9879 207.312 98.8759 205.429C98.4109 204.641 98.1374 203.727 98.2699 203.382C98.3988 203.047 97.7615 201.235 96.8495 199.37C95.6194 196.836 94.6231 195.446 92.9437 193.912C90.9173 192.065 88.8848 189.27 88.8848 188.326C88.8848 188.135 89.1583 187.967 89.4872 187.967C89.8956 187.967 90.0932 187.549 90.1016 186.667C90.1101 185.949 90.3775 185.014 90.704 184.584C91.751 183.196 91.1329 180.351 90.0221 181.454C89.7486 181.733 89.2932 181.954 89.0017 181.954C88.2632 181.954 88.3547 180.777 89.1198 180.486C90.2811 180.039 88.8342 179.559 86.2789 179.548C84.9549 179.542 83.6694 179.401 83.4224 179.242C83.1755 179.074 82.496 178.008 81.9225 176.862C81.0045 175.041 80.672 174.738 79.3576 174.491C77.3396 174.113 74.8638 174.117 71.2363 174.506C68.4159 174.813 68.0979 174.762 66.2208 173.756C64.6679 172.927 63.4415 172.632 60.8054 172.46C56.902 172.197 56.5755 171.991 53.0697 167.518C51.9432 166.085 50.1987 164.155 49.1964 163.224C47.9988 162.112 47.5229 161.426 47.8169 161.218C48.5349 160.718 47.9904 158.502 46.829 157.196C46.2435 156.537 45.5351 155.662 45.258 155.25C44.9785 154.829 44.3845 153.947 43.9376 153.291C43.3352 152.397 43.2027 151.779 43.4171 150.885C43.5786 150.22 43.7255 148.782 43.7352 147.679C43.7496 146.399 43.9882 145.461 44.3942 145.073C45.2387 144.273 46.0676 142.267 45.5556 142.267C45.3411 142.267 45.164 141.726 45.164 141.061C45.164 140.402 45.3194 139.861 45.511 139.861C45.7026 139.861 45.8375 140.177 45.8134 140.561C45.705 142.138 46.5049 141.532 46.6519 139.924C46.7603 138.761 46.6724 138.267 46.3905 138.447C45.8556 138.773 45.8495 138.861 46.5664 135.453C47.0543 133.125 47.4868 132.225 48.8759 130.613C49.8144 129.523 50.8963 128.534 51.2818 128.411C51.6697 128.287 51.9818 127.923 51.9818 127.593C51.9818 126.528 53.1998 125.125 54.3226 124.902C54.9467 124.776 55.6671 124.234 55.9756 123.661C56.402 122.867 56.7309 122.693 57.4574 122.873C58.0369 123.023 58.4019 122.935 58.4019 122.649C58.4019 122.396 58.626 122.222 58.9019 122.27C59.1778 122.314 59.6754 122.236 60.0055 122.095C60.3344 121.956 61.0789 121.673 61.6524 121.462C62.4584 121.168 62.756 120.721 62.9499 119.538C63.2885 117.406 65.6968 114.955 68.0702 114.326C70.3207 113.732 72.0001 111.653 71.723 109.794C71.6025 108.961 71.3206 108.59 70.811 108.59C70.4086 108.59 69.9701 108.408 69.8339 108.19C69.6954 107.97 69.2364 107.788 68.8051 107.788C67.881 107.788 67.8461 107.464 68.6436 106.403C69.0207 105.905 69.1496 105.172 69.0026 104.391C68.8207 103.411 69.0231 102.838 69.9966 101.614C71.27 100.014 72.029 97.9463 72.035 96.0777C72.0374 95.1428 72.27 94.9272 73.6819 94.5453C75.0469 94.1802 75.4433 94.2103 76.0168 94.7308C76.3987 95.0754 76.9782 95.3573 77.3023 95.3573C77.6287 95.3573 78.0697 95.5392 78.2877 95.7548C78.5022 95.9693 79.5792 96.4223 80.6732 96.7548C82.5851 97.3367 82.6972 97.3283 83.3562 96.5367C83.7357 96.0813 84.1646 95.0862 84.3031 94.3308C84.6055 92.7249 84.2031 90.1515 83.6501 90.1515C83.4417 90.1515 83.2682 89.9009 83.2682 89.5901C83.2682 89.2817 82.9972 88.9287 82.6658 88.7985C82.3153 88.6636 82.0659 88.0636 82.0659 87.354C82.0659 86.2071 82.1538 86.1396 83.6369 86.1396C84.5043 86.1396 85.3103 86.3661 85.4404 86.642C85.5669 86.9179 85.5585 86.7071 85.426 86.1806C85.2344 85.4216 85.3175 85.2686 85.8055 85.4565C86.1464 85.5891 86.4994 85.4806 86.597 85.2156C86.7114 84.8867 87.0211 84.9602 87.5825 85.4626C88.3596 86.1505 88.48 86.1541 89.9474 85.5095L91.4943 84.8277L90.0884 84.4771C89.3173 84.2855 87.3319 84.059 85.6765 83.9711C84.02 83.8891 82.3502 83.7976 81.9671 83.7771C80.8792 83.712 81.1406 83.0627 82.3647 82.7892C82.9731 82.6543 83.8296 82.2627 84.273 81.9218C84.9236 81.4158 84.9669 81.2363 84.514 80.9543C83.7754 80.5014 84.2525 79.3279 85.179 79.3279C85.7139 79.3279 85.9055 79.0303 85.8934 78.228C85.8814 77.2605 86.0175 77.1401 86.9789 77.2425C87.956 77.3425 88.0764 77.228 88.0379 76.2389C88.0114 75.557 87.9198 75.3944 87.809 75.8184C87.709 76.2064 87.35 76.5184 87.0114 76.5184C86.6319 76.5184 86.4825 76.2919 86.6199 75.9245C86.8114 75.4269 86.7199 75.41 86.0609 75.822C85.6284 76.0955 85.273 76.6931 85.273 77.1569C85.273 77.6184 84.9585 78.2749 84.5706 78.6123C83.7586 79.3207 80.4202 79.8942 79.2528 79.5243C78.0588 79.1448 78.1998 77.4184 79.4708 76.8365C80.0768 76.563 80.4057 76.1509 80.2792 75.8245C79.9648 75.0064 81.2671 73.2306 81.9828 73.5005C82.3092 73.6294 82.9116 73.4354 83.3128 73.068C83.7369 72.6861 84.4453 72.4885 85.0043 72.5945C85.6488 72.7186 86.1187 72.5294 86.4283 72.0415C86.7138 71.5861 86.7343 71.3066 86.4837 71.3066C85.7717 71.3066 86.0488 70.5066 86.7837 70.4597C87.4512 70.4127 87.4512 70.4042 86.7837 70.2307C85.8392 69.9838 85.8982 69.5428 87.0283 68.3224C87.9993 67.2719 89.2896 66.949 89.2896 67.7514C89.2896 68.0694 89.4631 68.0598 89.8715 67.7164C90.192 67.4514 90.657 67.355 90.9004 67.508C91.1413 67.6586 91.7004 67.461 92.1305 67.0695C92.7569 66.502 93.016 66.4611 93.4075 66.8574C93.8015 67.2514 93.628 67.5983 92.5931 68.5308C91.4666 69.5452 91.3956 69.7079 92.0907 69.7079C93.1557 69.7079 93.1557 70.9584 92.0907 71.9162C91.1618 72.7571 91.2666 74.1197 92.5377 77.6376C93.4087 80.064 93.5461 82.7844 92.7991 83.047C92.5232 83.147 92.4172 83.3554 92.5606 83.5121C93.0075 83.9976 95.1219 82.6567 96.2604 81.1555C97.2459 79.864 97.5338 79.7291 99.3108 79.7291C101.476 79.7291 101.543 79.6436 101.925 76.5642C102.225 74.1763 102.56 73.6968 104.364 73.0788C105.561 72.6644 105.978 72.6547 106.217 73.0282C106.396 73.3101 106.529 72.9692 106.529 72.2102C106.537 70.7717 105.964 70.5452 104.708 71.4982C104.279 71.8222 103.388 72.0921 102.723 72.0981C100.935 72.1162 100.39 70.9777 100.735 67.9538C101.108 64.7069 101.738 63.5865 103.702 62.7034C104.602 62.2974 105.335 61.8239 105.335 61.6528C105.335 61.477 105.97 61.1059 106.747 60.8288C107.697 60.4842 108.626 59.6409 109.585 58.2458C110.373 57.1073 111.45 55.9423 111.985 55.6604C112.517 55.3688 112.882 55.0664 112.791 54.9724C112.699 54.8809 112.232 55.0194 111.752 55.2748C111.273 55.5302 110.785 55.6459 110.667 55.5278C110.349 55.2074 112.955 52.9135 114.634 52.0425C115.446 51.622 116.22 51.0955 116.361 50.8714C116.499 50.6449 117.143 50.4594 117.793 50.4594C118.44 50.4594 118.973 50.3148 118.973 50.1413C118.973 49.6679 121.366 48.9474 123.043 48.9149C124.067 48.8944 124.824 49.1824 125.571 49.8763C126.159 50.4208 126.901 50.8618 127.218 50.8618C127.538 50.8618 127.8 51.0437 127.8 51.2642C127.8 51.4847 128.155 51.6642 128.594 51.6642C130.014 51.6642 134.53 53.752 134.995 54.6255C135.256 55.105 135.885 55.4965 136.466 55.5314C137.401 55.5869 137.427 55.5375 136.85 54.899C136.507 54.517 136.224 53.905 136.224 53.5376C136.224 53.1665 136.038 52.8641 135.82 52.8641C135.599 52.8641 135.418 52.5762 135.418 52.2196C135.418 51.722 135.718 51.6136 136.724 51.7605C137.438 51.8581 138.342 52.075 138.723 52.2425C139.238 52.4665 139.797 52.1184 140.888 50.91C141.838 49.8486 142.832 49.1836 143.703 49.0185C146.277 48.539 144.771 46.8475 142.038 47.1535C140.964 47.274 139.926 47.115 139.123 46.6981C138.067 46.1536 137.838 45.7632 137.636 44.1477C137.503 43.1007 137.291 41.7911 137.167 41.2418C136.679 39.0383 136.899 37.9154 137.976 37.1323C138.555 36.7083 139.035 36.0938 139.035 35.7649C139.035 35.4095 139.32 35.224 139.735 35.3095C140.285 35.418 140.403 35.7565 140.282 36.8444C140.194 37.6094 140.106 39.5587 140.091 41.1827C140.059 43.7826 140.162 44.2211 140.962 44.8681C142.156 45.8331 145.651 46.4885 147.663 46.1235L149.269 45.8295L148.163 44.8705C147.557 44.338 147.063 43.5465 147.063 43.1055C147.063 42.6646 146.81 42.0237 146.504 41.6731C146.195 41.3261 145.816 40.4286 145.657 39.6816C145.381 38.3781 145.41 38.3371 146.389 38.5817C147.277 38.8021 147.424 38.6961 147.536 37.7407L147.662 36.6408L148.561 37.6142C149.294 38.3997 149.465 38.4588 149.465 37.9082C149.465 37.5371 149.267 37.2311 149.021 37.2311C148.759 37.2311 148.649 36.8131 148.765 36.2276C148.868 35.677 148.815 35.224 148.643 35.224C148.47 35.224 148.217 34.459 148.076 33.5205C147.56 30.1266 147.405 29.6941 146.635 29.4905C145.535 29.2026 145.635 28.0135 146.759 27.9966C147.636 27.9822 147.637 27.9701 146.856 27.5316C146.418 27.281 145.921 26.8786 145.762 26.6401C145.559 26.3377 145.465 26.334 145.459 26.6316C145.453 26.8666 144.297 27.2906 142.888 27.5701C140.185 28.1087 139.317 27.9231 138.202 26.5617C137.675 25.9268 137.74 25.8907 139.002 26.1377C139.952 26.3292 140.667 26.2172 141.346 25.7726C141.928 25.3907 142.705 25.2281 143.287 25.3751C143.861 25.5196 144.252 25.4401 144.252 25.1871C144.252 24.9016 144.854 24.8426 145.999 25.0136C147.389 25.2196 147.795 25.1462 147.993 24.6402C148.295 23.8462 149.489 23.8318 151.97 24.5847C153.819 25.1498 153.876 25.1401 153.876 24.3233C153.876 23.8619 154.19 23.2499 154.578 22.9523C155.217 22.4668 155.184 22.4174 154.201 22.4053C152.919 22.3909 152.63 22.0379 152.94 20.8548C153.124 20.1524 153.475 19.9777 154.824 19.9548C155.736 19.9344 156.256 19.8307 155.983 19.7199C155.705 19.6079 155.48 19.2693 155.48 18.9609C155.48 17.514 151.363 16.3671 149.965 17.4224C148.545 18.4995 145.853 17.8224 145.853 16.3875C145.853 15.9635 145.675 15.5105 145.453 15.3755C144.733 14.931 145.029 13.972 145.894 13.972C146.398 13.972 146.818 14.2925 146.945 14.7719C147.059 15.2105 147.345 15.5755 147.576 15.5755C147.809 15.5755 148.327 15.8755 148.723 16.2345C149.4 16.8429 149.47 16.8429 149.702 16.2345C149.84 15.8755 150.205 15.5755 150.514 15.5755C151.179 15.5755 151.252 14.9346 150.639 14.5515C150.398 14.4045 150.292 13.9491 150.398 13.5431C150.535 13.0142 150.198 12.5696 149.227 11.9962C147.856 11.1878 147.435 10.3818 148.364 10.3457C149.182 10.3131 145.385 8.4843 143.856 8.16624C143.081 8.00721 140.464 6.91931 138.038 5.74828C135.608 4.57725 133.216 3.5014 132.72 3.35442C131.704 3.05684 131.496 2.34242 132.416 2.34242C132.745 2.34242 133.02 2.1605 133.02 1.94244C133.02 1.72197 133.291 1.54246 133.62 1.54246C133.951 1.54246 134.22 1.72197 134.22 1.94244C134.22 2.1605 134.716 2.34483 135.326 2.34483C135.928 2.34724 136.969 2.63277 137.632 2.98335C139.25 3.83392 143.046 4.23872 143.046 3.56043C143.046 3.24599 143.311 3.16045 143.75 3.33153C144.134 3.47851 146.527 4.03993 149.064 4.58448C151.599 5.12301 154.038 5.73503 154.479 5.93984C156.453 6.8663 158.45 7.55422 159.162 7.55422C159.589 7.55422 160.471 7.83011 161.118 8.16624C162.183 8.71681 162.299 8.71681 162.299 8.16624C162.299 7.83132 162.485 7.55422 162.705 7.55422C162.923 7.55422 163.105 7.8277 163.105 8.15419C163.105 8.48309 163.421 8.75657 163.811 8.75657C164.203 8.75657 165.509 9.13366 166.721 9.59509C167.929 10.0541 169.562 10.5661 170.347 10.73C171.953 11.0589 175.94 13.1178 175.94 13.6214C175.94 14.0768 171.369 13.0624 167.718 11.795C167.277 11.6396 167.593 11.9299 168.416 12.4395C169.239 12.9491 169.918 13.5949 169.918 13.872C169.922 14.1455 170.11 14.372 170.334 14.372C170.558 14.372 171.511 15.0695 172.44 15.9285C173.371 16.7875 176.03 18.6163 178.348 19.991C180.666 21.368 183.125 23.0294 183.819 23.6824C184.613 24.4329 185.178 24.7088 185.346 24.4353C185.737 23.8028 185.24 23.1944 184.553 23.4583C183.996 23.6703 183.902 23.5233 183.806 22.2933C183.784 22.0174 183.49 21.5813 183.165 21.3259C181.961 20.3873 183.138 20.3669 185.83 21.2668C188.632 22.2077 189.462 22.7728 188.723 23.2258C188.479 23.3812 188.585 23.5872 188.982 23.7438C189.354 23.8848 189.826 23.8944 190.035 23.7643C190.247 23.6318 190.667 23.7318 190.976 23.9848C191.285 24.2438 192.091 24.4643 192.77 24.4823C193.667 24.5112 193.976 24.6944 193.9 25.1618C193.835 25.5799 194.097 25.8064 194.668 25.8148C195.709 25.8293 199.614 29.0062 199.614 29.8351C199.614 30.6495 199.058 30.5495 198.174 29.5737C197.756 29.1122 197.053 28.5617 196.609 28.3496C195.659 27.8966 197.994 30.0556 201.504 32.8699C202.941 34.0228 204.509 35.7493 205.207 36.9528C206.462 39.0973 211.295 44.2766 213.695 46.0476L215.051 47.0511L213.545 44.9922C211.977 42.8453 211.801 42.4393 212.415 42.4393C212.944 42.4393 219.841 51.622 219.535 51.922C219.394 52.0605 219.006 51.9461 218.67 51.6666C217.815 50.9546 217.911 51.3642 218.862 52.4605C219.652 53.3785 219.893 54.0641 219.421 54.0641C219.286 54.0641 218.246 53.0725 217.109 51.8605C215.97 50.6522 214.874 49.657 214.675 49.657C214.475 49.657 213.955 49.3426 213.52 48.9571C212.74 48.2655 212.74 48.2691 213.398 49.557C213.833 50.4016 213.904 50.857 213.61 50.857C213.361 50.857 213.263 51.1425 213.392 51.481C213.549 51.887 213.472 52.0075 213.178 51.8196C212.254 51.2545 213.284 52.44 214.404 53.234L215.539 54.046L215.402 52.8521C215.18 50.9401 215.943 51.4702 217.296 54.1701C218.908 57.388 219.292 57.8699 219.692 57.2205C219.907 56.876 220.601 57.382 221.936 58.8554C224.113 61.2493 225.16 62.8082 226.954 66.2972C227.636 67.6176 228.572 69.0947 229.038 69.5705C230.45 71.009 230.913 71.6644 231.515 73.1113C232.28 74.9317 232.268 75.8726 231.48 75.5703C231.009 75.3883 230.952 75.4944 231.243 76.0293C231.772 77.0268 233.298 84.4626 233.298 86.0469C233.298 86.7854 233.69 88.2347 234.169 89.2708C235.144 91.3828 235.667 95.3597 234.969 95.3597C234.732 95.3597 234.335 94.5947 234.092 93.6561C233.372 90.8683 233.233 90.4792 233.039 90.6792C232.937 90.7816 233.114 92.2671 233.443 93.9887C233.984 96.8476 234.18 97.2512 235.796 98.7451C238.061 100.837 238.749 103.281 239.108 110.499C239.337 115.164 239.296 115.811 238.739 115.811C238.396 115.811 238.11 115.539 238.11 115.211C238.11 114.878 237.839 114.608 237.514 114.608C237.185 114.608 236.914 114.337 236.914 114.011C236.914 113.111 236.204 113.284 235.896 114.255C235.567 115.294 236.043 119.424 236.49 119.424C236.672 119.424 236.933 120.195 237.074 121.132C237.26 122.34 237.586 122.964 238.186 123.238C239.967 124.056 240.886 131.439 239.961 137.454C239.637 139.542 239.179 141.315 238.943 141.397C238.708 141.472 238.514 141.797 238.514 142.103C238.514 142.419 238.332 142.674 238.11 142.674C237.89 142.674 237.71 142.401 237.71 142.068C237.71 141.309 236.055 137.709 235.622 137.526C235.096 137.306 235.261 136.579 235.949 136.077C236.52 135.659 236.475 135.526 235.545 134.92C234.215 134.047 234.196 132.674 235.486 131.462C236.319 130.68 236.58 130.615 237.102 131.044C237.445 131.329 237.837 131.45 237.979 131.309C238.385 130.9 236.861 125.838 236.332 125.838C236.056 125.838 235.553 124.506 235.155 122.732C233.957 117.365 233.616 116.082 232.755 113.612L231.908 111.206L231.496 113.379C231.099 115.447 230.264 116.5 229.928 115.35C229.843 115.056 229.562 114.047 229.309 113.112C229.054 112.173 228.695 111.408 228.513 111.408C228.325 111.408 227.485 110.776 226.642 110.005C225.801 109.228 225.01 108.601 224.889 108.607C224.465 108.619 222.059 114.305 222.059 115.286C222.059 115.825 221.806 117.11 221.5 118.148C220.835 120.392 219.979 125.263 220.02 126.577C220.035 127.093 219.614 128.416 219.085 129.524C218.194 131.387 218.161 131.64 218.694 132.905C219.006 133.66 219.285 135.129 219.306 136.172C219.356 138.437 219.924 140.553 220.603 140.972C221.606 141.59 222.859 143.843 222.859 145.028C222.859 146.552 222.144 148.172 221.332 148.481C220.514 148.796 220.12 148.09 219.8 145.76C219.512 143.633 219 143.707 218.265 145.984C217.941 146.978 217.615 147.29 216.874 147.29C216.106 147.29 215.668 146.834 214.766 145.084C214.138 143.875 213.448 142.819 213.225 142.749C213.001 142.673 212.378 141.682 211.837 140.543C211.296 139.406 210.413 138.008 209.884 137.441C209.355 136.876 208.798 136.017 208.643 135.537C208.49 135.059 208.182 134.664 207.951 134.664C207.724 134.664 207.629 134.417 207.747 134.111C207.865 133.805 207.525 132.913 206.986 132.128C206.453 131.342 206.019 130.518 206.019 130.298C206.019 130.074 205.362 129.98 204.501 130.082C203.483 130.206 202.475 130.004 201.413 129.458C200.542 129.015 199.595 128.65 199.313 128.65C199.031 128.65 198.795 128.393 198.795 128.081C198.795 127.767 198.242 127.391 197.565 127.244C196.888 127.093 196.239 126.715 196.118 126.399C195.994 126.085 195.536 125.628 195.094 125.397C194.463 125.062 194.059 125.128 193.235 125.728C192.657 126.146 191.545 126.746 190.776 127.052C190.003 127.368 189.021 127.94 188.589 128.344C188.154 128.74 187.615 128.997 187.386 128.915C187.154 128.835 186.154 129.005 185.165 129.303C182.918 129.98 180.662 130.003 180.029 129.37C179.323 128.668 179.391 129.994 180.135 131.427C180.812 132.739 181.641 133.153 182.921 132.833C183.477 132.692 184.401 132.947 185.333 133.498C186.742 134.324 186.827 134.482 186.589 135.828C186.451 136.622 186.236 137.946 186.11 138.774C185.972 139.686 185.663 140.277 185.322 140.277C184.945 140.277 184.76 140.765 184.76 141.786C184.76 142.857 184.533 143.436 183.96 143.795C183.519 144.069 183.154 144.672 183.154 145.127C183.154 145.633 182.83 146.051 182.333 146.18C181.836 146.309 181.421 146.839 181.286 147.511C181.148 148.209 180.736 148.711 180.207 148.85C178.872 149.191 176.407 151.417 176.266 152.411C176.188 152.968 175.378 153.803 174.134 154.617C173.03 155.341 171.699 156.327 171.181 156.809C169.981 157.917 166.263 160.32 165.745 160.32C165.527 160.32 164.863 160.788 164.264 161.361C163.603 161.999 162.668 162.426 161.868 162.464C160.691 162.52 160.462 162.34 159.647 160.723C158.512 158.464 158.22 157.621 158.082 156.15C158.006 155.334 157.355 154.42 155.949 153.14C154.837 152.126 153.825 150.928 153.696 150.467C153.57 150.008 152.878 149.381 152.166 149.063C151.157 148.62 150.742 148.09 150.316 146.69C149.392 143.662 148.581 142.272 147.575 142.021C147.054 141.886 146.357 141.262 146.028 140.625C145.697 139.99 145.275 139.468 145.085 139.468C144.897 139.468 144.628 139.062 144.493 138.568C144.064 137.028 141.699 134.586 140.922 134.883C140.545 135.026 140.238 135.418 140.238 135.754C140.238 136.525 142.317 140.178 143.438 141.378C143.905 141.874 144.187 142.445 144.064 142.645C143.77 143.122 144.233 144.28 144.721 144.28C145.847 144.28 147.294 146.727 147.68 149.292C147.892 150.72 148.2 151.249 149.114 151.79C149.755 152.168 150.673 153.295 151.147 154.292C151.624 155.286 152.21 156.239 152.447 156.398C152.735 156.598 152.718 156.695 152.382 156.698C152.114 156.701 152 156.977 152.126 157.307C152.432 158.098 153.073 158.078 153.073 157.278C153.073 156.857 153.367 156.69 153.973 156.778C154.567 156.86 154.876 157.181 154.876 157.71C154.876 158.204 155.523 158.942 156.573 159.648C159.114 161.342 160.526 162.795 160.832 164.013C161.269 165.79 162.42 166.121 164.622 165.125C165.661 164.654 166.779 164.097 167.108 163.895C167.436 163.689 167.981 163.409 168.308 163.277C170.916 162.238 173.381 160.943 173.646 160.473C173.822 160.165 174.321 159.912 174.749 159.912C175.334 159.912 175.531 160.188 175.531 161.032C175.531 161.65 175.755 162.385 176.031 162.662C176.434 163.068 176.399 163.244 175.846 163.556C175.469 163.768 175.258 164.191 175.375 164.497C175.49 164.801 175.19 165.819 174.707 166.766C174.228 167.707 173.395 169.633 172.869 171.049C171.357 175.063 169.416 177.716 164.155 182.952C156.884 190.197 153.056 194.793 154.295 194.793C154.921 194.793 154.719 196.328 154.073 196.471C153.549 196.583 153.544 196.736 154.038 197.683C154.683 198.917 154.656 199.66 153.936 200.529C153.259 201.341 153.738 203.088 154.703 203.335C155.391 203.517 155.466 203.904 155.409 207.082L155.344 210.629L153.691 212.229C152.754 213.141 151.138 214.153 149.967 214.57C148.827 214.97 147.671 215.57 147.396 215.897C147.121 216.226 146.203 216.85 145.347 217.285C143.641 218.162 143.12 218.981 143.779 219.773C144.288 220.391 143.941 223.079 143.285 223.599C143.038 223.791 141.911 224.252 140.785 224.617C139.061 225.182 138.623 225.535 138.044 226.811C137.356 228.341 137.223 228.441 131.677 231.37C128.279 233.168 126.043 233.6 119.173 233.798C115.638 233.896 112.252 233.9 111.646 233.8ZM143.11 206.454C142.777 205.613 142.316 207.905 142.592 209.025C142.747 209.643 142.857 209.519 143.076 208.46C143.234 207.707 143.247 206.805 143.11 206.454ZM134.612 200.853C134.612 200.659 134.238 200.4 133.785 200.282C133.108 200.106 133.047 200.17 133.435 200.635C133.965 201.275 134.612 201.394 134.612 200.853ZM140.394 191.589C141.216 191.589 142.353 190.077 142.076 189.354C141.888 188.86 141.547 188.77 140.727 188.972C140.123 189.119 139.564 189.411 139.497 189.613C139.421 189.819 139.126 189.984 138.834 189.984C138.55 189.984 138.238 190.523 138.144 191.176C137.999 192.131 138.122 192.378 138.799 192.476C139.256 192.541 139.687 192.37 139.758 192.094C139.828 191.815 140.119 191.589 140.394 191.589ZM237.681 138.122C237.299 137.769 237.243 137.834 237.446 138.401C237.587 138.803 237.728 139.438 237.758 139.803C237.793 140.172 237.896 140.044 237.993 139.525C238.093 139.003 237.949 138.372 237.681 138.122ZM237.302 136.863C237.302 136.095 237.052 136.095 236.759 136.863C236.63 137.195 236.696 137.466 236.914 137.466C237.128 137.466 237.302 137.195 237.302 136.863ZM174.731 133.91C174.737 133.345 174.794 133.336 175.113 133.851C175.617 134.645 175.999 134.219 177.519 131.151C178.201 129.769 178.937 128.645 179.149 128.645C179.361 128.645 179.535 128.421 179.526 128.145C179.518 127.867 179.059 128.163 178.497 128.798C177.218 130.248 174.667 130.654 172.812 129.695C172.127 129.342 171.288 129.16 170.95 129.289C170.35 129.516 167.503 126.955 167.503 126.186C167.503 125.996 167.312 125.839 167.076 125.839C166.84 125.839 166.764 125.661 166.9 125.439C167.035 125.219 166.956 125.039 166.721 125.039C166.49 125.039 166.292 125.443 166.29 125.939C166.284 126.668 166.21 126.727 165.896 126.239C165.561 125.721 165.504 125.727 165.498 126.308C165.496 126.675 165.269 127.075 164.992 127.196C164.649 127.342 164.774 127.622 165.396 128.077C165.89 128.442 166.296 128.986 166.296 129.283C166.296 129.586 166.549 129.724 166.869 129.601C167.208 129.469 167.728 129.836 168.167 130.516C168.567 131.14 169.163 131.89 169.498 132.184C169.83 132.475 169.91 132.619 169.673 132.499C169.434 132.384 169.234 132.521 169.234 132.808C169.234 133.09 169.493 133.323 169.803 133.323C170.185 133.323 170.311 133.008 170.193 132.38C170.038 131.57 170.134 131.474 170.862 131.694C171.946 132.023 171.876 131.941 172.293 133.382C172.537 134.241 172.499 134.676 172.178 134.814C171.85 134.949 171.875 135.12 172.278 135.399C173.006 135.895 174.719 134.854 174.731 133.91ZM113.352 127.842C113.528 126.271 113.729 125.951 114.956 125.339C116.776 124.433 118.376 124.449 119.312 125.386C119.724 125.798 120.759 126.265 121.622 126.424C122.477 126.586 123.359 126.859 123.581 127.033C123.801 127.209 124.612 127.451 125.387 127.577C126.158 127.702 127.695 127.971 128.795 128.18C130.511 128.498 130.964 128.445 131.876 127.795C132.994 126.998 135 126.808 137.44 127.251C139.287 127.589 139.534 127.263 140.593 123.008C141.637 118.814 141.381 116.504 139.846 116.286C139.299 116.21 138.758 116.407 138.558 116.757C138.04 117.678 135.896 118.019 135.084 117.31C134.019 116.376 132.607 116.06 132.607 116.755C132.607 117.908 130.501 118.185 129.477 117.163C128.859 116.545 128.795 116.563 128.593 117.435C128.371 118.385 127.393 119.055 127.393 118.261C127.393 118.02 127.018 117.449 126.56 116.994C126.105 116.538 125.834 115.894 125.958 115.561C126.129 115.117 125.987 115.029 125.387 115.223C124.816 115.405 124.589 115.29 124.589 114.823C124.589 114.467 124.769 114.282 124.989 114.417C125.207 114.552 125.389 114.476 125.389 114.241C125.389 114.006 125.113 113.814 124.769 113.814C124.287 113.814 124.171 113.412 124.241 112.017C124.294 111.029 124.212 110.096 124.059 109.946C123.904 109.79 123.781 109.881 123.781 110.137C123.781 110.394 123.51 110.602 123.183 110.602C122.854 110.602 122.583 110.335 122.583 110.002C122.583 109.676 122.763 109.402 122.983 109.402C123.205 109.402 123.383 109.102 123.383 108.737C123.383 108.208 123.23 108.258 122.595 108.988C122.154 109.488 121.24 110.014 120.551 110.155L119.3 110.411L120.341 111.531C120.929 112.166 121.582 112.529 121.845 112.37C122.098 112.211 122.2 112.255 122.071 112.461C121.942 112.667 122.565 113.626 123.453 114.591C124.839 116.089 124.977 116.391 124.418 116.703C124.059 116.901 123.871 117.236 123.998 117.442C124.127 117.648 124.063 117.819 123.851 117.819C123.639 117.819 123.363 117.551 123.239 117.225C123.11 116.886 122.745 116.733 122.394 116.869C121.957 117.037 121.776 116.855 121.776 116.249C121.776 115.22 120.635 114.67 120.138 115.458C119.946 115.766 119.782 116.513 119.776 117.119C119.776 117.725 119.591 118.219 119.37 118.219C119.152 118.219 118.97 118.078 118.97 117.904C118.97 117.733 118.429 117.386 117.77 117.139C116.958 116.833 116.564 116.41 116.564 115.848C116.564 115.386 116.305 115.009 115.987 115.009C115.152 115.009 114.767 114.177 115.41 113.768C115.812 113.518 115.828 113.418 115.463 113.415C115.187 113.413 114.963 113.056 114.963 112.63C114.963 112.201 114.778 111.738 114.555 111.601C113.796 111.13 112.981 108.575 113.216 107.398C113.404 106.474 113.225 106.027 112.361 105.227C111.767 104.674 110.661 104.018 109.91 103.768C109.16 103.523 108.545 103.127 108.545 102.894C108.545 102.665 108.139 102.08 107.645 101.591C106.154 100.144 105.333 98.9969 105.333 98.3644C105.333 97.4524 104.548 97.6584 104.156 98.6728C103.889 99.3703 104.027 99.8052 104.774 100.599C105.301 101.164 105.733 101.908 105.733 102.25C105.733 103.217 107.304 104.988 108.172 104.988C108.596 104.988 108.943 105.227 108.943 105.512C108.943 105.804 109.761 106.61 110.751 107.312C112.581 108.604 112.839 109.13 112.166 110.198C111.848 110.704 111.66 110.653 110.945 109.885C110.48 109.388 109.916 109.094 109.69 109.235C109.41 109.406 109.419 109.629 109.714 109.923C109.953 110.164 110.152 110.667 110.152 111.041C110.152 111.988 108.122 114.212 107.255 114.212C106.729 114.212 106.543 114.526 106.543 115.415C106.543 116.748 105.788 117.007 104.796 116.015C104.464 115.683 104.072 115.415 103.925 115.415C103.313 115.415 101.328 113.715 101.328 113.189C101.328 112.477 103.252 111.965 103.811 112.524C104.313 113.024 107.016 112.668 107.449 112.044C107.935 111.347 107.396 109.81 106.341 108.865C104.167 106.927 103.255 106.192 103.002 106.182C102.852 106.176 102.202 105.456 101.555 104.579C100.908 103.699 100.141 102.985 99.8518 102.985C99.5626 102.985 99.3253 102.803 99.3253 102.582C99.3253 102.362 99.5169 102.182 99.7578 102.182C100.34 102.182 99.7783 100.5 99.0048 99.9354C98.5434 99.6004 98.0868 99.6414 97.1579 100.103C94.793 101.276 94.5219 101.382 93.981 101.382C93.681 101.382 92.8605 101.094 92.1545 100.744C90.5872 99.9619 89.7041 100.241 89.7041 101.523C89.7041 102.679 89.2222 103.105 87.0982 103.838C84.9838 104.564 82.8044 106.517 83.0947 107.421C83.3333 108.174 81.0599 110.759 80.4768 110.4C80.2913 110.285 79.8708 110.465 79.5359 110.8C78.8443 111.491 77.7564 111.571 76.3324 111.026C75.0084 110.524 73.6554 110.929 73.6554 111.83C73.6554 112.721 74.0434 112.985 75.5264 113.097C76.1529 113.144 76.8878 113.4 77.1613 113.662C77.4902 113.987 78.0203 114.03 78.7648 113.801C83.1502 112.446 84.1272 112.401 91.7064 113.26C92.9148 113.399 94.8689 113.493 96.0363 113.468C97.5218 113.44 98.2241 113.597 98.3747 113.993C98.4952 114.307 98.8482 114.464 99.1626 114.343C99.5421 114.196 99.7301 114.405 99.7301 114.982C99.7301 115.453 99.465 115.937 99.1446 116.059C98.6856 116.241 98.6567 116.467 99.006 117.15C100.188 119.448 100.204 119.524 99.665 119.868C99.3675 120.056 98.8325 120.209 98.4711 120.215C98.1097 120.215 97.7037 120.503 97.5675 120.844C97.4326 121.203 97.5001 121.362 97.7326 121.215C97.9507 121.08 98.7386 121.615 99.4795 122.401C100.226 123.191 101.218 123.831 101.703 123.831C103.303 123.831 106.15 125.386 106.15 126.257C106.15 126.763 106.559 127.214 107.25 127.481C107.859 127.714 109.168 128.322 110.16 128.832C112.658 130.124 113.111 129.989 113.352 127.842ZM121.251 120.336C120.615 120.242 120.194 119.959 120.282 119.695C120.462 119.154 120.521 119.15 123.08 119.586C126.618 120.197 124.923 120.892 121.251 120.336ZM135.412 120.201C135.412 119.621 136.462 118.603 136.756 118.897C136.885 119.026 137.446 118.832 138.009 118.465C139.052 117.779 139.397 118.088 138.54 118.942C138.275 119.207 138.22 119.421 138.416 119.421C138.61 119.421 138.426 119.689 137.996 120.013C137.086 120.701 135.412 120.821 135.412 120.201ZM126.041 119.221C126.341 118.454 126.591 118.454 126.591 119.221C126.591 119.554 126.416 119.824 126.204 119.824C125.988 119.824 125.916 119.556 126.041 119.221ZM104.525 117.818C104.525 117.306 104.811 117.306 105.127 117.818C105.262 118.042 105.183 118.218 104.948 118.218C104.717 118.218 104.525 118.044 104.525 117.818ZM96.0544 110.332C96.0279 110.147 96.0423 109.824 96.0893 109.604C96.1363 109.383 96.1688 108.459 96.1688 107.545C96.1688 106.259 96.3158 105.904 96.8302 105.945C97.3483 105.986 97.4627 105.683 97.3688 104.518C97.2772 103.365 97.4302 102.951 98.0832 102.6C98.8072 102.209 98.9072 102.268 98.8832 103.071C98.8687 103.577 98.7121 104.351 98.5386 104.786C98.3591 105.227 98.3675 105.989 98.5506 106.48C98.8036 107.157 98.4157 109.479 97.9531 110.051C97.7157 110.341 96.0893 110.579 96.0544 110.332ZM87.0897 107.821C86.7367 107.249 87.1873 106.596 87.9307 106.596C88.2776 106.596 88.4836 106.876 88.4041 107.264C88.2511 108.07 87.4512 108.406 87.0897 107.821ZM89.2836 107.021C89.2836 106.788 89.4655 106.596 89.686 106.596C90.198 106.596 90.198 106.878 89.686 107.196C89.4631 107.333 89.2836 107.253 89.2836 107.021ZM122.623 114.9C122.294 114.573 122.18 114.618 122.18 115.067C122.18 115.867 122.717 116.406 122.915 115.806C123 115.553 122.868 115.144 122.623 114.9ZM167.232 109.3C167.82 108.867 167.85 108.62 167.42 107.494C167.146 106.78 166.785 106.194 166.611 106.194C166.437 106.194 166.296 105.965 166.296 105.686C166.296 105.404 165.934 104.504 165.493 103.682C165.052 102.861 164.69 101.938 164.69 101.629C164.69 101.327 164.416 100.852 164.09 100.576C163.758 100.303 163.487 99.6498 163.487 99.1258C163.487 98.4342 163.263 98.1752 162.666 98.1752C162.219 98.1752 161.395 97.7222 160.848 97.1716C160.292 96.6187 159.68 96.1681 159.489 96.1681C159.295 96.1681 158.804 95.75 158.404 95.2416C157.423 94.0007 156.439 93.6766 155.839 94.4031C155.474 94.838 155.46 95.2235 155.774 95.8825C156.009 96.3681 156.309 97.2174 156.436 97.7704C156.56 98.321 156.798 98.9583 156.968 99.1824C157.597 100.033 161.61 102.982 162.136 102.982C162.439 102.982 162.686 103.253 162.686 103.582C162.686 103.911 162.407 104.185 162.062 104.185C161.558 104.185 161.468 104.623 161.562 106.488C161.671 108.606 161.764 108.808 162.686 108.929C163.239 109.002 163.863 109.231 164.068 109.429C164.623 109.965 166.434 109.888 167.232 109.3ZM128.594 108.2C128.594 107.98 128.309 107.798 127.97 107.798C127.626 107.798 127.452 107.98 127.591 108.2C127.912 108.718 128.594 108.718 128.594 108.2ZM133.718 105.638C135.318 104.613 139.023 103.905 139.023 104.623C139.023 104.852 139.211 104.925 139.441 104.782C139.672 104.639 140.127 104.741 140.445 105.009C140.774 105.28 142.192 105.491 143.659 105.491C145.836 105.491 146.451 105.338 147.251 104.585C148.453 103.458 148.098 102.611 145.953 101.485C145.118 101.046 143.445 100.164 142.229 99.5137C139.864 98.2547 139.029 98.2403 137.352 99.4282C136.052 100.352 135.012 100.402 135.012 99.5462C135.012 99.1932 134.638 98.8077 134.177 98.6872C133.606 98.5366 133.403 98.2366 133.539 97.7222C133.677 97.1957 133.518 96.9753 133.004 96.9753C132.601 96.9753 132.18 96.7488 132.066 96.4753C131.798 95.8223 130.223 97.7054 130.211 98.6836C130.201 99.0716 129.836 99.698 129.393 100.075C128.952 100.457 128.593 101.257 128.593 101.875C128.593 102.487 128.428 102.989 128.236 102.989C127.559 102.989 127.416 104.775 128.012 105.689C128.859 106.97 131.671 106.947 133.718 105.638ZM140.753 96.4235C140.872 96.1175 140.778 95.6826 140.547 95.4524C140.013 94.9139 138.221 95.6729 138.221 96.4379C138.221 97.1584 140.478 97.1439 140.753 96.4235ZM111.522 79.5219C112.469 78.8014 113.82 78.7605 114.487 79.4303C114.832 79.7749 115.073 79.7954 115.269 79.5014C115.428 79.2665 115.849 78.9665 116.214 78.8303C116.634 78.6749 116.946 77.9629 117.079 76.8569C117.193 75.904 117.608 74.1836 118.003 73.0306C118.603 71.2801 118.921 70.8922 119.947 70.6307C121.024 70.3573 120.886 70.2958 118.765 70.1163C117.362 69.9982 116.292 70.0753 116.194 70.3079C115.912 70.9849 115.153 71.6018 114.253 71.8849C113.35 72.1704 112.721 73.4294 113.142 74.1113C113.417 74.5498 112.674 76.1642 111.986 76.6208C111.745 76.7859 111.142 76.9184 110.645 76.9232C109.713 76.9292 109.437 77.4943 110.145 77.9316C110.748 78.3051 110.622 78.9315 109.943 78.9315C109.614 78.9315 109.343 78.752 109.343 78.5316C109.343 78.3111 108.892 78.1316 108.339 78.1316C107.786 78.1316 107.336 78.3111 107.336 78.5316C107.336 78.752 107.607 78.9315 107.936 78.9315C108.268 78.9315 108.542 79.2074 108.542 79.5339C108.537 80.3158 110.479 80.3098 111.522 79.5219ZM114.155 74.6691C114.155 74.2041 114.428 73.592 114.763 73.3137C115.71 72.5198 115.802 73.0282 114.939 74.3402C114.246 75.392 114.158 75.4305 114.155 74.6691ZM106.908 75.751C107.379 75.4534 107.394 75.2124 106.994 74.4534C106.702 73.8944 106.594 73.827 106.723 74.2715C106.857 74.7245 106.661 75.2365 106.237 75.5654C105.445 76.1606 106.004 76.322 106.908 75.751ZM121.229 74.3185C121.576 73.4149 120.605 72.3885 119.935 72.9475C119.511 73.2921 119.503 73.5475 119.88 74.1535C120.458 75.0811 120.917 75.1365 121.229 74.3185ZM137.017 71.3391C137.017 70.7946 136.309 70.4392 136.056 70.8512C135.815 71.2391 136.162 71.7186 136.683 71.7186C136.868 71.7186 137.017 71.5488 137.017 71.3391ZM125.129 69.5103C125.423 68.7429 125.217 68.7429 124.582 69.5103C124.292 69.8573 124.255 70.1103 124.492 70.1103C124.716 70.1127 125 69.8428 125.129 69.5103ZM117.467 67.5538C117.799 67.0658 117.699 62.8974 117.355 62.8974C117.234 62.8974 116.587 63.4034 115.914 64.0178C114.326 65.4683 113.849 67.1911 114.84 67.9357C115.597 68.5043 116.952 68.3104 117.467 67.5538ZM129.797 67.9212C129.797 67.4092 128.665 66.5008 128.017 66.5008C127.608 66.5008 127.779 67.5357 128.273 68.0248C128.938 68.6923 129.797 68.6308 129.797 67.9212ZM119.997 61.448C121.517 60.2866 121.8 59.2891 120.599 59.2891C119.813 59.2891 118.564 60.271 118.564 60.889C118.564 61.0746 118.456 61.5155 118.323 61.8601C117.976 62.7624 118.415 62.654 119.997 61.448ZM132.406 60.489C132.271 60.271 131.853 60.1011 131.479 60.1156C130.923 60.1421 130.947 60.2071 131.603 60.489C132.677 60.9541 132.689 60.9541 132.406 60.489ZM134.409 58.3265C134.409 57.582 134.177 57.488 132.379 57.488C130.561 57.488 130.364 57.5699 130.502 58.2879C130.627 58.947 130.992 59.1 132.532 59.1325C134.186 59.165 134.409 59.071 134.409 58.3265ZM213.007 50.9148C213.128 50.7232 212.972 50.3498 212.663 50.0944C212.201 49.7125 212.134 49.7763 212.314 50.4474C212.548 51.3557 212.68 51.4413 213.007 50.9148ZM148.701 39.1346C148.307 38.7407 148.258 38.7901 148.477 39.3587C148.628 39.7563 148.852 39.9768 148.975 39.8527C149.101 39.7322 148.975 39.4057 148.701 39.1346ZM195.586 27.8641C195.586 27.7846 195.271 27.4665 194.886 27.1641C194.251 26.6666 194.236 26.6822 194.736 27.3171C195.256 27.981 195.586 28.1966 195.586 27.8641ZM166.702 11.395C166.702 11.0926 161.74 9.5975 161.519 9.83604C161.275 10.1011 161.407 10.1625 164.296 11.183C165.899 11.7516 166.702 11.8215 166.702 11.395ZM158.554 221.343C158.466 221.184 158.369 220.319 158.342 219.419C158.298 218.084 158.516 217.572 159.51 216.619C160.572 215.607 160.695 215.266 160.478 213.983C160.19 212.299 161.131 210.028 162.108 210.028C163.223 210.028 166.326 208.324 167.423 207.116C171.844 202.216 171.876 202.186 172.462 202.816C173.243 203.642 173.58 206.671 172.947 207.199C172.672 207.425 172.329 207.493 172.184 207.352C172.037 207.205 171.919 207.57 171.919 208.158C171.919 208.748 171.738 209.229 171.517 209.229C171.295 209.229 171.117 209.405 171.117 209.623C171.117 210.088 168.434 214.423 166.102 217.731C164.881 219.466 164.069 220.175 162.719 220.69C160.681 221.472 158.79 221.767 158.554 221.343ZM179.941 211.254C179.941 211.019 180.119 210.828 180.341 210.828C180.855 210.828 180.855 211.112 180.341 211.428C180.12 211.564 179.941 211.489 179.941 211.254ZM84.8682 186.4C84.8682 186.165 85.0537 185.973 85.2705 185.973C85.7886 185.973 85.7886 186.258 85.2705 186.573C85.0513 186.712 84.8682 186.635 84.8682 186.4ZM17.5979 182.865C13.139 175.904 7.60075 163.338 4.90931 154.081C0.626382 139.327 -0.979565 122.474 0.589035 108.676C1.24202 102.954 1.95403 102.599 1.8444 108.055C1.64682 118.147 1.72031 121.811 2.13836 122.314C2.38293 122.605 2.79134 124.105 3.04675 125.644C3.29975 127.185 3.67323 128.753 3.87322 129.135C4.0708 129.517 4.24067 130.694 4.24428 131.741C4.25031 132.794 4.49969 134.731 4.80329 136.059C5.1093 137.383 5.47073 139.365 5.61169 140.471C6.05865 144.007 9.35247 152 11.4825 154.736C12.0969 155.536 13.4354 157.927 14.4474 160.054C15.4654 162.181 16.4509 163.921 16.6449 163.921C17.0654 163.921 17.3774 164.674 18.1159 167.451C18.9339 170.514 18.8279 171.404 17.4629 173.102L16.2425 174.62L17.2894 177.791C18.4508 181.321 19.4628 185.173 19.2279 185.173C19.1424 185.171 18.4099 184.135 17.5979 182.865ZM179.537 157.511C180.329 156.999 181.255 156.999 180.943 157.511C180.808 157.729 180.3 157.911 179.817 157.905C179.102 157.902 179.049 157.828 179.537 157.511ZM156.272 154.869C156.272 154.163 157.137 154.287 157.384 155.032C157.472 155.293 157.259 155.509 156.907 155.509C156.56 155.507 156.272 155.216 156.272 154.869ZM34.5103 140.245C34.3657 140.011 34.3428 139.721 34.4597 139.605C34.7452 139.317 35.5271 139.823 35.5271 140.292C35.5307 140.807 34.8368 140.774 34.5103 140.245ZM35.9307 138.666C35.9307 138.15 36.2163 138.15 36.5331 138.666C36.668 138.884 36.5921 139.068 36.3536 139.068C36.1223 139.068 35.9307 138.887 35.9307 138.666ZM33.8248 136.075C33.0188 134.972 32.9538 134.657 33.5224 134.657C33.7405 134.657 33.9224 134.866 33.9224 135.125C33.9224 135.384 34.2248 135.928 34.5898 136.331C34.9549 136.734 35.0898 137.055 34.8898 137.052C34.6898 137.042 34.2103 136.607 33.8248 136.075ZM230.776 123.988C230.617 123.829 230.496 123.232 230.507 122.667L230.534 121.63L230.918 122.595C231.339 123.641 231.252 124.466 230.776 123.988ZM52.6107 121.883C52.4372 121.603 52.4083 121.268 52.5396 121.136C52.8986 120.777 53.2901 121.307 53.095 121.885C52.9588 122.291 52.8637 122.291 52.6107 121.883ZM55.3912 121.186C55.9683 120.615 56.5297 120.239 56.6442 120.348C56.9586 120.662 55.4828 122.232 54.8768 122.232C54.5696 122.229 54.7853 121.795 55.3912 121.186ZM51.1734 120.224C51.1734 120.005 51.4553 119.824 51.7998 119.824C52.1444 119.824 52.3143 120.005 52.1769 120.224C51.8553 120.748 51.1734 120.748 51.1734 120.224ZM53.9817 111.006C53.9817 110.494 54.2672 110.494 54.5841 111.006C54.719 111.226 54.6395 111.406 54.4082 111.406C54.1732 111.406 53.9817 111.226 53.9817 111.006ZM47.9639 95.7705C47.9639 95.2561 48.2494 95.2561 48.5663 95.7705C48.7012 95.9886 48.6253 96.1729 48.3904 96.1729C48.1518 96.1729 47.9639 95.991 47.9639 95.7705ZM45.7435 92.5429C45.3785 91.949 45.67 91.7345 46.311 92.1369C46.6579 92.3454 46.6989 92.555 46.429 92.7188C46.2025 92.861 45.8929 92.7815 45.7435 92.5429ZM5.90926 88.9516C5.90926 88.401 6.00083 88.1745 6.11166 88.4516C6.22009 88.7275 6.22009 89.178 6.11166 89.4551C5.99962 89.731 5.90926 89.5082 5.90926 88.9516ZM6.15865 85.3023C5.86107 84.5253 6.66104 80.9375 7.13571 80.9375C7.4622 80.9375 7.25619 82.7025 6.65863 84.9313C6.46466 85.6662 6.33575 85.7601 6.15865 85.3023ZM10.6596 70.9126C10.6596 70.6946 10.8391 70.5127 11.0596 70.5127C11.2801 70.5127 11.4596 70.6946 11.4596 70.9126C11.4596 71.1331 11.2801 71.315 11.0596 71.315C10.8391 71.315 10.6596 71.1331 10.6596 70.9126ZM11.8596 68.6923C11.8596 68.1923 13.139 66.0454 13.321 66.2309C13.539 66.4454 12.3704 68.9139 12.0499 68.9139C11.9475 68.9103 11.8596 68.8127 11.8596 68.6923ZM94.9098 66.0297C94.9038 65.6527 95.0918 65.2298 95.3303 65.0852C96.0327 64.6467 96.1363 65.1093 95.5122 65.9322C94.9954 66.6129 94.9219 66.6213 94.9098 66.0297ZM13.4679 65.3503C13.4679 65.1298 13.6499 64.8382 13.8703 64.7033C14.0884 64.5648 14.2703 64.6322 14.2703 64.8539C14.2703 65.0756 14.0884 65.3683 13.8703 65.5045C13.6511 65.6394 13.4679 65.5719 13.4679 65.3503ZM91.4606 61.295C91.4606 60.8541 91.6992 60.489 91.9895 60.489C92.3955 60.489 92.422 60.6806 92.0895 61.295C91.551 62.2974 91.4606 62.2974 91.4606 61.295ZM39.6872 58.7891C39.7342 58.5132 39.9052 58.0627 40.0787 57.7856C40.2787 57.4651 40.1643 57.2832 39.7667 57.2832C39.4221 57.2832 39.1402 57.0217 39.1402 56.6952C39.1402 56.3157 39.3727 56.1977 39.8016 56.3664C40.4691 56.6218 40.4486 56.1133 39.6872 53.5484C39.5342 53.0424 39.7257 52.7545 40.3076 52.6039C40.7691 52.4834 41.1461 52.2629 41.1461 52.1123C41.1461 51.9654 41.4702 51.8184 41.875 51.7919C43.0954 51.6979 45.9688 50.3064 45.8278 49.8739C45.7544 49.6534 45.2809 49.445 44.7773 49.4209C43.7099 49.3655 43.0798 48.5474 43.3737 47.6029C43.4882 47.2355 43.3942 46.815 43.1653 46.674C42.9328 46.5295 42.7473 46.7475 42.7473 47.1656C42.7473 47.5776 42.4822 48.2631 42.1593 48.692C41.2389 49.91 41.3883 48.5306 42.3473 46.9535C43.4509 45.15 43.3593 44.6031 41.8967 44.3091C39.9257 43.9151 39.8233 43.9971 41.0028 45.0091C42.0822 45.9379 42.0883 45.9825 41.4172 47.015C41.0377 47.5945 40.4582 48.068 40.1353 48.068C39.8089 48.068 39.5414 48.2294 39.5414 48.4234C39.5414 48.6173 39.1739 48.8739 38.7234 48.9908C38.2788 49.1089 37.9415 49.3558 37.9788 49.5414C38.1523 50.4293 37.3704 52.4822 36.8608 52.4822C36.5427 52.4822 36.3813 52.6412 36.4994 52.8292C36.6174 53.0207 37.2114 53.0966 37.8234 53.0051C38.8414 52.8436 38.8788 52.881 38.2378 53.4026C37.8523 53.7147 37.5355 54.2002 37.5355 54.4737C37.5355 55.1001 35.6151 54.6797 34.6946 53.8532C34.3501 53.5412 33.7537 53.2858 33.3766 53.2858C32.8032 53.2858 32.7682 53.1472 33.1477 52.4352C33.3983 51.9678 33.9477 51.4967 34.3657 51.3847C34.7838 51.2762 35.1271 51.0172 35.1271 50.8076C35.1271 50.6052 34.9741 50.5257 34.7862 50.6425C34.5983 50.757 34.2392 50.4076 33.9923 49.863C33.7453 49.3161 33.3839 48.8751 33.1839 48.8751C32.5779 48.8751 30.7274 50.5016 30.8249 50.9485C30.8755 51.1835 30.6599 51.469 30.3515 51.581C29.9599 51.7256 29.866 51.5834 30.037 51.1341C30.178 50.7726 30.1129 50.4787 29.9021 50.4787C29.6913 50.4787 29.5142 50.1787 29.5142 49.8112C29.5142 49.1968 29.4612 49.1968 28.7793 49.8112C28.3769 50.1787 27.8528 50.4787 27.6203 50.4787C27.3853 50.4787 26.3083 51.2726 25.2288 52.24C23.6169 53.687 23.0615 53.9641 22.135 53.7906C21.2374 53.6195 20.8049 53.8111 20.0206 54.7351L19.0327 55.8941L19.7387 54.6002C20.1267 53.8942 21.9916 51.2413 23.8771 48.7113C41.6847 24.8317 67.6557 8.39514 96.7423 2.59783C108.084 0.332878 121.709 -0.605632 128.459 0.403958C130.406 0.695511 131.586 0.997906 131.077 1.08344C130.565 1.16537 130.048 1.48945 129.927 1.80389C129.799 2.13882 129.156 2.37133 128.371 2.37133C126.904 2.37133 126.159 3.00383 127.283 3.2978C127.871 3.45321 127.852 3.48935 127.169 3.5267C126.718 3.55562 126.134 3.78813 125.871 4.05077C125.545 4.37485 122.857 4.55918 117.268 4.63267C107.585 4.7652 106.914 4.83869 104.1 6.08321C102.9 6.6121 100.985 7.15665 99.8433 7.29158C98.6988 7.42652 97.4338 7.71566 97.0314 7.93613C96.6314 8.15419 95.7664 8.44815 95.1171 8.58911C94.24 8.77464 94.0822 8.93006 94.499 9.18667C94.805 9.37462 95.2014 9.44811 95.3761 9.33968C95.5472 9.23366 96.323 9.3192 97.0965 9.53123C97.941 9.76616 98.5904 9.77219 98.7289 9.55533C98.8554 9.35293 98.7289 9.18788 98.453 9.18788C98.135 9.18788 98.088 9.04933 98.3241 8.82042C99.0096 8.15901 101.507 8.19395 102.475 8.87102C103.348 9.48304 103.36 9.54449 102.66 9.90351C101.913 10.289 99.1482 10.9504 96.4483 11.3805C95.3544 11.5601 94.9219 11.8516 94.7508 12.5419C94.5328 13.407 94.3159 13.4708 91.6004 13.4708C88.474 13.4708 84.7826 14.3238 85.0031 14.9972C85.185 15.5478 87.209 15.7562 87.809 15.2852C89.4438 13.9913 93.5304 13.7346 93.0617 14.9587C92.8208 15.5876 93.9593 16.1622 94.3147 15.5912C94.4436 15.3791 94.8966 15.2057 95.3291 15.2057C95.7737 15.2057 96.1086 14.9298 96.1086 14.5611C96.1086 14.1346 96.3266 13.9961 96.7411 14.1587C97.0917 14.2912 97.6447 14.4033 97.9736 14.4033C98.494 14.4033 98.494 14.4792 97.9555 15.0153C96.9784 15.9924 97.541 16.6658 99.1795 16.4743C100.183 16.3562 100.541 16.4454 100.351 16.7562C100.16 17.067 100.651 17.2092 101.916 17.2092C103.181 17.2092 103.827 17.3971 103.989 17.8067C104.115 18.1356 104.471 18.4091 104.777 18.4091C105.277 18.4091 105.506 18.9007 105.236 19.3946C105.18 19.4946 105.491 19.8356 105.924 20.15C106.601 20.644 106.644 20.8705 106.238 21.762C105.977 22.327 105.32 22.9065 104.783 23.0414L103.802 23.2872L104.667 24.1546C105.147 24.6317 105.929 25.0546 106.408 25.0992C106.888 25.1401 107.841 25.4606 108.526 25.8136C109.506 26.3196 109.74 26.675 109.634 27.475C109.561 28.034 109.24 28.6568 108.922 28.8544C108.488 29.1339 108.472 29.2219 108.869 29.2255C109.157 29.2279 109.281 29.417 109.145 29.6375C109.01 29.8556 109.18 30.0375 109.522 30.0375C109.869 30.0375 110.149 30.3086 110.149 30.6375C110.149 30.9639 109.902 31.2374 109.596 31.2374C108.757 31.2374 105.333 32.8313 105.333 33.2229C105.333 33.4144 104.927 33.4903 104.43 33.4024C103.932 33.3108 103.753 33.3373 104.027 33.4699C104.395 33.6457 104.413 33.9108 104.095 34.5108C103.856 34.9517 103.556 35.2107 103.43 35.0842C103.303 34.9601 102.997 35.1348 102.75 35.4758C102.5 35.8143 101.973 36.1408 101.573 36.1998C100.723 36.3239 100.108 37.1769 100.376 37.8672C100.537 38.2913 99.7084 38.6913 98.3049 38.8708C98.0868 38.8997 97.6519 39.1322 97.3519 39.3852C97.0435 39.6358 96.5459 39.8467 96.2483 39.8503C95.6279 39.8563 92.4919 42.7706 92.4919 43.3441C92.4919 43.5465 92.1064 43.5971 91.6365 43.4501C91.0919 43.2742 90.8775 43.3296 91.0486 43.5971C91.257 43.938 88.1162 44.7621 87.2813 44.5826C83.8104 43.8501 82.4189 43.8007 78.954 44.2742C77.536 44.4717 76.6661 44.4127 76.283 44.0946C75.8421 43.7296 75.3891 43.7597 74.2747 44.2236C73.4832 44.5525 72.8338 44.9886 72.8338 45.185C72.8338 45.3789 72.2724 45.562 71.5832 45.5825C70.8977 45.603 69.1123 46.262 67.616 47.0439C64.4017 48.7354 63.8005 48.8257 64.2041 47.5728C64.3631 47.0752 64.5306 46.0958 64.5836 45.3934C64.698 43.7609 66.0365 42.0225 69.7339 38.719C73.1928 35.6216 78.0492 33.0928 78.0492 34.3867C78.0492 34.5746 78.5046 34.6457 79.0636 34.5397C80.0081 34.3578 80.025 34.3072 79.3636 33.7927C78.6841 33.2662 78.6901 33.2108 79.4552 32.6109C79.8961 32.2639 80.7491 32.0494 81.3527 32.1374C82.1586 32.2518 82.5177 32.0904 82.6875 31.5519C82.8261 31.1109 84.3055 30.1664 86.2994 29.2315C90.1787 27.4256 91.7377 26.1051 91.4197 24.8895C91.2462 24.2426 91.5486 23.898 92.8401 23.2366C93.74 22.7776 94.6135 22.4306 94.7846 22.4692C94.958 22.5077 95.4086 22.4017 95.7881 22.2342C96.2351 22.0403 96.9965 22.2523 97.935 22.8282C99.1084 23.5523 99.459 23.6221 99.7265 23.1872C100.465 21.9933 97.2856 21.1789 90.5848 20.8524C89.3932 20.7909 89.4438 19.9464 90.7233 18.4284C91.4968 17.508 91.6052 17.1983 91.1474 17.1983C90.8124 17.1983 90.4209 17.3863 90.2739 17.6188C90.1004 17.8983 89.6619 17.8104 88.98 17.3682C88.0716 16.7743 87.6247 16.7478 85.2802 17.1682C83.8152 17.4297 82.0803 17.9947 81.4358 18.4212C80.7852 18.8501 79.9322 19.1982 79.5323 19.2031C79.1323 19.2031 78.9178 19.385 79.0528 19.6055C79.4672 20.2729 80.8647 20.0524 82.1827 19.1175C83.5501 18.1441 88.2186 17.579 88.939 18.2995C89.6679 19.0284 87.3825 21.7319 85.0272 22.9294C83.8188 23.5438 82.7237 24.3113 82.6008 24.6329C82.4779 24.9546 82.1237 25.2184 81.8153 25.2184C81.5093 25.2184 81.2502 25.4425 81.2442 25.7184C81.2322 26.2654 78.0347 28.0243 77.0529 28.0243C76.7203 28.0243 75.9493 28.6014 75.3445 29.3062C72.788 32.2735 72.547 32.4326 70.7857 32.3651L69.1002 32.3L70.3652 31.1736C71.0592 30.5495 71.6302 29.9435 71.6302 29.8206C71.6302 29.4002 69.8954 30.5326 68.6364 31.7796C67.9388 32.4675 66.6895 33.2385 65.8594 33.4855C64.8149 33.7975 64.4824 33.8036 64.78 33.5096C65.5269 32.7651 65.2474 32.2795 64.4776 32.9747C63.2511 34.0831 63.1065 33.7216 64.0836 31.9808C64.592 31.0688 65.763 29.7074 66.6811 28.9508C67.6015 28.1954 68.54 27.0449 68.7665 26.3943C69.0075 25.7148 69.6255 25.0437 70.2315 24.8148C71.5844 24.3004 71.629 24.3064 71.629 25.0293C71.629 25.8678 72.8266 26.2678 73.2675 25.5763C73.5205 25.1787 73.6229 25.1618 73.6289 25.5208C73.6313 25.7943 73.8313 26.0208 74.0795 26.0208C74.3325 26.0208 74.4325 25.6654 74.312 25.1968C74.1566 24.6028 74.3409 24.2787 74.9855 24.0354C75.471 23.8498 76.1119 23.4089 76.4095 23.0559C76.7035 22.7053 77.3709 22.4113 77.895 22.4113C78.4215 22.4113 78.8455 22.2499 78.8455 22.0523C78.8455 21.8463 78.2251 21.8439 77.342 22.0463C76.5179 22.2439 75.0831 22.2969 74.165 22.1644C72.7242 21.9644 72.2302 22.1089 70.6267 23.2149C69.6002 23.9173 68.6412 24.3739 68.4918 24.2233C68.3388 24.0727 68.5448 23.7149 68.9424 23.4197C69.4339 23.0607 69.5219 22.7993 69.2183 22.6113C68.5039 22.1704 70.0062 20.7464 70.8893 21.0295C71.9712 21.374 72.5483 20.8705 71.8603 20.1849C71.5423 19.8669 71.1134 19.6079 70.905 19.6079C70.6929 19.6079 70.299 19.3368 70.0255 19.0079C69.3966 18.2489 67.328 18.2405 66.0136 18.9898C65.4606 19.3043 64.3956 19.8428 63.6463 20.1898C62.8933 20.5343 61.5199 21.4957 60.5874 22.3198C59.6525 23.1402 58.1345 24.4233 57.208 25.1666C56.2816 25.91 55.331 26.9376 55.0997 27.446C54.8684 27.9545 54.1226 28.6014 53.4468 28.8845C52.7697 29.164 51.6673 29.8724 50.9939 30.4555C50.3168 31.0411 49.2494 31.788 48.6145 32.1205C47.6904 32.594 47.588 32.7651 48.1121 32.9614C48.4711 33.1024 48.7675 33.0373 48.7675 32.8229C48.7675 32.6145 48.9554 32.435 49.1915 32.435C49.4277 32.435 50.2794 31.9844 51.0951 31.429C51.9131 30.876 52.6396 30.6085 52.7131 30.829C53.0721 31.9025 56.9659 30.635 58.4983 28.9375C58.8838 28.5111 59.6067 28.1966 60.1019 28.24C60.5994 28.2846 61.3669 28.1255 61.8054 27.887C62.7403 27.381 65.2727 26.4401 65.7257 26.4316C65.8968 26.4292 65.7606 26.8497 65.4233 27.3641C65.0884 27.8761 64.9052 28.393 65.0257 28.5147C65.1438 28.6327 64.6016 29.2881 63.8258 29.9736C63.0439 30.6555 62.4054 31.4001 62.4054 31.6242C62.4054 31.8446 61.7319 32.3121 60.9078 32.659C59.32 33.3205 57.5935 34.7324 57.5935 35.3734C57.5935 35.5878 58.3995 35.6649 59.4874 35.5408C61.1018 35.3589 61.2789 35.4023 60.6789 35.8432C59.9874 36.3492 56.8056 39.2081 53.9552 41.8911C53.1636 42.6321 52.2818 43.9621 51.9878 44.8416C51.6962 45.7271 51.3264 46.3656 51.1673 46.268C51.0023 46.168 50.6529 46.609 50.3879 47.2499C49.6759 48.9739 47.3904 50.9473 46.7905 50.3498C46.429 49.9944 46.3784 50.0377 46.5664 50.5377C46.7519 51.0112 46.4808 51.3088 45.5893 51.6172C44.9122 51.8521 44.3629 52.3256 44.3629 52.6677C44.3629 53.0123 44.1448 53.2882 43.8809 53.2882C43.5255 53.2882 43.5159 53.4062 43.852 53.7412C44.4231 54.3122 44.0641 55.2327 42.8196 56.388C42.2786 56.888 41.981 57.3 42.1545 57.3C42.328 57.3 41.9834 57.7506 41.3895 58.3036C40.2016 59.3831 39.5691 59.571 39.6872 58.7891ZM35.3042 41.8502C35.4958 41.0466 35.4548 40.7828 35.1862 41.0466C34.9681 41.2647 34.6573 41.9875 34.5043 42.6465C34.3127 43.4525 34.3573 43.7176 34.6224 43.4525C34.8428 43.232 35.1512 42.5116 35.3042 41.8502ZM34.2344 41.0237C34.2874 40.4322 34.1549 40.1033 33.92 40.2442C33.4549 40.5358 33.379 42.0502 33.8381 42.0502C34.0103 42.0466 34.1898 41.5875 34.2344 41.0237ZM38.5366 37.2408C39.3896 36.2998 38.6896 36.1432 37.7632 37.0673C37.0548 37.7733 36.9753 38.0407 37.4716 38.0407C37.6608 38.0407 38.1366 37.6793 38.5366 37.2408ZM40.9461 33.6289C41.2606 33.1205 40.7317 33.1205 39.9426 33.6289C39.4221 33.9614 39.4342 34.0204 40.0185 34.0265C40.3932 34.0289 40.8076 33.8518 40.9461 33.6289ZM44.8496 31.1374C45.5411 30.4929 45.9025 29.8459 45.7291 29.57C45.5351 29.258 45.6086 29.2026 45.9495 29.4146C46.2941 29.623 46.4025 29.5471 46.2784 29.1737C46.0399 28.4617 45.464 28.5737 44.9544 29.4351C44.7363 29.8086 44.0605 30.6206 43.4509 31.2386C42.8449 31.8591 42.3473 32.5831 42.3473 32.847C42.3485 33.3674 42.7461 33.0988 44.8496 31.1374ZM80.2563 22.4053C80.1178 22.1848 79.8274 22.0053 79.6033 22.0053C79.3853 22.0053 79.3154 22.1848 79.4503 22.4053C79.5853 22.6258 79.8792 22.8077 80.1009 22.8077C80.3226 22.8077 80.3925 22.6258 80.2563 22.4053ZM96.8363 17.6019C97.4133 17.608 97.4218 17.661 96.9013 17.9959C96.3772 18.3344 96.3833 18.3874 96.9567 18.3898C97.3097 18.3959 97.8181 18.1429 98.0808 17.8284C98.4518 17.3778 98.3928 17.214 97.7808 17.0164C96.7254 16.6815 95.6929 17.1429 95.7303 17.9369C95.7508 18.3573 95.8363 18.4103 95.9628 18.0959C96.0785 17.8164 96.4688 17.5983 96.8363 17.6019ZM84.9718 13.9864C85.3103 13.9864 85.6898 13.7154 85.8163 13.3865C86.1283 12.5805 85.7308 12.6311 84.1453 13.5925C83.3634 14.0696 82.9393 14.584 83.1044 14.8539C83.302 15.1683 83.5369 15.1069 83.8694 14.6479C84.1393 14.284 84.6332 13.9864 84.9718 13.9864ZM89.48 10.3806C89.6185 10.1601 89.5511 9.9782 89.327 9.9782C89.1065 9.9782 88.815 10.1601 88.6764 10.3806C88.5379 10.5987 88.6113 10.7806 88.8318 10.7806C89.0523 10.7806 89.3451 10.5987 89.48 10.3806ZM92.8919 7.17111C92.8919 6.95063 92.6208 6.76872 92.2919 6.76872C91.963 6.76872 91.6919 6.95063 91.6919 7.17111C91.6919 7.38917 91.963 7.57109 92.2919 7.57109C92.6208 7.57109 92.8919 7.38917 92.8919 7.17111ZM83.2682 54.2652C83.2682 53.9267 82.9947 53.5472 82.6658 53.4207C81.8864 53.1207 81.8864 52.4762 82.6658 52.4762C82.9947 52.4762 83.2682 52.2027 83.2682 51.8762C83.2682 51.5437 83.0767 51.2738 82.8393 51.2738C82.6068 51.2738 82.5249 51.1027 82.6538 50.8919C82.7827 50.6811 83.1863 50.6208 83.5477 50.7594C84.0622 50.957 84.1417 50.851 83.9248 50.2739C83.6104 49.4595 84.2224 48.886 85.4187 48.8763C85.9717 48.8703 86.1103 49.0763 85.9573 49.6703C85.7958 50.2883 85.9452 50.4763 86.6126 50.4787C87.0861 50.4787 88.1692 50.6666 89.0041 50.9028C90.4076 51.2943 90.5221 51.4316 90.4101 52.6003C90.2486 54.2616 89.0017 54.8737 85.7717 54.8833C83.7863 54.8797 83.2682 54.7508 83.2682 54.2652ZM138.488 51.0028C137.935 50.4522 138.251 49.6679 139.023 49.6679C139.558 49.6679 139.827 49.9353 139.827 50.4715C139.828 51.2413 139.041 51.5533 138.488 51.0028ZM116.614 39.7491C116.363 39.278 116.161 38.6142 116.161 38.2672C116.161 37.9263 115.979 37.6407 115.758 37.6407C115.287 37.6407 115.232 36.0553 115.685 35.3433C115.867 35.0577 116.538 34.9192 117.282 35.0144C117.988 35.1059 118.568 35.0168 118.568 34.8264C118.568 34.4529 121.265 34.5915 121.659 34.9854C122.053 35.3734 120.88 36.489 120.309 36.2673C119.57 35.9854 119.629 36.8263 120.411 37.6853C121.158 38.5118 120.872 39.2202 119.823 39.1383C119.323 39.0997 119.144 38.8503 119.27 38.3612C119.594 37.1311 118.811 37.5757 117.92 39.1262C117.103 40.5466 117.056 40.5707 116.614 39.7491ZM62.6993 34.3782C62.9704 34.1048 63.2909 33.9843 63.4138 34.1072C63.5366 34.2301 63.3198 34.4541 62.9198 34.6047C62.3524 34.8264 62.309 34.7794 62.6993 34.3782ZM145.836 33.8204C145.099 32.9349 145.518 32.8325 146.346 33.6963C146.73 34.1024 146.889 34.4313 146.695 34.4313C146.499 34.4313 146.112 34.1578 145.836 33.8204ZM127.918 33.7759C127.587 33.6409 127.642 33.3735 128.118 32.894C128.593 32.4145 128.934 32.3289 129.253 32.6181C129.506 32.8446 129.618 33.1891 129.5 33.3831C129.379 33.5771 129.535 33.6506 129.841 33.5445C130.194 33.4241 130.353 32.9 130.273 32.0916C130.149 30.8676 130.179 30.8411 131.241 31.2447C132.032 31.5471 132.418 31.5362 132.621 31.2001C132.824 30.8676 132.983 30.8615 133.18 31.182C133.333 31.4266 133.254 31.6266 133.006 31.6266C132.757 31.6266 132.668 31.8085 132.806 32.029C132.944 32.247 132.818 32.4313 132.53 32.435C132.148 32.441 132.168 32.547 132.604 32.8289C133.095 33.147 133.042 33.2205 132.333 33.2265C131.859 33.2289 131.377 33.006 131.265 32.7289C131.136 32.4169 131.05 32.4735 131.03 32.888C130.986 33.8518 129.294 34.3349 127.918 33.7759ZM54.5527 29.67C54.6732 29.4761 55.1792 29.2146 55.6792 29.0881C56.5562 28.8701 56.5611 28.8857 55.8117 29.4411C54.9467 30.0845 54.2142 30.2194 54.5527 29.67ZM64.8113 25.6112C65.5992 25.1028 66.1317 25.1028 65.8148 25.6112C65.6799 25.8293 65.2643 26.0112 64.8908 26.0088C64.3029 26.0015 64.2944 25.9485 64.8113 25.6112ZM66.8172 23.6077C66.8172 23.3896 67.0907 23.2053 67.4196 23.2053C67.7485 23.2053 68.0196 23.3908 68.0196 23.6077C68.0196 23.8245 67.7485 24.0101 67.4196 24.0101C67.0883 24.0113 66.8172 23.8257 66.8172 23.6077ZM102.629 16.549C102.764 16.4164 103.108 16.402 103.4 16.5164C103.714 16.6429 103.624 16.7405 103.155 16.7574C102.731 16.7779 102.496 16.6815 102.629 16.549ZM99.9397 16.002C99.5132 15.8514 99.3337 15.637 99.5397 15.5249C100.072 15.231 103.546 15.0984 103.264 15.3804C102.772 15.8719 100.681 16.2634 99.9397 16.002ZM102.619 14.1226C101.764 13.778 102.066 13.1226 103.022 13.2576C103.515 13.3286 103.877 13.5696 103.821 13.7865C103.702 14.2744 103.29 14.3864 102.619 14.1226ZM96.9049 13.8539C96.9049 13.7274 97.3133 13.1805 97.8169 12.6455C98.4759 11.9396 99.3048 11.5986 100.778 11.442C101.908 11.3215 103.302 11.1034 103.878 10.9601C104.658 10.7625 104.925 10.8517 104.925 11.2866C104.925 12.0865 103.872 12.9275 103.311 12.5805C103.066 12.4275 102.019 12.4335 100.99 12.5949C99.4964 12.8275 99.2759 12.9503 99.9168 13.2094C100.643 13.5033 100.625 13.5335 99.7168 13.5648C99.1639 13.5828 98.3085 13.7057 97.8109 13.8383C97.3097 13.972 96.9049 13.978 96.9049 13.8539ZM135.307 6.50367C135.578 6.39524 136.122 6.38921 136.51 6.48921C136.901 6.59161 136.678 6.68077 136.016 6.6892C135.354 6.69763 135.033 6.61571 135.307 6.50367Z" fill="#327A6A"/>
</svg>
