<svg width="512" height="512" viewBox="0 0 512 512" fill="none" xmlns="http://www.w3.org/2000/svg">
<g clip-path="url(#clip0_1_26)">
<path d="M106 420.999C130.853 420.999 151 400.852 151 375.999C151 351.146 130.853 330.999 106 330.999C81.1472 330.999 61 351.146 61 375.999C61 400.852 81.1472 420.999 106 420.999Z" fill="#E53472"/>
<path d="M121 300.999H391V59.999H121V300.999Z" fill="#E53472"/>
<path d="M512 14.999C512 9.46198 508.953 4.37898 504.075 1.77098C499.226 -0.836024 493.294 -0.543024 488.679 2.51798L421 46.971V314.027L488.68 358.48C493.331 361.58 499.265 361.807 504.076 359.227C508.954 356.62 512.001 351.537 512.001 345.999L512 14.999Z" fill="#E53472"/>
<path d="M7.925 359.226C12.735 361.806 18.67 361.579 23.321 358.479L91 314.027V46.971L23.32 2.51798C18.735 -0.543024 12.803 -0.836024 7.925 1.77098C3.047 4.37798 0 9.46198 0 14.999V345.999C0 351.536 3.047 356.619 7.925 359.226Z" fill="#E53472"/>
<path d="M46 481.999V496.999C46 505.283 52.716 511.999 61 511.999H151C159.284 511.999 166 505.283 166 496.999V481.999C166 448.861 139.137 420.999 106 420.999C72.863 420.999 46 448.86 46 481.999Z" fill="#E53472"/>
<path d="M256 420.999C280.853 420.999 301 400.852 301 375.999C301 351.146 280.853 330.999 256 330.999C231.147 330.999 211 351.146 211 375.999C211 400.852 231.147 420.999 256 420.999Z" fill="#E53472"/>
<path d="M211 511.999H301C309.284 511.999 316 505.283 316 496.999V481.999C316 448.861 289.137 420.999 256 420.999C222.863 420.999 196 448.861 196 481.999V496.999C196 505.283 202.716 511.999 211 511.999Z" fill="#E53472"/>
<path d="M406 420.999C430.853 420.999 451 400.852 451 375.999C451 351.146 430.853 330.999 406 330.999C381.147 330.999 361 351.146 361 375.999C361 400.852 381.147 420.999 406 420.999Z" fill="#E53472"/>
<path d="M346 481.999V496.999C346 505.283 352.716 511.999 361 511.999H451C459.284 511.999 466 505.283 466 496.999V481.999C466 448.861 439.137 420.999 406 420.999C372.863 420.999 346 448.86 346 481.999Z" fill="#E53472"/>
</g>
<defs>
<clipPath id="clip0_1_26">
<rect width="512" height="512" fill="white"/>
</clipPath>
</defs>
</svg>
