<svg width="512" height="512" viewBox="0 0 512 512" fill="none" xmlns="http://www.w3.org/2000/svg">
<g clip-path="url(#clip0_1_37)">
<path d="M136.531 110.94V76.8077C136.531 72.0953 132.71 68.2745 127.997 68.2745H8.53316C3.82076 68.2745 0 72.0953 0 76.8077V110.94H136.531Z" fill="#87A82B"/>
<path d="M0 128.007V409.601H136.531V128.007H0ZM102.398 238.938H34.1327C29.4202 238.938 25.5995 235.117 25.5995 230.405V162.139C25.5995 157.427 29.4202 153.606 34.1327 153.606H102.398C107.11 153.606 110.931 157.427 110.931 162.139V230.405C110.931 235.117 107.11 238.938 102.398 238.938Z" fill="#87A82B"/>
<path d="M0 460.8V503.466C0 508.178 3.82076 511.999 8.53316 511.999H127.997C132.71 511.999 136.531 508.178 136.531 503.466V460.8H0Z" fill="#87A82B"/>
<path d="M0 426.667H136.531V443.734H0V426.667Z" fill="#87A82B"/>
<path d="M153.597 426.667H264.528V443.734H153.597V426.667Z" fill="#87A82B"/>
<path d="M264.528 34.1419V8.54244C264.528 3.83004 260.707 0.00927734 255.995 0.00927734H162.13C157.418 0.00927734 153.597 3.83004 153.597 8.54244V34.1419H264.528Z" fill="#87A82B"/>
<path d="M153.597 93.874H264.528V409.601H153.597V93.874Z" fill="#87A82B"/>
<path d="M153.597 460.8V503.466C153.597 508.178 157.418 511.999 162.13 511.999H255.995C260.707 511.999 264.528 508.178 264.528 503.466V460.8H153.597Z" fill="#87A82B"/>
<path d="M153.597 51.2083H264.528V76.8077H153.597V51.2083Z" fill="#87A82B"/>
<path d="M281.39 176.714L285.957 194.243L430.471 155.706L425.9 138.177L281.39 176.714Z" fill="#87A82B"/>
<path d="M352.701 450.075L497.211 411.539L488.061 376.46L343.543 414.997L352.701 450.075Z" fill="#87A82B"/>
<path d="M483.753 359.948L434.783 172.218L290.265 210.755L339.235 398.485L483.753 359.948Z" fill="#87A82B"/>
<path d="M277.082 160.202L421.587 121.669L409.338 74.6745C408.075 70.1246 403.425 67.4038 398.842 68.533L270.845 102.666C266.324 103.903 263.628 108.532 264.782 113.074L277.082 160.202Z" fill="#87A82B"/>
<path d="M501.519 428.051L357.001 466.587L367.18 505.599C367.772 507.799 369.213 509.674 371.193 510.807C372.48 511.587 373.955 511.999 375.459 511.999C376.205 511.999 376.951 511.912 377.676 511.745L505.673 477.612C510.194 476.375 512.89 471.742 511.736 467.2L501.519 428.051Z" fill="#87A82B"/>
</g>
<defs>
<clipPath id="clip0_1_37">
<rect width="512" height="512" fill="white"/>
</clipPath>
</defs>
</svg>
