<svg width="512" height="512" viewBox="0 0 512 512" fill="none" xmlns="http://www.w3.org/2000/svg">
<path d="M497 76H482V391C482 415.814 460.814 436 436 436H298.437C292.241 453.461 275.556 466 256 466C236.444 466 219.76 453.461 213.563 436H76C51.186 436 30 415.814 30 391V76H15C6.709 76 0 82.709 0 91V451C0 459.291 6.709 466 15 466H183.563C189.759 483.461 206.444 496 226 496H286C305.556 496 322.24 483.461 328.437 466H497C505.291 466 512 459.291 512 451V91C512 82.709 505.291 76 497 76Z" fill="#59031D"/>
<path d="M241 395.01V50.944C220.238 33.593 186.9 16 136 16C127.709 16 121 22.709 121 31V331C121 339.291 127.709 346 136 346C205.384 346 234.318 384.377 241 395.01Z" fill="#59031D"/>
<path d="M436 406C444.291 406 451 399.291 451 391V61C451 52.709 444.291 46 436 46H316C299.052 46 283.574 51.865 271 61.383V421C271 412.724 277.724 406 286 406H436Z" fill="#59031D"/>
<path d="M76 46C67.709 46 61 52.709 61 61V391C61 399.291 67.709 406 76 406H211.848C203.447 395.817 181.416 376 136 376C111.186 376 91 355.814 91 331V46H76Z" fill="#59031D"/>
</svg>
