<svg width="512" height="512" viewBox="0 0 512 512" fill="none" xmlns="http://www.w3.org/2000/svg">
<path d="M318.08 221.973L299.84 278.187C276.034 280.203 252.682 285.888 230.613 295.04H217.6L193.92 221.973L256 176.853L318.08 221.973Z" fill="#A82C2C"/>
<path d="M92.9067 181.653L43.4133 217.6C45.9834 184.266 56.4396 152.019 73.92 123.52L92.9067 181.653Z" fill="#A82C2C"/>
<path d="M197.867 303.467L183.36 321.067C183.253 321.173 183.04 321.28 182.933 321.387C165.417 307.613 144.013 299.698 121.75 298.76C99.4869 297.822 77.4928 303.909 58.88 316.16C49.3932 293.355 44.0127 269.052 42.9867 244.373L106.773 197.867L172.693 225.813L197.867 303.467Z" fill="#A82C2C"/>
<path d="M179.947 205.76L114.027 177.813L89.28 101.653C113.194 71.5147 144.872 48.466 180.907 34.9867L245.333 81.8133V158.187L179.947 205.76Z" fill="#A82C2C"/>
<path d="M256 63.1467L206.507 27.2C239.039 19.3776 272.961 19.3776 305.493 27.2L256 63.1467Z" fill="#A82C2C"/>
<path d="M332.053 205.76L266.667 158.187V81.8133L331.093 34.9867C367.128 48.466 398.806 71.5147 422.72 101.653L397.973 177.813L332.053 205.76Z" fill="#A82C2C"/>
<path d="M419.093 181.653L438.08 123.52C455.56 152.019 466.017 184.266 468.587 217.6L419.093 181.653Z" fill="#A82C2C"/>
<path d="M469.013 244.373C467.915 269.739 462.28 294.703 452.373 318.08C414.089 291.962 368.903 277.816 322.56 277.44L339.307 225.813L405.227 197.867L469.013 244.373Z" fill="#A82C2C"/>
<path d="M405.333 394.667C405.305 370.225 410.579 346.068 420.789 323.861C389.767 307.316 355.148 298.661 319.989 298.661C284.83 298.661 250.212 307.316 219.189 323.861C229.374 346.077 234.645 370.228 234.645 394.667C234.645 419.105 229.374 443.256 219.189 465.472C250.212 482.018 284.83 490.672 319.989 490.672C355.148 490.672 389.767 482.018 420.789 465.472C410.579 443.265 405.305 419.108 405.333 394.667ZM362.667 405.333H352V416C352 418.829 350.876 421.542 348.876 423.543C346.875 425.543 344.162 426.667 341.333 426.667C338.504 426.667 335.791 425.543 333.791 423.543C331.79 421.542 330.667 418.829 330.667 416V405.333H309.333V416C309.333 418.829 308.21 421.542 306.209 423.543C304.209 425.543 301.496 426.667 298.667 426.667C295.838 426.667 293.125 425.543 291.124 423.543C289.124 421.542 288 418.829 288 416V405.333H277.333C274.504 405.333 271.791 404.21 269.791 402.209C267.79 400.209 266.667 397.496 266.667 394.667C266.667 391.838 267.79 389.125 269.791 387.124C271.791 385.124 274.504 384 277.333 384H288V373.333C288 370.504 289.124 367.791 291.124 365.791C293.125 363.791 295.838 362.667 298.667 362.667C301.496 362.667 304.209 363.791 306.209 365.791C308.21 367.791 309.333 370.504 309.333 373.333V384H330.667V373.333C330.667 370.504 331.79 367.791 333.791 365.791C335.791 363.791 338.504 362.667 341.333 362.667C344.162 362.667 346.875 363.791 348.876 365.791C350.876 367.791 352 370.504 352 373.333V384H362.667C365.496 384 368.209 385.124 370.209 387.124C372.21 389.125 373.333 391.838 373.333 394.667C373.333 397.496 372.21 400.209 370.209 402.209C368.209 404.21 365.496 405.333 362.667 405.333Z" fill="#A82C2C"/>
<path d="M482.997 373.845C470.237 358.912 455.49 345.798 439.168 334.869V334.933C430.937 353.772 426.688 374.108 426.688 394.667C426.688 415.225 430.937 435.561 439.168 454.4C455.486 443.475 470.23 430.365 482.987 415.435C487.887 409.614 490.575 402.25 490.577 394.642C490.578 387.033 487.894 379.668 482.997 373.845Z" fill="#A82C2C"/>
<path d="M201.088 421.536C183.694 423.088 167.399 430.703 155.051 443.051C142.703 455.399 135.088 471.694 133.536 489.088C150.25 485.851 165.613 477.689 177.651 465.651C189.689 453.613 197.851 438.25 201.088 421.536Z" fill="#A82C2C"/>
<path d="M139.957 427.957C156.628 411.302 178.868 401.398 202.4 400.149C201.143 379.374 192.323 359.778 177.606 345.061C162.889 330.344 143.293 321.524 122.517 320.267C121.28 343.801 111.374 366.045 94.7093 382.709C78.0448 399.374 55.8013 409.28 32.2667 410.517C33.5239 431.293 42.3438 450.889 57.0609 465.606C71.7781 480.323 91.3741 489.143 112.149 490.4C113.398 466.868 123.302 444.628 139.957 427.957Z" fill="#A82C2C"/>
<path d="M101.131 321.579C84.417 324.816 69.0535 332.978 57.0156 345.016C44.9777 357.054 36.8155 372.417 33.5787 389.131C50.9723 387.579 67.2673 379.963 79.6153 367.615C91.9633 355.267 99.5788 338.972 101.131 321.579Z" fill="#A82C2C"/>
</svg>
