<svg width="512" height="512" viewBox="0 0 512 512" fill="none" xmlns="http://www.w3.org/2000/svg">
<path d="M298.667 453.333V389.333C298.665 383.123 297.309 376.989 294.692 371.357C292.076 365.725 288.263 360.732 283.518 356.725C278.774 352.718 273.213 349.794 267.222 348.158C261.232 346.521 254.957 346.211 248.834 347.249C238.651 349.301 229.514 354.87 223.023 362.982C216.533 371.092 213.103 381.228 213.333 391.614V453.333C213.333 458.991 211.086 464.418 207.085 468.418C203.084 472.419 197.658 474.667 192 474.667H128C116.684 474.667 105.832 470.171 97.8301 462.17C89.8285 454.168 85.3333 443.316 85.3333 432V304C85.3333 297.376 86.8755 290.843 89.8377 284.919C92.8 278.994 97.101 273.841 102.4 269.867L245.333 162.667V101.333H213.333C210.504 101.333 207.791 100.21 205.791 98.2092C203.79 96.2088 202.667 93.4957 202.667 90.6667C202.667 87.8377 203.79 85.1246 205.791 83.1242C207.791 81.1239 210.504 80 213.333 80H245.333V48C245.333 45.1711 246.457 42.458 248.458 40.4576C250.458 38.4572 253.171 37.3334 256 37.3334C258.829 37.3334 261.542 38.4572 263.542 40.4576C265.543 42.458 266.667 45.1711 266.667 48V80H298.667C301.496 80 304.209 81.1239 306.209 83.1242C308.21 85.1246 309.333 87.8377 309.333 90.6667C309.333 93.4957 308.21 96.2088 306.209 98.2092C304.209 100.21 301.496 101.333 298.667 101.333H266.667V162.667L409.6 269.867C414.899 273.841 419.2 278.994 422.162 284.919C425.124 290.843 426.667 297.376 426.667 304V432C426.667 443.316 422.171 454.168 414.17 462.17C406.168 470.171 395.316 474.667 384 474.667H320C314.342 474.667 308.916 472.419 304.915 468.418C300.914 464.418 298.667 458.991 298.667 453.333Z" fill="#FFA1A1"/>
</svg>
