<svg width="512" height="512" viewBox="0 0 512 512" fill="none" xmlns="http://www.w3.org/2000/svg">
<path d="M361.642 115.102H285.364C283.733 115.102 282.168 114.454 281.015 113.301C279.861 112.147 279.213 110.583 279.213 108.951V32.6832C279.207 26.9349 276.92 21.424 272.856 17.3594C268.791 13.2948 263.28 11.0086 257.532 11.0022H254.467C248.719 11.0087 243.208 13.295 239.143 17.3596C235.079 21.4241 232.792 26.935 232.786 32.6832V108.951C232.786 110.583 232.138 112.147 230.984 113.301C229.831 114.454 228.266 115.102 226.635 115.102H150.356C144.608 115.109 139.097 117.395 135.033 121.46C130.968 125.524 128.682 131.035 128.675 136.783V139.849C128.682 145.597 130.968 151.108 135.033 155.172C139.097 159.237 144.608 161.523 150.356 161.53H226.635C228.266 161.53 229.831 162.178 230.984 163.331C232.138 164.485 232.786 166.049 232.786 167.68V334.051C248.248 333.145 263.751 333.145 279.213 334.051V167.68C279.213 166.049 279.861 164.484 281.015 163.331C282.168 162.178 283.733 161.529 285.364 161.529H361.642C367.39 161.523 372.901 159.237 376.966 155.172C381.03 151.107 383.317 145.597 383.323 139.848V136.783C383.317 131.035 381.03 125.524 376.966 121.46C372.901 117.395 367.39 115.109 361.642 115.102Z" fill="#868686"/>
<path d="M256 345.67C152.568 345.67 58.9911 387.665 17.6 452.658C14.551 457.378 12.8471 462.841 12.6718 468.458C12.4965 474.074 13.8563 479.633 16.605 484.534C19.2998 489.545 23.3103 493.727 28.2049 496.629C33.0994 499.531 38.6927 501.043 44.3826 501.002H467.617C473.307 501.043 478.901 499.531 483.795 496.629C488.69 493.727 492.7 489.545 495.395 484.533C498.144 479.632 499.504 474.074 499.328 468.457C499.153 462.841 497.449 457.378 494.4 452.658C453.009 387.665 359.432 345.67 256 345.67Z" fill="#868686"/>
</svg>
