<svg width="512" height="512" viewBox="0 0 512 512" fill="none" xmlns="http://www.w3.org/2000/svg">
<path d="M278.509 201.076V183.804L256 169.054L233.491 183.804V201.076C233.491 216.543 242.351 230.402 256 236.997C269.649 230.402 278.509 216.543 278.509 201.076Z" fill="#2A2780"/>
<path d="M453.881 318.624V318.27L512 257.001L471.482 148.555L463.229 146.905C389.662 132.191 317.221 98.4524 269.452 56.6553L255.999 44.8822L242.547 56.6543C194.777 98.4523 122.336 132.191 48.7686 146.905L40.516 148.555L0 257.001L58.1187 318.27V318.624H453.881ZM203.254 201.076V167.467L256 132.904L308.746 167.467V201.076C308.746 231.318 289.47 258.061 260.78 267.625L256 269.218L251.22 267.625C222.53 258.061 203.254 231.318 203.254 201.076Z" fill="#2A2780"/>
<path d="M58.1187 348.861V376.746C58.1187 426.578 98.6599 467.12 148.492 467.12H363.508C413.34 467.12 453.881 426.579 453.881 376.746V348.861H58.1187Z" fill="#2A2780"/>
</svg>
