<svg width="512" height="512" viewBox="0 0 512 512" fill="none" xmlns="http://www.w3.org/2000/svg">
<path d="M474.507 336C478.269 333.233 481.235 329.523 483.105 325.244C484.975 320.965 485.684 316.269 485.159 311.628C484.634 306.988 482.895 302.568 480.116 298.815C477.338 295.061 473.618 292.107 469.333 290.251V253.76L448 262.827V290.251C443.713 292.106 439.991 295.061 437.211 298.815C434.43 302.569 432.69 306.991 432.165 311.633C431.64 316.275 432.35 320.973 434.222 325.254C436.094 329.534 439.062 333.245 442.827 336.011C439.478 338.471 436.754 341.683 434.873 345.388C432.993 349.094 432.009 353.189 432 357.344V384C432 386.829 433.124 389.542 435.124 391.542C437.125 393.543 439.838 394.667 442.667 394.667H474.667C477.496 394.667 480.209 393.543 482.209 391.542C484.21 389.542 485.333 386.829 485.333 384V357.333C485.325 353.178 484.341 349.083 482.46 345.378C480.58 341.672 477.855 338.46 474.507 336Z" fill="#A10E9F"/>
<path d="M416 276.373V355.307C416.058 364.483 413.728 373.516 409.24 381.52C404.752 389.524 398.259 396.223 390.4 400.96C349.615 424.78 303.232 437.333 256 437.333C208.768 437.333 162.385 424.78 121.6 400.96C113.741 396.223 107.248 389.524 102.76 381.52C98.2722 373.516 95.9425 364.483 96 355.307V276.373L226.88 331.733C236.1 335.606 246 337.6 256 337.6C266 337.6 275.9 335.606 285.12 331.733L416 276.373Z" fill="#A10E9F"/>
<path d="M491.051 162.528L276.779 71.8613C270.194 69.0914 263.122 67.6646 255.979 67.6646C248.835 67.6646 241.763 69.0914 235.179 71.8613L20.9067 162.528C15.1151 164.978 10.1737 169.08 6.69955 174.321C3.22544 179.563 1.37268 185.712 1.37268 192C1.37268 198.288 3.22544 204.437 6.69955 209.679C10.1737 214.92 15.1151 219.022 20.9067 221.472L235.179 312.139C241.763 314.912 248.835 316.34 255.979 316.34C263.123 316.34 270.195 314.912 276.779 312.139L491.051 221.472C496.842 219.022 501.784 214.92 505.258 209.679C508.732 204.437 510.585 198.288 510.585 192C510.585 185.712 508.732 179.563 505.258 174.321C501.784 169.08 496.842 164.978 491.051 162.528Z" fill="#A10E9F"/>
</svg>
