<svg width="512" height="512" viewBox="0 0 512 512" fill="none" xmlns="http://www.w3.org/2000/svg">
<path d="M471.68 143.76L271.2 35.84C261.76 30.72 250.32 30.72 240.88 35.84L40.32 143.76C35.12 146.56 31.84 152 31.84 157.92V187.28C31.84 196.16 39.04 203.36 47.92 203.36H463.92C472.8 203.36 480 196.16 480 187.28V157.92C480 152 476.72 146.56 471.52 143.76H471.68ZM256 161.68C238.16 161.68 223.68 147.2 223.68 129.36C223.68 111.52 238.16 97.04 256 97.04C273.84 97.04 288.32 111.52 288.32 129.36C288.32 147.2 273.84 161.68 256 161.68Z" fill="#F8C50A"/>
<path d="M454.8 427.04H57.2C43.28 427.04 32 438.32 32 452.24V471.12C32 476 35.92 479.92 40.8 479.92H471.2C476.08 479.92 480 476 480 471.12V452.24C480 438.32 468.72 427.04 454.8 427.04Z" fill="#F8C50A"/>
<path d="M64.88 219.44V411.04H113.36V281.2C113.36 264.64 126.8 251.2 143.36 251.2C159.92 251.2 173.36 264.64 173.36 281.2V411.04H226V281.2C226 264.64 239.44 251.2 256 251.2C272.56 251.2 286 264.64 286 281.2V411.04H338.64V281.2C338.64 264.64 352.08 251.2 368.64 251.2C385.2 251.2 398.64 264.64 398.64 281.2V411.04H447.12V219.44H64.88Z" fill="#F8C50A"/>
</svg>
