<svg width="512" height="512" viewBox="0 0 512 512" fill="none" xmlns="http://www.w3.org/2000/svg">
<path d="M460.8 429.328H432.097V223.301C432.097 213.744 424.247 205.893 414.519 205.893H353.591V65.9469C353.591 56.3896 345.74 48.5386 336.182 48.5386H175.927C166.37 48.5386 158.519 56.3896 158.519 65.9469V205.893H97.4198C87.6916 205.893 79.8416 213.744 79.8416 223.301V429.328H51.2C41.7666 429.328 34.1333 436.962 34.1333 446.395C34.1333 455.828 41.7666 463.462 51.2 463.462H460.8C470.233 463.462 477.867 455.828 477.867 446.395C477.867 436.962 470.233 429.328 460.8 429.328ZM320.994 271.942C320.994 268.016 324.236 264.773 328.161 264.773H354.444C358.37 264.773 361.612 268.016 361.612 271.942V298.224C361.612 302.149 358.37 305.392 354.444 305.392H328.161C324.236 305.392 320.994 302.149 320.994 298.224V271.942ZM190.946 383.557C190.946 387.482 187.703 390.725 183.777 390.725H157.495C153.57 390.725 150.327 387.482 150.327 383.557V357.275C150.327 353.349 153.57 350.106 157.495 350.106H183.777C187.703 350.106 190.946 353.349 190.946 357.275V383.557ZM191.97 298.906C191.97 303.002 188.556 306.416 184.46 306.416H156.812C152.716 306.416 149.303 303.002 149.303 298.906V271.258C149.303 267.163 152.716 263.749 156.812 263.749H184.46C188.556 263.749 191.97 267.163 191.97 271.258V298.906ZM276.449 383.728C276.449 387.653 273.206 390.896 269.281 390.896H242.657C238.732 390.896 235.49 387.653 235.49 383.728V357.104C235.49 353.178 238.732 349.935 242.657 349.935H269.281C273.206 349.935 276.449 353.178 276.449 357.104V383.728ZM276.449 298.395C276.449 302.32 273.206 305.563 269.281 305.563H242.657C238.732 305.563 235.49 302.32 235.49 298.395V271.771C235.49 267.845 238.732 264.602 242.657 264.602H269.281C273.206 264.602 276.449 267.845 276.449 271.771V298.395ZM289.42 151.28H270.476V170.224C270.476 179.61 262.796 187.291 253.409 187.291C244.023 187.291 236.343 179.61 236.343 170.224V151.28H217.399C208.012 151.28 200.332 143.6 200.332 134.214C200.332 124.826 208.012 117.147 217.399 117.147H236.343V98.2021C236.343 88.8157 244.023 81.1355 253.409 81.1355C262.796 81.1355 270.476 88.8157 270.476 98.2021V117.147H289.42C298.806 117.147 306.486 124.826 306.486 134.214C306.486 143.6 298.806 151.28 289.42 151.28ZM362.636 384.24C362.636 388.335 359.223 391.749 355.127 391.749H327.479C323.382 391.749 319.97 388.335 319.97 384.24V356.592C319.97 352.496 323.382 349.082 327.479 349.082H355.127C359.223 349.082 362.636 352.496 362.636 356.592V384.24Z" fill="#D91A1A"/>
</svg>
