<svg width="512" height="512" viewBox="0 0 512 512" fill="none" xmlns="http://www.w3.org/2000/svg">
<path d="M375.723 295.168C371.627 294.4 358.229 294.656 345.088 295.509L345.003 333.483C344.747 345.259 337.237 355.072 326.229 358.144L173.056 400.384C170.752 401.067 168.448 401.408 165.973 401.408C159.232 401.408 152.661 398.677 147.797 393.813C141.483 387.413 138.923 378.027 141.141 369.237L157.355 310.699C128.085 310.016 90.368 314.624 76.6293 325.035C58.112 339.029 50.0906 360.192 46.592 375.381C42.4106 393.984 42.5813 412.757 42.752 431.019C42.8373 435.712 46.6773 439.467 51.2853 439.467H451.243C453.803 439.467 456.277 438.272 457.899 436.309C459.52 434.347 460.117 431.701 459.605 429.141C451.84 391.851 437.077 355.925 417.877 328.021C409.344 315.563 395.691 298.667 375.723 295.168Z" fill="#855400"/>
<path d="M376.149 104.533C360.704 120.064 340.309 145.067 328.107 165.291L325.717 162.987C322.389 159.659 317.013 159.659 313.685 162.987C310.357 166.315 310.357 171.691 313.685 175.019L334.165 195.499L316.075 213.589L208.299 213.845C204.459 213.845 201.045 216.405 200.021 220.075L157.696 373.504C156.928 376.491 157.781 379.648 159.915 381.781C161.536 383.403 163.755 384.341 165.973 384.341C166.741 384.341 167.424 384.256 168.192 384L321.621 341.675C325.291 340.651 327.851 337.323 327.936 333.483L328.107 225.707L346.197 207.616L366.677 228.096C368.384 229.803 370.517 230.656 372.736 230.656C374.955 230.656 377.088 229.803 378.795 228.096C382.123 224.768 382.123 219.392 378.795 216.064L376.405 213.76C396.629 201.472 421.717 181.163 437.248 165.632C484.437 118.443 468.139 91.9893 459.008 82.8587C449.792 73.5573 423.339 57.344 376.149 104.533Z" fill="#855400"/>
</svg>
