<svg width="512" height="512" viewBox="0 0 512 512" fill="none" xmlns="http://www.w3.org/2000/svg">
<g clip-path="url(#clip0_2_2)">
<path d="M121 392C187.168 392 241 330.441 241 256C241 197.328 207.523 163.285 205.812 160.258C206.672 155.5 211 141.012 211 121C211 54.832 170.629 0 121 0C71.3711 0 30 54.832 30 121C30 140.988 34.3516 155.645 35.1875 160.258C33.4922 163.258 0 196.254 0 256C0 330.441 54.832 392 121 392Z" fill="#04772E"/>
<path d="M15 512H497C505.289 512 512 505.289 512 497C512 488.711 505.289 482 497 482H482V452H497C505.289 452 512 445.289 512 437C512 428.711 505.289 422 497 422H482V377C482 368.711 475.289 362 467 362H376C367.711 362 361 368.711 361 377V422H346C337.711 422 331 428.711 331 437C331 445.289 337.711 452 346 452H361V482H301V418.676C291.305 420.848 281.273 422 271 422C260.883 422 250.875 420.727 241 418.437V482H151V418.676C141.305 420.848 131.273 422 121 422C110.727 422 100.695 420.848 91 418.676V482H15C6.71094 482 0 488.711 0 497C0 505.289 6.71094 512 15 512ZM391 452H452V482H391V452Z" fill="#04772E"/>
<path d="M237.996 153.125C265.141 191.648 271 229.75 271 256C271 304.602 251.684 349.227 221.184 379.449C236.402 387.32 253.18 392 271 392C337.168 392 391 330.441 391 256C391 196.254 357.508 163.258 355.812 160.258C356.648 155.645 361 140.988 361 121C361 54.832 320.629 0 271 0C249.535 0 230.066 10.4844 214.582 27.2695C230.859 52.875 241 85.832 241 121C241 133.949 239.508 144.98 237.996 153.125Z" fill="#04772E"/>
</g>
<defs>
<clipPath id="clip0_2_2">
<rect width="512" height="512" fill="white"/>
</clipPath>
</defs>
</svg>
