<svg width="512" height="512" viewBox="0 0 512 512" fill="none" xmlns="http://www.w3.org/2000/svg">
<path d="M437.333 426.667H369.259L401.259 362.667H416C418.829 362.667 421.542 361.543 423.542 359.542C425.543 357.542 426.667 354.829 426.667 352C426.667 349.171 425.543 346.458 423.542 344.458C421.542 342.457 418.829 341.333 416 341.333H277.333V288C277.333 285.171 278.457 282.458 280.457 280.458C282.458 278.457 285.171 277.333 288 277.333C290.829 277.333 293.542 278.457 295.542 280.458C297.543 282.458 298.667 285.171 298.667 288C298.667 290.829 299.79 293.542 301.791 295.542C303.791 297.543 306.504 298.667 309.333 298.667C312.162 298.667 314.875 297.543 316.876 295.542C318.876 293.542 320 290.829 320 288C320 279.513 316.629 271.374 310.627 265.373C304.626 259.371 296.487 256 288 256C284.355 256.049 280.747 256.728 277.333 258.005V224C277.333 215.513 280.705 207.374 286.706 201.373C292.707 195.371 300.846 192 309.333 192C317.82 192 325.96 195.371 331.961 201.373C337.962 207.374 341.333 215.513 341.333 224C341.333 226.829 342.457 229.542 344.457 231.542C346.458 233.543 349.171 234.667 352 234.667C354.829 234.667 357.542 233.543 359.542 231.542C361.543 229.542 362.667 226.829 362.667 224C362.667 209.855 357.048 196.29 347.046 186.288C337.044 176.286 323.478 170.667 309.333 170.667C297.748 170.724 286.503 174.592 277.333 181.675V160C277.333 145.855 282.952 132.29 292.954 122.288C302.956 112.286 316.522 106.667 330.667 106.667C344.812 106.667 358.377 112.286 368.379 122.288C378.381 132.29 384 145.855 384 160C384 162.829 385.124 165.542 387.124 167.542C389.125 169.543 391.838 170.667 394.667 170.667C397.496 170.667 400.209 169.543 402.209 167.542C404.209 165.542 405.333 162.829 405.333 160C405.32 143.68 399.961 127.814 390.075 114.829C380.189 101.844 366.321 92.4561 350.594 88.1007C334.866 83.7453 318.144 84.6627 302.987 90.7126C287.83 96.7625 275.073 107.612 266.667 121.6C258.261 107.612 245.503 96.7625 230.346 90.7126C215.189 84.6627 198.468 83.7453 182.74 88.1007C167.012 92.4561 153.144 101.844 143.258 114.829C133.372 127.814 128.013 143.68 128 160C128 162.829 129.124 165.542 131.124 167.542C133.125 169.543 135.838 170.667 138.667 170.667C141.496 170.667 144.209 169.543 146.209 167.542C148.21 165.542 149.333 162.829 149.333 160C149.333 145.855 154.952 132.29 164.954 122.288C174.956 112.286 188.522 106.667 202.667 106.667C216.812 106.667 230.377 112.286 240.379 122.288C250.381 132.29 256 145.855 256 160V181.675C246.831 174.592 235.586 170.724 224 170.667C209.855 170.667 196.29 176.286 186.288 186.288C176.286 196.29 170.667 209.855 170.667 224C170.667 226.829 171.79 229.542 173.791 231.542C175.791 233.543 178.504 234.667 181.333 234.667C184.162 234.667 186.875 233.543 188.876 231.542C190.876 229.542 192 226.829 192 224C192 215.513 195.371 207.374 201.373 201.373C207.374 195.371 215.513 192 224 192C232.487 192 240.626 195.371 246.627 201.373C252.629 207.374 256 215.513 256 224V258.005C252.586 256.728 248.978 256.049 245.333 256C236.846 256 228.707 259.371 222.706 265.373C216.705 271.374 213.333 279.513 213.333 288C213.333 290.829 214.457 293.542 216.457 295.542C218.458 297.543 221.171 298.667 224 298.667C226.829 298.667 229.542 297.543 231.542 295.542C233.543 293.542 234.667 290.829 234.667 288C234.667 285.171 235.79 282.458 237.791 280.458C239.791 278.457 242.504 277.333 245.333 277.333C248.162 277.333 250.875 278.457 252.876 280.458C254.876 282.458 256 285.171 256 288V341.333H117.333C114.504 341.333 111.791 342.457 109.791 344.458C107.79 346.458 106.667 349.171 106.667 352C106.667 354.829 107.79 357.542 109.791 359.542C111.791 361.543 114.504 362.667 117.333 362.667H132.075L164.075 426.667H96C93.171 426.667 90.4579 427.79 88.4575 429.791C86.4571 431.791 85.3333 434.504 85.3333 437.333C85.3333 440.162 86.4571 442.875 88.4575 444.876C90.4579 446.876 93.171 448 96 448H437.333C440.162 448 442.875 446.876 444.876 444.876C446.876 442.875 448 440.162 448 437.333C448 434.504 446.876 431.791 444.876 429.791C442.875 427.79 440.162 426.667 437.333 426.667Z" fill="#1A4389"/>
</svg>
