<svg width="512" height="512" viewBox="0 0 512 512" fill="none" xmlns="http://www.w3.org/2000/svg">
<g clip-path="url(#clip0_2_11)">
<path d="M361.88 321.716L337.281 282.069C363.097 314.146 410.866 315.74 438.754 286.085C464.218 259.008 462.918 216.485 435.838 191.017C408.772 165.561 366.24 166.852 340.771 193.934C321.205 214.74 317.656 244.323 328.672 268.193L269.168 172.289L357.47 146.808C384.893 138.895 397.853 107.505 383.92 82.538C373.803 64.41 352.805 55.768 332.861 61.524L199.177 100.1C164.516 110.103 148.994 150.395 168.026 181.071L208.432 246.194L137.569 290.163C222.822 292.122 284.42 318.079 361.88 321.716Z" fill="#187BCC"/>
<path d="M19.105 365.89C212.902 310.8 286.093 422.016 500.785 365.975C508.801 363.883 513.602 355.688 511.51 347.673C509.418 339.658 501.223 334.857 493.208 336.948C286.944 390.792 213.652 279.398 10.902 337.033C2.934 339.298 -1.69 347.594 0.575 355.563C2.841 363.533 11.14 368.155 19.105 365.89Z" fill="#187BCC"/>
<path d="M493.208 406.948C286.565 460.89 214.054 349.282 10.902 407.033C2.934 409.298 -1.69 417.594 0.575 425.563C2.84 433.532 11.139 438.156 19.105 435.89C212.902 380.8 286.093 492.016 500.785 435.975C508.801 433.883 513.602 425.688 511.51 417.673C509.418 409.657 501.223 404.856 493.208 406.948Z" fill="#187BCC"/>
</g>
<defs>
<clipPath id="clip0_2_11">
<rect width="512" height="512" fill="white"/>
</clipPath>
</defs>
</svg>
