<svg width="512" height="512" viewBox="0 0 512 512" fill="none" xmlns="http://www.w3.org/2000/svg">
<g clip-path="url(#clip0_2_41)">
<path d="M253.053 64C252.821 63.9945 252.59 63.9945 252.358 64H47.0748C38.1982 63.7844 30.8285 70.8063 30.6129 79.6814C30.6087 79.8442 30.6073 80.0056 30.6087 80.1684V512H268.522V80.1684C268.715 71.4324 261.791 64.1934 253.053 64ZM122.435 462.769C122.435 468.915 117.451 473.899 111.304 473.899C105.158 473.899 100.174 468.915 100.174 462.769V399.126C100.174 392.98 105.158 387.996 111.304 387.996C117.451 387.996 122.435 392.98 122.435 399.126V462.769ZM122.435 362.595C122.435 368.742 117.451 373.725 111.304 373.725C105.158 373.725 100.174 368.742 100.174 362.595V298.952C100.174 292.806 105.158 287.822 111.304 287.822C117.451 287.822 122.435 292.806 122.435 298.952V362.595ZM122.435 261.565C122.435 267.712 117.451 272.696 111.304 272.696C105.158 272.696 100.174 267.712 100.174 261.565V197.923C100.174 191.776 105.158 186.792 111.304 186.792C117.451 186.792 122.435 191.776 122.435 197.923V261.565ZM122.435 160.536C122.435 166.682 117.451 171.666 111.304 171.666C105.158 171.666 100.174 166.682 100.174 160.536V96.8932C100.174 90.7464 105.158 85.7628 111.304 85.7628C117.451 85.7628 122.435 90.7464 122.435 96.8932V160.536ZM198.957 462.769C198.957 468.915 193.973 473.899 187.826 473.899C181.679 473.899 176.696 468.915 176.696 462.769V399.126C176.696 392.98 181.679 387.996 187.826 387.996C193.973 387.996 198.957 392.98 198.957 399.126V462.769ZM198.957 362.595C198.957 368.742 193.973 373.725 187.826 373.725C181.679 373.725 176.696 368.742 176.696 362.595V298.952C176.696 292.806 181.679 287.822 187.826 287.822C193.973 287.822 198.957 292.806 198.957 298.952V362.595ZM198.957 261.565C198.957 267.712 193.973 272.696 187.826 272.696C181.679 272.696 176.696 267.712 176.696 261.565V197.923C176.696 191.776 181.679 186.792 187.826 186.792C193.973 186.792 198.957 191.776 198.957 197.923V261.565ZM198.957 160.536C198.957 166.682 193.973 171.666 187.826 171.666C181.679 171.666 176.696 166.682 176.696 160.536V96.8932C176.696 90.7464 181.679 85.7628 187.826 85.7628C193.973 85.7628 198.957 90.7464 198.957 96.8932V160.536Z" fill="#0091AE"/>
<path d="M195.673 -4.0853e-07H102.369C93.49 -0.02087 86.2747 7.16104 86.2552 16.0417C86.2552 16.2031 86.2566 16.3645 86.2608 16.5273V41.7391H212.87V16.5259C212.87 7.31965 204.879 -4.0853e-07 195.673 -4.0853e-07Z" fill="#0091AE"/>
<path d="M465.358 197.562C465.213 197.561 465.07 197.562 464.925 197.565H290.783V512H481.391V213.82C481.453 204.903 474.275 197.624 465.358 197.562ZM361.739 485.114C361.739 491.261 356.755 496.245 350.609 496.245C344.462 496.245 339.478 491.261 339.478 485.114V421.472C339.478 415.325 344.462 410.342 350.609 410.342C356.755 410.342 361.739 415.325 361.739 421.472V485.114ZM361.739 389.65C361.739 395.797 356.755 400.781 350.609 400.781C344.462 400.781 339.478 395.797 339.478 389.65V326.006C339.478 319.859 344.462 314.876 350.609 314.876C356.755 314.876 361.739 319.859 361.739 326.006V389.65ZM361.739 294.186C361.739 300.333 356.755 305.316 350.609 305.316C344.462 305.316 339.478 300.333 339.478 294.186V230.539C339.478 224.392 344.462 219.409 350.609 219.409C356.755 219.409 361.739 224.392 361.739 230.539V294.186ZM438.261 485.114C438.261 491.261 433.277 496.245 427.13 496.245C420.984 496.245 416 491.261 416 485.114V421.472C416 415.325 420.984 410.342 427.13 410.342C433.277 410.342 438.261 415.325 438.261 421.472V485.114ZM438.261 389.65C438.261 395.797 433.277 400.781 427.13 400.781C420.984 400.781 416 395.797 416 389.65V326.006C416 319.859 420.984 314.876 427.13 314.876C433.277 314.876 438.261 319.859 438.261 326.006V389.65ZM438.261 294.186C438.261 300.333 433.277 305.316 427.13 305.316C420.984 305.316 416 300.333 416 294.186V230.539C416 224.392 420.984 219.409 427.13 219.409C433.277 219.409 438.261 224.392 438.261 230.539V294.186Z" fill="#0091AE"/>
</g>
<defs>
<clipPath id="clip0_2_41">
<rect width="512" height="512" fill="white"/>
</clipPath>
</defs>
</svg>
