<svg width="512" height="512" viewBox="0 0 512 512" fill="none" xmlns="http://www.w3.org/2000/svg">
<path d="M32 326.16V390.32C32 432.64 101.68 468.24 196.48 478.96C202.08 479.6 206.96 475.12 206.96 469.52V424.8C206.96 412.88 216.64 403.12 228.64 403.12H283.52C295.44 403.12 305.2 412.8 305.2 424.8V469.52C305.2 475.12 310.08 479.6 315.68 478.96C410.48 468.24 480.16 432.64 480.16 390.32V325.92C442.32 360 361.12 379.92 256.16 379.92C204.4 379.92 84.56 374.4 32.16 326.16H32Z" fill="#222A13"/>
<path d="M256 330.24C151.04 330.24 66 302.96 32 262.48V301.84L34.16 304.96C63.6 343.76 151.76 363.92 256 363.92C360.24 363.92 452.96 342.32 480 301.92V262.48C446 302.96 360.96 330.24 256 330.24Z" fill="#222A13"/>
<path d="M178.8 228.88L134.8 145.04C109.44 151.76 87.6 160.48 70.64 170.72L128.48 245.6C142.4 238.8 159.44 233.12 178.8 228.96V228.88Z" fill="#222A13"/>
<path d="M150.8 141.2L195.2 225.84C211.92 223.12 229.84 221.44 248.64 221.12L248 130.48C240.8 130.64 233.76 130.96 226.72 131.28V89.04H285.28V131.28C278.24 130.88 271.2 130.56 264 130.48L264.64 221.12C283.04 221.44 300.56 222.96 316.88 225.6L361.2 141.2C342.64 137.12 322.4 134.24 301.28 132.4V89.04H320.16C326.88 89.04 332.32 83.6 332.32 76.88V44.16C332.32 37.44 326.88 32 320.16 32H191.84C185.12 32 179.68 37.44 179.68 44.16V76.88C179.68 83.6 185.12 89.04 191.84 89.04H210.72V132.4C189.6 134.16 169.36 137.12 150.8 141.2Z" fill="#222A13"/>
<path d="M420.8 275.84C420.8 275.84 422.48 279.36 422.96 283.6C458.4 267.36 480 245.84 480 222.32C480 206.96 470.8 192.48 454.56 179.76L398.08 252.88C408.8 259.76 416.64 267.52 420.8 275.84Z" fill="#222A13"/>
<path d="M384 245.04L441.36 170.72C424.4 160.48 402.56 151.76 377.2 145.04L333.36 228.64C352.72 232.72 369.92 238.32 384 245.04Z" fill="#222A13"/>
<path d="M90.4 284.24C91.2 278.08 93.68 273.92 93.68 273.92C97.84 266.56 104.96 259.76 114.4 253.52L57.44 179.84C41.2 192.56 32 207.04 32 222.4C32 246.24 54.16 268 90.4 284.32V284.24Z" fill="#222A13"/>
</svg>
