<svg width="512" height="512" viewBox="0 0 512 512" fill="none" xmlns="http://www.w3.org/2000/svg">
<path d="M115.952 377.376H396.064C417.072 377.376 434.144 360.352 434.144 339.312V109.248C434.144 56.656 391.52 14.032 338.944 14.032H173.056C120.496 14.032 77.872 56.656 77.872 109.248V339.312C77.872 360.336 94.928 377.376 115.952 377.376ZM359.136 325.024C345.12 325.024 333.744 313.648 333.744 299.616C333.744 285.616 345.12 274.24 359.136 274.24C373.168 274.24 384.528 285.616 384.528 299.616C384.528 313.664 373.168 325.024 359.136 325.024ZM384.512 112.4V217.12H276V112.4H384.512ZM127.488 112.4H235.984V217.12H127.488V112.4ZM152.88 274.256C166.896 274.256 178.256 285.632 178.256 299.632C178.256 313.664 166.896 325.04 152.88 325.04C138.848 325.04 127.488 313.664 127.488 299.632C127.488 285.632 138.848 274.256 152.88 274.256Z" fill="#EA7A25"/>
<path d="M404.064 497.968H451.92L381.6 405.936H333.728L352.832 430.944H159.152L178.256 405.936H130.4L60.08 497.968H107.92L132.656 465.6H379.344L404.064 497.968Z" fill="#EA7A25"/>
</svg>
